  0
SECTION
  2
HEADER
  9
$ACADVER
  1
AC1014
  9
$ACADMAINTVER
 70
     0
  9
$DWGCODEPAGE
  3
ANSI_1252
  9
$INSBASE
 10
0.0
 20
0.0
 30
0.0
  9
$EXTMIN
 10
0.0
 20
0.0
 30
0.0
  9
$EXTMAX
 10
27.508533
 20
47.7752
 30
0.0
  9
$LIMMIN
 10
0.0
 20
0.0
  9
$LIMMAX
 10
12.0
 20
9.0
  9
$ORTHOMODE
 70
     0
  9
$REGENMODE
 70
     1
  9
$FILLMODE
 70
     0
  9
$QTEXTMODE
 70
     0
  9
$MIRRTEXT
 70
     1
  9
$DRAGMODE
 70
     2
  9
$LTSCALE
 40
1.0
  9
$OSMODE
 70
    37
  9
$ATTMODE
 70
     1
  9
$TEXTSIZE
 40
0.2
  9
$TRACEWID
 40
0.05
  9
$TEXTSTYLE
  7
STANDARD
  9
$CLAYER
  8
0
  9
$CELTYPE
  6
BYLAYER
  9
$CECOLOR
 62
   256
  9
$CELTSCALE
 40
1.0
  9
$DELOBJ
 70
     1
  9
$DISPSILH
 70
     0
  9
$DIMSCALE
 40
1.0
  9
$DIMASZ
 40
0.18
  9
$DIMEXO
 40
0.0625
  9
$DIMDLI
 40
0.38
  9
$DIMRND
 40
0.0
  9
$DIMDLE
 40
0.0
  9
$DIMEXE
 40
0.18
  9
$DIMTP
 40
0.0
  9
$DIMTM
 40
0.0
  9
$DIMTXT
 40
0.18
  9
$DIMCEN
 40
0.09
  9
$DIMTSZ
 40
0.0
  9
$DIMTOL
 70
     0
  9
$DIMLIM
 70
     0
  9
$DIMTIH
 70
     0
  9
$DIMTOH
 70
     0
  9
$DIMSE1
 70
     0
  9
$DIMSE2
 70
     0
  9
$DIMTAD
 70
     1
  9
$DIMZIN
 70
     0
  9
$DIMBLK
  1

  9
$DIMASO
 70
     1
  9
$DIMSHO
 70
     1
  9
$DIMPOST
  1

  9
$DIMAPOST
  1

  9
$DIMALT
 70
     0
  9
$DIMALTD
 70
     2
  9
$DIMALTF
 40
25.4
  9
$DIMLFAC
 40
1.0
  9
$DIMTOFL
 70
     0
  9
$DIMTVP
 40
0.0
  9
$DIMTIX
 70
     0
  9
$DIMSOXD
 70
     0
  9
$DIMSAH
 70
     0
  9
$DIMBLK1
  1

  9
$DIMBLK2
  1

  9
$DIMSTYLE
  2
STANDARD
  9
$DIMCLRD
 70
     0
  9
$DIMCLRE
 70
     0
  9
$DIMCLRT
 70
     0
  9
$DIMTFAC
 40
1.0
  9
$DIMGAP
 40
0.09
  9
$DIMJUST
 70
     0
  9
$DIMSD1
 70
     0
  9
$DIMSD2
 70
     0
  9
$DIMTOLJ
 70
     1
  9
$DIMTZIN
 70
     0
  9
$DIMALTZ
 70
     0
  9
$DIMALTTZ
 70
     0
  9
$DIMFIT
 70
     5
  9
$DIMUPT
 70
     0
  9
$DIMUNIT
 70
     2
  9
$DIMDEC
 70
     2
  9
$DIMTDEC
 70
     4
  9
$DIMALTU
 70
     2
  9
$DIMALTTD
 70
     2
  9
$DIMTXSTY
  7
STANDARD
  9
$DIMAUNIT
 70
     0
  9
$LUNITS
 70
     2
  9
$LUPREC
 70
     4
  9
$SKETCHINC
 40
0.1
  9
$FILLETRAD
 40
0.5
  9
$AUNITS
 70
     0
  9
$AUPREC
 70
     0
  9
$MENU
  1
.
  9
$ELEVATION
 40
0.0
  9
$PELEVATION
 40
0.0
  9
$THICKNESS
 40
0.0
  9
$LIMCHECK
 70
     0
  9
$BLIPMODE
 70
     0
  9
$CHAMFERA
 40
0.5
  9
$CHAMFERB
 40
0.5
  9
$CHAMFERC
 40
1.0
  9
$CHAMFERD
 40
0.0
  9
$SKPOLY
 70
     0
  9
$TDCREATE
 40
2450772.666465926
  9
$TDUPDATE
 40
2460687.023506945
  9
$TDINDWG
 40
0.0011564931
  9
$TDUSRTIMER
 40
0.0011564931
  9
$USRTIMER
 70
     1
  9
$ANGBASE
 50
0.0
  9
$ANGDIR
 70
     0
  9
$PDMODE
 70
     0
  9
$PDSIZE
 40
0.0
  9
$PLINEWID
 40
0.0
  9
$COORDS
 70
     1
  9
$SPLFRAME
 70
     0
  9
$SPLINETYPE
 70
     6
  9
$SPLINESEGS
 70
     8
  9
$ATTDIA
 70
     0
  9
$ATTREQ
 70
     1
  9
$HANDLING
 70
     1
  9
$HANDSEED
  5
293
  9
$SURFTAB1
 70
     6
  9
$SURFTAB2
 70
     6
  9
$SURFTYPE
 70
     6
  9
$SURFU
 70
     6
  9
$SURFV
 70
     6
  9
$UCSNAME
  2

  9
$UCSORG
 10
0.0
 20
0.0
 30
0.0
  9
$UCSXDIR
 10
1.0
 20
0.0
 30
0.0
  9
$UCSYDIR
 10
0.0
 20
1.0
 30
0.0
  9
$PUCSNAME
  2

  9
$PUCSORG
 10
0.0
 20
0.0
 30
0.0
  9
$PUCSXDIR
 10
1.0
 20
0.0
 30
0.0
  9
$PUCSYDIR
 10
0.0
 20
1.0
 30
0.0
  9
$USERI1
 70
     0
  9
$USERI2
 70
     0
  9
$USERI3
 70
     0
  9
$USERI4
 70
     0
  9
$USERI5
 70
     0
  9
$USERR1
 40
0.0
  9
$USERR2
 40
0.0
  9
$USERR3
 40
0.0
  9
$USERR4
 40
0.0
  9
$USERR5
 40
0.0
  9
$WORLDVIEW
 70
     1
  9
$SHADEDGE
 70
     3
  9
$SHADEDIF
 70
    70
  9
$TILEMODE
 70
     1
  9
$MAXACTVP
 70
    48
  9
$PINSBASE
 10
0.0
 20
0.0
 30
0.0
  9
$PLIMCHECK
 70
     0
  9
$PEXTMIN
 10
0.0
 20
0.0
 30
0.0
  9
$PEXTMAX
 10
0.0
 20
0.0
 30
0.0
  9
$PLIMMIN
 10
0.0
 20
0.0
  9
$PLIMMAX
 10
12.0
 20
9.0
  9
$UNITMODE
 70
     0
  9
$VISRETAIN
 70
     1
  9
$PLINEGEN
 70
     0
  9
$PSLTSCALE
 70
     1
  9
$TREEDEPTH
 70
  3020
  9
$PICKSTYLE
 70
     1
  9
$CMLSTYLE
  2
STANDARD
  9
$CMLJUST
 70
     0
  9
$CMLSCALE
 40
1.0
  9
$PROXYGRAPHICS
 70
     1
  9
$MEASUREMENT
 70
     0
  0
ENDSEC
  0
SECTION
  2
CLASSES
  0
CLASS
  1
LWPOLYLINE
  2
AcDbPolyline
  3
ObjectDBX Classes
 90
       20
280
     0
281
     1
  0
CLASS
  1
IMAGE
  2
AcDbRasterImage
  3
ISM
 90
       21
280
     0
281
     1
  0
CLASS
  1
OLE2FRAME
  2
AcDbOle2Frame
  3
ObjectDBX Classes
 90
       21
280
     0
281
     1
  0
CLASS
  1
HATCH
  2
AcDbHatch
  3
ObjectDBX Classes
 90
       20
280
     0
281
     1
  0
CLASS
  1
DICTIONARYVAR
  2
AcDbDictionaryVar
  3
ObjectDBX Classes
 90
       20
280
     0
281
     0
  0
CLASS
  1
RASTERVARIABLES
  2
AcDbRasterVariables
  3
ISM
 90
       21
280
     0
281
     0
  0
CLASS
  1
IMAGEDEF
  2
AcDbRasterImageDef
  3
ISM
 90
       21
280
     0
281
     0
  0
CLASS
  1
IMAGEDEF_REACTOR
  2
AcDbRasterImageDefReactor
  3
ISM
 90
       21
280
     0
281
     0
  0
CLASS
  1
IDBUFFER
  2
AcDbIdBuffer
  3
ObjectDBX Classes
 90
       20
280
     0
281
     0
  0
CLASS
  1
SPATIAL_FILTER
  2
AcDbSpatialFilter
  3
ObjectDBX Classes
 90
       20
280
     0
281
     0
  0
CLASS
  1
XRECORD
  2
AcDbXrecord
  3
ObjectDBX Classes
 90
       21
280
     0
281
     0
  0
CLASS
  1
ACDBDICTIONARYWDFLT
  2
AcDbDictionaryWithDefault
  3
ObjectDBX Classes
 90
       22
280
     0
281
     0
  0
CLASS
  1
SCALE
  2
AcDbScale
  3
ObjectDBX Classes
 90
       27
280
     0
281
     0
  0
CLASS
  1
VISUALSTYLE
  2
AcDbVisualStyle
  3
ObjectDBX Classes
 90
       26
280
     0
281
     0
  0
CLASS
  1
MATERIAL
  2
AcDbMaterial
  3
ObjectDBX Classes
 90
       23
280
     0
281
     0
  0
CLASS
  1
TABLESTYLE
  2
AcDbTableStyle
  3
ObjectDBX Classes
 90
       25
280
     0
281
     0
  0
CLASS
  1
MLEADERSTYLE
  2
AcDbMLeaderStyle
  3
ACDB_MLEADERSTYLE_CLASS
 90
       27
280
     0
281
     0
  0
CLASS
  1
SORTENTSTABLE
  2
AcDbSortentsTable
  3
"AutoCAD"
 90
        0
280
     0
281
     0
  0
CLASS
  1
LAYER_INDEX
  2
AcDbLayerIndex
  3
"Acad"
 90
        0
280
     0
281
     0
  0
CLASS
  1
SPATIAL_INDEX
  2
AcDbSpatialIndex
  3
"Acad"
 90
        0
280
     0
281
     0
  0
CLASS
  1
OBJECT_PTR
  2
CAseDLPNTableRecord
  3
"ASE-LPNTableRecord"
 90
        1
280
     0
281
     0
  0
CLASS
  1
LAYOUT
  2
AcDbLayout
  3
"AutoCAD 2000"
 90
        1
280
     0
281
     0
  0
CLASS
  1
PLOTSETTINGS
  2
AcDbPlotsettings
  3
"AutoCAD 2000"
 90
        1
280
     0
281
     0
  0
CLASS
  1
ACDBPLACEHOLDER
  2
AcDbPlaceholder
  3
"AutoCAD 2000"
 90
        1
280
     0
281
     0
  0
CLASS
  1
VBA_PROJECT
  2
AcDbVbaProject
  3
"AutoCAD 2000"
 90
        1
280
     0
281
     0
  0
CLASS
  1
WIPEOUT
  2
AcDbWipeout
  3
"AutoCAD 2000"
 90
        1
280
     0
281
     1
  0
CLASS
  1
WIPEOUTVARIABLES
  2
AcDbWipeoutVariables
  3
"AutoCAD 2000"
 90
        1
280
     0
281
     0
  0
CLASS
  1
RTEXT
  2
RText
  3
RText|AutoCAD Express Tool|expresstools@autodesk.com
 90
        1
280
     0
281
     1
  0
CLASS
  1
ARCALIGNEDTEXT
  2
AcDbArcAlignedText
  3
RText|AutoCAD Express Tool|expresstools@autodesk.com
 90
        1
280
     0
281
     1
  0
ENDSEC
  0
SECTION
  2
TABLES
  0
TABLE
  2
VPORT
  5
8
100
AcDbSymbolTable
 70
     1
  0
VPORT
  5
25
100
AcDbSymbolTableRecord
100
AcDbViewportTableRecord
  2
*ACTIVE
 70
     0
 10
0.0
 20
0.0
 11
1.0
 21
1.0
 12
13.754267
 22
23.8876
 13
0.0
 23
0.0
 14
0.5
 24
0.5
 15
0.5
 25
0.5
 16
0.0
 26
0.0
 36
1.0
 17
0.0
 27
0.0
 37
0.0
 40
47.7752
 41
0.575791
 42
50.0
 43
0.0
 44
0.0
 50
0.0
 51
0.0
 71
     0
 72
   100
 73
     1
 74
     1
 75
     0
 76
     0
 77
     0
 78
     0
  0
ENDTAB
  0
TABLE
  2
LTYPE
  5
5
100
AcDbSymbolTable
 70
     3
  0
LTYPE
  5
12
100
AcDbSymbolTableRecord
100
AcDbLinetypeTableRecord
  2
BYBLOCK
 70
     0
  3

 72
    65
 73
     0
 40
0.0
  0
LTYPE
  5
13
100
AcDbSymbolTableRecord
100
AcDbLinetypeTableRecord
  2
BYLAYER
 70
     0
  3

 72
    65
 73
     0
 40
0.0
  0
LTYPE
  5
14
100
AcDbSymbolTableRecord
100
AcDbLinetypeTableRecord
  2
CONTINUOUS
 70
     0
  3
Solid line
 72
    65
 73
     0
 40
0.0
  0
ENDTAB
  0
TABLE
  2
LAYER
  5
2
100
AcDbSymbolTable
 70
     6
  0
LAYER
  5
E
100
AcDbSymbolTableRecord
100
AcDbLayerTableRecord
  2
0
 70
     0
 62
     7
  6
CONTINUOUS
  0
LAYER
  5
75
100
AcDbSymbolTableRecord
100
AcDbLayerTableRecord
  2
SPACE
 70
     0
 62
     7
  6
CONTINUOUS
  0
LAYER
  5
92
100
AcDbSymbolTableRecord
100
AcDbLayerTableRecord
  2
BUILDING_ENVELOPE
 70
     0
 62
     7
  6
CONTINUOUS
  0
LAYER
  5
195
100
AcDbSymbolTableRecord
100
AcDbLayerTableRecord
  2
LANDING
 70
     0
 62
     7
  6
CONTINUOUS
  0
LAYER
  5
1A9
100
AcDbSymbolTableRecord
100
AcDbLayerTableRecord
  2
STAIR
 70
     0
 62
     7
  6
CONTINUOUS
  0
LAYER
  5
261
100
AcDbSymbolTableRecord
100
AcDbLayerTableRecord
  2
WALL
 70
     0
 62
     7
  6
CONTINUOUS
  0
ENDTAB
  0
TABLE
  2
STYLE
  5
3
100
AcDbSymbolTable
 70
     1
  0
STYLE
  5
F
100
AcDbSymbolTableRecord
100
AcDbTextStyleTableRecord
  2
STANDARD
 70
     0
 40
0.0
 41
1.0
 50
0.0
 71
     0
 42
0.2
  3
txt.shx
  4

  0
ENDTAB
  0
TABLE
  2
VIEW
  5
6
100
AcDbSymbolTable
 70
     0
  0
ENDTAB
  0
TABLE
  2
UCS
  5
7
100
AcDbSymbolTable
 70
     0
  0
ENDTAB
  0
TABLE
  2
APPID
  5
9
100
AcDbSymbolTable
 70
     1
  0
APPID
  5
10
100
AcDbSymbolTableRecord
100
AcDbRegAppTableRecord
  2
ACAD
 70
     0
  0
ENDTAB
  0
TABLE
  2
DIMSTYLE
  5
A
100
AcDbSymbolTable
 70
     1
  0
DIMSTYLE
105
1D
100
AcDbSymbolTableRecord
100
AcDbDimStyleTableRecord
  2
STANDARD
 70
     0
  3

  4

  5

  6

  7

 40
1.0
 41
0.18
 42
0.0625
 43
0.38
 44
0.18
 45
0.0
 46
0.0
 47
0.0
 48
0.0
 71
     0
 72
     0
 73
     1
 74
     1
 75
     0
 76
     0
 77
     0
 78
     0
140
0.18
141
0.09
142
0.0
143
25.4
144
1.0
145
0.0
146
1.0
147
0.09
170
     0
171
     2
172
     0
173
     0
174
     0
175
     0
176
     0
177
     0
178
     0
270
     2
271
     4
272
     4
273
     2
274
     2
275
     0
280
     0
281
     0
282
     0
283
     1
284
     0
285
     0
286
     0
287
     3
288
     0
340
F
  0
ENDTAB
  0
TABLE
  2
BLOCK_RECORD
  5
1
100
AcDbSymbolTable
 70
     9
  0
BLOCK_RECORD
  5
18
100
AcDbSymbolTableRecord
100
AcDbBlockTableRecord
  2
*MODEL_SPACE
  0
BLOCK_RECORD
  5
15
100
AcDbSymbolTableRecord
100
AcDbBlockTableRecord
  2
*PAPER_SPACE
  0
BLOCK_RECORD
  5
1B9
100
AcDbSymbolTableRecord
100
AcDbBlockTableRecord
  2
NONE_
  0
BLOCK_RECORD
  5
1BC
100
AcDbSymbolTableRecord
100
AcDbBlockTableRecord
  2
WALL
  0
BLOCK_RECORD
  5
1C3
100
AcDbSymbolTableRecord
100
AcDbBlockTableRecord
  2
DOOR
  0
BLOCK_RECORD
  5
1F2
100
AcDbSymbolTableRecord
100
AcDbBlockTableRecord
  2
CASEMENT
  0
BLOCK_RECORD
  5
21C
100
AcDbSymbolTableRecord
100
AcDbBlockTableRecord
  2
DOUBLE
  0
BLOCK_RECORD
  5
24D
100
AcDbSymbolTableRecord
100
AcDbBlockTableRecord
  2
CORNER_HANDRAIL
  0
BLOCK_RECORD
  5
256
100
AcDbSymbolTableRecord
100
AcDbBlockTableRecord
  2
CORNER_LANDING
  0
BLOCK_RECORD
  5
266
100
AcDbSymbolTableRecord
100
AcDbBlockTableRecord
  2
STRAIGHT_STAIRCASE
  0
BLOCK_RECORD
  5
28D
100
AcDbSymbolTableRecord
100
AcDbBlockTableRecord
  2
SPACE
  0
ENDTAB
  0
ENDSEC
  0
SECTION
  2
BLOCKS
  0
BLOCK
  5
19
100
AcDbEntity
  8
0
100
AcDbBlockBegin
  2
*MODEL_SPACE
 70
     0
 10
0.0
 20
0.0
 30
0.0
  3
*MODEL_SPACE
  1

  0
ENDBLK
  5
1A
100
AcDbEntity
  8
0
100
AcDbBlockEnd
  0
BLOCK
  5
16
100
AcDbEntity
 67
     1
  8
0
100
AcDbBlockBegin
  2
*PAPER_SPACE
 70
     0
 10
0.0
 20
0.0
 30
0.0
  3
*PAPER_SPACE
  1

  0
ENDBLK
  5
17
100
AcDbEntity
 67
     1
  8
0
100
AcDbBlockEnd
  0
BLOCK
  5
1BA
100
AcDbEntity
  8
0
100
AcDbBlockBegin
  2
NONE_
 70
     0
 10
0.0
 20
0.0
 30
0.0
  3
NONE_
  1

  0
ENDBLK
  5
1BB
100
AcDbEntity
  8
0
100
AcDbBlockEnd
  0
BLOCK
  5
1BD
100
AcDbEntity
  8
0
100
AcDbBlockBegin
  2
WALL
 70
     0
 10
0.0
 20
0.0
 30
0.0
  3
WALL
  1

  0
LWPOLYLINE
  5
1BE
102
{ACAD_REACTORS
330
1BF
102
}
100
AcDbEntity
  8
BUILDING_ENVELOPE
  6
CONTINUOUS
 62
     7
100
AcDbPolyline
 90
        6
 70
     1
 10
1.0
 20
5.333333
 10
9.0
 20
5.333333
 10
9.0
 20
5.166667
 10
9.0
 20
5.0
 10
1.0
 20
5.0
 10
1.0
 20
5.166667
  0
HATCH
  5
1BF
100
AcDbEntity
  8
BUILDING_ENVELOPE
 62
   253
100
AcDbHatch
 10
0.0
 20
0.0
 30
0.0
210
0.0
220
0.0
230
1.0
  2
SOLID
 70
     1
 71
     1
 91
        1
 92
        3
 72
     0
 73
     1
 93
        6
 10
1.0
 20
5.333333333333333
 10
9.0
 20
5.333333333333333
 10
9.0
 20
5.1666666666666661
 10
9.0
 20
5.0
 10
1.0
 20
5.0
 10
1.0
 20
5.1666666666666661
 97
        1
330
1BE
 75
     0
 76
     1
 98
        0
  0
LWPOLYLINE
  5
1C0
100
AcDbEntity
  8
BUILDING_ENVELOPE
  6
CONTINUOUS
 62
     7
100
AcDbPolyline
 90
        4
 70
     0
 10
1.0
 20
5.166667
 10
1.0
 20
5.333333
 10
9.0
 20
5.333333
 10
9.0
 20
5.166667
  0
LWPOLYLINE
  5
1C1
100
AcDbEntity
  8
BUILDING_ENVELOPE
  6
CONTINUOUS
 62
     7
100
AcDbPolyline
 90
        4
 70
     0
 10
1.0
 20
5.166667
 10
1.0
 20
5.0
 10
9.0
 20
5.0
 10
9.0
 20
5.166667
  0
ENDBLK
  5
1C2
100
AcDbEntity
  8
0
100
AcDbBlockEnd
  0
BLOCK
  5
1C4
100
AcDbEntity
  8
0
100
AcDbBlockBegin
  2
DOOR
 70
     2
 10
0.0
 20
0.0
 30
0.0
  3
DOOR
  1

  0
ATTDEF
  5
1C5
100
AcDbEntity
  8
0
100
AcDbText
 10
5.0
 20
5.0
 30
0.0
 40
0.2
  1
80
100
AcDbAttributeDefinition
  3
Door height
  2
VISDOORHEIGHT
 70
     0
  0
ATTDEF
  5
1C6
100
AcDbEntity
  8
0
100
AcDbText
 10
5.0
 20
5.0
 30
0.0
 40
0.2
  1
0
100
AcDbAttributeDefinition
  3
Reference Line Offset
  2
REFLN
 70
     0
  0
ATTDEF
  5
1C7
100
AcDbEntity
  8
0
100
AcDbText
 10
5.0
 20
5.0
 30
0.0
 40
0.2
  1
30
100
AcDbAttributeDefinition
  3
Door width
  2
SUBTYPE
 70
     0
  0
ATTDEF
  5
1C8
100
AcDbEntity
  8
0
100
AcDbText
 10
5.0
 20
5.0
 30
0.0
 40
0.2
  1
2
100
AcDbAttributeDefinition
  3
Door frame width
  2
SUBVISDOORFRAMEWIDTH
 70
     0
  0
ATTDEF
  5
1C9
100
AcDbEntity
  8
0
100
AcDbText
 10
5.0
 20
5.0
 30
0.0
 40
0.2
  1
4
100
AcDbAttributeDefinition
  3
Door frame depth
  2
SUBVISDOORFRAMEDEPTH
 70
     0
  0
ATTDEF
  5
1CA
100
AcDbEntity
  8
0
100
AcDbText
 10
5.0
 20
5.0
 30
0.0
 40
0.2
  1
0.5
100
AcDbAttributeDefinition
  3
Door stop width
  2
SUBVISDOORSTOPWIDTH
 70
     0
  0
ATTDEF
  5
1CB
100
AcDbEntity
  8
0
100
AcDbText
 10
5.0
 20
5.0
 30
0.0
 40
0.2
  1
1.5
100
AcDbAttributeDefinition
  3
Door stop depth
  2
SUBVISDOORSTOPDEPTH
 70
     0
  0
ATTDEF
  5
1CC
100
AcDbEntity
  8
0
100
AcDbText
 10
5.0
 20
5.0
 30
0.0
 40
0.2
  1
2
100
AcDbAttributeDefinition
  3
Door threshold depth inside
  2
SUBVISDOORTHRESDEPTHIN
 70
     0
  0
ATTDEF
  5
1CD
100
AcDbEntity
  8
0
100
AcDbText
 10
5.0
 20
5.0
 30
0.0
 40
0.2
  1
2
100
AcDbAttributeDefinition
  3
Door threshold width inside
  2
SUBVISDOORTHRESWIDTHIN
 70
     0
  0
ATTDEF
  5
1CE
100
AcDbEntity
  8
0
100
AcDbText
 10
5.0
 20
5.0
 30
0.0
 40
0.2
  1
2
100
AcDbAttributeDefinition
  3
Door threshold depth outside
  2
SUBVISDOORTHRESDEPTHOUT
 70
     0
  0
ATTDEF
  5
1CF
100
AcDbEntity
  8
0
100
AcDbText
 10
5.0
 20
5.0
 30
0.0
 40
0.2
  1
2
100
AcDbAttributeDefinition
  3
Door threshold width outside
  2
SUBVISDOORTHRESWIDTHOUT
 70
     0
  0
ATTDEF
  5
1D0
100
AcDbEntity
  8
0
100
AcDbText
 10
5.0
 20
5.0
 30
0.0
 40
0.2
  1
2
100
AcDbAttributeDefinition
  3
Door panel thickness
  2
SUBVISDOORPANELTHICKNESS
 70
     0
  0
ATTDEF
  5
1D1
100
AcDbEntity
  8
0
100
AcDbText
 10
5.0
 20
5.0
 30
0.0
 40
0.2
  1
15
100
AcDbAttributeDefinition
  3
Door leaf width
  2
VISDOORLEAF
 70
     0
  0
ATTDEF
  5
1D2
100
AcDbEntity
  8
0
100
AcDbText
 10
5.0
 20
5.0
 30
0.0
 40
0.2
  1
12
100
AcDbAttributeDefinition
  3
Door spring height
  2
VISDOORSPRING
 70
     0
  0
ATTDEF
  5
1D3
100
AcDbEntity
  8
0
100
AcDbText
 10
5.0
 20
5.0
 30
0.0
 40
0.2
  1
6
100
AcDbAttributeDefinition
  3
Door along wall offset
  2
VISDOORALONGWALLOFFSET
 70
     0
  0
ATTDEF
  5
1D4
100
AcDbEntity
  8
0
100
AcDbText
 10
5.0
 20
5.0
 30
0.0
 40
0.2
  1
Single
100
AcDbAttributeDefinition
  3
Door type
  2
SUBSHAPETYPE
 70
     0
  0
ATTDEF
  5
1D5
100
AcDbEntity
  8
0
100
AcDbText
 10
5.0
 20
5.0
 30
0.0
 40
0.2
  1
Center
100
AcDbAttributeDefinition
  3
Door within wall offset
  2
VISJUSTIFICATION
 70
     0
  0
ATTDEF
  5
1D6
100
AcDbEntity
  8
0
100
AcDbText
 10
5.0
 20
5.0
 30
0.0
 40
0.2
  1
50
100
AcDbAttributeDefinition
  3
Door open percentage
  2
VISDOOROPENPERCENT
 70
     0
  0
ATTDEF
  5
1D7
100
AcDbEntity
  8
0
100
AcDbText
 10
5.0
 20
5.0
 30
0.0
 40
0.2
  1
Building Component
100
AcDbAttributeDefinition
  3
Shape class
  2
SHAPECLASS
 70
     0
  0
ATTDEF
  5
1D8
100
AcDbEntity
  8
0
100
AcDbText
 10
5.0
 20
5.0
 30
0.0
 40
0.2
  1
Door
100
AcDbAttributeDefinition
  3
Shape type
  2
SHAPETYPE
 70
     0
  0
ATTDEF
  5
1D9
100
AcDbEntity
  8
0
100
AcDbText
 10
5.0
 20
5.0
 30
0.0
 40
0.2
  1
0
100
AcDbAttributeDefinition
  3
Fire rating
  2
FIRERATING
 70
     0
  0
ATTDEF
  5
1DA
100
AcDbEntity
  8
0
100
AcDbText
 10
5.0
 20
5.0
 30
0.0
 40
0.2
  1
0
100
AcDbAttributeDefinition
  3
Door number
  2
DOORNUMBER
 70
     0
  0
ATTDEF
  5
1DB
100
AcDbEntity
  8
0
100
AcDbText
 10
5.0
 20
5.0
 30
0.0
 40
0.2
  1
0
100
AcDbAttributeDefinition
  3
Base elevation
  2
BASEELEVATION
 70
     0
  0
LWPOLYLINE
  5
1DC
102
{ACAD_REACTORS
330
254
102
}
100
AcDbEntity
  8
BUILDING_ENVELOPE
  6
CONTINUOUS
 62
     7
100
AcDbPolyline
 90
        4
 70
     1
 10
3.583333
 20
4.734
 10
6.416667
 20
4.734
 10
6.416667
 20
5.266
 10
3.583333
 20
5.266
  0
LINE
  5
1DD
102
{ACAD_REACTORS
330
254
102
}
100
AcDbEntity
  8
BUILDING_ENVELOPE
  6
CONTINUOUS
 62
     7
100
AcDbLine
 10
6.416667
 20
4.75
 30
0.0
 11
6.416667
 21
5.25
 31
0.0
  0
LINE
  5
1DE
102
{ACAD_REACTORS
330
254
102
}
100
AcDbEntity
  8
BUILDING_ENVELOPE
  6
CONTINUOUS
 62
     7
100
AcDbLine
 10
6.416667
 20
5.25
 30
0.0
 11
6.25
 21
5.25
 31
0.0
  0
LINE
  5
1DF
102
{ACAD_REACTORS
330
254
102
}
100
AcDbEntity
  8
BUILDING_ENVELOPE
  6
CONTINUOUS
 62
     7
100
AcDbLine
 10
6.25
 20
5.25
 30
0.0
 11
6.25
 21
5.083333
 31
0.0
  0
LINE
  5
1E0
102
{ACAD_REACTORS
330
254
102
}
100
AcDbEntity
  8
BUILDING_ENVELOPE
  6
CONTINUOUS
 62
     7
100
AcDbLine
 10
6.25
 20
4.958333
 30
0.0
 11
6.25
 21
4.75
 31
0.0
  0
LINE
  5
1E1
102
{ACAD_REACTORS
330
254
102
}
100
AcDbEntity
  8
BUILDING_ENVELOPE
  6
CONTINUOUS
 62
     7
100
AcDbLine
 10
6.25
 20
4.75
 30
0.0
 11
6.416667
 21
4.75
 31
0.0
  0
LINE
  5
1E2
102
{ACAD_REACTORS
330
254
102
}
100
AcDbEntity
  8
BUILDING_ENVELOPE
  6
CONTINUOUS
 62
     7
100
AcDbLine
 10
3.583333
 20
4.75
 30
0.0
 11
3.583333
 21
5.25
 31
0.0
  0
LINE
  5
1E3
102
{ACAD_REACTORS
330
254
102
}
100
AcDbEntity
  8
BUILDING_ENVELOPE
  6
CONTINUOUS
 62
     7
100
AcDbLine
 10
3.583333
 20
5.25
 30
0.0
 11
3.75
 21
5.25
 31
0.0
  0
LINE
  5
1E4
102
{ACAD_REACTORS
330
254
102
}
100
AcDbEntity
  8
BUILDING_ENVELOPE
  6
CONTINUOUS
 62
     7
100
AcDbLine
 10
3.75
 20
5.25
 30
0.0
 11
3.75
 21
5.083333
 31
0.0
  0
LINE
  5
1E5
102
{ACAD_REACTORS
330
254
102
}
100
AcDbEntity
  8
BUILDING_ENVELOPE
  6
CONTINUOUS
 62
     7
100
AcDbLine
 10
3.75
 20
4.958333
 30
0.0
 11
3.75
 21
4.75
 31
0.0
  0
LINE
  5
1E6
102
{ACAD_REACTORS
330
254
102
}
100
AcDbEntity
  8
BUILDING_ENVELOPE
  6
CONTINUOUS
 62
     7
100
AcDbLine
 10
3.75
 20
4.75
 30
0.0
 11
3.583333
 21
4.75
 31
0.0
  0
LINE
  5
1E7
102
{ACAD_REACTORS
330
254
102
}
100
AcDbEntity
  8
BUILDING_ENVELOPE
  6
CONTINUOUS
 62
     7
100
AcDbLine
 10
6.25
 20
5.083333
 30
0.0
 11
6.208333
 21
5.083333
 31
0.0
  0
LINE
  5
1E8
102
{ACAD_REACTORS
330
254
102
}
100
AcDbEntity
  8
BUILDING_ENVELOPE
  6
CONTINUOUS
 62
     7
100
AcDbLine
 10
6.208333
 20
5.083333
 30
0.0
 11
6.208333
 21
4.958333
 31
0.0
  0
LINE
  5
1E9
102
{ACAD_REACTORS
330
254
102
}
100
AcDbEntity
  8
BUILDING_ENVELOPE
  6
CONTINUOUS
 62
     7
100
AcDbLine
 10
6.208333
 20
4.958333
 30
0.0
 11
6.25
 21
4.958333
 31
0.0
  0
LINE
  5
1EA
102
{ACAD_REACTORS
330
254
102
}
100
AcDbEntity
  8
BUILDING_ENVELOPE
  6
CONTINUOUS
 62
     7
100
AcDbLine
 10
3.75
 20
5.083333
 30
0.0
 11
3.791667
 21
5.083333
 31
0.0
  0
LINE
  5
1EB
102
{ACAD_REACTORS
330
254
102
}
100
AcDbEntity
  8
BUILDING_ENVELOPE
  6
CONTINUOUS
 62
     7
100
AcDbLine
 10
3.791667
 20
5.083333
 30
0.0
 11
3.791667
 21
4.958333
 31
0.0
  0
LINE
  5
1EC
102
{ACAD_REACTORS
330
254
102
}
100
AcDbEntity
  8
BUILDING_ENVELOPE
  6
CONTINUOUS
 62
     7
100
AcDbLine
 10
3.791667
 20
4.958333
 30
0.0
 11
3.75
 21
4.958333
 31
0.0
  0
LINE
  5
1ED
100
AcDbEntity
  8
BUILDING_ENVELOPE
  6
CONTINUOUS
 62
     7
100
AcDbLine
 10
6.416667
 20
4.75
 30
0.0
 11
6.416667
 21
5.25
 31
0.0
  0
LINE
  5
1EE
100
AcDbEntity
  8
BUILDING_ENVELOPE
  6
CONTINUOUS
 62
     7
100
AcDbLine
 10
3.583333
 20
4.75
 30
0.0
 11
3.583333
 21
5.25
 31
0.0
  0
ARC
  5
1EF
100
AcDbEntity
  8
BUILDING_ENVELOPE
  6
CONTINUOUS
 62
     7
100
AcDbCircle
 10
6.25
 20
5.25
 30
0.0
 40
2.5
100
AcDbArc
 50
90.0
 51
180.0
  0
LWPOLYLINE
  5
1F0
102
{ACAD_REACTORS
330
254
102
}
100
AcDbEntity
  8
BUILDING_ENVELOPE
  6
CONTINUOUS
 62
     7
100
AcDbPolyline
 90
        4
 70
     1
 10
6.083333
 20
7.75
 10
6.083333
 20
5.25
 10
6.25
 20
5.25
 10
6.25
 20
7.75
  0
ENDBLK
  5
1F1
100
AcDbEntity
  8
0
100
AcDbBlockEnd
  0
BLOCK
  5
1F3
100
AcDbEntity
  8
0
100
AcDbBlockBegin
  2
CASEMENT
 70
     2
 10
0.0
 20
0.0
 30
0.0
  3
CASEMENT
  1

  0
ATTDEF
  5
1F4
100
AcDbEntity
  8
0
100
AcDbText
 10
5.0
 20
5.0
 30
0.0
 40
0.2
  1
60
100
AcDbAttributeDefinition
  3
Window height
  2
VISWNDWHEIGHT
 70
     0
  0
ATTDEF
  5
1F5
100
AcDbEntity
  8
0
100
AcDbText
 10
5.0
 20
5.0
 30
0.0
 40
0.2
  1
0
100
AcDbAttributeDefinition
  3
Reference Line Offset
  2
REFLN
 70
     0
  0
ATTDEF
  5
1F6
100
AcDbEntity
  8
0
100
AcDbText
 10
5.0
 20
5.0
 30
0.0
 40
0.2
  1
30
100
AcDbAttributeDefinition
  3
Window width
  2
SUBTYPE
 70
     0
  0
ATTDEF
  5
1F7
100
AcDbEntity
  8
0
100
AcDbText
 10
5.0
 20
5.0
 30
0.0
 40
0.2
  1
2
100
AcDbAttributeDefinition
  3
Window frame depth
  2
SUBVISWNDWFRAMEDEPTH
 70
     0
  0
ATTDEF
  5
1F8
100
AcDbEntity
  8
0
100
AcDbText
 10
5.0
 20
5.0
 30
0.0
 40
0.2
  1
4
100
AcDbAttributeDefinition
  3
Window frame width
  2
SUBVISWNDWFRAMEWIDTH
 70
     0
  0
ATTDEF
  5
1F9
100
AcDbEntity
  8
0
100
AcDbText
 10
5.0
 20
5.0
 30
0.0
 40
0.2
  1
2.5
100
AcDbAttributeDefinition
  3
Window sash depth
  2
SUBVISWNDWSASHDEPTH
 70
     0
  0
ATTDEF
  5
1FA
100
AcDbEntity
  8
0
100
AcDbText
 10
5.0
 20
5.0
 30
0.0
 40
0.2
  1
1
100
AcDbAttributeDefinition
  3
Window sash width
  2
SUBVISWNDWSASHWIDTH
 70
     0
  0
ATTDEF
  5
1FB
100
AcDbEntity
  8
0
100
AcDbText
 10
5.0
 20
5.0
 30
0.0
 40
0.2
  1
2
100
AcDbAttributeDefinition
  3
Window sill depth inside
  2
SUBVISWNDWSILLDEPTHIN
 70
     0
  0
ATTDEF
  5
1FC
100
AcDbEntity
  8
0
100
AcDbText
 10
5.0
 20
5.0
 30
0.0
 40
0.2
  1
2
100
AcDbAttributeDefinition
  3
Window sill width inside
  2
SUBVISWNDWSILLWIDTHIN
 70
     0
  0
ATTDEF
  5
1FD
100
AcDbEntity
  8
0
100
AcDbText
 10
5.0
 20
5.0
 30
0.0
 40
0.2
  1
2
100
AcDbAttributeDefinition
  3
Window sill depth outside
  2
SUBVISWNDWSILLDEPTHOUT
 70
     0
  0
ATTDEF
  5
1FE
100
AcDbEntity
  8
0
100
AcDbText
 10
5.0
 20
5.0
 30
0.0
 40
0.2
  1
2
100
AcDbAttributeDefinition
  3
Window sill width outside
  2
SUBVISWNDWSILLWIDTHOUT
 70
     0
  0
ATTDEF
  5
1FF
100
AcDbEntity
  8
0
100
AcDbText
 10
5.0
 20
5.0
 30
0.0
 40
0.2
  1
80
100
AcDbAttributeDefinition
  3
Window header height
  2
VISWNDWHEADERHEIGHT
 70
     0
  0
ATTDEF
  5
200
100
AcDbEntity
  8
0
100
AcDbText
 10
5.0
 20
5.0
 30
0.0
 40
0.2
  1
6
100
AcDbAttributeDefinition
  3
Window along wall offset
  2
VISWNDWALONGWALLOFFSET
 70
     0
  0
ATTDEF
  5
201
100
AcDbEntity
  8
0
100
AcDbText
 10
5.0
 20
5.0
 30
0.0
 40
0.2
  1
15
100
AcDbAttributeDefinition
  3
Window operator size
  2
VISWNDWOPERATOR
 70
     0
  0
ATTDEF
  5
202
100
AcDbEntity
  8
0
100
AcDbText
 10
5.0
 20
5.0
 30
0.0
 40
0.2
  1
12
100
AcDbAttributeDefinition
  3
Window spring height
  2
VISWNDWSPRING
 70
     0
  0
ATTDEF
  5
203
100
AcDbEntity
  8
0
100
AcDbText
 10
5.0
 20
5.0
 30
0.0
 40
0.2
  1
Center
100
AcDbAttributeDefinition
  3
Window within wall offset
  2
VISJUSTIFICATION
 70
     0
  0
ATTDEF
  5
204
100
AcDbEntity
  8
0
100
AcDbText
 10
5.0
 20
5.0
 30
0.0
 40
0.2
  1
Building Component
100
AcDbAttributeDefinition
  3
Shape class
  2
SHAPECLASS
 70
     0
  0
ATTDEF
  5
205
100
AcDbEntity
  8
0
100
AcDbText
 10
5.0
 20
5.0
 30
0.0
 40
0.2
  1
Window
100
AcDbAttributeDefinition
  3
Shape type
  2
SHAPETYPE
 70
     0
  0
ATTDEF
  5
206
100
AcDbEntity
  8
0
100
AcDbText
 10
5.0
 20
5.0
 30
0.0
 40
0.2
  1
Casement
100
AcDbAttributeDefinition
  3
Window type
  2
SUBSHAPETYPE
 70
     0
  0
ATTDEF
  5
207
100
AcDbEntity
  8
0
100
AcDbText
 10
5.0
 20
5.0
 30
0.0
 40
0.2
  1
0
100
AcDbAttributeDefinition
  3
Fire rating
  2
FIRERATING
 70
     0
  0
ATTDEF
  5
208
100
AcDbEntity
  8
0
100
AcDbText
 10
5.0
 20
5.0
 30
0.0
 40
0.2
  1
0
100
AcDbAttributeDefinition
  3
Window number
  2
WNDWNUMBER
 70
     0
  0
LWPOLYLINE
  5
209
102
{ACAD_REACTORS
330
254
102
}
100
AcDbEntity
  8
BUILDING_ENVELOPE
  6
CONTINUOUS
 62
     7
100
AcDbPolyline
 90
        4
 70
     1
 10
3.75
 20
4.734
 10
6.25
 20
4.734
 10
6.25
 20
5.266
 10
3.75
 20
5.266
  0
LINE
  5
20A
102
{ACAD_REACTORS
330
254
102
}
100
AcDbEntity
  8
BUILDING_ENVELOPE
  6
CONTINUOUS
 62
     7
100
AcDbLine
 10
3.75
 20
4.75
 30
0.0
 11
3.75
 21
5.25
 31
0.0
  0
LINE
  5
20B
102
{ACAD_REACTORS
330
254
102
}
100
AcDbEntity
  8
BUILDING_ENVELOPE
  6
CONTINUOUS
 62
     7
100
AcDbLine
 10
3.75
 20
5.25
 30
0.0
 11
4.083333
 21
5.25
 31
0.0
  0
LINE
  5
20C
102
{ACAD_REACTORS
330
254
102
}
100
AcDbEntity
  8
BUILDING_ENVELOPE
  6
CONTINUOUS
 62
     7
100
AcDbLine
 10
4.083333
 20
5.25
 30
0.0
 11
4.083333
 21
5.104167
 31
0.0
  0
LINE
  5
20D
102
{ACAD_REACTORS
330
254
102
}
100
AcDbEntity
  8
BUILDING_ENVELOPE
  6
CONTINUOUS
 62
     7
100
AcDbLine
 10
4.083333
 20
4.895833
 30
0.0
 11
4.083333
 21
4.75
 31
0.0
  0
LINE
  5
20E
102
{ACAD_REACTORS
330
254
102
}
100
AcDbEntity
  8
BUILDING_ENVELOPE
  6
CONTINUOUS
 62
     7
100
AcDbLine
 10
4.083333
 20
4.75
 30
0.0
 11
3.75
 21
4.75
 31
0.0
  0
LINE
  5
20F
102
{ACAD_REACTORS
330
254
102
}
100
AcDbEntity
  8
BUILDING_ENVELOPE
  6
CONTINUOUS
 62
     7
100
AcDbLine
 10
6.25
 20
4.75
 30
0.0
 11
6.25
 21
5.25
 31
0.0
  0
LINE
  5
210
102
{ACAD_REACTORS
330
254
102
}
100
AcDbEntity
  8
BUILDING_ENVELOPE
  6
CONTINUOUS
 62
     7
100
AcDbLine
 10
6.25
 20
5.25
 30
0.0
 11
5.916667
 21
5.25
 31
0.0
  0
LINE
  5
211
102
{ACAD_REACTORS
330
254
102
}
100
AcDbEntity
  8
BUILDING_ENVELOPE
  6
CONTINUOUS
 62
     7
100
AcDbLine
 10
5.916667
 20
5.25
 30
0.0
 11
5.916667
 21
5.104167
 31
0.0
  0
LINE
  5
212
102
{ACAD_REACTORS
330
254
102
}
100
AcDbEntity
  8
BUILDING_ENVELOPE
  6
CONTINUOUS
 62
     7
100
AcDbLine
 10
5.916667
 20
4.895833
 30
0.0
 11
5.916667
 21
4.75
 31
0.0
  0
LINE
  5
213
102
{ACAD_REACTORS
330
254
102
}
100
AcDbEntity
  8
BUILDING_ENVELOPE
  6
CONTINUOUS
 62
     7
100
AcDbLine
 10
5.916667
 20
4.75
 30
0.0
 11
6.25
 21
4.75
 31
0.0
  0
LWPOLYLINE
  5
214
102
{ACAD_REACTORS
330
254
102
}
100
AcDbEntity
  8
BUILDING_ENVELOPE
  6
CONTINUOUS
 62
     7
100
AcDbPolyline
 90
        4
 70
     1
 10
4.083333
 20
5.208333
 10
4.166667
 20
5.208333
 10
4.166667
 20
5.0
 10
4.083333
 20
5.0
  0
LWPOLYLINE
  5
215
102
{ACAD_REACTORS
330
254
102
}
100
AcDbEntity
  8
BUILDING_ENVELOPE
  6
CONTINUOUS
 62
     7
100
AcDbPolyline
 90
        4
 70
     1
 10
5.916667
 20
5.208333
 10
5.833333
 20
5.208333
 10
5.833333
 20
5.0
 10
5.916667
 20
5.0
  0
LINE
  5
216
100
AcDbEntity
  8
BUILDING_ENVELOPE
  6
CONTINUOUS
 62
     7
100
AcDbLine
 10
4.166667
 20
5.104167
 30
0.0
 11
5.833333
 21
5.104167
 31
0.0
  0
LINE
  5
217
100
AcDbEntity
  8
BUILDING_ENVELOPE
  6
CONTINUOUS
 62
     7
100
AcDbLine
 10
3.75
 20
4.75
 30
0.0
 11
3.75
 21
5.25
 31
0.0
  0
LINE
  5
218
100
AcDbEntity
  8
BUILDING_ENVELOPE
  6
CONTINUOUS
 62
     7
100
AcDbLine
 10
6.25
 20
4.75
 30
0.0
 11
6.25
 21
5.25
 31
0.0
  0
LWPOLYLINE
  5
219
102
{ACAD_REACTORS
330
254
102
}
100
AcDbEntity
  8
BUILDING_ENVELOPE
  6
CONTINUOUS
 62
     7
100
AcDbPolyline
 90
        4
 70
     1
 10
4.083333
 20
5.0
 10
4.125
 20
5.0
 10
4.125
 20
4.895833
 10
4.083333
 20
4.895833
  0
LWPOLYLINE
  5
21A
102
{ACAD_REACTORS
330
254
102
}
100
AcDbEntity
  8
BUILDING_ENVELOPE
  6
CONTINUOUS
 62
     7
100
AcDbPolyline
 90
        4
 70
     1
 10
5.916667
 20
5.0
 10
5.875
 20
5.0
 10
5.875
 20
4.895833
 10
5.916667
 20
4.895833
  0
ENDBLK
  5
21B
100
AcDbEntity
  8
0
100
AcDbBlockEnd
  0
BLOCK
  5
21D
100
AcDbEntity
  8
0
100
AcDbBlockBegin
  2
DOUBLE
 70
     2
 10
0.0
 20
0.0
 30
0.0
  3
DOUBLE
  1

  0
ATTDEF
  5
21E
100
AcDbEntity
  8
0
100
AcDbText
 10
5.0
 20
5.0
 30
0.0
 40
0.2
  1
80
100
AcDbAttributeDefinition
  3
Door height
  2
VISDOORHEIGHT
 70
     0
  0
ATTDEF
  5
21F
100
AcDbEntity
  8
0
100
AcDbText
 10
5.0
 20
5.0
 30
0.0
 40
0.2
  1
0
100
AcDbAttributeDefinition
  3
Reference Line Offset
  2
REFLN
 70
     0
  0
ATTDEF
  5
220
100
AcDbEntity
  8
0
100
AcDbText
 10
5.0
 20
5.0
 30
0.0
 40
0.2
  1
60
100
AcDbAttributeDefinition
  3
Door width
  2
SUBTYPE
 70
     0
  0
ATTDEF
  5
221
100
AcDbEntity
  8
0
100
AcDbText
 10
5.0
 20
5.0
 30
0.0
 40
0.2
  1
2
100
AcDbAttributeDefinition
  3
Door frame width
  2
SUBVISDOORFRAMEWIDTH
 70
     0
  0
ATTDEF
  5
222
100
AcDbEntity
  8
0
100
AcDbText
 10
5.0
 20
5.0
 30
0.0
 40
0.2
  1
4
100
AcDbAttributeDefinition
  3
Door frame depth
  2
SUBVISDOORFRAMEDEPTH
 70
     0
  0
ATTDEF
  5
223
100
AcDbEntity
  8
0
100
AcDbText
 10
5.0
 20
5.0
 30
0.0
 40
0.2
  1
0.5
100
AcDbAttributeDefinition
  3
Door stop width
  2
SUBVISDOORSTOPWIDTH
 70
     0
  0
ATTDEF
  5
224
100
AcDbEntity
  8
0
100
AcDbText
 10
5.0
 20
5.0
 30
0.0
 40
0.2
  1
1.5
100
AcDbAttributeDefinition
  3
Door stop depth
  2
SUBVISDOORSTOPDEPTH
 70
     0
  0
ATTDEF
  5
225
100
AcDbEntity
  8
0
100
AcDbText
 10
5.0
 20
5.0
 30
0.0
 40
0.2
  1
2
100
AcDbAttributeDefinition
  3
Door threshold depth inside
  2
SUBVISDOORTHRESDEPTHIN
 70
     0
  0
ATTDEF
  5
226
100
AcDbEntity
  8
0
100
AcDbText
 10
5.0
 20
5.0
 30
0.0
 40
0.2
  1
2
100
AcDbAttributeDefinition
  3
Door threshold width inside
  2
SUBVISDOORTHRESWIDTHIN
 70
     0
  0
ATTDEF
  5
227
100
AcDbEntity
  8
0
100
AcDbText
 10
5.0
 20
5.0
 30
0.0
 40
0.2
  1
2
100
AcDbAttributeDefinition
  3
Door threshold depth outside
  2
SUBVISDOORTHRESDEPTHOUT
 70
     0
  0
ATTDEF
  5
228
100
AcDbEntity
  8
0
100
AcDbText
 10
5.0
 20
5.0
 30
0.0
 40
0.2
  1
2
100
AcDbAttributeDefinition
  3
Door threshold width outside
  2
SUBVISDOORTHRESWIDTHOUT
 70
     0
  0
ATTDEF
  5
229
100
AcDbEntity
  8
0
100
AcDbText
 10
5.0
 20
5.0
 30
0.0
 40
0.2
  1
2
100
AcDbAttributeDefinition
  3
Door panel thickness
  2
SUBVISDOORPANELTHICKNESS
 70
     0
  0
ATTDEF
  5
22A
100
AcDbEntity
  8
0
100
AcDbText
 10
5.0
 20
5.0
 30
0.0
 40
0.2
  1
30
100
AcDbAttributeDefinition
  3
Door leaf width
  2
VISDOORLEAF
 70
     0
  0
ATTDEF
  5
22B
100
AcDbEntity
  8
0
100
AcDbText
 10
5.0
 20
5.0
 30
0.0
 40
0.2
  1
12
100
AcDbAttributeDefinition
  3
Door spring height
  2
VISDOORSPRING
 70
     0
  0
ATTDEF
  5
22C
100
AcDbEntity
  8
0
100
AcDbText
 10
5.0
 20
5.0
 30
0.0
 40
0.2
  1
6
100
AcDbAttributeDefinition
  3
Door along wall offset
  2
VISDOORALONGWALLOFFSET
 70
     0
  0
ATTDEF
  5
22D
100
AcDbEntity
  8
0
100
AcDbText
 10
5.0
 20
5.0
 30
0.0
 40
0.2
  1
Double
100
AcDbAttributeDefinition
  3
Door type
  2
SUBSHAPETYPE
 70
     0
  0
ATTDEF
  5
22E
100
AcDbEntity
  8
0
100
AcDbText
 10
5.0
 20
5.0
 30
0.0
 40
0.2
  1
Center
100
AcDbAttributeDefinition
  3
Door within wall offset
  2
VISJUSTIFICATION
 70
     0
  0
ATTDEF
  5
22F
100
AcDbEntity
  8
0
100
AcDbText
 10
5.0
 20
5.0
 30
0.0
 40
0.2
  1
50
100
AcDbAttributeDefinition
  3
Door open percentage
  2
VISDOOROPENPERCENT
 70
     0
  0
ATTDEF
  5
230
100
AcDbEntity
  8
0
100
AcDbText
 10
5.0
 20
5.0
 30
0.0
 40
0.2
  1
Building Component
100
AcDbAttributeDefinition
  3
Shape class
  2
SHAPECLASS
 70
     0
  0
ATTDEF
  5
231
100
AcDbEntity
  8
0
100
AcDbText
 10
5.0
 20
5.0
 30
0.0
 40
0.2
  1
Door
100
AcDbAttributeDefinition
  3
Shape type
  2
SHAPETYPE
 70
     0
  0
ATTDEF
  5
232
100
AcDbEntity
  8
0
100
AcDbText
 10
5.0
 20
5.0
 30
0.0
 40
0.2
  1
0
100
AcDbAttributeDefinition
  3
Fire rating
  2
FIRERATING
 70
     0
  0
ATTDEF
  5
233
100
AcDbEntity
  8
0
100
AcDbText
 10
5.0
 20
5.0
 30
0.0
 40
0.2
  1
0
100
AcDbAttributeDefinition
  3
Door number
  2
DOORNUMBER
 70
     0
  0
ATTDEF
  5
234
100
AcDbEntity
  8
0
100
AcDbText
 10
5.0
 20
5.0
 30
0.0
 40
0.2
  1
0
100
AcDbAttributeDefinition
  3
Base elevation
  2
BASEELEVATION
 70
     0
  0
LWPOLYLINE
  5
235
102
{ACAD_REACTORS
330
254
102
}
100
AcDbEntity
  8
BUILDING_ENVELOPE
  6
CONTINUOUS
 62
     7
100
AcDbPolyline
 90
        4
 70
     1
 10
2.333333
 20
4.734
 10
7.666667
 20
4.734
 10
7.666667
 20
5.266
 10
2.333333
 20
5.266
  0
LINE
  5
236
102
{ACAD_REACTORS
330
254
102
}
100
AcDbEntity
  8
BUILDING_ENVELOPE
  6
CONTINUOUS
 62
     7
100
AcDbLine
 10
7.666667
 20
4.75
 30
0.0
 11
7.666667
 21
5.25
 31
0.0
  0
LINE
  5
237
102
{ACAD_REACTORS
330
254
102
}
100
AcDbEntity
  8
BUILDING_ENVELOPE
  6
CONTINUOUS
 62
     7
100
AcDbLine
 10
7.666667
 20
5.25
 30
0.0
 11
7.5
 21
5.25
 31
0.0
  0
LINE
  5
238
102
{ACAD_REACTORS
330
254
102
}
100
AcDbEntity
  8
BUILDING_ENVELOPE
  6
CONTINUOUS
 62
     7
100
AcDbLine
 10
7.5
 20
5.25
 30
0.0
 11
7.5
 21
5.083333
 31
0.0
  0
LINE
  5
239
102
{ACAD_REACTORS
330
254
102
}
100
AcDbEntity
  8
BUILDING_ENVELOPE
  6
CONTINUOUS
 62
     7
100
AcDbLine
 10
7.5
 20
4.958333
 30
0.0
 11
7.5
 21
4.75
 31
0.0
  0
LINE
  5
23A
102
{ACAD_REACTORS
330
254
102
}
100
AcDbEntity
  8
BUILDING_ENVELOPE
  6
CONTINUOUS
 62
     7
100
AcDbLine
 10
7.5
 20
4.75
 30
0.0
 11
7.666667
 21
4.75
 31
0.0
  0
LINE
  5
23B
102
{ACAD_REACTORS
330
254
102
}
100
AcDbEntity
  8
BUILDING_ENVELOPE
  6
CONTINUOUS
 62
     7
100
AcDbLine
 10
2.333333
 20
4.75
 30
0.0
 11
2.333333
 21
5.25
 31
0.0
  0
LINE
  5
23C
102
{ACAD_REACTORS
330
254
102
}
100
AcDbEntity
  8
BUILDING_ENVELOPE
  6
CONTINUOUS
 62
     7
100
AcDbLine
 10
2.333333
 20
5.25
 30
0.0
 11
2.5
 21
5.25
 31
0.0
  0
LINE
  5
23D
102
{ACAD_REACTORS
330
254
102
}
100
AcDbEntity
  8
BUILDING_ENVELOPE
  6
CONTINUOUS
 62
     7
100
AcDbLine
 10
2.5
 20
5.25
 30
0.0
 11
2.5
 21
5.083333
 31
0.0
  0
LINE
  5
23E
102
{ACAD_REACTORS
330
254
102
}
100
AcDbEntity
  8
BUILDING_ENVELOPE
  6
CONTINUOUS
 62
     7
100
AcDbLine
 10
2.5
 20
4.958333
 30
0.0
 11
2.5
 21
4.75
 31
0.0
  0
LINE
  5
23F
102
{ACAD_REACTORS
330
254
102
}
100
AcDbEntity
  8
BUILDING_ENVELOPE
  6
CONTINUOUS
 62
     7
100
AcDbLine
 10
2.5
 20
4.75
 30
0.0
 11
2.333333
 21
4.75
 31
0.0
  0
LINE
  5
240
102
{ACAD_REACTORS
330
254
102
}
100
AcDbEntity
  8
BUILDING_ENVELOPE
  6
CONTINUOUS
 62
     7
100
AcDbLine
 10
7.5
 20
5.083333
 30
0.0
 11
7.458333
 21
5.083333
 31
0.0
  0
LINE
  5
241
102
{ACAD_REACTORS
330
254
102
}
100
AcDbEntity
  8
BUILDING_ENVELOPE
  6
CONTINUOUS
 62
     7
100
AcDbLine
 10
7.458333
 20
5.083333
 30
0.0
 11
7.458333
 21
4.958333
 31
0.0
  0
LINE
  5
242
102
{ACAD_REACTORS
330
254
102
}
100
AcDbEntity
  8
BUILDING_ENVELOPE
  6
CONTINUOUS
 62
     7
100
AcDbLine
 10
7.458333
 20
4.958333
 30
0.0
 11
7.5
 21
4.958333
 31
0.0
  0
LINE
  5
243
102
{ACAD_REACTORS
330
254
102
}
100
AcDbEntity
  8
BUILDING_ENVELOPE
  6
CONTINUOUS
 62
     7
100
AcDbLine
 10
2.5
 20
5.083333
 30
0.0
 11
2.541667
 21
5.083333
 31
0.0
  0
LINE
  5
244
102
{ACAD_REACTORS
330
254
102
}
100
AcDbEntity
  8
BUILDING_ENVELOPE
  6
CONTINUOUS
 62
     7
100
AcDbLine
 10
2.541667
 20
5.083333
 30
0.0
 11
2.541667
 21
4.958333
 31
0.0
  0
LINE
  5
245
102
{ACAD_REACTORS
330
254
102
}
100
AcDbEntity
  8
BUILDING_ENVELOPE
  6
CONTINUOUS
 62
     7
100
AcDbLine
 10
2.541667
 20
4.958333
 30
0.0
 11
2.5
 21
4.958333
 31
0.0
  0
LINE
  5
246
100
AcDbEntity
  8
BUILDING_ENVELOPE
  6
CONTINUOUS
 62
     7
100
AcDbLine
 10
7.666667
 20
4.75
 30
0.0
 11
7.666667
 21
5.25
 31
0.0
  0
LINE
  5
247
100
AcDbEntity
  8
BUILDING_ENVELOPE
  6
CONTINUOUS
 62
     7
100
AcDbLine
 10
2.333333
 20
4.75
 30
0.0
 11
2.333333
 21
5.25
 31
0.0
  0
ARC
  5
248
100
AcDbEntity
  8
BUILDING_ENVELOPE
  6
CONTINUOUS
 62
     7
100
AcDbCircle
 10
2.5
 20
5.25
 30
0.0
 40
2.5
100
AcDbArc
 50
0.0
 51
90.0
  0
ARC
  5
249
100
AcDbEntity
  8
BUILDING_ENVELOPE
  6
CONTINUOUS
 62
     7
100
AcDbCircle
 10
7.5
 20
5.25
 30
0.0
 40
2.5
100
AcDbArc
 50
90.0
 51
180.0
  0
LWPOLYLINE
  5
24A
102
{ACAD_REACTORS
330
254
102
}
100
AcDbEntity
  8
BUILDING_ENVELOPE
  6
CONTINUOUS
 62
     7
100
AcDbPolyline
 90
        4
 70
     1
 10
2.5
 20
7.75
 10
2.5
 20
5.25
 10
2.666667
 20
5.25
 10
2.666667
 20
7.75
  0
LWPOLYLINE
  5
24B
102
{ACAD_REACTORS
330
254
102
}
100
AcDbEntity
  8
BUILDING_ENVELOPE
  6
CONTINUOUS
 62
     7
100
AcDbPolyline
 90
        4
 70
     1
 10
7.333333
 20
7.75
 10
7.333333
 20
5.25
 10
7.5
 20
5.25
 10
7.5
 20
7.75
  0
ENDBLK
  5
24C
100
AcDbEntity
  8
0
100
AcDbBlockEnd
  0
BLOCK
  5
24E
100
AcDbEntity
  8
0
100
AcDbBlockBegin
  2
CORNER_HANDRAIL
 70
     2
 10
0.0
 20
0.0
 30
0.0
  3
CORNER_HANDRAIL
  1

  0
ATTDEF
  5
24F
100
AcDbEntity
  8
0
100
AcDbText
 10
0.166667
 20
0.166667
 30
0.0
 40
0.2
  1
Building Component
100
AcDbAttributeDefinition
  3
Shape class
  2
SHAPECLASS
 70
     0
  0
ATTDEF
  5
250
100
AcDbEntity
  8
0
100
AcDbText
 10
0.166667
 20
0.166667
 30
0.0
 40
0.2
  1
Railing
100
AcDbAttributeDefinition
  3
Shape type
  2
SHAPETYPE
 70
     0
  0
ATTDEF
  5
251
100
AcDbEntity
  8
0
100
AcDbText
 10
0.166667
 20
0.166667
 30
0.0
 40
0.2
  1
Handrail
100
AcDbAttributeDefinition
  3
Subshape type
  2
SUBSHAPETYPE
 70
     0
  0
ATTDEF
  5
252
100
AcDbEntity
  8
0
100
AcDbText
 10
0.166667
 20
0.166667
 30
0.0
 40
0.2
  1
0
100
AcDbAttributeDefinition
  3
Top elevation
  2
TOPELEVATION
 70
     0
  0
LWPOLYLINE
  5
253
102
{ACAD_REACTORS
330
254
102
}
100
AcDbEntity
  8
BUILDING_ENVELOPE
  6
CONTINUOUS
 62
     7
100
AcDbPolyline
 90
       12
 70
     1
 10
-2.189833
 20
1.351875
 10
-2.189833
 20
1.185208
 42
-0.412167
 10
-2.039833
 20
1.001875
 10
-2.039833
 20
-0.518542
 42
0.424705
 10
-1.723167
 20
-0.851875
 10
2.189833
 20
-0.851875
 42
-0.414223
 10
2.3565
 20
-1.018542
 10
2.523167
 20
-1.018542
 42
0.404
 10
2.189833
 20
-0.668542
 10
-1.723167
 20
-0.668542
 42
-0.48648
 10
-1.8565
 20
-0.518542
 10
-1.8565
 20
1.001875
 42
0.404
  0
HATCH
  5
254
100
AcDbEntity
  8
BUILDING_ENVELOPE
 62
   254
100
AcDbHatch
 10
0.0
 20
0.0
 30
0.0
210
0.0
220
0.0
230
1.0
  2
SOLID
 70
     1
 71
     1
 91
        1
 92
        3
 72
     1
 73
     1
 93
       12
 10
-2.1898334192794273
 20
1.3518749999999999
 42
0.0
 10
-2.1898334192794273
 20
1.1852083333333332
 42
-0.4121674417030047
 10
-2.0398334192794274
 20
1.0018750000000001
 42
0.0
 10
-2.0398334192794274
 20
-0.5185416666666666
 42
0.4247046681996117
 10
-1.7231667526127565
 20
-0.8518749999999999
 42
0.0
 10
2.1898332473872388
 20
-0.8518749999999998
 42
-0.414223152419079
 10
2.3564999140539054
 20
-1.0185416666666667
 42
0.0
 10
2.5231665807205719
 20
-1.0185416666666665
 42
0.4040000000000001
 10
2.1898332473872388
 20
-0.6685416666666667
 42
0.0
 10
-1.723166752612761
 20
-0.6685416666666666
 42
-0.4864804209832133
 10
-1.8565000859460938
 20
-0.5185416666666649
 42
0.0
 10
-1.8565000859460943
 20
1.0018750000000001
 42
0.4039999999999999
 97
       53
330
1DC
330
1DD
330
1DE
330
1DF
330
1E0
330
1E1
330
1E2
330
1E3
330
1E4
330
1E5
330
1E6
330
1E7
330
1E8
330
1E9
330
1EA
330
1EB
330
1EC
330
1F0
330
209
330
20A
330
20B
330
20C
330
20D
330
20E
330
20F
330
210
330
211
330
212
330
213
330
214
330
215
330
219
330
21A
330
235
330
236
330
237
330
238
330
239
330
23A
330
23B
330
23C
330
23D
330
23E
330
23F
330
240
330
241
330
242
330
243
330
244
330
245
330
24A
330
24B
330
253
 75
     0
 76
     1
 98
        0
  0
ENDBLK
  5
255
100
AcDbEntity
  8
0
100
AcDbBlockEnd
  0
BLOCK
  5
257
100
AcDbEntity
  8
0
100
AcDbBlockBegin
  2
CORNER_LANDING
 70
     2
 10
0.0
 20
0.0
 30
0.0
  3
CORNER_LANDING
  1

  0
ATTDEF
  5
258
100
AcDbEntity
  8
0
100
AcDbText
 10
0.167101
 20
0.178241
 30
0.0
 40
0.2
  1
Building Component
100
AcDbAttributeDefinition
  3
Shape class
  2
SHAPECLASS
 70
     0
  0
ATTDEF
  5
259
100
AcDbEntity
  8
0
100
AcDbText
 10
0.167101
 20
0.178241
 30
0.0
 40
0.2
  1
Landing
100
AcDbAttributeDefinition
  3
Shape type
  2
SHAPETYPE
 70
     0
  0
ATTDEF
  5
25A
100
AcDbEntity
  8
0
100
AcDbText
 10
0.167101
 20
0.178241
 30
0.0
 40
0.2
  1

100
AcDbAttributeDefinition
  3
Subshape type
  2
SUBSHAPETYPE
 70
     0
  0
ATTDEF
  5
25B
100
AcDbEntity
  8
0
100
AcDbText
 10
0.167101
 20
0.178241
 30
0.0
 40
0.2
  1
3
100
AcDbAttributeDefinition
  3
Number of steps
  2
NUMSTEPS
 70
     0
  0
ATTDEF
  5
25C
100
AcDbEntity
  8
0
100
AcDbText
 10
0.167101
 20
0.178241
 30
0.0
 40
0.2
  1
1
100
AcDbAttributeDefinition
  3
Square landing
  2
SQUARE
 70
     0
  0
ATTDEF
  5
25D
100
AcDbEntity
  8
0
100
AcDbText
 10
0.167101
 20
0.178241
 30
0.0
 40
0.2
  1
12
100
AcDbAttributeDefinition
  3
Landing thickness
  2
THICKNESS
 70
     0
  0
ATTDEF
  5
25E
100
AcDbEntity
  8
0
100
AcDbText
 10
0.167101
 20
0.178241
 30
0.0
 40
0.2
  1
36
100
AcDbAttributeDefinition
  3
Length
  2
LENGTH
 70
     0
  0
ATTDEF
  5
25F
100
AcDbEntity
  8
0
100
AcDbText
 10
0.167101
 20
0.178241
 30
0.0
 40
0.2
  1
60
100
AcDbAttributeDefinition
  3
Top elevation
  2
TOPELEVATION
 70
     0
  0
ATTDEF
  5
260
100
AcDbEntity
  8
0
100
AcDbText
 10
0.167101
 20
0.178241
 30
0.0
 40
0.2
  1
36
100
AcDbAttributeDefinition
  3
Width
  2
WIDTH
 70
     0
  0
LWPOLYLINE
  5
262
100
AcDbEntity
  8
WALL
  6
CONTINUOUS
 62
     7
100
AcDbPolyline
 90
        4
 70
     1
 10
-1.332899
 20
-1.321759
 10
1.660475
 20
-1.321759
 10
1.660475
 20
1.671615
 10
-1.332899
 20
1.671615
  0
LINE
  5
263
100
AcDbEntity
  8
WALL
  6
CONTINUOUS
 62
     9
100
AcDbLine
 10
-1.332899
 20
-1.321759
 30
0.0
 11
0.156724
 21
1.671615
 31
0.0
  0
LINE
  5
264
100
AcDbEntity
  8
WALL
  6
CONTINUOUS
 62
     9
100
AcDbLine
 10
-1.332899
 20
-1.321759
 30
0.0
 11
1.660475
 21
0.169061
 31
0.0
  0
ENDBLK
  5
265
100
AcDbEntity
  8
0
100
AcDbBlockEnd
  0
BLOCK
  5
267
100
AcDbEntity
  8
0
100
AcDbBlockBegin
  2
STRAIGHT_STAIRCASE
 70
     0
 10
0.0
 20
0.0
 30
0.0
  3
STRAIGHT_STAIRCASE
  1

  0
LWPOLYLINE
  5
268
100
AcDbEntity
  8
BUILDING_ENVELOPE
  6
CONTINUOUS
 62
     9
100
AcDbPolyline
 90
        4
 70
     1
 10
-3.501199
 20
1.758333
 10
-2.630829
 20
1.758333
 10
-2.630829
 20
-1.241667
 10
-3.501199
 20
-1.241667
  0
LWPOLYLINE
  5
269
100
AcDbEntity
  8
BUILDING_ENVELOPE
  6
CONTINUOUS
 62
     9
100
AcDbPolyline
 90
        4
 70
     1
 10
-2.630829
 20
1.758333
 10
-1.760459
 20
1.758333
 10
-1.760459
 20
-1.241667
 10
-2.630829
 20
-1.241667
  0
LWPOLYLINE
  5
26A
100
AcDbEntity
  8
BUILDING_ENVELOPE
  6
CONTINUOUS
 62
     9
100
AcDbPolyline
 90
        4
 70
     1
 10
-1.760459
 20
1.758333
 10
-0.890088
 20
1.758333
 10
-0.890088
 20
-1.241667
 10
-1.760459
 20
-1.241667
  0
LWPOLYLINE
  5
26B
100
AcDbEntity
  8
BUILDING_ENVELOPE
  6
CONTINUOUS
 62
     9
100
AcDbPolyline
 90
        4
 70
     1
 10
-0.890088
 20
1.758333
 10
-0.019718
 20
1.758333
 10
-0.019718
 20
-1.241667
 10
-0.890088
 20
-1.241667
  0
LWPOLYLINE
  5
26C
100
AcDbEntity
  8
BUILDING_ENVELOPE
  6
CONTINUOUS
 62
     9
100
AcDbPolyline
 90
        4
 70
     1
 10
-0.019718
 20
1.758333
 10
0.850653
 20
1.758333
 10
0.850653
 20
-1.241667
 10
-0.019718
 20
-1.241667
  0
LWPOLYLINE
  5
26D
100
AcDbEntity
  8
BUILDING_ENVELOPE
  6
CONTINUOUS
 62
     9
100
AcDbPolyline
 90
        4
 70
     1
 10
0.850653
 20
1.758333
 10
1.721023
 20
1.758333
 10
1.721023
 20
-1.241667
 10
0.850653
 20
-1.241667
  0
LWPOLYLINE
  5
26E
100
AcDbEntity
  8
BUILDING_ENVELOPE
  6
CONTINUOUS
 62
     9
100
AcDbPolyline
 90
        4
 70
     1
 10
1.721023
 20
1.758333
 10
2.591393
 20
1.758333
 10
2.591393
 20
-1.241667
 10
1.721023
 20
-1.241667
  0
LWPOLYLINE
  5
26F
100
AcDbEntity
  8
BUILDING_ENVELOPE
  6
CONTINUOUS
 62
     9
100
AcDbPolyline
 90
        4
 70
     1
 10
2.591393
 20
1.758333
 10
3.461764
 20
1.758333
 10
3.461764
 20
-1.241667
 10
2.591393
 20
-1.241667
  0
LWPOLYLINE
  5
270
100
AcDbEntity
  8
BUILDING_ENVELOPE
  6
CONTINUOUS
 62
     9
100
AcDbPolyline
 90
        4
 70
     1
 10
3.461764
 20
1.758333
 10
4.332134
 20
1.758333
 10
4.332134
 20
-1.241667
 10
3.461764
 20
-1.241667
  0
MTEXT
  5
271
100
AcDbEntity
  8
BUILDING_ENVELOPE
100
AcDbMText
 10
-3.877833
 20
0.258333
 30
0.0
 40
0.333332
 41
0.753267
 71
     5
 72
     5
  1
\C7;\fCalibri|b0|i0|;\H0.33333206176758;UP
  0
CIRCLE
  5
272
102
{ACAD_REACTORS
330
273
102
}
100
AcDbEntity
  8
WALL
  6
CONTINUOUS
 62
     7
100
AcDbCircle
 10
-3.501199
 20
0.258333
 30
0.0
 40
0.086804
  0
HATCH
  5
273
100
AcDbEntity
  8
WALL
 62
     7
100
AcDbHatch
 10
0.0
 20
0.0
 30
0.0
210
0.0
220
0.0
230
1.0
  2
SOLID
 70
     1
 71
     1
 91
        1
 92
        1
 93
        1
 72
     2
 10
-3.5011993055309873
 20
0.2583333333333307
 40
0.0868041666666667
 50
0.0
 51
360.0
 73
     1
 97
        1
330
272
 75
     0
 76
     1
 98
        0
  0
LINE
  5
274
100
AcDbEntity
  8
WALL
  6
CONTINUOUS
 62
     7
100
AcDbLine
 10
-3.501199
 20
0.258333
 30
0.0
 11
-1.192999
 21
0.258333
 31
0.0
  0
LWPOLYLINE
  5
275
102
{ACAD_REACTORS
330
276
102
}
100
AcDbEntity
  8
WALL
  6
CONTINUOUS
 62
     7
100
AcDbPolyline
 90
        3
 70
     1
 10
-1.405912
 20
0.130858
 10
-1.405912
 20
0.385808
 10
-0.980087
 20
0.255599
  0
HATCH
  5
276
100
AcDbEntity
  8
WALL
 62
     7
100
AcDbHatch
 10
0.0
 20
0.0
 30
0.0
210
0.0
220
0.0
230
1.0
  2
SOLID
 70
     1
 71
     1
 91
        1
 92
        3
 72
     0
 73
     1
 93
        3
 10
-1.4059118055309874
 20
0.1308583333333307
 10
-1.4059118055309874
 20
0.3858083333333307
 10
-0.9800868055309874
 20
0.2555989359891018
 97
        1
330
275
 75
     0
 76
     1
 98
        0
  0
LINE
  5
277
102
{ACAD_REACTORS
330
27C
102
}
100
AcDbEntity
  8
BUILDING_ENVELOPE
  6
CONTINUOUS
 62
     7
100
AcDbLine
 10
0.415467
 20
-1.058333
 30
0.0
 11
4.526181
 21
-1.058333
 31
0.0
  0
ARC
  5
278
102
{ACAD_REACTORS
330
27C
102
}
100
AcDbEntity
  8
BUILDING_ENVELOPE
  6
CONTINUOUS
 62
     7
100
AcDbCircle
 10
4.29196
 20
-1.404611
 30
0.0
 40
0.418052
100
AcDbArc
 50
357.204441
 51
55.925661
  0
LINE
  5
279
102
{ACAD_REACTORS
330
27C
102
}
100
AcDbEntity
  8
BUILDING_ENVELOPE
  6
CONTINUOUS
 62
     7
100
AcDbLine
 10
4.709514
 20
-1.425
 30
0.0
 11
4.892848
 21
-1.425
 31
0.0
  0
ARC
  5
27A
102
{ACAD_REACTORS
330
27C
102
}
100
AcDbEntity
  8
BUILDING_ENVELOPE
  6
CONTINUOUS
 62
     7
100
AcDbCircle
 10
4.331043
 20
-1.402314
 30
0.0
 40
0.562262
100
AcDbArc
 50
357.687613
 51
69.692522
  0
LINE
  5
27B
102
{ACAD_REACTORS
330
27C
102
}
100
AcDbEntity
  8
BUILDING_ENVELOPE
  6
CONTINUOUS
 62
     7
100
AcDbLine
 10
4.526181
 20
-0.875
 30
0.0
 11
0.415467
 21
-0.875
 31
0.0
  0
HATCH
  5
27C
100
AcDbEntity
  8
BUILDING_ENVELOPE
 62
   254
100
AcDbHatch
 10
0.0
 20
0.0
 30
0.0
210
0.0
220
0.0
230
1.0
  2
SOLID
 70
     1
 71
     1
 91
        4
 92
        1
 93
        6
 72
     1
 10
0.4154673611356792
 20
-1.0583333333333358
 11
4.5261810369690121
 21
-1.0583333333333358
 72
     2
 10
4.2919598054193502
 20
-1.4046106157748337
 40
0.4180520800614547
 50
357.204441
 51
55.925661
 73
     1
 72
     1
 10
4.7095143703023448
 20
-1.4250000000000025
 11
4.8928477036356783
 21
-1.4250000000000025
 72
     2
 10
4.3310434353510541
 20
-1.4023139566341953
 40
0.5622621207465568
 50
357.687613
 51
69.692522
 73
     1
 72
     1
 10
4.5261810369690121
 20
-0.8750000000000029
 11
0.4154673611356792
 21
-0.8750000000000024
 72
     1
 10
0.4154673611356792
 20
-0.8750000000000024
 11
0.4154673611356792
 21
-1.0583333333333358
 97
        5
330
277
330
278
330
279
330
27A
330
27B
 92
        1
 93
        6
 72
     1
 10
0.4154673611356792
 20
1.5749999999999971
 11
4.5261810369690121
 21
1.5749999999999971
 72
     2
 10
4.5261840383023308
 20
1.7583303320000119
 40
0.1833303320245822
 50
269.999062
 51
0.000938
 73
     1
 72
     1
 10
4.7095143703023457
 20
1.7583333333333306
 11
4.8928477036356783
 21
1.7583333333333306
 72
     2
 10
4.5261870396356496
 20
1.7583273306666913
 40
0.3666606640491629
 50
269.999062
 51
0.000938
 73
     1
 72
     1
 10
4.5261810369690121
 20
1.3916666666666639
 11
0.4154673611356792
 21
1.3916666666666642
 72
     1
 10
0.4154673611356792
 20
1.3916666666666642
 11
0.4154673611356792
 21
1.5749999999999971
 97
        5
330
27D
330
27E
330
27F
330
280
330
281
 92
        1
 93
        6
 72
     1
 10
-4.6678659721976539
 20
-1.2416666666666691
 11
-4.4845326388643203
 21
-1.2416666666666691
 72
     2
 10
-4.3012023068643064
 20
-1.2416636653333502
 40
0.1833303320245819
 50
89.999062
 51
180.000938
 73
     1
 72
     1
 10
-4.3011993055309841
 20
-1.0583333333333358
 11
0.4154673611356792
 21
-1.0583333333333358
 72
     1
 10
0.4154673611356792
 20
-1.0583333333333358
 11
0.4154673611356792
 21
-0.8750000000000024
 72
     1
 10
0.4154673611356792
 20
-0.8750000000000024
 11
-4.3011993055309876
 21
-0.8750000000000024
 72
     2
 10
-4.3012053081976251
 20
-1.2416606640000305
 40
0.3666606640491635
 50
89.999062
 51
180.000938
 73
     1
 97
        5
330
282
330
283
330
284
330
285
330
286
 92
        1
 93
        6
 72
     1
 10
-4.7511993055309869
 20
1.7583333333333306
 11
-4.5678659721976533
 21
1.7583333333333306
 72
     2
 10
-4.3845356401976394
 20
1.7583303320000114
 40
0.183330332024582
 50
179.999062
 51
270.000938
 73
     1
 72
     1
 10
-4.384532638864318
 20
1.5749999999999971
 11
0.4154673611356792
 21
1.5749999999999971
 72
     1
 10
0.4154673611356792
 20
1.5749999999999971
 11
0.4154673611356792
 21
1.3916666666666642
 72
     1
 10
0.4154673611356792
 20
1.3916666666666642
 11
-4.3845326388643207
 21
1.3916666666666642
 72
     2
 10
-4.3845386415309591
 20
1.758327330666692
 40
0.3666606640491635
 50
179.999062
 51
270.000938
 73
     1
 97
        5
330
287
330
288
330
289
330
28A
330
28B
 75
     0
 76
     1
 98
        0
  0
LINE
  5
27D
102
{ACAD_REACTORS
330
27C
102
}
100
AcDbEntity
  8
BUILDING_ENVELOPE
  6
CONTINUOUS
 62
     7
100
AcDbLine
 10
0.415467
 20
1.575
 30
0.0
 11
4.526181
 21
1.575
 31
0.0
  0
ARC
  5
27E
102
{ACAD_REACTORS
330
27C
102
}
100
AcDbEntity
  8
BUILDING_ENVELOPE
  6
CONTINUOUS
 62
     7
100
AcDbCircle
 10
4.526184
 20
1.75833
 30
0.0
 40
0.18333
100
AcDbArc
 50
269.999062
 51
0.0
  0
LINE
  5
27F
102
{ACAD_REACTORS
330
27C
102
}
100
AcDbEntity
  8
BUILDING_ENVELOPE
  6
CONTINUOUS
 62
     7
100
AcDbLine
 10
4.709514
 20
1.758333
 30
0.0
 11
4.892848
 21
1.758333
 31
0.0
  0
ARC
  5
280
102
{ACAD_REACTORS
330
27C
102
}
100
AcDbEntity
  8
BUILDING_ENVELOPE
  6
CONTINUOUS
 62
     7
100
AcDbCircle
 10
4.526187
 20
1.758327
 30
0.0
 40
0.366661
100
AcDbArc
 50
269.999062
 51
0.0
  0
LINE
  5
281
102
{ACAD_REACTORS
330
27C
102
}
100
AcDbEntity
  8
BUILDING_ENVELOPE
  6
CONTINUOUS
 62
     7
100
AcDbLine
 10
4.526181
 20
1.391667
 30
0.0
 11
0.415467
 21
1.391667
 31
0.0
  0
LINE
  5
282
102
{ACAD_REACTORS
330
27C
102
}
100
AcDbEntity
  8
BUILDING_ENVELOPE
  6
CONTINUOUS
 62
     7
100
AcDbLine
 10
-4.667866
 20
-1.241667
 30
0.0
 11
-4.484533
 21
-1.241667
 31
0.0
  0
ARC
  5
283
102
{ACAD_REACTORS
330
27C
102
}
100
AcDbEntity
  8
BUILDING_ENVELOPE
  6
CONTINUOUS
 62
     7
100
AcDbCircle
 10
-4.301202
 20
-1.241664
 30
0.0
 40
0.18333
100
AcDbArc
 50
89.999062
 51
180.000938
  0
LINE
  5
284
102
{ACAD_REACTORS
330
27C
102
}
100
AcDbEntity
  8
BUILDING_ENVELOPE
  6
CONTINUOUS
 62
     7
100
AcDbLine
 10
-4.301199
 20
-1.058333
 30
0.0
 11
0.415467
 21
-1.058333
 31
0.0
  0
LINE
  5
285
102
{ACAD_REACTORS
330
27C
102
}
100
AcDbEntity
  8
BUILDING_ENVELOPE
  6
CONTINUOUS
 62
     7
100
AcDbLine
 10
0.415467
 20
-0.875
 30
0.0
 11
-4.301199
 21
-0.875
 31
0.0
  0
ARC
  5
286
102
{ACAD_REACTORS
330
27C
102
}
100
AcDbEntity
  8
BUILDING_ENVELOPE
  6
CONTINUOUS
 62
     7
100
AcDbCircle
 10
-4.301205
 20
-1.241661
 30
0.0
 40
0.366661
100
AcDbArc
 50
89.999062
 51
180.000938
  0
LINE
  5
287
102
{ACAD_REACTORS
330
27C
102
}
100
AcDbEntity
  8
BUILDING_ENVELOPE
  6
CONTINUOUS
 62
     7
100
AcDbLine
 10
-4.751199
 20
1.758333
 30
0.0
 11
-4.567866
 21
1.758333
 31
0.0
  0
ARC
  5
288
102
{ACAD_REACTORS
330
27C
102
}
100
AcDbEntity
  8
BUILDING_ENVELOPE
  6
CONTINUOUS
 62
     7
100
AcDbCircle
 10
-4.384536
 20
1.75833
 30
0.0
 40
0.18333
100
AcDbArc
 50
179.999062
 51
270.000938
  0
LINE
  5
289
102
{ACAD_REACTORS
330
27C
102
}
100
AcDbEntity
  8
BUILDING_ENVELOPE
  6
CONTINUOUS
 62
     7
100
AcDbLine
 10
-4.384533
 20
1.575
 30
0.0
 11
0.415467
 21
1.575
 31
0.0
  0
LINE
  5
28A
102
{ACAD_REACTORS
330
27C
102
}
100
AcDbEntity
  8
BUILDING_ENVELOPE
  6
CONTINUOUS
 62
     7
100
AcDbLine
 10
0.415467
 20
1.391667
 30
0.0
 11
-4.384533
 21
1.391667
 31
0.0
  0
ARC
  5
28B
102
{ACAD_REACTORS
330
27C
102
}
100
AcDbEntity
  8
BUILDING_ENVELOPE
  6
CONTINUOUS
 62
     7
100
AcDbCircle
 10
-4.384539
 20
1.758327
 30
0.0
 40
0.366661
100
AcDbArc
 50
179.999062
 51
270.000938
  0
ENDBLK
  5
28C
100
AcDbEntity
  8
0
100
AcDbBlockEnd
  0
BLOCK
  5
28E
100
AcDbEntity
  8
0
100
AcDbBlockBegin
  2
SPACE
 70
     0
 10
0.0
 20
0.0
 30
0.0
  3
SPACE
  1

  0
LWPOLYLINE
  5
28F
102
{ACAD_REACTORS
330
290
102
}
100
AcDbEntity
  8
WALL
  6
CONTINUOUS
100
AcDbPolyline
 90
        4
 70
     1
 10
0.0
 20
0.0
 10
10.0
 20
0.0
 10
10.0
 20
10.0
 10
0.0
 20
10.0
  0
HATCH
  5
290
100
AcDbEntity
  8
WALL
 62
    94
100
AcDbHatch
 10
0.0
 20
0.0
 30
0.0
210
0.0
220
0.0
230
1.0
  2
ANSI31
 70
     0
 71
     1
 91
        1
 92
        2
 72
     0
 73
     1
 93
        4
 10
0.0
 20
0.0
 10
10.0
 20
0.0
 10
10.0
 20
10.0
 10
0.0
 20
10.0
 97
        1
330
28F
 75
     0
 76
     1
 52
0.0
 41
0.083333
 77
     0
 78
     1
 53
45.0
 43
0.0
 44
0.0
 45
-0.0073333333333333
 46
0.0073333333333333
 79
     0
 98
        0
  0
MTEXT
  5
291
100
AcDbEntity
  8
WALL
100
AcDbMText
 10
5.0
 20
4.948732
 30
0.0
 40
0.500004
 41
4.420539
 71
     5
 72
     5
  1
\C7;\fCalibri|b0|i0|;\H0.50000381469727;Office\P\P\P
  0
ENDBLK
  5
292
100
AcDbEntity
  8
0
100
AcDbBlockEnd
  0
ENDSEC
  0
SECTION
  2
ENTITIES
  0
LWPOLYLINE
  5
76
102
{ACAD_REACTORS
330
77
102
}
100
AcDbEntity
  8
SPACE
  6
CONTINUOUS
100
AcDbPolyline
 90
        6
 70
     1
 10
12.374959
 20
16.668056
 10
12.374959
 20
4.845139
 10
0.356904
 20
4.845139
 10
0.356904
 20
0.5
 10
25.02357
 20
0.5
 10
25.02357
 20
16.668056
  0
HATCH
  5
77
102
{ACAD_REACTORS
330
74
102
}
100
AcDbEntity
  8
SPACE
 62
    22
100
AcDbHatch
 10
0.0
 20
0.0
 30
0.0
210
0.0
220
0.0
230
1.0
  2
SOLID
 70
     1
 71
     1
 91
        1
 92
        3
 72
     0
 73
     1
 93
        6
 10
12.3749591149284761
 20
16.6680555557010308
 10
12.3749591149284761
 20
4.8451388890342884
 10
0.3569035593728836
 20
4.8451388890342884
 10
0.3569035593728836
 20
0.4999999999999503
 10
25.0235702260395456
 20
0.4999999999999503
 10
25.0235702260395456
 20
16.6680555392574732
 97
        1
330
76
 75
     0
 76
     1
 98
        0
  0
MTEXT
  5
78
100
AcDbEntity
  8
SPACE
100
AcDbMText
 10
15.791626
 20
8.475755
 30
0.0
 40
0.500004
 41
3.284793
 71
     5
 72
     5
  1
\C7;\fCalibri|b0|i0|;\H0.50000381469727;Garage\P257 sq. ft.\P\P
  0
LWPOLYLINE
  5
7A
102
{ACAD_REACTORS
330
7B
102
}
100
AcDbEntity
  8
SPACE
  6
CONTINUOUS
100
AcDbPolyline
 90
        4
 70
     1
 10
12.041626
 20
16.668056
 10
0.356904
 20
16.668056
 10
0.356904
 20
5.178472
 10
12.041625
 20
5.178472
  0
HATCH
  5
7B
102
{ACAD_REACTORS
330
79
102
}
100
AcDbEntity
  8
SPACE
 62
    94
100
AcDbHatch
 10
0.0
 20
0.0
 30
0.0
210
0.0
220
0.0
230
1.0
  2
SOLID
 70
     1
 71
     1
 91
        1
 92
        3
 72
     0
 73
     1
 93
        4
 10
12.0416257815951102
 20
16.6680555392573773
 10
0.356903559372886
 20
16.6680555392573773
 10
0.356903559372886
 20
5.178472222367664
 10
12.0416251881977097
 20
5.178472222367664
 97
        1
330
7A
 75
     0
 76
     1
 98
        0
  0
MTEXT
  5
7C
100
AcDbEntity
  8
SPACE
100
AcDbMText
 10
6.199265
 20
12.520026
 30
0.0
 40
0.500004
 41
4.599277
 71
     5
 72
     5
  1
\C7;\fCalibri|b0|i0|;\H0.50000381469727;Drawing Room\P134 sq. ft.\P\P
  0
LWPOLYLINE
  5
7E
102
{ACAD_REACTORS
330
7F
102
}
100
AcDbEntity
  8
SPACE
  6
CONTINUOUS
100
AcDbPolyline
 90
        7
 70
     1
 10
13.958292
 20
28.419358
 10
0.356904
 20
28.419358
 10
0.356904
 20
17.001389
 10
25.02357
 20
17.001389
 10
25.02357
 20
28.419358
 10
14.291626
 20
28.419358
 10
14.124959
 20
28.419358
  0
HATCH
  5
7F
102
{ACAD_REACTORS
330
7D
102
}
100
AcDbEntity
  8
SPACE
 62
     2
100
AcDbHatch
 10
0.0
 20
0.0
 30
0.0
210
0.0
220
0.0
230
1.0
  2
SOLID
 70
     1
 71
     1
 91
        1
 92
        3
 72
     0
 73
     1
 93
        7
 10
13.9582924342918631
 20
28.4193576400227812
 10
0.3569035593728836
 20
28.4193576400227812
 10
0.3569035593728836
 20
17.0013888725907378
 10
25.0235702260395456
 20
17.0013888725907378
 10
25.0235702260395456
 20
28.4193576400227812
 10
14.2916257676253569
 20
28.4193576400227812
 10
14.1249591009586091
 20
28.4193576400227812
 97
        1
330
7E
 75
     0
 76
     1
 98
        0
  0
MTEXT
  5
80
100
AcDbEntity
  8
SPACE
100
AcDbMText
 10
12.791625
 20
22.892421
 30
0.0
 40
0.500004
 41
3.284793
 71
     5
 72
     5
  1
\C7;\fCalibri|b0|i0|;\H0.50000381469727;Lounge\P282 sq. ft.\P\P
  0
LWPOLYLINE
  5
82
102
{ACAD_REACTORS
330
83
102
}
100
AcDbEntity
  8
SPACE
  6
CONTINUOUS
100
AcDbPolyline
 90
        4
 70
     1
 10
8.442667
 20
45.166667
 10
0.356904
 20
45.166667
 10
0.356904
 20
40.517014
 10
8.442667
 20
40.517014
  0
HATCH
  5
83
102
{ACAD_REACTORS
330
81
102
}
100
AcDbEntity
  8
SPACE
 62
     5
100
AcDbHatch
 10
0.0
 20
0.0
 30
0.0
210
0.0
220
0.0
230
1.0
  2
SOLID
 70
     1
 71
     1
 91
        1
 92
        3
 72
     0
 73
     1
 93
        4
 10
8.4426674480434549
 20
45.1666666666666856
 10
0.3569035964602225
 20
45.1666666666666856
 10
0.3569035964602225
 20
40.5170138888888829
 10
8.4426674480434549
 20
40.5170138888888829
 97
        1
330
82
 75
     0
 76
     1
 98
        0
  0
MTEXT
  5
84
100
AcDbEntity
  8
SPACE
100
AcDbMText
 10
4.399786
 20
42.72862
 30
0.0
 40
0.500004
 41
3.319019
 71
     5
 72
     5
  1
\C7;\fCalibri|b0|i0|;\H0.50000381469727;Bathroom\P38 sq. ft.\P\P
  0
LWPOLYLINE
  5
86
102
{ACAD_REACTORS
330
87
102
}
100
AcDbEntity
  8
SPACE
  6
CONTINUOUS
100
AcDbPolyline
 90
        4
 70
     1
 10
8.776001
 20
45.166667
 10
8.776001
 20
40.517014
 10
25.02357
 20
40.517014
 10
25.02357
 20
45.166667
  0
HATCH
  5
87
102
{ACAD_REACTORS
330
85
102
}
100
AcDbEntity
  8
SPACE
 62
    77
100
AcDbHatch
 10
0.0
 20
0.0
 30
0.0
210
0.0
220
0.0
230
1.0
  2
SOLID
 70
     1
 71
     1
 91
        1
 92
        3
 72
     0
 73
     1
 93
        4
 10
8.7760007813768226
 20
45.1666666496607547
 10
8.7760007813768226
 20
40.5170138506901978
 10
25.0235702260395563
 20
40.5170138506901978
 10
25.0235702260395563
 20
45.166666666666714
 97
        1
330
86
 75
     0
 76
     1
 98
        0
  0
MTEXT
  5
88
100
AcDbEntity
  8
SPACE
100
AcDbMText
 10
16.899786
 20
42.728619
 30
0.0
 40
0.500004
 41
3.066074
 71
     5
 72
     5
  1
\C7;\fCalibri|b0|i0|;\H0.50000381469727;Backyard\P76 sq. ft.\P\P
  0
LWPOLYLINE
  5
8A
102
{ACAD_REACTORS
330
8B
102
}
100
AcDbEntity
  8
SPACE
  6
CONTINUOUS
100
AcDbPolyline
 90
        6
 70
     1
 10
16.302042
 20
40.183681
 10
0.356904
 20
40.183681
 10
0.356904
 20
28.752691
 10
13.958292
 20
28.752691
 10
13.958292
 20
33.251389
 10
16.302042
 20
33.251389
  0
HATCH
  5
8B
102
{ACAD_REACTORS
330
89
102
}
100
AcDbEntity
  8
SPACE
 62
    10
100
AcDbHatch
 10
0.0
 20
0.0
 30
0.0
210
0.0
220
0.0
230
1.0
  2
SOLID
 70
     1
 71
     1
 91
        1
 92
        3
 72
     0
 73
     1
 93
        6
 10
16.3020424321092392
 20
40.1836805173568905
 10
0.356903559372886
 20
40.1836805173568905
 10
0.356903559372886
 20
28.7526909733561027
 10
13.9582924342920069
 20
28.7526909733561027
 10
13.9582924342920069
 20
33.2513888574566963
 10
16.3020424342919696
 20
33.2513888574566963
 97
        1
330
8A
 75
     0
 76
     1
 98
        0
  0
MTEXT
  5
8C
100
AcDbEntity
  8
SPACE
100
AcDbMText
 10
7.791626
 20
34.892421
 30
0.0
 40
0.500004
 41
3.284793
 71
     5
 72
     5
  1
\C7;\fCalibri|b0|i0|;\H0.50000381469727;Bedroom\P172 sq. ft.\P\P
  0
LWPOLYLINE
  5
8E
102
{ACAD_REACTORS
330
8F
102
}
100
AcDbEntity
  8
SPACE
  6
CONTINUOUS
100
AcDbPolyline
 90
        6
 70
     1
 10
16.635376
 20
40.183681
 10
16.635376
 20
32.918056
 10
14.291626
 20
32.918056
 10
14.291626
 20
28.752691
 10
25.02357
 20
28.752691
 10
25.02357
 20
40.183681
  0
HATCH
  5
8F
102
{ACAD_REACTORS
330
8D
102
}
100
AcDbEntity
  8
SPACE
 62
    40
100
AcDbHatch
 10
0.0
 20
0.0
 30
0.0
210
0.0
220
0.0
230
1.0
  2
SOLID
 70
     1
 71
     1
 91
        1
 92
        3
 72
     0
 73
     1
 93
        6
 10
16.6353757654424363
 20
40.1836805173568905
 10
16.6353757654424363
 20
32.9180555241234316
 10
14.2916257676252769
 20
32.9180555241234316
 10
14.2916257676252769
 20
28.7526909733561027
 10
25.0235702260395563
 20
28.7526909733561027
 10
25.0235702260395563
 20
40.1836805173568905
 97
        1
330
8E
 75
     0
 76
     1
 98
        0
  0
MTEXT
  5
90
100
AcDbEntity
  8
SPACE
100
AcDbMText
 10
20.791625
 20
35.392421
 30
0.0
 40
0.500004
 41
3.284793
 71
     5
 72
     5
  1
\C7;\fCalibri|b0|i0|;\H0.50000381469727;Kitchen\P106 sq. ft.\P\P
  0
LWPOLYLINE
  5
93
102
{ACAD_REACTORS
330
94
102
}
100
AcDbEntity
  8
BUILDING_ENVELOPE
  6
CONTINUOUS
 62
     7
100
AcDbPolyline
 90
        4
 70
     1
 10
0.356904
 20
45.166667
 10
0.356904
 20
0.5
 10
0.02357
 20
0.166667
 10
0.02357
 20
45.5
  0
HATCH
  5
94
102
{ACAD_REACTORS
330
91
102
}
100
AcDbEntity
  8
BUILDING_ENVELOPE
 62
     7
100
AcDbHatch
 10
0.0
 20
0.0
 30
0.0
210
0.0
220
0.0
230
1.0
  2
SOLID
 70
     1
 71
     1
 91
        1
 92
        3
 72
     0
 73
     1
 93
        4
 10
0.3569035593728856
 20
45.1666666666666643
 10
0.3569035593728856
 20
0.5
 10
0.0235702260395523
 20
0.1666666666666667
 10
0.0235702260395523
 20
45.5
 97
        1
330
93
 75
     0
 76
     1
 98
        0
  0
LINE
  5
95
102
{ACAD_REACTORS
330
91
102
}
100
AcDbEntity
  8
BUILDING_ENVELOPE
  6
CONTINUOUS
 62
     7
100
AcDbLine
 10
0.356904
 20
45.166667
 30
0.0
 11
0.356904
 21
0.5
 31
0.0
  0
LINE
  5
96
102
{ACAD_REACTORS
330
91
102
}
100
AcDbEntity
  8
BUILDING_ENVELOPE
  6
CONTINUOUS
 62
     7
100
AcDbLine
 10
0.02357
 20
45.5
 30
0.0
 11
0.02357
 21
0.166667
 31
0.0
  0
LWPOLYLINE
  5
98
102
{ACAD_REACTORS
330
99
102
}
100
AcDbEntity
  8
BUILDING_ENVELOPE
  6
CONTINUOUS
 62
     7
100
AcDbPolyline
 90
        4
 70
     1
 10
25.356904
 20
45.5
 10
25.356904
 20
0.166667
 10
25.02357
 20
0.5
 10
25.02357
 20
45.166667
  0
HATCH
  5
99
102
{ACAD_REACTORS
330
97
102
}
100
AcDbEntity
  8
BUILDING_ENVELOPE
 62
     7
100
AcDbHatch
 10
0.0
 20
0.0
 30
0.0
210
0.0
220
0.0
230
1.0
  2
SOLID
 70
     1
 71
     1
 91
        1
 92
        3
 72
     0
 73
     1
 93
        4
 10
25.3569035593728813
 20
45.5000000000000355
 10
25.3569035593728813
 20
0.1666666666667045
 10
25.0235702260395456
 20
0.5000000000000379
 10
25.0235702260395456
 20
45.1666666666666998
 97
        1
330
98
 75
     0
 76
     1
 98
        0
  0
LINE
  5
9A
102
{ACAD_REACTORS
330
97
102
}
100
AcDbEntity
  8
BUILDING_ENVELOPE
  6
CONTINUOUS
 62
     7
100
AcDbLine
 10
25.356904
 20
45.5
 30
0.0
 11
25.356904
 21
0.166667
 31
0.0
  0
LINE
  5
9B
102
{ACAD_REACTORS
330
97
102
}
100
AcDbEntity
  8
BUILDING_ENVELOPE
  6
CONTINUOUS
 62
     7
100
AcDbLine
 10
25.02357
 20
45.166667
 30
0.0
 11
25.02357
 21
0.5
 31
0.0
  0
LWPOLYLINE
  5
9D
102
{ACAD_REACTORS
330
9E
102
}
100
AcDbEntity
  8
BUILDING_ENVELOPE
  6
CONTINUOUS
 62
     7
100
AcDbPolyline
 90
        4
 70
     1
 10
0.02357
 20
45.5
 10
25.356904
 20
45.5
 10
25.02357
 20
45.166667
 10
0.356904
 20
45.166667
  0
HATCH
  5
9E
102
{ACAD_REACTORS
330
9C
102
}
100
AcDbEntity
  8
BUILDING_ENVELOPE
 62
     7
100
AcDbHatch
 10
0.0
 20
0.0
 30
0.0
210
0.0
220
0.0
230
1.0
  2
SOLID
 70
     1
 71
     1
 91
        1
 92
        3
 72
     0
 73
     1
 93
        4
 10
0.0235702260395479
 20
45.5
 10
25.3569035593728813
 20
45.5
 10
25.0235702260395456
 20
45.1666666666666643
 10
0.3569035593728836
 20
45.1666666666666643
 97
        1
330
9D
 75
     0
 76
     1
 98
        0
  0
LINE
  5
9F
102
{ACAD_REACTORS
330
9C
102
}
100
AcDbEntity
  8
BUILDING_ENVELOPE
  6
CONTINUOUS
 62
     7
100
AcDbLine
 10
0.02357
 20
45.5
 30
0.0
 11
25.356904
 21
45.5
 31
0.0
  0
LINE
  5
A0
102
{ACAD_REACTORS
330
9C
102
}
100
AcDbEntity
  8
BUILDING_ENVELOPE
  6
CONTINUOUS
 62
     7
100
AcDbLine
 10
0.356904
 20
45.166667
 30
0.0
 11
25.02357
 21
45.166667
 31
0.0
  0
LWPOLYLINE
  5
A2
102
{ACAD_REACTORS
330
A3
102
}
100
AcDbEntity
  8
BUILDING_ENVELOPE
  6
CONTINUOUS
 62
     7
100
AcDbPolyline
 90
        4
 70
     1
 10
0.356904
 20
0.5
 10
25.02357
 20
0.5
 10
25.356904
 20
0.166667
 10
0.02357
 20
0.166667
  0
HATCH
  5
A3
102
{ACAD_REACTORS
330
A1
102
}
100
AcDbEntity
  8
BUILDING_ENVELOPE
 62
     7
100
AcDbHatch
 10
0.0
 20
0.0
 30
0.0
210
0.0
220
0.0
230
1.0
  2
SOLID
 70
     1
 71
     1
 91
        1
 92
        3
 72
     0
 73
     1
 93
        4
 10
0.356903559372879
 20
0.5
 10
25.0235702260395456
 20
0.5
 10
25.3569035593728813
 20
0.1666666666666667
 10
0.0235702260395504
 20
0.1666666666666667
 97
        1
330
A2
 75
     0
 76
     1
 98
        0
  0
LINE
  5
A4
102
{ACAD_REACTORS
330
A1
102
}
100
AcDbEntity
  8
BUILDING_ENVELOPE
  6
CONTINUOUS
 62
     7
100
AcDbLine
 10
0.356904
 20
0.5
 30
0.0
 11
25.02357
 21
0.5
 31
0.0
  0
LINE
  5
A5
102
{ACAD_REACTORS
330
A1
102
}
100
AcDbEntity
  8
BUILDING_ENVELOPE
  6
CONTINUOUS
 62
     7
100
AcDbLine
 10
0.02357
 20
0.166667
 30
0.0
 11
25.356904
 21
0.166667
 31
0.0
  0
LWPOLYLINE
  5
A7
102
{ACAD_REACTORS
330
A8
102
}
100
AcDbEntity
  8
BUILDING_ENVELOPE
  6
CONTINUOUS
 62
     7
100
AcDbPolyline
 90
        4
 70
     1
 10
0.356904
 20
40.517014
 10
25.02357
 20
40.517014
 10
25.02357
 20
40.183681
 10
0.356904
 20
40.183681
  0
HATCH
  5
A8
102
{ACAD_REACTORS
330
A6
102
}
100
AcDbEntity
  8
BUILDING_ENVELOPE
 62
     7
100
AcDbHatch
 10
0.0
 20
0.0
 30
0.0
210
0.0
220
0.0
230
1.0
  2
SOLID
 70
     1
 71
     1
 91
        1
 92
        3
 72
     0
 73
     1
 93
        4
 10
0.3569035593728801
 20
40.5170138506902049
 10
25.0235702260395456
 20
40.5170138506902049
 10
25.0235702260395456
 20
40.1836805173568763
 10
0.3569035593728836
 20
40.1836805173568763
 97
        1
330
A7
 75
     0
 76
     1
 98
        0
  0
LWPOLYLINE
  5
A9
102
{ACAD_REACTORS
330
AA
102
}
100
AcDbEntity
  8
BUILDING_ENVELOPE
  6
CONTINUOUS
 62
     7
100
AcDbPolyline
 90
        4
 70
     1
 10
0.356904
 20
40.183681
 10
0.356904
 20
40.517014
 10
0.32357
 20
40.517014
 10
0.32357
 20
40.183681
  0
HATCH
  5
AA
102
{ACAD_REACTORS
330
A6
102
}
100
AcDbEntity
  8
BUILDING_ENVELOPE
 62
     7
100
AcDbHatch
 10
0.0
 20
0.0
 30
0.0
210
0.0
220
0.0
230
1.0
  2
SOLID
 70
     1
 71
     1
 91
        1
 92
        3
 72
     0
 73
     1
 93
        4
 10
0.3569035593728819
 20
40.1836805173568763
 10
0.3569035593728819
 20
40.5170138506902049
 10
0.3235702260395486
 20
40.5170138506902049
 10
0.3235702260395486
 20
40.1836805173568763
 97
        1
330
A9
 75
     0
 76
     1
 98
        0
  0
LWPOLYLINE
  5
AB
102
{ACAD_REACTORS
330
AC
102
}
100
AcDbEntity
  8
BUILDING_ENVELOPE
  6
CONTINUOUS
 62
     7
100
AcDbPolyline
 90
        4
 70
     1
 10
25.02357
 20
40.517014
 10
25.02357
 20
40.183681
 10
25.056904
 20
40.183681
 10
25.056904
 20
40.517014
  0
HATCH
  5
AC
102
{ACAD_REACTORS
330
A6
102
}
100
AcDbEntity
  8
BUILDING_ENVELOPE
 62
     7
100
AcDbHatch
 10
0.0
 20
0.0
 30
0.0
210
0.0
220
0.0
230
1.0
  2
SOLID
 70
     1
 71
     1
 91
        1
 92
        3
 72
     0
 73
     1
 93
        4
 10
25.0235702260395456
 20
40.5170138506902049
 10
25.0235702260395456
 20
40.1836805173568763
 10
25.0569035593728771
 20
40.1836805173568763
 10
25.0569035593728771
 20
40.5170138506902049
 97
        1
330
AB
 75
     0
 76
     1
 98
        0
  0
LINE
  5
AD
102
{ACAD_REACTORS
330
A6
102
}
100
AcDbEntity
  8
BUILDING_ENVELOPE
  6
CONTINUOUS
 62
     7
100
AcDbLine
 10
0.356904
 20
40.517014
 30
0.0
 11
25.02357
 21
40.517014
 31
0.0
  0
LINE
  5
AE
102
{ACAD_REACTORS
330
A6
102
}
100
AcDbEntity
  8
BUILDING_ENVELOPE
  6
CONTINUOUS
 62
     7
100
AcDbLine
 10
0.356904
 20
40.183681
 30
0.0
 11
25.02357
 21
40.183681
 31
0.0
  0
LWPOLYLINE
  5
B0
102
{ACAD_REACTORS
330
B1
102
}
100
AcDbEntity
  8
BUILDING_ENVELOPE
  6
CONTINUOUS
 62
     7
100
AcDbPolyline
 90
        4
 70
     1
 10
0.356904
 20
28.752691
 10
25.02357
 20
28.752691
 10
25.02357
 20
28.419358
 10
0.356904
 20
28.419358
  0
HATCH
  5
B1
102
{ACAD_REACTORS
330
AF
102
}
100
AcDbEntity
  8
BUILDING_ENVELOPE
 62
     7
100
AcDbHatch
 10
0.0
 20
0.0
 30
0.0
210
0.0
220
0.0
230
1.0
  2
SOLID
 70
     1
 71
     1
 91
        1
 92
        3
 72
     0
 73
     1
 93
        4
 10
0.3569035593728801
 20
28.7526909733561098
 10
25.0235702260395456
 20
28.7526909733561098
 10
25.0235702260395456
 20
28.4193576400227741
 10
0.3569035593728836
 20
28.4193576400227741
 97
        1
330
B0
 75
     0
 76
     1
 98
        0
  0
LWPOLYLINE
  5
B2
102
{ACAD_REACTORS
330
B3
102
}
100
AcDbEntity
  8
BUILDING_ENVELOPE
  6
CONTINUOUS
 62
     7
100
AcDbPolyline
 90
        4
 70
     1
 10
0.356904
 20
28.419358
 10
0.356904
 20
28.752691
 10
0.32357
 20
28.752691
 10
0.32357
 20
28.419358
  0
HATCH
  5
B3
102
{ACAD_REACTORS
330
AF
102
}
100
AcDbEntity
  8
BUILDING_ENVELOPE
 62
     7
100
AcDbHatch
 10
0.0
 20
0.0
 30
0.0
210
0.0
220
0.0
230
1.0
  2
SOLID
 70
     1
 71
     1
 91
        1
 92
        3
 72
     0
 73
     1
 93
        4
 10
0.3569035593728819
 20
28.4193576400227741
 10
0.3569035593728819
 20
28.7526909733561098
 10
0.3235702260395486
 20
28.7526909733561098
 10
0.3235702260395486
 20
28.4193576400227741
 97
        1
330
B2
 75
     0
 76
     1
 98
        0
  0
LWPOLYLINE
  5
B4
102
{ACAD_REACTORS
330
B5
102
}
100
AcDbEntity
  8
BUILDING_ENVELOPE
  6
CONTINUOUS
 62
     7
100
AcDbPolyline
 90
        4
 70
     1
 10
25.02357
 20
28.752691
 10
25.02357
 20
28.419358
 10
25.056904
 20
28.419358
 10
25.056904
 20
28.752691
  0
HATCH
  5
B5
102
{ACAD_REACTORS
330
AF
102
}
100
AcDbEntity
  8
BUILDING_ENVELOPE
 62
     7
100
AcDbHatch
 10
0.0
 20
0.0
 30
0.0
210
0.0
220
0.0
230
1.0
  2
SOLID
 70
     1
 71
     1
 91
        1
 92
        3
 72
     0
 73
     1
 93
        4
 10
25.0235702260395456
 20
28.7526909733561098
 10
25.0235702260395456
 20
28.4193576400227741
 10
25.0569035593728771
 20
28.4193576400227741
 10
25.0569035593728771
 20
28.7526909733561098
 97
        1
330
B4
 75
     0
 76
     1
 98
        0
  0
LINE
  5
B6
102
{ACAD_REACTORS
330
AF
102
}
100
AcDbEntity
  8
BUILDING_ENVELOPE
  6
CONTINUOUS
 62
     7
100
AcDbLine
 10
0.356904
 20
28.752691
 30
0.0
 11
25.02357
 21
28.752691
 31
0.0
  0
LINE
  5
B7
102
{ACAD_REACTORS
330
AF
102
}
100
AcDbEntity
  8
BUILDING_ENVELOPE
  6
CONTINUOUS
 62
     7
100
AcDbLine
 10
0.356904
 20
28.419358
 30
0.0
 11
25.02357
 21
28.419358
 31
0.0
  0
LWPOLYLINE
  5
B9
102
{ACAD_REACTORS
330
BA
102
}
100
AcDbEntity
  8
BUILDING_ENVELOPE
  6
CONTINUOUS
 62
     7
100
AcDbPolyline
 90
        4
 70
     1
 10
0.356904
 20
17.001389
 10
25.02357
 20
17.001389
 10
25.02357
 20
16.668056
 10
0.356904
 20
16.668056
  0
HATCH
  5
BA
102
{ACAD_REACTORS
330
B8
102
}
100
AcDbEntity
  8
BUILDING_ENVELOPE
 62
     7
100
AcDbHatch
 10
0.0
 20
0.0
 30
0.0
210
0.0
220
0.0
230
1.0
  2
SOLID
 70
     1
 71
     1
 91
        1
 92
        3
 72
     0
 73
     1
 93
        4
 10
0.356903559372879
 20
17.0013888725907414
 10
25.0235702260395456
 20
17.0013888725907414
 10
25.0235702260395456
 20
16.6680555392574092
 10
0.3569035593728836
 20
16.6680555392574092
 97
        1
330
B9
 75
     0
 76
     1
 98
        0
  0
LWPOLYLINE
  5
BB
102
{ACAD_REACTORS
330
BC
102
}
100
AcDbEntity
  8
BUILDING_ENVELOPE
  6
CONTINUOUS
 62
     7
100
AcDbPolyline
 90
        4
 70
     1
 10
0.356904
 20
16.668056
 10
0.356904
 20
17.001389
 10
0.32357
 20
17.001389
 10
0.32357
 20
16.668056
  0
HATCH
  5
BC
102
{ACAD_REACTORS
330
B8
102
}
100
AcDbEntity
  8
BUILDING_ENVELOPE
 62
     7
100
AcDbHatch
 10
0.0
 20
0.0
 30
0.0
210
0.0
220
0.0
230
1.0
  2
SOLID
 70
     1
 71
     1
 91
        1
 92
        3
 72
     0
 73
     1
 93
        4
 10
0.3569035593728813
 20
16.6680555392574092
 10
0.3569035593728813
 20
17.0013888725907414
 10
0.323570226039548
 20
17.0013888725907414
 10
0.323570226039548
 20
16.6680555392574092
 97
        1
330
BB
 75
     0
 76
     1
 98
        0
  0
LWPOLYLINE
  5
BD
102
{ACAD_REACTORS
330
BE
102
}
100
AcDbEntity
  8
BUILDING_ENVELOPE
  6
CONTINUOUS
 62
     7
100
AcDbPolyline
 90
        4
 70
     1
 10
25.02357
 20
17.001389
 10
25.02357
 20
16.668056
 10
25.056904
 20
16.668056
 10
25.056904
 20
17.001389
  0
HATCH
  5
BE
102
{ACAD_REACTORS
330
B8
102
}
100
AcDbEntity
  8
BUILDING_ENVELOPE
 62
     7
100
AcDbHatch
 10
0.0
 20
0.0
 30
0.0
210
0.0
220
0.0
230
1.0
  2
SOLID
 70
     1
 71
     1
 91
        1
 92
        3
 72
     0
 73
     1
 93
        4
 10
25.0235702260395456
 20
17.0013888725907414
 10
25.0235702260395456
 20
16.6680555392574092
 10
25.0569035593728771
 20
16.6680555392574092
 10
25.0569035593728771
 20
17.0013888725907414
 97
        1
330
BD
 75
     0
 76
     1
 98
        0
  0
LINE
  5
BF
102
{ACAD_REACTORS
330
B8
102
}
100
AcDbEntity
  8
BUILDING_ENVELOPE
  6
CONTINUOUS
 62
     7
100
AcDbLine
 10
0.356904
 20
17.001389
 30
0.0
 11
25.02357
 21
17.001389
 31
0.0
  0
LINE
  5
C0
102
{ACAD_REACTORS
330
B8
102
}
100
AcDbEntity
  8
BUILDING_ENVELOPE
  6
CONTINUOUS
 62
     7
100
AcDbLine
 10
0.356904
 20
16.668056
 30
0.0
 11
25.02357
 21
16.668056
 31
0.0
  0
LWPOLYLINE
  5
C2
102
{ACAD_REACTORS
330
C3
102
}
100
AcDbEntity
  8
BUILDING_ENVELOPE
  6
CONTINUOUS
 62
     7
100
AcDbPolyline
 90
        4
 70
     1
 10
0.356904
 20
5.178472
 10
12.041626
 20
5.178472
 10
12.374959
 20
4.845139
 10
0.356904
 20
4.845139
  0
HATCH
  5
C3
102
{ACAD_REACTORS
330
C1
102
}
100
AcDbEntity
  8
BUILDING_ENVELOPE
 62
     7
100
AcDbHatch
 10
0.0
 20
0.0
 30
0.0
210
0.0
220
0.0
230
1.0
  2
SOLID
 70
     1
 71
     1
 91
        1
 92
        3
 72
     0
 73
     1
 93
        4
 10
0.3569035593728802
 20
5.1784722223677271
 10
12.0416257815951102
 20
5.1784722223677271
 10
12.3749591149284441
 20
4.845138889034394
 10
0.356903559372886
 20
4.845138889034394
 97
        1
330
C2
 75
     0
 76
     1
 98
        0
  0
LWPOLYLINE
  5
C4
102
{ACAD_REACTORS
330
C5
102
}
100
AcDbEntity
  8
BUILDING_ENVELOPE
  6
CONTINUOUS
 62
     7
100
AcDbPolyline
 90
        4
 70
     1
 10
0.356904
 20
4.845139
 10
0.356904
 20
5.178472
 10
0.32357
 20
5.178472
 10
0.32357
 20
4.845139
  0
HATCH
  5
C5
102
{ACAD_REACTORS
330
C1
102
}
100
AcDbEntity
  8
BUILDING_ENVELOPE
 62
     7
100
AcDbHatch
 10
0.0
 20
0.0
 30
0.0
210
0.0
220
0.0
230
1.0
  2
SOLID
 70
     1
 71
     1
 91
        1
 92
        3
 72
     0
 73
     1
 93
        4
 10
0.3569035593728831
 20
4.845138889034394
 10
0.3569035593728831
 20
5.1784722223677271
 10
0.3235702260395498
 20
5.1784722223677271
 10
0.3235702260395498
 20
4.845138889034394
 97
        1
330
C4
 75
     0
 76
     1
 98
        0
  0
LINE
  5
C6
102
{ACAD_REACTORS
330
C1
102
}
100
AcDbEntity
  8
BUILDING_ENVELOPE
  6
CONTINUOUS
 62
     7
100
AcDbLine
 10
0.356904
 20
5.178472
 30
0.0
 11
12.041626
 21
5.178472
 31
0.0
  0
LINE
  5
C7
102
{ACAD_REACTORS
330
C1
102
}
100
AcDbEntity
  8
BUILDING_ENVELOPE
  6
CONTINUOUS
 62
     7
100
AcDbLine
 10
0.356904
 20
4.845139
 30
0.0
 11
12.374959
 21
4.845139
 31
0.0
  0
LWPOLYLINE
  5
C9
102
{ACAD_REACTORS
330
CA
102
}
100
AcDbEntity
  8
BUILDING_ENVELOPE
  6
CONTINUOUS
 62
     7
100
AcDbPolyline
 90
        4
 70
     1
 10
12.041626
 20
5.178472
 10
12.041626
 20
16.668056
 10
12.374959
 20
16.668056
 10
12.374959
 20
4.845139
  0
HATCH
  5
CA
102
{ACAD_REACTORS
330
C8
102
}
100
AcDbEntity
  8
BUILDING_ENVELOPE
 62
     7
100
AcDbHatch
 10
0.0
 20
0.0
 30
0.0
210
0.0
220
0.0
230
1.0
  2
SOLID
 70
     1
 71
     1
 91
        1
 92
        3
 72
     0
 73
     1
 93
        4
 10
12.0416257815951084
 20
5.1784722223676942
 10
12.0416257815951084
 20
16.668055539257395
 10
12.3749591149284406
 20
16.6680555392574057
 10
12.3749591149284406
 20
4.8451388890343638
 97
        1
330
C9
 75
     0
 76
     1
 98
        0
  0
LWPOLYLINE
  5
CB
102
{ACAD_REACTORS
330
CC
102
}
100
AcDbEntity
  8
BUILDING_ENVELOPE
  6
CONTINUOUS
 62
     7
100
AcDbPolyline
 90
        4
 70
     1
 10
12.041626
 20
16.668056
 10
12.374959
 20
16.668056
 10
12.374959
 20
16.701389
 10
12.041626
 20
16.701389
  0
HATCH
  5
CC
102
{ACAD_REACTORS
330
C8
102
}
100
AcDbEntity
  8
BUILDING_ENVELOPE
 62
     7
100
AcDbHatch
 10
0.0
 20
0.0
 30
0.0
210
0.0
220
0.0
230
1.0
  2
SOLID
 70
     1
 71
     1
 91
        1
 92
        3
 72
     0
 73
     1
 93
        4
 10
12.0416257815951084
 20
16.6680555392574057
 10
12.3749591149284406
 20
16.6680555392574057
 10
12.3749591149284406
 20
16.7013888725907407
 10
12.0416257815951084
 20
16.7013888725907407
 97
        1
330
CB
 75
     0
 76
     1
 98
        0
  0
LINE
  5
CD
102
{ACAD_REACTORS
330
C8
102
}
100
AcDbEntity
  8
BUILDING_ENVELOPE
  6
CONTINUOUS
 62
     7
100
AcDbLine
 10
12.041626
 20
5.178472
 30
0.0
 11
12.041626
 21
16.668056
 31
0.0
  0
LINE
  5
CE
102
{ACAD_REACTORS
330
C8
102
}
100
AcDbEntity
  8
BUILDING_ENVELOPE
  6
CONTINUOUS
 62
     7
100
AcDbLine
 10
12.374959
 20
4.845139
 30
0.0
 11
12.374959
 21
16.668056
 31
0.0
  0
LWPOLYLINE
  5
D0
102
{ACAD_REACTORS
330
D1
102
}
100
AcDbEntity
  8
BUILDING_ENVELOPE
  6
CONTINUOUS
 62
     7
100
AcDbPolyline
 90
        5
 70
     1
 10
13.958292
 20
28.419358
 10
13.958292
 20
33.251389
 10
14.291626
 20
32.918056
 10
14.291626
 20
28.419358
 10
14.124959
 20
28.419358
  0
HATCH
  5
D1
102
{ACAD_REACTORS
330
CF
102
}
100
AcDbEntity
  8
BUILDING_ENVELOPE
 62
     7
100
AcDbHatch
 10
0.0
 20
0.0
 30
0.0
210
0.0
220
0.0
230
1.0
  2
SOLID
 70
     1
 71
     1
 91
        1
 92
        3
 72
     0
 73
     1
 93
        5
 10
13.9582924342919341
 20
28.4193576400227705
 10
13.9582924342919341
 20
33.2513888574567389
 10
14.2916257676252663
 20
32.9180555241234103
 10
14.2916257676252663
 20
28.4193576400227705
 10
14.1249591009586002
 20
28.4193576400227705
 97
        1
330
D0
 75
     0
 76
     1
 98
        0
  0
LWPOLYLINE
  5
D2
102
{ACAD_REACTORS
330
CF
102
}
100
AcDbEntity
  8
BUILDING_ENVELOPE
  6
CONTINUOUS
 62
     7
100
AcDbPolyline
 90
        3
 70
     0
 10
14.124959
 20
28.419358
 10
13.958292
 20
28.419358
 10
13.958292
 20
33.251389
  0
LWPOLYLINE
  5
D3
102
{ACAD_REACTORS
330
CF
102
}
100
AcDbEntity
  8
BUILDING_ENVELOPE
  6
CONTINUOUS
 62
     7
100
AcDbPolyline
 90
        3
 70
     0
 10
14.124959
 20
28.419358
 10
14.291626
 20
28.419358
 10
14.291626
 20
32.918056
  0
LWPOLYLINE
  5
D4
102
{ACAD_REACTORS
330
D5
102
}
100
AcDbEntity
  8
BUILDING_ENVELOPE
  6
CONTINUOUS
 62
     7
100
AcDbPolyline
 90
        4
 70
     1
 10
13.958292
 20
33.251389
 10
16.302042
 20
33.251389
 10
16.635376
 20
32.918056
 10
14.291626
 20
32.918056
  0
HATCH
  5
D5
102
{ACAD_REACTORS
330
CF
102
}
100
AcDbEntity
  8
BUILDING_ENVELOPE
 62
     7
100
AcDbHatch
 10
0.0
 20
0.0
 30
0.0
210
0.0
220
0.0
230
1.0
  2
SOLID
 70
     1
 71
     1
 91
        1
 92
        3
 72
     0
 73
     1
 93
        4
 10
13.9582924342919359
 20
33.251388857456746
 10
16.3020424321091468
 20
33.251388857456746
 10
16.635375765442479
 20
32.9180555241234103
 10
14.2916257676252698
 20
32.9180555241234103
 97
        1
330
D4
 75
     0
 76
     1
 98
        0
  0
LINE
  5
D6
102
{ACAD_REACTORS
330
CF
102
}
100
AcDbEntity
  8
BUILDING_ENVELOPE
  6
CONTINUOUS
 62
     7
100
AcDbLine
 10
13.958292
 20
33.251389
 30
0.0
 11
16.302042
 21
33.251389
 31
0.0
  0
LINE
  5
D7
102
{ACAD_REACTORS
330
CF
102
}
100
AcDbEntity
  8
BUILDING_ENVELOPE
  6
CONTINUOUS
 62
     7
100
AcDbLine
 10
14.291626
 20
32.918056
 30
0.0
 11
16.635376
 21
32.918056
 31
0.0
  0
LWPOLYLINE
  5
D8
102
{ACAD_REACTORS
330
D9
102
}
100
AcDbEntity
  8
BUILDING_ENVELOPE
  6
CONTINUOUS
 62
     7
100
AcDbPolyline
 90
        5
 70
     1
 10
16.302042
 20
33.251389
 10
16.302042
 20
40.183681
 10
16.468709
 20
40.183681
 10
16.635376
 20
40.183681
 10
16.635376
 20
32.918056
  0
HATCH
  5
D9
102
{ACAD_REACTORS
330
CF
102
}
100
AcDbEntity
  8
BUILDING_ENVELOPE
 62
     7
100
AcDbHatch
 10
0.0
 20
0.0
 30
0.0
210
0.0
220
0.0
230
1.0
  2
SOLID
 70
     1
 71
     1
 91
        1
 92
        3
 72
     0
 73
     1
 93
        5
 10
16.3020424321091397
 20
33.2513888574567389
 10
16.3020424321091397
 20
40.1836805173568834
 10
16.4687090987758076
 20
40.1836805173568834
 10
16.6353757654424754
 20
40.1836805173568834
 10
16.6353757654424754
 20
32.9180555241234103
 97
        1
330
D8
 75
     0
 76
     1
 98
        0
  0
LWPOLYLINE
  5
DA
102
{ACAD_REACTORS
330
CF
102
}
100
AcDbEntity
  8
BUILDING_ENVELOPE
  6
CONTINUOUS
 62
     7
100
AcDbPolyline
 90
        3
 70
     0
 10
16.302042
 20
33.251389
 10
16.302042
 20
40.183681
 10
16.468709
 20
40.183681
  0
LWPOLYLINE
  5
DB
102
{ACAD_REACTORS
330
CF
102
}
100
AcDbEntity
  8
BUILDING_ENVELOPE
  6
CONTINUOUS
 62
     7
100
AcDbPolyline
 90
        3
 70
     0
 10
16.635376
 20
32.918056
 10
16.635376
 20
40.183681
 10
16.468709
 20
40.183681
  0
LWPOLYLINE
  5
DD
102
{ACAD_REACTORS
330
DE
102
}
100
AcDbEntity
  8
BUILDING_ENVELOPE
  6
CONTINUOUS
 62
     7
100
AcDbPolyline
 90
        4
 70
     1
 10
8.442667
 20
40.517014
 10
8.442667
 20
45.166667
 10
8.776001
 20
45.166667
 10
8.776001
 20
40.517014
  0
HATCH
  5
DE
102
{ACAD_REACTORS
330
DC
102
}
100
AcDbEntity
  8
BUILDING_ENVELOPE
 62
     7
100
AcDbHatch
 10
0.0
 20
0.0
 30
0.0
210
0.0
220
0.0
230
1.0
  2
SOLID
 70
     1
 71
     1
 91
        1
 92
        3
 72
     0
 73
     1
 93
        4
 10
8.4426674480434833
 20
40.5170138506901907
 10
8.4426674480434833
 20
45.166666666666643
 10
8.7760007813768155
 20
45.1666666666666572
 10
8.7760007813768155
 20
40.5170138506901978
 97
        1
330
DD
 75
     0
 76
     1
 98
        0
  0
LWPOLYLINE
  5
DF
102
{ACAD_REACTORS
330
E0
102
}
100
AcDbEntity
  8
BUILDING_ENVELOPE
  6
CONTINUOUS
 62
     7
100
AcDbPolyline
 90
        4
 70
     1
 10
8.776001
 20
40.517014
 10
8.442667
 20
40.517014
 10
8.442667
 20
40.483681
 10
8.776001
 20
40.483681
  0
HATCH
  5
E0
102
{ACAD_REACTORS
330
DC
102
}
100
AcDbEntity
  8
BUILDING_ENVELOPE
 62
     7
100
AcDbHatch
 10
0.0
 20
0.0
 30
0.0
210
0.0
220
0.0
230
1.0
  2
SOLID
 70
     1
 71
     1
 91
        1
 92
        3
 72
     0
 73
     1
 93
        4
 10
8.7760007813768155
 20
40.5170138506901907
 10
8.4426674480434833
 20
40.5170138506901907
 10
8.4426674480434833
 20
40.4836805173568592
 10
8.7760007813768155
 20
40.4836805173568592
 97
        1
330
DF
 75
     0
 76
     1
 98
        0
  0
LWPOLYLINE
  5
E1
102
{ACAD_REACTORS
330
E2
102
}
100
AcDbEntity
  8
BUILDING_ENVELOPE
  6
CONTINUOUS
 62
     7
100
AcDbPolyline
 90
        4
 70
     1
 10
8.442667
 20
45.166667
 10
8.776001
 20
45.166667
 10
8.776001
 20
45.2
 10
8.442667
 20
45.2
  0
HATCH
  5
E2
102
{ACAD_REACTORS
330
DC
102
}
100
AcDbEntity
  8
BUILDING_ENVELOPE
 62
     7
100
AcDbHatch
 10
0.0
 20
0.0
 30
0.0
210
0.0
220
0.0
230
1.0
  2
SOLID
 70
     1
 71
     1
 91
        1
 92
        3
 72
     0
 73
     1
 93
        4
 10
8.4426674480434833
 20
45.1666666666666572
 10
8.7760007813768155
 20
45.1666666666666572
 10
8.7760007813768155
 20
45.1999999999999886
 10
8.4426674480434833
 20
45.1999999999999886
 97
        1
330
E1
 75
     0
 76
     1
 98
        0
  0
LINE
  5
E3
102
{ACAD_REACTORS
330
DC
102
}
100
AcDbEntity
  8
BUILDING_ENVELOPE
  6
CONTINUOUS
 62
     7
100
AcDbLine
 10
8.442667
 20
40.517014
 30
0.0
 11
8.442667
 21
45.166667
 31
0.0
  0
LINE
  5
E4
102
{ACAD_REACTORS
330
DC
102
}
100
AcDbEntity
  8
BUILDING_ENVELOPE
  6
CONTINUOUS
 62
     7
100
AcDbLine
 10
8.776001
 20
40.517014
 30
0.0
 11
8.776001
 21
45.166667
 31
0.0
  0
LWPOLYLINE
  5
E6
102
{ACAD_REACTORS
330
EC
102
}
100
AcDbEntity
  8
BUILDING_ENVELOPE
  6
CONTINUOUS
 62
     7
100
AcDbPolyline
 90
        4
 70
     1
 10
12.416626
 20
16.660056
 10
17.791626
 20
16.660056
 10
17.791626
 20
17.009389
 10
12.416626
 20
17.009389
  0
LINE
  5
E7
102
{ACAD_REACTORS
330
EC
102
}
100
AcDbEntity
  8
BUILDING_ENVELOPE
  6
CONTINUOUS
 62
     7
100
AcDbLine
 10
17.791626
 20
16.668056
 30
0.0
 11
17.791626
 21
17.001389
 31
0.0
  0
LINE
  5
E8
102
{ACAD_REACTORS
330
EC
102
}
100
AcDbEntity
  8
BUILDING_ENVELOPE
  6
CONTINUOUS
 62
     7
100
AcDbLine
 10
17.791626
 20
17.001389
 30
0.0
 11
17.624959
 21
17.001389
 31
0.0
  0
LINE
  5
E9
102
{ACAD_REACTORS
330
EC
102
}
100
AcDbEntity
  8
BUILDING_ENVELOPE
  6
CONTINUOUS
 62
     7
100
AcDbLine
 10
17.624959
 20
17.001389
 30
0.0
 11
17.624959
 21
16.876389
 31
0.0
  0
LINE
  5
EA
102
{ACAD_REACTORS
330
EC
102
}
100
AcDbEntity
  8
BUILDING_ENVELOPE
  6
CONTINUOUS
 62
     7
100
AcDbLine
 10
17.624959
 20
16.751389
 30
0.0
 11
17.624959
 21
16.668056
 31
0.0
  0
LINE
  5
EB
102
{ACAD_REACTORS
330
EC
102
}
100
AcDbEntity
  8
BUILDING_ENVELOPE
  6
CONTINUOUS
 62
     7
100
AcDbLine
 10
17.624959
 20
16.668056
 30
0.0
 11
17.791626
 21
16.668056
 31
0.0
  0
HATCH
  5
EC
102
{ACAD_REACTORS
330
E5
102
}
100
AcDbEntity
  8
BUILDING_ENVELOPE
 62
     7
100
AcDbHatch
 10
0.0
 20
0.0
 30
0.0
210
0.0
220
0.0
230
1.0
  2
SOLID
 70
     1
 71
     1
 91
        2
 92
        1
 93
        6
 72
     1
 10
17.7916257815951617
 20
16.6680555392574092
 11
17.7916257815951617
 21
17.0013888725907414
 72
     1
 10
17.7916257815951617
 20
17.0013888725907414
 11
17.6249591149284939
 21
17.0013888725907414
 72
     1
 10
17.6249591149284939
 20
17.0013888725907414
 11
17.6249591149284939
 21
16.8763888725907414
 72
     1
 10
17.6249591149284939
 20
16.8763888725907414
 11
17.6249591149284939
 21
16.7513888725907414
 72
     1
 10
17.6249591149284939
 20
16.7513888725907414
 11
17.6249591149284939
 21
16.6680555392574092
 72
     1
 10
17.6249591149284939
 20
16.6680555392574092
 11
17.7916257815951617
 21
16.6680555392574092
 97
        6
330
E6
330
E7
330
E8
330
E9
330
EA
330
EB
 92
        1
 93
        6
 72
     1
 10
12.4166257763564545
 20
16.6680555392574092
 11
12.4166257763564545
 21
17.0013888725907414
 72
     1
 10
12.4166257763564545
 20
17.0013888725907414
 11
12.5832924430231206
 21
17.0013888725907414
 72
     1
 10
12.5832924430231206
 20
17.0013888725907414
 11
12.5832924430231206
 21
16.8763888725907414
 72
     1
 10
12.5832924430231206
 20
16.8763888725907414
 11
12.5832924430231206
 21
16.7513888725907414
 72
     1
 10
12.5832924430231206
 20
16.7513888725907414
 11
12.5832924430231206
 21
16.6680555392574092
 72
     1
 10
12.5832924430231206
 20
16.6680555392574092
 11
12.4166257763564545
 21
16.6680555392574092
 97
        5
330
ED
330
EE
330
EF
330
F0
330
F1
 75
     0
 76
     1
 98
        0
  0
LINE
  5
ED
102
{ACAD_REACTORS
330
EC
102
}
100
AcDbEntity
  8
BUILDING_ENVELOPE
  6
CONTINUOUS
 62
     7
100
AcDbLine
 10
12.416626
 20
16.668056
 30
0.0
 11
12.416626
 21
17.001389
 31
0.0
  0
LINE
  5
EE
102
{ACAD_REACTORS
330
EC
102
}
100
AcDbEntity
  8
BUILDING_ENVELOPE
  6
CONTINUOUS
 62
     7
100
AcDbLine
 10
12.416626
 20
17.001389
 30
0.0
 11
12.583292
 21
17.001389
 31
0.0
  0
LINE
  5
EF
102
{ACAD_REACTORS
330
EC
102
}
100
AcDbEntity
  8
BUILDING_ENVELOPE
  6
CONTINUOUS
 62
     7
100
AcDbLine
 10
12.583292
 20
17.001389
 30
0.0
 11
12.583292
 21
16.876389
 31
0.0
  0
LINE
  5
F0
102
{ACAD_REACTORS
330
EC
102
}
100
AcDbEntity
  8
BUILDING_ENVELOPE
  6
CONTINUOUS
 62
     7
100
AcDbLine
 10
12.583292
 20
16.751389
 30
0.0
 11
12.583292
 21
16.668056
 31
0.0
  0
LINE
  5
F1
102
{ACAD_REACTORS
330
EC
102
}
100
AcDbEntity
  8
BUILDING_ENVELOPE
  6
CONTINUOUS
 62
     7
100
AcDbLine
 10
12.583292
 20
16.668056
 30
0.0
 11
12.416626
 21
16.668056
 31
0.0
  0
LINE
  5
F2
102
{ACAD_REACTORS
330
F5
102
}
100
AcDbEntity
  8
BUILDING_ENVELOPE
  6
CONTINUOUS
 62
     7
100
AcDbLine
 10
17.624959
 20
16.876389
 30
0.0
 11
17.583292
 21
16.876389
 31
0.0
  0
LINE
  5
F3
102
{ACAD_REACTORS
330
F5
102
}
100
AcDbEntity
  8
BUILDING_ENVELOPE
  6
CONTINUOUS
 62
     7
100
AcDbLine
 10
17.583292
 20
16.876389
 30
0.0
 11
17.583292
 21
16.751389
 31
0.0
  0
LINE
  5
F4
102
{ACAD_REACTORS
330
F5
102
}
100
AcDbEntity
  8
BUILDING_ENVELOPE
  6
CONTINUOUS
 62
     7
100
AcDbLine
 10
17.583292
 20
16.751389
 30
0.0
 11
17.624959
 21
16.751389
 31
0.0
  0
HATCH
  5
F5
102
{ACAD_REACTORS
330
E5
102
}
100
AcDbEntity
  8
BUILDING_ENVELOPE
 62
     7
100
AcDbHatch
 10
0.0
 20
0.0
 30
0.0
210
0.0
220
0.0
230
1.0
  2
SOLID
 70
     1
 71
     1
 91
        2
 92
        1
 93
        4
 72
     1
 10
17.6249591149284939
 20
16.8763888725907414
 11
17.5832924482618296
 21
16.8763888725907414
 72
     1
 10
17.5832924482618296
 20
16.8763888725907414
 11
17.5832924482618296
 21
16.7513888725907414
 72
     1
 10
17.5832924482618296
 20
16.7513888725907414
 11
17.6249591149284939
 21
16.7513888725907414
 72
     1
 10
17.6249591149284939
 20
16.7513888725907414
 11
17.6249591149284939
 21
16.8763888725907414
 97
        3
330
F2
330
F3
330
F4
 92
        1
 93
        4
 72
     1
 10
12.5832924430231206
 20
16.8763888725907414
 11
12.6249591096897866
 21
16.8763888725907414
 72
     1
 10
12.6249591096897866
 20
16.8763888725907414
 11
12.6249591096897866
 21
16.7513888725907414
 72
     1
 10
12.6249591096897866
 20
16.7513888725907414
 11
12.5832924430231206
 21
16.7513888725907414
 72
     1
 10
12.5832924430231206
 20
16.7513888725907414
 11
12.5832924430231206
 21
16.8763888725907414
 97
        3
330
F6
330
F7
330
F8
 75
     0
 76
     1
 98
        0
  0
LINE
  5
F6
102
{ACAD_REACTORS
330
F5
102
}
100
AcDbEntity
  8
BUILDING_ENVELOPE
  6
CONTINUOUS
 62
     7
100
AcDbLine
 10
12.583292
 20
16.876389
 30
0.0
 11
12.624959
 21
16.876389
 31
0.0
  0
LINE
  5
F7
102
{ACAD_REACTORS
330
F5
102
}
100
AcDbEntity
  8
BUILDING_ENVELOPE
  6
CONTINUOUS
 62
     7
100
AcDbLine
 10
12.624959
 20
16.876389
 30
0.0
 11
12.624959
 21
16.751389
 31
0.0
  0
LINE
  5
F8
102
{ACAD_REACTORS
330
F5
102
}
100
AcDbEntity
  8
BUILDING_ENVELOPE
  6
CONTINUOUS
 62
     7
100
AcDbLine
 10
12.624959
 20
16.751389
 30
0.0
 11
12.583292
 21
16.751389
 31
0.0
  0
LINE
  5
F9
102
{ACAD_REACTORS
330
E5
102
}
100
AcDbEntity
  8
BUILDING_ENVELOPE
  6
CONTINUOUS
 62
     7
100
AcDbLine
 10
17.791626
 20
16.668056
 30
0.0
 11
17.791626
 21
17.001389
 31
0.0
  0
LINE
  5
FA
102
{ACAD_REACTORS
330
E5
102
}
100
AcDbEntity
  8
BUILDING_ENVELOPE
  6
CONTINUOUS
 62
     7
100
AcDbLine
 10
12.416626
 20
16.668056
 30
0.0
 11
12.416626
 21
17.001389
 31
0.0
  0
ARC
  5
FB
102
{ACAD_REACTORS
330
E5
102
}
100
AcDbEntity
  8
BUILDING_ENVELOPE
  6
CONTINUOUS
 62
     7
100
AcDbCircle
 10
12.583292
 20
17.001389
 30
0.0
 40
2.520833
100
AcDbArc
 50
0.0
 51
90.0
  0
ARC
  5
FC
102
{ACAD_REACTORS
330
E5
102
}
100
AcDbEntity
  8
BUILDING_ENVELOPE
  6
CONTINUOUS
 62
     7
100
AcDbCircle
 10
17.624959
 20
17.001389
 30
0.0
 40
2.520833
100
AcDbArc
 50
90.0
 51
180.0
  0
LWPOLYLINE
  5
FD
102
{ACAD_REACTORS
330
FE
102
}
100
AcDbEntity
  8
BUILDING_ENVELOPE
  6
CONTINUOUS
 62
     7
100
AcDbPolyline
 90
        4
 70
     1
 10
12.583292
 20
19.522222
 10
12.583292
 20
17.001389
 10
12.708292
 20
17.001389
 10
12.708292
 20
19.522222
  0
HATCH
  5
FE
102
{ACAD_REACTORS
330
E5
102
}
100
AcDbEntity
  8
BUILDING_ENVELOPE
 62
     7
100
AcDbHatch
 10
0.0
 20
0.0
 30
0.0
210
0.0
220
0.0
230
1.0
  2
SOLID
 70
     1
 71
     1
 91
        1
 92
        3
 72
     0
 73
     1
 93
        4
 10
12.5832924430231206
 20
19.5222222085434289
 10
12.5832924430231206
 20
17.0013888725907414
 10
12.7082924430231206
 20
17.0013888725907414
 10
12.7082924430231206
 20
19.5222222085434289
 97
        1
330
FD
 75
     0
 76
     1
 98
        0
  0
LWPOLYLINE
  5
FF
102
{ACAD_REACTORS
330
100
102
}
100
AcDbEntity
  8
BUILDING_ENVELOPE
  6
CONTINUOUS
 62
     7
100
AcDbPolyline
 90
        4
 70
     1
 10
17.499959
 20
19.522222
 10
17.499959
 20
17.001389
 10
17.624959
 20
17.001389
 10
17.624959
 20
19.522222
  0
HATCH
  5
100
102
{ACAD_REACTORS
330
E5
102
}
100
AcDbEntity
  8
BUILDING_ENVELOPE
 62
     7
100
AcDbHatch
 10
0.0
 20
0.0
 30
0.0
210
0.0
220
0.0
230
1.0
  2
SOLID
 70
     1
 71
     1
 91
        1
 92
        3
 72
     0
 73
     1
 93
        4
 10
17.4999591149284939
 20
19.5222222085434289
 10
17.4999591149284939
 20
17.0013888725907414
 10
17.6249591149284939
 20
17.0013888725907414
 10
17.6249591149284939
 20
19.5222222085434289
 97
        1
330
FF
 75
     0
 76
     1
 98
        0
  0
LWPOLYLINE
  5
102
102
{ACAD_REACTORS
330
108
102
}
100
AcDbEntity
  8
BUILDING_ENVELOPE
  6
CONTINUOUS
 62
     7
100
AcDbPolyline
 90
        4
 70
     1
 10
12.382959
 20
12.501389
 10
12.382959
 20
15.334722
 10
12.033626
 20
15.334722
 10
12.033626
 20
12.501389
  0
LINE
  5
103
102
{ACAD_REACTORS
330
108
102
}
100
AcDbEntity
  8
BUILDING_ENVELOPE
  6
CONTINUOUS
 62
     7
100
AcDbLine
 10
12.374959
 20
15.334722
 30
0.0
 11
12.041626
 21
15.334722
 31
0.0
  0
LINE
  5
104
102
{ACAD_REACTORS
330
108
102
}
100
AcDbEntity
  8
BUILDING_ENVELOPE
  6
CONTINUOUS
 62
     7
100
AcDbLine
 10
12.041626
 20
15.334722
 30
0.0
 11
12.041626
 21
15.168056
 31
0.0
  0
LINE
  5
105
102
{ACAD_REACTORS
330
108
102
}
100
AcDbEntity
  8
BUILDING_ENVELOPE
  6
CONTINUOUS
 62
     7
100
AcDbLine
 10
12.041626
 20
15.168056
 30
0.0
 11
12.166626
 21
15.168056
 31
0.0
  0
LINE
  5
106
102
{ACAD_REACTORS
330
108
102
}
100
AcDbEntity
  8
BUILDING_ENVELOPE
  6
CONTINUOUS
 62
     7
100
AcDbLine
 10
12.291626
 20
15.168056
 30
0.0
 11
12.374959
 21
15.168056
 31
0.0
  0
LINE
  5
107
102
{ACAD_REACTORS
330
108
102
}
100
AcDbEntity
  8
BUILDING_ENVELOPE
  6
CONTINUOUS
 62
     7
100
AcDbLine
 10
12.374959
 20
15.168056
 30
0.0
 11
12.374959
 21
15.334722
 31
0.0
  0
HATCH
  5
108
102
{ACAD_REACTORS
330
101
102
}
100
AcDbEntity
  8
BUILDING_ENVELOPE
 62
     7
100
AcDbHatch
 10
0.0
 20
0.0
 30
0.0
210
0.0
220
0.0
230
1.0
  2
SOLID
 70
     1
 71
     1
 91
        2
 92
        1
 93
        6
 72
     1
 10
12.3749591149284406
 20
15.3347222082524333
 11
12.0416257815951084
 21
15.3347222082524333
 72
     1
 10
12.0416257815951084
 20
15.3347222082524333
 11
12.0416257815951084
 21
15.1680555415857672
 72
     1
 10
12.0416257815951084
 20
15.1680555415857672
 11
12.1666257815951084
 21
15.1680555415857672
 72
     1
 10
12.1666257815951084
 20
15.1680555415857672
 11
12.2916257815951084
 21
15.1680555415857672
 72
     1
 10
12.2916257815951084
 20
15.1680555415857672
 11
12.3749591149284406
 21
15.1680555415857672
 72
     1
 10
12.3749591149284406
 20
15.1680555415857672
 11
12.3749591149284406
 21
15.3347222082524333
 97
        6
330
102
330
103
330
104
330
105
330
106
330
107
 92
        1
 93
        6
 72
     1
 10
12.3749591149284406
 20
12.5013888749191011
 11
12.0416257815951084
 21
12.5013888749191011
 72
     1
 10
12.0416257815951084
 20
12.5013888749191011
 11
12.0416257815951084
 21
12.6680555415857672
 72
     1
 10
12.0416257815951084
 20
12.6680555415857672
 11
12.1666257815951084
 21
12.6680555415857672
 72
     1
 10
12.1666257815951084
 20
12.6680555415857672
 11
12.2916257815951084
 21
12.6680555415857672
 72
     1
 10
12.2916257815951084
 20
12.6680555415857672
 11
12.3749591149284406
 21
12.6680555415857672
 72
     1
 10
12.3749591149284406
 20
12.6680555415857672
 11
12.3749591149284406
 21
12.5013888749191011
 97
        5
330
109
330
10A
330
10B
330
10C
330
10D
 75
     0
 76
     1
 98
        0
  0
LINE
  5
109
102
{ACAD_REACTORS
330
108
102
}
100
AcDbEntity
  8
BUILDING_ENVELOPE
  6
CONTINUOUS
 62
     7
100
AcDbLine
 10
12.374959
 20
12.501389
 30
0.0
 11
12.041626
 21
12.501389
 31
0.0
  0
LINE
  5
10A
102
{ACAD_REACTORS
330
108
102
}
100
AcDbEntity
  8
BUILDING_ENVELOPE
  6
CONTINUOUS
 62
     7
100
AcDbLine
 10
12.041626
 20
12.501389
 30
0.0
 11
12.041626
 21
12.668056
 31
0.0
  0
LINE
  5
10B
102
{ACAD_REACTORS
330
108
102
}
100
AcDbEntity
  8
BUILDING_ENVELOPE
  6
CONTINUOUS
 62
     7
100
AcDbLine
 10
12.041626
 20
12.668056
 30
0.0
 11
12.166626
 21
12.668056
 31
0.0
  0
LINE
  5
10C
102
{ACAD_REACTORS
330
108
102
}
100
AcDbEntity
  8
BUILDING_ENVELOPE
  6
CONTINUOUS
 62
     7
100
AcDbLine
 10
12.291626
 20
12.668056
 30
0.0
 11
12.374959
 21
12.668056
 31
0.0
  0
LINE
  5
10D
102
{ACAD_REACTORS
330
108
102
}
100
AcDbEntity
  8
BUILDING_ENVELOPE
  6
CONTINUOUS
 62
     7
100
AcDbLine
 10
12.374959
 20
12.668056
 30
0.0
 11
12.374959
 21
12.501389
 31
0.0
  0
LINE
  5
10E
102
{ACAD_REACTORS
330
111
102
}
100
AcDbEntity
  8
BUILDING_ENVELOPE
  6
CONTINUOUS
 62
     7
100
AcDbLine
 10
12.166626
 20
15.168056
 30
0.0
 11
12.166626
 21
15.126389
 31
0.0
  0
LINE
  5
10F
102
{ACAD_REACTORS
330
111
102
}
100
AcDbEntity
  8
BUILDING_ENVELOPE
  6
CONTINUOUS
 62
     7
100
AcDbLine
 10
12.166626
 20
15.126389
 30
0.0
 11
12.291626
 21
15.126389
 31
0.0
  0
LINE
  5
110
102
{ACAD_REACTORS
330
111
102
}
100
AcDbEntity
  8
BUILDING_ENVELOPE
  6
CONTINUOUS
 62
     7
100
AcDbLine
 10
12.291626
 20
15.126389
 30
0.0
 11
12.291626
 21
15.168056
 31
0.0
  0
HATCH
  5
111
102
{ACAD_REACTORS
330
101
102
}
100
AcDbEntity
  8
BUILDING_ENVELOPE
 62
     7
100
AcDbHatch
 10
0.0
 20
0.0
 30
0.0
210
0.0
220
0.0
230
1.0
  2
SOLID
 70
     1
 71
     1
 91
        2
 92
        1
 93
        4
 72
     1
 10
12.1666257815951084
 20
15.1680555415857672
 11
12.1666257815951084
 21
15.1263888749191011
 72
     1
 10
12.1666257815951084
 20
15.1263888749191011
 11
12.2916257815951084
 21
15.1263888749191011
 72
     1
 10
12.2916257815951084
 20
15.1263888749191011
 11
12.2916257815951084
 21
15.1680555415857672
 72
     1
 10
12.2916257815951084
 20
15.1680555415857672
 11
12.1666257815951084
 21
15.1680555415857672
 97
        3
330
10E
330
10F
330
110
 92
        1
 93
        4
 72
     1
 10
12.1666257815951084
 20
12.6680555415857672
 11
12.1666257815951084
 21
12.7097222082524333
 72
     1
 10
12.1666257815951084
 20
12.7097222082524333
 11
12.2916257815951084
 21
12.7097222082524333
 72
     1
 10
12.2916257815951084
 20
12.7097222082524333
 11
12.2916257815951084
 21
12.6680555415857672
 72
     1
 10
12.2916257815951084
 20
12.6680555415857672
 11
12.1666257815951084
 21
12.6680555415857672
 97
        3
330
112
330
113
330
114
 75
     0
 76
     1
 98
        0
  0
LINE
  5
112
102
{ACAD_REACTORS
330
111
102
}
100
AcDbEntity
  8
BUILDING_ENVELOPE
  6
CONTINUOUS
 62
     7
100
AcDbLine
 10
12.166626
 20
12.668056
 30
0.0
 11
12.166626
 21
12.709722
 31
0.0
  0
LINE
  5
113
102
{ACAD_REACTORS
330
111
102
}
100
AcDbEntity
  8
BUILDING_ENVELOPE
  6
CONTINUOUS
 62
     7
100
AcDbLine
 10
12.166626
 20
12.709722
 30
0.0
 11
12.291626
 21
12.709722
 31
0.0
  0
LINE
  5
114
102
{ACAD_REACTORS
330
111
102
}
100
AcDbEntity
  8
BUILDING_ENVELOPE
  6
CONTINUOUS
 62
     7
100
AcDbLine
 10
12.291626
 20
12.709722
 30
0.0
 11
12.291626
 21
12.668056
 31
0.0
  0
LINE
  5
115
102
{ACAD_REACTORS
330
101
102
}
100
AcDbEntity
  8
BUILDING_ENVELOPE
  6
CONTINUOUS
 62
     7
100
AcDbLine
 10
12.374959
 20
15.334722
 30
0.0
 11
12.041626
 21
15.334722
 31
0.0
  0
LINE
  5
116
102
{ACAD_REACTORS
330
101
102
}
100
AcDbEntity
  8
BUILDING_ENVELOPE
  6
CONTINUOUS
 62
     7
100
AcDbLine
 10
12.374959
 20
12.501389
 30
0.0
 11
12.041626
 21
12.501389
 31
0.0
  0
ARC
  5
117
102
{ACAD_REACTORS
330
101
102
}
100
AcDbEntity
  8
BUILDING_ENVELOPE
  6
CONTINUOUS
 62
     7
100
AcDbCircle
 10
12.041626
 20
15.168056
 30
0.0
 40
2.5
100
AcDbArc
 50
180.0
 51
270.0
  0
LWPOLYLINE
  5
118
102
{ACAD_REACTORS
330
119
102
}
100
AcDbEntity
  8
BUILDING_ENVELOPE
  6
CONTINUOUS
 62
     7
100
AcDbPolyline
 90
        4
 70
     1
 10
9.541626
 20
15.043056
 10
12.041626
 20
15.043056
 10
12.041626
 20
15.168056
 10
9.541626
 20
15.168056
  0
HATCH
  5
119
102
{ACAD_REACTORS
330
101
102
}
100
AcDbEntity
  8
BUILDING_ENVELOPE
 62
     7
100
AcDbHatch
 10
0.0
 20
0.0
 30
0.0
210
0.0
220
0.0
230
1.0
  2
SOLID
 70
     1
 71
     1
 91
        1
 92
        3
 72
     0
 73
     1
 93
        4
 10
9.5416257815951084
 20
15.0430555415857672
 10
12.0416257815951084
 20
15.0430555415857672
 10
12.0416257815951084
 20
15.1680555415857672
 10
9.5416257815951084
 20
15.1680555415857672
 97
        1
330
118
 75
     0
 76
     1
 98
        0
  0
LWPOLYLINE
  5
11B
102
{ACAD_REACTORS
330
121
102
}
100
AcDbEntity
  8
BUILDING_ENVELOPE
  6
CONTINUOUS
 62
     7
100
AcDbPolyline
 90
        4
 70
     1
 10
12.583292
 20
0.158667
 10
20.791626
 20
0.158667
 10
20.791626
 20
0.508
 10
12.583292
 20
0.508
  0
LINE
  5
11C
102
{ACAD_REACTORS
330
121
102
}
100
AcDbEntity
  8
BUILDING_ENVELOPE
  6
CONTINUOUS
 62
     7
100
AcDbLine
 10
12.583292
 20
0.166667
 30
0.0
 11
12.583292
 21
0.5
 31
0.0
  0
LINE
  5
11D
102
{ACAD_REACTORS
330
121
102
}
100
AcDbEntity
  8
BUILDING_ENVELOPE
  6
CONTINUOUS
 62
     7
100
AcDbLine
 10
12.583292
 20
0.5
 30
0.0
 11
12.749959
 21
0.5
 31
0.0
  0
LINE
  5
11E
102
{ACAD_REACTORS
330
121
102
}
100
AcDbEntity
  8
BUILDING_ENVELOPE
  6
CONTINUOUS
 62
     7
100
AcDbLine
 10
12.749959
 20
0.5
 30
0.0
 11
12.749959
 21
0.416667
 31
0.0
  0
LINE
  5
11F
102
{ACAD_REACTORS
330
121
102
}
100
AcDbEntity
  8
BUILDING_ENVELOPE
  6
CONTINUOUS
 62
     7
100
AcDbLine
 10
12.749959
 20
0.25
 30
0.0
 11
12.749959
 21
0.166667
 31
0.0
  0
LINE
  5
120
102
{ACAD_REACTORS
330
121
102
}
100
AcDbEntity
  8
BUILDING_ENVELOPE
  6
CONTINUOUS
 62
     7
100
AcDbLine
 10
12.749959
 20
0.166667
 30
0.0
 11
12.583292
 21
0.166667
 31
0.0
  0
HATCH
  5
121
102
{ACAD_REACTORS
330
11A
102
}
100
AcDbEntity
  8
BUILDING_ENVELOPE
 62
     7
100
AcDbHatch
 10
0.0
 20
0.0
 30
0.0
210
0.0
220
0.0
230
1.0
  2
SOLID
 70
     1
 71
     1
 91
        2
 92
        1
 93
        6
 72
     1
 10
12.5832924430229998
 20
0.1666666666666825
 11
12.5832924430229998
 21
0.5000000000000158
 72
     1
 10
12.5832924430229998
 20
0.5000000000000158
 11
12.7499591096896658
 21
0.5000000000000158
 72
     1
 10
12.7499591096896658
 20
0.5000000000000158
 11
12.7499591096896658
 21
0.4166666666666825
 72
     1
 10
12.7499591096896658
 20
0.4166666666666825
 11
12.7499591096896658
 21
0.2500000000000158
 72
     1
 10
12.7499591096896658
 20
0.2500000000000158
 11
12.7499591096896658
 21
0.1666666666666825
 72
     1
 10
12.7499591096896658
 20
0.1666666666666825
 11
12.5832924430229998
 21
0.1666666666666825
 97
        6
330
11B
330
11C
330
11D
330
11E
330
11F
330
120
 92
        1
 93
        6
 72
     1
 10
20.7916257815951155
 20
0.1666666666666825
 11
20.7916257815951155
 21
0.5000000000000158
 72
     1
 10
20.7916257815951155
 20
0.5000000000000158
 11
20.6249591149284512
 21
0.5000000000000158
 72
     1
 10
20.6249591149284512
 20
0.5000000000000158
 11
20.6249591149284512
 21
0.4166666666666825
 72
     1
 10
20.6249591149284512
 20
0.4166666666666825
 11
20.6249591149284512
 21
0.2500000000000158
 72
     1
 10
20.6249591149284512
 20
0.2500000000000158
 11
20.6249591149284512
 21
0.1666666666666825
 72
     1
 10
20.6249591149284512
 20
0.1666666666666825
 11
20.7916257815951155
 21
0.1666666666666825
 97
        5
330
122
330
123
330
124
330
125
330
126
 75
     0
 76
     1
 98
        0
  0
LINE
  5
122
102
{ACAD_REACTORS
330
121
102
}
100
AcDbEntity
  8
BUILDING_ENVELOPE
  6
CONTINUOUS
 62
     7
100
AcDbLine
 10
20.791626
 20
0.166667
 30
0.0
 11
20.791626
 21
0.5
 31
0.0
  0
LINE
  5
123
102
{ACAD_REACTORS
330
121
102
}
100
AcDbEntity
  8
BUILDING_ENVELOPE
  6
CONTINUOUS
 62
     7
100
AcDbLine
 10
20.791626
 20
0.5
 30
0.0
 11
20.624959
 21
0.5
 31
0.0
  0
LINE
  5
124
102
{ACAD_REACTORS
330
121
102
}
100
AcDbEntity
  8
BUILDING_ENVELOPE
  6
CONTINUOUS
 62
     7
100
AcDbLine
 10
20.624959
 20
0.5
 30
0.0
 11
20.624959
 21
0.416667
 31
0.0
  0
LINE
  5
125
102
{ACAD_REACTORS
330
121
102
}
100
AcDbEntity
  8
BUILDING_ENVELOPE
  6
CONTINUOUS
 62
     7
100
AcDbLine
 10
20.624959
 20
0.25
 30
0.0
 11
20.624959
 21
0.166667
 31
0.0
  0
LINE
  5
126
102
{ACAD_REACTORS
330
121
102
}
100
AcDbEntity
  8
BUILDING_ENVELOPE
  6
CONTINUOUS
 62
     7
100
AcDbLine
 10
20.624959
 20
0.166667
 30
0.0
 11
20.791626
 21
0.166667
 31
0.0
  0
LWPOLYLINE
  5
127
102
{ACAD_REACTORS
330
128
102
}
100
AcDbEntity
  8
BUILDING_ENVELOPE
  6
CONTINUOUS
 62
     7
100
AcDbPolyline
 90
        4
 70
     1
 10
12.749959
 20
0.5
 10
12.916626
 20
0.5
 10
12.916626
 20
0.333333
 10
12.749959
 20
0.333333
  0
HATCH
  5
128
102
{ACAD_REACTORS
330
11A
102
}
100
AcDbEntity
  8
BUILDING_ENVELOPE
 62
     7
100
AcDbHatch
 10
0.0
 20
0.0
 30
0.0
210
0.0
220
0.0
230
1.0
  2
SOLID
 70
     1
 71
     1
 91
        2
 92
        3
 72
     0
 73
     1
 93
        4
 10
12.7499591096896658
 20
0.5000000000000158
 10
12.9166257763563337
 20
0.5000000000000158
 10
12.9166257763563337
 20
0.3333333333333491
 10
12.7499591096896658
 20
0.3333333333333491
 97
        1
330
127
 92
        3
 72
     0
 73
     1
 93
        4
 10
20.6249591149284512
 20
0.5000000000000158
 10
20.4582924482617834
 20
0.5000000000000158
 10
20.4582924482617834
 20
0.3333333333333491
 10
20.6249591149284512
 20
0.3333333333333491
 97
        1
330
129
 75
     0
 76
     1
 98
        0
  0
LWPOLYLINE
  5
129
102
{ACAD_REACTORS
330
128
102
}
100
AcDbEntity
  8
BUILDING_ENVELOPE
  6
CONTINUOUS
 62
     7
100
AcDbPolyline
 90
        4
 70
     1
 10
20.624959
 20
0.5
 10
20.458292
 20
0.5
 10
20.458292
 20
0.333333
 10
20.624959
 20
0.333333
  0
LINE
  5
12A
102
{ACAD_REACTORS
330
11A
102
}
100
AcDbEntity
  8
BUILDING_ENVELOPE
  6
CONTINUOUS
 62
     7
100
AcDbLine
 10
12.916626
 20
0.416667
 30
0.0
 11
20.458292
 21
0.416667
 31
0.0
  0
LINE
  5
12B
102
{ACAD_REACTORS
330
11A
102
}
100
AcDbEntity
  8
BUILDING_ENVELOPE
  6
CONTINUOUS
 62
     7
100
AcDbLine
 10
12.583292
 20
0.166667
 30
0.0
 11
12.583292
 21
0.5
 31
0.0
  0
LINE
  5
12C
102
{ACAD_REACTORS
330
11A
102
}
100
AcDbEntity
  8
BUILDING_ENVELOPE
  6
CONTINUOUS
 62
     7
100
AcDbLine
 10
20.791626
 20
0.166667
 30
0.0
 11
20.791626
 21
0.5
 31
0.0
  0
LWPOLYLINE
  5
12D
102
{ACAD_REACTORS
330
12E
102
}
100
AcDbEntity
  8
BUILDING_ENVELOPE
  6
CONTINUOUS
 62
     7
100
AcDbPolyline
 90
        4
 70
     1
 10
12.749959
 20
0.333333
 10
12.833292
 20
0.333333
 10
12.833292
 20
0.25
 10
12.749959
 20
0.25
  0
HATCH
  5
12E
102
{ACAD_REACTORS
330
11A
102
}
100
AcDbEntity
  8
BUILDING_ENVELOPE
 62
     7
100
AcDbHatch
 10
0.0
 20
0.0
 30
0.0
210
0.0
220
0.0
230
1.0
  2
SOLID
 70
     1
 71
     1
 91
        2
 92
        3
 72
     0
 73
     1
 93
        4
 10
12.7499591096896658
 20
0.3333333333333491
 10
12.8332924430229998
 20
0.3333333333333491
 10
12.8332924430229998
 20
0.2500000000000158
 10
12.7499591096896658
 20
0.2500000000000158
 97
        1
330
12D
 92
        3
 72
     0
 73
     1
 93
        4
 10
20.6249591149284512
 20
0.3333333333333491
 10
20.5416257815951155
 20
0.3333333333333491
 10
20.5416257815951155
 20
0.2500000000000158
 10
20.6249591149284512
 20
0.2500000000000158
 97
        1
330
12F
 75
     0
 76
     1
 98
        0
  0
LWPOLYLINE
  5
12F
102
{ACAD_REACTORS
330
12E
102
}
100
AcDbEntity
  8
BUILDING_ENVELOPE
  6
CONTINUOUS
 62
     7
100
AcDbPolyline
 90
        4
 70
     1
 10
20.624959
 20
0.333333
 10
20.541626
 20
0.333333
 10
20.541626
 20
0.25
 10
20.624959
 20
0.25
  0
LWPOLYLINE
  5
131
102
{ACAD_REACTORS
330
137
102
}
100
AcDbEntity
  8
BUILDING_ENVELOPE
  6
CONTINUOUS
 62
     7
100
AcDbPolyline
 90
        4
 70
     1
 10
3.989542
 20
40.175681
 10
1.156209
 20
40.175681
 10
1.156209
 20
40.525014
 10
3.989542
 20
40.525014
  0
LINE
  5
132
102
{ACAD_REACTORS
330
137
102
}
100
AcDbEntity
  8
BUILDING_ENVELOPE
  6
CONTINUOUS
 62
     7
100
AcDbLine
 10
1.156209
 20
40.183681
 30
0.0
 11
1.156209
 21
40.517014
 31
0.0
  0
LINE
  5
133
102
{ACAD_REACTORS
330
137
102
}
100
AcDbEntity
  8
BUILDING_ENVELOPE
  6
CONTINUOUS
 62
     7
100
AcDbLine
 10
1.156209
 20
40.517014
 30
0.0
 11
1.322876
 21
40.517014
 31
0.0
  0
LINE
  5
134
102
{ACAD_REACTORS
330
137
102
}
100
AcDbEntity
  8
BUILDING_ENVELOPE
  6
CONTINUOUS
 62
     7
100
AcDbLine
 10
1.322876
 20
40.517014
 30
0.0
 11
1.322876
 21
40.392014
 31
0.0
  0
LINE
  5
135
102
{ACAD_REACTORS
330
137
102
}
100
AcDbEntity
  8
BUILDING_ENVELOPE
  6
CONTINUOUS
 62
     7
100
AcDbLine
 10
1.322876
 20
40.267014
 30
0.0
 11
1.322876
 21
40.183681
 31
0.0
  0
LINE
  5
136
102
{ACAD_REACTORS
330
137
102
}
100
AcDbEntity
  8
BUILDING_ENVELOPE
  6
CONTINUOUS
 62
     7
100
AcDbLine
 10
1.322876
 20
40.183681
 30
0.0
 11
1.156209
 21
40.183681
 31
0.0
  0
HATCH
  5
137
102
{ACAD_REACTORS
330
130
102
}
100
AcDbEntity
  8
BUILDING_ENVELOPE
 62
     7
100
AcDbHatch
 10
0.0
 20
0.0
 30
0.0
210
0.0
220
0.0
230
1.0
  2
SOLID
 70
     1
 71
     1
 91
        2
 92
        1
 93
        6
 72
     1
 10
1.1562091130366348
 20
40.1836805173568479
 11
1.1562091130366348
 21
40.5170138506901765
 72
     1
 10
1.1562091130366348
 20
40.5170138506901765
 11
1.3228757797033013
 21
40.5170138506901765
 72
     1
 10
1.3228757797033013
 20
40.5170138506901765
 11
1.3228757797033013
 21
40.3920138506901765
 72
     1
 10
1.3228757797033013
 20
40.3920138506901765
 11
1.3228757797033013
 21
40.2670138506901765
 72
     1
 10
1.3228757797033013
 20
40.2670138506901765
 11
1.3228757797033013
 21
40.1836805173568479
 72
     1
 10
1.3228757797033013
 20
40.1836805173568479
 11
1.1562091130366348
 21
40.1836805173568479
 97
        6
330
131
330
132
330
133
330
134
330
135
330
136
 92
        1
 93
        6
 72
     1
 10
3.9895424463699678
 20
40.1836805173568479
 11
3.9895424463699678
 21
40.5170138506901765
 72
     1
 10
3.9895424463699678
 20
40.5170138506901765
 11
3.8228757797033013
 21
40.5170138506901765
 72
     1
 10
3.8228757797033013
 20
40.5170138506901765
 11
3.8228757797033013
 21
40.3920138506901765
 72
     1
 10
3.8228757797033013
 20
40.3920138506901765
 11
3.8228757797033013
 21
40.2670138506901765
 72
     1
 10
3.8228757797033013
 20
40.2670138506901765
 11
3.8228757797033013
 21
40.1836805173568479
 72
     1
 10
3.8228757797033013
 20
40.1836805173568479
 11
3.9895424463699678
 21
40.1836805173568479
 97
        5
330
138
330
139
330
13A
330
13B
330
13C
 75
     0
 76
     1
 98
        0
  0
LINE
  5
138
102
{ACAD_REACTORS
330
137
102
}
100
AcDbEntity
  8
BUILDING_ENVELOPE
  6
CONTINUOUS
 62
     7
100
AcDbLine
 10
3.989542
 20
40.183681
 30
0.0
 11
3.989542
 21
40.517014
 31
0.0
  0
LINE
  5
139
102
{ACAD_REACTORS
330
137
102
}
100
AcDbEntity
  8
BUILDING_ENVELOPE
  6
CONTINUOUS
 62
     7
100
AcDbLine
 10
3.989542
 20
40.517014
 30
0.0
 11
3.822876
 21
40.517014
 31
0.0
  0
LINE
  5
13A
102
{ACAD_REACTORS
330
137
102
}
100
AcDbEntity
  8
BUILDING_ENVELOPE
  6
CONTINUOUS
 62
     7
100
AcDbLine
 10
3.822876
 20
40.517014
 30
0.0
 11
3.822876
 21
40.392014
 31
0.0
  0
LINE
  5
13B
102
{ACAD_REACTORS
330
137
102
}
100
AcDbEntity
  8
BUILDING_ENVELOPE
  6
CONTINUOUS
 62
     7
100
AcDbLine
 10
3.822876
 20
40.267014
 30
0.0
 11
3.822876
 21
40.183681
 31
0.0
  0
LINE
  5
13C
102
{ACAD_REACTORS
330
137
102
}
100
AcDbEntity
  8
BUILDING_ENVELOPE
  6
CONTINUOUS
 62
     7
100
AcDbLine
 10
3.822876
 20
40.183681
 30
0.0
 11
3.989542
 21
40.183681
 31
0.0
  0
LINE
  5
13D
102
{ACAD_REACTORS
330
140
102
}
100
AcDbEntity
  8
BUILDING_ENVELOPE
  6
CONTINUOUS
 62
     7
100
AcDbLine
 10
1.322876
 20
40.392014
 30
0.0
 11
1.364542
 21
40.392014
 31
0.0
  0
LINE
  5
13E
102
{ACAD_REACTORS
330
140
102
}
100
AcDbEntity
  8
BUILDING_ENVELOPE
  6
CONTINUOUS
 62
     7
100
AcDbLine
 10
1.364542
 20
40.392014
 30
0.0
 11
1.364542
 21
40.267014
 31
0.0
  0
LINE
  5
13F
102
{ACAD_REACTORS
330
140
102
}
100
AcDbEntity
  8
BUILDING_ENVELOPE
  6
CONTINUOUS
 62
     7
100
AcDbLine
 10
1.364542
 20
40.267014
 30
0.0
 11
1.322876
 21
40.267014
 31
0.0
  0
HATCH
  5
140
102
{ACAD_REACTORS
330
130
102
}
100
AcDbEntity
  8
BUILDING_ENVELOPE
 62
     7
100
AcDbHatch
 10
0.0
 20
0.0
 30
0.0
210
0.0
220
0.0
230
1.0
  2
SOLID
 70
     1
 71
     1
 91
        2
 92
        1
 93
        4
 72
     1
 10
1.3228757797033013
 20
40.3920138506901765
 11
1.364542446369968
 21
40.3920138506901765
 72
     1
 10
1.364542446369968
 20
40.3920138506901765
 11
1.364542446369968
 21
40.2670138506901765
 72
     1
 10
1.364542446369968
 20
40.2670138506901765
 11
1.3228757797033013
 21
40.2670138506901765
 72
     1
 10
1.3228757797033013
 20
40.2670138506901765
 11
1.3228757797033013
 21
40.3920138506901765
 97
        3
330
13D
330
13E
330
13F
 92
        1
 93
        4
 72
     1
 10
3.8228757797033013
 20
40.3920138506901765
 11
3.7812091130366348
 21
40.3920138506901765
 72
     1
 10
3.7812091130366348
 20
40.3920138506901765
 11
3.7812091130366348
 21
40.2670138506901765
 72
     1
 10
3.7812091130366348
 20
40.2670138506901765
 11
3.8228757797033013
 21
40.2670138506901765
 72
     1
 10
3.8228757797033013
 20
40.2670138506901765
 11
3.8228757797033013
 21
40.3920138506901765
 97
        3
330
141
330
142
330
143
 75
     0
 76
     1
 98
        0
  0
LINE
  5
141
102
{ACAD_REACTORS
330
140
102
}
100
AcDbEntity
  8
BUILDING_ENVELOPE
  6
CONTINUOUS
 62
     7
100
AcDbLine
 10
3.822876
 20
40.392014
 30
0.0
 11
3.781209
 21
40.392014
 31
0.0
  0
LINE
  5
142
102
{ACAD_REACTORS
330
140
102
}
100
AcDbEntity
  8
BUILDING_ENVELOPE
  6
CONTINUOUS
 62
     7
100
AcDbLine
 10
3.781209
 20
40.392014
 30
0.0
 11
3.781209
 21
40.267014
 31
0.0
  0
LINE
  5
143
102
{ACAD_REACTORS
330
140
102
}
100
AcDbEntity
  8
BUILDING_ENVELOPE
  6
CONTINUOUS
 62
     7
100
AcDbLine
 10
3.781209
 20
40.267014
 30
0.0
 11
3.822876
 21
40.267014
 31
0.0
  0
LINE
  5
144
102
{ACAD_REACTORS
330
130
102
}
100
AcDbEntity
  8
BUILDING_ENVELOPE
  6
CONTINUOUS
 62
     7
100
AcDbLine
 10
1.156209
 20
40.183681
 30
0.0
 11
1.156209
 21
40.517014
 31
0.0
  0
LINE
  5
145
102
{ACAD_REACTORS
330
130
102
}
100
AcDbEntity
  8
BUILDING_ENVELOPE
  6
CONTINUOUS
 62
     7
100
AcDbLine
 10
3.989542
 20
40.183681
 30
0.0
 11
3.989542
 21
40.517014
 31
0.0
  0
ARC
  5
146
102
{ACAD_REACTORS
330
130
102
}
100
AcDbEntity
  8
BUILDING_ENVELOPE
  6
CONTINUOUS
 62
     7
100
AcDbCircle
 10
1.322876
 20
40.517014
 30
0.0
 40
2.5
100
AcDbArc
 50
0.0
 51
90.0
  0
LWPOLYLINE
  5
147
102
{ACAD_REACTORS
330
148
102
}
100
AcDbEntity
  8
BUILDING_ENVELOPE
  6
CONTINUOUS
 62
     7
100
AcDbPolyline
 90
        4
 70
     1
 10
1.447876
 20
43.017014
 10
1.447876
 20
40.517014
 10
1.322876
 20
40.517014
 10
1.322876
 20
43.017014
  0
HATCH
  5
148
102
{ACAD_REACTORS
330
130
102
}
100
AcDbEntity
  8
BUILDING_ENVELOPE
 62
     7
100
AcDbHatch
 10
0.0
 20
0.0
 30
0.0
210
0.0
220
0.0
230
1.0
  2
SOLID
 70
     1
 71
     1
 91
        1
 92
        3
 72
     0
 73
     1
 93
        4
 10
1.4478757797033013
 20
43.0170138506901836
 10
1.4478757797033013
 20
40.5170138506901765
 10
1.3228757797033013
 20
40.5170138506901765
 10
1.3228757797033013
 20
43.0170138506901836
 97
        1
330
147
 75
     0
 76
     1
 98
        0
  0
LWPOLYLINE
  5
14A
102
{ACAD_REACTORS
330
150
102
}
100
AcDbEntity
  8
BUILDING_ENVELOPE
  6
CONTINUOUS
 62
     7
100
AcDbPolyline
 90
        4
 70
     1
 10
19.895792
 20
28.411358
 10
17.062459
 20
28.411358
 10
17.062459
 20
28.760691
 10
19.895792
 20
28.760691
  0
LINE
  5
14B
102
{ACAD_REACTORS
330
150
102
}
100
AcDbEntity
  8
BUILDING_ENVELOPE
  6
CONTINUOUS
 62
     7
100
AcDbLine
 10
17.062459
 20
28.419358
 30
0.0
 11
17.062459
 21
28.752691
 31
0.0
  0
LINE
  5
14C
102
{ACAD_REACTORS
330
150
102
}
100
AcDbEntity
  8
BUILDING_ENVELOPE
  6
CONTINUOUS
 62
     7
100
AcDbLine
 10
17.062459
 20
28.752691
 30
0.0
 11
17.229126
 21
28.752691
 31
0.0
  0
LINE
  5
14D
102
{ACAD_REACTORS
330
150
102
}
100
AcDbEntity
  8
BUILDING_ENVELOPE
  6
CONTINUOUS
 62
     7
100
AcDbLine
 10
17.229126
 20
28.752691
 30
0.0
 11
17.229126
 21
28.627691
 31
0.0
  0
LINE
  5
14E
102
{ACAD_REACTORS
330
150
102
}
100
AcDbEntity
  8
BUILDING_ENVELOPE
  6
CONTINUOUS
 62
     7
100
AcDbLine
 10
17.229126
 20
28.502691
 30
0.0
 11
17.229126
 21
28.419358
 31
0.0
  0
LINE
  5
14F
102
{ACAD_REACTORS
330
150
102
}
100
AcDbEntity
  8
BUILDING_ENVELOPE
  6
CONTINUOUS
 62
     7
100
AcDbLine
 10
17.229126
 20
28.419358
 30
0.0
 11
17.062459
 21
28.419358
 31
0.0
  0
HATCH
  5
150
102
{ACAD_REACTORS
330
149
102
}
100
AcDbEntity
  8
BUILDING_ENVELOPE
 62
     7
100
AcDbHatch
 10
0.0
 20
0.0
 30
0.0
210
0.0
220
0.0
230
1.0
  2
SOLID
 70
     1
 71
     1
 91
        2
 92
        1
 93
        6
 72
     1
 10
17.062459089608133
 20
28.4193576400227883
 11
17.062459089608133
 21
28.752690973356124
 72
     1
 10
17.062459089608133
 20
28.752690973356124
 11
17.2291257562747973
 21
28.752690973356124
 72
     1
 10
17.2291257562747973
 20
28.752690973356124
 11
17.2291257562747973
 21
28.627690973356124
 72
     1
 10
17.2291257562747973
 20
28.627690973356124
 11
17.2291257562747973
 21
28.502690973356124
 72
     1
 10
17.2291257562747973
 20
28.502690973356124
 11
17.2291257562747973
 21
28.4193576400227883
 72
     1
 10
17.2291257562747973
 20
28.4193576400227883
 11
17.062459089608133
 21
28.4193576400227883
 97
        6
330
14A
330
14B
330
14C
330
14D
330
14E
330
14F
 92
        1
 93
        6
 72
     1
 10
19.8957924229414651
 20
28.4193576400227883
 11
19.8957924229414651
 21
28.752690973356124
 72
     1
 10
19.8957924229414651
 20
28.752690973356124
 11
19.7291257562747973
 21
28.752690973356124
 72
     1
 10
19.7291257562747973
 20
28.752690973356124
 11
19.7291257562747973
 21
28.627690973356124
 72
     1
 10
19.7291257562747973
 20
28.627690973356124
 11
19.7291257562747973
 21
28.502690973356124
 72
     1
 10
19.7291257562747973
 20
28.502690973356124
 11
19.7291257562747973
 21
28.4193576400227883
 72
     1
 10
19.7291257562747973
 20
28.4193576400227883
 11
19.8957924229414651
 21
28.4193576400227883
 97
        5
330
151
330
152
330
153
330
154
330
155
 75
     0
 76
     1
 98
        0
  0
LINE
  5
151
102
{ACAD_REACTORS
330
150
102
}
100
AcDbEntity
  8
BUILDING_ENVELOPE
  6
CONTINUOUS
 62
     7
100
AcDbLine
 10
19.895792
 20
28.419358
 30
0.0
 11
19.895792
 21
28.752691
 31
0.0
  0
LINE
  5
152
102
{ACAD_REACTORS
330
150
102
}
100
AcDbEntity
  8
BUILDING_ENVELOPE
  6
CONTINUOUS
 62
     7
100
AcDbLine
 10
19.895792
 20
28.752691
 30
0.0
 11
19.729126
 21
28.752691
 31
0.0
  0
LINE
  5
153
102
{ACAD_REACTORS
330
150
102
}
100
AcDbEntity
  8
BUILDING_ENVELOPE
  6
CONTINUOUS
 62
     7
100
AcDbLine
 10
19.729126
 20
28.752691
 30
0.0
 11
19.729126
 21
28.627691
 31
0.0
  0
LINE
  5
154
102
{ACAD_REACTORS
330
150
102
}
100
AcDbEntity
  8
BUILDING_ENVELOPE
  6
CONTINUOUS
 62
     7
100
AcDbLine
 10
19.729126
 20
28.502691
 30
0.0
 11
19.729126
 21
28.419358
 31
0.0
  0
LINE
  5
155
102
{ACAD_REACTORS
330
150
102
}
100
AcDbEntity
  8
BUILDING_ENVELOPE
  6
CONTINUOUS
 62
     7
100
AcDbLine
 10
19.729126
 20
28.419358
 30
0.0
 11
19.895792
 21
28.419358
 31
0.0
  0
LINE
  5
156
102
{ACAD_REACTORS
330
159
102
}
100
AcDbEntity
  8
BUILDING_ENVELOPE
  6
CONTINUOUS
 62
     7
100
AcDbLine
 10
17.229126
 20
28.627691
 30
0.0
 11
17.270792
 21
28.627691
 31
0.0
  0
LINE
  5
157
102
{ACAD_REACTORS
330
159
102
}
100
AcDbEntity
  8
BUILDING_ENVELOPE
  6
CONTINUOUS
 62
     7
100
AcDbLine
 10
17.270792
 20
28.627691
 30
0.0
 11
17.270792
 21
28.502691
 31
0.0
  0
LINE
  5
158
102
{ACAD_REACTORS
330
159
102
}
100
AcDbEntity
  8
BUILDING_ENVELOPE
  6
CONTINUOUS
 62
     7
100
AcDbLine
 10
17.270792
 20
28.502691
 30
0.0
 11
17.229126
 21
28.502691
 31
0.0
  0
HATCH
  5
159
102
{ACAD_REACTORS
330
149
102
}
100
AcDbEntity
  8
BUILDING_ENVELOPE
 62
     7
100
AcDbHatch
 10
0.0
 20
0.0
 30
0.0
210
0.0
220
0.0
230
1.0
  2
SOLID
 70
     1
 71
     1
 91
        2
 92
        1
 93
        4
 72
     1
 10
17.2291257562747973
 20
28.627690973356124
 11
17.2707924229414651
 21
28.627690973356124
 72
     1
 10
17.2707924229414651
 20
28.627690973356124
 11
17.2707924229414651
 21
28.502690973356124
 72
     1
 10
17.2707924229414651
 20
28.502690973356124
 11
17.2291257562747973
 21
28.502690973356124
 72
     1
 10
17.2291257562747973
 20
28.502690973356124
 11
17.2291257562747973
 21
28.627690973356124
 97
        3
330
156
330
157
330
158
 92
        1
 93
        4
 72
     1
 10
19.7291257562747973
 20
28.627690973356124
 11
19.687459089608133
 21
28.627690973356124
 72
     1
 10
19.687459089608133
 20
28.627690973356124
 11
19.687459089608133
 21
28.502690973356124
 72
     1
 10
19.687459089608133
 20
28.502690973356124
 11
19.7291257562747973
 21
28.502690973356124
 72
     1
 10
19.7291257562747973
 20
28.502690973356124
 11
19.7291257562747973
 21
28.627690973356124
 97
        3
330
15A
330
15B
330
15C
 75
     0
 76
     1
 98
        0
  0
LINE
  5
15A
102
{ACAD_REACTORS
330
159
102
}
100
AcDbEntity
  8
BUILDING_ENVELOPE
  6
CONTINUOUS
 62
     7
100
AcDbLine
 10
19.729126
 20
28.627691
 30
0.0
 11
19.687459
 21
28.627691
 31
0.0
  0
LINE
  5
15B
102
{ACAD_REACTORS
330
159
102
}
100
AcDbEntity
  8
BUILDING_ENVELOPE
  6
CONTINUOUS
 62
     7
100
AcDbLine
 10
19.687459
 20
28.627691
 30
0.0
 11
19.687459
 21
28.502691
 31
0.0
  0
LINE
  5
15C
102
{ACAD_REACTORS
330
159
102
}
100
AcDbEntity
  8
BUILDING_ENVELOPE
  6
CONTINUOUS
 62
     7
100
AcDbLine
 10
19.687459
 20
28.502691
 30
0.0
 11
19.729126
 21
28.502691
 31
0.0
  0
LINE
  5
15D
102
{ACAD_REACTORS
330
149
102
}
100
AcDbEntity
  8
BUILDING_ENVELOPE
  6
CONTINUOUS
 62
     7
100
AcDbLine
 10
17.062459
 20
28.419358
 30
0.0
 11
17.062459
 21
28.752691
 31
0.0
  0
LINE
  5
15E
102
{ACAD_REACTORS
330
149
102
}
100
AcDbEntity
  8
BUILDING_ENVELOPE
  6
CONTINUOUS
 62
     7
100
AcDbLine
 10
19.895792
 20
28.419358
 30
0.0
 11
19.895792
 21
28.752691
 31
0.0
  0
ARC
  5
15F
102
{ACAD_REACTORS
330
149
102
}
100
AcDbEntity
  8
BUILDING_ENVELOPE
  6
CONTINUOUS
 62
     7
100
AcDbCircle
 10
17.229126
 20
28.752691
 30
0.0
 40
2.5
100
AcDbArc
 50
0.0
 51
90.0
  0
LWPOLYLINE
  5
160
102
{ACAD_REACTORS
330
161
102
}
100
AcDbEntity
  8
BUILDING_ENVELOPE
  6
CONTINUOUS
 62
     7
100
AcDbPolyline
 90
        4
 70
     1
 10
17.354126
 20
31.252691
 10
17.354126
 20
28.752691
 10
17.229126
 20
28.752691
 10
17.229126
 20
31.252691
  0
HATCH
  5
161
102
{ACAD_REACTORS
330
149
102
}
100
AcDbEntity
  8
BUILDING_ENVELOPE
 62
     7
100
AcDbHatch
 10
0.0
 20
0.0
 30
0.0
210
0.0
220
0.0
230
1.0
  2
SOLID
 70
     1
 71
     1
 91
        1
 92
        3
 72
     0
 73
     1
 93
        4
 10
17.3541257562747973
 20
31.252690973356124
 10
17.3541257562747973
 20
28.752690973356124
 10
17.2291257562747973
 20
28.752690973356124
 10
17.2291257562747973
 20
31.252690973356124
 97
        1
330
160
 75
     0
 76
     1
 98
        0
  0
LWPOLYLINE
  5
163
102
{ACAD_REACTORS
330
169
102
}
100
AcDbEntity
  8
BUILDING_ENVELOPE
  6
CONTINUOUS
 62
     7
100
AcDbPolyline
 90
        4
 70
     1
 10
10.697876
 20
28.411358
 10
13.531209
 20
28.411358
 10
13.531209
 20
28.760691
 10
10.697876
 20
28.760691
  0
LINE
  5
164
102
{ACAD_REACTORS
330
169
102
}
100
AcDbEntity
  8
BUILDING_ENVELOPE
  6
CONTINUOUS
 62
     7
100
AcDbLine
 10
13.531209
 20
28.419358
 30
0.0
 11
13.531209
 21
28.752691
 31
0.0
  0
LINE
  5
165
102
{ACAD_REACTORS
330
169
102
}
100
AcDbEntity
  8
BUILDING_ENVELOPE
  6
CONTINUOUS
 62
     7
100
AcDbLine
 10
13.531209
 20
28.752691
 30
0.0
 11
13.364542
 21
28.752691
 31
0.0
  0
LINE
  5
166
102
{ACAD_REACTORS
330
169
102
}
100
AcDbEntity
  8
BUILDING_ENVELOPE
  6
CONTINUOUS
 62
     7
100
AcDbLine
 10
13.364542
 20
28.752691
 30
0.0
 11
13.364542
 21
28.627691
 31
0.0
  0
LINE
  5
167
102
{ACAD_REACTORS
330
169
102
}
100
AcDbEntity
  8
BUILDING_ENVELOPE
  6
CONTINUOUS
 62
     7
100
AcDbLine
 10
13.364542
 20
28.502691
 30
0.0
 11
13.364542
 21
28.419358
 31
0.0
  0
LINE
  5
168
102
{ACAD_REACTORS
330
169
102
}
100
AcDbEntity
  8
BUILDING_ENVELOPE
  6
CONTINUOUS
 62
     7
100
AcDbLine
 10
13.364542
 20
28.419358
 30
0.0
 11
13.531209
 21
28.419358
 31
0.0
  0
HATCH
  5
169
102
{ACAD_REACTORS
330
162
102
}
100
AcDbEntity
  8
BUILDING_ENVELOPE
 62
     7
100
AcDbHatch
 10
0.0
 20
0.0
 30
0.0
210
0.0
220
0.0
230
1.0
  2
SOLID
 70
     1
 71
     1
 91
        2
 92
        1
 93
        6
 72
     1
 10
13.5312091101262162
 20
28.4193576400227741
 11
13.5312091101262162
 21
28.7526909733561098
 72
     1
 10
13.5312091101262162
 20
28.7526909733561098
 11
13.3645424434595501
 21
28.7526909733561098
 72
     1
 10
13.3645424434595501
 20
28.7526909733561098
 11
13.3645424434595501
 21
28.6276909733561098
 72
     1
 10
13.3645424434595501
 20
28.6276909733561098
 11
13.3645424434595501
 21
28.5026909733561098
 72
     1
 10
13.3645424434595501
 20
28.5026909733561098
 11
13.3645424434595501
 21
28.4193576400227741
 72
     1
 10
13.3645424434595501
 20
28.4193576400227741
 11
13.5312091101262162
 21
28.4193576400227741
 97
        6
330
163
330
164
330
165
330
166
330
167
330
168
 92
        1
 93
        6
 72
     1
 10
10.697875776792884
 20
28.4193576400227741
 11
10.697875776792884
 21
28.7526909733561098
 72
     1
 10
10.697875776792884
 20
28.7526909733561098
 11
10.8645424434595501
 21
28.7526909733561098
 72
     1
 10
10.8645424434595501
 20
28.7526909733561098
 11
10.8645424434595501
 21
28.6276909733561098
 72
     1
 10
10.8645424434595501
 20
28.6276909733561098
 11
10.8645424434595501
 21
28.5026909733561098
 72
     1
 10
10.8645424434595501
 20
28.5026909733561098
 11
10.8645424434595501
 21
28.4193576400227741
 72
     1
 10
10.8645424434595501
 20
28.4193576400227741
 11
10.697875776792884
 21
28.4193576400227741
 97
        5
330
16A
330
16B
330
16C
330
16D
330
16E
 75
     0
 76
     1
 98
        0
  0
LINE
  5
16A
102
{ACAD_REACTORS
330
169
102
}
100
AcDbEntity
  8
BUILDING_ENVELOPE
  6
CONTINUOUS
 62
     7
100
AcDbLine
 10
10.697876
 20
28.419358
 30
0.0
 11
10.697876
 21
28.752691
 31
0.0
  0
LINE
  5
16B
102
{ACAD_REACTORS
330
169
102
}
100
AcDbEntity
  8
BUILDING_ENVELOPE
  6
CONTINUOUS
 62
     7
100
AcDbLine
 10
10.697876
 20
28.752691
 30
0.0
 11
10.864542
 21
28.752691
 31
0.0
  0
LINE
  5
16C
102
{ACAD_REACTORS
330
169
102
}
100
AcDbEntity
  8
BUILDING_ENVELOPE
  6
CONTINUOUS
 62
     7
100
AcDbLine
 10
10.864542
 20
28.752691
 30
0.0
 11
10.864542
 21
28.627691
 31
0.0
  0
LINE
  5
16D
102
{ACAD_REACTORS
330
169
102
}
100
AcDbEntity
  8
BUILDING_ENVELOPE
  6
CONTINUOUS
 62
     7
100
AcDbLine
 10
10.864542
 20
28.502691
 30
0.0
 11
10.864542
 21
28.419358
 31
0.0
  0
LINE
  5
16E
102
{ACAD_REACTORS
330
169
102
}
100
AcDbEntity
  8
BUILDING_ENVELOPE
  6
CONTINUOUS
 62
     7
100
AcDbLine
 10
10.864542
 20
28.419358
 30
0.0
 11
10.697876
 21
28.419358
 31
0.0
  0
LINE
  5
16F
102
{ACAD_REACTORS
330
172
102
}
100
AcDbEntity
  8
BUILDING_ENVELOPE
  6
CONTINUOUS
 62
     7
100
AcDbLine
 10
13.364542
 20
28.627691
 30
0.0
 11
13.322876
 21
28.627691
 31
0.0
  0
LINE
  5
170
102
{ACAD_REACTORS
330
172
102
}
100
AcDbEntity
  8
BUILDING_ENVELOPE
  6
CONTINUOUS
 62
     7
100
AcDbLine
 10
13.322876
 20
28.627691
 30
0.0
 11
13.322876
 21
28.502691
 31
0.0
  0
LINE
  5
171
102
{ACAD_REACTORS
330
172
102
}
100
AcDbEntity
  8
BUILDING_ENVELOPE
  6
CONTINUOUS
 62
     7
100
AcDbLine
 10
13.322876
 20
28.502691
 30
0.0
 11
13.364542
 21
28.502691
 31
0.0
  0
HATCH
  5
172
102
{ACAD_REACTORS
330
162
102
}
100
AcDbEntity
  8
BUILDING_ENVELOPE
 62
     7
100
AcDbHatch
 10
0.0
 20
0.0
 30
0.0
210
0.0
220
0.0
230
1.0
  2
SOLID
 70
     1
 71
     1
 91
        2
 92
        1
 93
        4
 72
     1
 10
13.3645424434595501
 20
28.6276909733561098
 11
13.322875776792884
 21
28.6276909733561098
 72
     1
 10
13.322875776792884
 20
28.6276909733561098
 11
13.322875776792884
 21
28.5026909733561098
 72
     1
 10
13.322875776792884
 20
28.5026909733561098
 11
13.3645424434595501
 21
28.5026909733561098
 72
     1
 10
13.3645424434595501
 20
28.5026909733561098
 11
13.3645424434595501
 21
28.6276909733561098
 97
        3
330
16F
330
170
330
171
 92
        1
 93
        4
 72
     1
 10
10.8645424434595501
 20
28.6276909733561098
 11
10.9062091101262162
 21
28.6276909733561098
 72
     1
 10
10.9062091101262162
 20
28.6276909733561098
 11
10.9062091101262162
 21
28.5026909733561098
 72
     1
 10
10.9062091101262162
 20
28.5026909733561098
 11
10.8645424434595501
 21
28.5026909733561098
 72
     1
 10
10.8645424434595501
 20
28.5026909733561098
 11
10.8645424434595501
 21
28.6276909733561098
 97
        3
330
173
330
174
330
175
 75
     0
 76
     1
 98
        0
  0
LINE
  5
173
102
{ACAD_REACTORS
330
172
102
}
100
AcDbEntity
  8
BUILDING_ENVELOPE
  6
CONTINUOUS
 62
     7
100
AcDbLine
 10
10.864542
 20
28.627691
 30
0.0
 11
10.906209
 21
28.627691
 31
0.0
  0
LINE
  5
174
102
{ACAD_REACTORS
330
172
102
}
100
AcDbEntity
  8
BUILDING_ENVELOPE
  6
CONTINUOUS
 62
     7
100
AcDbLine
 10
10.906209
 20
28.627691
 30
0.0
 11
10.906209
 21
28.502691
 31
0.0
  0
LINE
  5
175
102
{ACAD_REACTORS
330
172
102
}
100
AcDbEntity
  8
BUILDING_ENVELOPE
  6
CONTINUOUS
 62
     7
100
AcDbLine
 10
10.906209
 20
28.502691
 30
0.0
 11
10.864542
 21
28.502691
 31
0.0
  0
LINE
  5
176
102
{ACAD_REACTORS
330
162
102
}
100
AcDbEntity
  8
BUILDING_ENVELOPE
  6
CONTINUOUS
 62
     7
100
AcDbLine
 10
13.531209
 20
28.419358
 30
0.0
 11
13.531209
 21
28.752691
 31
0.0
  0
LINE
  5
177
102
{ACAD_REACTORS
330
162
102
}
100
AcDbEntity
  8
BUILDING_ENVELOPE
  6
CONTINUOUS
 62
     7
100
AcDbLine
 10
10.697876
 20
28.419358
 30
0.0
 11
10.697876
 21
28.752691
 31
0.0
  0
ARC
  5
178
102
{ACAD_REACTORS
330
162
102
}
100
AcDbEntity
  8
BUILDING_ENVELOPE
  6
CONTINUOUS
 62
     7
100
AcDbCircle
 10
13.364542
 20
28.752691
 30
0.0
 40
2.5
100
AcDbArc
 50
90.0
 51
180.0
  0
LWPOLYLINE
  5
179
102
{ACAD_REACTORS
330
17A
102
}
100
AcDbEntity
  8
BUILDING_ENVELOPE
  6
CONTINUOUS
 62
     7
100
AcDbPolyline
 90
        4
 70
     1
 10
13.239542
 20
31.252691
 10
13.239542
 20
28.752691
 10
13.364542
 20
28.752691
 10
13.364542
 20
31.252691
  0
HATCH
  5
17A
102
{ACAD_REACTORS
330
162
102
}
100
AcDbEntity
  8
BUILDING_ENVELOPE
 62
     7
100
AcDbHatch
 10
0.0
 20
0.0
 30
0.0
210
0.0
220
0.0
230
1.0
  2
SOLID
 70
     1
 71
     1
 91
        1
 92
        3
 72
     0
 73
     1
 93
        4
 10
13.2395424434595501
 20
31.2526909733561098
 10
13.2395424434595501
 20
28.7526909733561098
 10
13.3645424434595501
 20
28.7526909733561098
 10
13.3645424434595501
 20
31.2526909733561098
 97
        1
330
179
 75
     0
 76
     1
 98
        0
  0
LWPOLYLINE
  5
17C
102
{ACAD_REACTORS
330
182
102
}
100
AcDbEntity
  8
BUILDING_ENVELOPE
  6
CONTINUOUS
 62
     7
100
AcDbPolyline
 90
        4
 70
     1
 10
19.848917
 20
40.525014
 10
17.015584
 20
40.525014
 10
17.015584
 20
40.175681
 10
19.848917
 20
40.175681
  0
LINE
  5
17D
102
{ACAD_REACTORS
330
182
102
}
100
AcDbEntity
  8
BUILDING_ENVELOPE
  6
CONTINUOUS
 62
     7
100
AcDbLine
 10
17.015584
 20
40.517014
 30
0.0
 11
17.015584
 21
40.183681
 31
0.0
  0
LINE
  5
17E
102
{ACAD_REACTORS
330
182
102
}
100
AcDbEntity
  8
BUILDING_ENVELOPE
  6
CONTINUOUS
 62
     7
100
AcDbLine
 10
17.015584
 20
40.183681
 30
0.0
 11
17.182251
 21
40.183681
 31
0.0
  0
LINE
  5
17F
102
{ACAD_REACTORS
330
182
102
}
100
AcDbEntity
  8
BUILDING_ENVELOPE
  6
CONTINUOUS
 62
     7
100
AcDbLine
 10
17.182251
 20
40.183681
 30
0.0
 11
17.182251
 21
40.308681
 31
0.0
  0
LINE
  5
180
102
{ACAD_REACTORS
330
182
102
}
100
AcDbEntity
  8
BUILDING_ENVELOPE
  6
CONTINUOUS
 62
     7
100
AcDbLine
 10
17.182251
 20
40.433681
 30
0.0
 11
17.182251
 21
40.517014
 31
0.0
  0
LINE
  5
181
102
{ACAD_REACTORS
330
182
102
}
100
AcDbEntity
  8
BUILDING_ENVELOPE
  6
CONTINUOUS
 62
     7
100
AcDbLine
 10
17.182251
 20
40.517014
 30
0.0
 11
17.015584
 21
40.517014
 31
0.0
  0
HATCH
  5
182
102
{ACAD_REACTORS
330
17B
102
}
100
AcDbEntity
  8
BUILDING_ENVELOPE
 62
     7
100
AcDbHatch
 10
0.0
 20
0.0
 30
0.0
210
0.0
220
0.0
230
1.0
  2
SOLID
 70
     1
 71
     1
 91
        2
 92
        1
 93
        6
 72
     1
 10
17.0155840982663804
 20
40.5170138506902191
 11
17.0155840982663804
 21
40.1836805173568905
 72
     1
 10
17.0155840982663804
 20
40.1836805173568905
 11
17.1822507649330483
 21
40.1836805173568905
 72
     1
 10
17.1822507649330483
 20
40.1836805173568905
 11
17.1822507649330483
 21
40.3086805173568905
 72
     1
 10
17.1822507649330483
 20
40.3086805173568905
 11
17.1822507649330483
 21
40.4336805173568905
 72
     1
 10
17.1822507649330483
 20
40.4336805173568905
 11
17.1822507649330483
 21
40.5170138506902191
 72
     1
 10
17.1822507649330483
 20
40.5170138506902191
 11
17.0155840982663804
 21
40.5170138506902191
 97
        6
330
17C
330
17D
330
17E
330
17F
330
180
330
181
 92
        1
 93
        6
 72
     1
 10
19.8489174315997161
 20
40.5170138506902191
 11
19.8489174315997161
 21
40.1836805173568905
 72
     1
 10
19.8489174315997161
 20
40.1836805173568905
 11
19.6822507649330483
 21
40.1836805173568905
 72
     1
 10
19.6822507649330483
 20
40.1836805173568905
 11
19.6822507649330483
 21
40.3086805173568905
 72
     1
 10
19.6822507649330483
 20
40.3086805173568905
 11
19.6822507649330483
 21
40.4336805173568905
 72
     1
 10
19.6822507649330483
 20
40.4336805173568905
 11
19.6822507649330483
 21
40.5170138506902191
 72
     1
 10
19.6822507649330483
 20
40.5170138506902191
 11
19.8489174315997161
 21
40.5170138506902191
 97
        5
330
183
330
184
330
185
330
186
330
187
 75
     0
 76
     1
 98
        0
  0
LINE
  5
183
102
{ACAD_REACTORS
330
182
102
}
100
AcDbEntity
  8
BUILDING_ENVELOPE
  6
CONTINUOUS
 62
     7
100
AcDbLine
 10
19.848917
 20
40.517014
 30
0.0
 11
19.848917
 21
40.183681
 31
0.0
  0
LINE
  5
184
102
{ACAD_REACTORS
330
182
102
}
100
AcDbEntity
  8
BUILDING_ENVELOPE
  6
CONTINUOUS
 62
     7
100
AcDbLine
 10
19.848917
 20
40.183681
 30
0.0
 11
19.682251
 21
40.183681
 31
0.0
  0
LINE
  5
185
102
{ACAD_REACTORS
330
182
102
}
100
AcDbEntity
  8
BUILDING_ENVELOPE
  6
CONTINUOUS
 62
     7
100
AcDbLine
 10
19.682251
 20
40.183681
 30
0.0
 11
19.682251
 21
40.308681
 31
0.0
  0
LINE
  5
186
102
{ACAD_REACTORS
330
182
102
}
100
AcDbEntity
  8
BUILDING_ENVELOPE
  6
CONTINUOUS
 62
     7
100
AcDbLine
 10
19.682251
 20
40.433681
 30
0.0
 11
19.682251
 21
40.517014
 31
0.0
  0
LINE
  5
187
102
{ACAD_REACTORS
330
182
102
}
100
AcDbEntity
  8
BUILDING_ENVELOPE
  6
CONTINUOUS
 62
     7
100
AcDbLine
 10
19.682251
 20
40.517014
 30
0.0
 11
19.848917
 21
40.517014
 31
0.0
  0
LINE
  5
188
102
{ACAD_REACTORS
330
18B
102
}
100
AcDbEntity
  8
BUILDING_ENVELOPE
  6
CONTINUOUS
 62
     7
100
AcDbLine
 10
17.182251
 20
40.308681
 30
0.0
 11
17.223917
 21
40.308681
 31
0.0
  0
LINE
  5
189
102
{ACAD_REACTORS
330
18B
102
}
100
AcDbEntity
  8
BUILDING_ENVELOPE
  6
CONTINUOUS
 62
     7
100
AcDbLine
 10
17.223917
 20
40.308681
 30
0.0
 11
17.223917
 21
40.433681
 31
0.0
  0
LINE
  5
18A
102
{ACAD_REACTORS
330
18B
102
}
100
AcDbEntity
  8
BUILDING_ENVELOPE
  6
CONTINUOUS
 62
     7
100
AcDbLine
 10
17.223917
 20
40.433681
 30
0.0
 11
17.182251
 21
40.433681
 31
0.0
  0
HATCH
  5
18B
102
{ACAD_REACTORS
330
17B
102
}
100
AcDbEntity
  8
BUILDING_ENVELOPE
 62
     7
100
AcDbHatch
 10
0.0
 20
0.0
 30
0.0
210
0.0
220
0.0
230
1.0
  2
SOLID
 70
     1
 71
     1
 91
        2
 92
        1
 93
        4
 72
     1
 10
17.1822507649330483
 20
40.3086805173568905
 11
17.2239174315997161
 21
40.3086805173568905
 72
     1
 10
17.2239174315997161
 20
40.3086805173568905
 11
17.2239174315997161
 21
40.4336805173568905
 72
     1
 10
17.2239174315997161
 20
40.4336805173568905
 11
17.1822507649330483
 21
40.4336805173568905
 72
     1
 10
17.1822507649330483
 20
40.4336805173568905
 11
17.1822507649330483
 21
40.3086805173568905
 97
        3
330
188
330
189
330
18A
 92
        1
 93
        4
 72
     1
 10
19.6822507649330483
 20
40.3086805173568905
 11
19.6405840982663804
 21
40.3086805173568905
 72
     1
 10
19.6405840982663804
 20
40.3086805173568905
 11
19.6405840982663804
 21
40.4336805173568905
 72
     1
 10
19.6405840982663804
 20
40.4336805173568905
 11
19.6822507649330483
 21
40.4336805173568905
 72
     1
 10
19.6822507649330483
 20
40.4336805173568905
 11
19.6822507649330483
 21
40.3086805173568905
 97
        3
330
18C
330
18D
330
18E
 75
     0
 76
     1
 98
        0
  0
LINE
  5
18C
102
{ACAD_REACTORS
330
18B
102
}
100
AcDbEntity
  8
BUILDING_ENVELOPE
  6
CONTINUOUS
 62
     7
100
AcDbLine
 10
19.682251
 20
40.308681
 30
0.0
 11
19.640584
 21
40.308681
 31
0.0
  0
LINE
  5
18D
102
{ACAD_REACTORS
330
18B
102
}
100
AcDbEntity
  8
BUILDING_ENVELOPE
  6
CONTINUOUS
 62
     7
100
AcDbLine
 10
19.640584
 20
40.308681
 30
0.0
 11
19.640584
 21
40.433681
 31
0.0
  0
LINE
  5
18E
102
{ACAD_REACTORS
330
18B
102
}
100
AcDbEntity
  8
BUILDING_ENVELOPE
  6
CONTINUOUS
 62
     7
100
AcDbLine
 10
19.640584
 20
40.433681
 30
0.0
 11
19.682251
 21
40.433681
 31
0.0
  0
LINE
  5
18F
102
{ACAD_REACTORS
330
17B
102
}
100
AcDbEntity
  8
BUILDING_ENVELOPE
  6
CONTINUOUS
 62
     7
100
AcDbLine
 10
17.015584
 20
40.517014
 30
0.0
 11
17.015584
 21
40.183681
 31
0.0
  0
LINE
  5
190
102
{ACAD_REACTORS
330
17B
102
}
100
AcDbEntity
  8
BUILDING_ENVELOPE
  6
CONTINUOUS
 62
     7
100
AcDbLine
 10
19.848917
 20
40.517014
 30
0.0
 11
19.848917
 21
40.183681
 31
0.0
  0
ARC
  5
191
102
{ACAD_REACTORS
330
17B
102
}
100
AcDbEntity
  8
BUILDING_ENVELOPE
  6
CONTINUOUS
 62
     7
100
AcDbCircle
 10
17.182251
 20
40.183681
 30
0.0
 40
2.5
100
AcDbArc
 50
270.0
 51
0.0
  0
LWPOLYLINE
  5
192
102
{ACAD_REACTORS
330
193
102
}
100
AcDbEntity
  8
BUILDING_ENVELOPE
  6
CONTINUOUS
 62
     7
100
AcDbPolyline
 90
        4
 70
     1
 10
17.307251
 20
37.683681
 10
17.307251
 20
40.183681
 10
17.182251
 20
40.183681
 10
17.182251
 20
37.683681
  0
HATCH
  5
193
102
{ACAD_REACTORS
330
17B
102
}
100
AcDbEntity
  8
BUILDING_ENVELOPE
 62
     7
100
AcDbHatch
 10
0.0
 20
0.0
 30
0.0
210
0.0
220
0.0
230
1.0
  2
SOLID
 70
     1
 71
     1
 91
        1
 92
        3
 72
     0
 73
     1
 93
        4
 10
17.3072507649330483
 20
37.6836805173568905
 10
17.3072507649330483
 20
40.1836805173568905
 10
17.1822507649330483
 20
40.1836805173568905
 10
17.1822507649330483
 20
37.6836805173568905
 97
        1
330
192
 75
     0
 76
     1
 98
        0
  0
LWPOLYLINE
  5
196
102
{ACAD_REACTORS
330
197
102
}
100
AcDbEntity
  8
LANDING
  6
CONTINUOUS
 62
     7
100
AcDbPolyline
 90
        4
 70
     1
 10
25.02357
 20
16.753479
 10
20.869836
 20
16.753479
 10
20.869836
 20
12.684063
 10
25.02357
 20
12.684063
  0
HATCH
  5
197
102
{ACAD_REACTORS
330
194
102
}
100
AcDbEntity
  8
LANDING
 62
   134
100
AcDbHatch
 10
0.0
 20
0.0
 30
0.0
210
0.0
220
0.0
230
1.0
  2
SOLID
 70
     1
 71
     1
 91
        1
 92
        3
 72
     0
 73
     1
 93
        4
 10
25.0235702260395705
 20
16.7534788962474046
 10
20.8698358251246923
 20
16.7534788962474046
 10
20.8698358251246923
 20
12.6840625206934803
 10
25.0235702260395705
 20
12.6840625206934803
 97
        1
330
196
 75
     0
 76
     1
 98
        0
  0
LINE
  5
198
102
{ACAD_REACTORS
330
194
102
}
100
AcDbEntity
  8
LANDING
  6
CONTINUOUS
 62
     9
100
AcDbLine
 10
25.02357
 20
16.753479
 30
0.0
 11
22.956506
 21
12.684063
 31
0.0
  0
LINE
  5
199
102
{ACAD_REACTORS
330
194
102
}
100
AcDbEntity
  8
LANDING
  6
CONTINUOUS
 62
     9
100
AcDbLine
 10
25.02357
 20
16.753479
 30
0.0
 11
20.869836
 21
14.726747
 31
0.0
  0
LWPOLYLINE
  5
19A
102
{ACAD_REACTORS
330
19B
102
}
100
AcDbEntity
  8
BUILDING_ENVELOPE
  6
CONTINUOUS
 62
     9
100
AcDbPolyline
 90
        4
 70
     1
 10
24.981904
 20
12.760479
 10
24.981904
 20
11.876665
 10
20.749959
 20
11.876665
 10
20.749959
 20
12.760479
  0
HATCH
  5
19B
102
{ACAD_REACTORS
330
194
102
}
100
AcDbEntity
  8
BUILDING_ENVELOPE
 62
   134
100
AcDbHatch
 10
0.0
 20
0.0
 30
0.0
210
0.0
220
0.0
230
1.0
  2
SOLID
 70
     1
 71
     1
 91
       33
 92
        3
 72
     0
 73
     1
 93
        4
 10
24.9819035602524373
 20
12.7604789027721495
 10
24.9819035602524373
 20
11.8766648002080437
 10
20.7499586619435235
 20
11.8766648002080437
 10
20.7499586619435235
 20
12.7604789027721495
 97
        1
330
19A
 92
        3
 72
     0
 73
     1
 93
        4
 10
24.9819035602524373
 20
11.8766648002080437
 10
24.9819035602524373
 20
10.992850697643938
 10
20.7499586619435235
 20
10.992850697643938
 10
20.7499586619435235
 20
11.8766648002080437
 97
        1
330
19C
 92
        3
 72
     0
 73
     1
 93
        4
 10
24.9819035602524373
 20
10.992850697643938
 10
24.9819035602524373
 20
10.1090365950798322
 10
20.7499586619435235
 20
10.1090365950798322
 10
20.7499586619435235
 20
10.992850697643938
 97
        1
330
19D
 92
        3
 72
     0
 73
     1
 93
        4
 10
24.9819035602524373
 20
10.1090365950798322
 10
24.9819035602524373
 20
9.2252224925157265
 10
20.7499586619435235
 20
9.2252224925157265
 10
20.7499586619435235
 20
10.1090365950798322
 97
        1
330
19E
 92
        3
 72
     0
 73
     1
 93
        4
 10
24.9819035602524373
 20
9.2252224925157265
 10
24.9819035602524373
 20
8.3414083899516225
 10
20.7499586619435235
 20
8.3414083899516225
 10
20.7499586619435235
 20
9.2252224925157265
 97
        1
330
19F
 92
        3
 72
     0
 73
     1
 93
        4
 10
24.9819035602524373
 20
8.3414083899516225
 10
24.9819035602524373
 20
7.4575942873875167
 10
20.7499586619435235
 20
7.4575942873875167
 10
20.7499586619435235
 20
8.3414083899516225
 97
        1
330
1A0
 92
        3
 72
     0
 73
     1
 93
        4
 10
24.9819035602524373
 20
7.4575942873875167
 10
24.9819035602524373
 20
6.5737801848234128
 10
20.7499586619435235
 20
6.5737801848234128
 10
20.7499586619435235
 20
7.4575942873875167
 97
        1
330
1A1
 92
        3
 72
     0
 73
     1
 93
        4
 10
24.9819035602524373
 20
6.5737801848234128
 10
24.9819035602524373
 20
5.689966082259307
 10
20.7499586619435235
 20
5.689966082259307
 10
20.7499586619435235
 20
6.5737801848234128
 97
        1
330
1A2
 92
        3
 72
     0
 73
     1
 93
        4
 10
24.9819035602524373
 20
5.689966082259307
 10
24.9819035602524373
 20
4.8061519796952012
 10
20.7499586619435235
 20
4.8061519796952012
 10
20.7499586619435235
 20
5.689966082259307
 97
        1
330
1A3
 92
        3
 72
     0
 73
     1
 93
        4
 10
24.9819035602524373
 20
4.8061519796952012
 10
24.9819035602524373
 20
3.922337877131099
 10
20.7499586619435235
 20
3.922337877131099
 10
20.7499586619435235
 20
4.8061519796952012
 97
        1
330
1A4
 92
        3
 72
     0
 73
     1
 93
        4
 10
24.9819035602524373
 20
3.922337877131099
 10
24.9819035602524373
 20
3.0385237745669906
 10
20.7499586619435235
 20
3.0385237745669906
 10
20.7499586619435235
 20
3.922337877131099
 97
        1
330
1A5
 92
        3
 72
     0
 73
     1
 93
        4
 10
24.9819035602524373
 20
3.0385237745669906
 10
24.9819035602524373
 20
2.1547096720028827
 10
20.7499586619435235
 20
2.1547096720028827
 10
20.7499586619435235
 20
3.0385237745669906
 97
        1
330
1A6
 92
        3
 72
     0
 73
     1
 93
        4
 10
24.9819035602524373
 20
2.1547096720028827
 10
24.9819035602524373
 20
1.270895569438816
 10
20.7499586619435235
 20
1.270895569438816
 10
20.7499586619435235
 20
2.1547096720028827
 97
        1
330
1A7
 92
        0
 93
        0
 97
        0
 92
        0
 93
        0
 97
        0
 92
        0
 93
        0
 97
        0
 92
        0
 93
        0
 97
        0
 92
        0
 93
        0
 97
        0
 92
        0
 93
        0
 97
        0
 92
        0
 93
        0
 97
        0
 92
        0
 93
        0
 97
        0
 92
        0
 93
        0
 97
        0
 92
        0
 93
        0
 97
        0
 92
        0
 93
        0
 97
        0
 92
        0
 93
        0
 97
        0
 92
        0
 93
        0
 97
        0
 92
        0
 93
        0
 97
        0
 92
        0
 93
        0
 97
        0
 92
        0
 93
        0
 97
        0
 92
        0
 93
        0
 97
        0
 92
        0
 93
        0
 97
        0
 92
        0
 93
        0
 97
        0
 92
        0
 93
        0
 97
        0
 75
     0
 76
     1
 98
        0
  0
LWPOLYLINE
  5
19C
102
{ACAD_REACTORS
330
19B
102
}
100
AcDbEntity
  8
BUILDING_ENVELOPE
  6
CONTINUOUS
 62
     9
100
AcDbPolyline
 90
        4
 70
     1
 10
24.981904
 20
11.876665
 10
24.981904
 20
10.992851
 10
20.749959
 20
10.992851
 10
20.749959
 20
11.876665
  0
LWPOLYLINE
  5
19D
102
{ACAD_REACTORS
330
19B
102
}
100
AcDbEntity
  8
BUILDING_ENVELOPE
  6
CONTINUOUS
 62
     9
100
AcDbPolyline
 90
        4
 70
     1
 10
24.981904
 20
10.992851
 10
24.981904
 20
10.109037
 10
20.749959
 20
10.109037
 10
20.749959
 20
10.992851
  0
LWPOLYLINE
  5
19E
102
{ACAD_REACTORS
330
19B
102
}
100
AcDbEntity
  8
BUILDING_ENVELOPE
  6
CONTINUOUS
 62
     9
100
AcDbPolyline
 90
        4
 70
     1
 10
24.981904
 20
10.109037
 10
24.981904
 20
9.225222
 10
20.749959
 20
9.225222
 10
20.749959
 20
10.109037
  0
LWPOLYLINE
  5
19F
102
{ACAD_REACTORS
330
19B
102
}
100
AcDbEntity
  8
BUILDING_ENVELOPE
  6
CONTINUOUS
 62
     9
100
AcDbPolyline
 90
        4
 70
     1
 10
24.981904
 20
9.225222
 10
24.981904
 20
8.341408
 10
20.749959
 20
8.341408
 10
20.749959
 20
9.225222
  0
LWPOLYLINE
  5
1A0
102
{ACAD_REACTORS
330
19B
102
}
100
AcDbEntity
  8
BUILDING_ENVELOPE
  6
CONTINUOUS
 62
     9
100
AcDbPolyline
 90
        4
 70
     1
 10
24.981904
 20
8.341408
 10
24.981904
 20
7.457594
 10
20.749959
 20
7.457594
 10
20.749959
 20
8.341408
  0
LWPOLYLINE
  5
1A1
102
{ACAD_REACTORS
330
19B
102
}
100
AcDbEntity
  8
BUILDING_ENVELOPE
  6
CONTINUOUS
 62
     9
100
AcDbPolyline
 90
        4
 70
     1
 10
24.981904
 20
7.457594
 10
24.981904
 20
6.57378
 10
20.749959
 20
6.57378
 10
20.749959
 20
7.457594
  0
LWPOLYLINE
  5
1A2
102
{ACAD_REACTORS
330
19B
102
}
100
AcDbEntity
  8
BUILDING_ENVELOPE
  6
CONTINUOUS
 62
     9
100
AcDbPolyline
 90
        4
 70
     1
 10
24.981904
 20
6.57378
 10
24.981904
 20
5.689966
 10
20.749959
 20
5.689966
 10
20.749959
 20
6.57378
  0
LWPOLYLINE
  5
1A3
102
{ACAD_REACTORS
330
19B
102
}
100
AcDbEntity
  8
BUILDING_ENVELOPE
  6
CONTINUOUS
 62
     9
100
AcDbPolyline
 90
        4
 70
     1
 10
24.981904
 20
5.689966
 10
24.981904
 20
4.806152
 10
20.749959
 20
4.806152
 10
20.749959
 20
5.689966
  0
LWPOLYLINE
  5
1A4
102
{ACAD_REACTORS
330
19B
102
}
100
AcDbEntity
  8
BUILDING_ENVELOPE
  6
CONTINUOUS
 62
     9
100
AcDbPolyline
 90
        4
 70
     1
 10
24.981904
 20
4.806152
 10
24.981904
 20
3.922338
 10
20.749959
 20
3.922338
 10
20.749959
 20
4.806152
  0
LWPOLYLINE
  5
1A5
102
{ACAD_REACTORS
330
19B
102
}
100
AcDbEntity
  8
BUILDING_ENVELOPE
  6
CONTINUOUS
 62
     9
100
AcDbPolyline
 90
        4
 70
     1
 10
24.981904
 20
3.922338
 10
24.981904
 20
3.038524
 10
20.749959
 20
3.038524
 10
20.749959
 20
3.922338
  0
LWPOLYLINE
  5
1A6
102
{ACAD_REACTORS
330
19B
102
}
100
AcDbEntity
  8
BUILDING_ENVELOPE
  6
CONTINUOUS
 62
     9
100
AcDbPolyline
 90
        4
 70
     1
 10
24.981904
 20
3.038524
 10
24.981904
 20
2.15471
 10
20.749959
 20
2.15471
 10
20.749959
 20
3.038524
  0
LWPOLYLINE
  5
1A7
102
{ACAD_REACTORS
330
19B
102
}
100
AcDbEntity
  8
BUILDING_ENVELOPE
  6
CONTINUOUS
 62
     9
100
AcDbPolyline
 90
        4
 70
     1
 10
24.981904
 20
2.15471
 10
24.981904
 20
1.270896
 10
20.749959
 20
1.270896
 10
20.749959
 20
2.15471
  0
MTEXT
  5
1A8
100
AcDbEntity
  8
BUILDING_ENVELOPE
100
AcDbMText
 10
22.865931
 20
13.137112
 30
0.0
 40
0.333332
 41
0.753267
 71
     5
 72
     5
  1
\C7;\fCalibri|b0|i0|;\H0.33333206176758;UP
 11
0.0
 21
1.0
 31
0.0
  0
CIRCLE
  5
1AA
102
{ACAD_REACTORS
330
1AB
102
}
100
AcDbEntity
  8
STAIR
  6
CONTINUOUS
 62
     7
100
AcDbCircle
 10
22.865931
 20
12.760479
 30
0.0
 40
0.086804
  0
HATCH
  5
1AB
102
{ACAD_REACTORS
330
194
102
}
100
AcDbEntity
  8
STAIR
 62
   134
100
AcDbHatch
 10
0.0
 20
0.0
 30
0.0
210
0.0
220
0.0
230
1.0
  2
SOLID
 70
     1
 71
     1
 91
        1
 92
        1
 93
        1
 72
     2
 10
22.8659311110979786
 20
12.7604789027721495
 40
0.0868041666666667
 50
0.0
 51
360.0
 73
     1
 97
        1
330
1AA
 75
     0
 76
     1
 98
        0
  0
LINE
  5
1AC
102
{ACAD_REACTORS
330
194
102
}
100
AcDbEntity
  8
STAIR
  6
CONTINUOUS
 62
     7
100
AcDbLine
 10
22.865931
 20
12.760479
 30
0.0
 11
22.865931
 21
10.452279
 31
0.0
  0
LWPOLYLINE
  5
1AD
102
{ACAD_REACTORS
330
1AE
102
}
100
AcDbEntity
  8
STAIR
  6
CONTINUOUS
 62
     7
100
AcDbPolyline
 90
        3
 70
     1
 10
22.738456
 20
10.665191
 10
22.993406
 20
10.665191
 10
22.863197
 20
10.239366
  0
HATCH
  5
1AE
102
{ACAD_REACTORS
330
194
102
}
100
AcDbEntity
  8
STAIR
 62
   134
100
AcDbHatch
 10
0.0
 20
0.0
 30
0.0
210
0.0
220
0.0
230
1.0
  2
SOLID
 70
     1
 71
     1
 91
        1
 92
        3
 72
     0
 73
     1
 93
        3
 10
22.7384561110979782
 20
10.6651914027721482
 10
22.9934061110979755
 20
10.6651914027721482
 10
22.8631967137537515
 20
10.2393664027721485
 97
        1
330
1AD
 75
     0
 76
     1
 98
        0
  0
LWPOLYLINE
  5
1AF
102
{ACAD_REACTORS
330
1B0
102
}
100
AcDbEntity
  8
BUILDING_ENVELOPE
  6
CONTINUOUS
 62
     9
100
AcDbPolyline
 90
        4
 70
     1
 10
17.833292
 20
16.668056
 10
18.839836
 20
16.668056
 10
18.839836
 20
12.760479
 10
17.833292
 20
12.760479
  0
HATCH
  5
1B0
102
{ACAD_REACTORS
330
194
102
}
100
AcDbEntity
  8
BUILDING_ENVELOPE
 62
   134
100
AcDbHatch
 10
0.0
 20
0.0
 30
0.0
210
0.0
220
0.0
230
1.0
  2
SOLID
 70
     1
 71
     1
 91
       33
 92
        3
 72
     0
 73
     1
 93
        4
 10
17.8332924430231614
 20
16.6680555392574092
 10
18.8398357098183453
 20
16.6680555392574092
 10
18.8398357098183453
 20
12.7604789027721512
 10
17.8332924430231614
 20
12.7604789027721512
 97
        1
330
1AF
 92
        3
 72
     0
 73
     1
 93
        4
 10
18.8398357098183453
 20
16.6680555392574092
 10
19.8463789766135292
 20
16.6680555392574092
 10
19.8463789766135292
 20
12.7604789027721512
 10
18.8398357098183453
 20
12.7604789027721512
 97
        1
330
1B1
 92
        3
 72
     0
 73
     1
 93
        4
 10
19.8463789766135292
 20
16.6680555392574092
 10
20.8529222434087131
 20
16.6680555392574092
 10
20.8529222434087131
 20
12.7604789027721512
 10
19.8463789766135292
 20
12.7604789027721512
 97
        1
330
1B2
 92
        0
 93
        0
 97
        0
 92
        0
 93
        0
 97
        0
 92
        0
 93
        0
 97
        0
 92
        0
 93
        0
 97
        0
 92
        0
 93
        0
 97
        0
 92
        0
 93
        0
 97
        0
 92
        0
 93
        0
 97
        0
 92
        0
 93
        0
 97
        0
 92
        0
 93
        0
 97
        0
 92
        0
 93
        0
 97
        0
 92
        0
 93
        0
 97
        0
 92
        0
 93
        0
 97
        0
 92
        0
 93
        0
 97
        0
 92
        0
 93
        0
 97
        0
 92
        0
 93
        0
 97
        0
 92
        0
 93
        0
 97
        0
 92
        0
 93
        0
 97
        0
 92
        0
 93
        0
 97
        0
 92
        0
 93
        0
 97
        0
 92
        0
 93
        0
 97
        0
 92
        0
 93
        0
 97
        0
 92
        0
 93
        0
 97
        0
 92
        0
 93
        0
 97
        0
 92
        0
 93
        0
 97
        0
 92
        0
 93
        0
 97
        0
 92
        0
 93
        0
 97
        0
 92
        0
 93
        0
 97
        0
 92
        0
 93
        0
 97
        0
 92
        0
 93
        0
 97
        0
 92
        0
 93
        0
 97
        0
 75
     0
 76
     1
 98
        0
  0
LWPOLYLINE
  5
1B1
102
{ACAD_REACTORS
330
1B0
102
}
100
AcDbEntity
  8
BUILDING_ENVELOPE
  6
CONTINUOUS
 62
     9
100
AcDbPolyline
 90
        4
 70
     1
 10
18.839836
 20
16.668056
 10
19.846379
 20
16.668056
 10
19.846379
 20
12.760479
 10
18.839836
 20
12.760479
  0
LWPOLYLINE
  5
1B2
102
{ACAD_REACTORS
330
1B0
102
}
100
AcDbEntity
  8
BUILDING_ENVELOPE
  6
CONTINUOUS
 62
     9
100
AcDbPolyline
 90
        4
 70
     1
 10
19.846379
 20
16.668056
 10
20.852922
 20
16.668056
 10
20.852922
 20
12.760479
 10
19.846379
 20
12.760479
  0
MTEXT
  5
1B3
100
AcDbEntity
  8
BUILDING_ENVELOPE
100
AcDbMText
 10
17.456659
 20
14.714267
 30
0.0
 40
0.333332
 41
0.753267
 71
     5
 72
     5
  1
\C7;\fCalibri|b0|i0|;\H0.33333206176758;UP
  0
CIRCLE
  5
1B4
102
{ACAD_REACTORS
330
1B5
102
}
100
AcDbEntity
  8
STAIR
  6
CONTINUOUS
 62
     7
100
AcDbCircle
 10
17.833292
 20
14.714267
 30
0.0
 40
0.086804
  0
HATCH
  5
1B5
102
{ACAD_REACTORS
330
194
102
}
100
AcDbEntity
  8
STAIR
 62
   134
100
AcDbHatch
 10
0.0
 20
0.0
 30
0.0
210
0.0
220
0.0
230
1.0
  2
SOLID
 70
     1
 71
     1
 91
        1
 92
        1
 93
        1
 72
     2
 10
17.8332924430231614
 20
14.7142672210147811
 40
0.0868041666666667
 50
0.0
 51
360.0
 73
     1
 97
        1
330
1B4
 75
     0
 76
     1
 98
        0
  0
LINE
  5
1B6
102
{ACAD_REACTORS
330
194
102
}
100
AcDbEntity
  8
STAIR
  6
CONTINUOUS
 62
     7
100
AcDbLine
 10
17.833292
 20
14.714267
 30
0.0
 11
20.141492
 21
14.714267
 31
0.0
  0
LWPOLYLINE
  5
1B7
102
{ACAD_REACTORS
330
1B8
102
}
100
AcDbEntity
  8
STAIR
  6
CONTINUOUS
 62
     7
100
AcDbPolyline
 90
        3
 70
     1
 10
19.92858
 20
14.586792
 10
19.92858
 20
14.841742
 10
20.354405
 20
14.711533
  0
HATCH
  5
1B8
102
{ACAD_REACTORS
330
194
102
}
100
AcDbEntity
  8
STAIR
 62
   134
100
AcDbHatch
 10
0.0
 20
0.0
 30
0.0
210
0.0
220
0.0
230
1.0
  2
SOLID
 70
     1
 71
     1
 91
        1
 92
        3
 72
     0
 73
     1
 93
        3
 10
19.9285799430231592
 20
14.5867922210147789
 10
19.9285799430231592
 20
14.8417422210147798
 10
20.3544049430231624
 20
14.7115328236705523
 97
        1
330
1B7
 75
     0
 76
     1
 98
        0
  0
ENDSEC
  0
SECTION
  2
OBJECTS
  0
DICTIONARY
  5
C
100
AcDbDictionary
  3
ACAD_GROUP
350
D
  3
ACAD_MLINESTYLE
350
1B
  3
ACAD_SCALELIST
350
2C
  3
ACAD_VISUALSTYLE
350
51
  3
ACAD_MATERIAL
350
6A
  3
ACAD_TABLESTYLE
350
6E
  3
ACAD_MLEADERSTYLE
350
70
  0
DICTIONARY
  5
D
102
{ACAD_REACTORS
330
C
102
}
100
AcDbDictionary
  3
VISIOGROUP_0
350
74
  3
VISIOGROUP_1
350
79
  3
VISIOGROUP_2
350
7D
  3
VISIOGROUP_3
350
81
  3
VISIOGROUP_4
350
85
  3
VISIOGROUP_5
350
89
  3
VISIOGROUP_6
350
8D
  3
VISIOGROUP_7
350
91
  3
VISIOGROUP_8
350
97
  3
VISIOGROUP_9
350
9C
  3
VISIOGROUP_10
350
A1
  3
VISIOGROUP_11
350
A6
  3
VISIOGROUP_12
350
AF
  3
VISIOGROUP_13
350
B8
  3
VISIOGROUP_14
350
C1
  3
VISIOGROUP_15
350
C8
  3
VISIOGROUP_16
350
CF
  3
VISIOGROUP_17
350
DC
  3
VISIOGROUP_18
350
E5
  3
VISIOGROUP_19
350
101
  3
VISIOGROUP_20
350
11A
  3
VISIOGROUP_21
350
130
  3
VISIOGROUP_22
350
149
  3
VISIOGROUP_23
350
162
  3
VISIOGROUP_24
350
17B
  3
VISIOGROUP_25
350
194
  0
DICTIONARY
  5
1B
102
{ACAD_REACTORS
330
C
102
}
100
AcDbDictionary
  3
STANDARD
350
1C
  0
MLINESTYLE
  5
1C
102
{ACAD_REACTORS
330
1B
102
}
100
AcDbMlineStyle
  2
STANDARD
 70
     0
  3

 62
   256
 51
90.0
 52
90.0
 71
     2
 49
0.5
 62
   256
  6
BYLAYER
 49
-0.5
 62
   256
  6
BYLAYER
  0
DICTIONARY
  5
29
102
{ACAD_REACTORS
330
C
102
}
100
AcDbDictionary
  0
DICTIONARY
  5
2C
102
{ACAD_REACTORS
330
C
102
}
100
AcDbDictionary
  3
A0
350
2D
  3
A1
350
2E
  3
A2
350
2F
  3
A3
350
30
  3
A4
350
31
  3
A5
350
32
  3
A6
350
33
  3
A7
350
34
  3
A8
350
35
  3
A9
350
36
  3
B0
350
37
  3
B1
350
38
  3
B2
350
39
  3
B3
350
3A
  3
B4
350
3B
  3
B5
350
3C
  3
B6
350
3D
  3
B7
350
3E
  3
B8
350
3F
  3
B9
350
40
  3
C0
350
41
  3
C1
350
42
  3
C2
350
43
  3
C3
350
44
  3
C4
350
45
  3
C5
350
46
  3
C6
350
47
  3
C7
350
48
  3
C8
350
49
  3
C9
350
4A
  3
D0
350
4B
  3
D1
350
4C
  3
D2
350
4D
  0
DICTIONARY
  5
4E
102
{ACAD_REACTORS
330
C
102
}
100
AcDbDictionary
  3
MODEL
350
4F
  3
LAYOUT1
350
50
  0
DICTIONARY
  5
51
102
{ACAD_REACTORS
330
C
102
}
100
AcDbDictionary
  3
FLAT
350
52
  3
FLATWITHEDGES
350
53
  3
GOURAUD
350
54
  3
GOURAUDWITHEDGES
350
55
  3
2DWIREFRAME
350
56
  3
WIREFRAME
350
57
  3
HIDDEN
350
58
  3
BASIC
350
59
  3
REALISTIC
350
5A
  3
CONCEPTUAL
350
5B
  3
DIM
350
5C
  3
BRIGHTEN
350
5D
  3
THICKEN
350
5E
  3
LINEPATTERN
350
5F
  3
FACEPATTERN
350
60
  3
COLORCHANGE
350
61
  3
JITTEROFF
350
62
  3
OVERHANGOFF
350
63
  3
EDGECOLOROFF
350
64
  3
SHADES OF GRAY
350
65
  3
SKETCHY
350
66
  3
X-RAY
350
67
  3
SHADED WITH EDGES
350
68
  3
SHADED
350
69
  0
DICTIONARY
  5
6A
102
{ACAD_REACTORS
330
C
102
}
100
AcDbDictionary
  3
BYLAYER
350
6B
  3
BYBLOCK
350
6C
  3
GLOBAL
350
6D
  0
DICTIONARY
  5
6E
102
{ACAD_REACTORS
330
C
102
}
100
AcDbDictionary
  3
STANDARD
350
6F
  0
DICTIONARY
  5
70
102
{ACAD_REACTORS
330
C
102
}
100
AcDbDictionary
  3
STANDARD
350
71
  0
GROUP
  5
74
102
{ACAD_REACTORS
330
D
102
}
100
AcDbGroup
300
Group created by Visio.
 70
     0
 71
     1
340
76
340
77
  0
GROUP
  5
79
102
{ACAD_REACTORS
330
D
102
}
100
AcDbGroup
300
Group created by Visio.
 70
     0
 71
     1
340
7A
340
7B
  0
GROUP
  5
7D
102
{ACAD_REACTORS
330
D
102
}
100
AcDbGroup
300
Group created by Visio.
 70
     0
 71
     1
340
7E
340
7F
  0
GROUP
  5
81
102
{ACAD_REACTORS
330
D
102
}
100
AcDbGroup
300
Group created by Visio.
 70
     0
 71
     1
340
82
340
83
  0
GROUP
  5
85
102
{ACAD_REACTORS
330
D
102
}
100
AcDbGroup
300
Group created by Visio.
 70
     0
 71
     1
340
86
340
87
  0
GROUP
  5
89
102
{ACAD_REACTORS
330
D
102
}
100
AcDbGroup
300
Group created by Visio.
 70
     0
 71
     1
340
8A
340
8B
  0
GROUP
  5
8D
102
{ACAD_REACTORS
330
D
102
}
100
AcDbGroup
300
Group created by Visio.
 70
     0
 71
     1
340
8E
340
8F
  0
GROUP
  5
91
102
{ACAD_REACTORS
330
D
102
}
100
AcDbGroup
300
Group created by Visio.
 70
     0
 71
     1
340
93
340
94
340
95
340
96
  0
GROUP
  5
97
102
{ACAD_REACTORS
330
D
102
}
100
AcDbGroup
300
Group created by Visio.
 70
     0
 71
     1
340
98
340
99
340
9A
340
9B
  0
GROUP
  5
9C
102
{ACAD_REACTORS
330
D
102
}
100
AcDbGroup
300
Group created by Visio.
 70
     0
 71
     1
340
9D
340
9E
340
9F
340
A0
  0
GROUP
  5
A1
102
{ACAD_REACTORS
330
D
102
}
100
AcDbGroup
300
Group created by Visio.
 70
     0
 71
     1
340
A2
340
A3
340
A4
340
A5
  0
GROUP
  5
A6
102
{ACAD_REACTORS
330
D
102
}
100
AcDbGroup
300
Group created by Visio.
 70
     0
 71
     1
340
A7
340
A8
340
A9
340
AA
340
AB
340
AC
340
AD
340
AE
  0
GROUP
  5
AF
102
{ACAD_REACTORS
330
D
102
}
100
AcDbGroup
300
Group created by Visio.
 70
     0
 71
     1
340
B0
340
B1
340
B2
340
B3
340
B4
340
B5
340
B6
340
B7
  0
GROUP
  5
B8
102
{ACAD_REACTORS
330
D
102
}
100
AcDbGroup
300
Group created by Visio.
 70
     0
 71
     1
340
B9
340
BA
340
BB
340
BC
340
BD
340
BE
340
BF
340
C0
  0
GROUP
  5
C1
102
{ACAD_REACTORS
330
D
102
}
100
AcDbGroup
300
Group created by Visio.
 70
     0
 71
     1
340
C2
340
C3
340
C4
340
C5
340
C6
340
C7
  0
GROUP
  5
C8
102
{ACAD_REACTORS
330
D
102
}
100
AcDbGroup
300
Group created by Visio.
 70
     0
 71
     1
340
C9
340
CA
340
CB
340
CC
340
CD
340
CE
  0
GROUP
  5
CF
102
{ACAD_REACTORS
330
D
102
}
100
AcDbGroup
300
Group created by Visio.
 70
     0
 71
     1
340
D0
340
D1
340
D2
340
D3
340
D4
340
D5
340
D6
340
D7
340
D8
340
D9
340
DA
340
DB
  0
GROUP
  5
DC
102
{ACAD_REACTORS
330
D
102
}
100
AcDbGroup
300
Group created by Visio.
 70
     0
 71
     1
340
DD
340
DE
340
DF
340
E0
340
E1
340
E2
340
E3
340
E4
  0
GROUP
  5
E5
102
{ACAD_REACTORS
330
D
102
}
100
AcDbGroup
300
Group created by Visio.
 70
     0
 71
     1
340
E6
340
E7
340
E8
340
E9
340
EA
340
EB
340
ED
340
EE
340
EF
340
F0
340
F1
340
EC
340
F2
340
F3
340
F4
340
F6
340
F7
340
F8
340
F5
340
F9
340
FA
340
FB
340
FC
340
FD
340
FE
340
FF
340
100
  0
GROUP
  5
101
102
{ACAD_REACTORS
330
D
102
}
100
AcDbGroup
300
Group created by Visio.
 70
     0
 71
     1
340
102
340
103
340
104
340
105
340
106
340
107
340
109
340
10A
340
10B
340
10C
340
10D
340
108
340
10E
340
10F
340
110
340
112
340
113
340
114
340
111
340
115
340
116
340
117
340
118
340
119
  0
GROUP
  5
11A
102
{ACAD_REACTORS
330
D
102
}
100
AcDbGroup
300
Group created by Visio.
 70
     0
 71
     1
340
11B
340
11C
340
11D
340
11E
340
11F
340
120
340
122
340
123
340
124
340
125
340
126
340
121
340
127
340
129
340
128
340
12A
340
12B
340
12C
340
12D
340
12F
340
12E
  0
GROUP
  5
130
102
{ACAD_REACTORS
330
D
102
}
100
AcDbGroup
300
Group created by Visio.
 70
     0
 71
     1
340
131
340
132
340
133
340
134
340
135
340
136
340
138
340
139
340
13A
340
13B
340
13C
340
137
340
13D
340
13E
340
13F
340
141
340
142
340
143
340
140
340
144
340
145
340
146
340
147
340
148
  0
GROUP
  5
149
102
{ACAD_REACTORS
330
D
102
}
100
AcDbGroup
300
Group created by Visio.
 70
     0
 71
     1
340
14A
340
14B
340
14C
340
14D
340
14E
340
14F
340
151
340
152
340
153
340
154
340
155
340
150
340
156
340
157
340
158
340
15A
340
15B
340
15C
340
159
340
15D
340
15E
340
15F
340
160
340
161
  0
GROUP
  5
162
102
{ACAD_REACTORS
330
D
102
}
100
AcDbGroup
300
Group created by Visio.
 70
     0
 71
     1
340
163
340
164
340
165
340
166
340
167
340
168
340
16A
340
16B
340
16C
340
16D
340
16E
340
169
340
16F
340
170
340
171
340
173
340
174
340
175
340
172
340
176
340
177
340
178
340
179
340
17A
  0
GROUP
  5
17B
102
{ACAD_REACTORS
330
D
102
}
100
AcDbGroup
300
Group created by Visio.
 70
     0
 71
     1
340
17C
340
17D
340
17E
340
17F
340
180
340
181
340
183
340
184
340
185
340
186
340
187
340
182
340
188
340
189
340
18A
340
18C
340
18D
340
18E
340
18B
340
18F
340
190
340
191
340
192
340
193
  0
GROUP
  5
194
102
{ACAD_REACTORS
330
D
102
}
100
AcDbGroup
300
Group created by Visio.
 70
     0
 71
     1
340
196
340
197
340
198
340
199
340
19A
340
19C
340
19D
340
19E
340
19F
340
1A0
340
1A1
340
1A2
340
1A3
340
1A4
340
1A5
340
1A6
340
1A7
340
19B
340
1AA
340
1AB
340
1AC
340
1AD
340
1AE
340
1AF
340
1B1
340
1B2
340
1B0
340
1B4
340
1B5
340
1B6
340
1B7
340
1B8
  0
ENDSEC
  0
EOF
