  0
SECTION
  2
HEADER
  9
$ACADVER
  1
AC1014
  9
$ACADMAINTVER
 70
     0
  9
$DWGCODEPAGE
  3
ANSI_1252
  9
$INSBASE
 10
0.0
 20
0.0
 30
0.0
  9
$EXTMIN
 10
0.0
 20
0.0
 30
0.0
  9
$EXTMAX
 10
27.508533
 20
47.7752
 30
0.0
  9
$LIMMIN
 10
0.0
 20
0.0
  9
$LIMMAX
 10
12.0
 20
9.0
  9
$ORTHOMODE
 70
     0
  9
$REGENMODE
 70
     1
  9
$FILLMODE
 70
     0
  9
$QTEXTMODE
 70
     0
  9
$MIRRTEXT
 70
     1
  9
$DRAGMODE
 70
     2
  9
$LTSCALE
 40
1.0
  9
$OSMODE
 70
    37
  9
$ATTMODE
 70
     1
  9
$TEXTSIZE
 40
0.2
  9
$TRACEWID
 40
0.05
  9
$TEXTSTYLE
  7
STANDARD
  9
$CLAYER
  8
0
  9
$CELTYPE
  6
BYLAYER
  9
$CECOLOR
 62
   256
  9
$CELTSCALE
 40
1.0
  9
$DELOBJ
 70
     1
  9
$DISPSILH
 70
     0
  9
$DIMSCALE
 40
1.0
  9
$DIMASZ
 40
0.18
  9
$DIMEXO
 40
0.0625
  9
$DIMDLI
 40
0.38
  9
$DIMRND
 40
0.0
  9
$DIMDLE
 40
0.0
  9
$DIMEXE
 40
0.18
  9
$DIMTP
 40
0.0
  9
$DIMTM
 40
0.0
  9
$DIMTXT
 40
0.18
  9
$DIMCEN
 40
0.09
  9
$DIMTSZ
 40
0.0
  9
$DIMTOL
 70
     0
  9
$DIMLIM
 70
     0
  9
$DIMTIH
 70
     0
  9
$DIMTOH
 70
     0
  9
$DIMSE1
 70
     0
  9
$DIMSE2
 70
     0
  9
$DIMTAD
 70
     1
  9
$DIMZIN
 70
     0
  9
$DIMBLK
  1

  9
$DIMASO
 70
     1
  9
$DIMSHO
 70
     1
  9
$DIMPOST
  1

  9
$DIMAPOST
  1

  9
$DIMALT
 70
     0
  9
$DIMALTD
 70
     2
  9
$DIMALTF
 40
25.4
  9
$DIMLFAC
 40
1.0
  9
$DIMTOFL
 70
     0
  9
$DIMTVP
 40
0.0
  9
$DIMTIX
 70
     0
  9
$DIMSOXD
 70
     0
  9
$DIMSAH
 70
     0
  9
$DIMBLK1
  1

  9
$DIMBLK2
  1

  9
$DIMSTYLE
  2
STANDARD
  9
$DIMCLRD
 70
     0
  9
$DIMCLRE
 70
     0
  9
$DIMCLRT
 70
     0
  9
$DIMTFAC
 40
1.0
  9
$DIMGAP
 40
0.09
  9
$DIMJUST
 70
     0
  9
$DIMSD1
 70
     0
  9
$DIMSD2
 70
     0
  9
$DIMTOLJ
 70
     1
  9
$DIMTZIN
 70
     0
  9
$DIMALTZ
 70
     0
  9
$DIMALTTZ
 70
     0
  9
$DIMFIT
 70
     5
  9
$DIMUPT
 70
     0
  9
$DIMUNIT
 70
     2
  9
$DIMDEC
 70
     2
  9
$DIMTDEC
 70
     4
  9
$DIMALTU
 70
     2
  9
$DIMALTTD
 70
     2
  9
$DIMTXSTY
  7
STANDARD
  9
$DIMAUNIT
 70
     0
  9
$LUNITS
 70
     2
  9
$LUPREC
 70
     4
  9
$SKETCHINC
 40
0.1
  9
$FILLETRAD
 40
0.5
  9
$AUNITS
 70
     0
  9
$AUPREC
 70
     0
  9
$MENU
  1
.
  9
$ELEVATION
 40
0.0
  9
$PELEVATION
 40
0.0
  9
$THICKNESS
 40
0.0
  9
$LIMCHECK
 70
     0
  9
$BLIPMODE
 70
     0
  9
$CHAMFERA
 40
0.5
  9
$CHAMFERB
 40
0.5
  9
$CHAMFERC
 40
1.0
  9
$CHAMFERD
 40
0.0
  9
$SKPOLY
 70
     0
  9
$TDCREATE
 40
2450772.666465926
  9
$TDUPDATE
 40
2460687.988379630
  9
$TDINDWG
 40
0.0011564931
  9
$TDUSRTIMER
 40
0.0011564931
  9
$USRTIMER
 70
     1
  9
$ANGBASE
 50
0.0
  9
$ANGDIR
 70
     0
  9
$PDMODE
 70
     0
  9
$PDSIZE
 40
0.0
  9
$PLINEWID
 40
0.0
  9
$COORDS
 70
     1
  9
$SPLFRAME
 70
     0
  9
$SPLINETYPE
 70
     6
  9
$SPLINESEGS
 70
     8
  9
$ATTDIA
 70
     0
  9
$ATTREQ
 70
     1
  9
$HANDLING
 70
     1
  9
$HANDSEED
  5
2DD
  9
$SURFTAB1
 70
     6
  9
$SURFTAB2
 70
     6
  9
$SURFTYPE
 70
     6
  9
$SURFU
 70
     6
  9
$SURFV
 70
     6
  9
$UCSNAME
  2

  9
$UCSORG
 10
0.0
 20
0.0
 30
0.0
  9
$UCSXDIR
 10
1.0
 20
0.0
 30
0.0
  9
$UCSYDIR
 10
0.0
 20
1.0
 30
0.0
  9
$PUCSNAME
  2

  9
$PUCSORG
 10
0.0
 20
0.0
 30
0.0
  9
$PUCSXDIR
 10
1.0
 20
0.0
 30
0.0
  9
$PUCSYDIR
 10
0.0
 20
1.0
 30
0.0
  9
$USERI1
 70
     0
  9
$USERI2
 70
     0
  9
$USERI3
 70
     0
  9
$USERI4
 70
     0
  9
$USERI5
 70
     0
  9
$USERR1
 40
0.0
  9
$USERR2
 40
0.0
  9
$USERR3
 40
0.0
  9
$USERR4
 40
0.0
  9
$USERR5
 40
0.0
  9
$WORLDVIEW
 70
     1
  9
$SHADEDGE
 70
     3
  9
$SHADEDIF
 70
    70
  9
$TILEMODE
 70
     1
  9
$MAXACTVP
 70
    48
  9
$PINSBASE
 10
0.0
 20
0.0
 30
0.0
  9
$PLIMCHECK
 70
     0
  9
$PEXTMIN
 10
0.0
 20
0.0
 30
0.0
  9
$PEXTMAX
 10
0.0
 20
0.0
 30
0.0
  9
$PLIMMIN
 10
0.0
 20
0.0
  9
$PLIMMAX
 10
12.0
 20
9.0
  9
$UNITMODE
 70
     0
  9
$VISRETAIN
 70
     1
  9
$PLINEGEN
 70
     0
  9
$PSLTSCALE
 70
     1
  9
$TREEDEPTH
 70
  3020
  9
$PICKSTYLE
 70
     1
  9
$CMLSTYLE
  2
STANDARD
  9
$CMLJUST
 70
     0
  9
$CMLSCALE
 40
1.0
  9
$PROXYGRAPHICS
 70
     1
  9
$MEASUREMENT
 70
     0
  0
ENDSEC
  0
SECTION
  2
CLASSES
  0
CLASS
  1
LWPOLYLINE
  2
AcDbPolyline
  3
ObjectDBX Classes
 90
       20
280
     0
281
     1
  0
CLASS
  1
IMAGE
  2
AcDbRasterImage
  3
ISM
 90
       21
280
     0
281
     1
  0
CLASS
  1
OLE2FRAME
  2
AcDbOle2Frame
  3
ObjectDBX Classes
 90
       21
280
     0
281
     1
  0
CLASS
  1
HATCH
  2
AcDbHatch
  3
ObjectDBX Classes
 90
       20
280
     0
281
     1
  0
CLASS
  1
DICTIONARYVAR
  2
AcDbDictionaryVar
  3
ObjectDBX Classes
 90
       20
280
     0
281
     0
  0
CLASS
  1
RASTERVARIABLES
  2
AcDbRasterVariables
  3
ISM
 90
       21
280
     0
281
     0
  0
CLASS
  1
IMAGEDEF
  2
AcDbRasterImageDef
  3
ISM
 90
       21
280
     0
281
     0
  0
CLASS
  1
IMAGEDEF_REACTOR
  2
AcDbRasterImageDefReactor
  3
ISM
 90
       21
280
     0
281
     0
  0
CLASS
  1
IDBUFFER
  2
AcDbIdBuffer
  3
ObjectDBX Classes
 90
       20
280
     0
281
     0
  0
CLASS
  1
SPATIAL_FILTER
  2
AcDbSpatialFilter
  3
ObjectDBX Classes
 90
       20
280
     0
281
     0
  0
CLASS
  1
XRECORD
  2
AcDbXrecord
  3
ObjectDBX Classes
 90
       21
280
     0
281
     0
  0
CLASS
  1
ACDBDICTIONARYWDFLT
  2
AcDbDictionaryWithDefault
  3
ObjectDBX Classes
 90
       22
280
     0
281
     0
  0
CLASS
  1
SCALE
  2
AcDbScale
  3
ObjectDBX Classes
 90
       27
280
     0
281
     0
  0
CLASS
  1
VISUALSTYLE
  2
AcDbVisualStyle
  3
ObjectDBX Classes
 90
       26
280
     0
281
     0
  0
CLASS
  1
MATERIAL
  2
AcDbMaterial
  3
ObjectDBX Classes
 90
       23
280
     0
281
     0
  0
CLASS
  1
TABLESTYLE
  2
AcDbTableStyle
  3
ObjectDBX Classes
 90
       25
280
     0
281
     0
  0
CLASS
  1
MLEADERSTYLE
  2
AcDbMLeaderStyle
  3
ACDB_MLEADERSTYLE_CLASS
 90
       27
280
     0
281
     0
  0
CLASS
  1
SORTENTSTABLE
  2
AcDbSortentsTable
  3
"AutoCAD"
 90
        0
280
     0
281
     0
  0
CLASS
  1
LAYER_INDEX
  2
AcDbLayerIndex
  3
"Acad"
 90
        0
280
     0
281
     0
  0
CLASS
  1
SPATIAL_INDEX
  2
AcDbSpatialIndex
  3
"Acad"
 90
        0
280
     0
281
     0
  0
CLASS
  1
OBJECT_PTR
  2
CAseDLPNTableRecord
  3
"ASE-LPNTableRecord"
 90
        1
280
     0
281
     0
  0
CLASS
  1
LAYOUT
  2
AcDbLayout
  3
"AutoCAD 2000"
 90
        1
280
     0
281
     0
  0
CLASS
  1
PLOTSETTINGS
  2
AcDbPlotsettings
  3
"AutoCAD 2000"
 90
        1
280
     0
281
     0
  0
CLASS
  1
ACDBPLACEHOLDER
  2
AcDbPlaceholder
  3
"AutoCAD 2000"
 90
        1
280
     0
281
     0
  0
CLASS
  1
VBA_PROJECT
  2
AcDbVbaProject
  3
"AutoCAD 2000"
 90
        1
280
     0
281
     0
  0
CLASS
  1
WIPEOUT
  2
AcDbWipeout
  3
"AutoCAD 2000"
 90
        1
280
     0
281
     1
  0
CLASS
  1
WIPEOUTVARIABLES
  2
AcDbWipeoutVariables
  3
"AutoCAD 2000"
 90
        1
280
     0
281
     0
  0
CLASS
  1
RTEXT
  2
RText
  3
RText|AutoCAD Express Tool|expresstools@autodesk.com
 90
        1
280
     0
281
     1
  0
CLASS
  1
ARCALIGNEDTEXT
  2
AcDbArcAlignedText
  3
RText|AutoCAD Express Tool|expresstools@autodesk.com
 90
        1
280
     0
281
     1
  0
ENDSEC
  0
SECTION
  2
TABLES
  0
TABLE
  2
VPORT
  5
8
100
AcDbSymbolTable
 70
     1
  0
VPORT
  5
25
100
AcDbSymbolTableRecord
100
AcDbViewportTableRecord
  2
*ACTIVE
 70
     0
 10
0.0
 20
0.0
 11
1.0
 21
1.0
 12
13.754267
 22
23.8876
 13
0.0
 23
0.0
 14
0.5
 24
0.5
 15
0.5
 25
0.5
 16
0.0
 26
0.0
 36
1.0
 17
0.0
 27
0.0
 37
0.0
 40
47.7752
 41
0.575791
 42
50.0
 43
0.0
 44
0.0
 50
0.0
 51
0.0
 71
     0
 72
   100
 73
     1
 74
     1
 75
     0
 76
     0
 77
     0
 78
     0
  0
ENDTAB
  0
TABLE
  2
LTYPE
  5
5
100
AcDbSymbolTable
 70
     3
  0
LTYPE
  5
12
100
AcDbSymbolTableRecord
100
AcDbLinetypeTableRecord
  2
BYBLOCK
 70
     0
  3

 72
    65
 73
     0
 40
0.0
  0
LTYPE
  5
13
100
AcDbSymbolTableRecord
100
AcDbLinetypeTableRecord
  2
BYLAYER
 70
     0
  3

 72
    65
 73
     0
 40
0.0
  0
LTYPE
  5
14
100
AcDbSymbolTableRecord
100
AcDbLinetypeTableRecord
  2
CONTINUOUS
 70
     0
  3
Solid line
 72
    65
 73
     0
 40
0.0
  0
ENDTAB
  0
TABLE
  2
LAYER
  5
2
100
AcDbSymbolTable
 70
     5
  0
LAYER
  5
E
100
AcDbSymbolTableRecord
100
AcDbLayerTableRecord
  2
0
 70
     0
 62
     7
  6
CONTINUOUS
  0
LAYER
  5
75
100
AcDbSymbolTableRecord
100
AcDbLayerTableRecord
  2
SPACE
 70
     0
 62
     7
  6
CONTINUOUS
  0
LAYER
  5
BA
100
AcDbSymbolTableRecord
100
AcDbLayerTableRecord
  2
BUILDING_ENVELOPE
 70
     0
 62
     7
  6
CONTINUOUS
  0
LAYER
  5
1FE
100
AcDbSymbolTableRecord
100
AcDbLayerTableRecord
  2
STAIR
 70
     0
 62
     7
  6
CONTINUOUS
  0
LAYER
  5
24C
100
AcDbSymbolTableRecord
100
AcDbLayerTableRecord
  2
WALL
 70
     0
 62
     7
  6
CONTINUOUS
  0
ENDTAB
  0
TABLE
  2
STYLE
  5
3
100
AcDbSymbolTable
 70
     1
  0
STYLE
  5
F
100
AcDbSymbolTableRecord
100
AcDbTextStyleTableRecord
  2
STANDARD
 70
     0
 40
0.0
 41
1.0
 50
0.0
 71
     0
 42
0.2
  3
txt.shx
  4

  0
ENDTAB
  0
TABLE
  2
VIEW
  5
6
100
AcDbSymbolTable
 70
     0
  0
ENDTAB
  0
TABLE
  2
UCS
  5
7
100
AcDbSymbolTable
 70
     0
  0
ENDTAB
  0
TABLE
  2
APPID
  5
9
100
AcDbSymbolTable
 70
     1
  0
APPID
  5
10
100
AcDbSymbolTableRecord
100
AcDbRegAppTableRecord
  2
ACAD
 70
     0
  0
ENDTAB
  0
TABLE
  2
DIMSTYLE
  5
A
100
AcDbSymbolTable
 70
     1
  0
DIMSTYLE
105
1D
100
AcDbSymbolTableRecord
100
AcDbDimStyleTableRecord
  2
STANDARD
 70
     0
  3

  4

  5

  6

  7

 40
1.0
 41
0.18
 42
0.0625
 43
0.38
 44
0.18
 45
0.0
 46
0.0
 47
0.0
 48
0.0
 71
     0
 72
     0
 73
     1
 74
     1
 75
     0
 76
     0
 77
     0
 78
     0
140
0.18
141
0.09
142
0.0
143
25.4
144
1.0
145
0.0
146
1.0
147
0.09
170
     0
171
     2
172
     0
173
     0
174
     0
175
     0
176
     0
177
     0
178
     0
270
     2
271
     4
272
     4
273
     2
274
     2
275
     0
280
     0
281
     0
282
     0
283
     1
284
     0
285
     0
286
     0
287
     3
288
     0
340
F
  0
ENDTAB
  0
TABLE
  2
BLOCK_RECORD
  5
1
100
AcDbSymbolTable
 70
     8
  0
BLOCK_RECORD
  5
18
100
AcDbSymbolTableRecord
100
AcDbBlockTableRecord
  2
*MODEL_SPACE
  0
BLOCK_RECORD
  5
15
100
AcDbSymbolTableRecord
100
AcDbBlockTableRecord
  2
*PAPER_SPACE
  0
BLOCK_RECORD
  5
22F
100
AcDbSymbolTableRecord
100
AcDbBlockTableRecord
  2
NONE_
  0
BLOCK_RECORD
  5
232
100
AcDbSymbolTableRecord
100
AcDbBlockTableRecord
  2
WALL
  0
BLOCK_RECORD
  5
239
100
AcDbSymbolTableRecord
100
AcDbBlockTableRecord
  2
SPACE
  0
BLOCK_RECORD
  5
251
100
AcDbSymbolTableRecord
100
AcDbBlockTableRecord
  2
CORNER_LANDING
  0
BLOCK_RECORD
  5
257
100
AcDbSymbolTableRecord
100
AcDbBlockTableRecord
  2
STRAIGHT_STAIRCASE
  0
BLOCK_RECORD
  5
27E
100
AcDbSymbolTableRecord
100
AcDbBlockTableRecord
  2
OPENING
  0
BLOCK_RECORD
  5
286
100
AcDbSymbolTableRecord
100
AcDbBlockTableRecord
  2
DOOR
  0
BLOCK_RECORD
  5
2B5
100
AcDbSymbolTableRecord
100
AcDbBlockTableRecord
  2
WINDOW
  0
ENDTAB
  0
ENDSEC
  0
SECTION
  2
BLOCKS
  0
BLOCK
  5
19
100
AcDbEntity
  8
0
100
AcDbBlockBegin
  2
*MODEL_SPACE
 70
     0
 10
0.0
 20
0.0
 30
0.0
  3
*MODEL_SPACE
  1

  0
ENDBLK
  5
1A
100
AcDbEntity
  8
0
100
AcDbBlockEnd
  0
BLOCK
  5
16
100
AcDbEntity
 67
     1
  8
0
100
AcDbBlockBegin
  2
*PAPER_SPACE
 70
     0
 10
0.0
 20
0.0
 30
0.0
  3
*PAPER_SPACE
  1

  0
ENDBLK
  5
17
100
AcDbEntity
 67
     1
  8
0
100
AcDbBlockEnd
  0
BLOCK
  5
230
100
AcDbEntity
  8
0
100
AcDbBlockBegin
  2
NONE_
 70
     2
 10
0.0
 20
0.0
 30
0.0
  3
NONE_
  1

  0
ENDBLK
  5
231
100
AcDbEntity
  8
0
100
AcDbBlockEnd
  0
BLOCK
  5
233
100
AcDbEntity
  8
0
100
AcDbBlockBegin
  2
WALL
 70
     0
 10
0.0
 20
0.0
 30
0.0
  3
WALL
  1

  0
LWPOLYLINE
  5
234
102
{ACAD_REACTORS
330
235
102
}
100
AcDbEntity
  8
BUILDING_ENVELOPE
  6
CONTINUOUS
 62
     7
100
AcDbPolyline
 90
        6
 70
     1
 10
1.0
 20
5.333333
 10
9.0
 20
5.333333
 10
9.0
 20
5.166667
 10
9.0
 20
5.0
 10
1.0
 20
5.0
 10
1.0
 20
5.166667
  0
HATCH
  5
235
100
AcDbEntity
  8
BUILDING_ENVELOPE
 62
   253
100
AcDbHatch
 10
0.0
 20
0.0
 30
0.0
210
0.0
220
0.0
230
1.0
  2
SOLID
 70
     1
 71
     1
 91
        1
 92
        3
 72
     0
 73
     1
 93
        6
 10
1.0
 20
5.333333333333333
 10
9.0
 20
5.333333333333333
 10
9.0
 20
5.1666666666666661
 10
9.0
 20
5.0
 10
1.0
 20
5.0
 10
1.0
 20
5.1666666666666661
 97
        1
330
234
 75
     0
 76
     1
 98
        0
  0
LWPOLYLINE
  5
236
100
AcDbEntity
  8
BUILDING_ENVELOPE
  6
CONTINUOUS
 62
     7
100
AcDbPolyline
 90
        4
 70
     0
 10
1.0
 20
5.166667
 10
1.0
 20
5.333333
 10
9.0
 20
5.333333
 10
9.0
 20
5.166667
  0
LWPOLYLINE
  5
237
100
AcDbEntity
  8
BUILDING_ENVELOPE
  6
CONTINUOUS
 62
     7
100
AcDbPolyline
 90
        4
 70
     0
 10
1.0
 20
5.166667
 10
1.0
 20
5.0
 10
9.0
 20
5.0
 10
9.0
 20
5.166667
  0
ENDBLK
  5
238
100
AcDbEntity
  8
0
100
AcDbBlockEnd
  0
BLOCK
  5
23A
100
AcDbEntity
  8
0
100
AcDbBlockBegin
  2
SPACE
 70
     2
 10
0.0
 20
0.0
 30
0.0
  3
SPACE
  1

  0
ATTDEF
  5
23B
100
AcDbEntity
  8
0
100
AcDbText
 10
5.0
 20
5.0
 30
0.0
 40
0.2
  1

100
AcDbAttributeDefinition
  3
Name
  2
NAME
 70
     0
  0
ATTDEF
  5
23C
100
AcDbEntity
  8
0
100
AcDbText
 10
5.0
 20
5.0
 30
0.0
 40
0.2
  1

100
AcDbAttributeDefinition
  3
Space ID
  2
LOCATIONID
 70
     0
  0
ATTDEF
  5
23D
100
AcDbEntity
  8
0
100
AcDbText
 10
5.0
 20
5.0
 30
0.0
 40
0.2
  1

100
AcDbAttributeDefinition
  3
Department
  2
DEPARTMENT
 70
     0
  0
ATTDEF
  5
23E
100
AcDbEntity
  8
0
100
AcDbText
 10
5.0
 20
5.0
 30
0.0
 40
0.2
  1
Office
100
AcDbAttributeDefinition
  3
Space use
  2
USE
 70
     0
  0
ATTDEF
  5
23F
100
AcDbEntity
  8
0
100
AcDbText
 10
5.0
 20
5.0
 30
0.0
 40
0.2
  1

100
AcDbAttributeDefinition
  3
Phone number
  2
PHONENUMBER
 70
     0
  0
ATTDEF
  5
240
100
AcDbEntity
  8
0
100
AcDbText
 10
5.0
 20
5.0
 30
0.0
 40
0.2
  1
0
100
AcDbAttributeDefinition
  3
Occupancy
  2
OCCUPANTCOUNT
 70
     0
  0
ATTDEF
  5
241
100
AcDbEntity
  8
0
100
AcDbText
 10
5.0
 20
5.0
 30
0.0
 40
0.2
  1
0
100
AcDbAttributeDefinition
  3
Capacity
  2
OCCUPANTCAPACITY
 70
     0
  0
ATTDEF
  5
242
100
AcDbEntity
  8
0
100
AcDbText
 10
5.0
 20
5.0
 30
0.0
 40
0.2
  1

100
AcDbAttributeDefinition
  3
ID
  2
ID
 70
     0
  0
ATTDEF
  5
243
100
AcDbEntity
  8
0
100
AcDbText
 10
5.0
 20
5.0
 30
0.0
 40
0.2
  1

100
AcDbAttributeDefinition
  3
Belongs to
  2
BELONGSTO
 70
     0
  0
ATTDEF
  5
244
100
AcDbEntity
  8
0
100
AcDbText
 10
5.0
 20
5.0
 30
0.0
 40
0.2
  1

100
AcDbAttributeDefinition
  3
Modified
  2
MODIFY
 70
     0
  0
ATTDEF
  5
245
100
AcDbEntity
  8
0
100
AcDbText
 10
5.0
 20
5.0
 30
0.0
 40
0.2
  1
Location
100
AcDbAttributeDefinition
  3
Shape class
  2
SHAPECLASS
 70
     0
  0
ATTDEF
  5
246
100
AcDbEntity
  8
0
100
AcDbText
 10
5.0
 20
5.0
 30
0.0
 40
0.2
  1
Space
100
AcDbAttributeDefinition
  3
Shape type
  2
SHAPETYPE
 70
     0
  0
ATTDEF
  5
247
100
AcDbEntity
  8
0
100
AcDbText
 10
5.0
 20
5.0
 30
0.0
 40
0.2
  1

100
AcDbAttributeDefinition
  3
Subshape type
  2
SUBSHAPETYPE
 70
     0
  0
ATTDEF
  5
248
100
AcDbEntity
  8
0
100
AcDbText
 10
5.0
 20
5.0
 30
0.0
 40
0.2
  1
0
100
AcDbAttributeDefinition
  3
Space height
  2
SPACEHEIGHT
 70
     0
  0
ATTDEF
  5
249
100
AcDbEntity
  8
0
100
AcDbText
 10
5.0
 20
5.0
 30
0.0
 40
0.2
  1
0
100
AcDbAttributeDefinition
  3
Zones
  2
ZONES
 70
     0
  0
ATTDEF
  5
24A
100
AcDbEntity
  8
0
100
AcDbText
 10
5.0
 20
5.0
 30
0.0
 40
0.2
  1
100FT^ 2
100
AcDbAttributeDefinition
  3
Calculated area
  2
VISAREA
 70
     0
  0
ATTDEF
  5
24B
100
AcDbEntity
  8
0
100
AcDbText
 10
5.0
 20
5.0
 30
0.0
 40
0.2
  1
0
100
AcDbAttributeDefinition
  3
Base elevation
  2
BASEELEVATION
 70
     0
  0
LWPOLYLINE
  5
24D
102
{ACAD_REACTORS
330
24E
102
}
100
AcDbEntity
  8
WALL
  6
CONTINUOUS
100
AcDbPolyline
 90
        4
 70
     1
 10
0.0
 20
0.0
 10
10.0
 20
0.0
 10
10.0
 20
10.0
 10
0.0
 20
10.0
  0
HATCH
  5
24E
100
AcDbEntity
  8
WALL
 62
    94
100
AcDbHatch
 10
0.0
 20
0.0
 30
0.0
210
0.0
220
0.0
230
1.0
  2
ANSI31
 70
     0
 71
     1
 91
        1
 92
        2
 72
     0
 73
     1
 93
        4
 10
0.0
 20
0.0
 10
10.0
 20
0.0
 10
10.0
 20
10.0
 10
0.0
 20
10.0
 97
        1
330
24D
 75
     0
 76
     1
 52
0.0
 41
0.083333
 77
     0
 78
     1
 53
45.0
 43
0.0
 44
0.0
 45
-0.0073333333333333
 46
0.0073333333333333
 79
     0
 98
        0
  0
MTEXT
  5
24F
100
AcDbEntity
  8
WALL
100
AcDbMText
 10
5.0
 20
4.948732
 30
0.0
 40
0.500004
 41
4.420539
 71
     5
 72
     5
  1
\C7;\fCalibri|b0|i0|;\H0.50000381469727;Office\P\P\P
  0
ENDBLK
  5
250
100
AcDbEntity
  8
0
100
AcDbBlockEnd
  0
BLOCK
  5
252
100
AcDbEntity
  8
0
100
AcDbBlockBegin
  2
CORNER_LANDING
 70
     0
 10
0.0
 20
0.0
 30
0.0
  3
CORNER_LANDING
  1

  0
LWPOLYLINE
  5
253
100
AcDbEntity
  8
WALL
  6
CONTINUOUS
 62
     7
100
AcDbPolyline
 90
        4
 70
     1
 10
-1.332899
 20
-1.321759
 10
1.660475
 20
-1.321759
 10
1.660475
 20
1.671615
 10
-1.332899
 20
1.671615
  0
LINE
  5
254
100
AcDbEntity
  8
WALL
  6
CONTINUOUS
 62
     9
100
AcDbLine
 10
-1.332899
 20
-1.321759
 30
0.0
 11
0.156724
 21
1.671615
 31
0.0
  0
LINE
  5
255
100
AcDbEntity
  8
WALL
  6
CONTINUOUS
 62
     9
100
AcDbLine
 10
-1.332899
 20
-1.321759
 30
0.0
 11
1.660475
 21
0.169061
 31
0.0
  0
ENDBLK
  5
256
100
AcDbEntity
  8
0
100
AcDbBlockEnd
  0
BLOCK
  5
258
100
AcDbEntity
  8
0
100
AcDbBlockBegin
  2
STRAIGHT_STAIRCASE
 70
     0
 10
0.0
 20
0.0
 30
0.0
  3
STRAIGHT_STAIRCASE
  1

  0
LWPOLYLINE
  5
259
100
AcDbEntity
  8
BUILDING_ENVELOPE
  6
CONTINUOUS
 62
     9
100
AcDbPolyline
 90
        4
 70
     1
 10
-3.501199
 20
1.758333
 10
-2.630829
 20
1.758333
 10
-2.630829
 20
-1.241667
 10
-3.501199
 20
-1.241667
  0
LWPOLYLINE
  5
25A
100
AcDbEntity
  8
BUILDING_ENVELOPE
  6
CONTINUOUS
 62
     9
100
AcDbPolyline
 90
        4
 70
     1
 10
-2.630829
 20
1.758333
 10
-1.760459
 20
1.758333
 10
-1.760459
 20
-1.241667
 10
-2.630829
 20
-1.241667
  0
LWPOLYLINE
  5
25B
100
AcDbEntity
  8
BUILDING_ENVELOPE
  6
CONTINUOUS
 62
     9
100
AcDbPolyline
 90
        4
 70
     1
 10
-1.760459
 20
1.758333
 10
-0.890088
 20
1.758333
 10
-0.890088
 20
-1.241667
 10
-1.760459
 20
-1.241667
  0
LWPOLYLINE
  5
25C
100
AcDbEntity
  8
BUILDING_ENVELOPE
  6
CONTINUOUS
 62
     9
100
AcDbPolyline
 90
        4
 70
     1
 10
-0.890088
 20
1.758333
 10
-0.019718
 20
1.758333
 10
-0.019718
 20
-1.241667
 10
-0.890088
 20
-1.241667
  0
LWPOLYLINE
  5
25D
100
AcDbEntity
  8
BUILDING_ENVELOPE
  6
CONTINUOUS
 62
     9
100
AcDbPolyline
 90
        4
 70
     1
 10
-0.019718
 20
1.758333
 10
0.850653
 20
1.758333
 10
0.850653
 20
-1.241667
 10
-0.019718
 20
-1.241667
  0
LWPOLYLINE
  5
25E
100
AcDbEntity
  8
BUILDING_ENVELOPE
  6
CONTINUOUS
 62
     9
100
AcDbPolyline
 90
        4
 70
     1
 10
0.850653
 20
1.758333
 10
1.721023
 20
1.758333
 10
1.721023
 20
-1.241667
 10
0.850653
 20
-1.241667
  0
LWPOLYLINE
  5
25F
100
AcDbEntity
  8
BUILDING_ENVELOPE
  6
CONTINUOUS
 62
     9
100
AcDbPolyline
 90
        4
 70
     1
 10
1.721023
 20
1.758333
 10
2.591393
 20
1.758333
 10
2.591393
 20
-1.241667
 10
1.721023
 20
-1.241667
  0
LWPOLYLINE
  5
260
100
AcDbEntity
  8
BUILDING_ENVELOPE
  6
CONTINUOUS
 62
     9
100
AcDbPolyline
 90
        4
 70
     1
 10
2.591393
 20
1.758333
 10
3.461764
 20
1.758333
 10
3.461764
 20
-1.241667
 10
2.591393
 20
-1.241667
  0
LWPOLYLINE
  5
261
100
AcDbEntity
  8
BUILDING_ENVELOPE
  6
CONTINUOUS
 62
     9
100
AcDbPolyline
 90
        4
 70
     1
 10
3.461764
 20
1.758333
 10
4.332134
 20
1.758333
 10
4.332134
 20
-1.241667
 10
3.461764
 20
-1.241667
  0
MTEXT
  5
262
100
AcDbEntity
  8
BUILDING_ENVELOPE
100
AcDbMText
 10
-3.877833
 20
0.258333
 30
0.0
 40
0.333332
 41
0.753267
 71
     5
 72
     5
  1
\C7;\fCalibri|b0|i0|;\H0.33333206176758;UP
  0
CIRCLE
  5
263
102
{ACAD_REACTORS
330
264
102
}
100
AcDbEntity
  8
WALL
  6
CONTINUOUS
 62
     7
100
AcDbCircle
 10
-3.501199
 20
0.258333
 30
0.0
 40
0.086804
  0
HATCH
  5
264
100
AcDbEntity
  8
WALL
 62
     7
100
AcDbHatch
 10
0.0
 20
0.0
 30
0.0
210
0.0
220
0.0
230
1.0
  2
SOLID
 70
     1
 71
     1
 91
        1
 92
        1
 93
        1
 72
     2
 10
-3.5011993055309873
 20
0.2583333333333307
 40
0.0868041666666667
 50
0.0
 51
360.0
 73
     1
 97
        1
330
263
 75
     0
 76
     1
 98
        0
  0
LINE
  5
265
100
AcDbEntity
  8
WALL
  6
CONTINUOUS
 62
     7
100
AcDbLine
 10
-3.501199
 20
0.258333
 30
0.0
 11
-1.192999
 21
0.258333
 31
0.0
  0
LWPOLYLINE
  5
266
102
{ACAD_REACTORS
330
267
102
}
100
AcDbEntity
  8
WALL
  6
CONTINUOUS
 62
     7
100
AcDbPolyline
 90
        3
 70
     1
 10
-1.405912
 20
0.130858
 10
-1.405912
 20
0.385808
 10
-0.980087
 20
0.255599
  0
HATCH
  5
267
100
AcDbEntity
  8
WALL
 62
     7
100
AcDbHatch
 10
0.0
 20
0.0
 30
0.0
210
0.0
220
0.0
230
1.0
  2
SOLID
 70
     1
 71
     1
 91
        1
 92
        3
 72
     0
 73
     1
 93
        3
 10
-1.4059118055309874
 20
0.1308583333333307
 10
-1.4059118055309874
 20
0.3858083333333307
 10
-0.9800868055309874
 20
0.2555989359891018
 97
        1
330
266
 75
     0
 76
     1
 98
        0
  0
LINE
  5
268
102
{ACAD_REACTORS
330
26D
102
}
100
AcDbEntity
  8
BUILDING_ENVELOPE
  6
CONTINUOUS
 62
     7
100
AcDbLine
 10
0.415467
 20
-1.058333
 30
0.0
 11
4.526181
 21
-1.058333
 31
0.0
  0
ARC
  5
269
102
{ACAD_REACTORS
330
26D
102
}
100
AcDbEntity
  8
BUILDING_ENVELOPE
  6
CONTINUOUS
 62
     7
100
AcDbCircle
 10
4.29196
 20
-1.404611
 30
0.0
 40
0.418052
100
AcDbArc
 50
357.204441
 51
55.925661
  0
LINE
  5
26A
102
{ACAD_REACTORS
330
26D
102
}
100
AcDbEntity
  8
BUILDING_ENVELOPE
  6
CONTINUOUS
 62
     7
100
AcDbLine
 10
4.709514
 20
-1.425
 30
0.0
 11
4.892848
 21
-1.425
 31
0.0
  0
ARC
  5
26B
102
{ACAD_REACTORS
330
26D
102
}
100
AcDbEntity
  8
BUILDING_ENVELOPE
  6
CONTINUOUS
 62
     7
100
AcDbCircle
 10
4.331043
 20
-1.402314
 30
0.0
 40
0.562262
100
AcDbArc
 50
357.687613
 51
69.692522
  0
LINE
  5
26C
102
{ACAD_REACTORS
330
26D
102
}
100
AcDbEntity
  8
BUILDING_ENVELOPE
  6
CONTINUOUS
 62
     7
100
AcDbLine
 10
4.526181
 20
-0.875
 30
0.0
 11
0.415467
 21
-0.875
 31
0.0
  0
HATCH
  5
26D
100
AcDbEntity
  8
BUILDING_ENVELOPE
 62
   254
100
AcDbHatch
 10
0.0
 20
0.0
 30
0.0
210
0.0
220
0.0
230
1.0
  2
SOLID
 70
     1
 71
     1
 91
        4
 92
        1
 93
        6
 72
     1
 10
0.4154673611356792
 20
-1.0583333333333358
 11
4.5261810369690121
 21
-1.0583333333333358
 72
     2
 10
4.2919598054193502
 20
-1.4046106157748337
 40
0.4180520800614547
 50
357.204441
 51
55.925661
 73
     1
 72
     1
 10
4.7095143703023448
 20
-1.4250000000000025
 11
4.8928477036356783
 21
-1.4250000000000025
 72
     2
 10
4.3310434353510541
 20
-1.4023139566341953
 40
0.5622621207465568
 50
357.687613
 51
69.692522
 73
     1
 72
     1
 10
4.5261810369690121
 20
-0.8750000000000029
 11
0.4154673611356792
 21
-0.8750000000000024
 72
     1
 10
0.4154673611356792
 20
-0.8750000000000024
 11
0.4154673611356792
 21
-1.0583333333333358
 97
        5
330
268
330
269
330
26A
330
26B
330
26C
 92
        1
 93
        6
 72
     1
 10
0.4154673611356792
 20
1.5749999999999971
 11
4.5261810369690121
 21
1.5749999999999971
 72
     2
 10
4.5261840383023308
 20
1.7583303320000119
 40
0.1833303320245822
 50
269.999062
 51
0.000938
 73
     1
 72
     1
 10
4.7095143703023457
 20
1.7583333333333306
 11
4.8928477036356783
 21
1.7583333333333306
 72
     2
 10
4.5261870396356496
 20
1.7583273306666913
 40
0.3666606640491629
 50
269.999062
 51
0.000938
 73
     1
 72
     1
 10
4.5261810369690121
 20
1.3916666666666639
 11
0.4154673611356792
 21
1.3916666666666642
 72
     1
 10
0.4154673611356792
 20
1.3916666666666642
 11
0.4154673611356792
 21
1.5749999999999971
 97
        5
330
26E
330
26F
330
270
330
271
330
272
 92
        1
 93
        6
 72
     1
 10
-4.6678659721976539
 20
-1.2416666666666691
 11
-4.4845326388643203
 21
-1.2416666666666691
 72
     2
 10
-4.3012023068643064
 20
-1.2416636653333502
 40
0.1833303320245819
 50
89.999062
 51
180.000938
 73
     1
 72
     1
 10
-4.3011993055309841
 20
-1.0583333333333358
 11
0.4154673611356792
 21
-1.0583333333333358
 72
     1
 10
0.4154673611356792
 20
-1.0583333333333358
 11
0.4154673611356792
 21
-0.8750000000000024
 72
     1
 10
0.4154673611356792
 20
-0.8750000000000024
 11
-4.3011993055309876
 21
-0.8750000000000024
 72
     2
 10
-4.3012053081976251
 20
-1.2416606640000305
 40
0.3666606640491635
 50
89.999062
 51
180.000938
 73
     1
 97
        5
330
273
330
274
330
275
330
276
330
277
 92
        1
 93
        6
 72
     1
 10
-4.7511993055309869
 20
1.7583333333333306
 11
-4.5678659721976533
 21
1.7583333333333306
 72
     2
 10
-4.3845356401976394
 20
1.7583303320000114
 40
0.183330332024582
 50
179.999062
 51
270.000938
 73
     1
 72
     1
 10
-4.384532638864318
 20
1.5749999999999971
 11
0.4154673611356792
 21
1.5749999999999971
 72
     1
 10
0.4154673611356792
 20
1.5749999999999971
 11
0.4154673611356792
 21
1.3916666666666642
 72
     1
 10
0.4154673611356792
 20
1.3916666666666642
 11
-4.3845326388643207
 21
1.3916666666666642
 72
     2
 10
-4.3845386415309591
 20
1.758327330666692
 40
0.3666606640491635
 50
179.999062
 51
270.000938
 73
     1
 97
        5
330
278
330
279
330
27A
330
27B
330
27C
 75
     0
 76
     1
 98
        0
  0
LINE
  5
26E
102
{ACAD_REACTORS
330
26D
102
}
100
AcDbEntity
  8
BUILDING_ENVELOPE
  6
CONTINUOUS
 62
     7
100
AcDbLine
 10
0.415467
 20
1.575
 30
0.0
 11
4.526181
 21
1.575
 31
0.0
  0
ARC
  5
26F
102
{ACAD_REACTORS
330
26D
102
}
100
AcDbEntity
  8
BUILDING_ENVELOPE
  6
CONTINUOUS
 62
     7
100
AcDbCircle
 10
4.526184
 20
1.75833
 30
0.0
 40
0.18333
100
AcDbArc
 50
269.999062
 51
0.0
  0
LINE
  5
270
102
{ACAD_REACTORS
330
26D
102
}
100
AcDbEntity
  8
BUILDING_ENVELOPE
  6
CONTINUOUS
 62
     7
100
AcDbLine
 10
4.709514
 20
1.758333
 30
0.0
 11
4.892848
 21
1.758333
 31
0.0
  0
ARC
  5
271
102
{ACAD_REACTORS
330
26D
102
}
100
AcDbEntity
  8
BUILDING_ENVELOPE
  6
CONTINUOUS
 62
     7
100
AcDbCircle
 10
4.526187
 20
1.758327
 30
0.0
 40
0.366661
100
AcDbArc
 50
269.999062
 51
0.0
  0
LINE
  5
272
102
{ACAD_REACTORS
330
26D
102
}
100
AcDbEntity
  8
BUILDING_ENVELOPE
  6
CONTINUOUS
 62
     7
100
AcDbLine
 10
4.526181
 20
1.391667
 30
0.0
 11
0.415467
 21
1.391667
 31
0.0
  0
LINE
  5
273
102
{ACAD_REACTORS
330
26D
102
}
100
AcDbEntity
  8
BUILDING_ENVELOPE
  6
CONTINUOUS
 62
     7
100
AcDbLine
 10
-4.667866
 20
-1.241667
 30
0.0
 11
-4.484533
 21
-1.241667
 31
0.0
  0
ARC
  5
274
102
{ACAD_REACTORS
330
26D
102
}
100
AcDbEntity
  8
BUILDING_ENVELOPE
  6
CONTINUOUS
 62
     7
100
AcDbCircle
 10
-4.301202
 20
-1.241664
 30
0.0
 40
0.18333
100
AcDbArc
 50
89.999062
 51
180.000938
  0
LINE
  5
275
102
{ACAD_REACTORS
330
26D
102
}
100
AcDbEntity
  8
BUILDING_ENVELOPE
  6
CONTINUOUS
 62
     7
100
AcDbLine
 10
-4.301199
 20
-1.058333
 30
0.0
 11
0.415467
 21
-1.058333
 31
0.0
  0
LINE
  5
276
102
{ACAD_REACTORS
330
26D
102
}
100
AcDbEntity
  8
BUILDING_ENVELOPE
  6
CONTINUOUS
 62
     7
100
AcDbLine
 10
0.415467
 20
-0.875
 30
0.0
 11
-4.301199
 21
-0.875
 31
0.0
  0
ARC
  5
277
102
{ACAD_REACTORS
330
26D
102
}
100
AcDbEntity
  8
BUILDING_ENVELOPE
  6
CONTINUOUS
 62
     7
100
AcDbCircle
 10
-4.301205
 20
-1.241661
 30
0.0
 40
0.366661
100
AcDbArc
 50
89.999062
 51
180.000938
  0
LINE
  5
278
102
{ACAD_REACTORS
330
26D
102
}
100
AcDbEntity
  8
BUILDING_ENVELOPE
  6
CONTINUOUS
 62
     7
100
AcDbLine
 10
-4.751199
 20
1.758333
 30
0.0
 11
-4.567866
 21
1.758333
 31
0.0
  0
ARC
  5
279
102
{ACAD_REACTORS
330
26D
102
}
100
AcDbEntity
  8
BUILDING_ENVELOPE
  6
CONTINUOUS
 62
     7
100
AcDbCircle
 10
-4.384536
 20
1.75833
 30
0.0
 40
0.18333
100
AcDbArc
 50
179.999062
 51
270.000938
  0
LINE
  5
27A
102
{ACAD_REACTORS
330
26D
102
}
100
AcDbEntity
  8
BUILDING_ENVELOPE
  6
CONTINUOUS
 62
     7
100
AcDbLine
 10
-4.384533
 20
1.575
 30
0.0
 11
0.415467
 21
1.575
 31
0.0
  0
LINE
  5
27B
102
{ACAD_REACTORS
330
26D
102
}
100
AcDbEntity
  8
BUILDING_ENVELOPE
  6
CONTINUOUS
 62
     7
100
AcDbLine
 10
0.415467
 20
1.391667
 30
0.0
 11
-4.384533
 21
1.391667
 31
0.0
  0
ARC
  5
27C
102
{ACAD_REACTORS
330
26D
102
}
100
AcDbEntity
  8
BUILDING_ENVELOPE
  6
CONTINUOUS
 62
     7
100
AcDbCircle
 10
-4.384539
 20
1.758327
 30
0.0
 40
0.366661
100
AcDbArc
 50
179.999062
 51
270.000938
  0
ENDBLK
  5
27D
100
AcDbEntity
  8
0
100
AcDbBlockEnd
  0
BLOCK
  5
27F
100
AcDbEntity
  8
0
100
AcDbBlockBegin
  2
OPENING
 70
     0
 10
0.0
 20
0.0
 30
0.0
  3
OPENING
  1

  0
LWPOLYLINE
  5
280
100
AcDbEntity
  8
WALL
  6
CONTINUOUS
 62
     7
100
AcDbPolyline
 90
        4
 70
     1
 10
3.583333
 20
4.734
 10
6.416667
 20
4.734
 10
6.416667
 20
5.266
 10
3.583333
 20
5.266
  0
LWPOLYLINE
  5
281
100
AcDbEntity
  8
WALL
  6
CONTINUOUS
 62
     7
100
AcDbPolyline
 90
        4
 70
     1
 10
6.416667
 20
4.75
 10
6.416667
 20
5.25
 10
6.25
 20
5.25
 10
6.25
 20
4.75
  0
LWPOLYLINE
  5
282
100
AcDbEntity
  8
WALL
  6
CONTINUOUS
 62
     7
100
AcDbPolyline
 90
        4
 70
     1
 10
3.583333
 20
4.75
 10
3.583333
 20
5.25
 10
3.75
 20
5.25
 10
3.75
 20
4.75
  0
LINE
  5
283
100
AcDbEntity
  8
WALL
  6
CONTINUOUS
 62
     7
100
AcDbLine
 10
6.416667
 20
4.75
 30
0.0
 11
6.416667
 21
5.25
 31
0.0
  0
LINE
  5
284
100
AcDbEntity
  8
WALL
  6
CONTINUOUS
 62
     7
100
AcDbLine
 10
3.583333
 20
4.75
 30
0.0
 11
3.583333
 21
5.25
 31
0.0
  0
ENDBLK
  5
285
100
AcDbEntity
  8
0
100
AcDbBlockEnd
  0
BLOCK
  5
287
100
AcDbEntity
  8
0
100
AcDbBlockBegin
  2
DOOR
 70
     2
 10
0.0
 20
0.0
 30
0.0
  3
DOOR
  1

  0
ATTDEF
  5
288
100
AcDbEntity
  8
0
100
AcDbText
 10
5.0
 20
5.0
 30
0.0
 40
0.2
  1
80
100
AcDbAttributeDefinition
  3
Door height
  2
VISDOORHEIGHT
 70
     0
  0
ATTDEF
  5
289
100
AcDbEntity
  8
0
100
AcDbText
 10
5.0
 20
5.0
 30
0.0
 40
0.2
  1
0
100
AcDbAttributeDefinition
  3
Reference Line Offset
  2
REFLN
 70
     0
  0
ATTDEF
  5
28A
100
AcDbEntity
  8
0
100
AcDbText
 10
5.0
 20
5.0
 30
0.0
 40
0.2
  1
30
100
AcDbAttributeDefinition
  3
Door width
  2
SUBTYPE
 70
     0
  0
ATTDEF
  5
28B
100
AcDbEntity
  8
0
100
AcDbText
 10
5.0
 20
5.0
 30
0.0
 40
0.2
  1
2
100
AcDbAttributeDefinition
  3
Door frame width
  2
SUBVISDOORFRAMEWIDTH
 70
     0
  0
ATTDEF
  5
28C
100
AcDbEntity
  8
0
100
AcDbText
 10
5.0
 20
5.0
 30
0.0
 40
0.2
  1
4
100
AcDbAttributeDefinition
  3
Door frame depth
  2
SUBVISDOORFRAMEDEPTH
 70
     0
  0
ATTDEF
  5
28D
100
AcDbEntity
  8
0
100
AcDbText
 10
5.0
 20
5.0
 30
0.0
 40
0.2
  1
0.5
100
AcDbAttributeDefinition
  3
Door stop width
  2
SUBVISDOORSTOPWIDTH
 70
     0
  0
ATTDEF
  5
28E
100
AcDbEntity
  8
0
100
AcDbText
 10
5.0
 20
5.0
 30
0.0
 40
0.2
  1
1.5
100
AcDbAttributeDefinition
  3
Door stop depth
  2
SUBVISDOORSTOPDEPTH
 70
     0
  0
ATTDEF
  5
28F
100
AcDbEntity
  8
0
100
AcDbText
 10
5.0
 20
5.0
 30
0.0
 40
0.2
  1
2
100
AcDbAttributeDefinition
  3
Door threshold depth inside
  2
SUBVISDOORTHRESDEPTHIN
 70
     0
  0
ATTDEF
  5
290
100
AcDbEntity
  8
0
100
AcDbText
 10
5.0
 20
5.0
 30
0.0
 40
0.2
  1
2
100
AcDbAttributeDefinition
  3
Door threshold width inside
  2
SUBVISDOORTHRESWIDTHIN
 70
     0
  0
ATTDEF
  5
291
100
AcDbEntity
  8
0
100
AcDbText
 10
5.0
 20
5.0
 30
0.0
 40
0.2
  1
2
100
AcDbAttributeDefinition
  3
Door threshold depth outside
  2
SUBVISDOORTHRESDEPTHOUT
 70
     0
  0
ATTDEF
  5
292
100
AcDbEntity
  8
0
100
AcDbText
 10
5.0
 20
5.0
 30
0.0
 40
0.2
  1
2
100
AcDbAttributeDefinition
  3
Door threshold width outside
  2
SUBVISDOORTHRESWIDTHOUT
 70
     0
  0
ATTDEF
  5
293
100
AcDbEntity
  8
0
100
AcDbText
 10
5.0
 20
5.0
 30
0.0
 40
0.2
  1
2
100
AcDbAttributeDefinition
  3
Door panel thickness
  2
SUBVISDOORPANELTHICKNESS
 70
     0
  0
ATTDEF
  5
294
100
AcDbEntity
  8
0
100
AcDbText
 10
5.0
 20
5.0
 30
0.0
 40
0.2
  1
15
100
AcDbAttributeDefinition
  3
Door leaf width
  2
VISDOORLEAF
 70
     0
  0
ATTDEF
  5
295
100
AcDbEntity
  8
0
100
AcDbText
 10
5.0
 20
5.0
 30
0.0
 40
0.2
  1
12
100
AcDbAttributeDefinition
  3
Door spring height
  2
VISDOORSPRING
 70
     0
  0
ATTDEF
  5
296
100
AcDbEntity
  8
0
100
AcDbText
 10
5.0
 20
5.0
 30
0.0
 40
0.2
  1
6
100
AcDbAttributeDefinition
  3
Door along wall offset
  2
VISDOORALONGWALLOFFSET
 70
     0
  0
ATTDEF
  5
297
100
AcDbEntity
  8
0
100
AcDbText
 10
5.0
 20
5.0
 30
0.0
 40
0.2
  1
Single
100
AcDbAttributeDefinition
  3
Door type
  2
SUBSHAPETYPE
 70
     0
  0
ATTDEF
  5
298
100
AcDbEntity
  8
0
100
AcDbText
 10
5.0
 20
5.0
 30
0.0
 40
0.2
  1
Center
100
AcDbAttributeDefinition
  3
Door within wall offset
  2
VISJUSTIFICATION
 70
     0
  0
ATTDEF
  5
299
100
AcDbEntity
  8
0
100
AcDbText
 10
5.0
 20
5.0
 30
0.0
 40
0.2
  1
50
100
AcDbAttributeDefinition
  3
Door open percentage
  2
VISDOOROPENPERCENT
 70
     0
  0
ATTDEF
  5
29A
100
AcDbEntity
  8
0
100
AcDbText
 10
5.0
 20
5.0
 30
0.0
 40
0.2
  1
Building Component
100
AcDbAttributeDefinition
  3
Shape class
  2
SHAPECLASS
 70
     0
  0
ATTDEF
  5
29B
100
AcDbEntity
  8
0
100
AcDbText
 10
5.0
 20
5.0
 30
0.0
 40
0.2
  1
Door
100
AcDbAttributeDefinition
  3
Shape type
  2
SHAPETYPE
 70
     0
  0
ATTDEF
  5
29C
100
AcDbEntity
  8
0
100
AcDbText
 10
5.0
 20
5.0
 30
0.0
 40
0.2
  1
0
100
AcDbAttributeDefinition
  3
Fire rating
  2
FIRERATING
 70
     0
  0
ATTDEF
  5
29D
100
AcDbEntity
  8
0
100
AcDbText
 10
5.0
 20
5.0
 30
0.0
 40
0.2
  1
0
100
AcDbAttributeDefinition
  3
Door number
  2
DOORNUMBER
 70
     0
  0
ATTDEF
  5
29E
100
AcDbEntity
  8
0
100
AcDbText
 10
5.0
 20
5.0
 30
0.0
 40
0.2
  1
0
100
AcDbAttributeDefinition
  3
Base elevation
  2
BASEELEVATION
 70
     0
  0
LWPOLYLINE
  5
29F
100
AcDbEntity
  8
BUILDING_ENVELOPE
  6
CONTINUOUS
 62
     7
100
AcDbPolyline
 90
        4
 70
     1
 10
3.583333
 20
4.734
 10
6.416667
 20
4.734
 10
6.416667
 20
5.266
 10
3.583333
 20
5.266
  0
LINE
  5
2A0
100
AcDbEntity
  8
BUILDING_ENVELOPE
  6
CONTINUOUS
 62
     7
100
AcDbLine
 10
6.416667
 20
4.75
 30
0.0
 11
6.416667
 21
5.25
 31
0.0
  0
LINE
  5
2A1
100
AcDbEntity
  8
BUILDING_ENVELOPE
  6
CONTINUOUS
 62
     7
100
AcDbLine
 10
6.416667
 20
5.25
 30
0.0
 11
6.25
 21
5.25
 31
0.0
  0
LINE
  5
2A2
100
AcDbEntity
  8
BUILDING_ENVELOPE
  6
CONTINUOUS
 62
     7
100
AcDbLine
 10
6.25
 20
5.25
 30
0.0
 11
6.25
 21
5.083333
 31
0.0
  0
LINE
  5
2A3
100
AcDbEntity
  8
BUILDING_ENVELOPE
  6
CONTINUOUS
 62
     7
100
AcDbLine
 10
6.25
 20
4.958333
 30
0.0
 11
6.25
 21
4.75
 31
0.0
  0
LINE
  5
2A4
100
AcDbEntity
  8
BUILDING_ENVELOPE
  6
CONTINUOUS
 62
     7
100
AcDbLine
 10
6.25
 20
4.75
 30
0.0
 11
6.416667
 21
4.75
 31
0.0
  0
LINE
  5
2A5
100
AcDbEntity
  8
BUILDING_ENVELOPE
  6
CONTINUOUS
 62
     7
100
AcDbLine
 10
3.583333
 20
4.75
 30
0.0
 11
3.583333
 21
5.25
 31
0.0
  0
LINE
  5
2A6
100
AcDbEntity
  8
BUILDING_ENVELOPE
  6
CONTINUOUS
 62
     7
100
AcDbLine
 10
3.583333
 20
5.25
 30
0.0
 11
3.75
 21
5.25
 31
0.0
  0
LINE
  5
2A7
100
AcDbEntity
  8
BUILDING_ENVELOPE
  6
CONTINUOUS
 62
     7
100
AcDbLine
 10
3.75
 20
5.25
 30
0.0
 11
3.75
 21
5.083333
 31
0.0
  0
LINE
  5
2A8
100
AcDbEntity
  8
BUILDING_ENVELOPE
  6
CONTINUOUS
 62
     7
100
AcDbLine
 10
3.75
 20
4.958333
 30
0.0
 11
3.75
 21
4.75
 31
0.0
  0
LINE
  5
2A9
100
AcDbEntity
  8
BUILDING_ENVELOPE
  6
CONTINUOUS
 62
     7
100
AcDbLine
 10
3.75
 20
4.75
 30
0.0
 11
3.583333
 21
4.75
 31
0.0
  0
LINE
  5
2AA
100
AcDbEntity
  8
BUILDING_ENVELOPE
  6
CONTINUOUS
 62
     7
100
AcDbLine
 10
6.25
 20
5.083333
 30
0.0
 11
6.208333
 21
5.083333
 31
0.0
  0
LINE
  5
2AB
100
AcDbEntity
  8
BUILDING_ENVELOPE
  6
CONTINUOUS
 62
     7
100
AcDbLine
 10
6.208333
 20
5.083333
 30
0.0
 11
6.208333
 21
4.958333
 31
0.0
  0
LINE
  5
2AC
100
AcDbEntity
  8
BUILDING_ENVELOPE
  6
CONTINUOUS
 62
     7
100
AcDbLine
 10
6.208333
 20
4.958333
 30
0.0
 11
6.25
 21
4.958333
 31
0.0
  0
LINE
  5
2AD
100
AcDbEntity
  8
BUILDING_ENVELOPE
  6
CONTINUOUS
 62
     7
100
AcDbLine
 10
3.75
 20
5.083333
 30
0.0
 11
3.791667
 21
5.083333
 31
0.0
  0
LINE
  5
2AE
100
AcDbEntity
  8
BUILDING_ENVELOPE
  6
CONTINUOUS
 62
     7
100
AcDbLine
 10
3.791667
 20
5.083333
 30
0.0
 11
3.791667
 21
4.958333
 31
0.0
  0
LINE
  5
2AF
100
AcDbEntity
  8
BUILDING_ENVELOPE
  6
CONTINUOUS
 62
     7
100
AcDbLine
 10
3.791667
 20
4.958333
 30
0.0
 11
3.75
 21
4.958333
 31
0.0
  0
LINE
  5
2B0
100
AcDbEntity
  8
BUILDING_ENVELOPE
  6
CONTINUOUS
 62
     7
100
AcDbLine
 10
6.416667
 20
4.75
 30
0.0
 11
6.416667
 21
5.25
 31
0.0
  0
LINE
  5
2B1
100
AcDbEntity
  8
BUILDING_ENVELOPE
  6
CONTINUOUS
 62
     7
100
AcDbLine
 10
3.583333
 20
4.75
 30
0.0
 11
3.583333
 21
5.25
 31
0.0
  0
ARC
  5
2B2
100
AcDbEntity
  8
BUILDING_ENVELOPE
  6
CONTINUOUS
 62
     7
100
AcDbCircle
 10
6.25
 20
5.25
 30
0.0
 40
2.5
100
AcDbArc
 50
90.0
 51
180.0
  0
LWPOLYLINE
  5
2B3
100
AcDbEntity
  8
BUILDING_ENVELOPE
  6
CONTINUOUS
 62
     7
100
AcDbPolyline
 90
        4
 70
     1
 10
6.083333
 20
7.75
 10
6.083333
 20
5.25
 10
6.25
 20
5.25
 10
6.25
 20
7.75
  0
ENDBLK
  5
2B4
100
AcDbEntity
  8
0
100
AcDbBlockEnd
  0
BLOCK
  5
2B6
100
AcDbEntity
  8
0
100
AcDbBlockBegin
  2
WINDOW
 70
     2
 10
0.0
 20
0.0
 30
0.0
  3
WINDOW
  1

  0
ATTDEF
  5
2B7
100
AcDbEntity
  8
0
100
AcDbText
 10
5.0
 20
5.0
 30
0.0
 40
0.2
  1
60
100
AcDbAttributeDefinition
  3
Window height
  2
VISWNDWHEIGHT
 70
     0
  0
ATTDEF
  5
2B8
100
AcDbEntity
  8
0
100
AcDbText
 10
5.0
 20
5.0
 30
0.0
 40
0.2
  1
0
100
AcDbAttributeDefinition
  3
Reference Line Offset
  2
REFLN
 70
     0
  0
ATTDEF
  5
2B9
100
AcDbEntity
  8
0
100
AcDbText
 10
5.0
 20
5.0
 30
0.0
 40
0.2
  1
30
100
AcDbAttributeDefinition
  3
Window width
  2
SUBTYPE
 70
     0
  0
ATTDEF
  5
2BA
100
AcDbEntity
  8
0
100
AcDbText
 10
5.0
 20
5.0
 30
0.0
 40
0.2
  1
2
100
AcDbAttributeDefinition
  3
Window frame depth
  2
SUBVISWNDWFRAMEDEPTH
 70
     0
  0
ATTDEF
  5
2BB
100
AcDbEntity
  8
0
100
AcDbText
 10
5.0
 20
5.0
 30
0.0
 40
0.2
  1
4
100
AcDbAttributeDefinition
  3
Window frame width
  2
SUBVISWNDWFRAMEWIDTH
 70
     0
  0
ATTDEF
  5
2BC
100
AcDbEntity
  8
0
100
AcDbText
 10
5.0
 20
5.0
 30
0.0
 40
0.2
  1
2.5
100
AcDbAttributeDefinition
  3
Window sash depth
  2
SUBVISWNDWSASHDEPTH
 70
     0
  0
ATTDEF
  5
2BD
100
AcDbEntity
  8
0
100
AcDbText
 10
5.0
 20
5.0
 30
0.0
 40
0.2
  1
1
100
AcDbAttributeDefinition
  3
Window sash width
  2
SUBVISWNDWSASHWIDTH
 70
     0
  0
ATTDEF
  5
2BE
100
AcDbEntity
  8
0
100
AcDbText
 10
5.0
 20
5.0
 30
0.0
 40
0.2
  1
2
100
AcDbAttributeDefinition
  3
Window sill depth inside
  2
SUBVISWNDWSILLDEPTHIN
 70
     0
  0
ATTDEF
  5
2BF
100
AcDbEntity
  8
0
100
AcDbText
 10
5.0
 20
5.0
 30
0.0
 40
0.2
  1
2
100
AcDbAttributeDefinition
  3
Window sill width inside
  2
SUBVISWNDWSILLWIDTHIN
 70
     0
  0
ATTDEF
  5
2C0
100
AcDbEntity
  8
0
100
AcDbText
 10
5.0
 20
5.0
 30
0.0
 40
0.2
  1
2
100
AcDbAttributeDefinition
  3
Window sill depth outside
  2
SUBVISWNDWSILLDEPTHOUT
 70
     0
  0
ATTDEF
  5
2C1
100
AcDbEntity
  8
0
100
AcDbText
 10
5.0
 20
5.0
 30
0.0
 40
0.2
  1
2
100
AcDbAttributeDefinition
  3
Window sill width outside
  2
SUBVISWNDWSILLWIDTHOUT
 70
     0
  0
ATTDEF
  5
2C2
100
AcDbEntity
  8
0
100
AcDbText
 10
5.0
 20
5.0
 30
0.0
 40
0.2
  1
80
100
AcDbAttributeDefinition
  3
Window header height
  2
VISWNDWHEADERHEIGHT
 70
     0
  0
ATTDEF
  5
2C3
100
AcDbEntity
  8
0
100
AcDbText
 10
5.0
 20
5.0
 30
0.0
 40
0.2
  1
6
100
AcDbAttributeDefinition
  3
Window along wall offset
  2
VISWNDWALONGWALLOFFSET
 70
     0
  0
ATTDEF
  5
2C4
100
AcDbEntity
  8
0
100
AcDbText
 10
5.0
 20
5.0
 30
0.0
 40
0.2
  1
15
100
AcDbAttributeDefinition
  3
Window operator size
  2
VISWNDWOPERATOR
 70
     0
  0
ATTDEF
  5
2C5
100
AcDbEntity
  8
0
100
AcDbText
 10
5.0
 20
5.0
 30
0.0
 40
0.2
  1
12
100
AcDbAttributeDefinition
  3
Window spring height
  2
VISWNDWSPRING
 70
     0
  0
ATTDEF
  5
2C6
100
AcDbEntity
  8
0
100
AcDbText
 10
5.0
 20
5.0
 30
0.0
 40
0.2
  1
Center
100
AcDbAttributeDefinition
  3
Window within wall offset
  2
VISJUSTIFICATION
 70
     0
  0
ATTDEF
  5
2C7
100
AcDbEntity
  8
0
100
AcDbText
 10
5.0
 20
5.0
 30
0.0
 40
0.2
  1
Building Component
100
AcDbAttributeDefinition
  3
Shape class
  2
SHAPECLASS
 70
     0
  0
ATTDEF
  5
2C8
100
AcDbEntity
  8
0
100
AcDbText
 10
5.0
 20
5.0
 30
0.0
 40
0.2
  1
Window
100
AcDbAttributeDefinition
  3
Shape type
  2
SHAPETYPE
 70
     0
  0
ATTDEF
  5
2C9
100
AcDbEntity
  8
0
100
AcDbText
 10
5.0
 20
5.0
 30
0.0
 40
0.2
  1
Picture
100
AcDbAttributeDefinition
  3
Window type
  2
SUBSHAPETYPE
 70
     0
  0
ATTDEF
  5
2CA
100
AcDbEntity
  8
0
100
AcDbText
 10
5.0
 20
5.0
 30
0.0
 40
0.2
  1
0
100
AcDbAttributeDefinition
  3
Fire rating
  2
FIRERATING
 70
     0
  0
ATTDEF
  5
2CB
100
AcDbEntity
  8
0
100
AcDbText
 10
5.0
 20
5.0
 30
0.0
 40
0.2
  1
0
100
AcDbAttributeDefinition
  3
Window number
  2
WNDWNUMBER
 70
     0
  0
LWPOLYLINE
  5
2CC
100
AcDbEntity
  8
BUILDING_ENVELOPE
  6
CONTINUOUS
 62
     7
100
AcDbPolyline
 90
        4
 70
     1
 10
3.75
 20
4.734
 10
6.25
 20
4.734
 10
6.25
 20
5.266
 10
3.75
 20
5.266
  0
LINE
  5
2CD
100
AcDbEntity
  8
BUILDING_ENVELOPE
  6
CONTINUOUS
 62
     7
100
AcDbLine
 10
3.75
 20
4.75
 30
0.0
 11
3.75
 21
5.25
 31
0.0
  0
LINE
  5
2CE
100
AcDbEntity
  8
BUILDING_ENVELOPE
  6
CONTINUOUS
 62
     7
100
AcDbLine
 10
3.75
 20
5.25
 30
0.0
 11
4.083333
 21
5.25
 31
0.0
  0
LINE
  5
2CF
100
AcDbEntity
  8
BUILDING_ENVELOPE
  6
CONTINUOUS
 62
     7
100
AcDbLine
 10
4.083333
 20
5.25
 30
0.0
 11
4.083333
 21
5.104167
 31
0.0
  0
LINE
  5
2D0
100
AcDbEntity
  8
BUILDING_ENVELOPE
  6
CONTINUOUS
 62
     7
100
AcDbLine
 10
4.083333
 20
4.895833
 30
0.0
 11
4.083333
 21
4.75
 31
0.0
  0
LINE
  5
2D1
100
AcDbEntity
  8
BUILDING_ENVELOPE
  6
CONTINUOUS
 62
     7
100
AcDbLine
 10
4.083333
 20
4.75
 30
0.0
 11
3.75
 21
4.75
 31
0.0
  0
LINE
  5
2D2
100
AcDbEntity
  8
BUILDING_ENVELOPE
  6
CONTINUOUS
 62
     7
100
AcDbLine
 10
6.25
 20
4.75
 30
0.0
 11
6.25
 21
5.25
 31
0.0
  0
LINE
  5
2D3
100
AcDbEntity
  8
BUILDING_ENVELOPE
  6
CONTINUOUS
 62
     7
100
AcDbLine
 10
6.25
 20
5.25
 30
0.0
 11
5.916667
 21
5.25
 31
0.0
  0
LINE
  5
2D4
100
AcDbEntity
  8
BUILDING_ENVELOPE
  6
CONTINUOUS
 62
     7
100
AcDbLine
 10
5.916667
 20
5.25
 30
0.0
 11
5.916667
 21
5.104167
 31
0.0
  0
LINE
  5
2D5
100
AcDbEntity
  8
BUILDING_ENVELOPE
  6
CONTINUOUS
 62
     7
100
AcDbLine
 10
5.916667
 20
4.895833
 30
0.0
 11
5.916667
 21
4.75
 31
0.0
  0
LINE
  5
2D6
100
AcDbEntity
  8
BUILDING_ENVELOPE
  6
CONTINUOUS
 62
     7
100
AcDbLine
 10
5.916667
 20
4.75
 30
0.0
 11
6.25
 21
4.75
 31
0.0
  0
LWPOLYLINE
  5
2D7
100
AcDbEntity
  8
BUILDING_ENVELOPE
  6
CONTINUOUS
 62
     7
100
AcDbPolyline
 90
        4
 70
     1
 10
4.083333
 20
5.104167
 10
4.166667
 20
5.104167
 10
4.166667
 20
4.895833
 10
4.083333
 20
4.895833
  0
LWPOLYLINE
  5
2D8
100
AcDbEntity
  8
BUILDING_ENVELOPE
  6
CONTINUOUS
 62
     7
100
AcDbPolyline
 90
        4
 70
     1
 10
5.916667
 20
5.104167
 10
5.833333
 20
5.104167
 10
5.833333
 20
4.895833
 10
5.916667
 20
4.895833
  0
LINE
  5
2D9
100
AcDbEntity
  8
BUILDING_ENVELOPE
  6
CONTINUOUS
 62
     7
100
AcDbLine
 10
4.166667
 20
5.0
 30
0.0
 11
5.833333
 21
5.0
 31
0.0
  0
LINE
  5
2DA
100
AcDbEntity
  8
BUILDING_ENVELOPE
  6
CONTINUOUS
 62
     7
100
AcDbLine
 10
3.75
 20
4.75
 30
0.0
 11
3.75
 21
5.25
 31
0.0
  0
LINE
  5
2DB
100
AcDbEntity
  8
BUILDING_ENVELOPE
  6
CONTINUOUS
 62
     7
100
AcDbLine
 10
6.25
 20
4.75
 30
0.0
 11
6.25
 21
5.25
 31
0.0
  0
ENDBLK
  5
2DC
100
AcDbEntity
  8
0
100
AcDbBlockEnd
  0
ENDSEC
  0
SECTION
  2
ENTITIES
  0
LINE
  5
76
102
{ACAD_REACTORS
330
7E
102
}
100
AcDbEntity
  8
SPACE
  6
CONTINUOUS
100
AcDbLine
 10
9.431976
 20
15.431213
 30
0.0
 11
0.356904
 21
15.431213
 31
0.0
  0
LINE
  5
77
102
{ACAD_REACTORS
330
7E
102
}
100
AcDbEntity
  8
SPACE
  6
CONTINUOUS
100
AcDbLine
 10
0.356904
 20
15.431213
 30
0.0
 11
0.356904
 21
0.5
 31
0.0
  0
LINE
  5
78
102
{ACAD_REACTORS
330
7E
102
}
100
AcDbEntity
  8
SPACE
  6
CONTINUOUS
100
AcDbLine
 10
0.356904
 20
0.5
 30
0.0
 11
25.02357
 21
0.5
 31
0.0
  0
LINE
  5
79
102
{ACAD_REACTORS
330
7E
102
}
100
AcDbEntity
  8
SPACE
  6
CONTINUOUS
100
AcDbLine
 10
25.02357
 20
0.5
 30
0.0
 11
25.02357
 21
15.431213
 31
0.0
  0
LINE
  5
7A
102
{ACAD_REACTORS
330
7E
102
}
100
AcDbEntity
  8
SPACE
  6
CONTINUOUS
100
AcDbLine
 10
25.02357
 20
15.431213
 30
0.0
 11
18.160047
 21
15.431213
 31
0.0
  0
LINE
  5
7B
102
{ACAD_REACTORS
330
7E
102
}
100
AcDbEntity
  8
SPACE
  6
CONTINUOUS
100
AcDbLine
 10
18.160047
 20
15.431213
 30
0.0
 11
18.160047
 21
6.839108
 31
0.0
  0
LINE
  5
7C
102
{ACAD_REACTORS
330
7E
102
}
100
AcDbEntity
  8
SPACE
  6
CONTINUOUS
100
AcDbLine
 10
18.160047
 20
6.839108
 30
0.0
 11
9.431976
 21
6.839108
 31
0.0
  0
LINE
  5
7D
102
{ACAD_REACTORS
330
7E
102
}
100
AcDbEntity
  8
SPACE
  6
CONTINUOUS
100
AcDbLine
 10
9.431976
 20
6.839108
 30
0.0
 11
9.431976
 21
15.431213
 31
0.0
  0
HATCH
  5
7E
102
{ACAD_REACTORS
330
74
102
}
100
AcDbEntity
  8
SPACE
 62
    22
100
AcDbHatch
 10
0.0
 20
0.0
 30
0.0
210
0.0
220
0.0
230
1.0
  2
SOLID
 70
     1
 71
     1
 91
        1
 92
        1
 93
        9
 72
     1
 10
9.4319764821823764
 20
15.4312131760657039
 11
0.3569035593728836
 21
15.4312131760657039
 72
     1
 10
0.3569035593728836
 20
15.4312131760657039
 11
0.3569035593728836
 21
0.4999999999999526
 72
     1
 10
0.3569035593728836
 20
0.4999999999999526
 11
25.0235702260395456
 21
0.4999999999999526
 72
     1
 10
25.0235702260395456
 20
0.4999999999999526
 11
25.0235702260395456
 21
15.4312131760657039
 72
     1
 10
25.0235702260395456
 20
15.4312131760657039
 11
18.1600465160702882
 21
15.4312131760657039
 72
     1
 10
18.1600465160702882
 20
15.4312131760657039
 11
18.1600465160702882
 21
6.8391080577865235
 72
     1
 10
18.1600465160702882
 20
6.8391080577865235
 11
9.4319764821823764
 21
6.8391080577865235
 72
     1
 10
9.4319764821823764
 20
6.8391080577865235
 11
9.4319764821823764
 21
15.4312132874821177
 72
     1
 10
9.4319764821823764
 20
15.4312132874821177
 11
9.4319764821823764
 21
15.4312131760657039
 97
        8
330
76
330
77
330
78
330
79
330
7A
330
7B
330
7C
330
7D
 75
     0
 76
     1
 98
        0
  0
MTEXT
  5
7F
100
AcDbEntity
  8
SPACE
100
AcDbMText
 10
4.291626
 20
7.892421
 30
0.0
 40
0.500004
 41
3.284793
 71
     5
 72
     5
  1
\C7;\fCalibri|b0|i0|;\H0.50000381469727;Garage\P293 sq. ft.\P\P
  0
LINE
  5
81
102
{ACAD_REACTORS
330
85
102
}
100
AcDbEntity
  8
SPACE
  6
CONTINUOUS
100
AcDbLine
 10
19.642503
 20
45.166666
 30
0.0
 11
19.642503
 21
39.935599
 31
0.0
  0
LINE
  5
82
102
{ACAD_REACTORS
330
85
102
}
100
AcDbEntity
  8
SPACE
  6
CONTINUOUS
100
AcDbLine
 10
19.642503
 20
39.935599
 30
0.0
 11
25.023571
 21
39.935599
 31
0.0
  0
LINE
  5
83
102
{ACAD_REACTORS
330
85
102
}
100
AcDbEntity
  8
SPACE
  6
CONTINUOUS
100
AcDbLine
 10
25.023571
 20
39.935599
 30
0.0
 11
25.02357
 21
45.166667
 31
0.0
  0
LINE
  5
84
102
{ACAD_REACTORS
330
85
102
}
100
AcDbEntity
  8
SPACE
  6
CONTINUOUS
100
AcDbLine
 10
25.02357
 20
45.166667
 30
0.0
 11
19.642503
 21
45.166667
 31
0.0
  0
HATCH
  5
85
102
{ACAD_REACTORS
330
80
102
}
100
AcDbEntity
  8
SPACE
 62
     5
100
AcDbHatch
 10
0.0
 20
0.0
 30
0.0
210
0.0
220
0.0
230
1.0
  2
SOLID
 70
     1
 71
     1
 91
        1
 92
        1
 93
        5
 72
     1
 10
19.642502975686952
 20
45.1666664380018474
 11
19.642502975686952
 21
39.9355994163140195
 72
     1
 10
19.642502975686952
 20
39.9355994163140195
 11
25.0235707194388262
 21
39.9355994163140195
 72
     1
 10
25.0235707194388262
 20
39.9355994163140195
 11
25.023570226039574
 21
45.166666666666714
 72
     1
 10
25.023570226039574
 20
45.166666666666714
 11
19.642502975686952
 21
45.1666666666666572
 72
     1
 10
19.642502975686952
 20
45.1666666666666572
 11
19.642502975686952
 21
45.1666664380018474
 97
        4
330
81
330
82
330
83
330
84
 75
     0
 76
     1
 98
        0
  0
MTEXT
  5
86
100
AcDbEntity
  8
SPACE
100
AcDbMText
 10
23.291625
 20
42.309088
 30
0.0
 40
0.500004
 41
3.319019
 71
     5
 72
     5
  1
\C7;\fCalibri|b0|i0|;\H0.50000381469727;Bathroom\P28 sq. ft.\P\P
  0
LWPOLYLINE
  5
88
102
{ACAD_REACTORS
330
89
102
}
100
AcDbEntity
  8
SPACE
  6
CONTINUOUS
100
AcDbPolyline
 90
        4
 70
     1
 10
12.826713
 20
31.501388
 10
12.826713
 20
45.166666
 10
0.356904
 20
45.166667
 10
0.356904
 20
31.501388
  0
HATCH
  5
89
102
{ACAD_REACTORS
330
87
102
}
100
AcDbEntity
  8
SPACE
 62
    10
100
AcDbHatch
 10
0.0
 20
0.0
 30
0.0
210
0.0
220
0.0
230
1.0
  2
SOLID
 70
     1
 71
     1
 91
        1
 92
        3
 72
     0
 73
     1
 93
        4
 10
12.8267132670462516
 20
31.5013883493099982
 10
12.8267132670462516
 20
45.1666664638261039
 10
0.356903559372886
 20
45.1666666666666643
 10
0.356903559372886
 20
31.5013883493099982
 97
        1
330
88
 75
     0
 76
     1
 98
        0
  0
MTEXT
  5
8A
100
AcDbEntity
  8
SPACE
100
AcDbMText
 10
6.791626
 20
37.892421
 30
0.0
 40
0.500004
 41
3.284793
 71
     5
 72
     5
  1
\C7;\fCalibri|b0|i0|;\H0.50000381469727;Bedroom\P170 sq. ft.\P\P
  0
LINE
  5
8C
102
{ACAD_REACTORS
330
90
102
}
100
AcDbEntity
  8
SPACE
  6
CONTINUOUS
100
AcDbLine
 10
25.023571
 20
25.970687
 30
0.0
 11
13.160047
 21
25.970687
 31
0.0
  0
LINE
  5
8D
102
{ACAD_REACTORS
330
90
102
}
100
AcDbEntity
  8
SPACE
  6
CONTINUOUS
100
AcDbLine
 10
13.160047
 20
25.970687
 30
0.0
 11
13.160047
 21
15.764547
 31
0.0
  0
LINE
  5
8E
102
{ACAD_REACTORS
330
90
102
}
100
AcDbEntity
  8
SPACE
  6
CONTINUOUS
100
AcDbLine
 10
13.160047
 20
15.764547
 30
0.0
 11
25.02357
 21
15.764547
 31
0.0
  0
LINE
  5
8F
102
{ACAD_REACTORS
330
90
102
}
100
AcDbEntity
  8
SPACE
  6
CONTINUOUS
100
AcDbLine
 10
25.02357
 20
15.764547
 30
0.0
 11
25.02357
 21
25.970687
 31
0.0
  0
HATCH
  5
90
102
{ACAD_REACTORS
330
8B
102
}
100
AcDbEntity
  8
SPACE
 62
    10
100
AcDbHatch
 10
0.0
 20
0.0
 30
0.0
210
0.0
220
0.0
230
1.0
  2
SOLID
 70
     1
 71
     1
 91
        1
 92
        1
 93
        5
 72
     1
 10
25.0235707194388297
 20
25.970686682561265
 11
13.1600466003795837
 21
25.970686682561265
 72
     1
 10
13.1600466003795837
 20
25.970686682561265
 11
13.1600466003795837
 21
15.7645465093989792
 72
     1
 10
13.1600466003795837
 20
15.7645465093989792
 11
25.0235702260396131
 21
15.7645465093989792
 72
     1
 10
25.0235702260396131
 20
15.7645465093989792
 11
25.0235702260396131
 21
25.970686682561265
 72
     1
 10
25.0235702260396131
 20
25.970686682561265
 11
25.0235707194388297
 21
25.970686682561265
 97
        4
330
8C
330
8D
330
8E
330
8F
 75
     0
 76
     1
 98
        0
  0
MTEXT
  5
91
100
AcDbEntity
  8
SPACE
100
AcDbMText
 10
19.445134
 20
20.892421
 30
0.0
 40
0.500004
 41
3.284793
 71
     5
 72
     5
  1
\C7;\fCalibri|b0|i0|;\H0.50000381469727;Bedroom\P121 sq. ft.\P\P
  0
LWPOLYLINE
  5
93
102
{ACAD_REACTORS
330
94
102
}
100
AcDbEntity
  8
SPACE
  6
CONTINUOUS
100
AcDbPolyline
 90
        4
 70
     1
 10
16.791625
 20
31.168055
 10
16.791625
 20
26.30402
 10
25.023571
 20
26.30402
 10
25.02357
 20
31.168055
  0
HATCH
  5
94
102
{ACAD_REACTORS
330
92
102
}
100
AcDbEntity
  8
SPACE
 62
     5
100
AcDbHatch
 10
0.0
 20
0.0
 30
0.0
210
0.0
220
0.0
230
1.0
  2
SOLID
 70
     1
 71
     1
 91
        1
 92
        3
 72
     0
 73
     1
 93
        4
 10
16.7916254865129169
 20
31.1680549864960099
 10
16.7916254865129169
 20
26.3040200158946007
 10
25.0235707194388297
 20
26.3040200158946007
 10
25.0235702260395811
 20
31.1680550159766838
 97
        1
330
93
 75
     0
 76
     1
 98
        0
  0
MTEXT
  5
95
100
AcDbEntity
  8
SPACE
100
AcDbMText
 10
20.874959
 20
27.892421
 30
0.0
 40
0.500004
 41
3.319019
 71
     5
 72
     5
  1
\C7;\fCalibri|b0|i0|;\H0.50000381469727;Bathroom\P40 sq. ft.\P\P
  0
LWPOLYLINE
  5
97
102
{ACAD_REACTORS
330
98
102
}
100
AcDbEntity
  8
SPACE
  6
CONTINUOUS
100
AcDbPolyline
 90
        4
 70
     1
 10
12.826713
 20
31.168055
 10
0.356904
 20
31.168055
 10
0.356904
 20
15.764547
 10
12.826713
 20
15.764547
  0
HATCH
  5
98
102
{ACAD_REACTORS
330
96
102
}
100
AcDbEntity
  8
SPACE
 62
     2
100
AcDbHatch
 10
0.0
 20
0.0
 30
0.0
210
0.0
220
0.0
230
1.0
  2
SOLID
 70
     1
 71
     1
 91
        1
 92
        3
 72
     0
 73
     1
 93
        4
 10
12.8267132670463084
 20
31.1680550159766625
 10
0.3569035964602231
 20
31.1680550159766625
 10
0.3569035964602231
 20
15.7645470513237829
 10
12.8267132670463084
 20
15.7645470513237829
 97
        1
330
97
 75
     0
 76
     1
 98
        0
  0
MTEXT
  5
99
100
AcDbEntity
  8
SPACE
100
AcDbMText
 10
6.791626
 20
23.309088
 30
0.0
 40
0.500004
 41
3.284793
 71
     5
 72
     5
  1
\C7;\fCalibri|b0|i0|;\H0.50000381469727;Lounge\P192 sq. ft.\P\P
  0
LINE
  5
9B
102
{ACAD_REACTORS
330
A1
102
}
100
AcDbEntity
  8
SPACE
  6
CONTINUOUS
100
AcDbLine
 10
12.826713
 20
11.834722
 30
0.0
 11
12.826713
 21
15.431213
 31
0.0
  0
LINE
  5
9C
102
{ACAD_REACTORS
330
A1
102
}
100
AcDbEntity
  8
SPACE
  6
CONTINUOUS
100
AcDbLine
 10
12.826713
 20
15.431213
 30
0.0
 11
9.76531
 21
15.431213
 31
0.0
  0
LINE
  5
9D
102
{ACAD_REACTORS
330
A1
102
}
100
AcDbEntity
  8
SPACE
  6
CONTINUOUS
100
AcDbLine
 10
9.76531
 20
15.431213
 30
0.0
 11
9.76531
 21
7.172441
 31
0.0
  0
LINE
  5
9E
102
{ACAD_REACTORS
330
A1
102
}
100
AcDbEntity
  8
SPACE
  6
CONTINUOUS
100
AcDbLine
 10
9.76531
 20
7.172441
 30
0.0
 11
17.826713
 21
7.172441
 31
0.0
  0
LINE
  5
9F
102
{ACAD_REACTORS
330
A1
102
}
100
AcDbEntity
  8
SPACE
  6
CONTINUOUS
100
AcDbLine
 10
17.826713
 20
7.172441
 30
0.0
 11
17.826713
 21
11.834722
 31
0.0
  0
LINE
  5
A0
102
{ACAD_REACTORS
330
A1
102
}
100
AcDbEntity
  8
SPACE
  6
CONTINUOUS
100
AcDbLine
 10
17.826713
 20
11.834722
 30
0.0
 11
12.826713
 21
11.834722
 31
0.0
  0
HATCH
  5
A1
102
{ACAD_REACTORS
330
9A
102
}
100
AcDbEntity
  8
SPACE
 62
   214
100
AcDbHatch
 10
0.0
 20
0.0
 30
0.0
210
0.0
220
0.0
230
1.0
  2
SOLID
 70
     1
 71
     1
 91
        1
 92
        1
 93
        7
 72
     1
 10
12.8267132670462196
 20
11.8347220030182712
 11
12.8267132670462196
 21
15.4312131760656577
 72
     1
 10
12.8267132670462196
 20
15.4312131760656577
 11
9.7653098155157991
 21
15.4312131760656577
 72
     1
 10
9.7653098155157991
 20
15.4312131760656577
 11
9.7653098155157991
 21
7.1724413911198086
 72
     1
 10
9.7653098155157991
 20
7.1724413911198086
 11
17.8267130900519497
 21
7.1724413911198086
 72
     1
 10
17.8267130900519497
 20
7.1724413911198086
 11
17.8267131827370484
 21
11.8347220030182712
 72
     1
 10
17.8267131827370484
 20
11.8347220030182712
 11
12.8267131827370804
 21
11.8347220030182712
 72
     1
 10
12.8267131827370804
 20
11.8347220030182712
 11
12.8267132670462196
 21
11.8347220030182712
 97
        6
330
9B
330
9C
330
9D
330
9E
330
9F
330
A0
 75
     0
 76
     1
 98
        0
  0
MTEXT
  5
A2
100
AcDbEntity
  8
SPACE
100
AcDbMText
 10
11.791626
 20
9.892421
 30
0.0
 40
0.500004
 41
2.946903
 71
     5
 72
     5
  1
\C7;\fCalibri|b0|i0|;\H0.50000381469727;Store\P49 sq. ft.\P\P
  0
LWPOLYLINE
  5
A4
102
{ACAD_REACTORS
330
A5
102
}
100
AcDbEntity
  8
SPACE
  6
CONTINUOUS
100
AcDbPolyline
 90
        4
 70
     1
 10
13.160047
 20
12.168055
 10
17.826713
 20
12.168055
 10
17.826713
 20
15.431213
 10
13.160047
 20
15.431213
  0
HATCH
  5
A5
102
{ACAD_REACTORS
330
A3
102
}
100
AcDbEntity
  8
SPACE
 62
   251
100
AcDbHatch
 10
0.0
 20
0.0
 30
0.0
210
0.0
220
0.0
230
1.0
  2
SOLID
 70
     1
 71
     1
 91
        1
 92
        3
 72
     0
 73
     1
 93
        4
 10
13.1600465160703823
 20
12.1680553363516353
 10
17.8267131827370484
 20
12.1680553363516353
 10
17.8267131827370484
 20
15.4312132874821177
 10
13.1600465160703823
 20
15.4312131760656683
 97
        1
330
A4
 75
     0
 76
     1
 98
        0
  0
MTEXT
  5
A6
100
AcDbEntity
  8
SPACE
100
AcDbMText
 10
15.49338
 20
13.33979
 30
0.0
 40
0.500004
 41
4.105793
 71
     5
 72
     5
  1
\C7;\fCalibri|b0|i0|;\H0.50000381469727;Prayer Room\P15 sq. ft.\P\P
  0
LINE
  5
A8
102
{ACAD_REACTORS
330
AC
102
}
100
AcDbEntity
  8
SPACE
  6
CONTINUOUS
100
AcDbLine
 10
25.023571
 20
39.602266
 30
0.0
 11
13.160047
 21
39.602266
 31
0.0
  0
LINE
  5
A9
102
{ACAD_REACTORS
330
AC
102
}
100
AcDbEntity
  8
SPACE
  6
CONTINUOUS
100
AcDbLine
 10
13.160047
 20
39.602266
 30
0.0
 11
13.160047
 21
31.501388
 31
0.0
  0
LINE
  5
AA
102
{ACAD_REACTORS
330
AC
102
}
100
AcDbEntity
  8
SPACE
  6
CONTINUOUS
100
AcDbLine
 10
13.160047
 20
31.501388
 30
0.0
 11
25.02357
 21
31.501388
 31
0.0
  0
LINE
  5
AB
102
{ACAD_REACTORS
330
AC
102
}
100
AcDbEntity
  8
SPACE
  6
CONTINUOUS
100
AcDbLine
 10
25.02357
 20
31.501388
 30
0.0
 11
25.02357
 21
39.602266
 31
0.0
  0
HATCH
  5
AC
102
{ACAD_REACTORS
330
A7
102
}
100
AcDbEntity
  8
SPACE
 62
    40
100
AcDbHatch
 10
0.0
 20
0.0
 30
0.0
210
0.0
220
0.0
230
1.0
  2
SOLID
 70
     1
 71
     1
 91
        1
 92
        1
 93
        5
 72
     1
 10
25.0235707194388297
 20
39.602266082980691
 11
13.1600466003795837
 21
39.602266082980691
 72
     1
 10
13.1600466003795837
 20
39.602266082980691
 11
13.1600466003795837
 21
31.5013883493100053
 72
     1
 10
13.1600466003795837
 20
31.5013883493100053
 11
25.0235702260396131
 21
31.5013883493100053
 72
     1
 10
25.0235702260396131
 20
31.5013883493100053
 11
25.0235702260396131
 21
39.602266082980691
 72
     1
 10
25.0235702260396131
 20
39.602266082980691
 11
25.0235707194388297
 21
39.602266082980691
 97
        4
330
A8
330
A9
330
AA
330
AB
 75
     0
 76
     1
 98
        0
  0
MTEXT
  5
AD
100
AcDbEntity
  8
SPACE
100
AcDbMText
 10
19.445134
 20
35.392421
 30
0.0
 40
0.500004
 41
2.946903
 71
     5
 72
     5
  1
\C7;\fCalibri|b0|i0|;\H0.50000381469727;Kitchen\P96 sq. ft.\P\P
  0
LINE
  5
AF
102
{ACAD_REACTORS
330
B3
102
}
100
AcDbEntity
  8
SPACE
  6
CONTINUOUS
100
AcDbLine
 10
19.30917
 20
45.166667
 30
0.0
 11
13.160047
 21
45.166667
 31
0.0
  0
LINE
  5
B0
102
{ACAD_REACTORS
330
B3
102
}
100
AcDbEntity
  8
SPACE
  6
CONTINUOUS
100
AcDbLine
 10
13.160047
 20
45.166667
 30
0.0
 11
13.160047
 21
39.935599
 31
0.0
  0
LINE
  5
B1
102
{ACAD_REACTORS
330
B3
102
}
100
AcDbEntity
  8
SPACE
  6
CONTINUOUS
100
AcDbLine
 10
13.160047
 20
39.935599
 30
0.0
 11
19.30917
 21
39.935599
 31
0.0
  0
LINE
  5
B2
102
{ACAD_REACTORS
330
B3
102
}
100
AcDbEntity
  8
SPACE
  6
CONTINUOUS
100
AcDbLine
 10
19.30917
 20
39.935599
 30
0.0
 11
19.30917
 21
45.166666
 31
0.0
  0
HATCH
  5
B3
102
{ACAD_REACTORS
330
AE
102
}
100
AcDbEntity
  8
SPACE
 62
     4
100
AcDbHatch
 10
0.0
 20
0.0
 30
0.0
210
0.0
220
0.0
230
1.0
  2
SOLID
 70
     1
 71
     1
 91
        1
 92
        1
 93
        5
 72
     1
 10
19.3091696423536163
 20
45.1666666666666856
 11
13.160046600379582
 21
45.1666666666666856
 72
     1
 10
13.160046600379582
 20
45.1666666666666856
 11
13.160046600379582
 21
39.9355994163140409
 72
     1
 10
13.160046600379582
 20
39.9355994163140409
 11
19.3091696423536163
 21
39.9355994163140409
 72
     1
 10
19.3091696423536163
 20
39.9355994163140409
 11
19.3091696423536163
 21
45.1666664380018759
 72
     1
 10
19.3091696423536163
 20
45.1666664380018759
 11
19.3091696423536163
 21
45.1666666666666856
 97
        4
330
AF
330
B0
330
B1
330
B2
 75
     0
 76
     1
 98
        0
  0
MTEXT
  5
B4
100
AcDbEntity
  8
SPACE
100
AcDbMText
 10
16.291625
 20
41.892421
 30
0.0
 40
0.500004
 41
3.809253
 71
     5
 72
     5
  1
\C7;\fCalibri|b0|i0|;\H0.50000381469727;Open Space\P32 sq. ft.\P\P
  0
LWPOLYLINE
  5
B6
102
{ACAD_REACTORS
330
B7
102
}
100
AcDbEntity
  8
SPACE
  6
CONTINUOUS
100
AcDbPolyline
 90
        4
 70
     1
 10
16.458292
 20
31.168055
 10
13.160047
 20
31.168055
 10
13.160047
 20
26.30402
 10
16.458292
 20
26.30402
  0
HATCH
  5
B7
102
{ACAD_REACTORS
330
B5
102
}
100
AcDbEntity
  8
SPACE
 62
     6
100
AcDbHatch
 10
0.0
 20
0.0
 30
0.0
210
0.0
220
0.0
230
1.0
  2
SOLID
 70
     1
 71
     1
 91
        1
 92
        3
 72
     0
 73
     1
 93
        4
 10
16.4582921531795705
 20
31.1680550159766341
 10
13.1600467003776593
 20
31.1680550159766341
 10
13.1600467003776593
 20
26.3040200158946007
 10
16.4582921531795705
 20
26.3040200158946007
 97
        1
330
B6
 75
     0
 76
     1
 98
        0
  0
MTEXT
  5
B8
100
AcDbEntity
  8
SPACE
100
AcDbMText
 10
14.80917
 20
28.676412
 30
0.0
 40
0.500004
 41
2.946903
 71
     5
 72
     5
  1
\C7;\fCalibri|b0|i0|;\H0.50000381469727;Lobby\P16 sq. ft.\P\P
  0
LWPOLYLINE
  5
BB
102
{ACAD_REACTORS
330
BC
102
}
100
AcDbEntity
  8
BUILDING_ENVELOPE
  6
CONTINUOUS
 62
     7
100
AcDbPolyline
 90
        4
 70
     1
 10
0.356904
 20
45.166667
 10
0.356904
 20
0.5
 10
0.02357
 20
0.166667
 10
0.02357
 20
45.5
  0
HATCH
  5
BC
102
{ACAD_REACTORS
330
B9
102
}
100
AcDbEntity
  8
BUILDING_ENVELOPE
 62
     7
100
AcDbHatch
 10
0.0
 20
0.0
 30
0.0
210
0.0
220
0.0
230
1.0
  2
SOLID
 70
     1
 71
     1
 91
        1
 92
        3
 72
     0
 73
     1
 93
        4
 10
0.3569035593728856
 20
45.1666666666666643
 10
0.3569035593728856
 20
0.5
 10
0.0235702260395523
 20
0.1666666666666667
 10
0.0235702260395523
 20
45.5
 97
        1
330
BB
 75
     0
 76
     1
 98
        0
  0
LINE
  5
BD
102
{ACAD_REACTORS
330
B9
102
}
100
AcDbEntity
  8
BUILDING_ENVELOPE
  6
CONTINUOUS
 62
     7
100
AcDbLine
 10
0.356904
 20
45.166667
 30
0.0
 11
0.356904
 21
0.5
 31
0.0
  0
LINE
  5
BE
102
{ACAD_REACTORS
330
B9
102
}
100
AcDbEntity
  8
BUILDING_ENVELOPE
  6
CONTINUOUS
 62
     7
100
AcDbLine
 10
0.02357
 20
45.5
 30
0.0
 11
0.02357
 21
0.166667
 31
0.0
  0
LWPOLYLINE
  5
C0
102
{ACAD_REACTORS
330
C1
102
}
100
AcDbEntity
  8
BUILDING_ENVELOPE
  6
CONTINUOUS
 62
     7
100
AcDbPolyline
 90
        4
 70
     1
 10
25.356904
 20
45.5
 10
25.356904
 20
0.166667
 10
25.02357
 20
0.5
 10
25.02357
 20
45.166667
  0
HATCH
  5
C1
102
{ACAD_REACTORS
330
BF
102
}
100
AcDbEntity
  8
BUILDING_ENVELOPE
 62
     7
100
AcDbHatch
 10
0.0
 20
0.0
 30
0.0
210
0.0
220
0.0
230
1.0
  2
SOLID
 70
     1
 71
     1
 91
        1
 92
        3
 72
     0
 73
     1
 93
        4
 10
25.3569035593728813
 20
45.5000000000000355
 10
25.3569035593728813
 20
0.1666666666667045
 10
25.0235702260395456
 20
0.5000000000000379
 10
25.0235702260395456
 20
45.1666666666666998
 97
        1
330
C0
 75
     0
 76
     1
 98
        0
  0
LINE
  5
C2
102
{ACAD_REACTORS
330
BF
102
}
100
AcDbEntity
  8
BUILDING_ENVELOPE
  6
CONTINUOUS
 62
     7
100
AcDbLine
 10
25.356904
 20
45.5
 30
0.0
 11
25.356904
 21
0.166667
 31
0.0
  0
LINE
  5
C3
102
{ACAD_REACTORS
330
BF
102
}
100
AcDbEntity
  8
BUILDING_ENVELOPE
  6
CONTINUOUS
 62
     7
100
AcDbLine
 10
25.02357
 20
45.166667
 30
0.0
 11
25.02357
 21
0.5
 31
0.0
  0
LWPOLYLINE
  5
C5
102
{ACAD_REACTORS
330
C6
102
}
100
AcDbEntity
  8
BUILDING_ENVELOPE
  6
CONTINUOUS
 62
     7
100
AcDbPolyline
 90
        4
 70
     1
 10
0.02357
 20
45.5
 10
25.356904
 20
45.5
 10
25.02357
 20
45.166667
 10
0.356904
 20
45.166667
  0
HATCH
  5
C6
102
{ACAD_REACTORS
330
C4
102
}
100
AcDbEntity
  8
BUILDING_ENVELOPE
 62
     7
100
AcDbHatch
 10
0.0
 20
0.0
 30
0.0
210
0.0
220
0.0
230
1.0
  2
SOLID
 70
     1
 71
     1
 91
        1
 92
        3
 72
     0
 73
     1
 93
        4
 10
0.0235702260395479
 20
45.5
 10
25.3569035593728813
 20
45.5
 10
25.0235702260395456
 20
45.1666666666666643
 10
0.3569035593728836
 20
45.1666666666666643
 97
        1
330
C5
 75
     0
 76
     1
 98
        0
  0
LINE
  5
C7
102
{ACAD_REACTORS
330
C4
102
}
100
AcDbEntity
  8
BUILDING_ENVELOPE
  6
CONTINUOUS
 62
     7
100
AcDbLine
 10
0.02357
 20
45.5
 30
0.0
 11
25.356904
 21
45.5
 31
0.0
  0
LINE
  5
C8
102
{ACAD_REACTORS
330
C4
102
}
100
AcDbEntity
  8
BUILDING_ENVELOPE
  6
CONTINUOUS
 62
     7
100
AcDbLine
 10
0.356904
 20
45.166667
 30
0.0
 11
25.02357
 21
45.166667
 31
0.0
  0
LWPOLYLINE
  5
CA
102
{ACAD_REACTORS
330
CB
102
}
100
AcDbEntity
  8
BUILDING_ENVELOPE
  6
CONTINUOUS
 62
     7
100
AcDbPolyline
 90
        4
 70
     1
 10
0.356904
 20
0.5
 10
25.02357
 20
0.5
 10
25.356904
 20
0.166667
 10
0.02357
 20
0.166667
  0
HATCH
  5
CB
102
{ACAD_REACTORS
330
C9
102
}
100
AcDbEntity
  8
BUILDING_ENVELOPE
 62
     7
100
AcDbHatch
 10
0.0
 20
0.0
 30
0.0
210
0.0
220
0.0
230
1.0
  2
SOLID
 70
     1
 71
     1
 91
        1
 92
        3
 72
     0
 73
     1
 93
        4
 10
0.356903559372879
 20
0.5
 10
25.0235702260395456
 20
0.5
 10
25.3569035593728813
 20
0.1666666666666667
 10
0.0235702260395504
 20
0.1666666666666667
 97
        1
330
CA
 75
     0
 76
     1
 98
        0
  0
LINE
  5
CC
102
{ACAD_REACTORS
330
C9
102
}
100
AcDbEntity
  8
BUILDING_ENVELOPE
  6
CONTINUOUS
 62
     7
100
AcDbLine
 10
0.356904
 20
0.5
 30
0.0
 11
25.02357
 21
0.5
 31
0.0
  0
LINE
  5
CD
102
{ACAD_REACTORS
330
C9
102
}
100
AcDbEntity
  8
BUILDING_ENVELOPE
  6
CONTINUOUS
 62
     7
100
AcDbLine
 10
0.02357
 20
0.166667
 30
0.0
 11
25.356904
 21
0.166667
 31
0.0
  0
LWPOLYLINE
  5
CF
102
{ACAD_REACTORS
330
D0
102
}
100
AcDbEntity
  8
BUILDING_ENVELOPE
  6
CONTINUOUS
 62
     7
100
AcDbPolyline
 90
        4
 70
     1
 10
0.356904
 20
31.501388
 10
25.02357
 20
31.501388
 10
25.02357
 20
31.168055
 10
0.356904
 20
31.168055
  0
HATCH
  5
D0
102
{ACAD_REACTORS
330
CE
102
}
100
AcDbEntity
  8
BUILDING_ENVELOPE
 62
     7
100
AcDbHatch
 10
0.0
 20
0.0
 30
0.0
210
0.0
220
0.0
230
1.0
  2
SOLID
 70
     1
 71
     1
 91
        1
 92
        3
 72
     0
 73
     1
 93
        4
 10
0.356903559372879
 20
31.5013883493100089
 10
25.0235702260395456
 20
31.5013883493100089
 10
25.0235702260395456
 20
31.1680550159766767
 10
0.3569035593728836
 20
31.1680550159766767
 97
        1
330
CF
 75
     0
 76
     1
 98
        0
  0
LWPOLYLINE
  5
D1
102
{ACAD_REACTORS
330
D2
102
}
100
AcDbEntity
  8
BUILDING_ENVELOPE
  6
CONTINUOUS
 62
     7
100
AcDbPolyline
 90
        4
 70
     1
 10
0.356904
 20
31.168055
 10
0.356904
 20
31.501388
 10
0.32357
 20
31.501388
 10
0.32357
 20
31.168055
  0
HATCH
  5
D2
102
{ACAD_REACTORS
330
CE
102
}
100
AcDbEntity
  8
BUILDING_ENVELOPE
 62
     7
100
AcDbHatch
 10
0.0
 20
0.0
 30
0.0
210
0.0
220
0.0
230
1.0
  2
SOLID
 70
     1
 71
     1
 91
        1
 92
        3
 72
     0
 73
     1
 93
        4
 10
0.3569035593728813
 20
31.1680550159766767
 10
0.3569035593728813
 20
31.5013883493100089
 10
0.323570226039548
 20
31.5013883493100089
 10
0.323570226039548
 20
31.1680550159766767
 97
        1
330
D1
 75
     0
 76
     1
 98
        0
  0
LWPOLYLINE
  5
D3
102
{ACAD_REACTORS
330
D4
102
}
100
AcDbEntity
  8
BUILDING_ENVELOPE
  6
CONTINUOUS
 62
     7
100
AcDbPolyline
 90
        4
 70
     1
 10
25.02357
 20
31.501388
 10
25.02357
 20
31.168055
 10
25.056904
 20
31.168055
 10
25.056904
 20
31.501388
  0
HATCH
  5
D4
102
{ACAD_REACTORS
330
CE
102
}
100
AcDbEntity
  8
BUILDING_ENVELOPE
 62
     7
100
AcDbHatch
 10
0.0
 20
0.0
 30
0.0
210
0.0
220
0.0
230
1.0
  2
SOLID
 70
     1
 71
     1
 91
        1
 92
        3
 72
     0
 73
     1
 93
        4
 10
25.0235702260395456
 20
31.5013883493100089
 10
25.0235702260395456
 20
31.1680550159766767
 10
25.0569035593728771
 20
31.1680550159766767
 10
25.0569035593728771
 20
31.5013883493100089
 97
        1
330
D3
 75
     0
 76
     1
 98
        0
  0
LINE
  5
D5
102
{ACAD_REACTORS
330
CE
102
}
100
AcDbEntity
  8
BUILDING_ENVELOPE
  6
CONTINUOUS
 62
     7
100
AcDbLine
 10
0.356904
 20
31.501388
 30
0.0
 11
25.02357
 21
31.501388
 31
0.0
  0
LINE
  5
D6
102
{ACAD_REACTORS
330
CE
102
}
100
AcDbEntity
  8
BUILDING_ENVELOPE
  6
CONTINUOUS
 62
     7
100
AcDbLine
 10
0.356904
 20
31.168055
 30
0.0
 11
25.02357
 21
31.168055
 31
0.0
  0
LWPOLYLINE
  5
D8
102
{ACAD_REACTORS
330
D9
102
}
100
AcDbEntity
  8
BUILDING_ENVELOPE
  6
CONTINUOUS
 62
     7
100
AcDbPolyline
 90
        4
 70
     1
 10
0.356904
 20
15.764547
 10
25.02357
 20
15.764547
 10
25.02357
 20
15.431213
 10
0.356904
 20
15.431213
  0
HATCH
  5
D9
102
{ACAD_REACTORS
330
D7
102
}
100
AcDbEntity
  8
BUILDING_ENVELOPE
 62
     7
100
AcDbHatch
 10
0.0
 20
0.0
 30
0.0
210
0.0
220
0.0
230
1.0
  2
SOLID
 70
     1
 71
     1
 91
        1
 92
        3
 72
     0
 73
     1
 93
        4
 10
0.3569035593728796
 20
15.7645465093989827
 10
25.0235702260395456
 20
15.7645465093989827
 10
25.0235702260395456
 20
15.4312131760656488
 10
0.3569035593728836
 20
15.4312131760656488
 97
        1
330
D8
 75
     0
 76
     1
 98
        0
  0
LWPOLYLINE
  5
DA
102
{ACAD_REACTORS
330
DB
102
}
100
AcDbEntity
  8
BUILDING_ENVELOPE
  6
CONTINUOUS
 62
     7
100
AcDbPolyline
 90
        4
 70
     1
 10
0.356904
 20
15.431213
 10
0.356904
 20
15.764547
 10
0.32357
 20
15.764547
 10
0.32357
 20
15.431213
  0
HATCH
  5
DB
102
{ACAD_REACTORS
330
D7
102
}
100
AcDbEntity
  8
BUILDING_ENVELOPE
 62
     7
100
AcDbHatch
 10
0.0
 20
0.0
 30
0.0
210
0.0
220
0.0
230
1.0
  2
SOLID
 70
     1
 71
     1
 91
        1
 92
        3
 72
     0
 73
     1
 93
        4
 10
0.3569035593728817
 20
15.4312131760656488
 10
0.3569035593728817
 20
15.7645465093989827
 10
0.3235702260395483
 20
15.7645465093989827
 10
0.3235702260395483
 20
15.4312131760656488
 97
        1
330
DA
 75
     0
 76
     1
 98
        0
  0
LWPOLYLINE
  5
DC
102
{ACAD_REACTORS
330
DD
102
}
100
AcDbEntity
  8
BUILDING_ENVELOPE
  6
CONTINUOUS
 62
     7
100
AcDbPolyline
 90
        4
 70
     1
 10
25.02357
 20
15.764547
 10
25.02357
 20
15.431213
 10
25.056904
 20
15.431213
 10
25.056904
 20
15.764547
  0
HATCH
  5
DD
102
{ACAD_REACTORS
330
D7
102
}
100
AcDbEntity
  8
BUILDING_ENVELOPE
 62
     7
100
AcDbHatch
 10
0.0
 20
0.0
 30
0.0
210
0.0
220
0.0
230
1.0
  2
SOLID
 70
     1
 71
     1
 91
        1
 92
        3
 72
     0
 73
     1
 93
        4
 10
25.0235702260395456
 20
15.7645465093989827
 10
25.0235702260395456
 20
15.4312131760656488
 10
25.0569035593728771
 20
15.4312131760656488
 10
25.0569035593728771
 20
15.7645465093989827
 97
        1
330
DC
 75
     0
 76
     1
 98
        0
  0
LINE
  5
DE
102
{ACAD_REACTORS
330
D7
102
}
100
AcDbEntity
  8
BUILDING_ENVELOPE
  6
CONTINUOUS
 62
     7
100
AcDbLine
 10
0.356904
 20
15.764547
 30
0.0
 11
25.02357
 21
15.764547
 31
0.0
  0
LINE
  5
DF
102
{ACAD_REACTORS
330
D7
102
}
100
AcDbEntity
  8
BUILDING_ENVELOPE
  6
CONTINUOUS
 62
     7
100
AcDbLine
 10
0.356904
 20
15.431213
 30
0.0
 11
25.02357
 21
15.431213
 31
0.0
  0
LWPOLYLINE
  5
E1
102
{ACAD_REACTORS
330
E2
102
}
100
AcDbEntity
  8
BUILDING_ENVELOPE
  6
CONTINUOUS
 62
     7
100
AcDbPolyline
 90
        4
 70
     1
 10
12.826713
 20
15.764547
 10
12.826713
 20
45.166667
 10
13.160047
 20
45.166667
 10
13.160047
 20
15.764547
  0
HATCH
  5
E2
102
{ACAD_REACTORS
330
E0
102
}
100
AcDbEntity
  8
BUILDING_ENVELOPE
 62
     7
100
AcDbHatch
 10
0.0
 20
0.0
 30
0.0
210
0.0
220
0.0
230
1.0
  2
SOLID
 70
     1
 71
     1
 91
        1
 92
        3
 72
     0
 73
     1
 93
        4
 10
12.826713267046248
 20
15.7645465093989792
 10
12.826713267046248
 20
45.1666666666666572
 10
13.160046600379582
 20
45.1666666666666643
 10
13.160046600379582
 20
15.7645465093989845
 97
        1
330
E1
 75
     0
 76
     1
 98
        0
  0
LWPOLYLINE
  5
E3
102
{ACAD_REACTORS
330
E4
102
}
100
AcDbEntity
  8
BUILDING_ENVELOPE
  6
CONTINUOUS
 62
     7
100
AcDbPolyline
 90
        4
 70
     1
 10
13.160047
 20
15.764547
 10
12.826713
 20
15.764547
 10
12.826713
 20
15.731213
 10
13.160047
 20
15.731213
  0
HATCH
  5
E4
102
{ACAD_REACTORS
330
E0
102
}
100
AcDbEntity
  8
BUILDING_ENVELOPE
 62
     7
100
AcDbHatch
 10
0.0
 20
0.0
 30
0.0
210
0.0
220
0.0
230
1.0
  2
SOLID
 70
     1
 71
     1
 91
        1
 92
        3
 72
     0
 73
     1
 93
        4
 10
13.160046600379582
 20
15.7645465093989827
 10
12.826713267046248
 20
15.7645465093989827
 10
12.826713267046248
 20
15.7312131760656477
 10
13.160046600379582
 20
15.7312131760656477
 97
        1
330
E3
 75
     0
 76
     1
 98
        0
  0
LWPOLYLINE
  5
E5
102
{ACAD_REACTORS
330
E6
102
}
100
AcDbEntity
  8
BUILDING_ENVELOPE
  6
CONTINUOUS
 62
     7
100
AcDbPolyline
 90
        4
 70
     1
 10
12.826713
 20
45.166667
 10
13.160047
 20
45.166667
 10
13.160047
 20
45.2
 10
12.826713
 20
45.2
  0
HATCH
  5
E6
102
{ACAD_REACTORS
330
E0
102
}
100
AcDbEntity
  8
BUILDING_ENVELOPE
 62
     7
100
AcDbHatch
 10
0.0
 20
0.0
 30
0.0
210
0.0
220
0.0
230
1.0
  2
SOLID
 70
     1
 71
     1
 91
        1
 92
        3
 72
     0
 73
     1
 93
        4
 10
12.826713267046248
 20
45.1666666666666643
 10
13.160046600379582
 20
45.1666666666666643
 10
13.160046600379582
 20
45.1999999999999957
 10
12.826713267046248
 20
45.1999999999999957
 97
        1
330
E5
 75
     0
 76
     1
 98
        0
  0
LINE
  5
E7
102
{ACAD_REACTORS
330
E0
102
}
100
AcDbEntity
  8
BUILDING_ENVELOPE
  6
CONTINUOUS
 62
     7
100
AcDbLine
 10
12.826713
 20
15.764547
 30
0.0
 11
12.826713
 21
45.166667
 31
0.0
  0
LINE
  5
E8
102
{ACAD_REACTORS
330
E0
102
}
100
AcDbEntity
  8
BUILDING_ENVELOPE
  6
CONTINUOUS
 62
     7
100
AcDbLine
 10
13.160047
 20
15.764547
 30
0.0
 11
13.160047
 21
45.166667
 31
0.0
  0
LWPOLYLINE
  5
EA
102
{ACAD_REACTORS
330
EB
102
}
100
AcDbEntity
  8
BUILDING_ENVELOPE
  6
CONTINUOUS
 62
     7
100
AcDbPolyline
 90
        4
 70
     1
 10
13.160047
 20
39.935599
 10
25.02357
 20
39.935599
 10
25.02357
 20
39.602266
 10
13.160047
 20
39.602266
  0
HATCH
  5
EB
102
{ACAD_REACTORS
330
E9
102
}
100
AcDbEntity
  8
BUILDING_ENVELOPE
 62
     7
100
AcDbHatch
 10
0.0
 20
0.0
 30
0.0
210
0.0
220
0.0
230
1.0
  2
SOLID
 70
     1
 71
     1
 91
        1
 92
        3
 72
     0
 73
     1
 93
        4
 10
13.160046600379582
 20
39.9355994163140195
 10
25.0235702260395456
 20
39.9355994163140195
 10
25.0235702260395456
 20
39.602266082980691
 10
13.160046600379582
 20
39.602266082980691
 97
        1
330
EA
 75
     0
 76
     1
 98
        0
  0
LWPOLYLINE
  5
EC
102
{ACAD_REACTORS
330
ED
102
}
100
AcDbEntity
  8
BUILDING_ENVELOPE
  6
CONTINUOUS
 62
     7
100
AcDbPolyline
 90
        4
 70
     1
 10
13.160047
 20
39.602266
 10
13.160047
 20
39.935599
 10
13.126713
 20
39.935599
 10
13.126713
 20
39.602266
  0
HATCH
  5
ED
102
{ACAD_REACTORS
330
E9
102
}
100
AcDbEntity
  8
BUILDING_ENVELOPE
 62
     7
100
AcDbHatch
 10
0.0
 20
0.0
 30
0.0
210
0.0
220
0.0
230
1.0
  2
SOLID
 70
     1
 71
     1
 91
        1
 92
        3
 72
     0
 73
     1
 93
        4
 10
13.160046600379582
 20
39.602266082980691
 10
13.160046600379582
 20
39.9355994163140195
 10
13.1267132670462487
 20
39.9355994163140195
 10
13.1267132670462487
 20
39.602266082980691
 97
        1
330
EC
 75
     0
 76
     1
 98
        0
  0
LWPOLYLINE
  5
EE
102
{ACAD_REACTORS
330
EF
102
}
100
AcDbEntity
  8
BUILDING_ENVELOPE
  6
CONTINUOUS
 62
     7
100
AcDbPolyline
 90
        4
 70
     1
 10
25.02357
 20
39.935599
 10
25.02357
 20
39.602266
 10
25.056904
 20
39.602266
 10
25.056904
 20
39.935599
  0
HATCH
  5
EF
102
{ACAD_REACTORS
330
E9
102
}
100
AcDbEntity
  8
BUILDING_ENVELOPE
 62
     7
100
AcDbHatch
 10
0.0
 20
0.0
 30
0.0
210
0.0
220
0.0
230
1.0
  2
SOLID
 70
     1
 71
     1
 91
        1
 92
        3
 72
     0
 73
     1
 93
        4
 10
25.0235702260395456
 20
39.9355994163140195
 10
25.0235702260395456
 20
39.602266082980691
 10
25.0569035593728842
 20
39.602266082980691
 10
25.0569035593728842
 20
39.9355994163140195
 97
        1
330
EE
 75
     0
 76
     1
 98
        0
  0
LINE
  5
F0
102
{ACAD_REACTORS
330
E9
102
}
100
AcDbEntity
  8
BUILDING_ENVELOPE
  6
CONTINUOUS
 62
     7
100
AcDbLine
 10
13.160047
 20
39.935599
 30
0.0
 11
25.02357
 21
39.935599
 31
0.0
  0
LINE
  5
F1
102
{ACAD_REACTORS
330
E9
102
}
100
AcDbEntity
  8
BUILDING_ENVELOPE
  6
CONTINUOUS
 62
     7
100
AcDbLine
 10
13.160047
 20
39.602266
 30
0.0
 11
25.02357
 21
39.602266
 31
0.0
  0
LWPOLYLINE
  5
F3
102
{ACAD_REACTORS
330
F4
102
}
100
AcDbEntity
  8
BUILDING_ENVELOPE
  6
CONTINUOUS
 62
     7
100
AcDbPolyline
 90
        4
 70
     1
 10
13.160047
 20
26.30402
 10
25.02357
 20
26.30402
 10
25.02357
 20
25.970687
 10
13.160047
 20
25.970687
  0
HATCH
  5
F4
102
{ACAD_REACTORS
330
F2
102
}
100
AcDbEntity
  8
BUILDING_ENVELOPE
 62
     7
100
AcDbHatch
 10
0.0
 20
0.0
 30
0.0
210
0.0
220
0.0
230
1.0
  2
SOLID
 70
     1
 71
     1
 91
        1
 92
        3
 72
     0
 73
     1
 93
        4
 10
13.160046600379582
 20
26.3040200158945972
 10
25.0235702260395456
 20
26.3040200158945972
 10
25.0235702260395456
 20
25.970686682561265
 10
13.160046600379582
 20
25.970686682561265
 97
        1
330
F3
 75
     0
 76
     1
 98
        0
  0
LWPOLYLINE
  5
F5
102
{ACAD_REACTORS
330
F6
102
}
100
AcDbEntity
  8
BUILDING_ENVELOPE
  6
CONTINUOUS
 62
     7
100
AcDbPolyline
 90
        4
 70
     1
 10
13.160047
 20
25.970687
 10
13.160047
 20
26.30402
 10
13.126713
 20
26.30402
 10
13.126713
 20
25.970687
  0
HATCH
  5
F6
102
{ACAD_REACTORS
330
F2
102
}
100
AcDbEntity
  8
BUILDING_ENVELOPE
 62
     7
100
AcDbHatch
 10
0.0
 20
0.0
 30
0.0
210
0.0
220
0.0
230
1.0
  2
SOLID
 70
     1
 71
     1
 91
        1
 92
        3
 72
     0
 73
     1
 93
        4
 10
13.160046600379582
 20
25.970686682561265
 10
13.160046600379582
 20
26.3040200158945972
 10
13.1267132670462487
 20
26.3040200158945972
 10
13.1267132670462487
 20
25.970686682561265
 97
        1
330
F5
 75
     0
 76
     1
 98
        0
  0
LWPOLYLINE
  5
F7
102
{ACAD_REACTORS
330
F8
102
}
100
AcDbEntity
  8
BUILDING_ENVELOPE
  6
CONTINUOUS
 62
     7
100
AcDbPolyline
 90
        4
 70
     1
 10
25.02357
 20
26.30402
 10
25.02357
 20
25.970687
 10
25.056904
 20
25.970687
 10
25.056904
 20
26.30402
  0
HATCH
  5
F8
102
{ACAD_REACTORS
330
F2
102
}
100
AcDbEntity
  8
BUILDING_ENVELOPE
 62
     7
100
AcDbHatch
 10
0.0
 20
0.0
 30
0.0
210
0.0
220
0.0
230
1.0
  2
SOLID
 70
     1
 71
     1
 91
        1
 92
        3
 72
     0
 73
     1
 93
        4
 10
25.0235702260395456
 20
26.3040200158945972
 10
25.0235702260395456
 20
25.970686682561265
 10
25.0569035593728842
 20
25.970686682561265
 10
25.0569035593728842
 20
26.3040200158945972
 97
        1
330
F7
 75
     0
 76
     1
 98
        0
  0
LINE
  5
F9
102
{ACAD_REACTORS
330
F2
102
}
100
AcDbEntity
  8
BUILDING_ENVELOPE
  6
CONTINUOUS
 62
     7
100
AcDbLine
 10
13.160047
 20
26.30402
 30
0.0
 11
25.02357
 21
26.30402
 31
0.0
  0
LINE
  5
FA
102
{ACAD_REACTORS
330
F2
102
}
100
AcDbEntity
  8
BUILDING_ENVELOPE
  6
CONTINUOUS
 62
     7
100
AcDbLine
 10
13.160047
 20
25.970687
 30
0.0
 11
25.02357
 21
25.970687
 31
0.0
  0
LWPOLYLINE
  5
FC
102
{ACAD_REACTORS
330
FD
102
}
100
AcDbEntity
  8
BUILDING_ENVELOPE
  6
CONTINUOUS
 62
     7
100
AcDbPolyline
 90
        4
 70
     1
 10
9.76531
 20
7.172441
 10
17.826713
 20
7.172441
 10
18.160047
 20
6.839108
 10
9.431976
 20
6.839108
  0
HATCH
  5
FD
102
{ACAD_REACTORS
330
FB
102
}
100
AcDbEntity
  8
BUILDING_ENVELOPE
 62
     7
100
AcDbHatch
 10
0.0
 20
0.0
 30
0.0
210
0.0
220
0.0
230
1.0
  2
SOLID
 70
     1
 71
     1
 91
        1
 92
        3
 72
     0
 73
     1
 93
        4
 10
9.7653098155158098
 20
7.1724413911198024
 10
17.826713182737052
 20
7.1724413911198024
 10
18.1600465160703877
 20
6.8391080577864694
 10
9.4319764821824794
 20
6.8391080577864694
 97
        1
330
FC
 75
     0
 76
     1
 98
        0
  0
LINE
  5
FE
102
{ACAD_REACTORS
330
FB
102
}
100
AcDbEntity
  8
BUILDING_ENVELOPE
  6
CONTINUOUS
 62
     7
100
AcDbLine
 10
9.76531
 20
7.172441
 30
0.0
 11
17.826713
 21
7.172441
 31
0.0
  0
LINE
  5
FF
102
{ACAD_REACTORS
330
FB
102
}
100
AcDbEntity
  8
BUILDING_ENVELOPE
  6
CONTINUOUS
 62
     7
100
AcDbLine
 10
9.431976
 20
6.839108
 30
0.0
 11
18.160047
 21
6.839108
 31
0.0
  0
LWPOLYLINE
  5
101
102
{ACAD_REACTORS
330
102
102
}
100
AcDbEntity
  8
BUILDING_ENVELOPE
  6
CONTINUOUS
 62
     7
100
AcDbPolyline
 90
        4
 70
     1
 10
17.826713
 20
7.172441
 10
17.826713
 20
15.431213
 10
18.160047
 20
15.431213
 10
18.160047
 20
6.839108
  0
HATCH
  5
102
102
{ACAD_REACTORS
330
100
102
}
100
AcDbEntity
  8
BUILDING_ENVELOPE
 62
     7
100
AcDbHatch
 10
0.0
 20
0.0
 30
0.0
210
0.0
220
0.0
230
1.0
  2
SOLID
 70
     1
 71
     1
 91
        1
 92
        3
 72
     0
 73
     1
 93
        4
 10
17.8267131827370484
 20
7.1724413911198042
 10
17.8267131827370484
 20
15.4312131760656577
 10
18.1600465160703806
 20
15.4312131760656577
 10
18.1600465160703806
 20
6.8391080577864756
 97
        1
330
101
 75
     0
 76
     1
 98
        0
  0
LWPOLYLINE
  5
103
102
{ACAD_REACTORS
330
104
102
}
100
AcDbEntity
  8
BUILDING_ENVELOPE
  6
CONTINUOUS
 62
     7
100
AcDbPolyline
 90
        4
 70
     1
 10
17.826713
 20
15.431213
 10
18.160047
 20
15.431213
 10
18.160047
 20
15.464547
 10
17.826713
 20
15.464547
  0
HATCH
  5
104
102
{ACAD_REACTORS
330
100
102
}
100
AcDbEntity
  8
BUILDING_ENVELOPE
 62
     7
100
AcDbHatch
 10
0.0
 20
0.0
 30
0.0
210
0.0
220
0.0
230
1.0
  2
SOLID
 70
     1
 71
     1
 91
        1
 92
        3
 72
     0
 73
     1
 93
        4
 10
17.8267131827370484
 20
15.4312131760656577
 10
18.1600465160703806
 20
15.4312131760656577
 10
18.1600465160703806
 20
15.4645465093989927
 10
17.8267131827370484
 20
15.4645465093989927
 97
        1
330
103
 75
     0
 76
     1
 98
        0
  0
LINE
  5
105
102
{ACAD_REACTORS
330
100
102
}
100
AcDbEntity
  8
BUILDING_ENVELOPE
  6
CONTINUOUS
 62
     7
100
AcDbLine
 10
17.826713
 20
7.172441
 30
0.0
 11
17.826713
 21
15.431213
 31
0.0
  0
LINE
  5
106
102
{ACAD_REACTORS
330
100
102
}
100
AcDbEntity
  8
BUILDING_ENVELOPE
  6
CONTINUOUS
 62
     7
100
AcDbLine
 10
18.160047
 20
6.839108
 30
0.0
 11
18.160047
 21
15.431213
 31
0.0
  0
LWPOLYLINE
  5
108
102
{ACAD_REACTORS
330
109
102
}
100
AcDbEntity
  8
BUILDING_ENVELOPE
  6
CONTINUOUS
 62
     7
100
AcDbPolyline
 90
        4
 70
     1
 10
9.431976
 20
6.839108
 10
9.431976
 20
15.431213
 10
9.76531
 20
15.431213
 10
9.76531
 20
7.172441
  0
HATCH
  5
109
102
{ACAD_REACTORS
330
107
102
}
100
AcDbEntity
  8
BUILDING_ENVELOPE
 62
     7
100
AcDbHatch
 10
0.0
 20
0.0
 30
0.0
210
0.0
220
0.0
230
1.0
  2
SOLID
 70
     1
 71
     1
 91
        1
 92
        3
 72
     0
 73
     1
 93
        4
 10
9.431976482182467
 20
6.8391080577864694
 10
9.431976482182467
 20
15.4312131760656364
 10
9.7653098155157991
 20
15.4312131760656435
 10
9.7653098155157991
 20
7.1724413911198042
 97
        1
330
108
 75
     0
 76
     1
 98
        0
  0
LWPOLYLINE
  5
10A
102
{ACAD_REACTORS
330
10B
102
}
100
AcDbEntity
  8
BUILDING_ENVELOPE
  6
CONTINUOUS
 62
     7
100
AcDbPolyline
 90
        4
 70
     1
 10
9.431976
 20
15.431213
 10
9.76531
 20
15.431213
 10
9.76531
 20
15.464547
 10
9.431976
 20
15.464547
  0
HATCH
  5
10B
102
{ACAD_REACTORS
330
107
102
}
100
AcDbEntity
  8
BUILDING_ENVELOPE
 62
     7
100
AcDbHatch
 10
0.0
 20
0.0
 30
0.0
210
0.0
220
0.0
230
1.0
  2
SOLID
 70
     1
 71
     1
 91
        1
 92
        3
 72
     0
 73
     1
 93
        4
 10
9.431976482182467
 20
15.4312131760656435
 10
9.7653098155157991
 20
15.4312131760656435
 10
9.7653098155157991
 20
15.4645465093989802
 10
9.431976482182467
 20
15.4645465093989802
 97
        1
330
10A
 75
     0
 76
     1
 98
        0
  0
LINE
  5
10C
102
{ACAD_REACTORS
330
107
102
}
100
AcDbEntity
  8
BUILDING_ENVELOPE
  6
CONTINUOUS
 62
     7
100
AcDbLine
 10
9.431976
 20
6.839108
 30
0.0
 11
9.431976
 21
15.431213
 31
0.0
  0
LINE
  5
10D
102
{ACAD_REACTORS
330
107
102
}
100
AcDbEntity
  8
BUILDING_ENVELOPE
  6
CONTINUOUS
 62
     7
100
AcDbLine
 10
9.76531
 20
7.172441
 30
0.0
 11
9.76531
 21
15.431213
 31
0.0
  0
LWPOLYLINE
  5
10F
102
{ACAD_REACTORS
330
110
102
}
100
AcDbEntity
  8
BUILDING_ENVELOPE
  6
CONTINUOUS
 62
     7
100
AcDbPolyline
 90
        4
 70
     1
 10
16.458292
 20
26.30402
 10
16.458292
 20
31.168055
 10
16.791625
 20
31.168055
 10
16.791625
 20
26.30402
  0
HATCH
  5
110
102
{ACAD_REACTORS
330
10E
102
}
100
AcDbEntity
  8
BUILDING_ENVELOPE
 62
     7
100
AcDbHatch
 10
0.0
 20
0.0
 30
0.0
210
0.0
220
0.0
230
1.0
  2
SOLID
 70
     1
 71
     1
 91
        1
 92
        3
 72
     0
 73
     1
 93
        4
 10
16.4582921531795741
 20
26.3040200158945936
 10
16.4582921531795741
 20
31.1680550159766661
 10
16.7916254865129062
 20
31.1680550159766696
 10
16.7916254865129062
 20
26.3040200158945972
 97
        1
330
10F
 75
     0
 76
     1
 98
        0
  0
LWPOLYLINE
  5
111
102
{ACAD_REACTORS
330
112
102
}
100
AcDbEntity
  8
BUILDING_ENVELOPE
  6
CONTINUOUS
 62
     7
100
AcDbPolyline
 90
        4
 70
     1
 10
16.791625
 20
26.30402
 10
16.458292
 20
26.30402
 10
16.458292
 20
26.270687
 10
16.791625
 20
26.270687
  0
HATCH
  5
112
102
{ACAD_REACTORS
330
10E
102
}
100
AcDbEntity
  8
BUILDING_ENVELOPE
 62
     7
100
AcDbHatch
 10
0.0
 20
0.0
 30
0.0
210
0.0
220
0.0
230
1.0
  2
SOLID
 70
     1
 71
     1
 91
        1
 92
        3
 72
     0
 73
     1
 93
        4
 10
16.7916254865129062
 20
26.3040200158945936
 10
16.4582921531795741
 20
26.3040200158945936
 10
16.4582921531795741
 20
26.2706866825612622
 10
16.7916254865129062
 20
26.2706866825612622
 97
        1
330
111
 75
     0
 76
     1
 98
        0
  0
LWPOLYLINE
  5
113
102
{ACAD_REACTORS
330
114
102
}
100
AcDbEntity
  8
BUILDING_ENVELOPE
  6
CONTINUOUS
 62
     7
100
AcDbPolyline
 90
        4
 70
     1
 10
16.458292
 20
31.168055
 10
16.791625
 20
31.168055
 10
16.791625
 20
31.201388
 10
16.458292
 20
31.201388
  0
HATCH
  5
114
102
{ACAD_REACTORS
330
10E
102
}
100
AcDbEntity
  8
BUILDING_ENVELOPE
 62
     7
100
AcDbHatch
 10
0.0
 20
0.0
 30
0.0
210
0.0
220
0.0
230
1.0
  2
SOLID
 70
     1
 71
     1
 91
        1
 92
        3
 72
     0
 73
     1
 93
        4
 10
16.4582921531795741
 20
31.1680550159766696
 10
16.7916254865129062
 20
31.1680550159766696
 10
16.7916254865129062
 20
31.201388349310001
 10
16.4582921531795741
 20
31.201388349310001
 97
        1
330
113
 75
     0
 76
     1
 98
        0
  0
LINE
  5
115
102
{ACAD_REACTORS
330
10E
102
}
100
AcDbEntity
  8
BUILDING_ENVELOPE
  6
CONTINUOUS
 62
     7
100
AcDbLine
 10
16.458292
 20
26.30402
 30
0.0
 11
16.458292
 21
31.168055
 31
0.0
  0
LINE
  5
116
102
{ACAD_REACTORS
330
10E
102
}
100
AcDbEntity
  8
BUILDING_ENVELOPE
  6
CONTINUOUS
 62
     7
100
AcDbLine
 10
16.791625
 20
26.30402
 30
0.0
 11
16.791625
 21
31.168055
 31
0.0
  0
LWPOLYLINE
  5
118
102
{ACAD_REACTORS
330
119
102
}
100
AcDbEntity
  8
BUILDING_ENVELOPE
  6
CONTINUOUS
 62
     7
100
AcDbPolyline
 90
        5
 70
     1
 10
12.826713
 20
11.834722
 10
12.826713
 20
15.431213
 10
12.99338
 20
15.431213
 10
13.160047
 20
15.431213
 10
13.160047
 20
12.168055
  0
HATCH
  5
119
102
{ACAD_REACTORS
330
117
102
}
100
AcDbEntity
  8
BUILDING_ENVELOPE
 62
     7
100
AcDbHatch
 10
0.0
 20
0.0
 30
0.0
210
0.0
220
0.0
230
1.0
  2
SOLID
 70
     1
 71
     1
 91
        1
 92
        3
 72
     0
 73
     1
 93
        5
 10
12.826713267046248
 20
11.834722003018296
 10
12.826713267046248
 20
15.4312131760656506
 10
12.9933799337129159
 20
15.4312131760656506
 10
13.160046600379582
 20
15.4312131760656506
 10
13.160046600379582
 20
12.1680553363516299
 97
        1
330
118
 75
     0
 76
     1
 98
        0
  0
LWPOLYLINE
  5
11A
102
{ACAD_REACTORS
330
117
102
}
100
AcDbEntity
  8
BUILDING_ENVELOPE
  6
CONTINUOUS
 62
     7
100
AcDbPolyline
 90
        3
 70
     0
 10
12.826713
 20
11.834722
 10
12.826713
 20
15.431213
 10
12.99338
 20
15.431213
  0
LWPOLYLINE
  5
11B
102
{ACAD_REACTORS
330
117
102
}
100
AcDbEntity
  8
BUILDING_ENVELOPE
  6
CONTINUOUS
 62
     7
100
AcDbPolyline
 90
        3
 70
     0
 10
13.160047
 20
12.168055
 10
13.160047
 20
15.431213
 10
12.99338
 20
15.431213
  0
LWPOLYLINE
  5
11D
102
{ACAD_REACTORS
330
11E
102
}
100
AcDbEntity
  8
BUILDING_ENVELOPE
  6
CONTINUOUS
 62
     7
100
AcDbPolyline
 90
        4
 70
     1
 10
17.826713
 20
11.834722
 10
12.826713
 20
11.834722
 10
13.160047
 20
12.168055
 10
17.826713
 20
12.168055
  0
HATCH
  5
11E
102
{ACAD_REACTORS
330
11C
102
}
100
AcDbEntity
  8
BUILDING_ENVELOPE
 62
     7
100
AcDbHatch
 10
0.0
 20
0.0
 30
0.0
210
0.0
220
0.0
230
1.0
  2
SOLID
 70
     1
 71
     1
 91
        1
 92
        3
 72
     0
 73
     1
 93
        4
 10
17.8267131827370555
 20
11.8347220030182996
 10
12.8267132670462534
 20
11.8347220030182996
 10
13.160046600379582
 20
12.1680553363516317
 10
17.826713182737052
 20
12.1680553363516317
 97
        1
330
11D
 75
     0
 76
     1
 98
        0
  0
LWPOLYLINE
  5
11F
102
{ACAD_REACTORS
330
120
102
}
100
AcDbEntity
  8
BUILDING_ENVELOPE
  6
CONTINUOUS
 62
     7
100
AcDbPolyline
 90
        4
 70
     1
 10
17.826713
 20
12.168055
 10
17.826713
 20
11.834722
 10
17.860047
 20
11.834722
 10
17.860047
 20
12.168055
  0
HATCH
  5
120
102
{ACAD_REACTORS
330
11C
102
}
100
AcDbEntity
  8
BUILDING_ENVELOPE
 62
     7
100
AcDbHatch
 10
0.0
 20
0.0
 30
0.0
210
0.0
220
0.0
230
1.0
  2
SOLID
 70
     1
 71
     1
 91
        1
 92
        3
 72
     0
 73
     1
 93
        4
 10
17.826713182737052
 20
12.1680553363516317
 10
17.826713182737052
 20
11.8347220030182996
 10
17.860046516070387
 20
11.8347220030182996
 10
17.860046516070387
 20
12.1680553363516317
 97
        1
330
11F
 75
     0
 76
     1
 98
        0
  0
LINE
  5
121
102
{ACAD_REACTORS
330
11C
102
}
100
AcDbEntity
  8
BUILDING_ENVELOPE
  6
CONTINUOUS
 62
     7
100
AcDbLine
 10
17.826713
 20
11.834722
 30
0.0
 11
12.826713
 21
11.834722
 31
0.0
  0
LINE
  5
122
102
{ACAD_REACTORS
330
11C
102
}
100
AcDbEntity
  8
BUILDING_ENVELOPE
  6
CONTINUOUS
 62
     7
100
AcDbLine
 10
17.826713
 20
12.168055
 30
0.0
 11
13.160047
 21
12.168055
 31
0.0
  0
LWPOLYLINE
  5
124
102
{ACAD_REACTORS
330
125
102
}
100
AcDbEntity
  8
BUILDING_ENVELOPE
  6
CONTINUOUS
 62
     7
100
AcDbPolyline
 90
        4
 70
     1
 10
19.30917
 20
39.935599
 10
19.30917
 20
45.166667
 10
19.642503
 20
45.166667
 10
19.642503
 20
39.935599
  0
HATCH
  5
125
102
{ACAD_REACTORS
330
123
102
}
100
AcDbEntity
  8
BUILDING_ENVELOPE
 62
     7
100
AcDbHatch
 10
0.0
 20
0.0
 30
0.0
210
0.0
220
0.0
230
1.0
  2
SOLID
 70
     1
 71
     1
 91
        1
 92
        3
 72
     0
 73
     1
 93
        4
 10
19.3091696423536163
 20
39.9355994163140267
 10
19.3091696423536163
 20
45.1666666666666856
 10
19.6425029756869485
 20
45.1666666666666856
 10
19.6425029756869485
 20
39.9355994163140338
 97
        1
330
124
 75
     0
 76
     1
 98
        0
  0
LWPOLYLINE
  5
126
102
{ACAD_REACTORS
330
127
102
}
100
AcDbEntity
  8
BUILDING_ENVELOPE
  6
CONTINUOUS
 62
     7
100
AcDbPolyline
 90
        4
 70
     1
 10
19.642503
 20
39.935599
 10
19.30917
 20
39.935599
 10
19.30917
 20
39.902266
 10
19.642503
 20
39.902266
  0
HATCH
  5
127
102
{ACAD_REACTORS
330
123
102
}
100
AcDbEntity
  8
BUILDING_ENVELOPE
 62
     7
100
AcDbHatch
 10
0.0
 20
0.0
 30
0.0
210
0.0
220
0.0
230
1.0
  2
SOLID
 70
     1
 71
     1
 91
        1
 92
        3
 72
     0
 73
     1
 93
        4
 10
19.6425029756869485
 20
39.9355994163140267
 10
19.3091696423536163
 20
39.9355994163140267
 10
19.3091696423536163
 20
39.9022660829806952
 10
19.6425029756869485
 20
39.9022660829806952
 97
        1
330
126
 75
     0
 76
     1
 98
        0
  0
LWPOLYLINE
  5
128
102
{ACAD_REACTORS
330
129
102
}
100
AcDbEntity
  8
BUILDING_ENVELOPE
  6
CONTINUOUS
 62
     7
100
AcDbPolyline
 90
        4
 70
     1
 10
19.30917
 20
45.166667
 10
19.642503
 20
45.166667
 10
19.642503
 20
45.2
 10
19.30917
 20
45.2
  0
HATCH
  5
129
102
{ACAD_REACTORS
330
123
102
}
100
AcDbEntity
  8
BUILDING_ENVELOPE
 62
     7
100
AcDbHatch
 10
0.0
 20
0.0
 30
0.0
210
0.0
220
0.0
230
1.0
  2
SOLID
 70
     1
 71
     1
 91
        1
 92
        3
 72
     0
 73
     1
 93
        4
 10
19.3091696423536163
 20
45.1666666666666856
 10
19.6425029756869485
 20
45.1666666666666856
 10
19.6425029756869485
 20
45.2000000000000242
 10
19.3091696423536163
 20
45.2000000000000242
 97
        1
330
128
 75
     0
 76
     1
 98
        0
  0
LINE
  5
12A
102
{ACAD_REACTORS
330
123
102
}
100
AcDbEntity
  8
BUILDING_ENVELOPE
  6
CONTINUOUS
 62
     7
100
AcDbLine
 10
19.30917
 20
39.935599
 30
0.0
 11
19.30917
 21
45.166667
 31
0.0
  0
LINE
  5
12B
102
{ACAD_REACTORS
330
123
102
}
100
AcDbEntity
  8
BUILDING_ENVELOPE
  6
CONTINUOUS
 62
     7
100
AcDbLine
 10
19.642503
 20
39.935599
 30
0.0
 11
19.642503
 21
45.166667
 31
0.0
  0
LWPOLYLINE
  5
12D
102
{ACAD_REACTORS
330
133
102
}
100
AcDbEntity
  8
BUILDING_ENVELOPE
  6
CONTINUOUS
 62
     7
100
AcDbPolyline
 90
        4
 70
     1
 10
13.168047
 20
34.390424
 10
13.168047
 20
31.55709
 10
12.818713
 20
31.55709
 10
12.818713
 20
34.390424
  0
LINE
  5
12E
102
{ACAD_REACTORS
330
133
102
}
100
AcDbEntity
  8
BUILDING_ENVELOPE
  6
CONTINUOUS
 62
     7
100
AcDbLine
 10
13.160047
 20
31.55709
 30
0.0
 11
12.826713
 21
31.55709
 31
0.0
  0
LINE
  5
12F
102
{ACAD_REACTORS
330
133
102
}
100
AcDbEntity
  8
BUILDING_ENVELOPE
  6
CONTINUOUS
 62
     7
100
AcDbLine
 10
12.826713
 20
31.55709
 30
0.0
 11
12.826713
 21
31.723757
 31
0.0
  0
LINE
  5
130
102
{ACAD_REACTORS
330
133
102
}
100
AcDbEntity
  8
BUILDING_ENVELOPE
  6
CONTINUOUS
 62
     7
100
AcDbLine
 10
12.826713
 20
31.723757
 30
0.0
 11
12.951713
 21
31.723757
 31
0.0
  0
LINE
  5
131
102
{ACAD_REACTORS
330
133
102
}
100
AcDbEntity
  8
BUILDING_ENVELOPE
  6
CONTINUOUS
 62
     7
100
AcDbLine
 10
13.076713
 20
31.723757
 30
0.0
 11
13.160047
 21
31.723757
 31
0.0
  0
LINE
  5
132
102
{ACAD_REACTORS
330
133
102
}
100
AcDbEntity
  8
BUILDING_ENVELOPE
  6
CONTINUOUS
 62
     7
100
AcDbLine
 10
13.160047
 20
31.723757
 30
0.0
 11
13.160047
 21
31.55709
 31
0.0
  0
HATCH
  5
133
102
{ACAD_REACTORS
330
12C
102
}
100
AcDbEntity
  8
BUILDING_ENVELOPE
 62
     7
100
AcDbHatch
 10
0.0
 20
0.0
 30
0.0
210
0.0
220
0.0
230
1.0
  2
SOLID
 70
     1
 71
     1
 91
        2
 92
        1
 93
        6
 72
     1
 10
13.160046600379582
 20
31.5570902790372827
 11
12.826713267046248
 21
31.5570902790372827
 72
     1
 10
12.826713267046248
 20
31.5570902790372827
 11
12.826713267046248
 21
31.723756945703947
 72
     1
 10
12.826713267046248
 20
31.723756945703947
 11
12.951713267046248
 21
31.723756945703947
 72
     1
 10
12.951713267046248
 20
31.723756945703947
 11
13.076713267046248
 21
31.723756945703947
 72
     1
 10
13.076713267046248
 20
31.723756945703947
 11
13.160046600379582
 21
31.723756945703947
 72
     1
 10
13.160046600379582
 20
31.723756945703947
 11
13.160046600379582
 21
31.5570902790372827
 97
        6
330
12D
330
12E
330
12F
330
130
330
131
330
132
 92
        1
 93
        6
 72
     1
 10
13.160046600379582
 20
34.3904236123706113
 11
12.826713267046248
 21
34.3904236123706113
 72
     1
 10
12.826713267046248
 20
34.3904236123706113
 11
12.826713267046248
 21
34.223756945703947
 72
     1
 10
12.826713267046248
 20
34.223756945703947
 11
12.951713267046248
 21
34.223756945703947
 72
     1
 10
12.951713267046248
 20
34.223756945703947
 11
13.076713267046248
 21
34.223756945703947
 72
     1
 10
13.076713267046248
 20
34.223756945703947
 11
13.160046600379582
 21
34.223756945703947
 72
     1
 10
13.160046600379582
 20
34.223756945703947
 11
13.160046600379582
 21
34.3904236123706113
 97
        5
330
134
330
135
330
136
330
137
330
138
 75
     0
 76
     1
 98
        0
  0
LINE
  5
134
102
{ACAD_REACTORS
330
133
102
}
100
AcDbEntity
  8
BUILDING_ENVELOPE
  6
CONTINUOUS
 62
     7
100
AcDbLine
 10
13.160047
 20
34.390424
 30
0.0
 11
12.826713
 21
34.390424
 31
0.0
  0
LINE
  5
135
102
{ACAD_REACTORS
330
133
102
}
100
AcDbEntity
  8
BUILDING_ENVELOPE
  6
CONTINUOUS
 62
     7
100
AcDbLine
 10
12.826713
 20
34.390424
 30
0.0
 11
12.826713
 21
34.223757
 31
0.0
  0
LINE
  5
136
102
{ACAD_REACTORS
330
133
102
}
100
AcDbEntity
  8
BUILDING_ENVELOPE
  6
CONTINUOUS
 62
     7
100
AcDbLine
 10
12.826713
 20
34.223757
 30
0.0
 11
12.951713
 21
34.223757
 31
0.0
  0
LINE
  5
137
102
{ACAD_REACTORS
330
133
102
}
100
AcDbEntity
  8
BUILDING_ENVELOPE
  6
CONTINUOUS
 62
     7
100
AcDbLine
 10
13.076713
 20
34.223757
 30
0.0
 11
13.160047
 21
34.223757
 31
0.0
  0
LINE
  5
138
102
{ACAD_REACTORS
330
133
102
}
100
AcDbEntity
  8
BUILDING_ENVELOPE
  6
CONTINUOUS
 62
     7
100
AcDbLine
 10
13.160047
 20
34.223757
 30
0.0
 11
13.160047
 21
34.390424
 31
0.0
  0
LINE
  5
139
102
{ACAD_REACTORS
330
13C
102
}
100
AcDbEntity
  8
BUILDING_ENVELOPE
  6
CONTINUOUS
 62
     7
100
AcDbLine
 10
12.951713
 20
31.723757
 30
0.0
 11
12.951713
 21
31.765424
 31
0.0
  0
LINE
  5
13A
102
{ACAD_REACTORS
330
13C
102
}
100
AcDbEntity
  8
BUILDING_ENVELOPE
  6
CONTINUOUS
 62
     7
100
AcDbLine
 10
12.951713
 20
31.765424
 30
0.0
 11
13.076713
 21
31.765424
 31
0.0
  0
LINE
  5
13B
102
{ACAD_REACTORS
330
13C
102
}
100
AcDbEntity
  8
BUILDING_ENVELOPE
  6
CONTINUOUS
 62
     7
100
AcDbLine
 10
13.076713
 20
31.765424
 30
0.0
 11
13.076713
 21
31.723757
 31
0.0
  0
HATCH
  5
13C
102
{ACAD_REACTORS
330
12C
102
}
100
AcDbEntity
  8
BUILDING_ENVELOPE
 62
     7
100
AcDbHatch
 10
0.0
 20
0.0
 30
0.0
210
0.0
220
0.0
230
1.0
  2
SOLID
 70
     1
 71
     1
 91
        2
 92
        1
 93
        4
 72
     1
 10
12.951713267046248
 20
31.723756945703947
 11
12.951713267046248
 21
31.7654236123706148
 72
     1
 10
12.951713267046248
 20
31.7654236123706148
 11
13.076713267046248
 21
31.7654236123706148
 72
     1
 10
13.076713267046248
 20
31.7654236123706148
 11
13.076713267046248
 21
31.723756945703947
 72
     1
 10
13.076713267046248
 20
31.723756945703947
 11
12.951713267046248
 21
31.723756945703947
 97
        3
330
139
330
13A
330
13B
 92
        1
 93
        4
 72
     1
 10
12.951713267046248
 20
34.223756945703947
 11
12.951713267046248
 21
34.1820902790372827
 72
     1
 10
12.951713267046248
 20
34.1820902790372827
 11
13.076713267046248
 21
34.1820902790372827
 72
     1
 10
13.076713267046248
 20
34.1820902790372827
 11
13.076713267046248
 21
34.223756945703947
 72
     1
 10
13.076713267046248
 20
34.223756945703947
 11
12.951713267046248
 21
34.223756945703947
 97
        3
330
13D
330
13E
330
13F
 75
     0
 76
     1
 98
        0
  0
LINE
  5
13D
102
{ACAD_REACTORS
330
13C
102
}
100
AcDbEntity
  8
BUILDING_ENVELOPE
  6
CONTINUOUS
 62
     7
100
AcDbLine
 10
12.951713
 20
34.223757
 30
0.0
 11
12.951713
 21
34.18209
 31
0.0
  0
LINE
  5
13E
102
{ACAD_REACTORS
330
13C
102
}
100
AcDbEntity
  8
BUILDING_ENVELOPE
  6
CONTINUOUS
 62
     7
100
AcDbLine
 10
12.951713
 20
34.18209
 30
0.0
 11
13.076713
 21
34.18209
 31
0.0
  0
LINE
  5
13F
102
{ACAD_REACTORS
330
13C
102
}
100
AcDbEntity
  8
BUILDING_ENVELOPE
  6
CONTINUOUS
 62
     7
100
AcDbLine
 10
13.076713
 20
34.18209
 30
0.0
 11
13.076713
 21
34.223757
 31
0.0
  0
LINE
  5
140
102
{ACAD_REACTORS
330
12C
102
}
100
AcDbEntity
  8
BUILDING_ENVELOPE
  6
CONTINUOUS
 62
     7
100
AcDbLine
 10
13.160047
 20
31.55709
 30
0.0
 11
12.826713
 21
31.55709
 31
0.0
  0
LINE
  5
141
102
{ACAD_REACTORS
330
12C
102
}
100
AcDbEntity
  8
BUILDING_ENVELOPE
  6
CONTINUOUS
 62
     7
100
AcDbLine
 10
13.160047
 20
34.390424
 30
0.0
 11
12.826713
 21
34.390424
 31
0.0
  0
ARC
  5
142
102
{ACAD_REACTORS
330
12C
102
}
100
AcDbEntity
  8
BUILDING_ENVELOPE
  6
CONTINUOUS
 62
     7
100
AcDbCircle
 10
12.826713
 20
31.723757
 30
0.0
 40
2.5
100
AcDbArc
 50
90.0
 51
180.0
  0
LWPOLYLINE
  5
143
102
{ACAD_REACTORS
330
144
102
}
100
AcDbEntity
  8
BUILDING_ENVELOPE
  6
CONTINUOUS
 62
     7
100
AcDbPolyline
 90
        4
 70
     1
 10
10.326713
 20
31.848757
 10
12.826713
 20
31.848757
 10
12.826713
 20
31.723757
 10
10.326713
 20
31.723757
  0
HATCH
  5
144
102
{ACAD_REACTORS
330
12C
102
}
100
AcDbEntity
  8
BUILDING_ENVELOPE
 62
     7
100
AcDbHatch
 10
0.0
 20
0.0
 30
0.0
210
0.0
220
0.0
230
1.0
  2
SOLID
 70
     1
 71
     1
 91
        1
 92
        3
 72
     0
 73
     1
 93
        4
 10
10.326713267046248
 20
31.848756945703947
 10
12.826713267046248
 20
31.848756945703947
 10
12.826713267046248
 20
31.723756945703947
 10
10.326713267046248
 20
31.723756945703947
 97
        1
330
143
 75
     0
 76
     1
 98
        0
  0
LWPOLYLINE
  5
146
102
{ACAD_REACTORS
330
14C
102
}
100
AcDbEntity
  8
BUILDING_ENVELOPE
  6
CONTINUOUS
 62
     7
100
AcDbPolyline
 90
        4
 70
     1
 10
16.103029
 20
26.31202
 10
13.269696
 20
26.31202
 10
13.269696
 20
25.962687
 10
16.103029
 20
25.962687
  0
LINE
  5
147
102
{ACAD_REACTORS
330
14C
102
}
100
AcDbEntity
  8
BUILDING_ENVELOPE
  6
CONTINUOUS
 62
     7
100
AcDbLine
 10
13.269696
 20
26.30402
 30
0.0
 11
13.269696
 21
25.970687
 31
0.0
  0
LINE
  5
148
102
{ACAD_REACTORS
330
14C
102
}
100
AcDbEntity
  8
BUILDING_ENVELOPE
  6
CONTINUOUS
 62
     7
100
AcDbLine
 10
13.269696
 20
25.970687
 30
0.0
 11
13.436362
 21
25.970687
 31
0.0
  0
LINE
  5
149
102
{ACAD_REACTORS
330
14C
102
}
100
AcDbEntity
  8
BUILDING_ENVELOPE
  6
CONTINUOUS
 62
     7
100
AcDbLine
 10
13.436362
 20
25.970687
 30
0.0
 11
13.436362
 21
26.095687
 31
0.0
  0
LINE
  5
14A
102
{ACAD_REACTORS
330
14C
102
}
100
AcDbEntity
  8
BUILDING_ENVELOPE
  6
CONTINUOUS
 62
     7
100
AcDbLine
 10
13.436362
 20
26.220687
 30
0.0
 11
13.436362
 21
26.30402
 31
0.0
  0
LINE
  5
14B
102
{ACAD_REACTORS
330
14C
102
}
100
AcDbEntity
  8
BUILDING_ENVELOPE
  6
CONTINUOUS
 62
     7
100
AcDbLine
 10
13.436362
 20
26.30402
 30
0.0
 11
13.269696
 21
26.30402
 31
0.0
  0
HATCH
  5
14C
102
{ACAD_REACTORS
330
145
102
}
100
AcDbEntity
  8
BUILDING_ENVELOPE
 62
     7
100
AcDbHatch
 10
0.0
 20
0.0
 30
0.0
210
0.0
220
0.0
230
1.0
  2
SOLID
 70
     1
 71
     1
 91
        2
 92
        1
 93
        6
 72
     1
 10
13.2696956763725993
 20
26.3040200158945936
 11
13.2696956763725993
 21
25.9706866825612579
 72
     1
 10
13.2696956763725993
 20
25.9706866825612579
 11
13.4363623430392654
 21
25.9706866825612579
 72
     1
 10
13.4363623430392654
 20
25.9706866825612579
 11
13.4363623430392654
 21
26.0956866825612579
 72
     1
 10
13.4363623430392654
 20
26.0956866825612579
 11
13.4363623430392654
 21
26.2206866825612579
 72
     1
 10
13.4363623430392654
 20
26.2206866825612579
 11
13.4363623430392654
 21
26.3040200158945936
 72
     1
 10
13.4363623430392654
 20
26.3040200158945936
 11
13.2696956763725993
 21
26.3040200158945936
 97
        6
330
146
330
147
330
148
330
149
330
14A
330
14B
 92
        1
 93
        6
 72
     1
 10
16.1030290097059314
 20
26.3040200158945936
 11
16.1030290097059314
 21
25.9706866825612579
 72
     1
 10
16.1030290097059314
 20
25.9706866825612579
 11
15.9363623430392654
 21
25.9706866825612579
 72
     1
 10
15.9363623430392654
 20
25.9706866825612579
 11
15.9363623430392654
 21
26.0956866825612579
 72
     1
 10
15.9363623430392654
 20
26.0956866825612579
 11
15.9363623430392654
 21
26.2206866825612579
 72
     1
 10
15.9363623430392654
 20
26.2206866825612579
 11
15.9363623430392654
 21
26.3040200158945936
 72
     1
 10
15.9363623430392654
 20
26.3040200158945936
 11
16.1030290097059314
 21
26.3040200158945936
 97
        5
330
14D
330
14E
330
14F
330
150
330
151
 75
     0
 76
     1
 98
        0
  0
LINE
  5
14D
102
{ACAD_REACTORS
330
14C
102
}
100
AcDbEntity
  8
BUILDING_ENVELOPE
  6
CONTINUOUS
 62
     7
100
AcDbLine
 10
16.103029
 20
26.30402
 30
0.0
 11
16.103029
 21
25.970687
 31
0.0
  0
LINE
  5
14E
102
{ACAD_REACTORS
330
14C
102
}
100
AcDbEntity
  8
BUILDING_ENVELOPE
  6
CONTINUOUS
 62
     7
100
AcDbLine
 10
16.103029
 20
25.970687
 30
0.0
 11
15.936362
 21
25.970687
 31
0.0
  0
LINE
  5
14F
102
{ACAD_REACTORS
330
14C
102
}
100
AcDbEntity
  8
BUILDING_ENVELOPE
  6
CONTINUOUS
 62
     7
100
AcDbLine
 10
15.936362
 20
25.970687
 30
0.0
 11
15.936362
 21
26.095687
 31
0.0
  0
LINE
  5
150
102
{ACAD_REACTORS
330
14C
102
}
100
AcDbEntity
  8
BUILDING_ENVELOPE
  6
CONTINUOUS
 62
     7
100
AcDbLine
 10
15.936362
 20
26.220687
 30
0.0
 11
15.936362
 21
26.30402
 31
0.0
  0
LINE
  5
151
102
{ACAD_REACTORS
330
14C
102
}
100
AcDbEntity
  8
BUILDING_ENVELOPE
  6
CONTINUOUS
 62
     7
100
AcDbLine
 10
15.936362
 20
26.30402
 30
0.0
 11
16.103029
 21
26.30402
 31
0.0
  0
LINE
  5
152
102
{ACAD_REACTORS
330
155
102
}
100
AcDbEntity
  8
BUILDING_ENVELOPE
  6
CONTINUOUS
 62
     7
100
AcDbLine
 10
13.436362
 20
26.095687
 30
0.0
 11
13.478029
 21
26.095687
 31
0.0
  0
LINE
  5
153
102
{ACAD_REACTORS
330
155
102
}
100
AcDbEntity
  8
BUILDING_ENVELOPE
  6
CONTINUOUS
 62
     7
100
AcDbLine
 10
13.478029
 20
26.095687
 30
0.0
 11
13.478029
 21
26.220687
 31
0.0
  0
LINE
  5
154
102
{ACAD_REACTORS
330
155
102
}
100
AcDbEntity
  8
BUILDING_ENVELOPE
  6
CONTINUOUS
 62
     7
100
AcDbLine
 10
13.478029
 20
26.220687
 30
0.0
 11
13.436362
 21
26.220687
 31
0.0
  0
HATCH
  5
155
102
{ACAD_REACTORS
330
145
102
}
100
AcDbEntity
  8
BUILDING_ENVELOPE
 62
     7
100
AcDbHatch
 10
0.0
 20
0.0
 30
0.0
210
0.0
220
0.0
230
1.0
  2
SOLID
 70
     1
 71
     1
 91
        2
 92
        1
 93
        4
 72
     1
 10
13.4363623430392654
 20
26.0956866825612579
 11
13.4780290097059314
 21
26.0956866825612579
 72
     1
 10
13.4780290097059314
 20
26.0956866825612579
 11
13.4780290097059314
 21
26.2206866825612579
 72
     1
 10
13.4780290097059314
 20
26.2206866825612579
 11
13.4363623430392654
 21
26.2206866825612579
 72
     1
 10
13.4363623430392654
 20
26.2206866825612579
 11
13.4363623430392654
 21
26.0956866825612579
 97
        3
330
152
330
153
330
154
 92
        1
 93
        4
 72
     1
 10
15.9363623430392654
 20
26.0956866825612579
 11
15.8946956763725993
 21
26.0956866825612579
 72
     1
 10
15.8946956763725993
 20
26.0956866825612579
 11
15.8946956763725993
 21
26.2206866825612579
 72
     1
 10
15.8946956763725993
 20
26.2206866825612579
 11
15.9363623430392654
 21
26.2206866825612579
 72
     1
 10
15.9363623430392654
 20
26.2206866825612579
 11
15.9363623430392654
 21
26.0956866825612579
 97
        3
330
156
330
157
330
158
 75
     0
 76
     1
 98
        0
  0
LINE
  5
156
102
{ACAD_REACTORS
330
155
102
}
100
AcDbEntity
  8
BUILDING_ENVELOPE
  6
CONTINUOUS
 62
     7
100
AcDbLine
 10
15.936362
 20
26.095687
 30
0.0
 11
15.894696
 21
26.095687
 31
0.0
  0
LINE
  5
157
102
{ACAD_REACTORS
330
155
102
}
100
AcDbEntity
  8
BUILDING_ENVELOPE
  6
CONTINUOUS
 62
     7
100
AcDbLine
 10
15.894696
 20
26.095687
 30
0.0
 11
15.894696
 21
26.220687
 31
0.0
  0
LINE
  5
158
102
{ACAD_REACTORS
330
155
102
}
100
AcDbEntity
  8
BUILDING_ENVELOPE
  6
CONTINUOUS
 62
     7
100
AcDbLine
 10
15.894696
 20
26.220687
 30
0.0
 11
15.936362
 21
26.220687
 31
0.0
  0
LINE
  5
159
102
{ACAD_REACTORS
330
145
102
}
100
AcDbEntity
  8
BUILDING_ENVELOPE
  6
CONTINUOUS
 62
     7
100
AcDbLine
 10
13.269696
 20
26.30402
 30
0.0
 11
13.269696
 21
25.970687
 31
0.0
  0
LINE
  5
15A
102
{ACAD_REACTORS
330
145
102
}
100
AcDbEntity
  8
BUILDING_ENVELOPE
  6
CONTINUOUS
 62
     7
100
AcDbLine
 10
16.103029
 20
26.30402
 30
0.0
 11
16.103029
 21
25.970687
 31
0.0
  0
ARC
  5
15B
102
{ACAD_REACTORS
330
145
102
}
100
AcDbEntity
  8
BUILDING_ENVELOPE
  6
CONTINUOUS
 62
     7
100
AcDbCircle
 10
13.436362
 20
25.970687
 30
0.0
 40
2.5
100
AcDbArc
 50
270.0
 51
0.0
  0
LWPOLYLINE
  5
15C
102
{ACAD_REACTORS
330
15D
102
}
100
AcDbEntity
  8
BUILDING_ENVELOPE
  6
CONTINUOUS
 62
     7
100
AcDbPolyline
 90
        4
 70
     1
 10
13.561362
 20
23.470687
 10
13.561362
 20
25.970687
 10
13.436362
 20
25.970687
 10
13.436362
 20
23.470687
  0
HATCH
  5
15D
102
{ACAD_REACTORS
330
145
102
}
100
AcDbEntity
  8
BUILDING_ENVELOPE
 62
     7
100
AcDbHatch
 10
0.0
 20
0.0
 30
0.0
210
0.0
220
0.0
230
1.0
  2
SOLID
 70
     1
 71
     1
 91
        1
 92
        3
 72
     0
 73
     1
 93
        4
 10
13.5613623430392654
 20
23.4706866825612579
 10
13.5613623430392654
 20
25.9706866825612579
 10
13.4363623430392654
 20
25.9706866825612579
 10
13.4363623430392654
 20
23.4706866825612579
 97
        1
330
15C
 75
     0
 76
     1
 98
        0
  0
LWPOLYLINE
  5
15F
102
{ACAD_REACTORS
330
165
102
}
100
AcDbEntity
  8
BUILDING_ENVELOPE
  6
CONTINUOUS
 62
     7
100
AcDbPolyline
 90
        4
 70
     1
 10
1.006209
 20
0.158667
 10
9.186362
 20
0.158667
 10
9.186362
 20
0.508
 10
1.006209
 20
0.508
  0
LINE
  5
160
102
{ACAD_REACTORS
330
165
102
}
100
AcDbEntity
  8
BUILDING_ENVELOPE
  6
CONTINUOUS
 62
     7
100
AcDbLine
 10
1.006209
 20
0.166667
 30
0.0
 11
1.006209
 21
0.5
 31
0.0
  0
LINE
  5
161
102
{ACAD_REACTORS
330
165
102
}
100
AcDbEntity
  8
BUILDING_ENVELOPE
  6
CONTINUOUS
 62
     7
100
AcDbLine
 10
1.006209
 20
0.5
 30
0.0
 11
1.172876
 21
0.5
 31
0.0
  0
LINE
  5
162
102
{ACAD_REACTORS
330
165
102
}
100
AcDbEntity
  8
BUILDING_ENVELOPE
  6
CONTINUOUS
 62
     7
100
AcDbLine
 10
1.172876
 20
0.5
 30
0.0
 11
1.172876
 21
0.416667
 31
0.0
  0
LINE
  5
163
102
{ACAD_REACTORS
330
165
102
}
100
AcDbEntity
  8
BUILDING_ENVELOPE
  6
CONTINUOUS
 62
     7
100
AcDbLine
 10
1.172876
 20
0.25
 30
0.0
 11
1.172876
 21
0.166667
 31
0.0
  0
LINE
  5
164
102
{ACAD_REACTORS
330
165
102
}
100
AcDbEntity
  8
BUILDING_ENVELOPE
  6
CONTINUOUS
 62
     7
100
AcDbLine
 10
1.172876
 20
0.166667
 30
0.0
 11
1.006209
 21
0.166667
 31
0.0
  0
HATCH
  5
165
102
{ACAD_REACTORS
330
15E
102
}
100
AcDbEntity
  8
BUILDING_ENVELOPE
 62
     7
100
AcDbHatch
 10
0.0
 20
0.0
 30
0.0
210
0.0
220
0.0
230
1.0
  2
SOLID
 70
     1
 71
     1
 91
        2
 92
        1
 93
        6
 72
     1
 10
1.006209018104709
 20
0.1666666666666384
 11
1.006209018104709
 21
0.4999999999999717
 72
     1
 10
1.006209018104709
 20
0.4999999999999717
 11
1.1728756847713755
 21
0.4999999999999717
 72
     1
 10
1.1728756847713755
 20
0.4999999999999717
 11
1.1728756847713755
 21
0.4166666666666384
 72
     1
 10
1.1728756847713755
 20
0.4166666666666384
 11
1.1728756847713755
 21
0.2499999999999717
 72
     1
 10
1.1728756847713755
 20
0.2499999999999717
 11
1.1728756847713755
 21
0.1666666666666384
 72
     1
 10
1.1728756847713755
 20
0.1666666666666384
 11
1.006209018104709
 21
0.1666666666666384
 97
        6
330
15F
330
160
330
161
330
162
330
163
330
164
 92
        1
 93
        6
 72
     1
 10
9.1863624990123949
 20
0.1666666666666384
 11
9.1863624990123949
 21
0.4999999999999717
 72
     1
 10
9.1863624990123949
 20
0.4999999999999717
 11
9.0196958323457288
 21
0.4999999999999717
 72
     1
 10
9.0196958323457288
 20
0.4999999999999717
 11
9.0196958323457288
 21
0.4166666666666384
 72
     1
 10
9.0196958323457288
 20
0.4166666666666384
 11
9.0196958323457288
 21
0.2499999999999717
 72
     1
 10
9.0196958323457288
 20
0.2499999999999717
 11
9.0196958323457288
 21
0.1666666666666384
 72
     1
 10
9.0196958323457288
 20
0.1666666666666384
 11
9.1863624990123949
 21
0.1666666666666384
 97
        5
330
166
330
167
330
168
330
169
330
16A
 75
     0
 76
     1
 98
        0
  0
LINE
  5
166
102
{ACAD_REACTORS
330
165
102
}
100
AcDbEntity
  8
BUILDING_ENVELOPE
  6
CONTINUOUS
 62
     7
100
AcDbLine
 10
9.186362
 20
0.166667
 30
0.0
 11
9.186362
 21
0.5
 31
0.0
  0
LINE
  5
167
102
{ACAD_REACTORS
330
165
102
}
100
AcDbEntity
  8
BUILDING_ENVELOPE
  6
CONTINUOUS
 62
     7
100
AcDbLine
 10
9.186362
 20
0.5
 30
0.0
 11
9.019696
 21
0.5
 31
0.0
  0
LINE
  5
168
102
{ACAD_REACTORS
330
165
102
}
100
AcDbEntity
  8
BUILDING_ENVELOPE
  6
CONTINUOUS
 62
     7
100
AcDbLine
 10
9.019696
 20
0.5
 30
0.0
 11
9.019696
 21
0.416667
 31
0.0
  0
LINE
  5
169
102
{ACAD_REACTORS
330
165
102
}
100
AcDbEntity
  8
BUILDING_ENVELOPE
  6
CONTINUOUS
 62
     7
100
AcDbLine
 10
9.019696
 20
0.25
 30
0.0
 11
9.019696
 21
0.166667
 31
0.0
  0
LINE
  5
16A
102
{ACAD_REACTORS
330
165
102
}
100
AcDbEntity
  8
BUILDING_ENVELOPE
  6
CONTINUOUS
 62
     7
100
AcDbLine
 10
9.019696
 20
0.166667
 30
0.0
 11
9.186362
 21
0.166667
 31
0.0
  0
LWPOLYLINE
  5
16B
102
{ACAD_REACTORS
330
16C
102
}
100
AcDbEntity
  8
BUILDING_ENVELOPE
  6
CONTINUOUS
 62
     7
100
AcDbPolyline
 90
        4
 70
     1
 10
1.172876
 20
0.416667
 10
1.339542
 20
0.416667
 10
1.339542
 20
0.25
 10
1.172876
 20
0.25
  0
HATCH
  5
16C
102
{ACAD_REACTORS
330
15E
102
}
100
AcDbEntity
  8
BUILDING_ENVELOPE
 62
     7
100
AcDbHatch
 10
0.0
 20
0.0
 30
0.0
210
0.0
220
0.0
230
1.0
  2
SOLID
 70
     1
 71
     1
 91
        2
 92
        3
 72
     0
 73
     1
 93
        4
 10
1.1728756847713755
 20
0.4166666666666384
 10
1.3395423514380422
 20
0.4166666666666384
 10
1.3395423514380422
 20
0.2499999999999717
 10
1.1728756847713755
 20
0.2499999999999717
 97
        1
330
16B
 92
        3
 72
     0
 73
     1
 93
        4
 10
9.0196958323457288
 20
0.4166666666666384
 10
8.853029165679061
 20
0.4166666666666384
 10
8.853029165679061
 20
0.2499999999999717
 10
9.0196958323457288
 20
0.2499999999999717
 97
        1
330
16D
 75
     0
 76
     1
 98
        0
  0
LWPOLYLINE
  5
16D
102
{ACAD_REACTORS
330
16C
102
}
100
AcDbEntity
  8
BUILDING_ENVELOPE
  6
CONTINUOUS
 62
     7
100
AcDbPolyline
 90
        4
 70
     1
 10
9.019696
 20
0.416667
 10
8.853029
 20
0.416667
 10
8.853029
 20
0.25
 10
9.019696
 20
0.25
  0
LINE
  5
16E
102
{ACAD_REACTORS
330
15E
102
}
100
AcDbEntity
  8
BUILDING_ENVELOPE
  6
CONTINUOUS
 62
     7
100
AcDbLine
 10
1.339542
 20
0.333333
 30
0.0
 11
8.853029
 21
0.333333
 31
0.0
  0
LINE
  5
16F
102
{ACAD_REACTORS
330
15E
102
}
100
AcDbEntity
  8
BUILDING_ENVELOPE
  6
CONTINUOUS
 62
     7
100
AcDbLine
 10
1.006209
 20
0.166667
 30
0.0
 11
1.006209
 21
0.5
 31
0.0
  0
LINE
  5
170
102
{ACAD_REACTORS
330
15E
102
}
100
AcDbEntity
  8
BUILDING_ENVELOPE
  6
CONTINUOUS
 62
     7
100
AcDbLine
 10
9.186362
 20
0.166667
 30
0.0
 11
9.186362
 21
0.5
 31
0.0
  0
LWPOLYLINE
  5
172
102
{ACAD_REACTORS
330
178
102
}
100
AcDbEntity
  8
BUILDING_ENVELOPE
  6
CONTINUOUS
 62
     7
100
AcDbPolyline
 90
        4
 70
     1
 10
12.589871
 20
15.772547
 10
9.756538
 20
15.772547
 10
9.756538
 20
15.423213
 10
12.589871
 20
15.423213
  0
LINE
  5
173
102
{ACAD_REACTORS
330
178
102
}
100
AcDbEntity
  8
BUILDING_ENVELOPE
  6
CONTINUOUS
 62
     7
100
AcDbLine
 10
9.756538
 20
15.764547
 30
0.0
 11
9.756538
 21
15.431213
 31
0.0
  0
LINE
  5
174
102
{ACAD_REACTORS
330
178
102
}
100
AcDbEntity
  8
BUILDING_ENVELOPE
  6
CONTINUOUS
 62
     7
100
AcDbLine
 10
9.756538
 20
15.431213
 30
0.0
 11
9.923205
 21
15.431213
 31
0.0
  0
LINE
  5
175
102
{ACAD_REACTORS
330
178
102
}
100
AcDbEntity
  8
BUILDING_ENVELOPE
  6
CONTINUOUS
 62
     7
100
AcDbLine
 10
9.923205
 20
15.431213
 30
0.0
 11
9.923205
 21
15.556213
 31
0.0
  0
LINE
  5
176
102
{ACAD_REACTORS
330
178
102
}
100
AcDbEntity
  8
BUILDING_ENVELOPE
  6
CONTINUOUS
 62
     7
100
AcDbLine
 10
9.923205
 20
15.681213
 30
0.0
 11
9.923205
 21
15.764547
 31
0.0
  0
LINE
  5
177
102
{ACAD_REACTORS
330
178
102
}
100
AcDbEntity
  8
BUILDING_ENVELOPE
  6
CONTINUOUS
 62
     7
100
AcDbLine
 10
9.923205
 20
15.764547
 30
0.0
 11
9.756538
 21
15.764547
 31
0.0
  0
HATCH
  5
178
102
{ACAD_REACTORS
330
171
102
}
100
AcDbEntity
  8
BUILDING_ENVELOPE
 62
     7
100
AcDbHatch
 10
0.0
 20
0.0
 30
0.0
210
0.0
220
0.0
230
1.0
  2
SOLID
 70
     1
 71
     1
 91
        2
 92
        1
 93
        6
 72
     1
 10
9.7565378408746319
 20
15.7645465093989827
 11
9.7565378408746319
 21
15.4312131760656488
 72
     1
 10
9.7565378408746319
 20
15.4312131760656488
 11
9.9232045075412998
 21
15.4312131760656488
 72
     1
 10
9.9232045075412998
 20
15.4312131760656488
 11
9.9232045075412998
 21
15.5562131760656488
 72
     1
 10
9.9232045075412998
 20
15.5562131760656488
 11
9.9232045075412998
 21
15.6812131760656488
 72
     1
 10
9.9232045075412998
 20
15.6812131760656488
 11
9.9232045075412998
 21
15.7645465093989827
 72
     1
 10
9.9232045075412998
 20
15.7645465093989827
 11
9.7565378408746319
 21
15.7645465093989827
 97
        6
330
172
330
173
330
174
330
175
330
176
330
177
 92
        1
 93
        6
 72
     1
 10
12.5898711742079659
 20
15.7645465093989827
 11
12.5898711742079659
 21
15.4312131760656488
 72
     1
 10
12.5898711742079659
 20
15.4312131760656488
 11
12.4232045075412998
 21
15.4312131760656488
 72
     1
 10
12.4232045075412998
 20
15.4312131760656488
 11
12.4232045075412998
 21
15.5562131760656488
 72
     1
 10
12.4232045075412998
 20
15.5562131760656488
 11
12.4232045075412998
 21
15.6812131760656488
 72
     1
 10
12.4232045075412998
 20
15.6812131760656488
 11
12.4232045075412998
 21
15.7645465093989827
 72
     1
 10
12.4232045075412998
 20
15.7645465093989827
 11
12.5898711742079659
 21
15.7645465093989827
 97
        5
330
179
330
17A
330
17B
330
17C
330
17D
 75
     0
 76
     1
 98
        0
  0
LINE
  5
179
102
{ACAD_REACTORS
330
178
102
}
100
AcDbEntity
  8
BUILDING_ENVELOPE
  6
CONTINUOUS
 62
     7
100
AcDbLine
 10
12.589871
 20
15.764547
 30
0.0
 11
12.589871
 21
15.431213
 31
0.0
  0
LINE
  5
17A
102
{ACAD_REACTORS
330
178
102
}
100
AcDbEntity
  8
BUILDING_ENVELOPE
  6
CONTINUOUS
 62
     7
100
AcDbLine
 10
12.589871
 20
15.431213
 30
0.0
 11
12.423205
 21
15.431213
 31
0.0
  0
LINE
  5
17B
102
{ACAD_REACTORS
330
178
102
}
100
AcDbEntity
  8
BUILDING_ENVELOPE
  6
CONTINUOUS
 62
     7
100
AcDbLine
 10
12.423205
 20
15.431213
 30
0.0
 11
12.423205
 21
15.556213
 31
0.0
  0
LINE
  5
17C
102
{ACAD_REACTORS
330
178
102
}
100
AcDbEntity
  8
BUILDING_ENVELOPE
  6
CONTINUOUS
 62
     7
100
AcDbLine
 10
12.423205
 20
15.681213
 30
0.0
 11
12.423205
 21
15.764547
 31
0.0
  0
LINE
  5
17D
102
{ACAD_REACTORS
330
178
102
}
100
AcDbEntity
  8
BUILDING_ENVELOPE
  6
CONTINUOUS
 62
     7
100
AcDbLine
 10
12.423205
 20
15.764547
 30
0.0
 11
12.589871
 21
15.764547
 31
0.0
  0
LINE
  5
17E
102
{ACAD_REACTORS
330
181
102
}
100
AcDbEntity
  8
BUILDING_ENVELOPE
  6
CONTINUOUS
 62
     7
100
AcDbLine
 10
9.923205
 20
15.556213
 30
0.0
 11
9.964871
 21
15.556213
 31
0.0
  0
LINE
  5
17F
102
{ACAD_REACTORS
330
181
102
}
100
AcDbEntity
  8
BUILDING_ENVELOPE
  6
CONTINUOUS
 62
     7
100
AcDbLine
 10
9.964871
 20
15.556213
 30
0.0
 11
9.964871
 21
15.681213
 31
0.0
  0
LINE
  5
180
102
{ACAD_REACTORS
330
181
102
}
100
AcDbEntity
  8
BUILDING_ENVELOPE
  6
CONTINUOUS
 62
     7
100
AcDbLine
 10
9.964871
 20
15.681213
 30
0.0
 11
9.923205
 21
15.681213
 31
0.0
  0
HATCH
  5
181
102
{ACAD_REACTORS
330
171
102
}
100
AcDbEntity
  8
BUILDING_ENVELOPE
 62
     7
100
AcDbHatch
 10
0.0
 20
0.0
 30
0.0
210
0.0
220
0.0
230
1.0
  2
SOLID
 70
     1
 71
     1
 91
        2
 92
        1
 93
        4
 72
     1
 10
9.9232045075412998
 20
15.5562131760656488
 11
9.9648711742079659
 21
15.5562131760656488
 72
     1
 10
9.9648711742079659
 20
15.5562131760656488
 11
9.9648711742079659
 21
15.6812131760656488
 72
     1
 10
9.9648711742079659
 20
15.6812131760656488
 11
9.9232045075412998
 21
15.6812131760656488
 72
     1
 10
9.9232045075412998
 20
15.6812131760656488
 11
9.9232045075412998
 21
15.5562131760656488
 97
        3
330
17E
330
17F
330
180
 92
        1
 93
        4
 72
     1
 10
12.4232045075412998
 20
15.5562131760656488
 11
12.3815378408746319
 21
15.5562131760656488
 72
     1
 10
12.3815378408746319
 20
15.5562131760656488
 11
12.3815378408746319
 21
15.6812131760656488
 72
     1
 10
12.3815378408746319
 20
15.6812131760656488
 11
12.4232045075412998
 21
15.6812131760656488
 72
     1
 10
12.4232045075412998
 20
15.6812131760656488
 11
12.4232045075412998
 21
15.5562131760656488
 97
        3
330
182
330
183
330
184
 75
     0
 76
     1
 98
        0
  0
LINE
  5
182
102
{ACAD_REACTORS
330
181
102
}
100
AcDbEntity
  8
BUILDING_ENVELOPE
  6
CONTINUOUS
 62
     7
100
AcDbLine
 10
12.423205
 20
15.556213
 30
0.0
 11
12.381538
 21
15.556213
 31
0.0
  0
LINE
  5
183
102
{ACAD_REACTORS
330
181
102
}
100
AcDbEntity
  8
BUILDING_ENVELOPE
  6
CONTINUOUS
 62
     7
100
AcDbLine
 10
12.381538
 20
15.556213
 30
0.0
 11
12.381538
 21
15.681213
 31
0.0
  0
LINE
  5
184
102
{ACAD_REACTORS
330
181
102
}
100
AcDbEntity
  8
BUILDING_ENVELOPE
  6
CONTINUOUS
 62
     7
100
AcDbLine
 10
12.381538
 20
15.681213
 30
0.0
 11
12.423205
 21
15.681213
 31
0.0
  0
LINE
  5
185
102
{ACAD_REACTORS
330
171
102
}
100
AcDbEntity
  8
BUILDING_ENVELOPE
  6
CONTINUOUS
 62
     7
100
AcDbLine
 10
9.756538
 20
15.764547
 30
0.0
 11
9.756538
 21
15.431213
 31
0.0
  0
LINE
  5
186
102
{ACAD_REACTORS
330
171
102
}
100
AcDbEntity
  8
BUILDING_ENVELOPE
  6
CONTINUOUS
 62
     7
100
AcDbLine
 10
12.589871
 20
15.764547
 30
0.0
 11
12.589871
 21
15.431213
 31
0.0
  0
ARC
  5
187
102
{ACAD_REACTORS
330
171
102
}
100
AcDbEntity
  8
BUILDING_ENVELOPE
  6
CONTINUOUS
 62
     7
100
AcDbCircle
 10
9.923205
 20
15.431213
 30
0.0
 40
2.5
100
AcDbArc
 50
270.0
 51
0.0
  0
LWPOLYLINE
  5
188
102
{ACAD_REACTORS
330
189
102
}
100
AcDbEntity
  8
BUILDING_ENVELOPE
  6
CONTINUOUS
 62
     7
100
AcDbPolyline
 90
        4
 70
     1
 10
10.048205
 20
12.931213
 10
10.048205
 20
15.431213
 10
9.923205
 20
15.431213
 10
9.923205
 20
12.931213
  0
HATCH
  5
189
102
{ACAD_REACTORS
330
171
102
}
100
AcDbEntity
  8
BUILDING_ENVELOPE
 62
     7
100
AcDbHatch
 10
0.0
 20
0.0
 30
0.0
210
0.0
220
0.0
230
1.0
  2
SOLID
 70
     1
 71
     1
 91
        1
 92
        3
 72
     0
 73
     1
 93
        4
 10
10.0482045075412998
 20
12.9312131760656488
 10
10.0482045075412998
 20
15.4312131760656488
 10
9.9232045075412998
 20
15.4312131760656488
 10
9.9232045075412998
 20
12.9312131760656488
 97
        1
330
188
 75
     0
 76
     1
 98
        0
  0
LWPOLYLINE
  5
18B
102
{ACAD_REACTORS
330
18D
102
}
100
AcDbEntity
  8
BUILDING_ENVELOPE
  6
CONTINUOUS
 62
     7
100
AcDbPolyline
 90
        4
 70
     1
 10
13.168047
 20
26.435727
 10
13.168047
 20
31.418713
 10
12.818713
 20
31.418713
 10
12.818713
 20
26.435727
  0
LWPOLYLINE
  5
18C
102
{ACAD_REACTORS
330
18D
102
}
100
AcDbEntity
  8
BUILDING_ENVELOPE
  6
CONTINUOUS
 62
     7
100
AcDbPolyline
 90
        4
 70
     1
 10
13.160047
 20
31.418713
 10
12.826713
 20
31.418713
 10
12.826713
 20
31.252047
 10
13.160047
 20
31.252047
  0
HATCH
  5
18D
102
{ACAD_REACTORS
330
18A
102
}
100
AcDbEntity
  8
BUILDING_ENVELOPE
 62
     7
100
AcDbHatch
 10
0.0
 20
0.0
 30
0.0
210
0.0
220
0.0
230
1.0
  2
SOLID
 70
     1
 71
     1
 91
        2
 92
        3
 72
     0
 73
     1
 93
        4
 10
13.160046600379582
 20
31.4187131847963919
 10
12.826713267046248
 20
31.4187131847963919
 10
12.826713267046248
 20
31.252046518129724
 10
13.160046600379582
 20
31.252046518129724
 97
        2
330
18B
330
18C
 92
        3
 72
     0
 73
     1
 93
        4
 10
13.160046600379582
 20
26.4357270354865399
 10
12.826713267046248
 20
26.4357270354865399
 10
12.826713267046248
 20
26.6023937021532078
 10
13.160046600379582
 20
26.6023937021532078
 97
        1
330
18E
 75
     0
 76
     1
 98
        0
  0
LWPOLYLINE
  5
18E
102
{ACAD_REACTORS
330
18D
102
}
100
AcDbEntity
  8
BUILDING_ENVELOPE
  6
CONTINUOUS
 62
     7
100
AcDbPolyline
 90
        4
 70
     1
 10
13.160047
 20
26.435727
 10
12.826713
 20
26.435727
 10
12.826713
 20
26.602394
 10
13.160047
 20
26.602394
  0
LINE
  5
18F
102
{ACAD_REACTORS
330
18A
102
}
100
AcDbEntity
  8
BUILDING_ENVELOPE
  6
CONTINUOUS
 62
     7
100
AcDbLine
 10
13.160047
 20
31.418713
 30
0.0
 11
12.826713
 21
31.418713
 31
0.0
  0
LINE
  5
190
102
{ACAD_REACTORS
330
18A
102
}
100
AcDbEntity
  8
BUILDING_ENVELOPE
  6
CONTINUOUS
 62
     7
100
AcDbLine
 10
13.160047
 20
26.435727
 30
0.0
 11
12.826713
 21
26.435727
 31
0.0
  0
LWPOLYLINE
  5
192
102
{ACAD_REACTORS
330
198
102
}
100
AcDbEntity
  8
BUILDING_ENVELOPE
  6
CONTINUOUS
 62
     7
100
AcDbPolyline
 90
        4
 70
     1
 10
16.116187
 20
39.943599
 10
13.282854
 20
39.943599
 10
13.282854
 20
39.594266
 10
16.116187
 20
39.594266
  0
LINE
  5
193
102
{ACAD_REACTORS
330
198
102
}
100
AcDbEntity
  8
BUILDING_ENVELOPE
  6
CONTINUOUS
 62
     7
100
AcDbLine
 10
13.282854
 20
39.935599
 30
0.0
 11
13.282854
 21
39.602266
 31
0.0
  0
LINE
  5
194
102
{ACAD_REACTORS
330
198
102
}
100
AcDbEntity
  8
BUILDING_ENVELOPE
  6
CONTINUOUS
 62
     7
100
AcDbLine
 10
13.282854
 20
39.602266
 30
0.0
 11
13.44952
 21
39.602266
 31
0.0
  0
LINE
  5
195
102
{ACAD_REACTORS
330
198
102
}
100
AcDbEntity
  8
BUILDING_ENVELOPE
  6
CONTINUOUS
 62
     7
100
AcDbLine
 10
13.44952
 20
39.602266
 30
0.0
 11
13.44952
 21
39.727266
 31
0.0
  0
LINE
  5
196
102
{ACAD_REACTORS
330
198
102
}
100
AcDbEntity
  8
BUILDING_ENVELOPE
  6
CONTINUOUS
 62
     7
100
AcDbLine
 10
13.44952
 20
39.852266
 30
0.0
 11
13.44952
 21
39.935599
 31
0.0
  0
LINE
  5
197
102
{ACAD_REACTORS
330
198
102
}
100
AcDbEntity
  8
BUILDING_ENVELOPE
  6
CONTINUOUS
 62
     7
100
AcDbLine
 10
13.44952
 20
39.935599
 30
0.0
 11
13.282854
 21
39.935599
 31
0.0
  0
HATCH
  5
198
102
{ACAD_REACTORS
330
191
102
}
100
AcDbEntity
  8
BUILDING_ENVELOPE
 62
     7
100
AcDbHatch
 10
0.0
 20
0.0
 30
0.0
210
0.0
220
0.0
230
1.0
  2
SOLID
 70
     1
 71
     1
 91
        2
 92
        1
 93
        6
 72
     1
 10
13.2828535919648818
 20
39.9355994163140195
 11
13.2828535919648818
 21
39.602266082980691
 72
     1
 10
13.2828535919648818
 20
39.602266082980691
 11
13.4495202586315479
 21
39.602266082980691
 72
     1
 10
13.4495202586315479
 20
39.602266082980691
 11
13.4495202586315479
 21
39.727266082980691
 72
     1
 10
13.4495202586315479
 20
39.727266082980691
 11
13.4495202586315479
 21
39.852266082980691
 72
     1
 10
13.4495202586315479
 20
39.852266082980691
 11
13.4495202586315479
 21
39.9355994163140195
 72
     1
 10
13.4495202586315479
 20
39.9355994163140195
 11
13.2828535919648818
 21
39.9355994163140195
 97
        6
330
192
330
193
330
194
330
195
330
196
330
197
 92
        1
 93
        6
 72
     1
 10
16.1161869252982157
 20
39.9355994163140195
 11
16.1161869252982157
 21
39.602266082980691
 72
     1
 10
16.1161869252982157
 20
39.602266082980691
 11
15.9495202586315479
 21
39.602266082980691
 72
     1
 10
15.9495202586315479
 20
39.602266082980691
 11
15.9495202586315479
 21
39.727266082980691
 72
     1
 10
15.9495202586315479
 20
39.727266082980691
 11
15.9495202586315479
 21
39.852266082980691
 72
     1
 10
15.9495202586315479
 20
39.852266082980691
 11
15.9495202586315479
 21
39.9355994163140195
 72
     1
 10
15.9495202586315479
 20
39.9355994163140195
 11
16.1161869252982157
 21
39.9355994163140195
 97
        5
330
199
330
19A
330
19B
330
19C
330
19D
 75
     0
 76
     1
 98
        0
  0
LINE
  5
199
102
{ACAD_REACTORS
330
198
102
}
100
AcDbEntity
  8
BUILDING_ENVELOPE
  6
CONTINUOUS
 62
     7
100
AcDbLine
 10
16.116187
 20
39.935599
 30
0.0
 11
16.116187
 21
39.602266
 31
0.0
  0
LINE
  5
19A
102
{ACAD_REACTORS
330
198
102
}
100
AcDbEntity
  8
BUILDING_ENVELOPE
  6
CONTINUOUS
 62
     7
100
AcDbLine
 10
16.116187
 20
39.602266
 30
0.0
 11
15.94952
 21
39.602266
 31
0.0
  0
LINE
  5
19B
102
{ACAD_REACTORS
330
198
102
}
100
AcDbEntity
  8
BUILDING_ENVELOPE
  6
CONTINUOUS
 62
     7
100
AcDbLine
 10
15.94952
 20
39.602266
 30
0.0
 11
15.94952
 21
39.727266
 31
0.0
  0
LINE
  5
19C
102
{ACAD_REACTORS
330
198
102
}
100
AcDbEntity
  8
BUILDING_ENVELOPE
  6
CONTINUOUS
 62
     7
100
AcDbLine
 10
15.94952
 20
39.852266
 30
0.0
 11
15.94952
 21
39.935599
 31
0.0
  0
LINE
  5
19D
102
{ACAD_REACTORS
330
198
102
}
100
AcDbEntity
  8
BUILDING_ENVELOPE
  6
CONTINUOUS
 62
     7
100
AcDbLine
 10
15.94952
 20
39.935599
 30
0.0
 11
16.116187
 21
39.935599
 31
0.0
  0
LINE
  5
19E
102
{ACAD_REACTORS
330
1A1
102
}
100
AcDbEntity
  8
BUILDING_ENVELOPE
  6
CONTINUOUS
 62
     7
100
AcDbLine
 10
13.44952
 20
39.727266
 30
0.0
 11
13.491187
 21
39.727266
 31
0.0
  0
LINE
  5
19F
102
{ACAD_REACTORS
330
1A1
102
}
100
AcDbEntity
  8
BUILDING_ENVELOPE
  6
CONTINUOUS
 62
     7
100
AcDbLine
 10
13.491187
 20
39.727266
 30
0.0
 11
13.491187
 21
39.852266
 31
0.0
  0
LINE
  5
1A0
102
{ACAD_REACTORS
330
1A1
102
}
100
AcDbEntity
  8
BUILDING_ENVELOPE
  6
CONTINUOUS
 62
     7
100
AcDbLine
 10
13.491187
 20
39.852266
 30
0.0
 11
13.44952
 21
39.852266
 31
0.0
  0
HATCH
  5
1A1
102
{ACAD_REACTORS
330
191
102
}
100
AcDbEntity
  8
BUILDING_ENVELOPE
 62
     7
100
AcDbHatch
 10
0.0
 20
0.0
 30
0.0
210
0.0
220
0.0
230
1.0
  2
SOLID
 70
     1
 71
     1
 91
        2
 92
        1
 93
        4
 72
     1
 10
13.4495202586315479
 20
39.727266082980691
 11
13.4911869252982157
 21
39.727266082980691
 72
     1
 10
13.4911869252982157
 20
39.727266082980691
 11
13.4911869252982157
 21
39.852266082980691
 72
     1
 10
13.4911869252982157
 20
39.852266082980691
 11
13.4495202586315479
 21
39.852266082980691
 72
     1
 10
13.4495202586315479
 20
39.852266082980691
 11
13.4495202586315479
 21
39.727266082980691
 97
        3
330
19E
330
19F
330
1A0
 92
        1
 93
        4
 72
     1
 10
15.9495202586315479
 20
39.727266082980691
 11
15.9078535919648818
 21
39.727266082980691
 72
     1
 10
15.9078535919648818
 20
39.727266082980691
 11
15.9078535919648818
 21
39.852266082980691
 72
     1
 10
15.9078535919648818
 20
39.852266082980691
 11
15.9495202586315479
 21
39.852266082980691
 72
     1
 10
15.9495202586315479
 20
39.852266082980691
 11
15.9495202586315479
 21
39.727266082980691
 97
        3
330
1A2
330
1A3
330
1A4
 75
     0
 76
     1
 98
        0
  0
LINE
  5
1A2
102
{ACAD_REACTORS
330
1A1
102
}
100
AcDbEntity
  8
BUILDING_ENVELOPE
  6
CONTINUOUS
 62
     7
100
AcDbLine
 10
15.94952
 20
39.727266
 30
0.0
 11
15.907854
 21
39.727266
 31
0.0
  0
LINE
  5
1A3
102
{ACAD_REACTORS
330
1A1
102
}
100
AcDbEntity
  8
BUILDING_ENVELOPE
  6
CONTINUOUS
 62
     7
100
AcDbLine
 10
15.907854
 20
39.727266
 30
0.0
 11
15.907854
 21
39.852266
 31
0.0
  0
LINE
  5
1A4
102
{ACAD_REACTORS
330
1A1
102
}
100
AcDbEntity
  8
BUILDING_ENVELOPE
  6
CONTINUOUS
 62
     7
100
AcDbLine
 10
15.907854
 20
39.852266
 30
0.0
 11
15.94952
 21
39.852266
 31
0.0
  0
LINE
  5
1A5
102
{ACAD_REACTORS
330
191
102
}
100
AcDbEntity
  8
BUILDING_ENVELOPE
  6
CONTINUOUS
 62
     7
100
AcDbLine
 10
13.282854
 20
39.935599
 30
0.0
 11
13.282854
 21
39.602266
 31
0.0
  0
LINE
  5
1A6
102
{ACAD_REACTORS
330
191
102
}
100
AcDbEntity
  8
BUILDING_ENVELOPE
  6
CONTINUOUS
 62
     7
100
AcDbLine
 10
16.116187
 20
39.935599
 30
0.0
 11
16.116187
 21
39.602266
 31
0.0
  0
ARC
  5
1A7
102
{ACAD_REACTORS
330
191
102
}
100
AcDbEntity
  8
BUILDING_ENVELOPE
  6
CONTINUOUS
 62
     7
100
AcDbCircle
 10
13.44952
 20
39.602266
 30
0.0
 40
2.5
100
AcDbArc
 50
270.0
 51
0.0
  0
LWPOLYLINE
  5
1A8
102
{ACAD_REACTORS
330
1A9
102
}
100
AcDbEntity
  8
BUILDING_ENVELOPE
  6
CONTINUOUS
 62
     7
100
AcDbPolyline
 90
        4
 70
     1
 10
13.57452
 20
37.102266
 10
13.57452
 20
39.602266
 10
13.44952
 20
39.602266
 10
13.44952
 20
37.102266
  0
HATCH
  5
1A9
102
{ACAD_REACTORS
330
191
102
}
100
AcDbEntity
  8
BUILDING_ENVELOPE
 62
     7
100
AcDbHatch
 10
0.0
 20
0.0
 30
0.0
210
0.0
220
0.0
230
1.0
  2
SOLID
 70
     1
 71
     1
 91
        1
 92
        3
 72
     0
 73
     1
 93
        4
 10
13.5745202586315479
 20
37.102266082980691
 10
13.5745202586315479
 20
39.602266082980691
 10
13.4495202586315479
 20
39.602266082980691
 10
13.4495202586315479
 20
37.102266082980691
 97
        1
330
1A8
 75
     0
 76
     1
 98
        0
  0
LWPOLYLINE
  5
1AB
102
{ACAD_REACTORS
330
1B1
102
}
100
AcDbEntity
  8
BUILDING_ENVELOPE
  6
CONTINUOUS
 62
     7
100
AcDbPolyline
 90
        4
 70
     1
 10
13.168047
 20
11.962646
 10
13.168047
 20
15.431213
 10
12.818713
 20
15.431213
 10
12.818713
 20
11.962646
  0
LINE
  5
1AC
102
{ACAD_REACTORS
330
1B1
102
}
100
AcDbEntity
  8
BUILDING_ENVELOPE
  6
CONTINUOUS
 62
     7
100
AcDbLine
 10
13.160047
 20
11.962646
 30
0.0
 11
12.826713
 21
11.962646
 31
0.0
  0
LINE
  5
1AD
102
{ACAD_REACTORS
330
1B1
102
}
100
AcDbEntity
  8
BUILDING_ENVELOPE
  6
CONTINUOUS
 62
     7
100
AcDbLine
 10
12.826713
 20
11.962646
 30
0.0
 11
12.826713
 21
12.129312
 31
0.0
  0
LINE
  5
1AE
102
{ACAD_REACTORS
330
1B1
102
}
100
AcDbEntity
  8
BUILDING_ENVELOPE
  6
CONTINUOUS
 62
     7
100
AcDbLine
 10
12.826713
 20
12.129312
 30
0.0
 11
12.910047
 21
12.129312
 31
0.0
  0
LINE
  5
1AF
102
{ACAD_REACTORS
330
1B1
102
}
100
AcDbEntity
  8
BUILDING_ENVELOPE
  6
CONTINUOUS
 62
     7
100
AcDbLine
 10
13.076713
 20
12.129312
 30
0.0
 11
13.160047
 21
12.129312
 31
0.0
  0
LINE
  5
1B0
102
{ACAD_REACTORS
330
1B1
102
}
100
AcDbEntity
  8
BUILDING_ENVELOPE
  6
CONTINUOUS
 62
     7
100
AcDbLine
 10
13.160047
 20
12.129312
 30
0.0
 11
13.160047
 21
11.962646
 31
0.0
  0
HATCH
  5
1B1
102
{ACAD_REACTORS
330
1AA
102
}
100
AcDbEntity
  8
BUILDING_ENVELOPE
 62
     7
100
AcDbHatch
 10
0.0
 20
0.0
 30
0.0
210
0.0
220
0.0
230
1.0
  2
SOLID
 70
     1
 71
     1
 91
        2
 92
        1
 93
        6
 72
     1
 10
13.160046600379582
 20
11.962645822951945
 11
12.826713267046248
 21
11.962645822951945
 72
     1
 10
12.826713267046248
 20
11.962645822951945
 11
12.826713267046248
 21
12.1293124896186129
 72
     1
 10
12.826713267046248
 20
12.1293124896186129
 11
12.910046600379582
 21
12.1293124896186129
 72
     1
 10
12.910046600379582
 20
12.1293124896186129
 11
13.076713267046248
 21
12.1293124896186129
 72
     1
 10
13.076713267046248
 20
12.1293124896186129
 11
13.160046600379582
 21
12.1293124896186129
 72
     1
 10
13.160046600379582
 20
12.1293124896186129
 11
13.160046600379582
 21
11.962645822951945
 97
        6
330
1AB
330
1AC
330
1AD
330
1AE
330
1AF
330
1B0
 92
        1
 93
        6
 72
     1
 10
13.160046600379582
 20
15.4312131760656541
 11
12.826713267046248
 21
15.4312131760656541
 72
     1
 10
12.826713267046248
 20
15.4312131760656541
 11
12.826713267046248
 21
15.2645465093989863
 72
     1
 10
12.826713267046248
 20
15.2645465093989863
 11
12.910046600379582
 21
15.2645465093989863
 72
     1
 10
12.910046600379582
 20
15.2645465093989863
 11
13.076713267046248
 21
15.2645465093989863
 72
     1
 10
13.076713267046248
 20
15.2645465093989863
 11
13.160046600379582
 21
15.2645465093989863
 72
     1
 10
13.160046600379582
 20
15.2645465093989863
 11
13.160046600379582
 21
15.4312131760656541
 97
        5
330
1B2
330
1B3
330
1B4
330
1B5
330
1B6
 75
     0
 76
     1
 98
        0
  0
LINE
  5
1B2
102
{ACAD_REACTORS
330
1B1
102
}
100
AcDbEntity
  8
BUILDING_ENVELOPE
  6
CONTINUOUS
 62
     7
100
AcDbLine
 10
13.160047
 20
15.431213
 30
0.0
 11
12.826713
 21
15.431213
 31
0.0
  0
LINE
  5
1B3
102
{ACAD_REACTORS
330
1B1
102
}
100
AcDbEntity
  8
BUILDING_ENVELOPE
  6
CONTINUOUS
 62
     7
100
AcDbLine
 10
12.826713
 20
15.431213
 30
0.0
 11
12.826713
 21
15.264547
 31
0.0
  0
LINE
  5
1B4
102
{ACAD_REACTORS
330
1B1
102
}
100
AcDbEntity
  8
BUILDING_ENVELOPE
  6
CONTINUOUS
 62
     7
100
AcDbLine
 10
12.826713
 20
15.264547
 30
0.0
 11
12.910047
 21
15.264547
 31
0.0
  0
LINE
  5
1B5
102
{ACAD_REACTORS
330
1B1
102
}
100
AcDbEntity
  8
BUILDING_ENVELOPE
  6
CONTINUOUS
 62
     7
100
AcDbLine
 10
13.076713
 20
15.264547
 30
0.0
 11
13.160047
 21
15.264547
 31
0.0
  0
LINE
  5
1B6
102
{ACAD_REACTORS
330
1B1
102
}
100
AcDbEntity
  8
BUILDING_ENVELOPE
  6
CONTINUOUS
 62
     7
100
AcDbLine
 10
13.160047
 20
15.264547
 30
0.0
 11
13.160047
 21
15.431213
 31
0.0
  0
LWPOLYLINE
  5
1B7
102
{ACAD_REACTORS
330
1B8
102
}
100
AcDbEntity
  8
BUILDING_ENVELOPE
  6
CONTINUOUS
 62
     7
100
AcDbPolyline
 90
        4
 70
     1
 10
12.910047
 20
12.129312
 10
12.910047
 20
12.295979
 10
13.076713
 20
12.295979
 10
13.076713
 20
12.129312
  0
HATCH
  5
1B8
102
{ACAD_REACTORS
330
1AA
102
}
100
AcDbEntity
  8
BUILDING_ENVELOPE
 62
     7
100
AcDbHatch
 10
0.0
 20
0.0
 30
0.0
210
0.0
220
0.0
230
1.0
  2
SOLID
 70
     1
 71
     1
 91
        2
 92
        3
 72
     0
 73
     1
 93
        4
 10
12.910046600379582
 20
12.1293124896186129
 10
12.910046600379582
 20
12.2959791562852789
 10
13.076713267046248
 20
12.2959791562852789
 10
13.076713267046248
 20
12.1293124896186129
 97
        1
330
1B7
 92
        3
 72
     0
 73
     1
 93
        4
 10
12.910046600379582
 20
15.2645465093989863
 10
12.910046600379582
 20
15.0978798427323202
 10
13.076713267046248
 20
15.0978798427323202
 10
13.076713267046248
 20
15.2645465093989863
 97
        1
330
1B9
 75
     0
 76
     1
 98
        0
  0
LWPOLYLINE
  5
1B9
102
{ACAD_REACTORS
330
1B8
102
}
100
AcDbEntity
  8
BUILDING_ENVELOPE
  6
CONTINUOUS
 62
     7
100
AcDbPolyline
 90
        4
 70
     1
 10
12.910047
 20
15.264547
 10
12.910047
 20
15.09788
 10
13.076713
 20
15.09788
 10
13.076713
 20
15.264547
  0
LINE
  5
1BA
102
{ACAD_REACTORS
330
1AA
102
}
100
AcDbEntity
  8
BUILDING_ENVELOPE
  6
CONTINUOUS
 62
     7
100
AcDbLine
 10
12.99338
 20
12.295979
 30
0.0
 11
12.99338
 21
15.09788
 31
0.0
  0
LINE
  5
1BB
102
{ACAD_REACTORS
330
1AA
102
}
100
AcDbEntity
  8
BUILDING_ENVELOPE
  6
CONTINUOUS
 62
     7
100
AcDbLine
 10
13.160047
 20
11.962646
 30
0.0
 11
12.826713
 21
11.962646
 31
0.0
  0
LINE
  5
1BC
102
{ACAD_REACTORS
330
1AA
102
}
100
AcDbEntity
  8
BUILDING_ENVELOPE
  6
CONTINUOUS
 62
     7
100
AcDbLine
 10
13.160047
 20
15.431213
 30
0.0
 11
12.826713
 21
15.431213
 31
0.0
  0
LWPOLYLINE
  5
1BE
102
{ACAD_REACTORS
330
1C4
102
}
100
AcDbEntity
  8
BUILDING_ENVELOPE
  6
CONTINUOUS
 62
     7
100
AcDbPolyline
 90
        4
 70
     1
 10
6.519696
 20
15.423213
 10
9.353029
 20
15.423213
 10
9.353029
 20
15.772547
 10
6.519696
 20
15.772547
  0
LINE
  5
1BF
102
{ACAD_REACTORS
330
1C4
102
}
100
AcDbEntity
  8
BUILDING_ENVELOPE
  6
CONTINUOUS
 62
     7
100
AcDbLine
 10
9.353029
 20
15.431213
 30
0.0
 11
9.353029
 21
15.764547
 31
0.0
  0
LINE
  5
1C0
102
{ACAD_REACTORS
330
1C4
102
}
100
AcDbEntity
  8
BUILDING_ENVELOPE
  6
CONTINUOUS
 62
     7
100
AcDbLine
 10
9.353029
 20
15.764547
 30
0.0
 11
9.186362
 21
15.764547
 31
0.0
  0
LINE
  5
1C1
102
{ACAD_REACTORS
330
1C4
102
}
100
AcDbEntity
  8
BUILDING_ENVELOPE
  6
CONTINUOUS
 62
     7
100
AcDbLine
 10
9.186362
 20
15.764547
 30
0.0
 11
9.186362
 21
15.639547
 31
0.0
  0
LINE
  5
1C2
102
{ACAD_REACTORS
330
1C4
102
}
100
AcDbEntity
  8
BUILDING_ENVELOPE
  6
CONTINUOUS
 62
     7
100
AcDbLine
 10
9.186362
 20
15.514547
 30
0.0
 11
9.186362
 21
15.431213
 31
0.0
  0
LINE
  5
1C3
102
{ACAD_REACTORS
330
1C4
102
}
100
AcDbEntity
  8
BUILDING_ENVELOPE
  6
CONTINUOUS
 62
     7
100
AcDbLine
 10
9.186362
 20
15.431213
 30
0.0
 11
9.353029
 21
15.431213
 31
0.0
  0
HATCH
  5
1C4
102
{ACAD_REACTORS
330
1BD
102
}
100
AcDbEntity
  8
BUILDING_ENVELOPE
 62
     7
100
AcDbHatch
 10
0.0
 20
0.0
 30
0.0
210
0.0
220
0.0
230
1.0
  2
SOLID
 70
     1
 71
     1
 91
        2
 92
        1
 93
        6
 72
     1
 10
9.3530291656789686
 20
15.4312131760656417
 11
9.3530291656789686
 21
15.7645465093989756
 72
     1
 10
9.3530291656789686
 20
15.7645465093989756
 11
9.1863624990123025
 21
15.7645465093989756
 72
     1
 10
9.1863624990123025
 20
15.7645465093989756
 11
9.1863624990123025
 21
15.6395465093989756
 72
     1
 10
9.1863624990123025
 20
15.6395465093989756
 11
9.1863624990123025
 21
15.5145465093989756
 72
     1
 10
9.1863624990123025
 20
15.5145465093989756
 11
9.1863624990123025
 21
15.4312131760656417
 72
     1
 10
9.1863624990123025
 20
15.4312131760656417
 11
9.3530291656789686
 21
15.4312131760656417
 97
        6
330
1BE
330
1BF
330
1C0
330
1C1
330
1C2
330
1C3
 92
        1
 93
        6
 72
     1
 10
6.5196958323456364
 20
15.4312131760656417
 11
6.5196958323456364
 21
15.7645465093989756
 72
     1
 10
6.5196958323456364
 20
15.7645465093989756
 11
6.6863624990123025
 21
15.7645465093989756
 72
     1
 10
6.6863624990123025
 20
15.7645465093989756
 11
6.6863624990123025
 21
15.6395465093989756
 72
     1
 10
6.6863624990123025
 20
15.6395465093989756
 11
6.6863624990123025
 21
15.5145465093989756
 72
     1
 10
6.6863624990123025
 20
15.5145465093989756
 11
6.6863624990123025
 21
15.4312131760656417
 72
     1
 10
6.6863624990123025
 20
15.4312131760656417
 11
6.5196958323456364
 21
15.4312131760656417
 97
        5
330
1C5
330
1C6
330
1C7
330
1C8
330
1C9
 75
     0
 76
     1
 98
        0
  0
LINE
  5
1C5
102
{ACAD_REACTORS
330
1C4
102
}
100
AcDbEntity
  8
BUILDING_ENVELOPE
  6
CONTINUOUS
 62
     7
100
AcDbLine
 10
6.519696
 20
15.431213
 30
0.0
 11
6.519696
 21
15.764547
 31
0.0
  0
LINE
  5
1C6
102
{ACAD_REACTORS
330
1C4
102
}
100
AcDbEntity
  8
BUILDING_ENVELOPE
  6
CONTINUOUS
 62
     7
100
AcDbLine
 10
6.519696
 20
15.764547
 30
0.0
 11
6.686362
 21
15.764547
 31
0.0
  0
LINE
  5
1C7
102
{ACAD_REACTORS
330
1C4
102
}
100
AcDbEntity
  8
BUILDING_ENVELOPE
  6
CONTINUOUS
 62
     7
100
AcDbLine
 10
6.686362
 20
15.764547
 30
0.0
 11
6.686362
 21
15.639547
 31
0.0
  0
LINE
  5
1C8
102
{ACAD_REACTORS
330
1C4
102
}
100
AcDbEntity
  8
BUILDING_ENVELOPE
  6
CONTINUOUS
 62
     7
100
AcDbLine
 10
6.686362
 20
15.514547
 30
0.0
 11
6.686362
 21
15.431213
 31
0.0
  0
LINE
  5
1C9
102
{ACAD_REACTORS
330
1C4
102
}
100
AcDbEntity
  8
BUILDING_ENVELOPE
  6
CONTINUOUS
 62
     7
100
AcDbLine
 10
6.686362
 20
15.431213
 30
0.0
 11
6.519696
 21
15.431213
 31
0.0
  0
LINE
  5
1CA
102
{ACAD_REACTORS
330
1CD
102
}
100
AcDbEntity
  8
BUILDING_ENVELOPE
  6
CONTINUOUS
 62
     7
100
AcDbLine
 10
9.186362
 20
15.639547
 30
0.0
 11
9.144696
 21
15.639547
 31
0.0
  0
LINE
  5
1CB
102
{ACAD_REACTORS
330
1CD
102
}
100
AcDbEntity
  8
BUILDING_ENVELOPE
  6
CONTINUOUS
 62
     7
100
AcDbLine
 10
9.144696
 20
15.639547
 30
0.0
 11
9.144696
 21
15.514547
 31
0.0
  0
LINE
  5
1CC
102
{ACAD_REACTORS
330
1CD
102
}
100
AcDbEntity
  8
BUILDING_ENVELOPE
  6
CONTINUOUS
 62
     7
100
AcDbLine
 10
9.144696
 20
15.514547
 30
0.0
 11
9.186362
 21
15.514547
 31
0.0
  0
HATCH
  5
1CD
102
{ACAD_REACTORS
330
1BD
102
}
100
AcDbEntity
  8
BUILDING_ENVELOPE
 62
     7
100
AcDbHatch
 10
0.0
 20
0.0
 30
0.0
210
0.0
220
0.0
230
1.0
  2
SOLID
 70
     1
 71
     1
 91
        2
 92
        1
 93
        4
 72
     1
 10
9.1863624990123025
 20
15.6395465093989756
 11
9.1446958323456364
 21
15.6395465093989756
 72
     1
 10
9.1446958323456364
 20
15.6395465093989756
 11
9.1446958323456364
 21
15.5145465093989756
 72
     1
 10
9.1446958323456364
 20
15.5145465093989756
 11
9.1863624990123025
 21
15.5145465093989756
 72
     1
 10
9.1863624990123025
 20
15.5145465093989756
 11
9.1863624990123025
 21
15.6395465093989756
 97
        3
330
1CA
330
1CB
330
1CC
 92
        1
 93
        4
 72
     1
 10
6.6863624990123025
 20
15.6395465093989756
 11
6.7280291656789695
 21
15.6395465093989756
 72
     1
 10
6.7280291656789695
 20
15.6395465093989756
 11
6.7280291656789695
 21
15.5145465093989756
 72
     1
 10
6.7280291656789695
 20
15.5145465093989756
 11
6.6863624990123025
 21
15.5145465093989756
 72
     1
 10
6.6863624990123025
 20
15.5145465093989756
 11
6.6863624990123025
 21
15.6395465093989756
 97
        3
330
1CE
330
1CF
330
1D0
 75
     0
 76
     1
 98
        0
  0
LINE
  5
1CE
102
{ACAD_REACTORS
330
1CD
102
}
100
AcDbEntity
  8
BUILDING_ENVELOPE
  6
CONTINUOUS
 62
     7
100
AcDbLine
 10
6.686362
 20
15.639547
 30
0.0
 11
6.728029
 21
15.639547
 31
0.0
  0
LINE
  5
1CF
102
{ACAD_REACTORS
330
1CD
102
}
100
AcDbEntity
  8
BUILDING_ENVELOPE
  6
CONTINUOUS
 62
     7
100
AcDbLine
 10
6.728029
 20
15.639547
 30
0.0
 11
6.728029
 21
15.514547
 31
0.0
  0
LINE
  5
1D0
102
{ACAD_REACTORS
330
1CD
102
}
100
AcDbEntity
  8
BUILDING_ENVELOPE
  6
CONTINUOUS
 62
     7
100
AcDbLine
 10
6.728029
 20
15.514547
 30
0.0
 11
6.686362
 21
15.514547
 31
0.0
  0
LINE
  5
1D1
102
{ACAD_REACTORS
330
1BD
102
}
100
AcDbEntity
  8
BUILDING_ENVELOPE
  6
CONTINUOUS
 62
     7
100
AcDbLine
 10
9.353029
 20
15.431213
 30
0.0
 11
9.353029
 21
15.764547
 31
0.0
  0
LINE
  5
1D2
102
{ACAD_REACTORS
330
1BD
102
}
100
AcDbEntity
  8
BUILDING_ENVELOPE
  6
CONTINUOUS
 62
     7
100
AcDbLine
 10
6.519696
 20
15.431213
 30
0.0
 11
6.519696
 21
15.764547
 31
0.0
  0
ARC
  5
1D3
102
{ACAD_REACTORS
330
1BD
102
}
100
AcDbEntity
  8
BUILDING_ENVELOPE
  6
CONTINUOUS
 62
     7
100
AcDbCircle
 10
9.186362
 20
15.764547
 30
0.0
 40
2.5
100
AcDbArc
 50
90.0
 51
180.0
  0
LWPOLYLINE
  5
1D4
102
{ACAD_REACTORS
330
1D5
102
}
100
AcDbEntity
  8
BUILDING_ENVELOPE
  6
CONTINUOUS
 62
     7
100
AcDbPolyline
 90
        4
 70
     1
 10
9.061362
 20
18.264547
 10
9.061362
 20
15.764547
 10
9.186362
 20
15.764547
 10
9.186362
 20
18.264547
  0
HATCH
  5
1D5
102
{ACAD_REACTORS
330
1BD
102
}
100
AcDbEntity
  8
BUILDING_ENVELOPE
 62
     7
100
AcDbHatch
 10
0.0
 20
0.0
 30
0.0
210
0.0
220
0.0
230
1.0
  2
SOLID
 70
     1
 71
     1
 91
        1
 92
        3
 72
     0
 73
     1
 93
        4
 10
9.0613624990123025
 20
18.2645465093989756
 10
9.0613624990123025
 20
15.7645465093989756
 10
9.1863624990123025
 20
15.7645465093989756
 10
9.1863624990123025
 20
18.2645465093989756
 97
        1
330
1D4
 75
     0
 76
     1
 98
        0
  0
LWPOLYLINE
  5
1D7
102
{ACAD_REACTORS
330
1D9
102
}
100
AcDbEntity
  8
BUILDING_ENVELOPE
  6
CONTINUOUS
 62
     7
100
AcDbPolyline
 90
        4
 70
     1
 10
13.326713
 20
31.160055
 10
16.160047
 20
31.160055
 10
16.160047
 20
31.509388
 10
13.326713
 20
31.509388
  0
LWPOLYLINE
  5
1D8
102
{ACAD_REACTORS
330
1D9
102
}
100
AcDbEntity
  8
BUILDING_ENVELOPE
  6
CONTINUOUS
 62
     7
100
AcDbPolyline
 90
        4
 70
     1
 10
16.160047
 20
31.168055
 10
16.160047
 20
31.501388
 10
15.99338
 20
31.501388
 10
15.99338
 20
31.168055
  0
HATCH
  5
1D9
102
{ACAD_REACTORS
330
1D6
102
}
100
AcDbEntity
  8
BUILDING_ENVELOPE
 62
     7
100
AcDbHatch
 10
0.0
 20
0.0
 30
0.0
210
0.0
220
0.0
230
1.0
  2
SOLID
 70
     1
 71
     1
 91
        2
 92
        3
 72
     0
 73
     1
 93
        4
 10
16.1600466003794736
 20
31.1680550159766767
 10
16.1600466003794736
 20
31.5013883493100089
 10
15.9933799337128093
 20
31.5013883493100089
 10
15.9933799337128093
 20
31.1680550159766767
 97
        2
330
1D7
330
1D8
 92
        3
 72
     0
 73
     1
 93
        4
 10
13.3267132670461415
 20
31.1680550159766767
 10
13.3267132670461415
 20
31.5013883493100089
 10
13.4933799337128093
 20
31.5013883493100089
 10
13.4933799337128093
 20
31.1680550159766767
 97
        1
330
1DA
 75
     0
 76
     1
 98
        0
  0
LWPOLYLINE
  5
1DA
102
{ACAD_REACTORS
330
1D9
102
}
100
AcDbEntity
  8
BUILDING_ENVELOPE
  6
CONTINUOUS
 62
     7
100
AcDbPolyline
 90
        4
 70
     1
 10
13.326713
 20
31.168055
 10
13.326713
 20
31.501388
 10
13.49338
 20
31.501388
 10
13.49338
 20
31.168055
  0
LINE
  5
1DB
102
{ACAD_REACTORS
330
1D6
102
}
100
AcDbEntity
  8
BUILDING_ENVELOPE
  6
CONTINUOUS
 62
     7
100
AcDbLine
 10
16.160047
 20
31.168055
 30
0.0
 11
16.160047
 21
31.501388
 31
0.0
  0
LINE
  5
1DC
102
{ACAD_REACTORS
330
1D6
102
}
100
AcDbEntity
  8
BUILDING_ENVELOPE
  6
CONTINUOUS
 62
     7
100
AcDbLine
 10
13.326713
 20
31.168055
 30
0.0
 11
13.326713
 21
31.501388
 31
0.0
  0
LWPOLYLINE
  5
1DE
102
{ACAD_REACTORS
330
1E4
102
}
100
AcDbEntity
  8
BUILDING_ENVELOPE
  6
CONTINUOUS
 62
     7
100
AcDbPolyline
 90
        4
 70
     1
 10
16.450292
 20
29.450146
 10
16.450292
 20
26.616812
 10
16.799625
 20
26.616812
 10
16.799625
 20
29.450146
  0
LINE
  5
1DF
102
{ACAD_REACTORS
330
1E4
102
}
100
AcDbEntity
  8
BUILDING_ENVELOPE
  6
CONTINUOUS
 62
     7
100
AcDbLine
 10
16.458292
 20
26.616812
 30
0.0
 11
16.791625
 21
26.616812
 31
0.0
  0
LINE
  5
1E0
102
{ACAD_REACTORS
330
1E4
102
}
100
AcDbEntity
  8
BUILDING_ENVELOPE
  6
CONTINUOUS
 62
     7
100
AcDbLine
 10
16.791625
 20
26.616812
 30
0.0
 11
16.791625
 21
26.783479
 31
0.0
  0
LINE
  5
1E1
102
{ACAD_REACTORS
330
1E4
102
}
100
AcDbEntity
  8
BUILDING_ENVELOPE
  6
CONTINUOUS
 62
     7
100
AcDbLine
 10
16.791625
 20
26.783479
 30
0.0
 11
16.666625
 21
26.783479
 31
0.0
  0
LINE
  5
1E2
102
{ACAD_REACTORS
330
1E4
102
}
100
AcDbEntity
  8
BUILDING_ENVELOPE
  6
CONTINUOUS
 62
     7
100
AcDbLine
 10
16.541625
 20
26.783479
 30
0.0
 11
16.458292
 21
26.783479
 31
0.0
  0
LINE
  5
1E3
102
{ACAD_REACTORS
330
1E4
102
}
100
AcDbEntity
  8
BUILDING_ENVELOPE
  6
CONTINUOUS
 62
     7
100
AcDbLine
 10
16.458292
 20
26.783479
 30
0.0
 11
16.458292
 21
26.616812
 31
0.0
  0
HATCH
  5
1E4
102
{ACAD_REACTORS
330
1DD
102
}
100
AcDbEntity
  8
BUILDING_ENVELOPE
 62
     7
100
AcDbHatch
 10
0.0
 20
0.0
 30
0.0
210
0.0
220
0.0
230
1.0
  2
SOLID
 70
     1
 71
     1
 91
        2
 92
        1
 93
        6
 72
     1
 10
16.4582921531795741
 20
26.6168124983493506
 11
16.7916254865129062
 21
26.6168124983493506
 72
     1
 10
16.7916254865129062
 20
26.6168124983493506
 11
16.7916254865129062
 21
26.7834791650160184
 72
     1
 10
16.7916254865129062
 20
26.7834791650160184
 11
16.6666254865129062
 21
26.7834791650160184
 72
     1
 10
16.6666254865129062
 20
26.7834791650160184
 11
16.5416254865129062
 21
26.7834791650160184
 72
     1
 10
16.5416254865129062
 20
26.7834791650160184
 11
16.4582921531795741
 21
26.7834791650160184
 72
     1
 10
16.4582921531795741
 20
26.7834791650160184
 11
16.4582921531795741
 21
26.6168124983493506
 97
        6
330
1DE
330
1DF
330
1E0
330
1E1
330
1E2
330
1E3
 92
        1
 93
        6
 72
     1
 10
16.4582921531795741
 20
29.4501458316826827
 11
16.7916254865129062
 21
29.4501458316826827
 72
     1
 10
16.7916254865129062
 20
29.4501458316826827
 11
16.7916254865129062
 21
29.2834791650160184
 72
     1
 10
16.7916254865129062
 20
29.2834791650160184
 11
16.6666254865129062
 21
29.2834791650160184
 72
     1
 10
16.6666254865129062
 20
29.2834791650160184
 11
16.5416254865129062
 21
29.2834791650160184
 72
     1
 10
16.5416254865129062
 20
29.2834791650160184
 11
16.4582921531795741
 21
29.2834791650160184
 72
     1
 10
16.4582921531795741
 20
29.2834791650160184
 11
16.4582921531795741
 21
29.4501458316826827
 97
        5
330
1E5
330
1E6
330
1E7
330
1E8
330
1E9
 75
     0
 76
     1
 98
        0
  0
LINE
  5
1E5
102
{ACAD_REACTORS
330
1E4
102
}
100
AcDbEntity
  8
BUILDING_ENVELOPE
  6
CONTINUOUS
 62
     7
100
AcDbLine
 10
16.458292
 20
29.450146
 30
0.0
 11
16.791625
 21
29.450146
 31
0.0
  0
LINE
  5
1E6
102
{ACAD_REACTORS
330
1E4
102
}
100
AcDbEntity
  8
BUILDING_ENVELOPE
  6
CONTINUOUS
 62
     7
100
AcDbLine
 10
16.791625
 20
29.450146
 30
0.0
 11
16.791625
 21
29.283479
 31
0.0
  0
LINE
  5
1E7
102
{ACAD_REACTORS
330
1E4
102
}
100
AcDbEntity
  8
BUILDING_ENVELOPE
  6
CONTINUOUS
 62
     7
100
AcDbLine
 10
16.791625
 20
29.283479
 30
0.0
 11
16.666625
 21
29.283479
 31
0.0
  0
LINE
  5
1E8
102
{ACAD_REACTORS
330
1E4
102
}
100
AcDbEntity
  8
BUILDING_ENVELOPE
  6
CONTINUOUS
 62
     7
100
AcDbLine
 10
16.541625
 20
29.283479
 30
0.0
 11
16.458292
 21
29.283479
 31
0.0
  0
LINE
  5
1E9
102
{ACAD_REACTORS
330
1E4
102
}
100
AcDbEntity
  8
BUILDING_ENVELOPE
  6
CONTINUOUS
 62
     7
100
AcDbLine
 10
16.458292
 20
29.283479
 30
0.0
 11
16.458292
 21
29.450146
 31
0.0
  0
LINE
  5
1EA
102
{ACAD_REACTORS
330
1ED
102
}
100
AcDbEntity
  8
BUILDING_ENVELOPE
  6
CONTINUOUS
 62
     7
100
AcDbLine
 10
16.666625
 20
26.783479
 30
0.0
 11
16.666625
 21
26.825146
 31
0.0
  0
LINE
  5
1EB
102
{ACAD_REACTORS
330
1ED
102
}
100
AcDbEntity
  8
BUILDING_ENVELOPE
  6
CONTINUOUS
 62
     7
100
AcDbLine
 10
16.666625
 20
26.825146
 30
0.0
 11
16.541625
 21
26.825146
 31
0.0
  0
LINE
  5
1EC
102
{ACAD_REACTORS
330
1ED
102
}
100
AcDbEntity
  8
BUILDING_ENVELOPE
  6
CONTINUOUS
 62
     7
100
AcDbLine
 10
16.541625
 20
26.825146
 30
0.0
 11
16.541625
 21
26.783479
 31
0.0
  0
HATCH
  5
1ED
102
{ACAD_REACTORS
330
1DD
102
}
100
AcDbEntity
  8
BUILDING_ENVELOPE
 62
     7
100
AcDbHatch
 10
0.0
 20
0.0
 30
0.0
210
0.0
220
0.0
230
1.0
  2
SOLID
 70
     1
 71
     1
 91
        2
 92
        1
 93
        4
 72
     1
 10
16.6666254865129062
 20
26.7834791650160184
 11
16.6666254865129062
 21
26.8251458316826827
 72
     1
 10
16.6666254865129062
 20
26.8251458316826827
 11
16.5416254865129062
 21
26.8251458316826827
 72
     1
 10
16.5416254865129062
 20
26.8251458316826827
 11
16.5416254865129062
 21
26.7834791650160184
 72
     1
 10
16.5416254865129062
 20
26.7834791650160184
 11
16.6666254865129062
 21
26.7834791650160184
 97
        3
330
1EA
330
1EB
330
1EC
 92
        1
 93
        4
 72
     1
 10
16.6666254865129062
 20
29.2834791650160184
 11
16.6666254865129062
 21
29.2418124983493506
 72
     1
 10
16.6666254865129062
 20
29.2418124983493506
 11
16.5416254865129062
 21
29.2418124983493506
 72
     1
 10
16.5416254865129062
 20
29.2418124983493506
 11
16.5416254865129062
 21
29.2834791650160184
 72
     1
 10
16.5416254865129062
 20
29.2834791650160184
 11
16.6666254865129062
 21
29.2834791650160184
 97
        3
330
1EE
330
1EF
330
1F0
 75
     0
 76
     1
 98
        0
  0
LINE
  5
1EE
102
{ACAD_REACTORS
330
1ED
102
}
100
AcDbEntity
  8
BUILDING_ENVELOPE
  6
CONTINUOUS
 62
     7
100
AcDbLine
 10
16.666625
 20
29.283479
 30
0.0
 11
16.666625
 21
29.241812
 31
0.0
  0
LINE
  5
1EF
102
{ACAD_REACTORS
330
1ED
102
}
100
AcDbEntity
  8
BUILDING_ENVELOPE
  6
CONTINUOUS
 62
     7
100
AcDbLine
 10
16.666625
 20
29.241812
 30
0.0
 11
16.541625
 21
29.241812
 31
0.0
  0
LINE
  5
1F0
102
{ACAD_REACTORS
330
1ED
102
}
100
AcDbEntity
  8
BUILDING_ENVELOPE
  6
CONTINUOUS
 62
     7
100
AcDbLine
 10
16.541625
 20
29.241812
 30
0.0
 11
16.541625
 21
29.283479
 31
0.0
  0
LINE
  5
1F1
102
{ACAD_REACTORS
330
1DD
102
}
100
AcDbEntity
  8
BUILDING_ENVELOPE
  6
CONTINUOUS
 62
     7
100
AcDbLine
 10
16.458292
 20
26.616812
 30
0.0
 11
16.791625
 21
26.616812
 31
0.0
  0
LINE
  5
1F2
102
{ACAD_REACTORS
330
1DD
102
}
100
AcDbEntity
  8
BUILDING_ENVELOPE
  6
CONTINUOUS
 62
     7
100
AcDbLine
 10
16.458292
 20
29.450146
 30
0.0
 11
16.791625
 21
29.450146
 31
0.0
  0
ARC
  5
1F3
102
{ACAD_REACTORS
330
1DD
102
}
100
AcDbEntity
  8
BUILDING_ENVELOPE
  6
CONTINUOUS
 62
     7
100
AcDbCircle
 10
16.791625
 20
26.783479
 30
0.0
 40
2.5
100
AcDbArc
 50
0.0
 51
90.0
  0
LWPOLYLINE
  5
1F4
102
{ACAD_REACTORS
330
1F5
102
}
100
AcDbEntity
  8
BUILDING_ENVELOPE
  6
CONTINUOUS
 62
     7
100
AcDbPolyline
 90
        4
 70
     1
 10
19.291625
 20
26.908479
 10
16.791625
 20
26.908479
 10
16.791625
 20
26.783479
 10
19.291625
 20
26.783479
  0
HATCH
  5
1F5
102
{ACAD_REACTORS
330
1DD
102
}
100
AcDbEntity
  8
BUILDING_ENVELOPE
 62
     7
100
AcDbHatch
 10
0.0
 20
0.0
 30
0.0
210
0.0
220
0.0
230
1.0
  2
SOLID
 70
     1
 71
     1
 91
        1
 92
        3
 72
     0
 73
     1
 93
        4
 10
19.2916254865129062
 20
26.9084791650160184
 10
16.7916254865129062
 20
26.9084791650160184
 10
16.7916254865129062
 20
26.7834791650160184
 10
19.2916254865129062
 20
26.7834791650160184
 97
        1
330
1F4
 75
     0
 76
     1
 98
        0
  0
LWPOLYLINE
  5
1F7
102
{ACAD_REACTORS
330
1F8
102
}
100
AcDbEntity
  8
BUILDING_ENVELOPE
  6
CONTINUOUS
 62
     9
100
AcDbPolyline
 90
        4
 70
     1
 10
18.077664
 20
7.772465
 10
18.077664
 20
8.722465
 10
21.35197
 20
8.722465
 10
21.35197
 20
7.772465
  0
HATCH
  5
1F8
102
{ACAD_REACTORS
330
1F6
102
}
100
AcDbEntity
  8
BUILDING_ENVELOPE
 62
   134
100
AcDbHatch
 10
0.0
 20
0.0
 30
0.0
210
0.0
220
0.0
230
1.0
  2
SOLID
 70
     1
 71
     1
 91
       33
 92
        3
 72
     0
 73
     1
 93
        4
 10
18.0776641217975111
 20
7.7724653780333899
 10
18.0776641217975111
 20
8.7224653577991784
 10
21.3519698586021818
 20
8.7224653577991784
 10
21.3519698586021818
 20
7.7724653780333899
 97
        1
330
1F7
 92
        3
 72
     0
 73
     1
 93
        4
 10
18.0776641217975111
 20
8.7224653577991784
 10
18.0776641217975111
 20
9.6724653375649652
 10
21.3519698586021818
 20
9.6724653375649652
 10
21.3519698586021818
 20
8.7224653577991784
 97
        1
330
1F9
 92
        3
 72
     0
 73
     1
 93
        4
 10
18.0776641217975111
 20
9.6724653375649652
 10
18.0776641217975111
 20
10.6224653173307537
 10
21.3519698586021818
 20
10.6224653173307537
 10
21.3519698586021818
 20
9.6724653375649652
 97
        1
330
1FA
 92
        3
 72
     0
 73
     1
 93
        4
 10
18.0776641217975111
 20
10.6224653173307537
 10
18.0776641217975111
 20
11.5724652970965423
 10
21.3519698586021818
 20
11.5724652970965423
 10
21.3519698586021818
 20
10.6224653173307537
 97
        1
330
1FB
 92
        3
 72
     0
 73
     1
 93
        4
 10
18.0776641217975111
 20
11.5724652970965423
 10
18.0776641217975111
 20
12.522465276862329
 10
21.3519698586021818
 20
12.522465276862329
 10
21.3519698586021818
 20
11.5724652970965423
 97
        1
330
1FC
 92
        0
 93
        0
 97
        0
 92
        0
 93
        0
 97
        0
 92
        0
 93
        0
 97
        0
 92
        0
 93
        0
 97
        0
 92
        0
 93
        0
 97
        0
 92
        0
 93
        0
 97
        0
 92
        0
 93
        0
 97
        0
 92
        0
 93
        0
 97
        0
 92
        0
 93
        0
 97
        0
 92
        0
 93
        0
 97
        0
 92
        0
 93
        0
 97
        0
 92
        0
 93
        0
 97
        0
 92
        0
 93
        0
 97
        0
 92
        0
 93
        0
 97
        0
 92
        0
 93
        0
 97
        0
 92
        0
 93
        0
 97
        0
 92
        0
 93
        0
 97
        0
 92
        0
 93
        0
 97
        0
 92
        0
 93
        0
 97
        0
 92
        0
 93
        0
 97
        0
 92
        0
 93
        0
 97
        0
 92
        0
 93
        0
 97
        0
 92
        0
 93
        0
 97
        0
 92
        0
 93
        0
 97
        0
 92
        0
 93
        0
 97
        0
 92
        0
 93
        0
 97
        0
 92
        0
 93
        0
 97
        0
 92
        0
 93
        0
 97
        0
 75
     0
 76
     1
 98
        0
  0
LWPOLYLINE
  5
1F9
102
{ACAD_REACTORS
330
1F8
102
}
100
AcDbEntity
  8
BUILDING_ENVELOPE
  6
CONTINUOUS
 62
     9
100
AcDbPolyline
 90
        4
 70
     1
 10
18.077664
 20
8.722465
 10
18.077664
 20
9.672465
 10
21.35197
 20
9.672465
 10
21.35197
 20
8.722465
  0
LWPOLYLINE
  5
1FA
102
{ACAD_REACTORS
330
1F8
102
}
100
AcDbEntity
  8
BUILDING_ENVELOPE
  6
CONTINUOUS
 62
     9
100
AcDbPolyline
 90
        4
 70
     1
 10
18.077664
 20
9.672465
 10
18.077664
 20
10.622465
 10
21.35197
 20
10.622465
 10
21.35197
 20
9.672465
  0
LWPOLYLINE
  5
1FB
102
{ACAD_REACTORS
330
1F8
102
}
100
AcDbEntity
  8
BUILDING_ENVELOPE
  6
CONTINUOUS
 62
     9
100
AcDbPolyline
 90
        4
 70
     1
 10
18.077664
 20
10.622465
 10
18.077664
 20
11.572465
 10
21.35197
 20
11.572465
 10
21.35197
 20
10.622465
  0
LWPOLYLINE
  5
1FC
102
{ACAD_REACTORS
330
1F8
102
}
100
AcDbEntity
  8
BUILDING_ENVELOPE
  6
CONTINUOUS
 62
     9
100
AcDbPolyline
 90
        4
 70
     1
 10
18.077664
 20
11.572465
 10
18.077664
 20
12.522465
 10
21.35197
 20
12.522465
 10
21.35197
 20
11.572465
  0
MTEXT
  5
1FD
100
AcDbEntity
  8
BUILDING_ENVELOPE
100
AcDbMText
 10
19.714817
 20
7.395832
 30
0.0
 40
0.500004
 41
0.753267
 71
     5
 72
     5
  1
\C7;\fCalibri|b0|i0|;\H0.50000381469727;U\PP
 11
0.0
 21
1.0
 31
0.0
  0
CIRCLE
  5
1FF
102
{ACAD_REACTORS
330
200
102
}
100
AcDbEntity
  8
STAIR
  6
CONTINUOUS
 62
     7
100
AcDbCircle
 10
19.714817
 20
7.772465
 30
0.0
 40
0.086804
  0
HATCH
  5
200
102
{ACAD_REACTORS
330
1F6
102
}
100
AcDbEntity
  8
STAIR
 62
   134
100
AcDbHatch
 10
0.0
 20
0.0
 30
0.0
210
0.0
220
0.0
230
1.0
  2
SOLID
 70
     1
 71
     1
 91
        1
 92
        1
 93
        1
 72
     2
 10
19.7148169901998465
 20
7.7724653780333899
 40
0.0868041666666667
 50
0.0
 51
360.0
 73
     1
 97
        1
330
1FF
 75
     0
 76
     1
 98
        0
  0
LINE
  5
201
102
{ACAD_REACTORS
330
1F6
102
}
100
AcDbEntity
  8
STAIR
  6
CONTINUOUS
 62
     7
100
AcDbLine
 10
19.714817
 20
7.772465
 30
0.0
 11
19.714817
 21
10.080665
 31
0.0
  0
LWPOLYLINE
  5
202
102
{ACAD_REACTORS
330
203
102
}
100
AcDbEntity
  8
STAIR
  6
CONTINUOUS
 62
     7
100
AcDbPolyline
 90
        3
 70
     1
 10
19.842292
 20
9.867753
 10
19.587342
 20
9.867753
 10
19.717551
 20
10.293578
  0
HATCH
  5
203
102
{ACAD_REACTORS
330
1F6
102
}
100
AcDbEntity
  8
STAIR
 62
   134
100
AcDbHatch
 10
0.0
 20
0.0
 30
0.0
210
0.0
220
0.0
230
1.0
  2
SOLID
 70
     1
 71
     1
 91
        1
 92
        3
 72
     0
 73
     1
 93
        3
 10
19.8422919901998469
 20
9.8677528780333894
 10
19.587341990199846
 20
9.8677528780333894
 10
19.7175513875440771
 20
10.2935778780333891
 97
        1
330
202
 75
     0
 76
     1
 98
        0
  0
LWPOLYLINE
  5
204
102
{ACAD_REACTORS
330
205
102
}
100
AcDbEntity
  8
BUILDING_ENVELOPE
  6
CONTINUOUS
 62
     9
100
AcDbPolyline
 90
        4
 70
     1
 10
24.918651
 20
12.717131
 10
24.918651
 20
11.837014
 10
21.323721
 20
11.837014
 10
21.323721
 20
12.717131
  0
HATCH
  5
205
102
{ACAD_REACTORS
330
1F6
102
}
100
AcDbEntity
  8
BUILDING_ENVELOPE
 62
   134
100
AcDbHatch
 10
0.0
 20
0.0
 30
0.0
210
0.0
220
0.0
230
1.0
  2
SOLID
 70
     1
 71
     1
 91
       33
 92
        3
 72
     0
 73
     1
 93
        4
 10
24.9186513714214364
 20
12.7171309025990631
 10
24.9186513714214364
 20
11.8370139583751239
 10
21.3237213333091731
 20
11.8370139583751239
 10
21.3237213333091731
 20
12.7171309025990631
 97
        1
330
204
 92
        3
 72
     0
 73
     1
 93
        4
 10
24.9186513714214364
 20
11.8370139583751239
 10
24.9186513714214364
 20
10.9568970141511848
 10
21.3237213333091731
 20
10.9568970141511848
 10
21.3237213333091731
 20
11.8370139583751239
 97
        1
330
206
 92
        3
 72
     0
 73
     1
 93
        4
 10
24.9186513714214364
 20
10.9568970141511848
 10
24.9186513714214364
 20
10.0767800699272456
 10
21.3237213333091731
 20
10.0767800699272456
 10
21.3237213333091731
 20
10.9568970141511848
 97
        1
330
207
 92
        3
 72
     0
 73
     1
 93
        4
 10
24.9186513714214364
 20
10.0767800699272456
 10
24.9186513714214364
 20
9.1966631257033065
 10
21.3237213333091731
 20
9.1966631257033065
 10
21.3237213333091731
 20
10.0767800699272456
 97
        1
330
208
 92
        3
 72
     0
 73
     1
 93
        4
 10
24.9186513714214364
 20
9.1966631257033065
 10
24.9186513714214364
 20
8.3165461814793673
 10
21.3237213333091731
 20
8.3165461814793673
 10
21.3237213333091731
 20
9.1966631257033065
 97
        1
330
209
 92
        3
 72
     0
 73
     1
 93
        4
 10
24.9186513714214364
 20
8.3165461814793673
 10
24.9186513714214364
 20
7.436429237255429
 10
21.3237213333091731
 20
7.436429237255429
 10
21.3237213333091731
 20
8.3165461814793673
 97
        1
330
20A
 92
        3
 72
     0
 73
     1
 93
        4
 10
24.9186513714214364
 20
7.436429237255429
 10
24.9186513714214364
 20
6.5563122930314899
 10
21.3237213333091731
 20
6.5563122930314899
 10
21.3237213333091731
 20
7.436429237255429
 97
        1
330
20B
 92
        3
 72
     0
 73
     1
 93
        4
 10
24.9186513714214364
 20
6.5563122930314899
 10
24.9186513714214364
 20
5.6761953488075507
 10
21.3237213333091731
 20
5.6761953488075507
 10
21.3237213333091731
 20
6.5563122930314899
 97
        1
330
20C
 92
        3
 72
     0
 73
     1
 93
        4
 10
24.9186513714214364
 20
5.6761953488075507
 10
24.9186513714214364
 20
4.7960784045836116
 10
21.3237213333091731
 20
4.7960784045836116
 10
21.3237213333091731
 20
5.6761953488075507
 97
        1
330
20D
 92
        0
 93
        0
 97
        0
 92
        0
 93
        0
 97
        0
 92
        0
 93
        0
 97
        0
 92
        0
 93
        0
 97
        0
 92
        0
 93
        0
 97
        0
 92
        0
 93
        0
 97
        0
 92
        0
 93
        0
 97
        0
 92
        0
 93
        0
 97
        0
 92
        0
 93
        0
 97
        0
 92
        0
 93
        0
 97
        0
 92
        0
 93
        0
 97
        0
 92
        0
 93
        0
 97
        0
 92
        0
 93
        0
 97
        0
 92
        0
 93
        0
 97
        0
 92
        0
 93
        0
 97
        0
 92
        0
 93
        0
 97
        0
 92
        0
 93
        0
 97
        0
 92
        0
 93
        0
 97
        0
 92
        0
 93
        0
 97
        0
 92
        0
 93
        0
 97
        0
 92
        0
 93
        0
 97
        0
 92
        0
 93
        0
 97
        0
 92
        0
 93
        0
 97
        0
 92
        0
 93
        0
 97
        0
 75
     0
 76
     1
 98
        0
  0
LWPOLYLINE
  5
206
102
{ACAD_REACTORS
330
205
102
}
100
AcDbEntity
  8
BUILDING_ENVELOPE
  6
CONTINUOUS
 62
     9
100
AcDbPolyline
 90
        4
 70
     1
 10
24.918651
 20
11.837014
 10
24.918651
 20
10.956897
 10
21.323721
 20
10.956897
 10
21.323721
 20
11.837014
  0
LWPOLYLINE
  5
207
102
{ACAD_REACTORS
330
205
102
}
100
AcDbEntity
  8
BUILDING_ENVELOPE
  6
CONTINUOUS
 62
     9
100
AcDbPolyline
 90
        4
 70
     1
 10
24.918651
 20
10.956897
 10
24.918651
 20
10.07678
 10
21.323721
 20
10.07678
 10
21.323721
 20
10.956897
  0
LWPOLYLINE
  5
208
102
{ACAD_REACTORS
330
205
102
}
100
AcDbEntity
  8
BUILDING_ENVELOPE
  6
CONTINUOUS
 62
     9
100
AcDbPolyline
 90
        4
 70
     1
 10
24.918651
 20
10.07678
 10
24.918651
 20
9.196663
 10
21.323721
 20
9.196663
 10
21.323721
 20
10.07678
  0
LWPOLYLINE
  5
209
102
{ACAD_REACTORS
330
205
102
}
100
AcDbEntity
  8
BUILDING_ENVELOPE
  6
CONTINUOUS
 62
     9
100
AcDbPolyline
 90
        4
 70
     1
 10
24.918651
 20
9.196663
 10
24.918651
 20
8.316546
 10
21.323721
 20
8.316546
 10
21.323721
 20
9.196663
  0
LWPOLYLINE
  5
20A
102
{ACAD_REACTORS
330
205
102
}
100
AcDbEntity
  8
BUILDING_ENVELOPE
  6
CONTINUOUS
 62
     9
100
AcDbPolyline
 90
        4
 70
     1
 10
24.918651
 20
8.316546
 10
24.918651
 20
7.436429
 10
21.323721
 20
7.436429
 10
21.323721
 20
8.316546
  0
LWPOLYLINE
  5
20B
102
{ACAD_REACTORS
330
205
102
}
100
AcDbEntity
  8
BUILDING_ENVELOPE
  6
CONTINUOUS
 62
     9
100
AcDbPolyline
 90
        4
 70
     1
 10
24.918651
 20
7.436429
 10
24.918651
 20
6.556312
 10
21.323721
 20
6.556312
 10
21.323721
 20
7.436429
  0
LWPOLYLINE
  5
20C
102
{ACAD_REACTORS
330
205
102
}
100
AcDbEntity
  8
BUILDING_ENVELOPE
  6
CONTINUOUS
 62
     9
100
AcDbPolyline
 90
        4
 70
     1
 10
24.918651
 20
6.556312
 10
24.918651
 20
5.676195
 10
21.323721
 20
5.676195
 10
21.323721
 20
6.556312
  0
LWPOLYLINE
  5
20D
102
{ACAD_REACTORS
330
205
102
}
100
AcDbEntity
  8
BUILDING_ENVELOPE
  6
CONTINUOUS
 62
     9
100
AcDbPolyline
 90
        4
 70
     1
 10
24.918651
 20
5.676195
 10
24.918651
 20
4.796078
 10
21.323721
 20
4.796078
 10
21.323721
 20
5.676195
  0
MTEXT
  5
20E
100
AcDbEntity
  8
BUILDING_ENVELOPE
100
AcDbMText
 10
23.121186
 20
13.093764
 30
0.0
 40
0.500004
 41
0.753267
 71
     5
 72
     5
  1
\C7;\fCalibri|b0|i0|;\H0.50000381469727;U\PP
 11
0.0
 21
1.0
 31
0.0
  0
CIRCLE
  5
20F
102
{ACAD_REACTORS
330
210
102
}
100
AcDbEntity
  8
STAIR
  6
CONTINUOUS
 62
     7
100
AcDbCircle
 10
23.121186
 20
12.717131
 30
0.0
 40
0.086804
  0
HATCH
  5
210
102
{ACAD_REACTORS
330
1F6
102
}
100
AcDbEntity
  8
STAIR
 62
   134
100
AcDbHatch
 10
0.0
 20
0.0
 30
0.0
210
0.0
220
0.0
230
1.0
  2
SOLID
 70
     1
 71
     1
 91
        1
 92
        1
 93
        1
 72
     2
 10
23.121186352365303
 20
12.7171309025990631
 40
0.0868041666666667
 50
0.0
 51
360.0
 73
     1
 97
        1
330
20F
 75
     0
 76
     1
 98
        0
  0
LINE
  5
211
102
{ACAD_REACTORS
330
1F6
102
}
100
AcDbEntity
  8
STAIR
  6
CONTINUOUS
 62
     7
100
AcDbLine
 10
23.121186
 20
12.717131
 30
0.0
 11
23.121186
 21
10.408931
 31
0.0
  0
LWPOLYLINE
  5
212
102
{ACAD_REACTORS
330
213
102
}
100
AcDbEntity
  8
STAIR
  6
CONTINUOUS
 62
     7
100
AcDbPolyline
 90
        3
 70
     1
 10
22.993711
 20
10.621843
 10
23.248661
 20
10.621843
 10
23.118452
 20
10.196018
  0
HATCH
  5
213
102
{ACAD_REACTORS
330
1F6
102
}
100
AcDbEntity
  8
STAIR
 62
   134
100
AcDbHatch
 10
0.0
 20
0.0
 30
0.0
210
0.0
220
0.0
230
1.0
  2
SOLID
 70
     1
 71
     1
 91
        1
 92
        3
 72
     0
 73
     1
 93
        3
 10
22.9937113523653025
 20
10.6218434025990636
 10
23.2486613523653034
 20
10.6218434025990636
 10
23.1184519550210759
 20
10.1960184025990639
 97
        1
330
212
 75
     0
 76
     1
 98
        0
  0
LWPOLYLINE
  5
214
102
{ACAD_REACTORS
330
215
102
}
100
AcDbEntity
  8
0
  6
CONTINUOUS
 62
     7
100
AcDbPolyline
 90
        4
 70
     1
 10
24.979271
 20
12.575097
 10
24.979271
 20
15.325097
 10
18.110714
 20
15.325097
 10
18.110714
 20
12.575097
  0
HATCH
  5
215
102
{ACAD_REACTORS
330
1F6
102
}
100
AcDbEntity
  8
0
 62
   134
100
AcDbHatch
 10
0.0
 20
0.0
 30
0.0
210
0.0
220
0.0
230
1.0
  2
SOLID
 70
     1
 71
     1
 91
        1
 92
        3
 72
     0
 73
     1
 93
        4
 10
24.9792709020106969
 20
12.5750972638221228
 10
24.9792709020106969
 20
15.3250972638221228
 10
18.1107141542229542
 20
15.3250972638221228
 10
18.1107141542229542
 20
12.5750972638221228
 97
        1
330
214
 75
     0
 76
     1
 98
        0
  0
LWPOLYLINE
  5
217
102
{ACAD_REACTORS
330
21D
102
}
100
AcDbEntity
  8
BUILDING_ENVELOPE
  6
CONTINUOUS
 62
     7
100
AcDbPolyline
 90
        4
 70
     1
 10
19.30117
 20
42.931213
 10
19.30117
 20
40.09788
 10
19.650503
 20
40.09788
 10
19.650503
 20
42.931213
  0
LINE
  5
218
102
{ACAD_REACTORS
330
21D
102
}
100
AcDbEntity
  8
BUILDING_ENVELOPE
  6
CONTINUOUS
 62
     7
100
AcDbLine
 10
19.30917
 20
40.09788
 30
0.0
 11
19.642503
 21
40.09788
 31
0.0
  0
LINE
  5
219
102
{ACAD_REACTORS
330
21D
102
}
100
AcDbEntity
  8
BUILDING_ENVELOPE
  6
CONTINUOUS
 62
     7
100
AcDbLine
 10
19.642503
 20
40.09788
 30
0.0
 11
19.642503
 21
40.264547
 31
0.0
  0
LINE
  5
21A
102
{ACAD_REACTORS
330
21D
102
}
100
AcDbEntity
  8
BUILDING_ENVELOPE
  6
CONTINUOUS
 62
     7
100
AcDbLine
 10
19.642503
 20
40.264547
 30
0.0
 11
19.517503
 21
40.264547
 31
0.0
  0
LINE
  5
21B
102
{ACAD_REACTORS
330
21D
102
}
100
AcDbEntity
  8
BUILDING_ENVELOPE
  6
CONTINUOUS
 62
     7
100
AcDbLine
 10
19.392503
 20
40.264547
 30
0.0
 11
19.30917
 21
40.264547
 31
0.0
  0
LINE
  5
21C
102
{ACAD_REACTORS
330
21D
102
}
100
AcDbEntity
  8
BUILDING_ENVELOPE
  6
CONTINUOUS
 62
     7
100
AcDbLine
 10
19.30917
 20
40.264547
 30
0.0
 11
19.30917
 21
40.09788
 31
0.0
  0
HATCH
  5
21D
102
{ACAD_REACTORS
330
216
102
}
100
AcDbEntity
  8
BUILDING_ENVELOPE
 62
     7
100
AcDbHatch
 10
0.0
 20
0.0
 30
0.0
210
0.0
220
0.0
230
1.0
  2
SOLID
 70
     1
 71
     1
 91
        2
 92
        1
 93
        6
 72
     1
 10
19.3091696423536092
 20
40.0978801125217288
 11
19.6425029756869414
 21
40.0978801125217288
 72
     1
 10
19.6425029756869414
 20
40.0978801125217288
 11
19.6425029756869414
 21
40.2645467791883931
 72
     1
 10
19.6425029756869414
 20
40.2645467791883931
 11
19.5175029756869414
 21
40.2645467791883931
 72
     1
 10
19.5175029756869414
 20
40.2645467791883931
 11
19.3925029756869414
 21
40.2645467791883931
 72
     1
 10
19.3925029756869414
 20
40.2645467791883931
 11
19.3091696423536092
 21
40.2645467791883931
 72
     1
 10
19.3091696423536092
 20
40.2645467791883931
 11
19.3091696423536092
 21
40.0978801125217288
 97
        6
330
217
330
218
330
219
330
21A
330
21B
330
21C
 92
        1
 93
        6
 72
     1
 10
19.3091696423536092
 20
42.9312134458550645
 11
19.6425029756869414
 21
42.9312134458550645
 72
     1
 10
19.6425029756869414
 20
42.9312134458550645
 11
19.6425029756869414
 21
42.7645467791883931
 72
     1
 10
19.6425029756869414
 20
42.7645467791883931
 11
19.5175029756869414
 21
42.7645467791883931
 72
     1
 10
19.5175029756869414
 20
42.7645467791883931
 11
19.3925029756869414
 21
42.7645467791883931
 72
     1
 10
19.3925029756869414
 20
42.7645467791883931
 11
19.3091696423536092
 21
42.7645467791883931
 72
     1
 10
19.3091696423536092
 20
42.7645467791883931
 11
19.3091696423536092
 21
42.9312134458550645
 97
        5
330
21E
330
21F
330
220
330
221
330
222
 75
     0
 76
     1
 98
        0
  0
LINE
  5
21E
102
{ACAD_REACTORS
330
21D
102
}
100
AcDbEntity
  8
BUILDING_ENVELOPE
  6
CONTINUOUS
 62
     7
100
AcDbLine
 10
19.30917
 20
42.931213
 30
0.0
 11
19.642503
 21
42.931213
 31
0.0
  0
LINE
  5
21F
102
{ACAD_REACTORS
330
21D
102
}
100
AcDbEntity
  8
BUILDING_ENVELOPE
  6
CONTINUOUS
 62
     7
100
AcDbLine
 10
19.642503
 20
42.931213
 30
0.0
 11
19.642503
 21
42.764547
 31
0.0
  0
LINE
  5
220
102
{ACAD_REACTORS
330
21D
102
}
100
AcDbEntity
  8
BUILDING_ENVELOPE
  6
CONTINUOUS
 62
     7
100
AcDbLine
 10
19.642503
 20
42.764547
 30
0.0
 11
19.517503
 21
42.764547
 31
0.0
  0
LINE
  5
221
102
{ACAD_REACTORS
330
21D
102
}
100
AcDbEntity
  8
BUILDING_ENVELOPE
  6
CONTINUOUS
 62
     7
100
AcDbLine
 10
19.392503
 20
42.764547
 30
0.0
 11
19.30917
 21
42.764547
 31
0.0
  0
LINE
  5
222
102
{ACAD_REACTORS
330
21D
102
}
100
AcDbEntity
  8
BUILDING_ENVELOPE
  6
CONTINUOUS
 62
     7
100
AcDbLine
 10
19.30917
 20
42.764547
 30
0.0
 11
19.30917
 21
42.931213
 31
0.0
  0
LINE
  5
223
102
{ACAD_REACTORS
330
226
102
}
100
AcDbEntity
  8
BUILDING_ENVELOPE
  6
CONTINUOUS
 62
     7
100
AcDbLine
 10
19.517503
 20
40.264547
 30
0.0
 11
19.517503
 21
40.306213
 31
0.0
  0
LINE
  5
224
102
{ACAD_REACTORS
330
226
102
}
100
AcDbEntity
  8
BUILDING_ENVELOPE
  6
CONTINUOUS
 62
     7
100
AcDbLine
 10
19.517503
 20
40.306213
 30
0.0
 11
19.392503
 21
40.306213
 31
0.0
  0
LINE
  5
225
102
{ACAD_REACTORS
330
226
102
}
100
AcDbEntity
  8
BUILDING_ENVELOPE
  6
CONTINUOUS
 62
     7
100
AcDbLine
 10
19.392503
 20
40.306213
 30
0.0
 11
19.392503
 21
40.264547
 31
0.0
  0
HATCH
  5
226
102
{ACAD_REACTORS
330
216
102
}
100
AcDbEntity
  8
BUILDING_ENVELOPE
 62
     7
100
AcDbHatch
 10
0.0
 20
0.0
 30
0.0
210
0.0
220
0.0
230
1.0
  2
SOLID
 70
     1
 71
     1
 91
        2
 92
        1
 93
        4
 72
     1
 10
19.5175029756869414
 20
40.2645467791883931
 11
19.5175029756869414
 21
40.3062134458550645
 72
     1
 10
19.5175029756869414
 20
40.3062134458550645
 11
19.3925029756869414
 21
40.3062134458550645
 72
     1
 10
19.3925029756869414
 20
40.3062134458550645
 11
19.3925029756869414
 21
40.2645467791883931
 72
     1
 10
19.3925029756869414
 20
40.2645467791883931
 11
19.5175029756869414
 21
40.2645467791883931
 97
        3
330
223
330
224
330
225
 92
        1
 93
        4
 72
     1
 10
19.5175029756869414
 20
42.7645467791883931
 11
19.5175029756869414
 21
42.7228801125217288
 72
     1
 10
19.5175029756869414
 20
42.7228801125217288
 11
19.3925029756869414
 21
42.7228801125217288
 72
     1
 10
19.3925029756869414
 20
42.7228801125217288
 11
19.3925029756869414
 21
42.7645467791883931
 72
     1
 10
19.3925029756869414
 20
42.7645467791883931
 11
19.5175029756869414
 21
42.7645467791883931
 97
        3
330
227
330
228
330
229
 75
     0
 76
     1
 98
        0
  0
LINE
  5
227
102
{ACAD_REACTORS
330
226
102
}
100
AcDbEntity
  8
BUILDING_ENVELOPE
  6
CONTINUOUS
 62
     7
100
AcDbLine
 10
19.517503
 20
42.764547
 30
0.0
 11
19.517503
 21
42.72288
 31
0.0
  0
LINE
  5
228
102
{ACAD_REACTORS
330
226
102
}
100
AcDbEntity
  8
BUILDING_ENVELOPE
  6
CONTINUOUS
 62
     7
100
AcDbLine
 10
19.517503
 20
42.72288
 30
0.0
 11
19.392503
 21
42.72288
 31
0.0
  0
LINE
  5
229
102
{ACAD_REACTORS
330
226
102
}
100
AcDbEntity
  8
BUILDING_ENVELOPE
  6
CONTINUOUS
 62
     7
100
AcDbLine
 10
19.392503
 20
42.72288
 30
0.0
 11
19.392503
 21
42.764547
 31
0.0
  0
LINE
  5
22A
102
{ACAD_REACTORS
330
216
102
}
100
AcDbEntity
  8
BUILDING_ENVELOPE
  6
CONTINUOUS
 62
     7
100
AcDbLine
 10
19.30917
 20
40.09788
 30
0.0
 11
19.642503
 21
40.09788
 31
0.0
  0
LINE
  5
22B
102
{ACAD_REACTORS
330
216
102
}
100
AcDbEntity
  8
BUILDING_ENVELOPE
  6
CONTINUOUS
 62
     7
100
AcDbLine
 10
19.30917
 20
42.931213
 30
0.0
 11
19.642503
 21
42.931213
 31
0.0
  0
ARC
  5
22C
102
{ACAD_REACTORS
330
216
102
}
100
AcDbEntity
  8
BUILDING_ENVELOPE
  6
CONTINUOUS
 62
     7
100
AcDbCircle
 10
19.642503
 20
40.264547
 30
0.0
 40
2.5
100
AcDbArc
 50
0.0
 51
90.0
  0
LWPOLYLINE
  5
22D
102
{ACAD_REACTORS
330
22E
102
}
100
AcDbEntity
  8
BUILDING_ENVELOPE
  6
CONTINUOUS
 62
     7
100
AcDbPolyline
 90
        4
 70
     1
 10
22.142503
 20
40.389547
 10
19.642503
 20
40.389547
 10
19.642503
 20
40.264547
 10
22.142503
 20
40.264547
  0
HATCH
  5
22E
102
{ACAD_REACTORS
330
216
102
}
100
AcDbEntity
  8
BUILDING_ENVELOPE
 62
     7
100
AcDbHatch
 10
0.0
 20
0.0
 30
0.0
210
0.0
220
0.0
230
1.0
  2
SOLID
 70
     1
 71
     1
 91
        1
 92
        3
 72
     0
 73
     1
 93
        4
 10
22.1425029756869414
 20
40.3895467791883931
 10
19.6425029756869414
 20
40.3895467791883931
 10
19.6425029756869414
 20
40.2645467791883931
 10
22.1425029756869414
 20
40.2645467791883931
 97
        1
330
22D
 75
     0
 76
     1
 98
        0
  0
ENDSEC
  0
SECTION
  2
OBJECTS
  0
DICTIONARY
  5
C
100
AcDbDictionary
  3
ACAD_GROUP
350
D
  3
ACAD_MLINESTYLE
350
1B
  3
ACAD_SCALELIST
350
2C
  3
ACAD_VISUALSTYLE
350
51
  3
ACAD_MATERIAL
350
6A
  3
ACAD_TABLESTYLE
350
6E
  3
ACAD_MLEADERSTYLE
350
70
  0
DICTIONARY
  5
D
102
{ACAD_REACTORS
330
C
102
}
100
AcDbDictionary
  3
VISIOGROUP_0
350
74
  3
VISIOGROUP_1
350
80
  3
VISIOGROUP_2
350
87
  3
VISIOGROUP_3
350
8B
  3
VISIOGROUP_4
350
92
  3
VISIOGROUP_5
350
96
  3
VISIOGROUP_6
350
9A
  3
VISIOGROUP_7
350
A3
  3
VISIOGROUP_8
350
A7
  3
VISIOGROUP_9
350
AE
  3
VISIOGROUP_10
350
B5
  3
VISIOGROUP_11
350
B9
  3
VISIOGROUP_12
350
BF
  3
VISIOGROUP_13
350
C4
  3
VISIOGROUP_14
350
C9
  3
VISIOGROUP_15
350
CE
  3
VISIOGROUP_16
350
D7
  3
VISIOGROUP_17
350
E0
  3
VISIOGROUP_18
350
E9
  3
VISIOGROUP_19
350
F2
  3
VISIOGROUP_20
350
FB
  3
VISIOGROUP_21
350
100
  3
VISIOGROUP_22
350
107
  3
VISIOGROUP_23
350
10E
  3
VISIOGROUP_24
350
117
  3
VISIOGROUP_25
350
11C
  3
VISIOGROUP_26
350
123
  3
VISIOGROUP_27
350
12C
  3
VISIOGROUP_28
350
145
  3
VISIOGROUP_29
350
15E
  3
VISIOGROUP_30
350
171
  3
VISIOGROUP_31
350
18A
  3
VISIOGROUP_32
350
191
  3
VISIOGROUP_33
350
1AA
  3
VISIOGROUP_34
350
1BD
  3
VISIOGROUP_35
350
1D6
  3
VISIOGROUP_36
350
1DD
  3
VISIOGROUP_37
350
1F6
  3
VISIOGROUP_38
350
216
  0
DICTIONARY
  5
1B
102
{ACAD_REACTORS
330
C
102
}
100
AcDbDictionary
  3
STANDARD
350
1C
  0
MLINESTYLE
  5
1C
102
{ACAD_REACTORS
330
1B
102
}
100
AcDbMlineStyle
  2
STANDARD
 70
     0
  3

 62
   256
 51
90.0
 52
90.0
 71
     2
 49
0.5
 62
   256
  6
BYLAYER
 49
-0.5
 62
   256
  6
BYLAYER
  0
DICTIONARY
  5
29
102
{ACAD_REACTORS
330
C
102
}
100
AcDbDictionary
  0
DICTIONARY
  5
2C
102
{ACAD_REACTORS
330
C
102
}
100
AcDbDictionary
  3
A0
350
2D
  3
A1
350
2E
  3
A2
350
2F
  3
A3
350
30
  3
A4
350
31
  3
A5
350
32
  3
A6
350
33
  3
A7
350
34
  3
A8
350
35
  3
A9
350
36
  3
B0
350
37
  3
B1
350
38
  3
B2
350
39
  3
B3
350
3A
  3
B4
350
3B
  3
B5
350
3C
  3
B6
350
3D
  3
B7
350
3E
  3
B8
350
3F
  3
B9
350
40
  3
C0
350
41
  3
C1
350
42
  3
C2
350
43
  3
C3
350
44
  3
C4
350
45
  3
C5
350
46
  3
C6
350
47
  3
C7
350
48
  3
C8
350
49
  3
C9
350
4A
  3
D0
350
4B
  3
D1
350
4C
  3
D2
350
4D
  0
DICTIONARY
  5
4E
102
{ACAD_REACTORS
330
C
102
}
100
AcDbDictionary
  3
MODEL
350
4F
  3
LAYOUT1
350
50
  0
DICTIONARY
  5
51
102
{ACAD_REACTORS
330
C
102
}
100
AcDbDictionary
  3
FLAT
350
52
  3
FLATWITHEDGES
350
53
  3
GOURAUD
350
54
  3
GOURAUDWITHEDGES
350
55
  3
2DWIREFRAME
350
56
  3
WIREFRAME
350
57
  3
HIDDEN
350
58
  3
BASIC
350
59
  3
REALISTIC
350
5A
  3
CONCEPTUAL
350
5B
  3
DIM
350
5C
  3
BRIGHTEN
350
5D
  3
THICKEN
350
5E
  3
LINEPATTERN
350
5F
  3
FACEPATTERN
350
60
  3
COLORCHANGE
350
61
  3
JITTEROFF
350
62
  3
OVERHANGOFF
350
63
  3
EDGECOLOROFF
350
64
  3
SHADES OF GRAY
350
65
  3
SKETCHY
350
66
  3
X-RAY
350
67
  3
SHADED WITH EDGES
350
68
  3
SHADED
350
69
  0
DICTIONARY
  5
6A
102
{ACAD_REACTORS
330
C
102
}
100
AcDbDictionary
  3
BYLAYER
350
6B
  3
BYBLOCK
350
6C
  3
GLOBAL
350
6D
  0
DICTIONARY
  5
6E
102
{ACAD_REACTORS
330
C
102
}
100
AcDbDictionary
  3
STANDARD
350
6F
  0
DICTIONARY
  5
70
102
{ACAD_REACTORS
330
C
102
}
100
AcDbDictionary
  3
STANDARD
350
71
  0
GROUP
  5
74
102
{ACAD_REACTORS
330
D
102
}
100
AcDbGroup
300
Group created by Visio.
 70
     0
 71
     1
340
76
340
77
340
78
340
79
340
7A
340
7B
340
7C
340
7D
340
7E
  0
GROUP
  5
80
102
{ACAD_REACTORS
330
D
102
}
100
AcDbGroup
300
Group created by Visio.
 70
     0
 71
     1
340
81
340
82
340
83
340
84
340
85
  0
GROUP
  5
87
102
{ACAD_REACTORS
330
D
102
}
100
AcDbGroup
300
Group created by Visio.
 70
     0
 71
     1
340
88
340
89
  0
GROUP
  5
8B
102
{ACAD_REACTORS
330
D
102
}
100
AcDbGroup
300
Group created by Visio.
 70
     0
 71
     1
340
8C
340
8D
340
8E
340
8F
340
90
  0
GROUP
  5
92
102
{ACAD_REACTORS
330
D
102
}
100
AcDbGroup
300
Group created by Visio.
 70
     0
 71
     1
340
93
340
94
  0
GROUP
  5
96
102
{ACAD_REACTORS
330
D
102
}
100
AcDbGroup
300
Group created by Visio.
 70
     0
 71
     1
340
97
340
98
  0
GROUP
  5
9A
102
{ACAD_REACTORS
330
D
102
}
100
AcDbGroup
300
Group created by Visio.
 70
     0
 71
     1
340
9B
340
9C
340
9D
340
9E
340
9F
340
A0
340
A1
  0
GROUP
  5
A3
102
{ACAD_REACTORS
330
D
102
}
100
AcDbGroup
300
Group created by Visio.
 70
     0
 71
     1
340
A4
340
A5
  0
GROUP
  5
A7
102
{ACAD_REACTORS
330
D
102
}
100
AcDbGroup
300
Group created by Visio.
 70
     0
 71
     1
340
A8
340
A9
340
AA
340
AB
340
AC
  0
GROUP
  5
AE
102
{ACAD_REACTORS
330
D
102
}
100
AcDbGroup
300
Group created by Visio.
 70
     0
 71
     1
340
AF
340
B0
340
B1
340
B2
340
B3
  0
GROUP
  5
B5
102
{ACAD_REACTORS
330
D
102
}
100
AcDbGroup
300
Group created by Visio.
 70
     0
 71
     1
340
B6
340
B7
  0
GROUP
  5
B9
102
{ACAD_REACTORS
330
D
102
}
100
AcDbGroup
300
Group created by Visio.
 70
     0
 71
     1
340
BB
340
BC
340
BD
340
BE
  0
GROUP
  5
BF
102
{ACAD_REACTORS
330
D
102
}
100
AcDbGroup
300
Group created by Visio.
 70
     0
 71
     1
340
C0
340
C1
340
C2
340
C3
  0
GROUP
  5
C4
102
{ACAD_REACTORS
330
D
102
}
100
AcDbGroup
300
Group created by Visio.
 70
     0
 71
     1
340
C5
340
C6
340
C7
340
C8
  0
GROUP
  5
C9
102
{ACAD_REACTORS
330
D
102
}
100
AcDbGroup
300
Group created by Visio.
 70
     0
 71
     1
340
CA
340
CB
340
CC
340
CD
  0
GROUP
  5
CE
102
{ACAD_REACTORS
330
D
102
}
100
AcDbGroup
300
Group created by Visio.
 70
     0
 71
     1
340
CF
340
D0
340
D1
340
D2
340
D3
340
D4
340
D5
340
D6
  0
GROUP
  5
D7
102
{ACAD_REACTORS
330
D
102
}
100
AcDbGroup
300
Group created by Visio.
 70
     0
 71
     1
340
D8
340
D9
340
DA
340
DB
340
DC
340
DD
340
DE
340
DF
  0
GROUP
  5
E0
102
{ACAD_REACTORS
330
D
102
}
100
AcDbGroup
300
Group created by Visio.
 70
     0
 71
     1
340
E1
340
E2
340
E3
340
E4
340
E5
340
E6
340
E7
340
E8
  0
GROUP
  5
E9
102
{ACAD_REACTORS
330
D
102
}
100
AcDbGroup
300
Group created by Visio.
 70
     0
 71
     1
340
EA
340
EB
340
EC
340
ED
340
EE
340
EF
340
F0
340
F1
  0
GROUP
  5
F2
102
{ACAD_REACTORS
330
D
102
}
100
AcDbGroup
300
Group created by Visio.
 70
     0
 71
     1
340
F3
340
F4
340
F5
340
F6
340
F7
340
F8
340
F9
340
FA
  0
GROUP
  5
FB
102
{ACAD_REACTORS
330
D
102
}
100
AcDbGroup
300
Group created by Visio.
 70
     0
 71
     1
340
FC
340
FD
340
FE
340
FF
  0
GROUP
  5
100
102
{ACAD_REACTORS
330
D
102
}
100
AcDbGroup
300
Group created by Visio.
 70
     0
 71
     1
340
101
340
102
340
103
340
104
340
105
340
106
  0
GROUP
  5
107
102
{ACAD_REACTORS
330
D
102
}
100
AcDbGroup
300
Group created by Visio.
 70
     0
 71
     1
340
108
340
109
340
10A
340
10B
340
10C
340
10D
  0
GROUP
  5
10E
102
{ACAD_REACTORS
330
D
102
}
100
AcDbGroup
300
Group created by Visio.
 70
     0
 71
     1
340
10F
340
110
340
111
340
112
340
113
340
114
340
115
340
116
  0
GROUP
  5
117
102
{ACAD_REACTORS
330
D
102
}
100
AcDbGroup
300
Group created by Visio.
 70
     0
 71
     1
340
118
340
119
340
11A
340
11B
  0
GROUP
  5
11C
102
{ACAD_REACTORS
330
D
102
}
100
AcDbGroup
300
Group created by Visio.
 70
     0
 71
     1
340
11D
340
11E
340
11F
340
120
340
121
340
122
  0
GROUP
  5
123
102
{ACAD_REACTORS
330
D
102
}
100
AcDbGroup
300
Group created by Visio.
 70
     0
 71
     1
340
124
340
125
340
126
340
127
340
128
340
129
340
12A
340
12B
  0
GROUP
  5
12C
102
{ACAD_REACTORS
330
D
102
}
100
AcDbGroup
300
Group created by Visio.
 70
     0
 71
     1
340
12D
340
12E
340
12F
340
130
340
131
340
132
340
134
340
135
340
136
340
137
340
138
340
133
340
139
340
13A
340
13B
340
13D
340
13E
340
13F
340
13C
340
140
340
141
340
142
340
143
340
144
  0
GROUP
  5
145
102
{ACAD_REACTORS
330
D
102
}
100
AcDbGroup
300
Group created by Visio.
 70
     0
 71
     1
340
146
340
147
340
148
340
149
340
14A
340
14B
340
14D
340
14E
340
14F
340
150
340
151
340
14C
340
152
340
153
340
154
340
156
340
157
340
158
340
155
340
159
340
15A
340
15B
340
15C
340
15D
  0
GROUP
  5
15E
102
{ACAD_REACTORS
330
D
102
}
100
AcDbGroup
300
Group created by Visio.
 70
     0
 71
     1
340
15F
340
160
340
161
340
162
340
163
340
164
340
166
340
167
340
168
340
169
340
16A
340
165
340
16B
340
16D
340
16C
340
16E
340
16F
340
170
  0
GROUP
  5
171
102
{ACAD_REACTORS
330
D
102
}
100
AcDbGroup
300
Group created by Visio.
 70
     0
 71
     1
340
172
340
173
340
174
340
175
340
176
340
177
340
179
340
17A
340
17B
340
17C
340
17D
340
178
340
17E
340
17F
340
180
340
182
340
183
340
184
340
181
340
185
340
186
340
187
340
188
340
189
  0
GROUP
  5
18A
102
{ACAD_REACTORS
330
D
102
}
100
AcDbGroup
300
Group created by Visio.
 70
     0
 71
     1
340
18B
340
18C
340
18E
340
18D
340
18F
340
190
  0
GROUP
  5
191
102
{ACAD_REACTORS
330
D
102
}
100
AcDbGroup
300
Group created by Visio.
 70
     0
 71
     1
340
192
340
193
340
194
340
195
340
196
340
197
340
199
340
19A
340
19B
340
19C
340
19D
340
198
340
19E
340
19F
340
1A0
340
1A2
340
1A3
340
1A4
340
1A1
340
1A5
340
1A6
340
1A7
340
1A8
340
1A9
  0
GROUP
  5
1AA
102
{ACAD_REACTORS
330
D
102
}
100
AcDbGroup
300
Group created by Visio.
 70
     0
 71
     1
340
1AB
340
1AC
340
1AD
340
1AE
340
1AF
340
1B0
340
1B2
340
1B3
340
1B4
340
1B5
340
1B6
340
1B1
340
1B7
340
1B9
340
1B8
340
1BA
340
1BB
340
1BC
  0
GROUP
  5
1BD
102
{ACAD_REACTORS
330
D
102
}
100
AcDbGroup
300
Group created by Visio.
 70
     0
 71
     1
340
1BE
340
1BF
340
1C0
340
1C1
340
1C2
340
1C3
340
1C5
340
1C6
340
1C7
340
1C8
340
1C9
340
1C4
340
1CA
340
1CB
340
1CC
340
1CE
340
1CF
340
1D0
340
1CD
340
1D1
340
1D2
340
1D3
340
1D4
340
1D5
  0
GROUP
  5
1D6
102
{ACAD_REACTORS
330
D
102
}
100
AcDbGroup
300
Group created by Visio.
 70
     0
 71
     1
340
1D7
340
1D8
340
1DA
340
1D9
340
1DB
340
1DC
  0
GROUP
  5
1DD
102
{ACAD_REACTORS
330
D
102
}
100
AcDbGroup
300
Group created by Visio.
 70
     0
 71
     1
340
1DE
340
1DF
340
1E0
340
1E1
340
1E2
340
1E3
340
1E5
340
1E6
340
1E7
340
1E8
340
1E9
340
1E4
340
1EA
340
1EB
340
1EC
340
1EE
340
1EF
340
1F0
340
1ED
340
1F1
340
1F2
340
1F3
340
1F4
340
1F5
  0
GROUP
  5
1F6
102
{ACAD_REACTORS
330
D
102
}
100
AcDbGroup
300
Group created by Visio.
 70
     0
 71
     1
340
1F7
340
1F9
340
1FA
340
1FB
340
1FC
340
1F8
340
1FF
340
200
340
201
340
202
340
203
340
204
340
206
340
207
340
208
340
209
340
20A
340
20B
340
20C
340
20D
340
205
340
20F
340
210
340
211
340
212
340
213
340
214
340
215
  0
GROUP
  5
216
102
{ACAD_REACTORS
330
D
102
}
100
AcDbGroup
300
Group created by Visio.
 70
     0
 71
     1
340
217
340
218
340
219
340
21A
340
21B
340
21C
340
21E
340
21F
340
220
340
221
340
222
340
21D
340
223
340
224
340
225
340
227
340
228
340
229
340
226
340
22A
340
22B
340
22C
340
22D
340
22E
  0
ENDSEC
  0
EOF
