  0
SECTION
  2
HEADER
  9
$ACADVER
  1
AC1014
  9
$ACADMAINTVER
 70
     0
  9
$DWGCODEPAGE
  3
ANSI_1252
  9
$INSBASE
 10
0.0
 20
0.0
 30
0.0
  9
$EXTMIN
 10
0.0
 20
0.0
 30
0.0
  9
$EXTMAX
 10
27.508533
 20
47.7752
 30
0.0
  9
$LIMMIN
 10
0.0
 20
0.0
  9
$LIMMAX
 10
12.0
 20
9.0
  9
$ORTHOMODE
 70
     0
  9
$REGENMODE
 70
     1
  9
$FILLMODE
 70
     0
  9
$QTEXTMODE
 70
     0
  9
$MIRRTEXT
 70
     1
  9
$DRAGMODE
 70
     2
  9
$LTSCALE
 40
1.0
  9
$OSMODE
 70
    37
  9
$ATTMODE
 70
     1
  9
$TEXTSIZE
 40
0.2
  9
$TRACEWID
 40
0.05
  9
$TEXTSTYLE
  7
STANDARD
  9
$CLAYER
  8
0
  9
$CELTYPE
  6
BYLAYER
  9
$CECOLOR
 62
   256
  9
$CELTSCALE
 40
1.0
  9
$DELOBJ
 70
     1
  9
$DISPSILH
 70
     0
  9
$DIMSCALE
 40
1.0
  9
$DIMASZ
 40
0.18
  9
$DIMEXO
 40
0.0625
  9
$DIMDLI
 40
0.38
  9
$DIMRND
 40
0.0
  9
$DIMDLE
 40
0.0
  9
$DIMEXE
 40
0.18
  9
$DIMTP
 40
0.0
  9
$DIMTM
 40
0.0
  9
$DIMTXT
 40
0.18
  9
$DIMCEN
 40
0.09
  9
$DIMTSZ
 40
0.0
  9
$DIMTOL
 70
     0
  9
$DIMLIM
 70
     0
  9
$DIMTIH
 70
     0
  9
$DIMTOH
 70
     0
  9
$DIMSE1
 70
     0
  9
$DIMSE2
 70
     0
  9
$DIMTAD
 70
     1
  9
$DIMZIN
 70
     0
  9
$DIMBLK
  1

  9
$DIMASO
 70
     1
  9
$DIMSHO
 70
     1
  9
$DIMPOST
  1

  9
$DIMAPOST
  1

  9
$DIMALT
 70
     0
  9
$DIMALTD
 70
     2
  9
$DIMALTF
 40
25.4
  9
$DIMLFAC
 40
1.0
  9
$DIMTOFL
 70
     0
  9
$DIMTVP
 40
0.0
  9
$DIMTIX
 70
     0
  9
$DIMSOXD
 70
     0
  9
$DIMSAH
 70
     0
  9
$DIMBLK1
  1

  9
$DIMBLK2
  1

  9
$DIMSTYLE
  2
STANDARD
  9
$DIMCLRD
 70
     0
  9
$DIMCLRE
 70
     0
  9
$DIMCLRT
 70
     0
  9
$DIMTFAC
 40
1.0
  9
$DIMGAP
 40
0.09
  9
$DIMJUST
 70
     0
  9
$DIMSD1
 70
     0
  9
$DIMSD2
 70
     0
  9
$DIMTOLJ
 70
     1
  9
$DIMTZIN
 70
     0
  9
$DIMALTZ
 70
     0
  9
$DIMALTTZ
 70
     0
  9
$DIMFIT
 70
     5
  9
$DIMUPT
 70
     0
  9
$DIMUNIT
 70
     2
  9
$DIMDEC
 70
     2
  9
$DIMTDEC
 70
     4
  9
$DIMALTU
 70
     2
  9
$DIMALTTD
 70
     2
  9
$DIMTXSTY
  7
STANDARD
  9
$DIMAUNIT
 70
     0
  9
$LUNITS
 70
     2
  9
$LUPREC
 70
     4
  9
$SKETCHINC
 40
0.1
  9
$FILLETRAD
 40
0.5
  9
$AUNITS
 70
     0
  9
$AUPREC
 70
     0
  9
$MENU
  1
.
  9
$ELEVATION
 40
0.0
  9
$PELEVATION
 40
0.0
  9
$THICKNESS
 40
0.0
  9
$LIMCHECK
 70
     0
  9
$BLIPMODE
 70
     0
  9
$CHAMFERA
 40
0.5
  9
$CHAMFERB
 40
0.5
  9
$CHAMFERC
 40
1.0
  9
$CHAMFERD
 40
0.0
  9
$SKPOLY
 70
     0
  9
$TDCREATE
 40
2450772.666465926
  9
$TDUPDATE
 40
2460687.087766192
  9
$TDINDWG
 40
0.0011564931
  9
$TDUSRTIMER
 40
0.0011564931
  9
$USRTIMER
 70
     1
  9
$ANGBASE
 50
0.0
  9
$ANGDIR
 70
     0
  9
$PDMODE
 70
     0
  9
$PDSIZE
 40
0.0
  9
$PLINEWID
 40
0.0
  9
$COORDS
 70
     1
  9
$SPLFRAME
 70
     0
  9
$SPLINETYPE
 70
     6
  9
$SPLINESEGS
 70
     8
  9
$ATTDIA
 70
     0
  9
$ATTREQ
 70
     1
  9
$HANDLING
 70
     1
  9
$HANDSEED
  5
2EE
  9
$SURFTAB1
 70
     6
  9
$SURFTAB2
 70
     6
  9
$SURFTYPE
 70
     6
  9
$SURFU
 70
     6
  9
$SURFV
 70
     6
  9
$UCSNAME
  2

  9
$UCSORG
 10
0.0
 20
0.0
 30
0.0
  9
$UCSXDIR
 10
1.0
 20
0.0
 30
0.0
  9
$UCSYDIR
 10
0.0
 20
1.0
 30
0.0
  9
$PUCSNAME
  2

  9
$PUCSORG
 10
0.0
 20
0.0
 30
0.0
  9
$PUCSXDIR
 10
1.0
 20
0.0
 30
0.0
  9
$PUCSYDIR
 10
0.0
 20
1.0
 30
0.0
  9
$USERI1
 70
     0
  9
$USERI2
 70
     0
  9
$USERI3
 70
     0
  9
$USERI4
 70
     0
  9
$USERI5
 70
     0
  9
$USERR1
 40
0.0
  9
$USERR2
 40
0.0
  9
$USERR3
 40
0.0
  9
$USERR4
 40
0.0
  9
$USERR5
 40
0.0
  9
$WORLDVIEW
 70
     1
  9
$SHADEDGE
 70
     3
  9
$SHADEDIF
 70
    70
  9
$TILEMODE
 70
     1
  9
$MAXACTVP
 70
    48
  9
$PINSBASE
 10
0.0
 20
0.0
 30
0.0
  9
$PLIMCHECK
 70
     0
  9
$PEXTMIN
 10
0.0
 20
0.0
 30
0.0
  9
$PEXTMAX
 10
0.0
 20
0.0
 30
0.0
  9
$PLIMMIN
 10
0.0
 20
0.0
  9
$PLIMMAX
 10
12.0
 20
9.0
  9
$UNITMODE
 70
     0
  9
$VISRETAIN
 70
     1
  9
$PLINEGEN
 70
     0
  9
$PSLTSCALE
 70
     1
  9
$TREEDEPTH
 70
  3020
  9
$PICKSTYLE
 70
     1
  9
$CMLSTYLE
  2
STANDARD
  9
$CMLJUST
 70
     0
  9
$CMLSCALE
 40
1.0
  9
$PROXYGRAPHICS
 70
     1
  9
$MEASUREMENT
 70
     0
  0
ENDSEC
  0
SECTION
  2
CLASSES
  0
CLASS
  1
LWPOLYLINE
  2
AcDbPolyline
  3
ObjectDBX Classes
 90
       20
280
     0
281
     1
  0
CLASS
  1
IMAGE
  2
AcDbRasterImage
  3
ISM
 90
       21
280
     0
281
     1
  0
CLASS
  1
OLE2FRAME
  2
AcDbOle2Frame
  3
ObjectDBX Classes
 90
       21
280
     0
281
     1
  0
CLASS
  1
HATCH
  2
AcDbHatch
  3
ObjectDBX Classes
 90
       20
280
     0
281
     1
  0
CLASS
  1
DICTIONARYVAR
  2
AcDbDictionaryVar
  3
ObjectDBX Classes
 90
       20
280
     0
281
     0
  0
CLASS
  1
RASTERVARIABLES
  2
AcDbRasterVariables
  3
ISM
 90
       21
280
     0
281
     0
  0
CLASS
  1
IMAGEDEF
  2
AcDbRasterImageDef
  3
ISM
 90
       21
280
     0
281
     0
  0
CLASS
  1
IMAGEDEF_REACTOR
  2
AcDbRasterImageDefReactor
  3
ISM
 90
       21
280
     0
281
     0
  0
CLASS
  1
IDBUFFER
  2
AcDbIdBuffer
  3
ObjectDBX Classes
 90
       20
280
     0
281
     0
  0
CLASS
  1
SPATIAL_FILTER
  2
AcDbSpatialFilter
  3
ObjectDBX Classes
 90
       20
280
     0
281
     0
  0
CLASS
  1
XRECORD
  2
AcDbXrecord
  3
ObjectDBX Classes
 90
       21
280
     0
281
     0
  0
CLASS
  1
ACDBDICTIONARYWDFLT
  2
AcDbDictionaryWithDefault
  3
ObjectDBX Classes
 90
       22
280
     0
281
     0
  0
CLASS
  1
SCALE
  2
AcDbScale
  3
ObjectDBX Classes
 90
       27
280
     0
281
     0
  0
CLASS
  1
VISUALSTYLE
  2
AcDbVisualStyle
  3
ObjectDBX Classes
 90
       26
280
     0
281
     0
  0
CLASS
  1
MATERIAL
  2
AcDbMaterial
  3
ObjectDBX Classes
 90
       23
280
     0
281
     0
  0
CLASS
  1
TABLESTYLE
  2
AcDbTableStyle
  3
ObjectDBX Classes
 90
       25
280
     0
281
     0
  0
CLASS
  1
MLEADERSTYLE
  2
AcDbMLeaderStyle
  3
ACDB_MLEADERSTYLE_CLASS
 90
       27
280
     0
281
     0
  0
CLASS
  1
SORTENTSTABLE
  2
AcDbSortentsTable
  3
"AutoCAD"
 90
        0
280
     0
281
     0
  0
CLASS
  1
LAYER_INDEX
  2
AcDbLayerIndex
  3
"Acad"
 90
        0
280
     0
281
     0
  0
CLASS
  1
SPATIAL_INDEX
  2
AcDbSpatialIndex
  3
"Acad"
 90
        0
280
     0
281
     0
  0
CLASS
  1
OBJECT_PTR
  2
CAseDLPNTableRecord
  3
"ASE-LPNTableRecord"
 90
        1
280
     0
281
     0
  0
CLASS
  1
LAYOUT
  2
AcDbLayout
  3
"AutoCAD 2000"
 90
        1
280
     0
281
     0
  0
CLASS
  1
PLOTSETTINGS
  2
AcDbPlotsettings
  3
"AutoCAD 2000"
 90
        1
280
     0
281
     0
  0
CLASS
  1
ACDBPLACEHOLDER
  2
AcDbPlaceholder
  3
"AutoCAD 2000"
 90
        1
280
     0
281
     0
  0
CLASS
  1
VBA_PROJECT
  2
AcDbVbaProject
  3
"AutoCAD 2000"
 90
        1
280
     0
281
     0
  0
CLASS
  1
WIPEOUT
  2
AcDbWipeout
  3
"AutoCAD 2000"
 90
        1
280
     0
281
     1
  0
CLASS
  1
WIPEOUTVARIABLES
  2
AcDbWipeoutVariables
  3
"AutoCAD 2000"
 90
        1
280
     0
281
     0
  0
CLASS
  1
RTEXT
  2
RText
  3
RText|AutoCAD Express Tool|expresstools@autodesk.com
 90
        1
280
     0
281
     1
  0
CLASS
  1
ARCALIGNEDTEXT
  2
AcDbArcAlignedText
  3
RText|AutoCAD Express Tool|expresstools@autodesk.com
 90
        1
280
     0
281
     1
  0
ENDSEC
  0
SECTION
  2
TABLES
  0
TABLE
  2
VPORT
  5
8
100
AcDbSymbolTable
 70
     1
  0
VPORT
  5
25
100
AcDbSymbolTableRecord
100
AcDbViewportTableRecord
  2
*ACTIVE
 70
     0
 10
0.0
 20
0.0
 11
1.0
 21
1.0
 12
13.754267
 22
23.8876
 13
0.0
 23
0.0
 14
0.5
 24
0.5
 15
0.5
 25
0.5
 16
0.0
 26
0.0
 36
1.0
 17
0.0
 27
0.0
 37
0.0
 40
47.7752
 41
0.575791
 42
50.0
 43
0.0
 44
0.0
 50
0.0
 51
0.0
 71
     0
 72
   100
 73
     1
 74
     1
 75
     0
 76
     0
 77
     0
 78
     0
  0
ENDTAB
  0
TABLE
  2
LTYPE
  5
5
100
AcDbSymbolTable
 70
     3
  0
LTYPE
  5
12
100
AcDbSymbolTableRecord
100
AcDbLinetypeTableRecord
  2
BYBLOCK
 70
     0
  3

 72
    65
 73
     0
 40
0.0
  0
LTYPE
  5
13
100
AcDbSymbolTableRecord
100
AcDbLinetypeTableRecord
  2
BYLAYER
 70
     0
  3

 72
    65
 73
     0
 40
0.0
  0
LTYPE
  5
14
100
AcDbSymbolTableRecord
100
AcDbLinetypeTableRecord
  2
CONTINUOUS
 70
     0
  3
Solid line
 72
    65
 73
     0
 40
0.0
  0
ENDTAB
  0
TABLE
  2
LAYER
  5
2
100
AcDbSymbolTable
 70
     6
  0
LAYER
  5
E
100
AcDbSymbolTableRecord
100
AcDbLayerTableRecord
  2
0
 70
     0
 62
     7
  6
CONTINUOUS
  0
LAYER
  5
75
100
AcDbSymbolTableRecord
100
AcDbLayerTableRecord
  2
SPACE
 70
     0
 62
     7
  6
CONTINUOUS
  0
LAYER
  5
9E
100
AcDbSymbolTableRecord
100
AcDbLayerTableRecord
  2
BUILDING_ENVELOPE
 70
     0
 62
     7
  6
CONTINUOUS
  0
LAYER
  5
10A
100
AcDbSymbolTableRecord
100
AcDbLayerTableRecord
  2
LANDING
 70
     0
 62
     7
  6
CONTINUOUS
  0
LAYER
  5
11E
100
AcDbSymbolTableRecord
100
AcDbLayerTableRecord
  2
STAIR
 70
     0
 62
     7
  6
CONTINUOUS
  0
LAYER
  5
249
100
AcDbSymbolTableRecord
100
AcDbLayerTableRecord
  2
WALL
 70
     0
 62
     7
  6
CONTINUOUS
  0
ENDTAB
  0
TABLE
  2
STYLE
  5
3
100
AcDbSymbolTable
 70
     1
  0
STYLE
  5
F
100
AcDbSymbolTableRecord
100
AcDbTextStyleTableRecord
  2
STANDARD
 70
     0
 40
0.0
 41
1.0
 50
0.0
 71
     0
 42
0.2
  3
txt.shx
  4

  0
ENDTAB
  0
TABLE
  2
VIEW
  5
6
100
AcDbSymbolTable
 70
     0
  0
ENDTAB
  0
TABLE
  2
UCS
  5
7
100
AcDbSymbolTable
 70
     0
  0
ENDTAB
  0
TABLE
  2
APPID
  5
9
100
AcDbSymbolTable
 70
     1
  0
APPID
  5
10
100
AcDbSymbolTableRecord
100
AcDbRegAppTableRecord
  2
ACAD
 70
     0
  0
ENDTAB
  0
TABLE
  2
DIMSTYLE
  5
A
100
AcDbSymbolTable
 70
     1
  0
DIMSTYLE
105
1D
100
AcDbSymbolTableRecord
100
AcDbDimStyleTableRecord
  2
STANDARD
 70
     0
  3

  4

  5

  6

  7

 40
1.0
 41
0.18
 42
0.0625
 43
0.38
 44
0.18
 45
0.0
 46
0.0
 47
0.0
 48
0.0
 71
     0
 72
     0
 73
     1
 74
     1
 75
     0
 76
     0
 77
     0
 78
     0
140
0.18
141
0.09
142
0.0
143
25.4
144
1.0
145
0.0
146
1.0
147
0.09
170
     0
171
     2
172
     0
173
     0
174
     0
175
     0
176
     0
177
     0
178
     0
270
     2
271
     4
272
     4
273
     2
274
     2
275
     0
280
     0
281
     0
282
     0
283
     1
284
     0
285
     0
286
     0
287
     3
288
     0
340
F
  0
ENDTAB
  0
TABLE
  2
BLOCK_RECORD
  5
1
100
AcDbSymbolTable
 70
     8
  0
BLOCK_RECORD
  5
18
100
AcDbSymbolTableRecord
100
AcDbBlockTableRecord
  2
*MODEL_SPACE
  0
BLOCK_RECORD
  5
15
100
AcDbSymbolTableRecord
100
AcDbBlockTableRecord
  2
*PAPER_SPACE
  0
BLOCK_RECORD
  5
22C
100
AcDbSymbolTableRecord
100
AcDbBlockTableRecord
  2
NONE_
  0
BLOCK_RECORD
  5
22F
100
AcDbSymbolTableRecord
100
AcDbBlockTableRecord
  2
WALL
  0
BLOCK_RECORD
  5
236
100
AcDbSymbolTableRecord
100
AcDbBlockTableRecord
  2
SPACE
  0
BLOCK_RECORD
  5
24E
100
AcDbSymbolTableRecord
100
AcDbBlockTableRecord
  2
CORNER_LANDING
  0
BLOCK_RECORD
  5
254
100
AcDbSymbolTableRecord
100
AcDbBlockTableRecord
  2
STRAIGHT_STAIRCASE
  0
BLOCK_RECORD
  5
27B
100
AcDbSymbolTableRecord
100
AcDbBlockTableRecord
  2
DOOR
  0
BLOCK_RECORD
  5
293
100
AcDbSymbolTableRecord
100
AcDbBlockTableRecord
  2
CASEMENT
  0
BLOCK_RECORD
  5
2BD
100
AcDbSymbolTableRecord
100
AcDbBlockTableRecord
  2
DOUBLE
  0
ENDTAB
  0
ENDSEC
  0
SECTION
  2
BLOCKS
  0
BLOCK
  5
19
100
AcDbEntity
  8
0
100
AcDbBlockBegin
  2
*MODEL_SPACE
 70
     0
 10
0.0
 20
0.0
 30
0.0
  3
*MODEL_SPACE
  1

  0
ENDBLK
  5
1A
100
AcDbEntity
  8
0
100
AcDbBlockEnd
  0
BLOCK
  5
16
100
AcDbEntity
 67
     1
  8
0
100
AcDbBlockBegin
  2
*PAPER_SPACE
 70
     0
 10
0.0
 20
0.0
 30
0.0
  3
*PAPER_SPACE
  1

  0
ENDBLK
  5
17
100
AcDbEntity
 67
     1
  8
0
100
AcDbBlockEnd
  0
BLOCK
  5
22D
100
AcDbEntity
  8
0
100
AcDbBlockBegin
  2
NONE_
 70
     2
 10
0.0
 20
0.0
 30
0.0
  3
NONE_
  1

  0
ENDBLK
  5
22E
100
AcDbEntity
  8
0
100
AcDbBlockEnd
  0
BLOCK
  5
230
100
AcDbEntity
  8
0
100
AcDbBlockBegin
  2
WALL
 70
     0
 10
0.0
 20
0.0
 30
0.0
  3
WALL
  1

  0
LWPOLYLINE
  5
231
102
{ACAD_REACTORS
330
232
102
}
100
AcDbEntity
  8
BUILDING_ENVELOPE
  6
CONTINUOUS
 62
     7
100
AcDbPolyline
 90
        6
 70
     1
 10
1.0
 20
5.333333
 10
9.0
 20
5.333333
 10
9.0
 20
5.166667
 10
9.0
 20
5.0
 10
1.0
 20
5.0
 10
1.0
 20
5.166667
  0
HATCH
  5
232
100
AcDbEntity
  8
BUILDING_ENVELOPE
 62
   253
100
AcDbHatch
 10
0.0
 20
0.0
 30
0.0
210
0.0
220
0.0
230
1.0
  2
SOLID
 70
     1
 71
     1
 91
        1
 92
        3
 72
     0
 73
     1
 93
        6
 10
1.0
 20
5.333333333333333
 10
9.0
 20
5.333333333333333
 10
9.0
 20
5.1666666666666661
 10
9.0
 20
5.0
 10
1.0
 20
5.0
 10
1.0
 20
5.1666666666666661
 97
        1
330
231
 75
     0
 76
     1
 98
        0
  0
LWPOLYLINE
  5
233
100
AcDbEntity
  8
BUILDING_ENVELOPE
  6
CONTINUOUS
 62
     7
100
AcDbPolyline
 90
        4
 70
     0
 10
1.0
 20
5.166667
 10
1.0
 20
5.333333
 10
9.0
 20
5.333333
 10
9.0
 20
5.166667
  0
LWPOLYLINE
  5
234
100
AcDbEntity
  8
BUILDING_ENVELOPE
  6
CONTINUOUS
 62
     7
100
AcDbPolyline
 90
        4
 70
     0
 10
1.0
 20
5.166667
 10
1.0
 20
5.0
 10
9.0
 20
5.0
 10
9.0
 20
5.166667
  0
ENDBLK
  5
235
100
AcDbEntity
  8
0
100
AcDbBlockEnd
  0
BLOCK
  5
237
100
AcDbEntity
  8
0
100
AcDbBlockBegin
  2
SPACE
 70
     2
 10
0.0
 20
0.0
 30
0.0
  3
SPACE
  1

  0
ATTDEF
  5
238
100
AcDbEntity
  8
0
100
AcDbText
 10
5.0
 20
5.0
 30
0.0
 40
0.2
  1

100
AcDbAttributeDefinition
  3
Name
  2
NAME
 70
     0
  0
ATTDEF
  5
239
100
AcDbEntity
  8
0
100
AcDbText
 10
5.0
 20
5.0
 30
0.0
 40
0.2
  1

100
AcDbAttributeDefinition
  3
Space ID
  2
LOCATIONID
 70
     0
  0
ATTDEF
  5
23A
100
AcDbEntity
  8
0
100
AcDbText
 10
5.0
 20
5.0
 30
0.0
 40
0.2
  1

100
AcDbAttributeDefinition
  3
Department
  2
DEPARTMENT
 70
     0
  0
ATTDEF
  5
23B
100
AcDbEntity
  8
0
100
AcDbText
 10
5.0
 20
5.0
 30
0.0
 40
0.2
  1
Office
100
AcDbAttributeDefinition
  3
Space use
  2
USE
 70
     0
  0
ATTDEF
  5
23C
100
AcDbEntity
  8
0
100
AcDbText
 10
5.0
 20
5.0
 30
0.0
 40
0.2
  1

100
AcDbAttributeDefinition
  3
Phone number
  2
PHONENUMBER
 70
     0
  0
ATTDEF
  5
23D
100
AcDbEntity
  8
0
100
AcDbText
 10
5.0
 20
5.0
 30
0.0
 40
0.2
  1
0
100
AcDbAttributeDefinition
  3
Occupancy
  2
OCCUPANTCOUNT
 70
     0
  0
ATTDEF
  5
23E
100
AcDbEntity
  8
0
100
AcDbText
 10
5.0
 20
5.0
 30
0.0
 40
0.2
  1
0
100
AcDbAttributeDefinition
  3
Capacity
  2
OCCUPANTCAPACITY
 70
     0
  0
ATTDEF
  5
23F
100
AcDbEntity
  8
0
100
AcDbText
 10
5.0
 20
5.0
 30
0.0
 40
0.2
  1

100
AcDbAttributeDefinition
  3
ID
  2
ID
 70
     0
  0
ATTDEF
  5
240
100
AcDbEntity
  8
0
100
AcDbText
 10
5.0
 20
5.0
 30
0.0
 40
0.2
  1

100
AcDbAttributeDefinition
  3
Belongs to
  2
BELONGSTO
 70
     0
  0
ATTDEF
  5
241
100
AcDbEntity
  8
0
100
AcDbText
 10
5.0
 20
5.0
 30
0.0
 40
0.2
  1

100
AcDbAttributeDefinition
  3
Modified
  2
MODIFY
 70
     0
  0
ATTDEF
  5
242
100
AcDbEntity
  8
0
100
AcDbText
 10
5.0
 20
5.0
 30
0.0
 40
0.2
  1
Location
100
AcDbAttributeDefinition
  3
Shape class
  2
SHAPECLASS
 70
     0
  0
ATTDEF
  5
243
100
AcDbEntity
  8
0
100
AcDbText
 10
5.0
 20
5.0
 30
0.0
 40
0.2
  1
Space
100
AcDbAttributeDefinition
  3
Shape type
  2
SHAPETYPE
 70
     0
  0
ATTDEF
  5
244
100
AcDbEntity
  8
0
100
AcDbText
 10
5.0
 20
5.0
 30
0.0
 40
0.2
  1

100
AcDbAttributeDefinition
  3
Subshape type
  2
SUBSHAPETYPE
 70
     0
  0
ATTDEF
  5
245
100
AcDbEntity
  8
0
100
AcDbText
 10
5.0
 20
5.0
 30
0.0
 40
0.2
  1
0
100
AcDbAttributeDefinition
  3
Space height
  2
SPACEHEIGHT
 70
     0
  0
ATTDEF
  5
246
100
AcDbEntity
  8
0
100
AcDbText
 10
5.0
 20
5.0
 30
0.0
 40
0.2
  1
0
100
AcDbAttributeDefinition
  3
Zones
  2
ZONES
 70
     0
  0
ATTDEF
  5
247
100
AcDbEntity
  8
0
100
AcDbText
 10
5.0
 20
5.0
 30
0.0
 40
0.2
  1
100FT^ 2
100
AcDbAttributeDefinition
  3
Calculated area
  2
VISAREA
 70
     0
  0
ATTDEF
  5
248
100
AcDbEntity
  8
0
100
AcDbText
 10
5.0
 20
5.0
 30
0.0
 40
0.2
  1
0
100
AcDbAttributeDefinition
  3
Base elevation
  2
BASEELEVATION
 70
     0
  0
LWPOLYLINE
  5
24A
102
{ACAD_REACTORS
330
24B
102
}
100
AcDbEntity
  8
WALL
  6
CONTINUOUS
100
AcDbPolyline
 90
        4
 70
     1
 10
0.0
 20
0.0
 10
10.0
 20
0.0
 10
10.0
 20
10.0
 10
0.0
 20
10.0
  0
HATCH
  5
24B
100
AcDbEntity
  8
WALL
 62
    94
100
AcDbHatch
 10
0.0
 20
0.0
 30
0.0
210
0.0
220
0.0
230
1.0
  2
ANSI31
 70
     0
 71
     1
 91
        1
 92
        2
 72
     0
 73
     1
 93
        4
 10
0.0
 20
0.0
 10
10.0
 20
0.0
 10
10.0
 20
10.0
 10
0.0
 20
10.0
 97
        1
330
24A
 75
     0
 76
     1
 52
0.0
 41
0.083333
 77
     0
 78
     1
 53
45.0
 43
0.0
 44
0.0
 45
-0.0073333333333333
 46
0.0073333333333333
 79
     0
 98
        0
  0
MTEXT
  5
24C
100
AcDbEntity
  8
WALL
100
AcDbMText
 10
5.0
 20
4.948732
 30
0.0
 40
0.500004
 41
4.420539
 71
     5
 72
     5
  1
\C7;\fCalibri|b0|i0|;\H0.50000381469727;Office\P\P\P
  0
ENDBLK
  5
24D
100
AcDbEntity
  8
0
100
AcDbBlockEnd
  0
BLOCK
  5
24F
100
AcDbEntity
  8
0
100
AcDbBlockBegin
  2
CORNER_LANDING
 70
     0
 10
0.0
 20
0.0
 30
0.0
  3
CORNER_LANDING
  1

  0
LWPOLYLINE
  5
250
100
AcDbEntity
  8
WALL
  6
CONTINUOUS
 62
     7
100
AcDbPolyline
 90
        4
 70
     1
 10
-1.332899
 20
-1.321759
 10
1.660475
 20
-1.321759
 10
1.660475
 20
1.671615
 10
-1.332899
 20
1.671615
  0
LINE
  5
251
100
AcDbEntity
  8
WALL
  6
CONTINUOUS
 62
     9
100
AcDbLine
 10
-1.332899
 20
-1.321759
 30
0.0
 11
0.156724
 21
1.671615
 31
0.0
  0
LINE
  5
252
100
AcDbEntity
  8
WALL
  6
CONTINUOUS
 62
     9
100
AcDbLine
 10
-1.332899
 20
-1.321759
 30
0.0
 11
1.660475
 21
0.169061
 31
0.0
  0
ENDBLK
  5
253
100
AcDbEntity
  8
0
100
AcDbBlockEnd
  0
BLOCK
  5
255
100
AcDbEntity
  8
0
100
AcDbBlockBegin
  2
STRAIGHT_STAIRCASE
 70
     0
 10
0.0
 20
0.0
 30
0.0
  3
STRAIGHT_STAIRCASE
  1

  0
LWPOLYLINE
  5
256
100
AcDbEntity
  8
BUILDING_ENVELOPE
  6
CONTINUOUS
 62
     9
100
AcDbPolyline
 90
        4
 70
     1
 10
-3.501199
 20
1.758333
 10
-2.630829
 20
1.758333
 10
-2.630829
 20
-1.241667
 10
-3.501199
 20
-1.241667
  0
LWPOLYLINE
  5
257
100
AcDbEntity
  8
BUILDING_ENVELOPE
  6
CONTINUOUS
 62
     9
100
AcDbPolyline
 90
        4
 70
     1
 10
-2.630829
 20
1.758333
 10
-1.760459
 20
1.758333
 10
-1.760459
 20
-1.241667
 10
-2.630829
 20
-1.241667
  0
LWPOLYLINE
  5
258
100
AcDbEntity
  8
BUILDING_ENVELOPE
  6
CONTINUOUS
 62
     9
100
AcDbPolyline
 90
        4
 70
     1
 10
-1.760459
 20
1.758333
 10
-0.890088
 20
1.758333
 10
-0.890088
 20
-1.241667
 10
-1.760459
 20
-1.241667
  0
LWPOLYLINE
  5
259
100
AcDbEntity
  8
BUILDING_ENVELOPE
  6
CONTINUOUS
 62
     9
100
AcDbPolyline
 90
        4
 70
     1
 10
-0.890088
 20
1.758333
 10
-0.019718
 20
1.758333
 10
-0.019718
 20
-1.241667
 10
-0.890088
 20
-1.241667
  0
LWPOLYLINE
  5
25A
100
AcDbEntity
  8
BUILDING_ENVELOPE
  6
CONTINUOUS
 62
     9
100
AcDbPolyline
 90
        4
 70
     1
 10
-0.019718
 20
1.758333
 10
0.850653
 20
1.758333
 10
0.850653
 20
-1.241667
 10
-0.019718
 20
-1.241667
  0
LWPOLYLINE
  5
25B
100
AcDbEntity
  8
BUILDING_ENVELOPE
  6
CONTINUOUS
 62
     9
100
AcDbPolyline
 90
        4
 70
     1
 10
0.850653
 20
1.758333
 10
1.721023
 20
1.758333
 10
1.721023
 20
-1.241667
 10
0.850653
 20
-1.241667
  0
LWPOLYLINE
  5
25C
100
AcDbEntity
  8
BUILDING_ENVELOPE
  6
CONTINUOUS
 62
     9
100
AcDbPolyline
 90
        4
 70
     1
 10
1.721023
 20
1.758333
 10
2.591393
 20
1.758333
 10
2.591393
 20
-1.241667
 10
1.721023
 20
-1.241667
  0
LWPOLYLINE
  5
25D
100
AcDbEntity
  8
BUILDING_ENVELOPE
  6
CONTINUOUS
 62
     9
100
AcDbPolyline
 90
        4
 70
     1
 10
2.591393
 20
1.758333
 10
3.461764
 20
1.758333
 10
3.461764
 20
-1.241667
 10
2.591393
 20
-1.241667
  0
LWPOLYLINE
  5
25E
100
AcDbEntity
  8
BUILDING_ENVELOPE
  6
CONTINUOUS
 62
     9
100
AcDbPolyline
 90
        4
 70
     1
 10
3.461764
 20
1.758333
 10
4.332134
 20
1.758333
 10
4.332134
 20
-1.241667
 10
3.461764
 20
-1.241667
  0
MTEXT
  5
25F
100
AcDbEntity
  8
BUILDING_ENVELOPE
100
AcDbMText
 10
-3.877833
 20
0.258333
 30
0.0
 40
0.333332
 41
0.753267
 71
     5
 72
     5
  1
\C7;\fCalibri|b0|i0|;\H0.33333206176758;UP
  0
CIRCLE
  5
260
102
{ACAD_REACTORS
330
261
102
}
100
AcDbEntity
  8
WALL
  6
CONTINUOUS
 62
     7
100
AcDbCircle
 10
-3.501199
 20
0.258333
 30
0.0
 40
0.086804
  0
HATCH
  5
261
100
AcDbEntity
  8
WALL
 62
     7
100
AcDbHatch
 10
0.0
 20
0.0
 30
0.0
210
0.0
220
0.0
230
1.0
  2
SOLID
 70
     1
 71
     1
 91
        1
 92
        1
 93
        1
 72
     2
 10
-3.5011993055309873
 20
0.2583333333333307
 40
0.0868041666666667
 50
0.0
 51
360.0
 73
     1
 97
        1
330
260
 75
     0
 76
     1
 98
        0
  0
LINE
  5
262
100
AcDbEntity
  8
WALL
  6
CONTINUOUS
 62
     7
100
AcDbLine
 10
-3.501199
 20
0.258333
 30
0.0
 11
-1.192999
 21
0.258333
 31
0.0
  0
LWPOLYLINE
  5
263
102
{ACAD_REACTORS
330
264
102
}
100
AcDbEntity
  8
WALL
  6
CONTINUOUS
 62
     7
100
AcDbPolyline
 90
        3
 70
     1
 10
-1.405912
 20
0.130858
 10
-1.405912
 20
0.385808
 10
-0.980087
 20
0.255599
  0
HATCH
  5
264
100
AcDbEntity
  8
WALL
 62
     7
100
AcDbHatch
 10
0.0
 20
0.0
 30
0.0
210
0.0
220
0.0
230
1.0
  2
SOLID
 70
     1
 71
     1
 91
        1
 92
        3
 72
     0
 73
     1
 93
        3
 10
-1.4059118055309874
 20
0.1308583333333307
 10
-1.4059118055309874
 20
0.3858083333333307
 10
-0.9800868055309874
 20
0.2555989359891018
 97
        1
330
263
 75
     0
 76
     1
 98
        0
  0
LINE
  5
265
102
{ACAD_REACTORS
330
26A
102
}
100
AcDbEntity
  8
BUILDING_ENVELOPE
  6
CONTINUOUS
 62
     7
100
AcDbLine
 10
0.415467
 20
-1.058333
 30
0.0
 11
4.526181
 21
-1.058333
 31
0.0
  0
ARC
  5
266
102
{ACAD_REACTORS
330
26A
102
}
100
AcDbEntity
  8
BUILDING_ENVELOPE
  6
CONTINUOUS
 62
     7
100
AcDbCircle
 10
4.29196
 20
-1.404611
 30
0.0
 40
0.418052
100
AcDbArc
 50
357.204441
 51
55.925661
  0
LINE
  5
267
102
{ACAD_REACTORS
330
26A
102
}
100
AcDbEntity
  8
BUILDING_ENVELOPE
  6
CONTINUOUS
 62
     7
100
AcDbLine
 10
4.709514
 20
-1.425
 30
0.0
 11
4.892848
 21
-1.425
 31
0.0
  0
ARC
  5
268
102
{ACAD_REACTORS
330
26A
102
}
100
AcDbEntity
  8
BUILDING_ENVELOPE
  6
CONTINUOUS
 62
     7
100
AcDbCircle
 10
4.331043
 20
-1.402314
 30
0.0
 40
0.562262
100
AcDbArc
 50
357.687613
 51
69.692522
  0
LINE
  5
269
102
{ACAD_REACTORS
330
26A
102
}
100
AcDbEntity
  8
BUILDING_ENVELOPE
  6
CONTINUOUS
 62
     7
100
AcDbLine
 10
4.526181
 20
-0.875
 30
0.0
 11
0.415467
 21
-0.875
 31
0.0
  0
HATCH
  5
26A
100
AcDbEntity
  8
BUILDING_ENVELOPE
 62
   254
100
AcDbHatch
 10
0.0
 20
0.0
 30
0.0
210
0.0
220
0.0
230
1.0
  2
SOLID
 70
     1
 71
     1
 91
        4
 92
        1
 93
        6
 72
     1
 10
0.4154673611356792
 20
-1.0583333333333358
 11
4.5261810369690121
 21
-1.0583333333333358
 72
     2
 10
4.2919598054193502
 20
-1.4046106157748337
 40
0.4180520800614547
 50
357.204441
 51
55.925661
 73
     1
 72
     1
 10
4.7095143703023448
 20
-1.4250000000000025
 11
4.8928477036356783
 21
-1.4250000000000025
 72
     2
 10
4.3310434353510541
 20
-1.4023139566341953
 40
0.5622621207465568
 50
357.687613
 51
69.692522
 73
     1
 72
     1
 10
4.5261810369690121
 20
-0.8750000000000029
 11
0.4154673611356792
 21
-0.8750000000000024
 72
     1
 10
0.4154673611356792
 20
-0.8750000000000024
 11
0.4154673611356792
 21
-1.0583333333333358
 97
        5
330
265
330
266
330
267
330
268
330
269
 92
        1
 93
        6
 72
     1
 10
0.4154673611356792
 20
1.5749999999999971
 11
4.5261810369690121
 21
1.5749999999999971
 72
     2
 10
4.5261840383023308
 20
1.7583303320000119
 40
0.1833303320245822
 50
269.999062
 51
0.000938
 73
     1
 72
     1
 10
4.7095143703023457
 20
1.7583333333333306
 11
4.8928477036356783
 21
1.7583333333333306
 72
     2
 10
4.5261870396356496
 20
1.7583273306666913
 40
0.3666606640491629
 50
269.999062
 51
0.000938
 73
     1
 72
     1
 10
4.5261810369690121
 20
1.3916666666666639
 11
0.4154673611356792
 21
1.3916666666666642
 72
     1
 10
0.4154673611356792
 20
1.3916666666666642
 11
0.4154673611356792
 21
1.5749999999999971
 97
        5
330
26B
330
26C
330
26D
330
26E
330
26F
 92
        1
 93
        6
 72
     1
 10
-4.6678659721976539
 20
-1.2416666666666691
 11
-4.4845326388643203
 21
-1.2416666666666691
 72
     2
 10
-4.3012023068643064
 20
-1.2416636653333502
 40
0.1833303320245819
 50
89.999062
 51
180.000938
 73
     1
 72
     1
 10
-4.3011993055309841
 20
-1.0583333333333358
 11
0.4154673611356792
 21
-1.0583333333333358
 72
     1
 10
0.4154673611356792
 20
-1.0583333333333358
 11
0.4154673611356792
 21
-0.8750000000000024
 72
     1
 10
0.4154673611356792
 20
-0.8750000000000024
 11
-4.3011993055309876
 21
-0.8750000000000024
 72
     2
 10
-4.3012053081976251
 20
-1.2416606640000305
 40
0.3666606640491635
 50
89.999062
 51
180.000938
 73
     1
 97
        5
330
270
330
271
330
272
330
273
330
274
 92
        1
 93
        6
 72
     1
 10
-4.7511993055309869
 20
1.7583333333333306
 11
-4.5678659721976533
 21
1.7583333333333306
 72
     2
 10
-4.3845356401976394
 20
1.7583303320000114
 40
0.183330332024582
 50
179.999062
 51
270.000938
 73
     1
 72
     1
 10
-4.384532638864318
 20
1.5749999999999971
 11
0.4154673611356792
 21
1.5749999999999971
 72
     1
 10
0.4154673611356792
 20
1.5749999999999971
 11
0.4154673611356792
 21
1.3916666666666642
 72
     1
 10
0.4154673611356792
 20
1.3916666666666642
 11
-4.3845326388643207
 21
1.3916666666666642
 72
     2
 10
-4.3845386415309591
 20
1.758327330666692
 40
0.3666606640491635
 50
179.999062
 51
270.000938
 73
     1
 97
        5
330
275
330
276
330
277
330
278
330
279
 75
     0
 76
     1
 98
        0
  0
LINE
  5
26B
102
{ACAD_REACTORS
330
26A
102
}
100
AcDbEntity
  8
BUILDING_ENVELOPE
  6
CONTINUOUS
 62
     7
100
AcDbLine
 10
0.415467
 20
1.575
 30
0.0
 11
4.526181
 21
1.575
 31
0.0
  0
ARC
  5
26C
102
{ACAD_REACTORS
330
26A
102
}
100
AcDbEntity
  8
BUILDING_ENVELOPE
  6
CONTINUOUS
 62
     7
100
AcDbCircle
 10
4.526184
 20
1.75833
 30
0.0
 40
0.18333
100
AcDbArc
 50
269.999062
 51
0.0
  0
LINE
  5
26D
102
{ACAD_REACTORS
330
26A
102
}
100
AcDbEntity
  8
BUILDING_ENVELOPE
  6
CONTINUOUS
 62
     7
100
AcDbLine
 10
4.709514
 20
1.758333
 30
0.0
 11
4.892848
 21
1.758333
 31
0.0
  0
ARC
  5
26E
102
{ACAD_REACTORS
330
26A
102
}
100
AcDbEntity
  8
BUILDING_ENVELOPE
  6
CONTINUOUS
 62
     7
100
AcDbCircle
 10
4.526187
 20
1.758327
 30
0.0
 40
0.366661
100
AcDbArc
 50
269.999062
 51
0.0
  0
LINE
  5
26F
102
{ACAD_REACTORS
330
26A
102
}
100
AcDbEntity
  8
BUILDING_ENVELOPE
  6
CONTINUOUS
 62
     7
100
AcDbLine
 10
4.526181
 20
1.391667
 30
0.0
 11
0.415467
 21
1.391667
 31
0.0
  0
LINE
  5
270
102
{ACAD_REACTORS
330
26A
102
}
100
AcDbEntity
  8
BUILDING_ENVELOPE
  6
CONTINUOUS
 62
     7
100
AcDbLine
 10
-4.667866
 20
-1.241667
 30
0.0
 11
-4.484533
 21
-1.241667
 31
0.0
  0
ARC
  5
271
102
{ACAD_REACTORS
330
26A
102
}
100
AcDbEntity
  8
BUILDING_ENVELOPE
  6
CONTINUOUS
 62
     7
100
AcDbCircle
 10
-4.301202
 20
-1.241664
 30
0.0
 40
0.18333
100
AcDbArc
 50
89.999062
 51
180.000938
  0
LINE
  5
272
102
{ACAD_REACTORS
330
26A
102
}
100
AcDbEntity
  8
BUILDING_ENVELOPE
  6
CONTINUOUS
 62
     7
100
AcDbLine
 10
-4.301199
 20
-1.058333
 30
0.0
 11
0.415467
 21
-1.058333
 31
0.0
  0
LINE
  5
273
102
{ACAD_REACTORS
330
26A
102
}
100
AcDbEntity
  8
BUILDING_ENVELOPE
  6
CONTINUOUS
 62
     7
100
AcDbLine
 10
0.415467
 20
-0.875
 30
0.0
 11
-4.301199
 21
-0.875
 31
0.0
  0
ARC
  5
274
102
{ACAD_REACTORS
330
26A
102
}
100
AcDbEntity
  8
BUILDING_ENVELOPE
  6
CONTINUOUS
 62
     7
100
AcDbCircle
 10
-4.301205
 20
-1.241661
 30
0.0
 40
0.366661
100
AcDbArc
 50
89.999062
 51
180.000938
  0
LINE
  5
275
102
{ACAD_REACTORS
330
26A
102
}
100
AcDbEntity
  8
BUILDING_ENVELOPE
  6
CONTINUOUS
 62
     7
100
AcDbLine
 10
-4.751199
 20
1.758333
 30
0.0
 11
-4.567866
 21
1.758333
 31
0.0
  0
ARC
  5
276
102
{ACAD_REACTORS
330
26A
102
}
100
AcDbEntity
  8
BUILDING_ENVELOPE
  6
CONTINUOUS
 62
     7
100
AcDbCircle
 10
-4.384536
 20
1.75833
 30
0.0
 40
0.18333
100
AcDbArc
 50
179.999062
 51
270.000938
  0
LINE
  5
277
102
{ACAD_REACTORS
330
26A
102
}
100
AcDbEntity
  8
BUILDING_ENVELOPE
  6
CONTINUOUS
 62
     7
100
AcDbLine
 10
-4.384533
 20
1.575
 30
0.0
 11
0.415467
 21
1.575
 31
0.0
  0
LINE
  5
278
102
{ACAD_REACTORS
330
26A
102
}
100
AcDbEntity
  8
BUILDING_ENVELOPE
  6
CONTINUOUS
 62
     7
100
AcDbLine
 10
0.415467
 20
1.391667
 30
0.0
 11
-4.384533
 21
1.391667
 31
0.0
  0
ARC
  5
279
102
{ACAD_REACTORS
330
26A
102
}
100
AcDbEntity
  8
BUILDING_ENVELOPE
  6
CONTINUOUS
 62
     7
100
AcDbCircle
 10
-4.384539
 20
1.758327
 30
0.0
 40
0.366661
100
AcDbArc
 50
179.999062
 51
270.000938
  0
ENDBLK
  5
27A
100
AcDbEntity
  8
0
100
AcDbBlockEnd
  0
BLOCK
  5
27C
100
AcDbEntity
  8
0
100
AcDbBlockBegin
  2
DOOR
 70
     0
 10
0.0
 20
0.0
 30
0.0
  3
DOOR
  1

  0
LWPOLYLINE
  5
27D
100
AcDbEntity
  8
BUILDING_ENVELOPE
  6
CONTINUOUS
 62
     7
100
AcDbPolyline
 90
        4
 70
     1
 10
3.583333
 20
4.734
 10
6.416667
 20
4.734
 10
6.416667
 20
5.266
 10
3.583333
 20
5.266
  0
LINE
  5
27E
100
AcDbEntity
  8
BUILDING_ENVELOPE
  6
CONTINUOUS
 62
     7
100
AcDbLine
 10
6.416667
 20
4.75
 30
0.0
 11
6.416667
 21
5.25
 31
0.0
  0
LINE
  5
27F
100
AcDbEntity
  8
BUILDING_ENVELOPE
  6
CONTINUOUS
 62
     7
100
AcDbLine
 10
6.416667
 20
5.25
 30
0.0
 11
6.25
 21
5.25
 31
0.0
  0
LINE
  5
280
100
AcDbEntity
  8
BUILDING_ENVELOPE
  6
CONTINUOUS
 62
     7
100
AcDbLine
 10
6.25
 20
5.25
 30
0.0
 11
6.25
 21
5.083333
 31
0.0
  0
LINE
  5
281
100
AcDbEntity
  8
BUILDING_ENVELOPE
  6
CONTINUOUS
 62
     7
100
AcDbLine
 10
6.25
 20
4.958333
 30
0.0
 11
6.25
 21
4.75
 31
0.0
  0
LINE
  5
282
100
AcDbEntity
  8
BUILDING_ENVELOPE
  6
CONTINUOUS
 62
     7
100
AcDbLine
 10
6.25
 20
4.75
 30
0.0
 11
6.416667
 21
4.75
 31
0.0
  0
LINE
  5
283
100
AcDbEntity
  8
BUILDING_ENVELOPE
  6
CONTINUOUS
 62
     7
100
AcDbLine
 10
3.583333
 20
4.75
 30
0.0
 11
3.583333
 21
5.25
 31
0.0
  0
LINE
  5
284
100
AcDbEntity
  8
BUILDING_ENVELOPE
  6
CONTINUOUS
 62
     7
100
AcDbLine
 10
3.583333
 20
5.25
 30
0.0
 11
3.75
 21
5.25
 31
0.0
  0
LINE
  5
285
100
AcDbEntity
  8
BUILDING_ENVELOPE
  6
CONTINUOUS
 62
     7
100
AcDbLine
 10
3.75
 20
5.25
 30
0.0
 11
3.75
 21
5.083333
 31
0.0
  0
LINE
  5
286
100
AcDbEntity
  8
BUILDING_ENVELOPE
  6
CONTINUOUS
 62
     7
100
AcDbLine
 10
3.75
 20
4.958333
 30
0.0
 11
3.75
 21
4.75
 31
0.0
  0
LINE
  5
287
100
AcDbEntity
  8
BUILDING_ENVELOPE
  6
CONTINUOUS
 62
     7
100
AcDbLine
 10
3.75
 20
4.75
 30
0.0
 11
3.583333
 21
4.75
 31
0.0
  0
LINE
  5
288
100
AcDbEntity
  8
BUILDING_ENVELOPE
  6
CONTINUOUS
 62
     7
100
AcDbLine
 10
6.25
 20
5.083333
 30
0.0
 11
6.208333
 21
5.083333
 31
0.0
  0
LINE
  5
289
100
AcDbEntity
  8
BUILDING_ENVELOPE
  6
CONTINUOUS
 62
     7
100
AcDbLine
 10
6.208333
 20
5.083333
 30
0.0
 11
6.208333
 21
4.958333
 31
0.0
  0
LINE
  5
28A
100
AcDbEntity
  8
BUILDING_ENVELOPE
  6
CONTINUOUS
 62
     7
100
AcDbLine
 10
6.208333
 20
4.958333
 30
0.0
 11
6.25
 21
4.958333
 31
0.0
  0
LINE
  5
28B
100
AcDbEntity
  8
BUILDING_ENVELOPE
  6
CONTINUOUS
 62
     7
100
AcDbLine
 10
3.75
 20
5.083333
 30
0.0
 11
3.791667
 21
5.083333
 31
0.0
  0
LINE
  5
28C
100
AcDbEntity
  8
BUILDING_ENVELOPE
  6
CONTINUOUS
 62
     7
100
AcDbLine
 10
3.791667
 20
5.083333
 30
0.0
 11
3.791667
 21
4.958333
 31
0.0
  0
LINE
  5
28D
100
AcDbEntity
  8
BUILDING_ENVELOPE
  6
CONTINUOUS
 62
     7
100
AcDbLine
 10
3.791667
 20
4.958333
 30
0.0
 11
3.75
 21
4.958333
 31
0.0
  0
LINE
  5
28E
100
AcDbEntity
  8
BUILDING_ENVELOPE
  6
CONTINUOUS
 62
     7
100
AcDbLine
 10
6.416667
 20
4.75
 30
0.0
 11
6.416667
 21
5.25
 31
0.0
  0
LINE
  5
28F
100
AcDbEntity
  8
BUILDING_ENVELOPE
  6
CONTINUOUS
 62
     7
100
AcDbLine
 10
3.583333
 20
4.75
 30
0.0
 11
3.583333
 21
5.25
 31
0.0
  0
ARC
  5
290
100
AcDbEntity
  8
BUILDING_ENVELOPE
  6
CONTINUOUS
 62
     7
100
AcDbCircle
 10
6.25
 20
5.25
 30
0.0
 40
2.5
100
AcDbArc
 50
90.0
 51
180.0
  0
LWPOLYLINE
  5
291
100
AcDbEntity
  8
BUILDING_ENVELOPE
  6
CONTINUOUS
 62
     7
100
AcDbPolyline
 90
        4
 70
     1
 10
6.083333
 20
7.75
 10
6.083333
 20
5.25
 10
6.25
 20
5.25
 10
6.25
 20
7.75
  0
ENDBLK
  5
292
100
AcDbEntity
  8
0
100
AcDbBlockEnd
  0
BLOCK
  5
294
100
AcDbEntity
  8
0
100
AcDbBlockBegin
  2
CASEMENT
 70
     2
 10
0.0
 20
0.0
 30
0.0
  3
CASEMENT
  1

  0
ATTDEF
  5
295
100
AcDbEntity
  8
0
100
AcDbText
 10
5.0
 20
5.0
 30
0.0
 40
0.2
  1
60
100
AcDbAttributeDefinition
  3
Window height
  2
VISWNDWHEIGHT
 70
     0
  0
ATTDEF
  5
296
100
AcDbEntity
  8
0
100
AcDbText
 10
5.0
 20
5.0
 30
0.0
 40
0.2
  1
0
100
AcDbAttributeDefinition
  3
Reference Line Offset
  2
REFLN
 70
     0
  0
ATTDEF
  5
297
100
AcDbEntity
  8
0
100
AcDbText
 10
5.0
 20
5.0
 30
0.0
 40
0.2
  1
30
100
AcDbAttributeDefinition
  3
Window width
  2
SUBTYPE
 70
     0
  0
ATTDEF
  5
298
100
AcDbEntity
  8
0
100
AcDbText
 10
5.0
 20
5.0
 30
0.0
 40
0.2
  1
2
100
AcDbAttributeDefinition
  3
Window frame depth
  2
SUBVISWNDWFRAMEDEPTH
 70
     0
  0
ATTDEF
  5
299
100
AcDbEntity
  8
0
100
AcDbText
 10
5.0
 20
5.0
 30
0.0
 40
0.2
  1
4
100
AcDbAttributeDefinition
  3
Window frame width
  2
SUBVISWNDWFRAMEWIDTH
 70
     0
  0
ATTDEF
  5
29A
100
AcDbEntity
  8
0
100
AcDbText
 10
5.0
 20
5.0
 30
0.0
 40
0.2
  1
2.5
100
AcDbAttributeDefinition
  3
Window sash depth
  2
SUBVISWNDWSASHDEPTH
 70
     0
  0
ATTDEF
  5
29B
100
AcDbEntity
  8
0
100
AcDbText
 10
5.0
 20
5.0
 30
0.0
 40
0.2
  1
1
100
AcDbAttributeDefinition
  3
Window sash width
  2
SUBVISWNDWSASHWIDTH
 70
     0
  0
ATTDEF
  5
29C
100
AcDbEntity
  8
0
100
AcDbText
 10
5.0
 20
5.0
 30
0.0
 40
0.2
  1
2
100
AcDbAttributeDefinition
  3
Window sill depth inside
  2
SUBVISWNDWSILLDEPTHIN
 70
     0
  0
ATTDEF
  5
29D
100
AcDbEntity
  8
0
100
AcDbText
 10
5.0
 20
5.0
 30
0.0
 40
0.2
  1
2
100
AcDbAttributeDefinition
  3
Window sill width inside
  2
SUBVISWNDWSILLWIDTHIN
 70
     0
  0
ATTDEF
  5
29E
100
AcDbEntity
  8
0
100
AcDbText
 10
5.0
 20
5.0
 30
0.0
 40
0.2
  1
2
100
AcDbAttributeDefinition
  3
Window sill depth outside
  2
SUBVISWNDWSILLDEPTHOUT
 70
     0
  0
ATTDEF
  5
29F
100
AcDbEntity
  8
0
100
AcDbText
 10
5.0
 20
5.0
 30
0.0
 40
0.2
  1
2
100
AcDbAttributeDefinition
  3
Window sill width outside
  2
SUBVISWNDWSILLWIDTHOUT
 70
     0
  0
ATTDEF
  5
2A0
100
AcDbEntity
  8
0
100
AcDbText
 10
5.0
 20
5.0
 30
0.0
 40
0.2
  1
80
100
AcDbAttributeDefinition
  3
Window header height
  2
VISWNDWHEADERHEIGHT
 70
     0
  0
ATTDEF
  5
2A1
100
AcDbEntity
  8
0
100
AcDbText
 10
5.0
 20
5.0
 30
0.0
 40
0.2
  1
6
100
AcDbAttributeDefinition
  3
Window along wall offset
  2
VISWNDWALONGWALLOFFSET
 70
     0
  0
ATTDEF
  5
2A2
100
AcDbEntity
  8
0
100
AcDbText
 10
5.0
 20
5.0
 30
0.0
 40
0.2
  1
15
100
AcDbAttributeDefinition
  3
Window operator size
  2
VISWNDWOPERATOR
 70
     0
  0
ATTDEF
  5
2A3
100
AcDbEntity
  8
0
100
AcDbText
 10
5.0
 20
5.0
 30
0.0
 40
0.2
  1
12
100
AcDbAttributeDefinition
  3
Window spring height
  2
VISWNDWSPRING
 70
     0
  0
ATTDEF
  5
2A4
100
AcDbEntity
  8
0
100
AcDbText
 10
5.0
 20
5.0
 30
0.0
 40
0.2
  1
Center
100
AcDbAttributeDefinition
  3
Window within wall offset
  2
VISJUSTIFICATION
 70
     0
  0
ATTDEF
  5
2A5
100
AcDbEntity
  8
0
100
AcDbText
 10
5.0
 20
5.0
 30
0.0
 40
0.2
  1
Building Component
100
AcDbAttributeDefinition
  3
Shape class
  2
SHAPECLASS
 70
     0
  0
ATTDEF
  5
2A6
100
AcDbEntity
  8
0
100
AcDbText
 10
5.0
 20
5.0
 30
0.0
 40
0.2
  1
Window
100
AcDbAttributeDefinition
  3
Shape type
  2
SHAPETYPE
 70
     0
  0
ATTDEF
  5
2A7
100
AcDbEntity
  8
0
100
AcDbText
 10
5.0
 20
5.0
 30
0.0
 40
0.2
  1
Casement
100
AcDbAttributeDefinition
  3
Window type
  2
SUBSHAPETYPE
 70
     0
  0
ATTDEF
  5
2A8
100
AcDbEntity
  8
0
100
AcDbText
 10
5.0
 20
5.0
 30
0.0
 40
0.2
  1
0
100
AcDbAttributeDefinition
  3
Fire rating
  2
FIRERATING
 70
     0
  0
ATTDEF
  5
2A9
100
AcDbEntity
  8
0
100
AcDbText
 10
5.0
 20
5.0
 30
0.0
 40
0.2
  1
0
100
AcDbAttributeDefinition
  3
Window number
  2
WNDWNUMBER
 70
     0
  0
LWPOLYLINE
  5
2AA
100
AcDbEntity
  8
BUILDING_ENVELOPE
  6
CONTINUOUS
 62
     7
100
AcDbPolyline
 90
        4
 70
     1
 10
3.75
 20
4.734
 10
6.25
 20
4.734
 10
6.25
 20
5.266
 10
3.75
 20
5.266
  0
LINE
  5
2AB
100
AcDbEntity
  8
BUILDING_ENVELOPE
  6
CONTINUOUS
 62
     7
100
AcDbLine
 10
3.75
 20
4.75
 30
0.0
 11
3.75
 21
5.25
 31
0.0
  0
LINE
  5
2AC
100
AcDbEntity
  8
BUILDING_ENVELOPE
  6
CONTINUOUS
 62
     7
100
AcDbLine
 10
3.75
 20
5.25
 30
0.0
 11
4.083333
 21
5.25
 31
0.0
  0
LINE
  5
2AD
100
AcDbEntity
  8
BUILDING_ENVELOPE
  6
CONTINUOUS
 62
     7
100
AcDbLine
 10
4.083333
 20
5.25
 30
0.0
 11
4.083333
 21
5.104167
 31
0.0
  0
LINE
  5
2AE
100
AcDbEntity
  8
BUILDING_ENVELOPE
  6
CONTINUOUS
 62
     7
100
AcDbLine
 10
4.083333
 20
4.895833
 30
0.0
 11
4.083333
 21
4.75
 31
0.0
  0
LINE
  5
2AF
100
AcDbEntity
  8
BUILDING_ENVELOPE
  6
CONTINUOUS
 62
     7
100
AcDbLine
 10
4.083333
 20
4.75
 30
0.0
 11
3.75
 21
4.75
 31
0.0
  0
LINE
  5
2B0
100
AcDbEntity
  8
BUILDING_ENVELOPE
  6
CONTINUOUS
 62
     7
100
AcDbLine
 10
6.25
 20
4.75
 30
0.0
 11
6.25
 21
5.25
 31
0.0
  0
LINE
  5
2B1
100
AcDbEntity
  8
BUILDING_ENVELOPE
  6
CONTINUOUS
 62
     7
100
AcDbLine
 10
6.25
 20
5.25
 30
0.0
 11
5.916667
 21
5.25
 31
0.0
  0
LINE
  5
2B2
100
AcDbEntity
  8
BUILDING_ENVELOPE
  6
CONTINUOUS
 62
     7
100
AcDbLine
 10
5.916667
 20
5.25
 30
0.0
 11
5.916667
 21
5.104167
 31
0.0
  0
LINE
  5
2B3
100
AcDbEntity
  8
BUILDING_ENVELOPE
  6
CONTINUOUS
 62
     7
100
AcDbLine
 10
5.916667
 20
4.895833
 30
0.0
 11
5.916667
 21
4.75
 31
0.0
  0
LINE
  5
2B4
100
AcDbEntity
  8
BUILDING_ENVELOPE
  6
CONTINUOUS
 62
     7
100
AcDbLine
 10
5.916667
 20
4.75
 30
0.0
 11
6.25
 21
4.75
 31
0.0
  0
LWPOLYLINE
  5
2B5
100
AcDbEntity
  8
BUILDING_ENVELOPE
  6
CONTINUOUS
 62
     7
100
AcDbPolyline
 90
        4
 70
     1
 10
4.083333
 20
5.208333
 10
4.166667
 20
5.208333
 10
4.166667
 20
5.0
 10
4.083333
 20
5.0
  0
LWPOLYLINE
  5
2B6
100
AcDbEntity
  8
BUILDING_ENVELOPE
  6
CONTINUOUS
 62
     7
100
AcDbPolyline
 90
        4
 70
     1
 10
5.916667
 20
5.208333
 10
5.833333
 20
5.208333
 10
5.833333
 20
5.0
 10
5.916667
 20
5.0
  0
LINE
  5
2B7
100
AcDbEntity
  8
BUILDING_ENVELOPE
  6
CONTINUOUS
 62
     7
100
AcDbLine
 10
4.166667
 20
5.104167
 30
0.0
 11
5.833333
 21
5.104167
 31
0.0
  0
LINE
  5
2B8
100
AcDbEntity
  8
BUILDING_ENVELOPE
  6
CONTINUOUS
 62
     7
100
AcDbLine
 10
3.75
 20
4.75
 30
0.0
 11
3.75
 21
5.25
 31
0.0
  0
LINE
  5
2B9
100
AcDbEntity
  8
BUILDING_ENVELOPE
  6
CONTINUOUS
 62
     7
100
AcDbLine
 10
6.25
 20
4.75
 30
0.0
 11
6.25
 21
5.25
 31
0.0
  0
LWPOLYLINE
  5
2BA
100
AcDbEntity
  8
BUILDING_ENVELOPE
  6
CONTINUOUS
 62
     7
100
AcDbPolyline
 90
        4
 70
     1
 10
4.083333
 20
5.0
 10
4.125
 20
5.0
 10
4.125
 20
4.895833
 10
4.083333
 20
4.895833
  0
LWPOLYLINE
  5
2BB
100
AcDbEntity
  8
BUILDING_ENVELOPE
  6
CONTINUOUS
 62
     7
100
AcDbPolyline
 90
        4
 70
     1
 10
5.916667
 20
5.0
 10
5.875
 20
5.0
 10
5.875
 20
4.895833
 10
5.916667
 20
4.895833
  0
ENDBLK
  5
2BC
100
AcDbEntity
  8
0
100
AcDbBlockEnd
  0
BLOCK
  5
2BE
100
AcDbEntity
  8
0
100
AcDbBlockBegin
  2
DOUBLE
 70
     2
 10
0.0
 20
0.0
 30
0.0
  3
DOUBLE
  1

  0
ATTDEF
  5
2BF
100
AcDbEntity
  8
0
100
AcDbText
 10
5.0
 20
5.0
 30
0.0
 40
0.2
  1
80
100
AcDbAttributeDefinition
  3
Door height
  2
VISDOORHEIGHT
 70
     0
  0
ATTDEF
  5
2C0
100
AcDbEntity
  8
0
100
AcDbText
 10
5.0
 20
5.0
 30
0.0
 40
0.2
  1
0
100
AcDbAttributeDefinition
  3
Reference Line Offset
  2
REFLN
 70
     0
  0
ATTDEF
  5
2C1
100
AcDbEntity
  8
0
100
AcDbText
 10
5.0
 20
5.0
 30
0.0
 40
0.2
  1
60
100
AcDbAttributeDefinition
  3
Door width
  2
SUBTYPE
 70
     0
  0
ATTDEF
  5
2C2
100
AcDbEntity
  8
0
100
AcDbText
 10
5.0
 20
5.0
 30
0.0
 40
0.2
  1
2
100
AcDbAttributeDefinition
  3
Door frame width
  2
SUBVISDOORFRAMEWIDTH
 70
     0
  0
ATTDEF
  5
2C3
100
AcDbEntity
  8
0
100
AcDbText
 10
5.0
 20
5.0
 30
0.0
 40
0.2
  1
4
100
AcDbAttributeDefinition
  3
Door frame depth
  2
SUBVISDOORFRAMEDEPTH
 70
     0
  0
ATTDEF
  5
2C4
100
AcDbEntity
  8
0
100
AcDbText
 10
5.0
 20
5.0
 30
0.0
 40
0.2
  1
0.5
100
AcDbAttributeDefinition
  3
Door stop width
  2
SUBVISDOORSTOPWIDTH
 70
     0
  0
ATTDEF
  5
2C5
100
AcDbEntity
  8
0
100
AcDbText
 10
5.0
 20
5.0
 30
0.0
 40
0.2
  1
1.5
100
AcDbAttributeDefinition
  3
Door stop depth
  2
SUBVISDOORSTOPDEPTH
 70
     0
  0
ATTDEF
  5
2C6
100
AcDbEntity
  8
0
100
AcDbText
 10
5.0
 20
5.0
 30
0.0
 40
0.2
  1
2
100
AcDbAttributeDefinition
  3
Door threshold depth inside
  2
SUBVISDOORTHRESDEPTHIN
 70
     0
  0
ATTDEF
  5
2C7
100
AcDbEntity
  8
0
100
AcDbText
 10
5.0
 20
5.0
 30
0.0
 40
0.2
  1
2
100
AcDbAttributeDefinition
  3
Door threshold width inside
  2
SUBVISDOORTHRESWIDTHIN
 70
     0
  0
ATTDEF
  5
2C8
100
AcDbEntity
  8
0
100
AcDbText
 10
5.0
 20
5.0
 30
0.0
 40
0.2
  1
2
100
AcDbAttributeDefinition
  3
Door threshold depth outside
  2
SUBVISDOORTHRESDEPTHOUT
 70
     0
  0
ATTDEF
  5
2C9
100
AcDbEntity
  8
0
100
AcDbText
 10
5.0
 20
5.0
 30
0.0
 40
0.2
  1
2
100
AcDbAttributeDefinition
  3
Door threshold width outside
  2
SUBVISDOORTHRESWIDTHOUT
 70
     0
  0
ATTDEF
  5
2CA
100
AcDbEntity
  8
0
100
AcDbText
 10
5.0
 20
5.0
 30
0.0
 40
0.2
  1
2
100
AcDbAttributeDefinition
  3
Door panel thickness
  2
SUBVISDOORPANELTHICKNESS
 70
     0
  0
ATTDEF
  5
2CB
100
AcDbEntity
  8
0
100
AcDbText
 10
5.0
 20
5.0
 30
0.0
 40
0.2
  1
30
100
AcDbAttributeDefinition
  3
Door leaf width
  2
VISDOORLEAF
 70
     0
  0
ATTDEF
  5
2CC
100
AcDbEntity
  8
0
100
AcDbText
 10
5.0
 20
5.0
 30
0.0
 40
0.2
  1
12
100
AcDbAttributeDefinition
  3
Door spring height
  2
VISDOORSPRING
 70
     0
  0
ATTDEF
  5
2CD
100
AcDbEntity
  8
0
100
AcDbText
 10
5.0
 20
5.0
 30
0.0
 40
0.2
  1
6
100
AcDbAttributeDefinition
  3
Door along wall offset
  2
VISDOORALONGWALLOFFSET
 70
     0
  0
ATTDEF
  5
2CE
100
AcDbEntity
  8
0
100
AcDbText
 10
5.0
 20
5.0
 30
0.0
 40
0.2
  1
Double
100
AcDbAttributeDefinition
  3
Door type
  2
SUBSHAPETYPE
 70
     0
  0
ATTDEF
  5
2CF
100
AcDbEntity
  8
0
100
AcDbText
 10
5.0
 20
5.0
 30
0.0
 40
0.2
  1
Center
100
AcDbAttributeDefinition
  3
Door within wall offset
  2
VISJUSTIFICATION
 70
     0
  0
ATTDEF
  5
2D0
100
AcDbEntity
  8
0
100
AcDbText
 10
5.0
 20
5.0
 30
0.0
 40
0.2
  1
50
100
AcDbAttributeDefinition
  3
Door open percentage
  2
VISDOOROPENPERCENT
 70
     0
  0
ATTDEF
  5
2D1
100
AcDbEntity
  8
0
100
AcDbText
 10
5.0
 20
5.0
 30
0.0
 40
0.2
  1
Building Component
100
AcDbAttributeDefinition
  3
Shape class
  2
SHAPECLASS
 70
     0
  0
ATTDEF
  5
2D2
100
AcDbEntity
  8
0
100
AcDbText
 10
5.0
 20
5.0
 30
0.0
 40
0.2
  1
Door
100
AcDbAttributeDefinition
  3
Shape type
  2
SHAPETYPE
 70
     0
  0
ATTDEF
  5
2D3
100
AcDbEntity
  8
0
100
AcDbText
 10
5.0
 20
5.0
 30
0.0
 40
0.2
  1
0
100
AcDbAttributeDefinition
  3
Fire rating
  2
FIRERATING
 70
     0
  0
ATTDEF
  5
2D4
100
AcDbEntity
  8
0
100
AcDbText
 10
5.0
 20
5.0
 30
0.0
 40
0.2
  1
0
100
AcDbAttributeDefinition
  3
Door number
  2
DOORNUMBER
 70
     0
  0
ATTDEF
  5
2D5
100
AcDbEntity
  8
0
100
AcDbText
 10
5.0
 20
5.0
 30
0.0
 40
0.2
  1
0
100
AcDbAttributeDefinition
  3
Base elevation
  2
BASEELEVATION
 70
     0
  0
LWPOLYLINE
  5
2D6
100
AcDbEntity
  8
BUILDING_ENVELOPE
  6
CONTINUOUS
 62
     7
100
AcDbPolyline
 90
        4
 70
     1
 10
2.333333
 20
4.734
 10
7.666667
 20
4.734
 10
7.666667
 20
5.266
 10
2.333333
 20
5.266
  0
LINE
  5
2D7
100
AcDbEntity
  8
BUILDING_ENVELOPE
  6
CONTINUOUS
 62
     7
100
AcDbLine
 10
7.666667
 20
4.75
 30
0.0
 11
7.666667
 21
5.25
 31
0.0
  0
LINE
  5
2D8
100
AcDbEntity
  8
BUILDING_ENVELOPE
  6
CONTINUOUS
 62
     7
100
AcDbLine
 10
7.666667
 20
5.25
 30
0.0
 11
7.5
 21
5.25
 31
0.0
  0
LINE
  5
2D9
100
AcDbEntity
  8
BUILDING_ENVELOPE
  6
CONTINUOUS
 62
     7
100
AcDbLine
 10
7.5
 20
5.25
 30
0.0
 11
7.5
 21
5.083333
 31
0.0
  0
LINE
  5
2DA
100
AcDbEntity
  8
BUILDING_ENVELOPE
  6
CONTINUOUS
 62
     7
100
AcDbLine
 10
7.5
 20
4.958333
 30
0.0
 11
7.5
 21
4.75
 31
0.0
  0
LINE
  5
2DB
100
AcDbEntity
  8
BUILDING_ENVELOPE
  6
CONTINUOUS
 62
     7
100
AcDbLine
 10
7.5
 20
4.75
 30
0.0
 11
7.666667
 21
4.75
 31
0.0
  0
LINE
  5
2DC
100
AcDbEntity
  8
BUILDING_ENVELOPE
  6
CONTINUOUS
 62
     7
100
AcDbLine
 10
2.333333
 20
4.75
 30
0.0
 11
2.333333
 21
5.25
 31
0.0
  0
LINE
  5
2DD
100
AcDbEntity
  8
BUILDING_ENVELOPE
  6
CONTINUOUS
 62
     7
100
AcDbLine
 10
2.333333
 20
5.25
 30
0.0
 11
2.5
 21
5.25
 31
0.0
  0
LINE
  5
2DE
100
AcDbEntity
  8
BUILDING_ENVELOPE
  6
CONTINUOUS
 62
     7
100
AcDbLine
 10
2.5
 20
5.25
 30
0.0
 11
2.5
 21
5.083333
 31
0.0
  0
LINE
  5
2DF
100
AcDbEntity
  8
BUILDING_ENVELOPE
  6
CONTINUOUS
 62
     7
100
AcDbLine
 10
2.5
 20
4.958333
 30
0.0
 11
2.5
 21
4.75
 31
0.0
  0
LINE
  5
2E0
100
AcDbEntity
  8
BUILDING_ENVELOPE
  6
CONTINUOUS
 62
     7
100
AcDbLine
 10
2.5
 20
4.75
 30
0.0
 11
2.333333
 21
4.75
 31
0.0
  0
LINE
  5
2E1
100
AcDbEntity
  8
BUILDING_ENVELOPE
  6
CONTINUOUS
 62
     7
100
AcDbLine
 10
7.5
 20
5.083333
 30
0.0
 11
7.458333
 21
5.083333
 31
0.0
  0
LINE
  5
2E2
100
AcDbEntity
  8
BUILDING_ENVELOPE
  6
CONTINUOUS
 62
     7
100
AcDbLine
 10
7.458333
 20
5.083333
 30
0.0
 11
7.458333
 21
4.958333
 31
0.0
  0
LINE
  5
2E3
100
AcDbEntity
  8
BUILDING_ENVELOPE
  6
CONTINUOUS
 62
     7
100
AcDbLine
 10
7.458333
 20
4.958333
 30
0.0
 11
7.5
 21
4.958333
 31
0.0
  0
LINE
  5
2E4
100
AcDbEntity
  8
BUILDING_ENVELOPE
  6
CONTINUOUS
 62
     7
100
AcDbLine
 10
2.5
 20
5.083333
 30
0.0
 11
2.541667
 21
5.083333
 31
0.0
  0
LINE
  5
2E5
100
AcDbEntity
  8
BUILDING_ENVELOPE
  6
CONTINUOUS
 62
     7
100
AcDbLine
 10
2.541667
 20
5.083333
 30
0.0
 11
2.541667
 21
4.958333
 31
0.0
  0
LINE
  5
2E6
100
AcDbEntity
  8
BUILDING_ENVELOPE
  6
CONTINUOUS
 62
     7
100
AcDbLine
 10
2.541667
 20
4.958333
 30
0.0
 11
2.5
 21
4.958333
 31
0.0
  0
LINE
  5
2E7
100
AcDbEntity
  8
BUILDING_ENVELOPE
  6
CONTINUOUS
 62
     7
100
AcDbLine
 10
7.666667
 20
4.75
 30
0.0
 11
7.666667
 21
5.25
 31
0.0
  0
LINE
  5
2E8
100
AcDbEntity
  8
BUILDING_ENVELOPE
  6
CONTINUOUS
 62
     7
100
AcDbLine
 10
2.333333
 20
4.75
 30
0.0
 11
2.333333
 21
5.25
 31
0.0
  0
ARC
  5
2E9
100
AcDbEntity
  8
BUILDING_ENVELOPE
  6
CONTINUOUS
 62
     7
100
AcDbCircle
 10
2.5
 20
5.25
 30
0.0
 40
2.5
100
AcDbArc
 50
0.0
 51
90.0
  0
ARC
  5
2EA
100
AcDbEntity
  8
BUILDING_ENVELOPE
  6
CONTINUOUS
 62
     7
100
AcDbCircle
 10
7.5
 20
5.25
 30
0.0
 40
2.5
100
AcDbArc
 50
90.0
 51
180.0
  0
LWPOLYLINE
  5
2EB
100
AcDbEntity
  8
BUILDING_ENVELOPE
  6
CONTINUOUS
 62
     7
100
AcDbPolyline
 90
        4
 70
     1
 10
2.5
 20
7.75
 10
2.5
 20
5.25
 10
2.666667
 20
5.25
 10
2.666667
 20
7.75
  0
LWPOLYLINE
  5
2EC
100
AcDbEntity
  8
BUILDING_ENVELOPE
  6
CONTINUOUS
 62
     7
100
AcDbPolyline
 90
        4
 70
     1
 10
7.333333
 20
7.75
 10
7.333333
 20
5.25
 10
7.5
 20
5.25
 10
7.5
 20
7.75
  0
ENDBLK
  5
2ED
100
AcDbEntity
  8
0
100
AcDbBlockEnd
  0
ENDSEC
  0
SECTION
  2
ENTITIES
  0
LWPOLYLINE
  5
76
102
{ACAD_REACTORS
330
77
102
}
100
AcDbEntity
  8
SPACE
  6
CONTINUOUS
100
AcDbPolyline
 90
        7
 70
     1
 10
13.14601
 20
14.501389
 10
13.276
 20
14.501389
 10
13.276001
 20
0.5
 10
25.02357
 20
0.5
 10
25.02357
 20
18.748622
 10
18.284401
 20
18.774947
 10
18.080899
 20
19.040662
  0
HATCH
  5
77
102
{ACAD_REACTORS
330
74
102
}
100
AcDbEntity
  8
SPACE
 62
    22
100
AcDbHatch
 10
0.0
 20
0.0
 30
0.0
210
0.0
220
0.0
230
1.0
  2
SOLID
 70
     1
 71
     1
 91
        1
 92
        3
 72
     0
 73
     1
 93
        7
 10
13.1460098137006334
 20
14.5013888749190372
 10
13.2760001881977523
 20
14.5013888749190372
 10
13.2760007685711532
 20
0.5
 10
25.0235702260395456
 20
0.5
 10
25.0235702260395456
 20
18.7486219603793387
 10
18.2844013223932755
 20
18.7749468235161743
 10
18.0808991266111434
 20
19.0406620831829301
 97
        1
330
76
 75
     0
 76
     1
 98
        0
  0
MTEXT
  5
78
100
AcDbEntity
  8
SPACE
100
AcDbMText
 10
18.041626
 20
9.392421
 30
0.0
 40
0.500004
 41
3.284793
 71
     5
 72
     5
  1
\C7;\fCalibri|b0|i0|;\H0.50000381469727;Garage\P205 sq. ft.\P\P
  0
LINE
  5
7A
102
{ACAD_REACTORS
330
7E
102
}
100
AcDbEntity
  8
SPACE
  6
CONTINUOUS
100
AcDbLine
 10
12.942667
 20
14.168056
 30
0.0
 11
0.356904
 21
14.168056
 31
0.0
  0
LINE
  5
7B
102
{ACAD_REACTORS
330
7E
102
}
100
AcDbEntity
  8
SPACE
  6
CONTINUOUS
100
AcDbLine
 10
0.356904
 20
14.168056
 30
0.0
 11
0.356904
 21
0.5
 31
0.0
  0
LINE
  5
7C
102
{ACAD_REACTORS
330
7E
102
}
100
AcDbEntity
  8
SPACE
  6
CONTINUOUS
100
AcDbLine
 10
0.356904
 20
0.5
 30
0.0
 11
12.942667
 21
0.5
 31
0.0
  0
LINE
  5
7D
102
{ACAD_REACTORS
330
7E
102
}
100
AcDbEntity
  8
SPACE
  6
CONTINUOUS
100
AcDbLine
 10
12.942667
 20
0.5
 30
0.0
 11
12.942667
 21
14.168055
 31
0.0
  0
HATCH
  5
7E
102
{ACAD_REACTORS
330
79
102
}
100
AcDbEntity
  8
SPACE
 62
    94
100
AcDbHatch
 10
0.0
 20
0.0
 30
0.0
210
0.0
220
0.0
230
1.0
  2
SOLID
 70
     1
 71
     1
 91
        1
 92
        1
 93
        5
 72
     1
 10
12.942666854864445
 20
14.1680555415857192
 11
0.3569035593728836
 21
14.1680555415857192
 72
     1
 10
0.3569035593728836
 20
14.1680555415857192
 11
0.3569035593728836
 21
0.4999999999999526
 72
     1
 10
0.3569035593728836
 20
0.4999999999999526
 11
12.9426674352378175
 21
0.4999999999999526
 72
     1
 10
12.9426674352378175
 20
0.4999999999999526
 11
12.9426674352378175
 21
14.1680552164713376
 72
     1
 10
12.9426674352378175
 20
14.1680552164713376
 11
12.942666854864445
 21
14.1680555415857192
 97
        4
330
7A
330
7B
330
7C
330
7D
 75
     0
 76
     1
 98
        0
  0
MTEXT
  5
7F
100
AcDbEntity
  8
SPACE
100
AcDbMText
 10
6.291626
 20
7.392421
 30
0.0
 40
0.500004
 41
4.599277
 71
     5
 72
     5
  1
\C7;\fCalibri|b0|i0|;\H0.50000381469727;Drawing Room\P172 sq. ft.\P\P
  0
LINE
  5
81
102
{ACAD_REACTORS
330
87
102
}
100
AcDbEntity
  8
SPACE
  6
CONTINUOUS
100
AcDbLine
 10
18.080899
 20
19.040662
 30
0.0
 11
16.692667
 21
20.853293
 31
0.0
  0
LINE
  5
82
102
{ACAD_REACTORS
330
87
102
}
100
AcDbEntity
  8
SPACE
  6
CONTINUOUS
100
AcDbLine
 10
16.692667
 20
20.853293
 30
0.0
 11
16.692667
 21
29.685634
 31
0.0
  0
LINE
  5
83
102
{ACAD_REACTORS
330
87
102
}
100
AcDbEntity
  8
SPACE
  6
CONTINUOUS
100
AcDbLine
 10
16.692667
 20
29.685634
 30
0.0
 11
0.356904
 21
29.685634
 31
0.0
  0
LINE
  5
84
102
{ACAD_REACTORS
330
87
102
}
100
AcDbEntity
  8
SPACE
  6
CONTINUOUS
100
AcDbLine
 10
0.356904
 20
29.685634
 30
0.0
 11
0.356904
 21
14.501389
 31
0.0
  0
LINE
  5
85
102
{ACAD_REACTORS
330
87
102
}
100
AcDbEntity
  8
SPACE
  6
CONTINUOUS
100
AcDbLine
 10
0.356904
 20
14.501389
 30
0.0
 11
13.14601
 21
14.501389
 31
0.0
  0
LINE
  5
86
102
{ACAD_REACTORS
330
87
102
}
100
AcDbEntity
  8
SPACE
  6
CONTINUOUS
100
AcDbLine
 10
13.14601
 20
14.501389
 30
0.0
 11
18.080899
 21
19.040662
 31
0.0
  0
HATCH
  5
87
102
{ACAD_REACTORS
330
80
102
}
100
AcDbEntity
  8
SPACE
 62
     2
100
AcDbHatch
 10
0.0
 20
0.0
 30
0.0
210
0.0
220
0.0
230
1.0
  2
SOLID
 70
     1
 71
     1
 91
        1
 92
        1
 93
        7
 72
     1
 10
18.0808991266110901
 20
19.040662083182923
 11
16.6926674363640508
 21
20.8532928640628548
 72
     1
 10
16.6926674363640508
 20
20.8532928640628548
 11
16.6926674317455337
 21
29.6856336607649212
 72
     1
 10
16.6926674317455337
 20
29.6856336607649212
 11
0.356903559372892
 21
29.6856336819653173
 72
     1
 10
0.356903559372892
 20
29.6856336819653173
 11
0.356903559372892
 21
14.5013888749190478
 72
     1
 10
0.356903559372892
 20
14.5013888749190478
 11
13.146009813700644
 21
14.5013888749190478
 72
     1
 10
13.146009813700644
 20
14.5013888749190478
 11
18.0808989934042756
 21
19.0406619811643836
 72
     1
 10
18.0808989934042756
 20
19.0406619811643836
 11
18.0808991266110901
 21
19.040662083182923
 97
        6
330
81
330
82
330
83
330
84
330
85
330
86
 75
     0
 76
     1
 98
        0
  0
MTEXT
  5
88
100
AcDbEntity
  8
SPACE
100
AcDbMText
 10
7.291626
 20
22.392421
 30
0.0
 40
0.500004
 41
3.284793
 71
     5
 72
     5
  1
\C7;\fCalibri|b0|i0|;\H0.50000381469727;Lounge\P244 sq. ft.\P\P
  0
LWPOLYLINE
  5
8A
102
{ACAD_REACTORS
330
8B
102
}
100
AcDbEntity
  8
SPACE
  6
CONTINUOUS
100
AcDbPolyline
 90
        5
 70
     1
 10
17.026001
 20
29.685634
 10
17.026001
 20
20.966273
 10
18.449466
 20
19.107638
 10
25.02357
 20
19.081958
 10
25.02357
 20
29.685634
  0
HATCH
  5
8B
102
{ACAD_REACTORS
330
89
102
}
100
AcDbEntity
  8
SPACE
 62
    40
100
AcDbHatch
 10
0.0
 20
0.0
 30
0.0
210
0.0
220
0.0
230
1.0
  2
SOLID
 70
     1
 71
     1
 91
        1
 92
        3
 72
     0
 73
     1
 93
        5
 10
17.026000765078841
 20
29.6856336607649673
 10
17.026000765078841
 20
20.9662732297295307
 10
18.4494657959895676
 20
19.1076378606358581
 10
25.0235702074234077
 20
19.0819578368344196
 10
25.0235702260395882
 20
29.6856336819653173
 97
        1
330
8A
 75
     0
 76
     1
 98
        0
  0
MTEXT
  5
8C
100
AcDbEntity
  8
SPACE
100
AcDbMText
 10
21.291626
 20
24.142421
 30
0.0
 40
0.500004
 41
2.946903
 71
     5
 72
     5
  1
\C7;\fCalibri|b0|i0|;\H0.50000381469727;Kitchen\P83 sq. ft.\P\P
  0
LWPOLYLINE
  5
8E
102
{ACAD_REACTORS
330
8F
102
}
100
AcDbEntity
  8
SPACE
  6
CONTINUOUS
100
AcDbPolyline
 90
        4
 70
     1
 10
12.536417
 20
41.091884
 10
0.356904
 20
41.091884
 10
0.356904
 20
30.018967
 10
12.536417
 20
30.018967
  0
HATCH
  5
8F
102
{ACAD_REACTORS
330
8D
102
}
100
AcDbEntity
  8
SPACE
 62
    10
100
AcDbHatch
 10
0.0
 20
0.0
 30
0.0
210
0.0
220
0.0
230
1.0
  2
SOLID
 70
     1
 71
     1
 91
        1
 92
        3
 72
     0
 73
     1
 93
        4
 10
12.5364174481890593
 20
41.091883682256352
 10
0.3569035964602231
 20
41.091883682256352
 10
0.3569035964602231
 20
30.01896701388889
 10
12.5364174481890593
 20
30.01896701388889
 97
        1
330
8E
 75
     0
 76
     1
 98
        0
  0
MTEXT
  5
90
100
AcDbEntity
  8
SPACE
100
AcDbMText
 10
6.291626
 20
35.392421
 30
0.0
 40
0.500004
 41
3.284793
 71
     5
 72
     5
  1
\C7;\fCalibri|b0|i0|;\H0.50000381469727;Bedroom\P135 sq. ft.\P\P
  0
LWPOLYLINE
  5
92
102
{ACAD_REACTORS
330
93
102
}
100
AcDbEntity
  8
SPACE
  6
CONTINUOUS
100
AcDbPolyline
 90
        4
 70
     1
 10
12.869751
 20
41.091884
 10
12.869751
 20
30.018967
 10
25.02357
 20
30.018967
 10
25.02357
 20
41.091884
  0
HATCH
  5
93
102
{ACAD_REACTORS
330
91
102
}
100
AcDbEntity
  8
SPACE
 62
    10
100
AcDbHatch
 10
0.0
 20
0.0
 30
0.0
210
0.0
220
0.0
230
1.0
  2
SOLID
 70
     1
 71
     1
 91
        1
 92
        3
 72
     0
 73
     1
 93
        4
 10
12.8697507815223595
 20
41.0918836819653421
 10
12.8697507815223595
 20
30.0189670152986423
 10
25.0235702260395527
 20
30.0189670152986423
 10
25.0235702260395527
 20
41.0918836822563378
 97
        1
330
92
 75
     0
 76
     1
 98
        0
  0
MTEXT
  5
94
100
AcDbEntity
  8
SPACE
100
AcDbMText
 10
19.291626
 20
35.392421
 30
0.0
 40
0.500004
 41
3.284793
 71
     5
 72
     5
  1
\C7;\fCalibri|b0|i0|;\H0.50000381469727;Bedroom\P135 sq. ft.\P\P
  0
LWPOLYLINE
  5
96
102
{ACAD_REACTORS
330
97
102
}
100
AcDbEntity
  8
SPACE
  6
CONTINUOUS
100
AcDbPolyline
 90
        4
 70
     1
 10
6.880167
 20
41.425217
 10
6.880167
 20
45.166667
 10
0.356904
 20
45.166667
 10
0.356904
 20
41.425217
  0
HATCH
  5
97
102
{ACAD_REACTORS
330
95
102
}
100
AcDbEntity
  8
SPACE
 62
     5
100
AcDbHatch
 10
0.0
 20
0.0
 30
0.0
210
0.0
220
0.0
230
1.0
  2
SOLID
 70
     1
 71
     1
 91
        1
 92
        3
 72
     0
 73
     1
 93
        4
 10
6.8801674483345368
 20
41.4252170155896593
 10
6.8801674483345368
 20
45.166666689560202
 10
0.3569035593728866
 20
45.1666666666666856
 10
0.3569035593728866
 20
41.4252170155896593
 97
        1
330
96
 75
     0
 76
     1
 98
        0
  0
MTEXT
  5
98
100
AcDbEntity
  8
SPACE
100
AcDbMText
 10
4.791626
 20
42.892421
 30
0.0
 40
0.500004
 41
3.319019
 71
     5
 72
     5
  1
\C7;\fCalibri|b0|i0|;\H0.50000381469727;Bathroom\P24 sq. ft.\P\P
  0
LWPOLYLINE
  5
9A
102
{ACAD_REACTORS
330
9B
102
}
100
AcDbEntity
  8
SPACE
  6
CONTINUOUS
100
AcDbPolyline
 90
        4
 70
     1
 10
18.791626
 20
41.425217
 10
25.02357
 20
41.425217
 10
25.02357
 20
45.166667
 10
18.791626
 20
45.166667
  0
HATCH
  5
9B
102
{ACAD_REACTORS
330
99
102
}
100
AcDbEntity
  8
SPACE
 62
     5
100
AcDbHatch
 10
0.0
 20
0.0
 30
0.0
210
0.0
220
0.0
230
1.0
  2
SOLID
 70
     1
 71
     1
 91
        1
 92
        3
 72
     0
 73
     1
 93
        4
 10
18.7916257815951084
 20
41.4252170138888829
 10
25.0235702260393715
 20
41.4252170138888829
 10
25.0235702260393715
 20
45.1666666666666927
 10
18.7916257815951084
 20
45.1666666666666572
 97
        1
330
9A
 75
     0
 76
     1
 98
        0
  0
MTEXT
  5
9C
100
AcDbEntity
  8
SPACE
100
AcDbMText
 10
20.791626
 20
43.142421
 30
0.0
 40
0.500004
 41
3.319019
 71
     5
 72
     5
  1
\C7;\fCalibri|b0|i0|;\H0.50000381469727;Bathroom\P23 sq. ft.\P\P
  0
LWPOLYLINE
  5
9F
102
{ACAD_REACTORS
330
A0
102
}
100
AcDbEntity
  8
BUILDING_ENVELOPE
  6
CONTINUOUS
 62
     7
100
AcDbPolyline
 90
        4
 70
     1
 10
0.356904
 20
45.166667
 10
0.356904
 20
0.5
 10
0.02357
 20
0.166667
 10
0.02357
 20
45.5
  0
HATCH
  5
A0
102
{ACAD_REACTORS
330
9D
102
}
100
AcDbEntity
  8
BUILDING_ENVELOPE
 62
     7
100
AcDbHatch
 10
0.0
 20
0.0
 30
0.0
210
0.0
220
0.0
230
1.0
  2
SOLID
 70
     1
 71
     1
 91
        1
 92
        3
 72
     0
 73
     1
 93
        4
 10
0.3569035593728856
 20
45.1666666666666643
 10
0.3569035593728856
 20
0.5
 10
0.0235702260395523
 20
0.1666666666666667
 10
0.0235702260395523
 20
45.5
 97
        1
330
9F
 75
     0
 76
     1
 98
        0
  0
LINE
  5
A1
102
{ACAD_REACTORS
330
9D
102
}
100
AcDbEntity
  8
BUILDING_ENVELOPE
  6
CONTINUOUS
 62
     7
100
AcDbLine
 10
0.356904
 20
45.166667
 30
0.0
 11
0.356904
 21
0.5
 31
0.0
  0
LINE
  5
A2
102
{ACAD_REACTORS
330
9D
102
}
100
AcDbEntity
  8
BUILDING_ENVELOPE
  6
CONTINUOUS
 62
     7
100
AcDbLine
 10
0.02357
 20
45.5
 30
0.0
 11
0.02357
 21
0.166667
 31
0.0
  0
LWPOLYLINE
  5
A4
102
{ACAD_REACTORS
330
A5
102
}
100
AcDbEntity
  8
BUILDING_ENVELOPE
  6
CONTINUOUS
 62
     7
100
AcDbPolyline
 90
        4
 70
     1
 10
25.356904
 20
45.5
 10
25.356904
 20
0.166667
 10
25.02357
 20
0.5
 10
25.02357
 20
45.166667
  0
HATCH
  5
A5
102
{ACAD_REACTORS
330
A3
102
}
100
AcDbEntity
  8
BUILDING_ENVELOPE
 62
     7
100
AcDbHatch
 10
0.0
 20
0.0
 30
0.0
210
0.0
220
0.0
230
1.0
  2
SOLID
 70
     1
 71
     1
 91
        1
 92
        3
 72
     0
 73
     1
 93
        4
 10
25.3569035593728813
 20
45.5000000000000355
 10
25.3569035593728813
 20
0.1666666666667045
 10
25.0235702260395456
 20
0.5000000000000379
 10
25.0235702260395456
 20
45.1666666666666998
 97
        1
330
A4
 75
     0
 76
     1
 98
        0
  0
LINE
  5
A6
102
{ACAD_REACTORS
330
A3
102
}
100
AcDbEntity
  8
BUILDING_ENVELOPE
  6
CONTINUOUS
 62
     7
100
AcDbLine
 10
25.356904
 20
45.5
 30
0.0
 11
25.356904
 21
0.166667
 31
0.0
  0
LINE
  5
A7
102
{ACAD_REACTORS
330
A3
102
}
100
AcDbEntity
  8
BUILDING_ENVELOPE
  6
CONTINUOUS
 62
     7
100
AcDbLine
 10
25.02357
 20
45.166667
 30
0.0
 11
25.02357
 21
0.5
 31
0.0
  0
LWPOLYLINE
  5
A9
102
{ACAD_REACTORS
330
AA
102
}
100
AcDbEntity
  8
BUILDING_ENVELOPE
  6
CONTINUOUS
 62
     7
100
AcDbPolyline
 90
        4
 70
     1
 10
0.02357
 20
45.5
 10
25.356904
 20
45.5
 10
25.02357
 20
45.166667
 10
0.356904
 20
45.166667
  0
HATCH
  5
AA
102
{ACAD_REACTORS
330
A8
102
}
100
AcDbEntity
  8
BUILDING_ENVELOPE
 62
     7
100
AcDbHatch
 10
0.0
 20
0.0
 30
0.0
210
0.0
220
0.0
230
1.0
  2
SOLID
 70
     1
 71
     1
 91
        1
 92
        3
 72
     0
 73
     1
 93
        4
 10
0.0235702260395479
 20
45.5
 10
25.3569035593728813
 20
45.5
 10
25.0235702260395456
 20
45.1666666666666643
 10
0.3569035593728836
 20
45.1666666666666643
 97
        1
330
A9
 75
     0
 76
     1
 98
        0
  0
LINE
  5
AB
102
{ACAD_REACTORS
330
A8
102
}
100
AcDbEntity
  8
BUILDING_ENVELOPE
  6
CONTINUOUS
 62
     7
100
AcDbLine
 10
0.02357
 20
45.5
 30
0.0
 11
25.356904
 21
45.5
 31
0.0
  0
LINE
  5
AC
102
{ACAD_REACTORS
330
A8
102
}
100
AcDbEntity
  8
BUILDING_ENVELOPE
  6
CONTINUOUS
 62
     7
100
AcDbLine
 10
0.356904
 20
45.166667
 30
0.0
 11
25.02357
 21
45.166667
 31
0.0
  0
LWPOLYLINE
  5
AE
102
{ACAD_REACTORS
330
AF
102
}
100
AcDbEntity
  8
BUILDING_ENVELOPE
  6
CONTINUOUS
 62
     7
100
AcDbPolyline
 90
        4
 70
     1
 10
0.356904
 20
0.5
 10
25.02357
 20
0.5
 10
25.356904
 20
0.166667
 10
0.02357
 20
0.166667
  0
HATCH
  5
AF
102
{ACAD_REACTORS
330
AD
102
}
100
AcDbEntity
  8
BUILDING_ENVELOPE
 62
     7
100
AcDbHatch
 10
0.0
 20
0.0
 30
0.0
210
0.0
220
0.0
230
1.0
  2
SOLID
 70
     1
 71
     1
 91
        1
 92
        3
 72
     0
 73
     1
 93
        4
 10
0.356903559372879
 20
0.5
 10
25.0235702260395456
 20
0.5
 10
25.3569035593728813
 20
0.1666666666666667
 10
0.0235702260395504
 20
0.1666666666666667
 97
        1
330
AE
 75
     0
 76
     1
 98
        0
  0
LINE
  5
B0
102
{ACAD_REACTORS
330
AD
102
}
100
AcDbEntity
  8
BUILDING_ENVELOPE
  6
CONTINUOUS
 62
     7
100
AcDbLine
 10
0.356904
 20
0.5
 30
0.0
 11
25.02357
 21
0.5
 31
0.0
  0
LINE
  5
B1
102
{ACAD_REACTORS
330
AD
102
}
100
AcDbEntity
  8
BUILDING_ENVELOPE
  6
CONTINUOUS
 62
     7
100
AcDbLine
 10
0.02357
 20
0.166667
 30
0.0
 11
25.356904
 21
0.166667
 31
0.0
  0
LWPOLYLINE
  5
B3
102
{ACAD_REACTORS
330
B4
102
}
100
AcDbEntity
  8
BUILDING_ENVELOPE
  6
CONTINUOUS
 62
     7
100
AcDbPolyline
 90
        4
 70
     1
 10
0.356904
 20
30.018967
 10
25.02357
 20
30.018967
 10
25.02357
 20
29.685634
 10
0.356904
 20
29.685634
  0
HATCH
  5
B4
102
{ACAD_REACTORS
330
B2
102
}
100
AcDbEntity
  8
BUILDING_ENVELOPE
 62
     7
100
AcDbHatch
 10
0.0
 20
0.0
 30
0.0
210
0.0
220
0.0
230
1.0
  2
SOLID
 70
     1
 71
     1
 91
        1
 92
        3
 72
     0
 73
     1
 93
        4
 10
0.3569035593728811
 20
30.0189670152986494
 10
25.0235702260395456
 20
30.0189670152986494
 10
25.0235702260395456
 20
29.6856336819653173
 10
0.3569035593728836
 20
29.6856336819653173
 97
        1
330
B3
 75
     0
 76
     1
 98
        0
  0
LWPOLYLINE
  5
B5
102
{ACAD_REACTORS
330
B6
102
}
100
AcDbEntity
  8
BUILDING_ENVELOPE
  6
CONTINUOUS
 62
     7
100
AcDbPolyline
 90
        4
 70
     1
 10
0.356904
 20
29.685634
 10
0.356904
 20
30.018967
 10
0.32357
 20
30.018967
 10
0.32357
 20
29.685634
  0
HATCH
  5
B6
102
{ACAD_REACTORS
330
B2
102
}
100
AcDbEntity
  8
BUILDING_ENVELOPE
 62
     7
100
AcDbHatch
 10
0.0
 20
0.0
 30
0.0
210
0.0
220
0.0
230
1.0
  2
SOLID
 70
     1
 71
     1
 91
        1
 92
        3
 72
     0
 73
     1
 93
        4
 10
0.3569035593728824
 20
29.6856336819653173
 10
0.3569035593728824
 20
30.0189670152986494
 10
0.3235702260395491
 20
30.0189670152986494
 10
0.3235702260395491
 20
29.6856336819653173
 97
        1
330
B5
 75
     0
 76
     1
 98
        0
  0
LWPOLYLINE
  5
B7
102
{ACAD_REACTORS
330
B8
102
}
100
AcDbEntity
  8
BUILDING_ENVELOPE
  6
CONTINUOUS
 62
     7
100
AcDbPolyline
 90
        4
 70
     1
 10
25.02357
 20
30.018967
 10
25.02357
 20
29.685634
 10
25.056904
 20
29.685634
 10
25.056904
 20
30.018967
  0
HATCH
  5
B8
102
{ACAD_REACTORS
330
B2
102
}
100
AcDbEntity
  8
BUILDING_ENVELOPE
 62
     7
100
AcDbHatch
 10
0.0
 20
0.0
 30
0.0
210
0.0
220
0.0
230
1.0
  2
SOLID
 70
     1
 71
     1
 91
        1
 92
        3
 72
     0
 73
     1
 93
        4
 10
25.0235702260395456
 20
30.0189670152986494
 10
25.0235702260395456
 20
29.6856336819653173
 10
25.0569035593728771
 20
29.6856336819653173
 10
25.0569035593728771
 20
30.0189670152986494
 97
        1
330
B7
 75
     0
 76
     1
 98
        0
  0
LINE
  5
B9
102
{ACAD_REACTORS
330
B2
102
}
100
AcDbEntity
  8
BUILDING_ENVELOPE
  6
CONTINUOUS
 62
     7
100
AcDbLine
 10
0.356904
 20
30.018967
 30
0.0
 11
25.02357
 21
30.018967
 31
0.0
  0
LINE
  5
BA
102
{ACAD_REACTORS
330
B2
102
}
100
AcDbEntity
  8
BUILDING_ENVELOPE
  6
CONTINUOUS
 62
     7
100
AcDbLine
 10
0.356904
 20
29.685634
 30
0.0
 11
25.02357
 21
29.685634
 31
0.0
  0
LWPOLYLINE
  5
BC
102
{ACAD_REACTORS
330
BD
102
}
100
AcDbEntity
  8
BUILDING_ENVELOPE
  6
CONTINUOUS
 62
     7
100
AcDbPolyline
 90
        4
 70
     1
 10
0.356904
 20
14.501389
 10
13.276001
 20
14.501389
 10
12.942667
 20
14.168056
 10
0.356904
 20
14.168056
  0
HATCH
  5
BD
102
{ACAD_REACTORS
330
BB
102
}
100
AcDbEntity
  8
BUILDING_ENVELOPE
 62
     7
100
AcDbHatch
 10
0.0
 20
0.0
 30
0.0
210
0.0
220
0.0
230
1.0
  2
SOLID
 70
     1
 71
     1
 91
        1
 92
        3
 72
     0
 73
     1
 93
        4
 10
0.3569035593728814
 20
14.5013888749190478
 10
13.2760007685711443
 20
14.5013888749190478
 10
12.9426674352378193
 20
14.1680555415857157
 10
0.356903559372886
 20
14.1680555415857157
 97
        1
330
BC
 75
     0
 76
     1
 98
        0
  0
LWPOLYLINE
  5
BE
102
{ACAD_REACTORS
330
BF
102
}
100
AcDbEntity
  8
BUILDING_ENVELOPE
  6
CONTINUOUS
 62
     7
100
AcDbPolyline
 90
        4
 70
     1
 10
0.356904
 20
14.168056
 10
0.356904
 20
14.501389
 10
0.32357
 20
14.501389
 10
0.32357
 20
14.168056
  0
HATCH
  5
BF
102
{ACAD_REACTORS
330
BB
102
}
100
AcDbEntity
  8
BUILDING_ENVELOPE
 62
     7
100
AcDbHatch
 10
0.0
 20
0.0
 30
0.0
210
0.0
220
0.0
230
1.0
  2
SOLID
 70
     1
 71
     1
 91
        1
 92
        3
 72
     0
 73
     1
 93
        4
 10
0.3569035593728836
 20
14.1680555415857157
 10
0.3569035593728836
 20
14.5013888749190478
 10
0.3235702260395504
 20
14.5013888749190478
 10
0.3235702260395504
 20
14.1680555415857157
 97
        1
330
BE
 75
     0
 76
     1
 98
        0
  0
LINE
  5
C0
102
{ACAD_REACTORS
330
BB
102
}
100
AcDbEntity
  8
BUILDING_ENVELOPE
  6
CONTINUOUS
 62
     7
100
AcDbLine
 10
0.356904
 20
14.501389
 30
0.0
 11
13.276001
 21
14.501389
 31
0.0
  0
LINE
  5
C1
102
{ACAD_REACTORS
330
BB
102
}
100
AcDbEntity
  8
BUILDING_ENVELOPE
  6
CONTINUOUS
 62
     7
100
AcDbLine
 10
0.356904
 20
14.168056
 30
0.0
 11
12.942667
 21
14.168056
 31
0.0
  0
LWPOLYLINE
  5
C3
102
{ACAD_REACTORS
330
C4
102
}
100
AcDbEntity
  8
BUILDING_ENVELOPE
  6
CONTINUOUS
 62
     7
100
AcDbPolyline
 90
        4
 70
     1
 10
12.536417
 20
30.018967
 10
12.536417
 20
41.091884
 10
12.869751
 20
41.091884
 10
12.869751
 20
30.018967
  0
HATCH
  5
C4
102
{ACAD_REACTORS
330
C2
102
}
100
AcDbEntity
  8
BUILDING_ENVELOPE
 62
     7
100
AcDbHatch
 10
0.0
 20
0.0
 30
0.0
210
0.0
220
0.0
230
1.0
  2
SOLID
 70
     1
 71
     1
 91
        1
 92
        3
 72
     0
 73
     1
 93
        4
 10
12.5364174481890238
 20
30.0189670152986423
 10
12.5364174481890238
 20
41.0918836822563449
 10
12.8697507815223577
 20
41.091883682256352
 10
12.8697507815223577
 20
30.0189670152986459
 97
        1
330
C3
 75
     0
 76
     1
 98
        0
  0
LWPOLYLINE
  5
C5
102
{ACAD_REACTORS
330
C6
102
}
100
AcDbEntity
  8
BUILDING_ENVELOPE
  6
CONTINUOUS
 62
     7
100
AcDbPolyline
 90
        4
 70
     1
 10
12.869751
 20
30.018967
 10
12.536417
 20
30.018967
 10
12.536417
 20
29.985634
 10
12.869751
 20
29.985634
  0
HATCH
  5
C6
102
{ACAD_REACTORS
330
C2
102
}
100
AcDbEntity
  8
BUILDING_ENVELOPE
 62
     7
100
AcDbHatch
 10
0.0
 20
0.0
 30
0.0
210
0.0
220
0.0
230
1.0
  2
SOLID
 70
     1
 71
     1
 91
        1
 92
        3
 72
     0
 73
     1
 93
        4
 10
12.8697507815223577
 20
30.0189670152986423
 10
12.5364174481890238
 20
30.0189670152986423
 10
12.5364174481890238
 20
29.9856336819653109
 10
12.8697507815223577
 20
29.9856336819653109
 97
        1
330
C5
 75
     0
 76
     1
 98
        0
  0
LWPOLYLINE
  5
C7
102
{ACAD_REACTORS
330
C8
102
}
100
AcDbEntity
  8
BUILDING_ENVELOPE
  6
CONTINUOUS
 62
     7
100
AcDbPolyline
 90
        4
 70
     1
 10
12.536417
 20
41.091884
 10
12.869751
 20
41.091884
 10
12.869751
 20
41.125217
 10
12.536417
 20
41.125217
  0
HATCH
  5
C8
102
{ACAD_REACTORS
330
C2
102
}
100
AcDbEntity
  8
BUILDING_ENVELOPE
 62
     7
100
AcDbHatch
 10
0.0
 20
0.0
 30
0.0
210
0.0
220
0.0
230
1.0
  2
SOLID
 70
     1
 71
     1
 91
        1
 92
        3
 72
     0
 73
     1
 93
        4
 10
12.5364174481890238
 20
41.0918836822563449
 10
12.8697507815223577
 20
41.0918836822563449
 10
12.8697507815223577
 20
41.1252170155896764
 10
12.5364174481890238
 20
41.1252170155896764
 97
        1
330
C7
 75
     0
 76
     1
 98
        0
  0
LINE
  5
C9
102
{ACAD_REACTORS
330
C2
102
}
100
AcDbEntity
  8
BUILDING_ENVELOPE
  6
CONTINUOUS
 62
     7
100
AcDbLine
 10
12.536417
 20
30.018967
 30
0.0
 11
12.536417
 21
41.091884
 31
0.0
  0
LINE
  5
CA
102
{ACAD_REACTORS
330
C2
102
}
100
AcDbEntity
  8
BUILDING_ENVELOPE
  6
CONTINUOUS
 62
     7
100
AcDbLine
 10
12.869751
 20
30.018967
 30
0.0
 11
12.869751
 21
41.091884
 31
0.0
  0
LWPOLYLINE
  5
CC
102
{ACAD_REACTORS
330
CD
102
}
100
AcDbEntity
  8
BUILDING_ENVELOPE
  6
CONTINUOUS
 62
     7
100
AcDbPolyline
 90
        4
 70
     1
 10
18.458292
 20
41.425217
 10
18.458292
 20
45.166667
 10
18.791626
 20
45.166667
 10
18.791626
 20
41.425217
  0
HATCH
  5
CD
102
{ACAD_REACTORS
330
CB
102
}
100
AcDbEntity
  8
BUILDING_ENVELOPE
 62
     7
100
AcDbHatch
 10
0.0
 20
0.0
 30
0.0
210
0.0
220
0.0
230
1.0
  2
SOLID
 70
     1
 71
     1
 91
        1
 92
        3
 72
     0
 73
     1
 93
        4
 10
18.4582924482617727
 20
41.425217015589709
 10
18.4582924482617727
 20
45.1666666666666714
 10
18.7916257815951084
 20
45.1666666666666856
 10
18.7916257815951084
 20
41.4252170155897161
 97
        1
330
CC
 75
     0
 76
     1
 98
        0
  0
LWPOLYLINE
  5
CE
102
{ACAD_REACTORS
330
CF
102
}
100
AcDbEntity
  8
BUILDING_ENVELOPE
  6
CONTINUOUS
 62
     7
100
AcDbPolyline
 90
        4
 70
     1
 10
18.791626
 20
41.425217
 10
18.458292
 20
41.425217
 10
18.458292
 20
41.391884
 10
18.791626
 20
41.391884
  0
HATCH
  5
CF
102
{ACAD_REACTORS
330
CB
102
}
100
AcDbEntity
  8
BUILDING_ENVELOPE
 62
     7
100
AcDbHatch
 10
0.0
 20
0.0
 30
0.0
210
0.0
220
0.0
230
1.0
  2
SOLID
 70
     1
 71
     1
 91
        1
 92
        3
 72
     0
 73
     1
 93
        4
 10
18.7916257815951084
 20
41.425217015589709
 10
18.4582924482617727
 20
41.425217015589709
 10
18.4582924482617727
 20
41.3918836822563776
 10
18.7916257815951084
 20
41.3918836822563776
 97
        1
330
CE
 75
     0
 76
     1
 98
        0
  0
LWPOLYLINE
  5
D0
102
{ACAD_REACTORS
330
D1
102
}
100
AcDbEntity
  8
BUILDING_ENVELOPE
  6
CONTINUOUS
 62
     7
100
AcDbPolyline
 90
        4
 70
     1
 10
18.458292
 20
45.166667
 10
18.791626
 20
45.166667
 10
18.791626
 20
45.2
 10
18.458292
 20
45.2
  0
HATCH
  5
D1
102
{ACAD_REACTORS
330
CB
102
}
100
AcDbEntity
  8
BUILDING_ENVELOPE
 62
     7
100
AcDbHatch
 10
0.0
 20
0.0
 30
0.0
210
0.0
220
0.0
230
1.0
  2
SOLID
 70
     1
 71
     1
 91
        1
 92
        3
 72
     0
 73
     1
 93
        4
 10
18.4582924482617727
 20
45.1666666666666856
 10
18.7916257815951084
 20
45.1666666666666856
 10
18.7916257815951084
 20
45.2000000000000171
 10
18.4582924482617727
 20
45.2000000000000171
 97
        1
330
D0
 75
     0
 76
     1
 98
        0
  0
LINE
  5
D2
102
{ACAD_REACTORS
330
CB
102
}
100
AcDbEntity
  8
BUILDING_ENVELOPE
  6
CONTINUOUS
 62
     7
100
AcDbLine
 10
18.458292
 20
41.425217
 30
0.0
 11
18.458292
 21
45.166667
 31
0.0
  0
LINE
  5
D3
102
{ACAD_REACTORS
330
CB
102
}
100
AcDbEntity
  8
BUILDING_ENVELOPE
  6
CONTINUOUS
 62
     7
100
AcDbLine
 10
18.791626
 20
41.425217
 30
0.0
 11
18.791626
 21
45.166667
 31
0.0
  0
LWPOLYLINE
  5
D5
102
{ACAD_REACTORS
330
D6
102
}
100
AcDbEntity
  8
BUILDING_ENVELOPE
  6
CONTINUOUS
 62
     7
100
AcDbPolyline
 90
        4
 70
     1
 10
6.880167
 20
41.425217
 10
6.880167
 20
45.166667
 10
7.213501
 20
45.166667
 10
7.213501
 20
41.425217
  0
HATCH
  5
D6
102
{ACAD_REACTORS
330
D4
102
}
100
AcDbEntity
  8
BUILDING_ENVELOPE
 62
     7
100
AcDbHatch
 10
0.0
 20
0.0
 30
0.0
210
0.0
220
0.0
230
1.0
  2
SOLID
 70
     1
 71
     1
 91
        1
 92
        3
 72
     0
 73
     1
 93
        4
 10
6.8801674483345341
 20
41.425217015589638
 10
6.8801674483345341
 20
45.1666666666666359
 10
7.213500781667868
 20
45.166666666666643
 10
7.213500781667868
 20
41.4252170155896451
 97
        1
330
D5
 75
     0
 76
     1
 98
        0
  0
LWPOLYLINE
  5
D7
102
{ACAD_REACTORS
330
D8
102
}
100
AcDbEntity
  8
BUILDING_ENVELOPE
  6
CONTINUOUS
 62
     7
100
AcDbPolyline
 90
        4
 70
     1
 10
7.213501
 20
41.425217
 10
6.880167
 20
41.425217
 10
6.880167
 20
41.391884
 10
7.213501
 20
41.391884
  0
HATCH
  5
D8
102
{ACAD_REACTORS
330
D4
102
}
100
AcDbEntity
  8
BUILDING_ENVELOPE
 62
     7
100
AcDbHatch
 10
0.0
 20
0.0
 30
0.0
210
0.0
220
0.0
230
1.0
  2
SOLID
 70
     1
 71
     1
 91
        1
 92
        3
 72
     0
 73
     1
 93
        4
 10
7.213500781667868
 20
41.425217015589638
 10
6.8801674483345341
 20
41.425217015589638
 10
6.8801674483345341
 20
41.3918836822563065
 10
7.213500781667868
 20
41.3918836822563065
 97
        1
330
D7
 75
     0
 76
     1
 98
        0
  0
LWPOLYLINE
  5
D9
102
{ACAD_REACTORS
330
DA
102
}
100
AcDbEntity
  8
BUILDING_ENVELOPE
  6
CONTINUOUS
 62
     7
100
AcDbPolyline
 90
        4
 70
     1
 10
6.880167
 20
45.166667
 10
7.213501
 20
45.166667
 10
7.213501
 20
45.2
 10
6.880167
 20
45.2
  0
HATCH
  5
DA
102
{ACAD_REACTORS
330
D4
102
}
100
AcDbEntity
  8
BUILDING_ENVELOPE
 62
     7
100
AcDbHatch
 10
0.0
 20
0.0
 30
0.0
210
0.0
220
0.0
230
1.0
  2
SOLID
 70
     1
 71
     1
 91
        1
 92
        3
 72
     0
 73
     1
 93
        4
 10
6.8801674483345341
 20
45.166666666666643
 10
7.213500781667868
 20
45.166666666666643
 10
7.213500781667868
 20
45.1999999999999744
 10
6.8801674483345341
 20
45.1999999999999744
 97
        1
330
D9
 75
     0
 76
     1
 98
        0
  0
LINE
  5
DB
102
{ACAD_REACTORS
330
D4
102
}
100
AcDbEntity
  8
BUILDING_ENVELOPE
  6
CONTINUOUS
 62
     7
100
AcDbLine
 10
6.880167
 20
41.425217
 30
0.0
 11
6.880167
 21
45.166667
 31
0.0
  0
LINE
  5
DC
102
{ACAD_REACTORS
330
D4
102
}
100
AcDbEntity
  8
BUILDING_ENVELOPE
  6
CONTINUOUS
 62
     7
100
AcDbLine
 10
7.213501
 20
41.425217
 30
0.0
 11
7.213501
 21
45.166667
 31
0.0
  0
LWPOLYLINE
  5
DE
102
{ACAD_REACTORS
330
DF
102
}
100
AcDbEntity
  8
BUILDING_ENVELOPE
  6
CONTINUOUS
 62
     7
100
AcDbPolyline
 90
        4
 70
     1
 10
0.356904
 20
41.425217
 10
25.02357
 20
41.425217
 10
25.02357
 20
41.091884
 10
0.356904
 20
41.091884
  0
HATCH
  5
DF
102
{ACAD_REACTORS
330
DD
102
}
100
AcDbEntity
  8
BUILDING_ENVELOPE
 62
     7
100
AcDbHatch
 10
0.0
 20
0.0
 30
0.0
210
0.0
220
0.0
230
1.0
  2
SOLID
 70
     1
 71
     1
 91
        1
 92
        3
 72
     0
 73
     1
 93
        4
 10
0.3569035593728811
 20
41.4252170155896806
 10
25.0235702260395456
 20
41.4252170155896806
 10
25.0235702260395456
 20
41.091883682256352
 10
0.3569035593728836
 20
41.091883682256352
 97
        1
330
DE
 75
     0
 76
     1
 98
        0
  0
LWPOLYLINE
  5
E0
102
{ACAD_REACTORS
330
E1
102
}
100
AcDbEntity
  8
BUILDING_ENVELOPE
  6
CONTINUOUS
 62
     7
100
AcDbPolyline
 90
        4
 70
     1
 10
0.356904
 20
41.091884
 10
0.356904
 20
41.425217
 10
0.32357
 20
41.425217
 10
0.32357
 20
41.091884
  0
HATCH
  5
E1
102
{ACAD_REACTORS
330
DD
102
}
100
AcDbEntity
  8
BUILDING_ENVELOPE
 62
     7
100
AcDbHatch
 10
0.0
 20
0.0
 30
0.0
210
0.0
220
0.0
230
1.0
  2
SOLID
 70
     1
 71
     1
 91
        1
 92
        3
 72
     0
 73
     1
 93
        4
 10
0.3569035593728824
 20
41.091883682256352
 10
0.3569035593728824
 20
41.4252170155896806
 10
0.3235702260395491
 20
41.4252170155896806
 10
0.3235702260395491
 20
41.091883682256352
 97
        1
330
E0
 75
     0
 76
     1
 98
        0
  0
LWPOLYLINE
  5
E2
102
{ACAD_REACTORS
330
E3
102
}
100
AcDbEntity
  8
BUILDING_ENVELOPE
  6
CONTINUOUS
 62
     7
100
AcDbPolyline
 90
        4
 70
     1
 10
25.02357
 20
41.425217
 10
25.02357
 20
41.091884
 10
25.056904
 20
41.091884
 10
25.056904
 20
41.425217
  0
HATCH
  5
E3
102
{ACAD_REACTORS
330
DD
102
}
100
AcDbEntity
  8
BUILDING_ENVELOPE
 62
     7
100
AcDbHatch
 10
0.0
 20
0.0
 30
0.0
210
0.0
220
0.0
230
1.0
  2
SOLID
 70
     1
 71
     1
 91
        1
 92
        3
 72
     0
 73
     1
 93
        4
 10
25.0235702260395456
 20
41.4252170155896806
 10
25.0235702260395456
 20
41.091883682256352
 10
25.0569035593728771
 20
41.091883682256352
 10
25.0569035593728771
 20
41.4252170155896806
 97
        1
330
E2
 75
     0
 76
     1
 98
        0
  0
LINE
  5
E4
102
{ACAD_REACTORS
330
DD
102
}
100
AcDbEntity
  8
BUILDING_ENVELOPE
  6
CONTINUOUS
 62
     7
100
AcDbLine
 10
0.356904
 20
41.425217
 30
0.0
 11
25.02357
 21
41.425217
 31
0.0
  0
LINE
  5
E5
102
{ACAD_REACTORS
330
DD
102
}
100
AcDbEntity
  8
BUILDING_ENVELOPE
  6
CONTINUOUS
 62
     7
100
AcDbLine
 10
0.356904
 20
41.091884
 30
0.0
 11
25.02357
 21
41.091884
 31
0.0
  0
LWPOLYLINE
  5
E7
102
{ACAD_REACTORS
330
E8
102
}
100
AcDbEntity
  8
BUILDING_ENVELOPE
  6
CONTINUOUS
 62
     7
100
AcDbPolyline
 90
        4
 70
     1
 10
12.942667
 20
0.5
 10
12.942667
 20
14.168056
 10
13.276001
 20
14.501389
 10
13.276001
 20
0.5
  0
HATCH
  5
E8
102
{ACAD_REACTORS
330
E6
102
}
100
AcDbEntity
  8
BUILDING_ENVELOPE
 62
     7
100
AcDbHatch
 10
0.0
 20
0.0
 30
0.0
210
0.0
220
0.0
230
1.0
  2
SOLID
 70
     1
 71
     1
 91
        1
 92
        3
 72
     0
 73
     1
 93
        4
 10
12.9426674352378246
 20
0.4999999999999981
 10
12.9426674352378246
 20
14.1680555415857103
 10
13.2760007685711585
 20
14.5013888749190514
 10
13.2760007685711585
 20
0.5000000000000023
 97
        1
330
E7
 75
     0
 76
     1
 98
        0
  0
LWPOLYLINE
  5
E9
102
{ACAD_REACTORS
330
EA
102
}
100
AcDbEntity
  8
BUILDING_ENVELOPE
  6
CONTINUOUS
 62
     7
100
AcDbPolyline
 90
        4
 70
     1
 10
13.276001
 20
0.5
 10
12.942667
 20
0.5
 10
12.942667
 20
0.466667
 10
13.276001
 20
0.466667
  0
HATCH
  5
EA
102
{ACAD_REACTORS
330
E6
102
}
100
AcDbEntity
  8
BUILDING_ENVELOPE
 62
     7
100
AcDbHatch
 10
0.0
 20
0.0
 30
0.0
210
0.0
220
0.0
230
1.0
  2
SOLID
 70
     1
 71
     1
 91
        1
 92
        3
 72
     0
 73
     1
 93
        4
 10
13.2760007685711585
 20
0.5000000000000001
 10
12.9426674352378246
 20
0.5000000000000001
 10
12.9426674352378246
 20
0.4666666666666668
 10
13.2760007685711585
 20
0.4666666666666668
 97
        1
330
E9
 75
     0
 76
     1
 98
        0
  0
LINE
  5
EB
102
{ACAD_REACTORS
330
E6
102
}
100
AcDbEntity
  8
BUILDING_ENVELOPE
  6
CONTINUOUS
 62
     7
100
AcDbLine
 10
12.942667
 20
0.5
 30
0.0
 11
12.942667
 21
14.168056
 31
0.0
  0
LINE
  5
EC
102
{ACAD_REACTORS
330
E6
102
}
100
AcDbEntity
  8
BUILDING_ENVELOPE
  6
CONTINUOUS
 62
     7
100
AcDbLine
 10
13.276001
 20
0.5
 30
0.0
 11
13.276001
 21
14.501389
 31
0.0
  0
LWPOLYLINE
  5
EE
102
{ACAD_REACTORS
330
EF
102
}
100
AcDbEntity
  8
BUILDING_ENVELOPE
  6
CONTINUOUS
 62
     7
100
AcDbPolyline
 90
        4
 70
     1
 10
17.026001
 20
20.966273
 10
18.449466
 20
19.107638
 10
18.284401
 20
18.774947
 10
16.692667
 20
20.853293
  0
HATCH
  5
EF
102
{ACAD_REACTORS
330
ED
102
}
100
AcDbEntity
  8
BUILDING_ENVELOPE
 62
     7
100
AcDbHatch
 10
0.0
 20
0.0
 30
0.0
210
0.0
220
0.0
230
1.0
  2
SOLID
 70
     1
 71
     1
 91
        1
 92
        3
 72
     0
 73
     1
 93
        4
 10
17.0260007650787877
 20
20.9662732373255416
 10
18.4494657525054073
 20
19.1076379174135909
 10
18.2844013223933466
 20
18.7749468235162205
 10
16.6926674317454555
 20
20.8532928700933162
 97
        1
330
EE
 75
     0
 76
     1
 98
        0
  0
LINE
  5
F0
102
{ACAD_REACTORS
330
ED
102
}
100
AcDbEntity
  8
BUILDING_ENVELOPE
  6
CONTINUOUS
 62
     7
100
AcDbLine
 10
17.026001
 20
20.966273
 30
0.0
 11
18.449466
 21
19.107638
 31
0.0
  0
LINE
  5
F1
102
{ACAD_REACTORS
330
ED
102
}
100
AcDbEntity
  8
BUILDING_ENVELOPE
  6
CONTINUOUS
 62
     7
100
AcDbLine
 10
16.692667
 20
20.853293
 30
0.0
 11
18.284401
 21
18.774947
 31
0.0
  0
LWPOLYLINE
  5
F3
102
{ACAD_REACTORS
330
F4
102
}
100
AcDbEntity
  8
BUILDING_ENVELOPE
  6
CONTINUOUS
 62
     7
100
AcDbPolyline
 90
        4
 70
     1
 10
18.449466
 20
19.107638
 10
25.02357
 20
19.081958
 10
25.02357
 20
18.748622
 10
18.284401
 20
18.774947
  0
HATCH
  5
F4
102
{ACAD_REACTORS
330
F2
102
}
100
AcDbEntity
  8
BUILDING_ENVELOPE
 62
     7
100
AcDbHatch
 10
0.0
 20
0.0
 30
0.0
210
0.0
220
0.0
230
1.0
  2
SOLID
 70
     1
 71
     1
 91
        1
 92
        3
 72
     0
 73
     1
 93
        4
 10
18.4494657525053896
 20
19.107637917413534
 10
25.0235702260395421
 20
19.0819578367616813
 10
25.0235702260395456
 20
18.7486219603094995
 10
18.2844013223933288
 20
18.7749468235161636
 97
        1
330
F3
 75
     0
 76
     1
 98
        0
  0
LWPOLYLINE
  5
F5
102
{ACAD_REACTORS
330
F6
102
}
100
AcDbEntity
  8
BUILDING_ENVELOPE
  6
CONTINUOUS
 62
     7
100
AcDbPolyline
 90
        4
 70
     1
 10
25.02357
 20
19.081958
 10
25.02357
 20
18.748622
 10
25.056904
 20
18.748622
 10
25.056904
 20
19.081958
  0
HATCH
  5
F6
102
{ACAD_REACTORS
330
F2
102
}
100
AcDbEntity
  8
BUILDING_ENVELOPE
 62
     7
100
AcDbHatch
 10
0.0
 20
0.0
 30
0.0
210
0.0
220
0.0
230
1.0
  2
SOLID
 70
     1
 71
     1
 91
        1
 92
        3
 72
     0
 73
     1
 93
        4
 10
25.0235702260395385
 20
19.0819578367616813
 10
25.0235702260395527
 20
18.7486219603094995
 10
25.0569035593728877
 20
18.748621960309503
 10
25.0569035593728735
 20
19.0819578367616849
 97
        1
330
F5
 75
     0
 76
     1
 98
        0
  0
LINE
  5
F7
102
{ACAD_REACTORS
330
F2
102
}
100
AcDbEntity
  8
BUILDING_ENVELOPE
  6
CONTINUOUS
 62
     7
100
AcDbLine
 10
18.449466
 20
19.107638
 30
0.0
 11
25.02357
 21
19.081958
 31
0.0
  0
LINE
  5
F8
102
{ACAD_REACTORS
330
F2
102
}
100
AcDbEntity
  8
BUILDING_ENVELOPE
  6
CONTINUOUS
 62
     7
100
AcDbLine
 10
18.284401
 20
18.774947
 30
0.0
 11
25.02357
 21
18.748622
 31
0.0
  0
LWPOLYLINE
  5
FA
102
{ACAD_REACTORS
330
FB
102
}
100
AcDbEntity
  8
BUILDING_ENVELOPE
  6
CONTINUOUS
 62
     7
100
AcDbPolyline
 90
        4
 70
     1
 10
16.692667
 20
20.853293
 10
16.692667
 20
29.685634
 10
17.026001
 20
29.685634
 10
17.026001
 20
20.966273
  0
HATCH
  5
FB
102
{ACAD_REACTORS
330
F9
102
}
100
AcDbEntity
  8
BUILDING_ENVELOPE
 62
     7
100
AcDbHatch
 10
0.0
 20
0.0
 30
0.0
210
0.0
220
0.0
230
1.0
  2
SOLID
 70
     1
 71
     1
 91
        1
 92
        3
 72
     0
 73
     1
 93
        4
 10
16.6926674317454982
 20
20.8532928700932985
 10
16.6926674317454982
 20
29.6856336819653279
 10
17.0260007650788339
 20
29.685633681965335
 10
17.0260007650788339
 20
20.9662732373255167
 97
        1
330
FA
 75
     0
 76
     1
 98
        0
  0
LWPOLYLINE
  5
FC
102
{ACAD_REACTORS
330
FD
102
}
100
AcDbEntity
  8
BUILDING_ENVELOPE
  6
CONTINUOUS
 62
     7
100
AcDbPolyline
 90
        4
 70
     1
 10
16.692667
 20
29.685634
 10
17.026001
 20
29.685634
 10
17.026001
 20
29.718967
 10
16.692667
 20
29.718967
  0
HATCH
  5
FD
102
{ACAD_REACTORS
330
F9
102
}
100
AcDbEntity
  8
BUILDING_ENVELOPE
 62
     7
100
AcDbHatch
 10
0.0
 20
0.0
 30
0.0
210
0.0
220
0.0
230
1.0
  2
SOLID
 70
     1
 71
     1
 91
        1
 92
        3
 72
     0
 73
     1
 93
        4
 10
16.6926674317454982
 20
29.685633681965335
 10
17.0260007650788339
 20
29.685633681965335
 10
17.0260007650788339
 20
29.7189670152986736
 10
16.6926674317454982
 20
29.7189670152986736
 97
        1
330
FC
 75
     0
 76
     1
 98
        0
  0
LINE
  5
FE
102
{ACAD_REACTORS
330
F9
102
}
100
AcDbEntity
  8
BUILDING_ENVELOPE
  6
CONTINUOUS
 62
     7
100
AcDbLine
 10
16.692667
 20
20.853293
 30
0.0
 11
16.692667
 21
29.685634
 31
0.0
  0
LINE
  5
FF
102
{ACAD_REACTORS
330
F9
102
}
100
AcDbEntity
  8
BUILDING_ENVELOPE
  6
CONTINUOUS
 62
     7
100
AcDbLine
 10
17.026001
 20
20.966273
 30
0.0
 11
17.026001
 21
29.685634
 31
0.0
  0
LWPOLYLINE
  5
101
102
{ACAD_REACTORS
330
102
102
}
100
AcDbEntity
  8
BUILDING_ENVELOPE
  6
CONTINUOUS
 62
     7
100
AcDbPolyline
 90
        4
 70
     1
 10
13.14601
 20
14.501389
 10
18.080899
 20
19.040662
 10
18.284401
 20
18.774947
 10
13.638385
 20
14.501389
  0
HATCH
  5
102
102
{ACAD_REACTORS
330
100
102
}
100
AcDbEntity
  8
BUILDING_ENVELOPE
 62
     7
100
AcDbHatch
 10
0.0
 20
0.0
 30
0.0
210
0.0
220
0.0
230
1.0
  2
SOLID
 70
     1
 71
     1
 91
        1
 92
        3
 72
     0
 73
     1
 93
        4
 10
13.1460098137007186
 20
14.5013888749190478
 10
18.0808991173955889
 20
19.0406620952156977
 10
18.2844013223933324
 20
18.7749468235162134
 10
13.638385454709109
 20
14.5013888749190549
 97
        1
330
101
 75
     0
 76
     1
 98
        0
  0
LWPOLYLINE
  5
103
102
{ACAD_REACTORS
330
104
102
}
100
AcDbEntity
  8
BUILDING_ENVELOPE
  6
CONTINUOUS
 62
     7
100
AcDbPolyline
 90
        4
 70
     1
 10
13.638385
 20
14.501389
 10
13.14601
 20
14.501389
 10
13.14601
 20
14.468056
 10
13.638385
 20
14.468056
  0
HATCH
  5
104
102
{ACAD_REACTORS
330
100
102
}
100
AcDbEntity
  8
BUILDING_ENVELOPE
 62
     7
100
AcDbHatch
 10
0.0
 20
0.0
 30
0.0
210
0.0
220
0.0
230
1.0
  2
SOLID
 70
     1
 71
     1
 91
        1
 92
        3
 72
     0
 73
     1
 93
        4
 10
13.638385454709109
 20
14.5013888749190549
 10
13.1460098137007186
 20
14.5013888749190478
 10
13.1460098137007186
 20
14.4680555415857146
 10
13.638385454709109
 20
14.4680555415857217
 97
        1
330
103
 75
     0
 76
     1
 98
        0
  0
LWPOLYLINE
  5
105
102
{ACAD_REACTORS
330
106
102
}
100
AcDbEntity
  8
BUILDING_ENVELOPE
  6
CONTINUOUS
 62
     7
100
AcDbPolyline
 90
        4
 70
     1
 10
18.080899
 20
19.040662
 10
18.284401
 20
18.774947
 10
18.310865
 20
18.795215
 10
18.107363
 20
19.06093
  0
HATCH
  5
106
102
{ACAD_REACTORS
330
100
102
}
100
AcDbEntity
  8
BUILDING_ENVELOPE
 62
     7
100
AcDbHatch
 10
0.0
 20
0.0
 30
0.0
210
0.0
220
0.0
230
1.0
  2
SOLID
 70
     1
 71
     1
 91
        1
 92
        3
 72
     0
 73
     1
 93
        4
 10
18.0808991173955889
 20
19.0406620952156977
 10
18.2844013223933359
 20
18.7749468235162169
 10
18.3108650996536824
 20
18.795214522059112
 10
18.1073628946559353
 20
19.0609297937585964
 97
        1
330
105
 75
     0
 76
     1
 98
        0
  0
LINE
  5
107
102
{ACAD_REACTORS
330
100
102
}
100
AcDbEntity
  8
BUILDING_ENVELOPE
  6
CONTINUOUS
 62
     7
100
AcDbLine
 10
13.14601
 20
14.501389
 30
0.0
 11
18.080899
 21
19.040662
 31
0.0
  0
LINE
  5
108
102
{ACAD_REACTORS
330
100
102
}
100
AcDbEntity
  8
BUILDING_ENVELOPE
  6
CONTINUOUS
 62
     7
100
AcDbLine
 10
13.638385
 20
14.501389
 30
0.0
 11
18.284401
 21
18.774947
 31
0.0
  0
LWPOLYLINE
  5
10B
102
{ACAD_REACTORS
330
10C
102
}
100
AcDbEntity
  8
LANDING
  6
CONTINUOUS
 62
     7
100
AcDbPolyline
 90
        4
 70
     1
 10
24.920725
 20
18.724957
 10
21.023726
 20
18.724957
 10
21.023726
 20
14.907064
 10
24.920725
 20
14.907064
  0
HATCH
  5
10C
102
{ACAD_REACTORS
330
109
102
}
100
AcDbEntity
  8
LANDING
 62
   134
100
AcDbHatch
 10
0.0
 20
0.0
 30
0.0
210
0.0
220
0.0
230
1.0
  2
SOLID
 70
     1
 71
     1
 91
        1
 92
        3
 72
     0
 73
     1
 93
        4
 10
24.9207253451747732
 20
18.7249573227855848
 10
21.0237258484881195
 20
18.7249573227855848
 10
21.0237258484881195
 20
14.9070643049149343
 10
24.9207253451747732
 20
14.9070643049149343
 97
        1
330
10B
 75
     0
 76
     1
 98
        0
  0
LINE
  5
10D
102
{ACAD_REACTORS
330
109
102
}
100
AcDbEntity
  8
LANDING
  6
CONTINUOUS
 62
     9
100
AcDbLine
 10
24.920725
 20
18.724957
 30
0.0
 11
22.981423
 21
14.907064
 31
0.0
  0
LINE
  5
10E
102
{ACAD_REACTORS
330
109
102
}
100
AcDbEntity
  8
LANDING
  6
CONTINUOUS
 62
     9
100
AcDbLine
 10
24.920725
 20
18.724957
 30
0.0
 11
21.023726
 21
16.823494
 31
0.0
  0
LWPOLYLINE
  5
10F
102
{ACAD_REACTORS
330
110
102
}
100
AcDbEntity
  8
BUILDING_ENVELOPE
  6
CONTINUOUS
 62
     9
100
AcDbPolyline
 90
        4
 70
     1
 10
24.937703
 20
15.082069
 10
24.937703
 20
14.198255
 10
21.032078
 20
14.198255
 10
21.032078
 20
15.082069
  0
HATCH
  5
110
102
{ACAD_REACTORS
330
109
102
}
100
AcDbEntity
  8
BUILDING_ENVELOPE
 62
   134
100
AcDbHatch
 10
0.0
 20
0.0
 30
0.0
210
0.0
220
0.0
230
1.0
  2
SOLID
 70
     1
 71
     1
 91
       33
 92
        3
 72
     0
 73
     1
 93
        4
 10
24.93770293693564
 20
15.082068914036066
 10
24.93770293693564
 20
14.198254811471962
 10
21.0320780813629469
 20
14.198254811471962
 10
21.0320780813629469
 20
15.082068914036066
 97
        1
330
10F
 92
        3
 72
     0
 73
     1
 93
        4
 10
24.93770293693564
 20
14.198254811471962
 10
24.93770293693564
 20
13.3144407089078545
 10
21.0320780813629469
 20
13.3144407089078545
 10
21.0320780813629469
 20
14.198254811471962
 97
        1
330
111
 92
        3
 72
     0
 73
     1
 93
        4
 10
24.93770293693564
 20
13.3144407089078545
 10
24.93770293693564
 20
12.4306266063437505
 10
21.0320780813629469
 20
12.4306266063437505
 10
21.0320780813629469
 20
13.3144407089078545
 97
        1
330
112
 92
        3
 72
     0
 73
     1
 93
        4
 10
24.93770293693564
 20
12.4306266063437505
 10
24.93770293693564
 20
11.546812503779643
 10
21.0320780813629469
 20
11.546812503779643
 10
21.0320780813629469
 20
12.4306266063437505
 97
        1
330
113
 92
        3
 72
     0
 73
     1
 93
        4
 10
24.93770293693564
 20
11.546812503779643
 10
24.93770293693564
 20
10.662998401215539
 10
21.0320780813629469
 20
10.662998401215539
 10
21.0320780813629469
 20
11.546812503779643
 97
        1
330
114
 92
        3
 72
     0
 73
     1
 93
        4
 10
24.93770293693564
 20
10.662998401215539
 10
24.93770293693564
 20
9.7791842986514332
 10
21.0320780813629469
 20
9.7791842986514332
 10
21.0320780813629469
 20
10.662998401215539
 97
        1
330
115
 92
        3
 72
     0
 73
     1
 93
        4
 10
24.93770293693564
 20
9.7791842986514332
 10
24.93770293693564
 20
8.8953701960873293
 10
21.0320780813629469
 20
8.8953701960873293
 10
21.0320780813629469
 20
9.7791842986514332
 97
        1
330
116
 92
        3
 72
     0
 73
     1
 93
        4
 10
24.93770293693564
 20
8.8953701960873293
 10
24.93770293693564
 20
8.0115560935232235
 10
21.0320780813629469
 20
8.0115560935232235
 10
21.0320780813629469
 20
8.8953701960873293
 97
        1
330
117
 92
        3
 72
     0
 73
     1
 93
        4
 10
24.93770293693564
 20
8.0115560935232235
 10
24.93770293693564
 20
7.1277419909591178
 10
21.0320780813629469
 20
7.1277419909591178
 10
21.0320780813629469
 20
8.0115560935232235
 97
        1
330
118
 92
        3
 72
     0
 73
     1
 93
        4
 10
24.93770293693564
 20
7.1277419909591178
 10
24.93770293693564
 20
6.2439278883950156
 10
21.0320780813629469
 20
6.2439278883950156
 10
21.0320780813629469
 20
7.1277419909591178
 97
        1
330
119
 92
        3
 72
     0
 73
     1
 93
        4
 10
24.93770293693564
 20
6.2439278883950156
 10
24.93770293693564
 20
5.360113785830908
 10
21.0320780813629469
 20
5.360113785830908
 10
21.0320780813629469
 20
6.2439278883950156
 97
        1
330
11A
 92
        3
 72
     0
 73
     1
 93
        4
 10
24.93770293693564
 20
5.360113785830908
 10
24.93770293693564
 20
4.4762996832667996
 10
21.0320780813629469
 20
4.4762996832667996
 10
21.0320780813629469
 20
5.360113785830908
 97
        1
330
11B
 92
        3
 72
     0
 73
     1
 93
        4
 10
24.93770293693564
 20
4.4762996832667996
 10
24.93770293693564
 20
3.5924855807027329
 10
21.0320780813629469
 20
3.5924855807027329
 10
21.0320780813629469
 20
4.4762996832667996
 97
        1
330
11C
 92
        0
 93
        0
 97
        0
 92
        0
 93
        0
 97
        0
 92
        0
 93
        0
 97
        0
 92
        0
 93
        0
 97
        0
 92
        0
 93
        0
 97
        0
 92
        0
 93
        0
 97
        0
 92
        0
 93
        0
 97
        0
 92
        0
 93
        0
 97
        0
 92
        0
 93
        0
 97
        0
 92
        0
 93
        0
 97
        0
 92
        0
 93
        0
 97
        0
 92
        0
 93
        0
 97
        0
 92
        0
 93
        0
 97
        0
 92
        0
 93
        0
 97
        0
 92
        0
 93
        0
 97
        0
 92
        0
 93
        0
 97
        0
 92
        0
 93
        0
 97
        0
 92
        0
 93
        0
 97
        0
 92
        0
 93
        0
 97
        0
 92
        0
 93
        0
 97
        0
 75
     0
 76
     1
 98
        0
  0
LWPOLYLINE
  5
111
102
{ACAD_REACTORS
330
110
102
}
100
AcDbEntity
  8
BUILDING_ENVELOPE
  6
CONTINUOUS
 62
     9
100
AcDbPolyline
 90
        4
 70
     1
 10
24.937703
 20
14.198255
 10
24.937703
 20
13.314441
 10
21.032078
 20
13.314441
 10
21.032078
 20
14.198255
  0
LWPOLYLINE
  5
112
102
{ACAD_REACTORS
330
110
102
}
100
AcDbEntity
  8
BUILDING_ENVELOPE
  6
CONTINUOUS
 62
     9
100
AcDbPolyline
 90
        4
 70
     1
 10
24.937703
 20
13.314441
 10
24.937703
 20
12.430627
 10
21.032078
 20
12.430627
 10
21.032078
 20
13.314441
  0
LWPOLYLINE
  5
113
102
{ACAD_REACTORS
330
110
102
}
100
AcDbEntity
  8
BUILDING_ENVELOPE
  6
CONTINUOUS
 62
     9
100
AcDbPolyline
 90
        4
 70
     1
 10
24.937703
 20
12.430627
 10
24.937703
 20
11.546813
 10
21.032078
 20
11.546813
 10
21.032078
 20
12.430627
  0
LWPOLYLINE
  5
114
102
{ACAD_REACTORS
330
110
102
}
100
AcDbEntity
  8
BUILDING_ENVELOPE
  6
CONTINUOUS
 62
     9
100
AcDbPolyline
 90
        4
 70
     1
 10
24.937703
 20
11.546813
 10
24.937703
 20
10.662998
 10
21.032078
 20
10.662998
 10
21.032078
 20
11.546813
  0
LWPOLYLINE
  5
115
102
{ACAD_REACTORS
330
110
102
}
100
AcDbEntity
  8
BUILDING_ENVELOPE
  6
CONTINUOUS
 62
     9
100
AcDbPolyline
 90
        4
 70
     1
 10
24.937703
 20
10.662998
 10
24.937703
 20
9.779184
 10
21.032078
 20
9.779184
 10
21.032078
 20
10.662998
  0
LWPOLYLINE
  5
116
102
{ACAD_REACTORS
330
110
102
}
100
AcDbEntity
  8
BUILDING_ENVELOPE
  6
CONTINUOUS
 62
     9
100
AcDbPolyline
 90
        4
 70
     1
 10
24.937703
 20
9.779184
 10
24.937703
 20
8.89537
 10
21.032078
 20
8.89537
 10
21.032078
 20
9.779184
  0
LWPOLYLINE
  5
117
102
{ACAD_REACTORS
330
110
102
}
100
AcDbEntity
  8
BUILDING_ENVELOPE
  6
CONTINUOUS
 62
     9
100
AcDbPolyline
 90
        4
 70
     1
 10
24.937703
 20
8.89537
 10
24.937703
 20
8.011556
 10
21.032078
 20
8.011556
 10
21.032078
 20
8.89537
  0
LWPOLYLINE
  5
118
102
{ACAD_REACTORS
330
110
102
}
100
AcDbEntity
  8
BUILDING_ENVELOPE
  6
CONTINUOUS
 62
     9
100
AcDbPolyline
 90
        4
 70
     1
 10
24.937703
 20
8.011556
 10
24.937703
 20
7.127742
 10
21.032078
 20
7.127742
 10
21.032078
 20
8.011556
  0
LWPOLYLINE
  5
119
102
{ACAD_REACTORS
330
110
102
}
100
AcDbEntity
  8
BUILDING_ENVELOPE
  6
CONTINUOUS
 62
     9
100
AcDbPolyline
 90
        4
 70
     1
 10
24.937703
 20
7.127742
 10
24.937703
 20
6.243928
 10
21.032078
 20
6.243928
 10
21.032078
 20
7.127742
  0
LWPOLYLINE
  5
11A
102
{ACAD_REACTORS
330
110
102
}
100
AcDbEntity
  8
BUILDING_ENVELOPE
  6
CONTINUOUS
 62
     9
100
AcDbPolyline
 90
        4
 70
     1
 10
24.937703
 20
6.243928
 10
24.937703
 20
5.360114
 10
21.032078
 20
5.360114
 10
21.032078
 20
6.243928
  0
LWPOLYLINE
  5
11B
102
{ACAD_REACTORS
330
110
102
}
100
AcDbEntity
  8
BUILDING_ENVELOPE
  6
CONTINUOUS
 62
     9
100
AcDbPolyline
 90
        4
 70
     1
 10
24.937703
 20
5.360114
 10
24.937703
 20
4.4763
 10
21.032078
 20
4.4763
 10
21.032078
 20
5.360114
  0
LWPOLYLINE
  5
11C
102
{ACAD_REACTORS
330
110
102
}
100
AcDbEntity
  8
BUILDING_ENVELOPE
  6
CONTINUOUS
 62
     9
100
AcDbPolyline
 90
        4
 70
     1
 10
24.937703
 20
4.4763
 10
24.937703
 20
3.592486
 10
21.032078
 20
3.592486
 10
21.032078
 20
4.4763
  0
MTEXT
  5
11D
100
AcDbEntity
  8
BUILDING_ENVELOPE
100
AcDbMText
 10
22.984891
 20
15.458702
 30
0.0
 40
0.333332
 41
0.753267
 71
     5
 72
     5
  1
\C7;\fCalibri|b0|i0|;\H0.33333206176758;UP
 11
0.0
 21
1.0
 31
0.0
  0
CIRCLE
  5
11F
102
{ACAD_REACTORS
330
120
102
}
100
AcDbEntity
  8
STAIR
  6
CONTINUOUS
 62
     7
100
AcDbCircle
 10
22.984891
 20
15.082069
 30
0.0
 40
0.086804
  0
HATCH
  5
120
102
{ACAD_REACTORS
330
109
102
}
100
AcDbEntity
  8
STAIR
 62
   134
100
AcDbHatch
 10
0.0
 20
0.0
 30
0.0
210
0.0
220
0.0
230
1.0
  2
SOLID
 70
     1
 71
     1
 91
        1
 92
        1
 93
        1
 72
     2
 10
22.9848905091492952
 20
15.082068914036066
 40
0.0868041666666667
 50
0.0
 51
360.0
 73
     1
 97
        1
330
11F
 75
     0
 76
     1
 98
        0
  0
LINE
  5
121
102
{ACAD_REACTORS
330
109
102
}
100
AcDbEntity
  8
STAIR
  6
CONTINUOUS
 62
     7
100
AcDbLine
 10
22.984891
 20
15.082069
 30
0.0
 11
22.984891
 21
12.773869
 31
0.0
  0
LWPOLYLINE
  5
122
102
{ACAD_REACTORS
330
123
102
}
100
AcDbEntity
  8
STAIR
  6
CONTINUOUS
 62
     7
100
AcDbPolyline
 90
        3
 70
     1
 10
22.857416
 20
12.986781
 10
23.112366
 20
12.986781
 10
22.982156
 20
12.560956
  0
HATCH
  5
123
102
{ACAD_REACTORS
330
109
102
}
100
AcDbEntity
  8
STAIR
 62
   134
100
AcDbHatch
 10
0.0
 20
0.0
 30
0.0
210
0.0
220
0.0
230
1.0
  2
SOLID
 70
     1
 71
     1
 91
        1
 92
        3
 72
     0
 73
     1
 93
        3
 10
22.8574155091492948
 20
12.9867814140360665
 10
23.1123655091492921
 20
12.9867814140360665
 10
22.982156111805061
 20
12.560956414036065
 97
        1
330
122
 75
     0
 76
     1
 98
        0
  0
LWPOLYLINE
  5
124
102
{ACAD_REACTORS
330
125
102
}
100
AcDbEntity
  8
BUILDING_ENVELOPE
  6
CONTINUOUS
 62
     9
100
AcDbPolyline
 90
        4
 70
     1
 10
18.635042
 20
18.712349
 10
19.468375
 20
18.712349
 10
19.468375
 20
15.082069
 10
18.635042
 20
15.082069
  0
HATCH
  5
125
102
{ACAD_REACTORS
330
109
102
}
100
AcDbEntity
  8
BUILDING_ENVELOPE
 62
   134
100
AcDbHatch
 10
0.0
 20
0.0
 30
0.0
210
0.0
220
0.0
230
1.0
  2
SOLID
 70
     1
 71
     1
 91
       33
 92
        3
 72
     0
 73
     1
 93
        4
 10
18.6350416628281366
 20
18.7123491577647663
 10
19.4683749961614723
 20
18.7123491577647663
 10
19.4683749961614723
 20
15.0820689140360642
 10
18.6350416628281366
 20
15.0820689140360642
 97
        1
330
124
 92
        3
 72
     0
 73
     1
 93
        4
 10
19.4683749961614723
 20
18.7123491577647663
 10
20.3017083294948044
 20
18.7123491577647663
 10
20.3017083294948044
 20
15.0820689140360642
 10
19.4683749961614723
 20
15.0820689140360642
 97
        1
330
126
 92
        3
 72
     0
 73
     1
 93
        4
 10
20.3017083294948044
 20
18.7123491577647663
 10
21.1350416628281366
 20
18.7123491577647663
 10
21.1350416628281366
 20
15.0820689140360642
 10
20.3017083294948044
 20
15.0820689140360642
 97
        1
330
127
 92
        0
 93
        0
 97
        0
 92
        0
 93
        0
 97
        0
 92
        0
 93
        0
 97
        0
 92
        0
 93
        0
 97
        0
 92
        0
 93
        0
 97
        0
 92
        0
 93
        0
 97
        0
 92
        0
 93
        0
 97
        0
 92
        0
 93
        0
 97
        0
 92
        0
 93
        0
 97
        0
 92
        0
 93
        0
 97
        0
 92
        0
 93
        0
 97
        0
 92
        0
 93
        0
 97
        0
 92
        0
 93
        0
 97
        0
 92
        0
 93
        0
 97
        0
 92
        0
 93
        0
 97
        0
 92
        0
 93
        0
 97
        0
 92
        0
 93
        0
 97
        0
 92
        0
 93
        0
 97
        0
 92
        0
 93
        0
 97
        0
 92
        0
 93
        0
 97
        0
 92
        0
 93
        0
 97
        0
 92
        0
 93
        0
 97
        0
 92
        0
 93
        0
 97
        0
 92
        0
 93
        0
 97
        0
 92
        0
 93
        0
 97
        0
 92
        0
 93
        0
 97
        0
 92
        0
 93
        0
 97
        0
 92
        0
 93
        0
 97
        0
 92
        0
 93
        0
 97
        0
 92
        0
 93
        0
 97
        0
 75
     0
 76
     1
 98
        0
  0
LWPOLYLINE
  5
126
102
{ACAD_REACTORS
330
125
102
}
100
AcDbEntity
  8
BUILDING_ENVELOPE
  6
CONTINUOUS
 62
     9
100
AcDbPolyline
 90
        4
 70
     1
 10
19.468375
 20
18.712349
 10
20.301708
 20
18.712349
 10
20.301708
 20
15.082069
 10
19.468375
 20
15.082069
  0
LWPOLYLINE
  5
127
102
{ACAD_REACTORS
330
125
102
}
100
AcDbEntity
  8
BUILDING_ENVELOPE
  6
CONTINUOUS
 62
     9
100
AcDbPolyline
 90
        4
 70
     1
 10
20.301708
 20
18.712349
 10
21.135042
 20
18.712349
 10
21.135042
 20
15.082069
 10
20.301708
 20
15.082069
  0
MTEXT
  5
128
100
AcDbEntity
  8
BUILDING_ENVELOPE
100
AcDbMText
 10
18.258408
 20
16.897209
 30
0.0
 40
0.333332
 41
0.753267
 71
     5
 72
     5
  1
\C7;\fCalibri|b0|i0|;\H0.33333206176758;UP
  0
CIRCLE
  5
129
102
{ACAD_REACTORS
330
12A
102
}
100
AcDbEntity
  8
STAIR
  6
CONTINUOUS
 62
     7
100
AcDbCircle
 10
18.635042
 20
16.897209
 30
0.0
 40
0.086804
  0
HATCH
  5
12A
102
{ACAD_REACTORS
330
109
102
}
100
AcDbEntity
  8
STAIR
 62
   134
100
AcDbHatch
 10
0.0
 20
0.0
 30
0.0
210
0.0
220
0.0
230
1.0
  2
SOLID
 70
     1
 71
     1
 91
        1
 92
        1
 93
        1
 72
     2
 10
18.6350416628281366
 20
16.8972090359004135
 40
0.0868041666666667
 50
0.0
 51
360.0
 73
     1
 97
        1
330
129
 75
     0
 76
     1
 98
        0
  0
LINE
  5
12B
102
{ACAD_REACTORS
330
109
102
}
100
AcDbEntity
  8
STAIR
  6
CONTINUOUS
 62
     7
100
AcDbLine
 10
18.635042
 20
16.897209
 30
0.0
 11
20.943242
 21
16.897209
 31
0.0
  0
LWPOLYLINE
  5
12C
102
{ACAD_REACTORS
330
12D
102
}
100
AcDbEntity
  8
STAIR
  6
CONTINUOUS
 62
     7
100
AcDbPolyline
 90
        3
 70
     1
 10
20.730329
 20
16.769734
 10
20.730329
 20
17.024684
 10
21.156154
 20
16.894475
  0
HATCH
  5
12D
102
{ACAD_REACTORS
330
109
102
}
100
AcDbEntity
  8
STAIR
 62
   134
100
AcDbHatch
 10
0.0
 20
0.0
 30
0.0
210
0.0
220
0.0
230
1.0
  2
SOLID
 70
     1
 71
     1
 91
        1
 92
        3
 72
     0
 73
     1
 93
        3
 10
20.7303291628281379
 20
16.769734035900413
 10
20.7303291628281379
 20
17.0246840359004139
 10
21.1561541628281375
 20
16.8944746385561828
 97
        1
330
12C
 75
     0
 76
     1
 98
        0
  0
LWPOLYLINE
  5
12F
102
{ACAD_REACTORS
330
135
102
}
100
AcDbEntity
  8
BUILDING_ENVELOPE
  6
CONTINUOUS
 62
     7
100
AcDbPolyline
 90
        4
 70
     1
 10
3.452762
 20
41.083884
 10
0.619429
 20
41.083884
 10
0.619429
 20
41.433217
 10
3.452762
 20
41.433217
  0
LINE
  5
130
102
{ACAD_REACTORS
330
135
102
}
100
AcDbEntity
  8
BUILDING_ENVELOPE
  6
CONTINUOUS
 62
     7
100
AcDbLine
 10
0.619429
 20
41.091884
 30
0.0
 11
0.619429
 21
41.425217
 31
0.0
  0
LINE
  5
131
102
{ACAD_REACTORS
330
135
102
}
100
AcDbEntity
  8
BUILDING_ENVELOPE
  6
CONTINUOUS
 62
     7
100
AcDbLine
 10
0.619429
 20
41.425217
 30
0.0
 11
0.786095
 21
41.425217
 31
0.0
  0
LINE
  5
132
102
{ACAD_REACTORS
330
135
102
}
100
AcDbEntity
  8
BUILDING_ENVELOPE
  6
CONTINUOUS
 62
     7
100
AcDbLine
 10
0.786095
 20
41.425217
 30
0.0
 11
0.786095
 21
41.300217
 31
0.0
  0
LINE
  5
133
102
{ACAD_REACTORS
330
135
102
}
100
AcDbEntity
  8
BUILDING_ENVELOPE
  6
CONTINUOUS
 62
     7
100
AcDbLine
 10
0.786095
 20
41.175217
 30
0.0
 11
0.786095
 21
41.091884
 31
0.0
  0
LINE
  5
134
102
{ACAD_REACTORS
330
135
102
}
100
AcDbEntity
  8
BUILDING_ENVELOPE
  6
CONTINUOUS
 62
     7
100
AcDbLine
 10
0.786095
 20
41.091884
 30
0.0
 11
0.619429
 21
41.091884
 31
0.0
  0
HATCH
  5
135
102
{ACAD_REACTORS
330
12E
102
}
100
AcDbEntity
  8
BUILDING_ENVELOPE
 62
     7
100
AcDbHatch
 10
0.0
 20
0.0
 30
0.0
210
0.0
220
0.0
230
1.0
  2
SOLID
 70
     1
 71
     1
 91
        2
 92
        1
 93
        6
 72
     1
 10
0.6194285843978851
 20
41.0918836822562881
 11
0.6194285843978851
 21
41.4252170155896238
 72
     1
 10
0.6194285843978851
 20
41.4252170155896238
 11
0.7860952510645518
 21
41.4252170155896238
 72
     1
 10
0.7860952510645518
 20
41.4252170155896238
 11
0.7860952510645518
 21
41.3002170155896238
 72
     1
 10
0.7860952510645518
 20
41.3002170155896238
 11
0.7860952510645518
 21
41.1752170155896238
 72
     1
 10
0.7860952510645518
 20
41.1752170155896238
 11
0.7860952510645518
 21
41.0918836822562881
 72
     1
 10
0.7860952510645518
 20
41.0918836822562881
 11
0.6194285843978851
 21
41.0918836822562881
 97
        6
330
12F
330
130
330
131
330
132
330
133
330
134
 92
        1
 93
        6
 72
     1
 10
3.4527619177312183
 20
41.0918836822562881
 11
3.4527619177312183
 21
41.4252170155896238
 72
     1
 10
3.4527619177312183
 20
41.4252170155896238
 11
3.2860952510645518
 21
41.4252170155896238
 72
     1
 10
3.2860952510645518
 20
41.4252170155896238
 11
3.2860952510645518
 21
41.3002170155896238
 72
     1
 10
3.2860952510645518
 20
41.3002170155896238
 11
3.2860952510645518
 21
41.1752170155896238
 72
     1
 10
3.2860952510645518
 20
41.1752170155896238
 11
3.2860952510645518
 21
41.0918836822562881
 72
     1
 10
3.2860952510645518
 20
41.0918836822562881
 11
3.4527619177312183
 21
41.0918836822562881
 97
        5
330
136
330
137
330
138
330
139
330
13A
 75
     0
 76
     1
 98
        0
  0
LINE
  5
136
102
{ACAD_REACTORS
330
135
102
}
100
AcDbEntity
  8
BUILDING_ENVELOPE
  6
CONTINUOUS
 62
     7
100
AcDbLine
 10
3.452762
 20
41.091884
 30
0.0
 11
3.452762
 21
41.425217
 31
0.0
  0
LINE
  5
137
102
{ACAD_REACTORS
330
135
102
}
100
AcDbEntity
  8
BUILDING_ENVELOPE
  6
CONTINUOUS
 62
     7
100
AcDbLine
 10
3.452762
 20
41.425217
 30
0.0
 11
3.286095
 21
41.425217
 31
0.0
  0
LINE
  5
138
102
{ACAD_REACTORS
330
135
102
}
100
AcDbEntity
  8
BUILDING_ENVELOPE
  6
CONTINUOUS
 62
     7
100
AcDbLine
 10
3.286095
 20
41.425217
 30
0.0
 11
3.286095
 21
41.300217
 31
0.0
  0
LINE
  5
139
102
{ACAD_REACTORS
330
135
102
}
100
AcDbEntity
  8
BUILDING_ENVELOPE
  6
CONTINUOUS
 62
     7
100
AcDbLine
 10
3.286095
 20
41.175217
 30
0.0
 11
3.286095
 21
41.091884
 31
0.0
  0
LINE
  5
13A
102
{ACAD_REACTORS
330
135
102
}
100
AcDbEntity
  8
BUILDING_ENVELOPE
  6
CONTINUOUS
 62
     7
100
AcDbLine
 10
3.286095
 20
41.091884
 30
0.0
 11
3.452762
 21
41.091884
 31
0.0
  0
LINE
  5
13B
102
{ACAD_REACTORS
330
13E
102
}
100
AcDbEntity
  8
BUILDING_ENVELOPE
  6
CONTINUOUS
 62
     7
100
AcDbLine
 10
0.786095
 20
41.300217
 30
0.0
 11
0.827762
 21
41.300217
 31
0.0
  0
LINE
  5
13C
102
{ACAD_REACTORS
330
13E
102
}
100
AcDbEntity
  8
BUILDING_ENVELOPE
  6
CONTINUOUS
 62
     7
100
AcDbLine
 10
0.827762
 20
41.300217
 30
0.0
 11
0.827762
 21
41.175217
 31
0.0
  0
LINE
  5
13D
102
{ACAD_REACTORS
330
13E
102
}
100
AcDbEntity
  8
BUILDING_ENVELOPE
  6
CONTINUOUS
 62
     7
100
AcDbLine
 10
0.827762
 20
41.175217
 30
0.0
 11
0.786095
 21
41.175217
 31
0.0
  0
HATCH
  5
13E
102
{ACAD_REACTORS
330
12E
102
}
100
AcDbEntity
  8
BUILDING_ENVELOPE
 62
     7
100
AcDbHatch
 10
0.0
 20
0.0
 30
0.0
210
0.0
220
0.0
230
1.0
  2
SOLID
 70
     1
 71
     1
 91
        2
 92
        1
 93
        4
 72
     1
 10
0.7860952510645518
 20
41.3002170155896238
 11
0.8277619177312184
 21
41.3002170155896238
 72
     1
 10
0.8277619177312184
 20
41.3002170155896238
 11
0.8277619177312184
 21
41.1752170155896238
 72
     1
 10
0.8277619177312184
 20
41.1752170155896238
 11
0.7860952510645518
 21
41.1752170155896238
 72
     1
 10
0.7860952510645518
 20
41.1752170155896238
 11
0.7860952510645518
 21
41.3002170155896238
 97
        3
330
13B
330
13C
330
13D
 92
        1
 93
        4
 72
     1
 10
3.2860952510645518
 20
41.3002170155896238
 11
3.2444285843978848
 21
41.3002170155896238
 72
     1
 10
3.2444285843978848
 20
41.3002170155896238
 11
3.2444285843978848
 21
41.1752170155896238
 72
     1
 10
3.2444285843978848
 20
41.1752170155896238
 11
3.2860952510645518
 21
41.1752170155896238
 72
     1
 10
3.2860952510645518
 20
41.1752170155896238
 11
3.2860952510645518
 21
41.3002170155896238
 97
        3
330
13F
330
140
330
141
 75
     0
 76
     1
 98
        0
  0
LINE
  5
13F
102
{ACAD_REACTORS
330
13E
102
}
100
AcDbEntity
  8
BUILDING_ENVELOPE
  6
CONTINUOUS
 62
     7
100
AcDbLine
 10
3.286095
 20
41.300217
 30
0.0
 11
3.244429
 21
41.300217
 31
0.0
  0
LINE
  5
140
102
{ACAD_REACTORS
330
13E
102
}
100
AcDbEntity
  8
BUILDING_ENVELOPE
  6
CONTINUOUS
 62
     7
100
AcDbLine
 10
3.244429
 20
41.300217
 30
0.0
 11
3.244429
 21
41.175217
 31
0.0
  0
LINE
  5
141
102
{ACAD_REACTORS
330
13E
102
}
100
AcDbEntity
  8
BUILDING_ENVELOPE
  6
CONTINUOUS
 62
     7
100
AcDbLine
 10
3.244429
 20
41.175217
 30
0.0
 11
3.286095
 21
41.175217
 31
0.0
  0
LINE
  5
142
102
{ACAD_REACTORS
330
12E
102
}
100
AcDbEntity
  8
BUILDING_ENVELOPE
  6
CONTINUOUS
 62
     7
100
AcDbLine
 10
0.619429
 20
41.091884
 30
0.0
 11
0.619429
 21
41.425217
 31
0.0
  0
LINE
  5
143
102
{ACAD_REACTORS
330
12E
102
}
100
AcDbEntity
  8
BUILDING_ENVELOPE
  6
CONTINUOUS
 62
     7
100
AcDbLine
 10
3.452762
 20
41.091884
 30
0.0
 11
3.452762
 21
41.425217
 31
0.0
  0
ARC
  5
144
102
{ACAD_REACTORS
330
12E
102
}
100
AcDbEntity
  8
BUILDING_ENVELOPE
  6
CONTINUOUS
 62
     7
100
AcDbCircle
 10
0.786095
 20
41.425217
 30
0.0
 40
2.5
100
AcDbArc
 50
0.0
 51
90.0
  0
LWPOLYLINE
  5
145
102
{ACAD_REACTORS
330
146
102
}
100
AcDbEntity
  8
BUILDING_ENVELOPE
  6
CONTINUOUS
 62
     7
100
AcDbPolyline
 90
        4
 70
     1
 10
0.911095
 20
43.925217
 10
0.911095
 20
41.425217
 10
0.786095
 20
41.425217
 10
0.786095
 20
43.925217
  0
HATCH
  5
146
102
{ACAD_REACTORS
330
12E
102
}
100
AcDbEntity
  8
BUILDING_ENVELOPE
 62
     7
100
AcDbHatch
 10
0.0
 20
0.0
 30
0.0
210
0.0
220
0.0
230
1.0
  2
SOLID
 70
     1
 71
     1
 91
        1
 92
        3
 72
     0
 73
     1
 93
        4
 10
0.9110952510645518
 20
43.9252170155896238
 10
0.9110952510645518
 20
41.4252170155896238
 10
0.7860952510645518
 20
41.4252170155896238
 10
0.7860952510645518
 20
43.9252170155896238
 97
        1
330
145
 75
     0
 76
     1
 98
        0
  0
LWPOLYLINE
  5
148
102
{ACAD_REACTORS
330
14E
102
}
100
AcDbEntity
  8
BUILDING_ENVELOPE
  6
CONTINUOUS
 62
     7
100
AcDbPolyline
 90
        4
 70
     1
 10
16.958292
 20
29.677634
 10
14.124959
 20
29.677634
 10
14.124959
 20
30.026967
 10
16.958292
 20
30.026967
  0
LINE
  5
149
102
{ACAD_REACTORS
330
14E
102
}
100
AcDbEntity
  8
BUILDING_ENVELOPE
  6
CONTINUOUS
 62
     7
100
AcDbLine
 10
14.124959
 20
29.685634
 30
0.0
 11
14.124959
 21
30.018967
 31
0.0
  0
LINE
  5
14A
102
{ACAD_REACTORS
330
14E
102
}
100
AcDbEntity
  8
BUILDING_ENVELOPE
  6
CONTINUOUS
 62
     7
100
AcDbLine
 10
14.124959
 20
30.018967
 30
0.0
 11
14.291626
 21
30.018967
 31
0.0
  0
LINE
  5
14B
102
{ACAD_REACTORS
330
14E
102
}
100
AcDbEntity
  8
BUILDING_ENVELOPE
  6
CONTINUOUS
 62
     7
100
AcDbLine
 10
14.291626
 20
30.018967
 30
0.0
 11
14.291626
 21
29.893967
 31
0.0
  0
LINE
  5
14C
102
{ACAD_REACTORS
330
14E
102
}
100
AcDbEntity
  8
BUILDING_ENVELOPE
  6
CONTINUOUS
 62
     7
100
AcDbLine
 10
14.291626
 20
29.768967
 30
0.0
 11
14.291626
 21
29.685634
 31
0.0
  0
LINE
  5
14D
102
{ACAD_REACTORS
330
14E
102
}
100
AcDbEntity
  8
BUILDING_ENVELOPE
  6
CONTINUOUS
 62
     7
100
AcDbLine
 10
14.291626
 20
29.685634
 30
0.0
 11
14.124959
 21
29.685634
 31
0.0
  0
HATCH
  5
14E
102
{ACAD_REACTORS
330
147
102
}
100
AcDbEntity
  8
BUILDING_ENVELOPE
 62
     7
100
AcDbHatch
 10
0.0
 20
0.0
 30
0.0
210
0.0
220
0.0
230
1.0
  2
SOLID
 70
     1
 71
     1
 91
        2
 92
        1
 93
        6
 72
     1
 10
14.1249590986303843
 20
29.6856336819653315
 11
14.1249590986303843
 21
30.0189670152986636
 72
     1
 10
14.1249590986303843
 20
30.0189670152986636
 11
14.2916257652970504
 21
30.0189670152986636
 72
     1
 10
14.2916257652970504
 20
30.0189670152986636
 11
14.2916257652970504
 21
29.8939670152986636
 72
     1
 10
14.2916257652970504
 20
29.8939670152986636
 11
14.2916257652970504
 21
29.7689670152986636
 72
     1
 10
14.2916257652970504
 20
29.7689670152986636
 11
14.2916257652970504
 21
29.6856336819653315
 72
     1
 10
14.2916257652970504
 20
29.6856336819653315
 11
14.1249590986303843
 21
29.6856336819653315
 97
        6
330
148
330
149
330
14A
330
14B
330
14C
330
14D
 92
        1
 93
        6
 72
     1
 10
16.9582924319637165
 20
29.6856336819653315
 11
16.9582924319637165
 21
30.0189670152986636
 72
     1
 10
16.9582924319637165
 20
30.0189670152986636
 11
16.7916257652970486
 21
30.0189670152986636
 72
     1
 10
16.7916257652970486
 20
30.0189670152986636
 11
16.7916257652970486
 21
29.8939670152986636
 72
     1
 10
16.7916257652970486
 20
29.8939670152986636
 11
16.7916257652970486
 21
29.7689670152986636
 72
     1
 10
16.7916257652970486
 20
29.7689670152986636
 11
16.7916257652970486
 21
29.6856336819653315
 72
     1
 10
16.7916257652970486
 20
29.6856336819653315
 11
16.9582924319637165
 21
29.6856336819653315
 97
        5
330
14F
330
150
330
151
330
152
330
153
 75
     0
 76
     1
 98
        0
  0
LINE
  5
14F
102
{ACAD_REACTORS
330
14E
102
}
100
AcDbEntity
  8
BUILDING_ENVELOPE
  6
CONTINUOUS
 62
     7
100
AcDbLine
 10
16.958292
 20
29.685634
 30
0.0
 11
16.958292
 21
30.018967
 31
0.0
  0
LINE
  5
150
102
{ACAD_REACTORS
330
14E
102
}
100
AcDbEntity
  8
BUILDING_ENVELOPE
  6
CONTINUOUS
 62
     7
100
AcDbLine
 10
16.958292
 20
30.018967
 30
0.0
 11
16.791626
 21
30.018967
 31
0.0
  0
LINE
  5
151
102
{ACAD_REACTORS
330
14E
102
}
100
AcDbEntity
  8
BUILDING_ENVELOPE
  6
CONTINUOUS
 62
     7
100
AcDbLine
 10
16.791626
 20
30.018967
 30
0.0
 11
16.791626
 21
29.893967
 31
0.0
  0
LINE
  5
152
102
{ACAD_REACTORS
330
14E
102
}
100
AcDbEntity
  8
BUILDING_ENVELOPE
  6
CONTINUOUS
 62
     7
100
AcDbLine
 10
16.791626
 20
29.768967
 30
0.0
 11
16.791626
 21
29.685634
 31
0.0
  0
LINE
  5
153
102
{ACAD_REACTORS
330
14E
102
}
100
AcDbEntity
  8
BUILDING_ENVELOPE
  6
CONTINUOUS
 62
     7
100
AcDbLine
 10
16.791626
 20
29.685634
 30
0.0
 11
16.958292
 21
29.685634
 31
0.0
  0
LINE
  5
154
102
{ACAD_REACTORS
330
157
102
}
100
AcDbEntity
  8
BUILDING_ENVELOPE
  6
CONTINUOUS
 62
     7
100
AcDbLine
 10
14.291626
 20
29.893967
 30
0.0
 11
14.333292
 21
29.893967
 31
0.0
  0
LINE
  5
155
102
{ACAD_REACTORS
330
157
102
}
100
AcDbEntity
  8
BUILDING_ENVELOPE
  6
CONTINUOUS
 62
     7
100
AcDbLine
 10
14.333292
 20
29.893967
 30
0.0
 11
14.333292
 21
29.768967
 31
0.0
  0
LINE
  5
156
102
{ACAD_REACTORS
330
157
102
}
100
AcDbEntity
  8
BUILDING_ENVELOPE
  6
CONTINUOUS
 62
     7
100
AcDbLine
 10
14.333292
 20
29.768967
 30
0.0
 11
14.291626
 21
29.768967
 31
0.0
  0
HATCH
  5
157
102
{ACAD_REACTORS
330
147
102
}
100
AcDbEntity
  8
BUILDING_ENVELOPE
 62
     7
100
AcDbHatch
 10
0.0
 20
0.0
 30
0.0
210
0.0
220
0.0
230
1.0
  2
SOLID
 70
     1
 71
     1
 91
        2
 92
        1
 93
        4
 72
     1
 10
14.2916257652970504
 20
29.8939670152986636
 11
14.3332924319637165
 21
29.8939670152986636
 72
     1
 10
14.3332924319637165
 20
29.8939670152986636
 11
14.3332924319637165
 21
29.7689670152986636
 72
     1
 10
14.3332924319637165
 20
29.7689670152986636
 11
14.2916257652970504
 21
29.7689670152986636
 72
     1
 10
14.2916257652970504
 20
29.7689670152986636
 11
14.2916257652970504
 21
29.8939670152986636
 97
        3
330
154
330
155
330
156
 92
        1
 93
        4
 72
     1
 10
16.7916257652970486
 20
29.8939670152986636
 11
16.7499590986303843
 21
29.8939670152986636
 72
     1
 10
16.7499590986303843
 20
29.8939670152986636
 11
16.7499590986303843
 21
29.7689670152986636
 72
     1
 10
16.7499590986303843
 20
29.7689670152986636
 11
16.7916257652970486
 21
29.7689670152986636
 72
     1
 10
16.7916257652970486
 20
29.7689670152986636
 11
16.7916257652970486
 21
29.8939670152986636
 97
        3
330
158
330
159
330
15A
 75
     0
 76
     1
 98
        0
  0
LINE
  5
158
102
{ACAD_REACTORS
330
157
102
}
100
AcDbEntity
  8
BUILDING_ENVELOPE
  6
CONTINUOUS
 62
     7
100
AcDbLine
 10
16.791626
 20
29.893967
 30
0.0
 11
16.749959
 21
29.893967
 31
0.0
  0
LINE
  5
159
102
{ACAD_REACTORS
330
157
102
}
100
AcDbEntity
  8
BUILDING_ENVELOPE
  6
CONTINUOUS
 62
     7
100
AcDbLine
 10
16.749959
 20
29.893967
 30
0.0
 11
16.749959
 21
29.768967
 31
0.0
  0
LINE
  5
15A
102
{ACAD_REACTORS
330
157
102
}
100
AcDbEntity
  8
BUILDING_ENVELOPE
  6
CONTINUOUS
 62
     7
100
AcDbLine
 10
16.749959
 20
29.768967
 30
0.0
 11
16.791626
 21
29.768967
 31
0.0
  0
LINE
  5
15B
102
{ACAD_REACTORS
330
147
102
}
100
AcDbEntity
  8
BUILDING_ENVELOPE
  6
CONTINUOUS
 62
     7
100
AcDbLine
 10
14.124959
 20
29.685634
 30
0.0
 11
14.124959
 21
30.018967
 31
0.0
  0
LINE
  5
15C
102
{ACAD_REACTORS
330
147
102
}
100
AcDbEntity
  8
BUILDING_ENVELOPE
  6
CONTINUOUS
 62
     7
100
AcDbLine
 10
16.958292
 20
29.685634
 30
0.0
 11
16.958292
 21
30.018967
 31
0.0
  0
ARC
  5
15D
102
{ACAD_REACTORS
330
147
102
}
100
AcDbEntity
  8
BUILDING_ENVELOPE
  6
CONTINUOUS
 62
     7
100
AcDbCircle
 10
14.291626
 20
30.018967
 30
0.0
 40
2.5
100
AcDbArc
 50
0.0
 51
90.0
  0
LWPOLYLINE
  5
15E
102
{ACAD_REACTORS
330
15F
102
}
100
AcDbEntity
  8
BUILDING_ENVELOPE
  6
CONTINUOUS
 62
     7
100
AcDbPolyline
 90
        4
 70
     1
 10
14.416626
 20
32.518967
 10
14.416626
 20
30.018967
 10
14.291626
 20
30.018967
 10
14.291626
 20
32.518967
  0
HATCH
  5
15F
102
{ACAD_REACTORS
330
147
102
}
100
AcDbEntity
  8
BUILDING_ENVELOPE
 62
     7
100
AcDbHatch
 10
0.0
 20
0.0
 30
0.0
210
0.0
220
0.0
230
1.0
  2
SOLID
 70
     1
 71
     1
 91
        1
 92
        3
 72
     0
 73
     1
 93
        4
 10
14.4166257652970504
 20
32.5189670152986636
 10
14.4166257652970504
 20
30.0189670152986636
 10
14.2916257652970504
 20
30.0189670152986636
 10
14.2916257652970504
 20
32.5189670152986636
 97
        1
330
15E
 75
     0
 76
     1
 98
        0
  0
LWPOLYLINE
  5
161
102
{ACAD_REACTORS
330
167
102
}
100
AcDbEntity
  8
BUILDING_ENVELOPE
  6
CONTINUOUS
 62
     7
100
AcDbPolyline
 90
        4
 70
     1
 10
16.684667
 20
26.204514
 10
16.684667
 20
29.037847
 10
17.034001
 20
29.037847
 10
17.034001
 20
26.204514
  0
LINE
  5
162
102
{ACAD_REACTORS
330
167
102
}
100
AcDbEntity
  8
BUILDING_ENVELOPE
  6
CONTINUOUS
 62
     7
100
AcDbLine
 10
16.692667
 20
29.037847
 30
0.0
 11
17.026001
 21
29.037847
 31
0.0
  0
LINE
  5
163
102
{ACAD_REACTORS
330
167
102
}
100
AcDbEntity
  8
BUILDING_ENVELOPE
  6
CONTINUOUS
 62
     7
100
AcDbLine
 10
17.026001
 20
29.037847
 30
0.0
 11
17.026001
 21
28.871181
 31
0.0
  0
LINE
  5
164
102
{ACAD_REACTORS
330
167
102
}
100
AcDbEntity
  8
BUILDING_ENVELOPE
  6
CONTINUOUS
 62
     7
100
AcDbLine
 10
17.026001
 20
28.871181
 30
0.0
 11
16.901001
 21
28.871181
 31
0.0
  0
LINE
  5
165
102
{ACAD_REACTORS
330
167
102
}
100
AcDbEntity
  8
BUILDING_ENVELOPE
  6
CONTINUOUS
 62
     7
100
AcDbLine
 10
16.776001
 20
28.871181
 30
0.0
 11
16.692667
 21
28.871181
 31
0.0
  0
LINE
  5
166
102
{ACAD_REACTORS
330
167
102
}
100
AcDbEntity
  8
BUILDING_ENVELOPE
  6
CONTINUOUS
 62
     7
100
AcDbLine
 10
16.692667
 20
28.871181
 30
0.0
 11
16.692667
 21
29.037847
 31
0.0
  0
HATCH
  5
167
102
{ACAD_REACTORS
330
160
102
}
100
AcDbEntity
  8
BUILDING_ENVELOPE
 62
     7
100
AcDbHatch
 10
0.0
 20
0.0
 30
0.0
210
0.0
220
0.0
230
1.0
  2
SOLID
 70
     1
 71
     1
 91
        2
 92
        1
 93
        6
 72
     1
 10
16.6926674317454982
 20
29.0378471959560223
 11
17.0260007650788339
 21
29.0378471959560223
 72
     1
 10
17.0260007650788339
 20
29.0378471959560223
 11
17.0260007650788339
 21
28.8711805292893544
 72
     1
 10
17.0260007650788339
 20
28.8711805292893544
 11
16.9010007650788339
 21
28.8711805292893544
 72
     1
 10
16.9010007650788339
 20
28.8711805292893544
 11
16.7760007650788339
 21
28.8711805292893544
 72
     1
 10
16.7760007650788339
 20
28.8711805292893544
 11
16.6926674317454982
 21
28.8711805292893544
 72
     1
 10
16.6926674317454982
 20
28.8711805292893544
 11
16.6926674317454982
 21
29.0378471959560223
 97
        6
330
161
330
162
330
163
330
164
330
165
330
166
 92
        1
 93
        6
 72
     1
 10
16.6926674317454982
 20
26.2045138626226901
 11
17.0260007650788339
 21
26.2045138626226901
 72
     1
 10
17.0260007650788339
 20
26.2045138626226901
 11
17.0260007650788339
 21
26.3711805292893544
 72
     1
 10
17.0260007650788339
 20
26.3711805292893544
 11
16.9010007650788339
 21
26.3711805292893544
 72
     1
 10
16.9010007650788339
 20
26.3711805292893544
 11
16.7760007650788339
 21
26.3711805292893544
 72
     1
 10
16.7760007650788339
 20
26.3711805292893544
 11
16.6926674317454982
 21
26.3711805292893544
 72
     1
 10
16.6926674317454982
 20
26.3711805292893544
 11
16.6926674317454982
 21
26.2045138626226901
 97
        5
330
168
330
169
330
16A
330
16B
330
16C
 75
     0
 76
     1
 98
        0
  0
LINE
  5
168
102
{ACAD_REACTORS
330
167
102
}
100
AcDbEntity
  8
BUILDING_ENVELOPE
  6
CONTINUOUS
 62
     7
100
AcDbLine
 10
16.692667
 20
26.204514
 30
0.0
 11
17.026001
 21
26.204514
 31
0.0
  0
LINE
  5
169
102
{ACAD_REACTORS
330
167
102
}
100
AcDbEntity
  8
BUILDING_ENVELOPE
  6
CONTINUOUS
 62
     7
100
AcDbLine
 10
17.026001
 20
26.204514
 30
0.0
 11
17.026001
 21
26.371181
 31
0.0
  0
LINE
  5
16A
102
{ACAD_REACTORS
330
167
102
}
100
AcDbEntity
  8
BUILDING_ENVELOPE
  6
CONTINUOUS
 62
     7
100
AcDbLine
 10
17.026001
 20
26.371181
 30
0.0
 11
16.901001
 21
26.371181
 31
0.0
  0
LINE
  5
16B
102
{ACAD_REACTORS
330
167
102
}
100
AcDbEntity
  8
BUILDING_ENVELOPE
  6
CONTINUOUS
 62
     7
100
AcDbLine
 10
16.776001
 20
26.371181
 30
0.0
 11
16.692667
 21
26.371181
 31
0.0
  0
LINE
  5
16C
102
{ACAD_REACTORS
330
167
102
}
100
AcDbEntity
  8
BUILDING_ENVELOPE
  6
CONTINUOUS
 62
     7
100
AcDbLine
 10
16.692667
 20
26.371181
 30
0.0
 11
16.692667
 21
26.204514
 31
0.0
  0
LINE
  5
16D
102
{ACAD_REACTORS
330
170
102
}
100
AcDbEntity
  8
BUILDING_ENVELOPE
  6
CONTINUOUS
 62
     7
100
AcDbLine
 10
16.901001
 20
28.871181
 30
0.0
 11
16.901001
 21
28.829514
 31
0.0
  0
LINE
  5
16E
102
{ACAD_REACTORS
330
170
102
}
100
AcDbEntity
  8
BUILDING_ENVELOPE
  6
CONTINUOUS
 62
     7
100
AcDbLine
 10
16.901001
 20
28.829514
 30
0.0
 11
16.776001
 21
28.829514
 31
0.0
  0
LINE
  5
16F
102
{ACAD_REACTORS
330
170
102
}
100
AcDbEntity
  8
BUILDING_ENVELOPE
  6
CONTINUOUS
 62
     7
100
AcDbLine
 10
16.776001
 20
28.829514
 30
0.0
 11
16.776001
 21
28.871181
 31
0.0
  0
HATCH
  5
170
102
{ACAD_REACTORS
330
160
102
}
100
AcDbEntity
  8
BUILDING_ENVELOPE
 62
     7
100
AcDbHatch
 10
0.0
 20
0.0
 30
0.0
210
0.0
220
0.0
230
1.0
  2
SOLID
 70
     1
 71
     1
 91
        2
 92
        1
 93
        4
 72
     1
 10
16.9010007650788339
 20
28.8711805292893544
 11
16.9010007650788339
 21
28.8295138626226901
 72
     1
 10
16.9010007650788339
 20
28.8295138626226901
 11
16.7760007650788339
 21
28.8295138626226901
 72
     1
 10
16.7760007650788339
 20
28.8295138626226901
 11
16.7760007650788339
 21
28.8711805292893544
 72
     1
 10
16.7760007650788339
 20
28.8711805292893544
 11
16.9010007650788339
 21
28.8711805292893544
 97
        3
330
16D
330
16E
330
16F
 92
        1
 93
        4
 72
     1
 10
16.9010007650788339
 20
26.3711805292893544
 11
16.9010007650788339
 21
26.4128471959560223
 72
     1
 10
16.9010007650788339
 20
26.4128471959560223
 11
16.7760007650788339
 21
26.4128471959560223
 72
     1
 10
16.7760007650788339
 20
26.4128471959560223
 11
16.7760007650788339
 21
26.3711805292893544
 72
     1
 10
16.7760007650788339
 20
26.3711805292893544
 11
16.9010007650788339
 21
26.3711805292893544
 97
        3
330
171
330
172
330
173
 75
     0
 76
     1
 98
        0
  0
LINE
  5
171
102
{ACAD_REACTORS
330
170
102
}
100
AcDbEntity
  8
BUILDING_ENVELOPE
  6
CONTINUOUS
 62
     7
100
AcDbLine
 10
16.901001
 20
26.371181
 30
0.0
 11
16.901001
 21
26.412847
 31
0.0
  0
LINE
  5
172
102
{ACAD_REACTORS
330
170
102
}
100
AcDbEntity
  8
BUILDING_ENVELOPE
  6
CONTINUOUS
 62
     7
100
AcDbLine
 10
16.901001
 20
26.412847
 30
0.0
 11
16.776001
 21
26.412847
 31
0.0
  0
LINE
  5
173
102
{ACAD_REACTORS
330
170
102
}
100
AcDbEntity
  8
BUILDING_ENVELOPE
  6
CONTINUOUS
 62
     7
100
AcDbLine
 10
16.776001
 20
26.412847
 30
0.0
 11
16.776001
 21
26.371181
 31
0.0
  0
LINE
  5
174
102
{ACAD_REACTORS
330
160
102
}
100
AcDbEntity
  8
BUILDING_ENVELOPE
  6
CONTINUOUS
 62
     7
100
AcDbLine
 10
16.692667
 20
29.037847
 30
0.0
 11
17.026001
 21
29.037847
 31
0.0
  0
LINE
  5
175
102
{ACAD_REACTORS
330
160
102
}
100
AcDbEntity
  8
BUILDING_ENVELOPE
  6
CONTINUOUS
 62
     7
100
AcDbLine
 10
16.692667
 20
26.204514
 30
0.0
 11
17.026001
 21
26.204514
 31
0.0
  0
ARC
  5
176
102
{ACAD_REACTORS
330
160
102
}
100
AcDbEntity
  8
BUILDING_ENVELOPE
  6
CONTINUOUS
 62
     7
100
AcDbCircle
 10
17.026001
 20
28.871181
 30
0.0
 40
2.5
100
AcDbArc
 50
270.0
 51
0.0
  0
LWPOLYLINE
  5
177
102
{ACAD_REACTORS
330
178
102
}
100
AcDbEntity
  8
BUILDING_ENVELOPE
  6
CONTINUOUS
 62
     7
100
AcDbPolyline
 90
        4
 70
     1
 10
19.526001
 20
28.746181
 10
17.026001
 20
28.746181
 10
17.026001
 20
28.871181
 10
19.526001
 20
28.871181
  0
HATCH
  5
178
102
{ACAD_REACTORS
330
160
102
}
100
AcDbEntity
  8
BUILDING_ENVELOPE
 62
     7
100
AcDbHatch
 10
0.0
 20
0.0
 30
0.0
210
0.0
220
0.0
230
1.0
  2
SOLID
 70
     1
 71
     1
 91
        1
 92
        3
 72
     0
 73
     1
 93
        4
 10
19.5260007650788339
 20
28.7461805292893544
 10
17.0260007650788339
 20
28.7461805292893544
 10
17.0260007650788339
 20
28.8711805292893544
 10
19.5260007650788339
 20
28.8711805292893544
 97
        1
330
177
 75
     0
 76
     1
 98
        0
  0
LWPOLYLINE
  5
17A
102
{ACAD_REACTORS
330
180
102
}
100
AcDbEntity
  8
BUILDING_ENVELOPE
  6
CONTINUOUS
 62
     7
100
AcDbPolyline
 90
        4
 70
     1
 10
14.291626
 20
0.158667
 10
21.481904
 20
0.158667
 10
21.481904
 20
0.508
 10
14.291626
 20
0.508
  0
LINE
  5
17B
102
{ACAD_REACTORS
330
180
102
}
100
AcDbEntity
  8
BUILDING_ENVELOPE
  6
CONTINUOUS
 62
     7
100
AcDbLine
 10
14.291626
 20
0.166667
 30
0.0
 11
14.291626
 21
0.5
 31
0.0
  0
LINE
  5
17C
102
{ACAD_REACTORS
330
180
102
}
100
AcDbEntity
  8
BUILDING_ENVELOPE
  6
CONTINUOUS
 62
     7
100
AcDbLine
 10
14.291626
 20
0.5
 30
0.0
 11
14.458292
 21
0.5
 31
0.0
  0
LINE
  5
17D
102
{ACAD_REACTORS
330
180
102
}
100
AcDbEntity
  8
BUILDING_ENVELOPE
  6
CONTINUOUS
 62
     7
100
AcDbLine
 10
14.458292
 20
0.5
 30
0.0
 11
14.458292
 21
0.416667
 31
0.0
  0
LINE
  5
17E
102
{ACAD_REACTORS
330
180
102
}
100
AcDbEntity
  8
BUILDING_ENVELOPE
  6
CONTINUOUS
 62
     7
100
AcDbLine
 10
14.458292
 20
0.25
 30
0.0
 11
14.458292
 21
0.166667
 31
0.0
  0
LINE
  5
17F
102
{ACAD_REACTORS
330
180
102
}
100
AcDbEntity
  8
BUILDING_ENVELOPE
  6
CONTINUOUS
 62
     7
100
AcDbLine
 10
14.458292
 20
0.166667
 30
0.0
 11
14.291626
 21
0.166667
 31
0.0
  0
HATCH
  5
180
102
{ACAD_REACTORS
330
179
102
}
100
AcDbEntity
  8
BUILDING_ENVELOPE
 62
     7
100
AcDbHatch
 10
0.0
 20
0.0
 30
0.0
210
0.0
220
0.0
230
1.0
  2
SOLID
 70
     1
 71
     1
 91
        2
 92
        1
 93
        6
 72
     1
 10
14.2916257676251064
 20
0.1666666666666871
 11
14.2916257676251064
 21
0.5000000000000204
 72
     1
 10
14.2916257676251064
 20
0.5000000000000204
 11
14.4582924342917725
 21
0.5000000000000204
 72
     1
 10
14.4582924342917725
 20
0.5000000000000204
 11
14.4582924342917725
 21
0.4166666666666871
 72
     1
 10
14.4582924342917725
 20
0.4166666666666871
 11
14.4582924342917725
 21
0.2500000000000204
 72
     1
 10
14.4582924342917725
 20
0.2500000000000204
 11
14.4582924342917725
 21
0.1666666666666871
 72
     1
 10
14.4582924342917725
 20
0.1666666666666871
 11
14.2916257676251064
 21
0.1666666666666871
 97
        6
330
17A
330
17B
330
17C
330
17D
330
17E
330
17F
 92
        1
 93
        6
 72
     1
 10
21.4819035506414941
 20
0.1666666666666871
 11
21.4819035506414941
 21
0.5000000000000204
 72
     1
 10
21.4819035506414941
 20
0.5000000000000204
 11
21.3152368839748263
 21
0.5000000000000204
 72
     1
 10
21.3152368839748263
 20
0.5000000000000204
 11
21.3152368839748263
 21
0.4166666666666871
 72
     1
 10
21.3152368839748263
 20
0.4166666666666871
 11
21.3152368839748263
 21
0.2500000000000204
 72
     1
 10
21.3152368839748263
 20
0.2500000000000204
 11
21.3152368839748263
 21
0.1666666666666871
 72
     1
 10
21.3152368839748263
 20
0.1666666666666871
 11
21.4819035506414941
 21
0.1666666666666871
 97
        5
330
181
330
182
330
183
330
184
330
185
 75
     0
 76
     1
 98
        0
  0
LINE
  5
181
102
{ACAD_REACTORS
330
180
102
}
100
AcDbEntity
  8
BUILDING_ENVELOPE
  6
CONTINUOUS
 62
     7
100
AcDbLine
 10
21.481904
 20
0.166667
 30
0.0
 11
21.481904
 21
0.5
 31
0.0
  0
LINE
  5
182
102
{ACAD_REACTORS
330
180
102
}
100
AcDbEntity
  8
BUILDING_ENVELOPE
  6
CONTINUOUS
 62
     7
100
AcDbLine
 10
21.481904
 20
0.5
 30
0.0
 11
21.315237
 21
0.5
 31
0.0
  0
LINE
  5
183
102
{ACAD_REACTORS
330
180
102
}
100
AcDbEntity
  8
BUILDING_ENVELOPE
  6
CONTINUOUS
 62
     7
100
AcDbLine
 10
21.315237
 20
0.5
 30
0.0
 11
21.315237
 21
0.416667
 31
0.0
  0
LINE
  5
184
102
{ACAD_REACTORS
330
180
102
}
100
AcDbEntity
  8
BUILDING_ENVELOPE
  6
CONTINUOUS
 62
     7
100
AcDbLine
 10
21.315237
 20
0.25
 30
0.0
 11
21.315237
 21
0.166667
 31
0.0
  0
LINE
  5
185
102
{ACAD_REACTORS
330
180
102
}
100
AcDbEntity
  8
BUILDING_ENVELOPE
  6
CONTINUOUS
 62
     7
100
AcDbLine
 10
21.315237
 20
0.166667
 30
0.0
 11
21.481904
 21
0.166667
 31
0.0
  0
LWPOLYLINE
  5
186
102
{ACAD_REACTORS
330
187
102
}
100
AcDbEntity
  8
BUILDING_ENVELOPE
  6
CONTINUOUS
 62
     7
100
AcDbPolyline
 90
        4
 70
     1
 10
14.458292
 20
0.5
 10
14.624959
 20
0.5
 10
14.624959
 20
0.333333
 10
14.458292
 20
0.333333
  0
HATCH
  5
187
102
{ACAD_REACTORS
330
179
102
}
100
AcDbEntity
  8
BUILDING_ENVELOPE
 62
     7
100
AcDbHatch
 10
0.0
 20
0.0
 30
0.0
210
0.0
220
0.0
230
1.0
  2
SOLID
 70
     1
 71
     1
 91
        2
 92
        3
 72
     0
 73
     1
 93
        4
 10
14.4582924342917725
 20
0.5000000000000204
 10
14.6249591009584385
 20
0.5000000000000204
 10
14.6249591009584385
 20
0.3333333333333537
 10
14.4582924342917725
 20
0.3333333333333537
 97
        1
330
186
 92
        3
 72
     0
 73
     1
 93
        4
 10
21.3152368839748263
 20
0.5000000000000204
 10
21.148570217308162
 20
0.5000000000000204
 10
21.148570217308162
 20
0.3333333333333537
 10
21.3152368839748263
 20
0.3333333333333537
 97
        1
330
188
 75
     0
 76
     1
 98
        0
  0
LWPOLYLINE
  5
188
102
{ACAD_REACTORS
330
187
102
}
100
AcDbEntity
  8
BUILDING_ENVELOPE
  6
CONTINUOUS
 62
     7
100
AcDbPolyline
 90
        4
 70
     1
 10
21.315237
 20
0.5
 10
21.14857
 20
0.5
 10
21.14857
 20
0.333333
 10
21.315237
 20
0.333333
  0
LINE
  5
189
102
{ACAD_REACTORS
330
179
102
}
100
AcDbEntity
  8
BUILDING_ENVELOPE
  6
CONTINUOUS
 62
     7
100
AcDbLine
 10
14.624959
 20
0.416667
 30
0.0
 11
21.14857
 21
0.416667
 31
0.0
  0
LINE
  5
18A
102
{ACAD_REACTORS
330
179
102
}
100
AcDbEntity
  8
BUILDING_ENVELOPE
  6
CONTINUOUS
 62
     7
100
AcDbLine
 10
14.291626
 20
0.166667
 30
0.0
 11
14.291626
 21
0.5
 31
0.0
  0
LINE
  5
18B
102
{ACAD_REACTORS
330
179
102
}
100
AcDbEntity
  8
BUILDING_ENVELOPE
  6
CONTINUOUS
 62
     7
100
AcDbLine
 10
21.481904
 20
0.166667
 30
0.0
 11
21.481904
 21
0.5
 31
0.0
  0
LWPOLYLINE
  5
18C
102
{ACAD_REACTORS
330
18D
102
}
100
AcDbEntity
  8
BUILDING_ENVELOPE
  6
CONTINUOUS
 62
     7
100
AcDbPolyline
 90
        4
 70
     1
 10
14.458292
 20
0.333333
 10
14.541626
 20
0.333333
 10
14.541626
 20
0.25
 10
14.458292
 20
0.25
  0
HATCH
  5
18D
102
{ACAD_REACTORS
330
179
102
}
100
AcDbEntity
  8
BUILDING_ENVELOPE
 62
     7
100
AcDbHatch
 10
0.0
 20
0.0
 30
0.0
210
0.0
220
0.0
230
1.0
  2
SOLID
 70
     1
 71
     1
 91
        2
 92
        3
 72
     0
 73
     1
 93
        4
 10
14.4582924342917725
 20
0.3333333333333537
 10
14.5416257676251064
 20
0.3333333333333537
 10
14.5416257676251064
 20
0.2500000000000204
 10
14.4582924342917725
 20
0.2500000000000204
 97
        1
330
18C
 92
        3
 72
     0
 73
     1
 93
        4
 10
21.3152368839748263
 20
0.3333333333333537
 10
21.2319035506414941
 20
0.3333333333333537
 10
21.2319035506414941
 20
0.2500000000000204
 10
21.3152368839748263
 20
0.2500000000000204
 97
        1
330
18E
 75
     0
 76
     1
 98
        0
  0
LWPOLYLINE
  5
18E
102
{ACAD_REACTORS
330
18D
102
}
100
AcDbEntity
  8
BUILDING_ENVELOPE
  6
CONTINUOUS
 62
     7
100
AcDbPolyline
 90
        4
 70
     1
 10
21.315237
 20
0.333333
 10
21.231904
 20
0.333333
 10
21.231904
 20
0.25
 10
21.315237
 20
0.25
  0
LWPOLYLINE
  5
190
102
{ACAD_REACTORS
330
196
102
}
100
AcDbEntity
  8
BUILDING_ENVELOPE
  6
CONTINUOUS
 62
     7
100
AcDbPolyline
 90
        4
 70
     1
 10
8.578084
 20
29.677634
 10
11.411417
 20
29.677634
 10
11.411417
 20
30.026967
 10
8.578084
 20
30.026967
  0
LINE
  5
191
102
{ACAD_REACTORS
330
196
102
}
100
AcDbEntity
  8
BUILDING_ENVELOPE
  6
CONTINUOUS
 62
     7
100
AcDbLine
 10
11.411417
 20
29.685634
 30
0.0
 11
11.411417
 21
30.018967
 31
0.0
  0
LINE
  5
192
102
{ACAD_REACTORS
330
196
102
}
100
AcDbEntity
  8
BUILDING_ENVELOPE
  6
CONTINUOUS
 62
     7
100
AcDbLine
 10
11.411417
 20
30.018967
 30
0.0
 11
11.244751
 21
30.018967
 31
0.0
  0
LINE
  5
193
102
{ACAD_REACTORS
330
196
102
}
100
AcDbEntity
  8
BUILDING_ENVELOPE
  6
CONTINUOUS
 62
     7
100
AcDbLine
 10
11.244751
 20
30.018967
 30
0.0
 11
11.244751
 21
29.893967
 31
0.0
  0
LINE
  5
194
102
{ACAD_REACTORS
330
196
102
}
100
AcDbEntity
  8
BUILDING_ENVELOPE
  6
CONTINUOUS
 62
     7
100
AcDbLine
 10
11.244751
 20
29.768967
 30
0.0
 11
11.244751
 21
29.685634
 31
0.0
  0
LINE
  5
195
102
{ACAD_REACTORS
330
196
102
}
100
AcDbEntity
  8
BUILDING_ENVELOPE
  6
CONTINUOUS
 62
     7
100
AcDbLine
 10
11.244751
 20
29.685634
 30
0.0
 11
11.411417
 21
29.685634
 31
0.0
  0
HATCH
  5
196
102
{ACAD_REACTORS
330
18F
102
}
100
AcDbEntity
  8
BUILDING_ENVELOPE
 62
     7
100
AcDbHatch
 10
0.0
 20
0.0
 30
0.0
210
0.0
220
0.0
230
1.0
  2
SOLID
 70
     1
 71
     1
 91
        2
 92
        1
 93
        6
 72
     1
 10
11.411417439457967
 20
29.6856336819652995
 11
11.411417439457967
 21
30.0189670152986317
 72
     1
 10
11.411417439457967
 20
30.0189670152986317
 11
11.244750772791301
 21
30.0189670152986317
 72
     1
 10
11.244750772791301
 20
30.0189670152986317
 11
11.244750772791301
 21
29.8939670152986317
 72
     1
 10
11.244750772791301
 20
29.8939670152986317
 11
11.244750772791301
 21
29.7689670152986317
 72
     1
 10
11.244750772791301
 20
29.7689670152986317
 11
11.244750772791301
 21
29.6856336819652995
 72
     1
 10
11.244750772791301
 20
29.6856336819652995
 11
11.411417439457967
 21
29.6856336819652995
 97
        6
330
190
330
191
330
192
330
193
330
194
330
195
 92
        1
 93
        6
 72
     1
 10
8.5780841061246331
 20
29.6856336819652995
 11
8.5780841061246331
 21
30.0189670152986317
 72
     1
 10
8.5780841061246331
 20
30.0189670152986317
 11
8.7447507727912992
 21
30.0189670152986317
 72
     1
 10
8.7447507727912992
 20
30.0189670152986317
 11
8.7447507727912992
 21
29.8939670152986317
 72
     1
 10
8.7447507727912992
 20
29.8939670152986317
 11
8.7447507727912992
 21
29.7689670152986317
 72
     1
 10
8.7447507727912992
 20
29.7689670152986317
 11
8.7447507727912992
 21
29.6856336819652995
 72
     1
 10
8.7447507727912992
 20
29.6856336819652995
 11
8.5780841061246331
 21
29.6856336819652995
 97
        5
330
197
330
198
330
199
330
19A
330
19B
 75
     0
 76
     1
 98
        0
  0
LINE
  5
197
102
{ACAD_REACTORS
330
196
102
}
100
AcDbEntity
  8
BUILDING_ENVELOPE
  6
CONTINUOUS
 62
     7
100
AcDbLine
 10
8.578084
 20
29.685634
 30
0.0
 11
8.578084
 21
30.018967
 31
0.0
  0
LINE
  5
198
102
{ACAD_REACTORS
330
196
102
}
100
AcDbEntity
  8
BUILDING_ENVELOPE
  6
CONTINUOUS
 62
     7
100
AcDbLine
 10
8.578084
 20
30.018967
 30
0.0
 11
8.744751
 21
30.018967
 31
0.0
  0
LINE
  5
199
102
{ACAD_REACTORS
330
196
102
}
100
AcDbEntity
  8
BUILDING_ENVELOPE
  6
CONTINUOUS
 62
     7
100
AcDbLine
 10
8.744751
 20
30.018967
 30
0.0
 11
8.744751
 21
29.893967
 31
0.0
  0
LINE
  5
19A
102
{ACAD_REACTORS
330
196
102
}
100
AcDbEntity
  8
BUILDING_ENVELOPE
  6
CONTINUOUS
 62
     7
100
AcDbLine
 10
8.744751
 20
29.768967
 30
0.0
 11
8.744751
 21
29.685634
 31
0.0
  0
LINE
  5
19B
102
{ACAD_REACTORS
330
196
102
}
100
AcDbEntity
  8
BUILDING_ENVELOPE
  6
CONTINUOUS
 62
     7
100
AcDbLine
 10
8.744751
 20
29.685634
 30
0.0
 11
8.578084
 21
29.685634
 31
0.0
  0
LINE
  5
19C
102
{ACAD_REACTORS
330
19F
102
}
100
AcDbEntity
  8
BUILDING_ENVELOPE
  6
CONTINUOUS
 62
     7
100
AcDbLine
 10
11.244751
 20
29.893967
 30
0.0
 11
11.203084
 21
29.893967
 31
0.0
  0
LINE
  5
19D
102
{ACAD_REACTORS
330
19F
102
}
100
AcDbEntity
  8
BUILDING_ENVELOPE
  6
CONTINUOUS
 62
     7
100
AcDbLine
 10
11.203084
 20
29.893967
 30
0.0
 11
11.203084
 21
29.768967
 31
0.0
  0
LINE
  5
19E
102
{ACAD_REACTORS
330
19F
102
}
100
AcDbEntity
  8
BUILDING_ENVELOPE
  6
CONTINUOUS
 62
     7
100
AcDbLine
 10
11.203084
 20
29.768967
 30
0.0
 11
11.244751
 21
29.768967
 31
0.0
  0
HATCH
  5
19F
102
{ACAD_REACTORS
330
18F
102
}
100
AcDbEntity
  8
BUILDING_ENVELOPE
 62
     7
100
AcDbHatch
 10
0.0
 20
0.0
 30
0.0
210
0.0
220
0.0
230
1.0
  2
SOLID
 70
     1
 71
     1
 91
        2
 92
        1
 93
        4
 72
     1
 10
11.244750772791301
 20
29.8939670152986317
 11
11.2030841061246349
 21
29.8939670152986317
 72
     1
 10
11.2030841061246349
 20
29.8939670152986317
 11
11.2030841061246349
 21
29.7689670152986317
 72
     1
 10
11.2030841061246349
 20
29.7689670152986317
 11
11.244750772791301
 21
29.7689670152986317
 72
     1
 10
11.244750772791301
 20
29.7689670152986317
 11
11.244750772791301
 21
29.8939670152986317
 97
        3
330
19C
330
19D
330
19E
 92
        1
 93
        4
 72
     1
 10
8.7447507727912992
 20
29.8939670152986317
 11
8.786417439457967
 21
29.8939670152986317
 72
     1
 10
8.786417439457967
 20
29.8939670152986317
 11
8.786417439457967
 21
29.7689670152986317
 72
     1
 10
8.786417439457967
 20
29.7689670152986317
 11
8.7447507727912992
 21
29.7689670152986317
 72
     1
 10
8.7447507727912992
 20
29.7689670152986317
 11
8.7447507727912992
 21
29.8939670152986317
 97
        3
330
1A0
330
1A1
330
1A2
 75
     0
 76
     1
 98
        0
  0
LINE
  5
1A0
102
{ACAD_REACTORS
330
19F
102
}
100
AcDbEntity
  8
BUILDING_ENVELOPE
  6
CONTINUOUS
 62
     7
100
AcDbLine
 10
8.744751
 20
29.893967
 30
0.0
 11
8.786417
 21
29.893967
 31
0.0
  0
LINE
  5
1A1
102
{ACAD_REACTORS
330
19F
102
}
100
AcDbEntity
  8
BUILDING_ENVELOPE
  6
CONTINUOUS
 62
     7
100
AcDbLine
 10
8.786417
 20
29.893967
 30
0.0
 11
8.786417
 21
29.768967
 31
0.0
  0
LINE
  5
1A2
102
{ACAD_REACTORS
330
19F
102
}
100
AcDbEntity
  8
BUILDING_ENVELOPE
  6
CONTINUOUS
 62
     7
100
AcDbLine
 10
8.786417
 20
29.768967
 30
0.0
 11
8.744751
 21
29.768967
 31
0.0
  0
LINE
  5
1A3
102
{ACAD_REACTORS
330
18F
102
}
100
AcDbEntity
  8
BUILDING_ENVELOPE
  6
CONTINUOUS
 62
     7
100
AcDbLine
 10
11.411417
 20
29.685634
 30
0.0
 11
11.411417
 21
30.018967
 31
0.0
  0
LINE
  5
1A4
102
{ACAD_REACTORS
330
18F
102
}
100
AcDbEntity
  8
BUILDING_ENVELOPE
  6
CONTINUOUS
 62
     7
100
AcDbLine
 10
8.578084
 20
29.685634
 30
0.0
 11
8.578084
 21
30.018967
 31
0.0
  0
ARC
  5
1A5
102
{ACAD_REACTORS
330
18F
102
}
100
AcDbEntity
  8
BUILDING_ENVELOPE
  6
CONTINUOUS
 62
     7
100
AcDbCircle
 10
11.244751
 20
30.018967
 30
0.0
 40
2.5
100
AcDbArc
 50
90.0
 51
180.0
  0
LWPOLYLINE
  5
1A6
102
{ACAD_REACTORS
330
1A7
102
}
100
AcDbEntity
  8
BUILDING_ENVELOPE
  6
CONTINUOUS
 62
     7
100
AcDbPolyline
 90
        4
 70
     1
 10
11.119751
 20
32.518967
 10
11.119751
 20
30.018967
 10
11.244751
 20
30.018967
 10
11.244751
 20
32.518967
  0
HATCH
  5
1A7
102
{ACAD_REACTORS
330
18F
102
}
100
AcDbEntity
  8
BUILDING_ENVELOPE
 62
     7
100
AcDbHatch
 10
0.0
 20
0.0
 30
0.0
210
0.0
220
0.0
230
1.0
  2
SOLID
 70
     1
 71
     1
 91
        1
 92
        3
 72
     0
 73
     1
 93
        4
 10
11.119750772791301
 20
32.5189670152986281
 10
11.119750772791301
 20
30.0189670152986317
 10
11.244750772791301
 20
30.0189670152986317
 10
11.244750772791301
 20
32.5189670152986281
 97
        1
330
1A6
 75
     0
 76
     1
 98
        0
  0
LWPOLYLINE
  5
1A9
102
{ACAD_REACTORS
330
1AF
102
}
100
AcDbEntity
  8
BUILDING_ENVELOPE
  6
CONTINUOUS
 62
     7
100
AcDbPolyline
 90
        4
 70
     1
 10
21.624959
 20
41.083884
 10
24.458292
 20
41.083884
 10
24.458292
 20
41.433217
 10
21.624959
 20
41.433217
  0
LINE
  5
1AA
102
{ACAD_REACTORS
330
1AF
102
}
100
AcDbEntity
  8
BUILDING_ENVELOPE
  6
CONTINUOUS
 62
     7
100
AcDbLine
 10
24.458292
 20
41.091884
 30
0.0
 11
24.458292
 21
41.425217
 31
0.0
  0
LINE
  5
1AB
102
{ACAD_REACTORS
330
1AF
102
}
100
AcDbEntity
  8
BUILDING_ENVELOPE
  6
CONTINUOUS
 62
     7
100
AcDbLine
 10
24.458292
 20
41.425217
 30
0.0
 11
24.291626
 21
41.425217
 31
0.0
  0
LINE
  5
1AC
102
{ACAD_REACTORS
330
1AF
102
}
100
AcDbEntity
  8
BUILDING_ENVELOPE
  6
CONTINUOUS
 62
     7
100
AcDbLine
 10
24.291626
 20
41.425217
 30
0.0
 11
24.291626
 21
41.300217
 31
0.0
  0
LINE
  5
1AD
102
{ACAD_REACTORS
330
1AF
102
}
100
AcDbEntity
  8
BUILDING_ENVELOPE
  6
CONTINUOUS
 62
     7
100
AcDbLine
 10
24.291626
 20
41.175217
 30
0.0
 11
24.291626
 21
41.091884
 31
0.0
  0
LINE
  5
1AE
102
{ACAD_REACTORS
330
1AF
102
}
100
AcDbEntity
  8
BUILDING_ENVELOPE
  6
CONTINUOUS
 62
     7
100
AcDbLine
 10
24.291626
 20
41.091884
 30
0.0
 11
24.458292
 21
41.091884
 31
0.0
  0
HATCH
  5
1AF
102
{ACAD_REACTORS
330
1A8
102
}
100
AcDbEntity
  8
BUILDING_ENVELOPE
 62
     7
100
AcDbHatch
 10
0.0
 20
0.0
 30
0.0
210
0.0
220
0.0
230
1.0
  2
SOLID
 70
     1
 71
     1
 91
        2
 92
        1
 93
        6
 72
     1
 10
24.4582924249787155
 20
41.0918836822564089
 11
24.4582924249787155
 21
41.4252170155897375
 72
     1
 10
24.4582924249787155
 20
41.4252170155897375
 11
24.2916257583120512
 21
41.4252170155897375
 72
     1
 10
24.2916257583120512
 20
41.4252170155897375
 11
24.2916257583120512
 21
41.3002170155897375
 72
     1
 10
24.2916257583120512
 20
41.3002170155897375
 11
24.2916257583120512
 21
41.1752170155897375
 72
     1
 10
24.2916257583120512
 20
41.1752170155897375
 11
24.2916257583120512
 21
41.0918836822564089
 72
     1
 10
24.2916257583120512
 20
41.0918836822564089
 11
24.4582924249787155
 21
41.0918836822564089
 97
        6
330
1A9
330
1AA
330
1AB
330
1AC
330
1AD
330
1AE
 92
        1
 93
        6
 72
     1
 10
21.6249590916453833
 20
41.0918836822564089
 11
21.6249590916453833
 21
41.4252170155897375
 72
     1
 10
21.6249590916453833
 20
41.4252170155897375
 11
21.7916257583120512
 21
41.4252170155897375
 72
     1
 10
21.7916257583120512
 20
41.4252170155897375
 11
21.7916257583120512
 21
41.3002170155897375
 72
     1
 10
21.7916257583120512
 20
41.3002170155897375
 11
21.7916257583120512
 21
41.1752170155897375
 72
     1
 10
21.7916257583120512
 20
41.1752170155897375
 11
21.7916257583120512
 21
41.0918836822564089
 72
     1
 10
21.7916257583120512
 20
41.0918836822564089
 11
21.6249590916453833
 21
41.0918836822564089
 97
        5
330
1B0
330
1B1
330
1B2
330
1B3
330
1B4
 75
     0
 76
     1
 98
        0
  0
LINE
  5
1B0
102
{ACAD_REACTORS
330
1AF
102
}
100
AcDbEntity
  8
BUILDING_ENVELOPE
  6
CONTINUOUS
 62
     7
100
AcDbLine
 10
21.624959
 20
41.091884
 30
0.0
 11
21.624959
 21
41.425217
 31
0.0
  0
LINE
  5
1B1
102
{ACAD_REACTORS
330
1AF
102
}
100
AcDbEntity
  8
BUILDING_ENVELOPE
  6
CONTINUOUS
 62
     7
100
AcDbLine
 10
21.624959
 20
41.425217
 30
0.0
 11
21.791626
 21
41.425217
 31
0.0
  0
LINE
  5
1B2
102
{ACAD_REACTORS
330
1AF
102
}
100
AcDbEntity
  8
BUILDING_ENVELOPE
  6
CONTINUOUS
 62
     7
100
AcDbLine
 10
21.791626
 20
41.425217
 30
0.0
 11
21.791626
 21
41.300217
 31
0.0
  0
LINE
  5
1B3
102
{ACAD_REACTORS
330
1AF
102
}
100
AcDbEntity
  8
BUILDING_ENVELOPE
  6
CONTINUOUS
 62
     7
100
AcDbLine
 10
21.791626
 20
41.175217
 30
0.0
 11
21.791626
 21
41.091884
 31
0.0
  0
LINE
  5
1B4
102
{ACAD_REACTORS
330
1AF
102
}
100
AcDbEntity
  8
BUILDING_ENVELOPE
  6
CONTINUOUS
 62
     7
100
AcDbLine
 10
21.791626
 20
41.091884
 30
0.0
 11
21.624959
 21
41.091884
 31
0.0
  0
LINE
  5
1B5
102
{ACAD_REACTORS
330
1B8
102
}
100
AcDbEntity
  8
BUILDING_ENVELOPE
  6
CONTINUOUS
 62
     7
100
AcDbLine
 10
24.291626
 20
41.300217
 30
0.0
 11
24.249959
 21
41.300217
 31
0.0
  0
LINE
  5
1B6
102
{ACAD_REACTORS
330
1B8
102
}
100
AcDbEntity
  8
BUILDING_ENVELOPE
  6
CONTINUOUS
 62
     7
100
AcDbLine
 10
24.249959
 20
41.300217
 30
0.0
 11
24.249959
 21
41.175217
 31
0.0
  0
LINE
  5
1B7
102
{ACAD_REACTORS
330
1B8
102
}
100
AcDbEntity
  8
BUILDING_ENVELOPE
  6
CONTINUOUS
 62
     7
100
AcDbLine
 10
24.249959
 20
41.175217
 30
0.0
 11
24.291626
 21
41.175217
 31
0.0
  0
HATCH
  5
1B8
102
{ACAD_REACTORS
330
1A8
102
}
100
AcDbEntity
  8
BUILDING_ENVELOPE
 62
     7
100
AcDbHatch
 10
0.0
 20
0.0
 30
0.0
210
0.0
220
0.0
230
1.0
  2
SOLID
 70
     1
 71
     1
 91
        2
 92
        1
 93
        4
 72
     1
 10
24.2916257583120512
 20
41.3002170155897375
 11
24.2499590916453833
 21
41.3002170155897375
 72
     1
 10
24.2499590916453833
 20
41.3002170155897375
 11
24.2499590916453833
 21
41.1752170155897375
 72
     1
 10
24.2499590916453833
 20
41.1752170155897375
 11
24.2916257583120512
 21
41.1752170155897375
 72
     1
 10
24.2916257583120512
 20
41.1752170155897375
 11
24.2916257583120512
 21
41.3002170155897375
 97
        3
330
1B5
330
1B6
330
1B7
 92
        1
 93
        4
 72
     1
 10
21.7916257583120512
 20
41.3002170155897375
 11
21.8332924249787155
 21
41.3002170155897375
 72
     1
 10
21.8332924249787155
 20
41.3002170155897375
 11
21.8332924249787155
 21
41.1752170155897375
 72
     1
 10
21.8332924249787155
 20
41.1752170155897375
 11
21.7916257583120512
 21
41.1752170155897375
 72
     1
 10
21.7916257583120512
 20
41.1752170155897375
 11
21.7916257583120512
 21
41.3002170155897375
 97
        3
330
1B9
330
1BA
330
1BB
 75
     0
 76
     1
 98
        0
  0
LINE
  5
1B9
102
{ACAD_REACTORS
330
1B8
102
}
100
AcDbEntity
  8
BUILDING_ENVELOPE
  6
CONTINUOUS
 62
     7
100
AcDbLine
 10
21.791626
 20
41.300217
 30
0.0
 11
21.833292
 21
41.300217
 31
0.0
  0
LINE
  5
1BA
102
{ACAD_REACTORS
330
1B8
102
}
100
AcDbEntity
  8
BUILDING_ENVELOPE
  6
CONTINUOUS
 62
     7
100
AcDbLine
 10
21.833292
 20
41.300217
 30
0.0
 11
21.833292
 21
41.175217
 31
0.0
  0
LINE
  5
1BB
102
{ACAD_REACTORS
330
1B8
102
}
100
AcDbEntity
  8
BUILDING_ENVELOPE
  6
CONTINUOUS
 62
     7
100
AcDbLine
 10
21.833292
 20
41.175217
 30
0.0
 11
21.791626
 21
41.175217
 31
0.0
  0
LINE
  5
1BC
102
{ACAD_REACTORS
330
1A8
102
}
100
AcDbEntity
  8
BUILDING_ENVELOPE
  6
CONTINUOUS
 62
     7
100
AcDbLine
 10
24.458292
 20
41.091884
 30
0.0
 11
24.458292
 21
41.425217
 31
0.0
  0
LINE
  5
1BD
102
{ACAD_REACTORS
330
1A8
102
}
100
AcDbEntity
  8
BUILDING_ENVELOPE
  6
CONTINUOUS
 62
     7
100
AcDbLine
 10
21.624959
 20
41.091884
 30
0.0
 11
21.624959
 21
41.425217
 31
0.0
  0
ARC
  5
1BE
102
{ACAD_REACTORS
330
1A8
102
}
100
AcDbEntity
  8
BUILDING_ENVELOPE
  6
CONTINUOUS
 62
     7
100
AcDbCircle
 10
24.291626
 20
41.425217
 30
0.0
 40
2.5
100
AcDbArc
 50
90.0
 51
180.0
  0
LWPOLYLINE
  5
1BF
102
{ACAD_REACTORS
330
1C0
102
}
100
AcDbEntity
  8
BUILDING_ENVELOPE
  6
CONTINUOUS
 62
     7
100
AcDbPolyline
 90
        4
 70
     1
 10
24.166626
 20
43.925217
 10
24.166626
 20
41.425217
 10
24.291626
 20
41.425217
 10
24.291626
 20
43.925217
  0
HATCH
  5
1C0
102
{ACAD_REACTORS
330
1A8
102
}
100
AcDbEntity
  8
BUILDING_ENVELOPE
 62
     7
100
AcDbHatch
 10
0.0
 20
0.0
 30
0.0
210
0.0
220
0.0
230
1.0
  2
SOLID
 70
     1
 71
     1
 91
        1
 92
        3
 72
     0
 73
     1
 93
        4
 10
24.1666257583120512
 20
43.9252170155897375
 10
24.1666257583120512
 20
41.4252170155897375
 10
24.2916257583120512
 20
41.4252170155897375
 10
24.2916257583120512
 20
43.9252170155897375
 97
        1
330
1BF
 75
     0
 76
     1
 98
        0
  0
LWPOLYLINE
  5
1C2
102
{ACAD_REACTORS
330
1C8
102
}
100
AcDbEntity
  8
BUILDING_ENVELOPE
  6
CONTINUOUS
 62
     7
100
AcDbPolyline
 90
        4
 70
     1
 10
13.610152
 20
14.46455
 10
17.535445
 20
18.075162
 10
17.29895
 20
18.332269
 10
13.373657
 20
14.721656
  0
LINE
  5
1C3
102
{ACAD_REACTORS
330
1C8
102
}
100
AcDbEntity
  8
BUILDING_ENVELOPE
  6
CONTINUOUS
 62
     7
100
AcDbLine
 10
17.530029
 20
18.08105
 30
0.0
 11
17.304366
 21
18.326381
 31
0.0
  0
LINE
  5
1C4
102
{ACAD_REACTORS
330
1C8
102
}
100
AcDbEntity
  8
BUILDING_ENVELOPE
  6
CONTINUOUS
 62
     7
100
AcDbLine
 10
17.304366
 20
18.326381
 30
0.0
 11
17.1817
 21
18.213549
 31
0.0
  0
LINE
  5
1C5
102
{ACAD_REACTORS
330
1C8
102
}
100
AcDbEntity
  8
BUILDING_ENVELOPE
  6
CONTINUOUS
 62
     7
100
AcDbLine
 10
17.1817
 20
18.213549
 30
0.0
 11
17.266324
 21
18.12155
 31
0.0
  0
LINE
  5
1C6
102
{ACAD_REACTORS
330
1C8
102
}
100
AcDbEntity
  8
BUILDING_ENVELOPE
  6
CONTINUOUS
 62
     7
100
AcDbLine
 10
17.350948
 20
18.029551
 30
0.0
 11
17.407363
 21
17.968219
 31
0.0
  0
LINE
  5
1C7
102
{ACAD_REACTORS
330
1C8
102
}
100
AcDbEntity
  8
BUILDING_ENVELOPE
  6
CONTINUOUS
 62
     7
100
AcDbLine
 10
17.407363
 20
17.968219
 30
0.0
 11
17.530029
 21
18.08105
 31
0.0
  0
HATCH
  5
1C8
102
{ACAD_REACTORS
330
1C1
102
}
100
AcDbEntity
  8
BUILDING_ENVELOPE
 62
     7
100
AcDbHatch
 10
0.0
 20
0.0
 30
0.0
210
0.0
220
0.0
230
1.0
  2
SOLID
 70
     1
 71
     1
 91
        2
 92
        1
 93
        6
 72
     1
 10
17.5300288450470489
 20
18.0810502487778564
 11
17.3043655468311677
 21
18.326381019268311
 72
     1
 10
17.3043655468311677
 20
18.326381019268311
 11
17.1817001615859404
 21
18.2135493701603686
 72
     1
 10
17.1817001615859404
 20
18.2135493701603686
 11
17.2663238984168963
 21
18.1215503312264481
 72
     1
 10
17.2663238984168963
 20
18.1215503312264481
 11
17.3509476352478522
 21
18.0295512922925276
 72
     1
 10
17.3509476352478522
 20
18.0295512922925276
 11
17.4073634598018216
 21
17.968218599669914
 72
     1
 10
17.4073634598018216
 20
17.968218599669914
 11
17.5300288450470489
 21
18.0810502487778564
 97
        6
330
1C2
330
1C3
330
1C4
330
1C5
330
1C6
330
1C7
 92
        1
 93
        6
 72
     1
 10
13.6047365171997647
 20
14.4704374773237241
 11
13.3790732189838835
 21
14.7157682478141787
 72
     1
 10
13.3790732189838835
 20
14.7157682478141787
 11
13.5017386042291108
 21
14.8285998969221211
 72
     1
 10
13.5017386042291108
 20
14.8285998969221211
 11
13.5863623410600667
 21
14.7366008579882006
 72
     1
 10
13.5863623410600667
 20
14.7366008579882006
 11
13.6709860778910226
 21
14.6446018190542802
 72
     1
 10
13.6709860778910226
 20
14.6446018190542802
 11
13.727401902444992
 21
14.5832691264316665
 72
     1
 10
13.727401902444992
 20
14.5832691264316665
 11
13.6047365171997647
 21
14.4704374773237241
 97
        5
330
1C9
330
1CA
330
1CB
330
1CC
330
1CD
 75
     0
 76
     1
 98
        0
  0
LINE
  5
1C9
102
{ACAD_REACTORS
330
1C8
102
}
100
AcDbEntity
  8
BUILDING_ENVELOPE
  6
CONTINUOUS
 62
     7
100
AcDbLine
 10
13.604737
 20
14.470437
 30
0.0
 11
13.379073
 21
14.715768
 31
0.0
  0
LINE
  5
1CA
102
{ACAD_REACTORS
330
1C8
102
}
100
AcDbEntity
  8
BUILDING_ENVELOPE
  6
CONTINUOUS
 62
     7
100
AcDbLine
 10
13.379073
 20
14.715768
 30
0.0
 11
13.501739
 21
14.8286
 31
0.0
  0
LINE
  5
1CB
102
{ACAD_REACTORS
330
1C8
102
}
100
AcDbEntity
  8
BUILDING_ENVELOPE
  6
CONTINUOUS
 62
     7
100
AcDbLine
 10
13.501739
 20
14.8286
 30
0.0
 11
13.586362
 21
14.736601
 31
0.0
  0
LINE
  5
1CC
102
{ACAD_REACTORS
330
1C8
102
}
100
AcDbEntity
  8
BUILDING_ENVELOPE
  6
CONTINUOUS
 62
     7
100
AcDbLine
 10
13.670986
 20
14.644602
 30
0.0
 11
13.727402
 21
14.583269
 31
0.0
  0
LINE
  5
1CD
102
{ACAD_REACTORS
330
1C8
102
}
100
AcDbEntity
  8
BUILDING_ENVELOPE
  6
CONTINUOUS
 62
     7
100
AcDbLine
 10
13.727402
 20
14.583269
 30
0.0
 11
13.604737
 21
14.470437
 31
0.0
  0
LINE
  5
1CE
102
{ACAD_REACTORS
330
1D1
102
}
100
AcDbEntity
  8
BUILDING_ENVELOPE
  6
CONTINUOUS
 62
     7
100
AcDbLine
 10
17.266324
 20
18.12155
 30
0.0
 11
17.235658
 21
18.093342
 31
0.0
  0
LINE
  5
1CF
102
{ACAD_REACTORS
330
1D1
102
}
100
AcDbEntity
  8
BUILDING_ENVELOPE
  6
CONTINUOUS
 62
     7
100
AcDbLine
 10
17.235658
 20
18.093342
 30
0.0
 11
17.320281
 21
18.001343
 31
0.0
  0
LINE
  5
1D0
102
{ACAD_REACTORS
330
1D1
102
}
100
AcDbEntity
  8
BUILDING_ENVELOPE
  6
CONTINUOUS
 62
     7
100
AcDbLine
 10
17.320281
 20
18.001343
 30
0.0
 11
17.350948
 21
18.029551
 31
0.0
  0
HATCH
  5
1D1
102
{ACAD_REACTORS
330
1C1
102
}
100
AcDbEntity
  8
BUILDING_ENVELOPE
 62
     7
100
AcDbHatch
 10
0.0
 20
0.0
 30
0.0
210
0.0
220
0.0
230
1.0
  2
SOLID
 70
     1
 71
     1
 91
        2
 92
        1
 93
        4
 72
     1
 10
17.2663238984168963
 20
18.1215503312264481
 11
17.2356575521055895
 21
18.0933424189494616
 72
     1
 10
17.2356575521055895
 20
18.0933424189494616
 11
17.3202812889365454
 21
18.0013433800155411
 72
     1
 10
17.3202812889365454
 20
18.0013433800155411
 11
17.3509476352478522
 21
18.0295512922925276
 72
     1
 10
17.3509476352478522
 20
18.0295512922925276
 11
17.2663238984168963
 21
18.1215503312264481
 97
        3
330
1CE
330
1CF
330
1D0
 92
        1
 93
        4
 72
     1
 10
13.5863623410600667
 20
14.7366008579882006
 11
13.6170286873713735
 21
14.7648087702651853
 72
     1
 10
13.6170286873713735
 20
14.7648087702651853
 11
13.7016524242023294
 21
14.6728097313312649
 72
     1
 10
13.7016524242023294
 20
14.6728097313312649
 11
13.6709860778910226
 21
14.6446018190542802
 72
     1
 10
13.6709860778910226
 20
14.6446018190542802
 11
13.5863623410600667
 21
14.7366008579882006
 97
        3
330
1D2
330
1D3
330
1D4
 75
     0
 76
     1
 98
        0
  0
LINE
  5
1D2
102
{ACAD_REACTORS
330
1D1
102
}
100
AcDbEntity
  8
BUILDING_ENVELOPE
  6
CONTINUOUS
 62
     7
100
AcDbLine
 10
13.586362
 20
14.736601
 30
0.0
 11
13.617029
 21
14.764809
 31
0.0
  0
LINE
  5
1D3
102
{ACAD_REACTORS
330
1D1
102
}
100
AcDbEntity
  8
BUILDING_ENVELOPE
  6
CONTINUOUS
 62
     7
100
AcDbLine
 10
13.617029
 20
14.764809
 30
0.0
 11
13.701652
 21
14.67281
 31
0.0
  0
LINE
  5
1D4
102
{ACAD_REACTORS
330
1D1
102
}
100
AcDbEntity
  8
BUILDING_ENVELOPE
  6
CONTINUOUS
 62
     7
100
AcDbLine
 10
13.701652
 20
14.67281
 30
0.0
 11
13.670986
 21
14.644602
 31
0.0
  0
LINE
  5
1D5
102
{ACAD_REACTORS
330
1C1
102
}
100
AcDbEntity
  8
BUILDING_ENVELOPE
  6
CONTINUOUS
 62
     7
100
AcDbLine
 10
17.530029
 20
18.08105
 30
0.0
 11
17.304366
 21
18.326381
 31
0.0
  0
LINE
  5
1D6
102
{ACAD_REACTORS
330
1C1
102
}
100
AcDbEntity
  8
BUILDING_ENVELOPE
  6
CONTINUOUS
 62
     7
100
AcDbLine
 10
13.604737
 20
14.470437
 30
0.0
 11
13.379073
 21
14.715768
 31
0.0
  0
ARC
  5
1D7
102
{ACAD_REACTORS
330
1C1
102
}
100
AcDbEntity
  8
BUILDING_ENVELOPE
  6
CONTINUOUS
 62
     7
100
AcDbCircle
 10
13.501739
 20
14.8286
 30
0.0
 40
2.5
100
AcDbArc
 50
42.608868
 51
132.608868
  0
ARC
  5
1D8
102
{ACAD_REACTORS
330
1C1
102
}
100
AcDbEntity
  8
BUILDING_ENVELOPE
  6
CONTINUOUS
 62
     7
100
AcDbCircle
 10
17.1817
 20
18.213549
 30
0.0
 40
2.5
100
AcDbArc
 50
132.608868
 51
222.608868
  0
LWPOLYLINE
  5
1D9
102
{ACAD_REACTORS
330
1DA
102
}
100
AcDbEntity
  8
BUILDING_ENVELOPE
  6
CONTINUOUS
 62
     7
100
AcDbPolyline
 90
        4
 70
     1
 10
11.809264
 20
16.668581
 10
13.501739
 20
14.8286
 10
13.593738
 20
14.913224
 10
11.901263
 20
16.753204
  0
HATCH
  5
1DA
102
{ACAD_REACTORS
330
1C1
102
}
100
AcDbEntity
  8
BUILDING_ENVELOPE
 62
     7
100
AcDbHatch
 10
0.0
 20
0.0
 30
0.0
210
0.0
220
0.0
230
1.0
  2
SOLID
 70
     1
 71
     1
 91
        1
 92
        3
 72
     0
 73
     1
 93
        4
 10
11.8092638676099853
 20
16.6685806756005377
 10
13.5017386042291108
 20
14.8285998969221211
 10
13.5937376431630312
 20
14.913223633753077
 10
11.9012629065439075
 20
16.7532044124314936
 97
        1
330
1D9
 75
     0
 76
     1
 98
        0
  0
LWPOLYLINE
  5
1DB
102
{ACAD_REACTORS
330
1DC
102
}
100
AcDbEntity
  8
BUILDING_ENVELOPE
  6
CONTINUOUS
 62
     7
100
AcDbPolyline
 90
        4
 70
     1
 10
15.397226
 20
19.968906
 10
17.089701
 20
18.128926
 10
17.1817
 20
18.213549
 10
15.489225
 20
20.05353
  0
HATCH
  5
1DC
102
{ACAD_REACTORS
330
1C1
102
}
100
AcDbEntity
  8
BUILDING_ENVELOPE
 62
     7
100
AcDbHatch
 10
0.0
 20
0.0
 30
0.0
210
0.0
220
0.0
230
1.0
  2
SOLID
 70
     1
 71
     1
 91
        1
 92
        3
 72
     0
 73
     1
 93
        4
 10
15.3972263860328944
 20
19.9689064120078257
 10
17.0897011226520199
 20
18.1289256333294091
 10
17.1817001615859404
 20
18.2135493701603686
 10
15.4892254249668184
 20
20.0535301488387816
 97
        1
330
1DB
 75
     0
 76
     1
 98
        0
  0
LWPOLYLINE
  5
1DE
102
{ACAD_REACTORS
330
1E4
102
}
100
AcDbEntity
  8
BUILDING_ENVELOPE
  6
CONTINUOUS
 62
     7
100
AcDbPolyline
 90
        4
 70
     1
 10
13.284001
 20
3.631597
 10
13.284001
 20
0.798264
 10
12.934667
 20
0.798264
 10
12.934667
 20
3.631597
  0
LINE
  5
1DF
102
{ACAD_REACTORS
330
1E4
102
}
100
AcDbEntity
  8
BUILDING_ENVELOPE
  6
CONTINUOUS
 62
     7
100
AcDbLine
 10
13.276001
 20
0.798264
 30
0.0
 11
12.942667
 21
0.798264
 31
0.0
  0
LINE
  5
1E0
102
{ACAD_REACTORS
330
1E4
102
}
100
AcDbEntity
  8
BUILDING_ENVELOPE
  6
CONTINUOUS
 62
     7
100
AcDbLine
 10
12.942667
 20
0.798264
 30
0.0
 11
12.942667
 21
0.964931
 31
0.0
  0
LINE
  5
1E1
102
{ACAD_REACTORS
330
1E4
102
}
100
AcDbEntity
  8
BUILDING_ENVELOPE
  6
CONTINUOUS
 62
     7
100
AcDbLine
 10
12.942667
 20
0.964931
 30
0.0
 11
13.067667
 21
0.964931
 31
0.0
  0
LINE
  5
1E2
102
{ACAD_REACTORS
330
1E4
102
}
100
AcDbEntity
  8
BUILDING_ENVELOPE
  6
CONTINUOUS
 62
     7
100
AcDbLine
 10
13.192667
 20
0.964931
 30
0.0
 11
13.276001
 21
0.964931
 31
0.0
  0
LINE
  5
1E3
102
{ACAD_REACTORS
330
1E4
102
}
100
AcDbEntity
  8
BUILDING_ENVELOPE
  6
CONTINUOUS
 62
     7
100
AcDbLine
 10
13.276001
 20
0.964931
 30
0.0
 11
13.276001
 21
0.798264
 31
0.0
  0
HATCH
  5
1E4
102
{ACAD_REACTORS
330
1DD
102
}
100
AcDbEntity
  8
BUILDING_ENVELOPE
 62
     7
100
AcDbHatch
 10
0.0
 20
0.0
 30
0.0
210
0.0
220
0.0
230
1.0
  2
SOLID
 70
     1
 71
     1
 91
        2
 92
        1
 93
        6
 72
     1
 10
13.2760007685711585
 20
0.798263886051935
 11
12.9426674352378246
 21
0.798263886051935
 72
     1
 10
12.9426674352378246
 20
0.798263886051935
 11
12.9426674352378246
 21
0.9649305527186016
 72
     1
 10
12.9426674352378246
 20
0.9649305527186016
 11
13.0676674352378246
 21
0.9649305527186016
 72
     1
 10
13.0676674352378246
 20
0.9649305527186016
 11
13.1926674352378246
 21
0.9649305527186016
 72
     1
 10
13.1926674352378246
 20
0.9649305527186016
 11
13.2760007685711585
 21
0.9649305527186016
 72
     1
 10
13.2760007685711585
 20
0.9649305527186016
 11
13.2760007685711585
 21
0.798263886051935
 97
        6
330
1DE
330
1DF
330
1E0
330
1E1
330
1E2
330
1E3
 92
        1
 93
        6
 72
     1
 10
13.2760007685711585
 20
3.6315972193852684
 11
12.9426674352378246
 21
3.6315972193852684
 72
     1
 10
12.9426674352378246
 20
3.6315972193852684
 11
12.9426674352378246
 21
3.4649305527186014
 72
     1
 10
12.9426674352378246
 20
3.4649305527186014
 11
13.0676674352378246
 21
3.4649305527186014
 72
     1
 10
13.0676674352378246
 20
3.4649305527186014
 11
13.1926674352378246
 21
3.4649305527186014
 72
     1
 10
13.1926674352378246
 20
3.4649305527186014
 11
13.2760007685711585
 21
3.4649305527186014
 72
     1
 10
13.2760007685711585
 20
3.4649305527186014
 11
13.2760007685711585
 21
3.6315972193852684
 97
        5
330
1E5
330
1E6
330
1E7
330
1E8
330
1E9
 75
     0
 76
     1
 98
        0
  0
LINE
  5
1E5
102
{ACAD_REACTORS
330
1E4
102
}
100
AcDbEntity
  8
BUILDING_ENVELOPE
  6
CONTINUOUS
 62
     7
100
AcDbLine
 10
13.276001
 20
3.631597
 30
0.0
 11
12.942667
 21
3.631597
 31
0.0
  0
LINE
  5
1E6
102
{ACAD_REACTORS
330
1E4
102
}
100
AcDbEntity
  8
BUILDING_ENVELOPE
  6
CONTINUOUS
 62
     7
100
AcDbLine
 10
12.942667
 20
3.631597
 30
0.0
 11
12.942667
 21
3.464931
 31
0.0
  0
LINE
  5
1E7
102
{ACAD_REACTORS
330
1E4
102
}
100
AcDbEntity
  8
BUILDING_ENVELOPE
  6
CONTINUOUS
 62
     7
100
AcDbLine
 10
12.942667
 20
3.464931
 30
0.0
 11
13.067667
 21
3.464931
 31
0.0
  0
LINE
  5
1E8
102
{ACAD_REACTORS
330
1E4
102
}
100
AcDbEntity
  8
BUILDING_ENVELOPE
  6
CONTINUOUS
 62
     7
100
AcDbLine
 10
13.192667
 20
3.464931
 30
0.0
 11
13.276001
 21
3.464931
 31
0.0
  0
LINE
  5
1E9
102
{ACAD_REACTORS
330
1E4
102
}
100
AcDbEntity
  8
BUILDING_ENVELOPE
  6
CONTINUOUS
 62
     7
100
AcDbLine
 10
13.276001
 20
3.464931
 30
0.0
 11
13.276001
 21
3.631597
 31
0.0
  0
LINE
  5
1EA
102
{ACAD_REACTORS
330
1ED
102
}
100
AcDbEntity
  8
BUILDING_ENVELOPE
  6
CONTINUOUS
 62
     7
100
AcDbLine
 10
13.067667
 20
0.964931
 30
0.0
 11
13.067667
 21
1.006597
 31
0.0
  0
LINE
  5
1EB
102
{ACAD_REACTORS
330
1ED
102
}
100
AcDbEntity
  8
BUILDING_ENVELOPE
  6
CONTINUOUS
 62
     7
100
AcDbLine
 10
13.067667
 20
1.006597
 30
0.0
 11
13.192667
 21
1.006597
 31
0.0
  0
LINE
  5
1EC
102
{ACAD_REACTORS
330
1ED
102
}
100
AcDbEntity
  8
BUILDING_ENVELOPE
  6
CONTINUOUS
 62
     7
100
AcDbLine
 10
13.192667
 20
1.006597
 30
0.0
 11
13.192667
 21
0.964931
 31
0.0
  0
HATCH
  5
1ED
102
{ACAD_REACTORS
330
1DD
102
}
100
AcDbEntity
  8
BUILDING_ENVELOPE
 62
     7
100
AcDbHatch
 10
0.0
 20
0.0
 30
0.0
210
0.0
220
0.0
230
1.0
  2
SOLID
 70
     1
 71
     1
 91
        2
 92
        1
 93
        4
 72
     1
 10
13.0676674352378246
 20
0.9649305527186016
 11
13.0676674352378246
 21
1.0065972193852684
 72
     1
 10
13.0676674352378246
 20
1.0065972193852684
 11
13.1926674352378246
 21
1.0065972193852684
 72
     1
 10
13.1926674352378246
 20
1.0065972193852684
 11
13.1926674352378246
 21
0.9649305527186016
 72
     1
 10
13.1926674352378246
 20
0.9649305527186016
 11
13.0676674352378246
 21
0.9649305527186016
 97
        3
330
1EA
330
1EB
330
1EC
 92
        1
 93
        4
 72
     1
 10
13.0676674352378246
 20
3.4649305527186014
 11
13.0676674352378246
 21
3.4232638860519349
 72
     1
 10
13.0676674352378246
 20
3.4232638860519349
 11
13.1926674352378246
 21
3.4232638860519349
 72
     1
 10
13.1926674352378246
 20
3.4232638860519349
 11
13.1926674352378246
 21
3.4649305527186014
 72
     1
 10
13.1926674352378246
 20
3.4649305527186014
 11
13.0676674352378246
 21
3.4649305527186014
 97
        3
330
1EE
330
1EF
330
1F0
 75
     0
 76
     1
 98
        0
  0
LINE
  5
1EE
102
{ACAD_REACTORS
330
1ED
102
}
100
AcDbEntity
  8
BUILDING_ENVELOPE
  6
CONTINUOUS
 62
     7
100
AcDbLine
 10
13.067667
 20
3.464931
 30
0.0
 11
13.067667
 21
3.423264
 31
0.0
  0
LINE
  5
1EF
102
{ACAD_REACTORS
330
1ED
102
}
100
AcDbEntity
  8
BUILDING_ENVELOPE
  6
CONTINUOUS
 62
     7
100
AcDbLine
 10
13.067667
 20
3.423264
 30
0.0
 11
13.192667
 21
3.423264
 31
0.0
  0
LINE
  5
1F0
102
{ACAD_REACTORS
330
1ED
102
}
100
AcDbEntity
  8
BUILDING_ENVELOPE
  6
CONTINUOUS
 62
     7
100
AcDbLine
 10
13.192667
 20
3.423264
 30
0.0
 11
13.192667
 21
3.464931
 31
0.0
  0
LINE
  5
1F1
102
{ACAD_REACTORS
330
1DD
102
}
100
AcDbEntity
  8
BUILDING_ENVELOPE
  6
CONTINUOUS
 62
     7
100
AcDbLine
 10
13.276001
 20
0.798264
 30
0.0
 11
12.942667
 21
0.798264
 31
0.0
  0
LINE
  5
1F2
102
{ACAD_REACTORS
330
1DD
102
}
100
AcDbEntity
  8
BUILDING_ENVELOPE
  6
CONTINUOUS
 62
     7
100
AcDbLine
 10
13.276001
 20
3.631597
 30
0.0
 11
12.942667
 21
3.631597
 31
0.0
  0
ARC
  5
1F3
102
{ACAD_REACTORS
330
1DD
102
}
100
AcDbEntity
  8
BUILDING_ENVELOPE
  6
CONTINUOUS
 62
     7
100
AcDbCircle
 10
12.942667
 20
0.964931
 30
0.0
 40
2.5
100
AcDbArc
 50
90.0
 51
180.0
  0
LWPOLYLINE
  5
1F4
102
{ACAD_REACTORS
330
1F5
102
}
100
AcDbEntity
  8
BUILDING_ENVELOPE
  6
CONTINUOUS
 62
     7
100
AcDbPolyline
 90
        4
 70
     1
 10
10.442667
 20
1.089931
 10
12.942667
 20
1.089931
 10
12.942667
 20
0.964931
 10
10.442667
 20
0.964931
  0
HATCH
  5
1F5
102
{ACAD_REACTORS
330
1DD
102
}
100
AcDbEntity
  8
BUILDING_ENVELOPE
 62
     7
100
AcDbHatch
 10
0.0
 20
0.0
 30
0.0
210
0.0
220
0.0
230
1.0
  2
SOLID
 70
     1
 71
     1
 91
        1
 92
        3
 72
     0
 73
     1
 93
        4
 10
10.4426674352378246
 20
1.0899305527186016
 10
12.9426674352378246
 20
1.0899305527186016
 10
12.9426674352378246
 20
0.9649305527186016
 10
10.4426674352378246
 20
0.9649305527186016
 97
        1
330
1F4
 75
     0
 76
     1
 98
        0
  0
LWPOLYLINE
  5
1F7
102
{ACAD_REACTORS
330
1FD
102
}
100
AcDbEntity
  8
BUILDING_ENVELOPE
  6
CONTINUOUS
 62
     7
100
AcDbPolyline
 90
        4
 70
     1
 10
9.999959
 20
14.509389
 10
12.833292
 20
14.509389
 10
12.833292
 20
14.160056
 10
9.999959
 20
14.160056
  0
LINE
  5
1F8
102
{ACAD_REACTORS
330
1FD
102
}
100
AcDbEntity
  8
BUILDING_ENVELOPE
  6
CONTINUOUS
 62
     7
100
AcDbLine
 10
12.833292
 20
14.501389
 30
0.0
 11
12.833292
 21
14.168056
 31
0.0
  0
LINE
  5
1F9
102
{ACAD_REACTORS
330
1FD
102
}
100
AcDbEntity
  8
BUILDING_ENVELOPE
  6
CONTINUOUS
 62
     7
100
AcDbLine
 10
12.833292
 20
14.168056
 30
0.0
 11
12.666626
 21
14.168056
 31
0.0
  0
LINE
  5
1FA
102
{ACAD_REACTORS
330
1FD
102
}
100
AcDbEntity
  8
BUILDING_ENVELOPE
  6
CONTINUOUS
 62
     7
100
AcDbLine
 10
12.666626
 20
14.168056
 30
0.0
 11
12.666626
 21
14.293056
 31
0.0
  0
LINE
  5
1FB
102
{ACAD_REACTORS
330
1FD
102
}
100
AcDbEntity
  8
BUILDING_ENVELOPE
  6
CONTINUOUS
 62
     7
100
AcDbLine
 10
12.666626
 20
14.418056
 30
0.0
 11
12.666626
 21
14.501389
 31
0.0
  0
LINE
  5
1FC
102
{ACAD_REACTORS
330
1FD
102
}
100
AcDbEntity
  8
BUILDING_ENVELOPE
  6
CONTINUOUS
 62
     7
100
AcDbLine
 10
12.666626
 20
14.501389
 30
0.0
 11
12.833292
 21
14.501389
 31
0.0
  0
HATCH
  5
1FD
102
{ACAD_REACTORS
330
1F6
102
}
100
AcDbEntity
  8
BUILDING_ENVELOPE
 62
     7
100
AcDbHatch
 10
0.0
 20
0.0
 30
0.0
210
0.0
220
0.0
230
1.0
  2
SOLID
 70
     1
 71
     1
 91
        2
 92
        1
 93
        6
 72
     1
 10
12.8332924381343005
 20
14.5013888749190478
 11
12.8332924381343005
 21
14.1680555415857157
 72
     1
 10
12.8332924381343005
 20
14.1680555415857157
 11
12.6666257714676327
 21
14.1680555415857157
 72
     1
 10
12.6666257714676327
 20
14.1680555415857157
 11
12.6666257714676327
 21
14.2930555415857157
 72
     1
 10
12.6666257714676327
 20
14.2930555415857157
 11
12.6666257714676327
 21
14.4180555415857157
 72
     1
 10
12.6666257714676327
 20
14.4180555415857157
 11
12.6666257714676327
 21
14.5013888749190478
 72
     1
 10
12.6666257714676327
 20
14.5013888749190478
 11
12.8332924381343005
 21
14.5013888749190478
 97
        6
330
1F7
330
1F8
330
1F9
330
1FA
330
1FB
330
1FC
 92
        1
 93
        6
 72
     1
 10
9.9999591048009666
 20
14.5013888749190478
 11
9.9999591048009666
 21
14.1680555415857157
 72
     1
 10
9.9999591048009666
 20
14.1680555415857157
 11
10.1666257714676327
 21
14.1680555415857157
 72
     1
 10
10.1666257714676327
 20
14.1680555415857157
 11
10.1666257714676327
 21
14.2930555415857157
 72
     1
 10
10.1666257714676327
 20
14.2930555415857157
 11
10.1666257714676327
 21
14.4180555415857157
 72
     1
 10
10.1666257714676327
 20
14.4180555415857157
 11
10.1666257714676327
 21
14.5013888749190478
 72
     1
 10
10.1666257714676327
 20
14.5013888749190478
 11
9.9999591048009666
 21
14.5013888749190478
 97
        5
330
1FE
330
1FF
330
200
330
201
330
202
 75
     0
 76
     1
 98
        0
  0
LINE
  5
1FE
102
{ACAD_REACTORS
330
1FD
102
}
100
AcDbEntity
  8
BUILDING_ENVELOPE
  6
CONTINUOUS
 62
     7
100
AcDbLine
 10
9.999959
 20
14.501389
 30
0.0
 11
9.999959
 21
14.168056
 31
0.0
  0
LINE
  5
1FF
102
{ACAD_REACTORS
330
1FD
102
}
100
AcDbEntity
  8
BUILDING_ENVELOPE
  6
CONTINUOUS
 62
     7
100
AcDbLine
 10
9.999959
 20
14.168056
 30
0.0
 11
10.166626
 21
14.168056
 31
0.0
  0
LINE
  5
200
102
{ACAD_REACTORS
330
1FD
102
}
100
AcDbEntity
  8
BUILDING_ENVELOPE
  6
CONTINUOUS
 62
     7
100
AcDbLine
 10
10.166626
 20
14.168056
 30
0.0
 11
10.166626
 21
14.293056
 31
0.0
  0
LINE
  5
201
102
{ACAD_REACTORS
330
1FD
102
}
100
AcDbEntity
  8
BUILDING_ENVELOPE
  6
CONTINUOUS
 62
     7
100
AcDbLine
 10
10.166626
 20
14.418056
 30
0.0
 11
10.166626
 21
14.501389
 31
0.0
  0
LINE
  5
202
102
{ACAD_REACTORS
330
1FD
102
}
100
AcDbEntity
  8
BUILDING_ENVELOPE
  6
CONTINUOUS
 62
     7
100
AcDbLine
 10
10.166626
 20
14.501389
 30
0.0
 11
9.999959
 21
14.501389
 31
0.0
  0
LINE
  5
203
102
{ACAD_REACTORS
330
206
102
}
100
AcDbEntity
  8
BUILDING_ENVELOPE
  6
CONTINUOUS
 62
     7
100
AcDbLine
 10
12.666626
 20
14.293056
 30
0.0
 11
12.624959
 21
14.293056
 31
0.0
  0
LINE
  5
204
102
{ACAD_REACTORS
330
206
102
}
100
AcDbEntity
  8
BUILDING_ENVELOPE
  6
CONTINUOUS
 62
     7
100
AcDbLine
 10
12.624959
 20
14.293056
 30
0.0
 11
12.624959
 21
14.418056
 31
0.0
  0
LINE
  5
205
102
{ACAD_REACTORS
330
206
102
}
100
AcDbEntity
  8
BUILDING_ENVELOPE
  6
CONTINUOUS
 62
     7
100
AcDbLine
 10
12.624959
 20
14.418056
 30
0.0
 11
12.666626
 21
14.418056
 31
0.0
  0
HATCH
  5
206
102
{ACAD_REACTORS
330
1F6
102
}
100
AcDbEntity
  8
BUILDING_ENVELOPE
 62
     7
100
AcDbHatch
 10
0.0
 20
0.0
 30
0.0
210
0.0
220
0.0
230
1.0
  2
SOLID
 70
     1
 71
     1
 91
        2
 92
        1
 93
        4
 72
     1
 10
12.6666257714676327
 20
14.2930555415857157
 11
12.6249591048009666
 21
14.2930555415857157
 72
     1
 10
12.6249591048009666
 20
14.2930555415857157
 11
12.6249591048009666
 21
14.4180555415857157
 72
     1
 10
12.6249591048009666
 20
14.4180555415857157
 11
12.6666257714676327
 21
14.4180555415857157
 72
     1
 10
12.6666257714676327
 20
14.4180555415857157
 11
12.6666257714676327
 21
14.2930555415857157
 97
        3
330
203
330
204
330
205
 92
        1
 93
        4
 72
     1
 10
10.1666257714676327
 20
14.2930555415857157
 11
10.2082924381343005
 21
14.2930555415857157
 72
     1
 10
10.2082924381343005
 20
14.2930555415857157
 11
10.2082924381343005
 21
14.4180555415857157
 72
     1
 10
10.2082924381343005
 20
14.4180555415857157
 11
10.1666257714676327
 21
14.4180555415857157
 72
     1
 10
10.1666257714676327
 20
14.4180555415857157
 11
10.1666257714676327
 21
14.2930555415857157
 97
        3
330
207
330
208
330
209
 75
     0
 76
     1
 98
        0
  0
LINE
  5
207
102
{ACAD_REACTORS
330
206
102
}
100
AcDbEntity
  8
BUILDING_ENVELOPE
  6
CONTINUOUS
 62
     7
100
AcDbLine
 10
10.166626
 20
14.293056
 30
0.0
 11
10.208292
 21
14.293056
 31
0.0
  0
LINE
  5
208
102
{ACAD_REACTORS
330
206
102
}
100
AcDbEntity
  8
BUILDING_ENVELOPE
  6
CONTINUOUS
 62
     7
100
AcDbLine
 10
10.208292
 20
14.293056
 30
0.0
 11
10.208292
 21
14.418056
 31
0.0
  0
LINE
  5
209
102
{ACAD_REACTORS
330
206
102
}
100
AcDbEntity
  8
BUILDING_ENVELOPE
  6
CONTINUOUS
 62
     7
100
AcDbLine
 10
10.208292
 20
14.418056
 30
0.0
 11
10.166626
 21
14.418056
 31
0.0
  0
LINE
  5
20A
102
{ACAD_REACTORS
330
1F6
102
}
100
AcDbEntity
  8
BUILDING_ENVELOPE
  6
CONTINUOUS
 62
     7
100
AcDbLine
 10
12.833292
 20
14.501389
 30
0.0
 11
12.833292
 21
14.168056
 31
0.0
  0
LINE
  5
20B
102
{ACAD_REACTORS
330
1F6
102
}
100
AcDbEntity
  8
BUILDING_ENVELOPE
  6
CONTINUOUS
 62
     7
100
AcDbLine
 10
9.999959
 20
14.501389
 30
0.0
 11
9.999959
 21
14.168056
 31
0.0
  0
ARC
  5
20C
102
{ACAD_REACTORS
330
1F6
102
}
100
AcDbEntity
  8
BUILDING_ENVELOPE
  6
CONTINUOUS
 62
     7
100
AcDbCircle
 10
12.666626
 20
14.168056
 30
0.0
 40
2.5
100
AcDbArc
 50
180.0
 51
270.0
  0
LWPOLYLINE
  5
20D
102
{ACAD_REACTORS
330
20E
102
}
100
AcDbEntity
  8
BUILDING_ENVELOPE
  6
CONTINUOUS
 62
     7
100
AcDbPolyline
 90
        4
 70
     1
 10
12.541626
 20
11.668056
 10
12.541626
 20
14.168056
 10
12.666626
 20
14.168056
 10
12.666626
 20
11.668056
  0
HATCH
  5
20E
102
{ACAD_REACTORS
330
1F6
102
}
100
AcDbEntity
  8
BUILDING_ENVELOPE
 62
     7
100
AcDbHatch
 10
0.0
 20
0.0
 30
0.0
210
0.0
220
0.0
230
1.0
  2
SOLID
 70
     1
 71
     1
 91
        1
 92
        3
 72
     0
 73
     1
 93
        4
 10
12.5416257714676327
 20
11.6680555415857157
 10
12.5416257714676327
 20
14.1680555415857157
 10
12.6666257714676327
 20
14.1680555415857157
 10
12.6666257714676327
 20
11.6680555415857157
 97
        1
330
20D
 75
     0
 76
     1
 98
        0
  0
LWPOLYLINE
  5
210
102
{ACAD_REACTORS
330
211
102
}
100
AcDbEntity
  8
SPACE
  6
CONTINUOUS
100
AcDbPolyline
 90
        4
 70
     1
 10
7.213501
 20
41.425217
 10
18.458292
 20
41.425217
 10
18.458292
 20
45.166667
 10
7.213501
 20
45.166667
  0
HATCH
  5
211
102
{ACAD_REACTORS
330
20F
102
}
100
AcDbEntity
  8
SPACE
 62
   254
100
AcDbHatch
 10
0.0
 20
0.0
 30
0.0
210
0.0
220
0.0
230
1.0
  2
SOLID
 70
     1
 71
     1
 91
        1
 92
        3
 72
     0
 73
     1
 93
        4
 10
7.2135007815951084
 20
41.4252170138888829
 10
18.4582924482617727
 20
41.4252170138888829
 10
18.4582924482617727
 20
45.1666666895602447
 10
7.2135007815951084
 20
45.1666666666666572
 97
        1
330
210
 75
     0
 76
     1
 98
        0
  0
MTEXT
  5
212
100
AcDbEntity
  8
SPACE
100
AcDbMText
 10
11.791626
 20
42.892421
 30
0.0
 40
0.500004
 41
2.946903
 71
     5
 72
     5
  1
\C7;\fCalibri|b0|i0|;\H0.50000381469727;Laundry\P42 sq. ft.\P\P
  0
LWPOLYLINE
  5
214
102
{ACAD_REACTORS
330
21A
102
}
100
AcDbEntity
  8
BUILDING_ENVELOPE
  6
CONTINUOUS
 62
     7
100
AcDbPolyline
 90
        4
 70
     1
 10
13.624959
 20
41.083884
 10
16.458292
 20
41.083884
 10
16.458292
 20
41.433217
 10
13.624959
 20
41.433217
  0
LINE
  5
215
102
{ACAD_REACTORS
330
21A
102
}
100
AcDbEntity
  8
BUILDING_ENVELOPE
  6
CONTINUOUS
 62
     7
100
AcDbLine
 10
16.458292
 20
41.091884
 30
0.0
 11
16.458292
 21
41.425217
 31
0.0
  0
LINE
  5
216
102
{ACAD_REACTORS
330
21A
102
}
100
AcDbEntity
  8
BUILDING_ENVELOPE
  6
CONTINUOUS
 62
     7
100
AcDbLine
 10
16.458292
 20
41.425217
 30
0.0
 11
16.291626
 21
41.425217
 31
0.0
  0
LINE
  5
217
102
{ACAD_REACTORS
330
21A
102
}
100
AcDbEntity
  8
BUILDING_ENVELOPE
  6
CONTINUOUS
 62
     7
100
AcDbLine
 10
16.291626
 20
41.425217
 30
0.0
 11
16.291626
 21
41.300217
 31
0.0
  0
LINE
  5
218
102
{ACAD_REACTORS
330
21A
102
}
100
AcDbEntity
  8
BUILDING_ENVELOPE
  6
CONTINUOUS
 62
     7
100
AcDbLine
 10
16.291626
 20
41.175217
 30
0.0
 11
16.291626
 21
41.091884
 31
0.0
  0
LINE
  5
219
102
{ACAD_REACTORS
330
21A
102
}
100
AcDbEntity
  8
BUILDING_ENVELOPE
  6
CONTINUOUS
 62
     7
100
AcDbLine
 10
16.291626
 20
41.091884
 30
0.0
 11
16.458292
 21
41.091884
 31
0.0
  0
HATCH
  5
21A
102
{ACAD_REACTORS
330
213
102
}
100
AcDbEntity
  8
BUILDING_ENVELOPE
 62
     7
100
AcDbHatch
 10
0.0
 20
0.0
 30
0.0
210
0.0
220
0.0
230
1.0
  2
SOLID
 70
     1
 71
     1
 91
        2
 92
        1
 93
        6
 72
     1
 10
16.458292448261723
 20
41.091883682256352
 11
16.458292448261723
 21
41.4252170155896877
 72
     1
 10
16.458292448261723
 20
41.4252170155896877
 11
16.2916257815950587
 21
41.4252170155896877
 72
     1
 10
16.2916257815950587
 20
41.4252170155896877
 11
16.2916257815950587
 21
41.3002170155896877
 72
     1
 10
16.2916257815950587
 20
41.3002170155896877
 11
16.2916257815950587
 21
41.1752170155896877
 72
     1
 10
16.2916257815950587
 20
41.1752170155896877
 11
16.2916257815950587
 21
41.091883682256352
 72
     1
 10
16.2916257815950587
 20
41.091883682256352
 11
16.458292448261723
 21
41.091883682256352
 97
        6
330
214
330
215
330
216
330
217
330
218
330
219
 92
        1
 93
        6
 72
     1
 10
13.6249591149283908
 20
41.091883682256352
 11
13.6249591149283908
 21
41.4252170155896877
 72
     1
 10
13.6249591149283908
 20
41.4252170155896877
 11
13.7916257815950587
 21
41.4252170155896877
 72
     1
 10
13.7916257815950587
 20
41.4252170155896877
 11
13.7916257815950587
 21
41.3002170155896877
 72
     1
 10
13.7916257815950587
 20
41.3002170155896877
 11
13.7916257815950587
 21
41.1752170155896877
 72
     1
 10
13.7916257815950587
 20
41.1752170155896877
 11
13.7916257815950587
 21
41.091883682256352
 72
     1
 10
13.7916257815950587
 20
41.091883682256352
 11
13.6249591149283908
 21
41.091883682256352
 97
        5
330
21B
330
21C
330
21D
330
21E
330
21F
 75
     0
 76
     1
 98
        0
  0
LINE
  5
21B
102
{ACAD_REACTORS
330
21A
102
}
100
AcDbEntity
  8
BUILDING_ENVELOPE
  6
CONTINUOUS
 62
     7
100
AcDbLine
 10
13.624959
 20
41.091884
 30
0.0
 11
13.624959
 21
41.425217
 31
0.0
  0
LINE
  5
21C
102
{ACAD_REACTORS
330
21A
102
}
100
AcDbEntity
  8
BUILDING_ENVELOPE
  6
CONTINUOUS
 62
     7
100
AcDbLine
 10
13.624959
 20
41.425217
 30
0.0
 11
13.791626
 21
41.425217
 31
0.0
  0
LINE
  5
21D
102
{ACAD_REACTORS
330
21A
102
}
100
AcDbEntity
  8
BUILDING_ENVELOPE
  6
CONTINUOUS
 62
     7
100
AcDbLine
 10
13.791626
 20
41.425217
 30
0.0
 11
13.791626
 21
41.300217
 31
0.0
  0
LINE
  5
21E
102
{ACAD_REACTORS
330
21A
102
}
100
AcDbEntity
  8
BUILDING_ENVELOPE
  6
CONTINUOUS
 62
     7
100
AcDbLine
 10
13.791626
 20
41.175217
 30
0.0
 11
13.791626
 21
41.091884
 31
0.0
  0
LINE
  5
21F
102
{ACAD_REACTORS
330
21A
102
}
100
AcDbEntity
  8
BUILDING_ENVELOPE
  6
CONTINUOUS
 62
     7
100
AcDbLine
 10
13.791626
 20
41.091884
 30
0.0
 11
13.624959
 21
41.091884
 31
0.0
  0
LINE
  5
220
102
{ACAD_REACTORS
330
223
102
}
100
AcDbEntity
  8
BUILDING_ENVELOPE
  6
CONTINUOUS
 62
     7
100
AcDbLine
 10
16.291626
 20
41.300217
 30
0.0
 11
16.249959
 21
41.300217
 31
0.0
  0
LINE
  5
221
102
{ACAD_REACTORS
330
223
102
}
100
AcDbEntity
  8
BUILDING_ENVELOPE
  6
CONTINUOUS
 62
     7
100
AcDbLine
 10
16.249959
 20
41.300217
 30
0.0
 11
16.249959
 21
41.175217
 31
0.0
  0
LINE
  5
222
102
{ACAD_REACTORS
330
223
102
}
100
AcDbEntity
  8
BUILDING_ENVELOPE
  6
CONTINUOUS
 62
     7
100
AcDbLine
 10
16.249959
 20
41.175217
 30
0.0
 11
16.291626
 21
41.175217
 31
0.0
  0
HATCH
  5
223
102
{ACAD_REACTORS
330
213
102
}
100
AcDbEntity
  8
BUILDING_ENVELOPE
 62
     7
100
AcDbHatch
 10
0.0
 20
0.0
 30
0.0
210
0.0
220
0.0
230
1.0
  2
SOLID
 70
     1
 71
     1
 91
        2
 92
        1
 93
        4
 72
     1
 10
16.2916257815950587
 20
41.3002170155896877
 11
16.2499591149283908
 21
41.3002170155896877
 72
     1
 10
16.2499591149283908
 20
41.3002170155896877
 11
16.2499591149283908
 21
41.1752170155896877
 72
     1
 10
16.2499591149283908
 20
41.1752170155896877
 11
16.2916257815950587
 21
41.1752170155896877
 72
     1
 10
16.2916257815950587
 20
41.1752170155896877
 11
16.2916257815950587
 21
41.3002170155896877
 97
        3
330
220
330
221
330
222
 92
        1
 93
        4
 72
     1
 10
13.7916257815950587
 20
41.3002170155896877
 11
13.8332924482617248
 21
41.3002170155896877
 72
     1
 10
13.8332924482617248
 20
41.3002170155896877
 11
13.8332924482617248
 21
41.1752170155896877
 72
     1
 10
13.8332924482617248
 20
41.1752170155896877
 11
13.7916257815950587
 21
41.1752170155896877
 72
     1
 10
13.7916257815950587
 20
41.1752170155896877
 11
13.7916257815950587
 21
41.3002170155896877
 97
        3
330
224
330
225
330
226
 75
     0
 76
     1
 98
        0
  0
LINE
  5
224
102
{ACAD_REACTORS
330
223
102
}
100
AcDbEntity
  8
BUILDING_ENVELOPE
  6
CONTINUOUS
 62
     7
100
AcDbLine
 10
13.791626
 20
41.300217
 30
0.0
 11
13.833292
 21
41.300217
 31
0.0
  0
LINE
  5
225
102
{ACAD_REACTORS
330
223
102
}
100
AcDbEntity
  8
BUILDING_ENVELOPE
  6
CONTINUOUS
 62
     7
100
AcDbLine
 10
13.833292
 20
41.300217
 30
0.0
 11
13.833292
 21
41.175217
 31
0.0
  0
LINE
  5
226
102
{ACAD_REACTORS
330
223
102
}
100
AcDbEntity
  8
BUILDING_ENVELOPE
  6
CONTINUOUS
 62
     7
100
AcDbLine
 10
13.833292
 20
41.175217
 30
0.0
 11
13.791626
 21
41.175217
 31
0.0
  0
LINE
  5
227
102
{ACAD_REACTORS
330
213
102
}
100
AcDbEntity
  8
BUILDING_ENVELOPE
  6
CONTINUOUS
 62
     7
100
AcDbLine
 10
16.458292
 20
41.091884
 30
0.0
 11
16.458292
 21
41.425217
 31
0.0
  0
LINE
  5
228
102
{ACAD_REACTORS
330
213
102
}
100
AcDbEntity
  8
BUILDING_ENVELOPE
  6
CONTINUOUS
 62
     7
100
AcDbLine
 10
13.624959
 20
41.091884
 30
0.0
 11
13.624959
 21
41.425217
 31
0.0
  0
ARC
  5
229
102
{ACAD_REACTORS
330
213
102
}
100
AcDbEntity
  8
BUILDING_ENVELOPE
  6
CONTINUOUS
 62
     7
100
AcDbCircle
 10
16.291626
 20
41.425217
 30
0.0
 40
2.5
100
AcDbArc
 50
90.0
 51
180.0
  0
LWPOLYLINE
  5
22A
102
{ACAD_REACTORS
330
22B
102
}
100
AcDbEntity
  8
BUILDING_ENVELOPE
  6
CONTINUOUS
 62
     7
100
AcDbPolyline
 90
        4
 70
     1
 10
16.166626
 20
43.925217
 10
16.166626
 20
41.425217
 10
16.291626
 20
41.425217
 10
16.291626
 20
43.925217
  0
HATCH
  5
22B
102
{ACAD_REACTORS
330
213
102
}
100
AcDbEntity
  8
BUILDING_ENVELOPE
 62
     7
100
AcDbHatch
 10
0.0
 20
0.0
 30
0.0
210
0.0
220
0.0
230
1.0
  2
SOLID
 70
     1
 71
     1
 91
        1
 92
        3
 72
     0
 73
     1
 93
        4
 10
16.1666257815950587
 20
43.9252170155896877
 10
16.1666257815950587
 20
41.4252170155896877
 10
16.2916257815950587
 20
41.4252170155896877
 10
16.2916257815950587
 20
43.9252170155896877
 97
        1
330
22A
 75
     0
 76
     1
 98
        0
  0
ENDSEC
  0
SECTION
  2
OBJECTS
  0
DICTIONARY
  5
C
100
AcDbDictionary
  3
ACAD_GROUP
350
D
  3
ACAD_MLINESTYLE
350
1B
  3
ACAD_SCALELIST
350
2C
  3
ACAD_VISUALSTYLE
350
51
  3
ACAD_MATERIAL
350
6A
  3
ACAD_TABLESTYLE
350
6E
  3
ACAD_MLEADERSTYLE
350
70
  0
DICTIONARY
  5
D
102
{ACAD_REACTORS
330
C
102
}
100
AcDbDictionary
  3
VISIOGROUP_0
350
74
  3
VISIOGROUP_1
350
79
  3
VISIOGROUP_2
350
80
  3
VISIOGROUP_3
350
89
  3
VISIOGROUP_4
350
8D
  3
VISIOGROUP_5
350
91
  3
VISIOGROUP_6
350
95
  3
VISIOGROUP_7
350
99
  3
VISIOGROUP_8
350
9D
  3
VISIOGROUP_9
350
A3
  3
VISIOGROUP_10
350
A8
  3
VISIOGROUP_11
350
AD
  3
VISIOGROUP_12
350
B2
  3
VISIOGROUP_13
350
BB
  3
VISIOGROUP_14
350
C2
  3
VISIOGROUP_15
350
CB
  3
VISIOGROUP_16
350
D4
  3
VISIOGROUP_17
350
DD
  3
VISIOGROUP_18
350
E6
  3
VISIOGROUP_19
350
ED
  3
VISIOGROUP_20
350
F2
  3
VISIOGROUP_21
350
F9
  3
VISIOGROUP_22
350
100
  3
VISIOGROUP_23
350
109
  3
VISIOGROUP_24
350
12E
  3
VISIOGROUP_25
350
147
  3
VISIOGROUP_26
350
160
  3
VISIOGROUP_27
350
179
  3
VISIOGROUP_28
350
18F
  3
VISIOGROUP_29
350
1A8
  3
VISIOGROUP_30
350
1C1
  3
VISIOGROUP_31
350
1DD
  3
VISIOGROUP_32
350
1F6
  3
VISIOGROUP_33
350
20F
  3
VISIOGROUP_34
350
213
  0
DICTIONARY
  5
1B
102
{ACAD_REACTORS
330
C
102
}
100
AcDbDictionary
  3
STANDARD
350
1C
  0
MLINESTYLE
  5
1C
102
{ACAD_REACTORS
330
1B
102
}
100
AcDbMlineStyle
  2
STANDARD
 70
     0
  3

 62
   256
 51
90.0
 52
90.0
 71
     2
 49
0.5
 62
   256
  6
BYLAYER
 49
-0.5
 62
   256
  6
BYLAYER
  0
DICTIONARY
  5
29
102
{ACAD_REACTORS
330
C
102
}
100
AcDbDictionary
  0
DICTIONARY
  5
2C
102
{ACAD_REACTORS
330
C
102
}
100
AcDbDictionary
  3
A0
350
2D
  3
A1
350
2E
  3
A2
350
2F
  3
A3
350
30
  3
A4
350
31
  3
A5
350
32
  3
A6
350
33
  3
A7
350
34
  3
A8
350
35
  3
A9
350
36
  3
B0
350
37
  3
B1
350
38
  3
B2
350
39
  3
B3
350
3A
  3
B4
350
3B
  3
B5
350
3C
  3
B6
350
3D
  3
B7
350
3E
  3
B8
350
3F
  3
B9
350
40
  3
C0
350
41
  3
C1
350
42
  3
C2
350
43
  3
C3
350
44
  3
C4
350
45
  3
C5
350
46
  3
C6
350
47
  3
C7
350
48
  3
C8
350
49
  3
C9
350
4A
  3
D0
350
4B
  3
D1
350
4C
  3
D2
350
4D
  0
DICTIONARY
  5
4E
102
{ACAD_REACTORS
330
C
102
}
100
AcDbDictionary
  3
MODEL
350
4F
  3
LAYOUT1
350
50
  0
DICTIONARY
  5
51
102
{ACAD_REACTORS
330
C
102
}
100
AcDbDictionary
  3
FLAT
350
52
  3
FLATWITHEDGES
350
53
  3
GOURAUD
350
54
  3
GOURAUDWITHEDGES
350
55
  3
2DWIREFRAME
350
56
  3
WIREFRAME
350
57
  3
HIDDEN
350
58
  3
BASIC
350
59
  3
REALISTIC
350
5A
  3
CONCEPTUAL
350
5B
  3
DIM
350
5C
  3
BRIGHTEN
350
5D
  3
THICKEN
350
5E
  3
LINEPATTERN
350
5F
  3
FACEPATTERN
350
60
  3
COLORCHANGE
350
61
  3
JITTEROFF
350
62
  3
OVERHANGOFF
350
63
  3
EDGECOLOROFF
350
64
  3
SHADES OF GRAY
350
65
  3
SKETCHY
350
66
  3
X-RAY
350
67
  3
SHADED WITH EDGES
350
68
  3
SHADED
350
69
  0
DICTIONARY
  5
6A
102
{ACAD_REACTORS
330
C
102
}
100
AcDbDictionary
  3
BYLAYER
350
6B
  3
BYBLOCK
350
6C
  3
GLOBAL
350
6D
  0
DICTIONARY
  5
6E
102
{ACAD_REACTORS
330
C
102
}
100
AcDbDictionary
  3
STANDARD
350
6F
  0
DICTIONARY
  5
70
102
{ACAD_REACTORS
330
C
102
}
100
AcDbDictionary
  3
STANDARD
350
71
  0
GROUP
  5
74
102
{ACAD_REACTORS
330
D
102
}
100
AcDbGroup
300
Group created by Visio.
 70
     0
 71
     1
340
76
340
77
  0
GROUP
  5
79
102
{ACAD_REACTORS
330
D
102
}
100
AcDbGroup
300
Group created by Visio.
 70
     0
 71
     1
340
7A
340
7B
340
7C
340
7D
340
7E
  0
GROUP
  5
80
102
{ACAD_REACTORS
330
D
102
}
100
AcDbGroup
300
Group created by Visio.
 70
     0
 71
     1
340
81
340
82
340
83
340
84
340
85
340
86
340
87
  0
GROUP
  5
89
102
{ACAD_REACTORS
330
D
102
}
100
AcDbGroup
300
Group created by Visio.
 70
     0
 71
     1
340
8A
340
8B
  0
GROUP
  5
8D
102
{ACAD_REACTORS
330
D
102
}
100
AcDbGroup
300
Group created by Visio.
 70
     0
 71
     1
340
8E
340
8F
  0
GROUP
  5
91
102
{ACAD_REACTORS
330
D
102
}
100
AcDbGroup
300
Group created by Visio.
 70
     0
 71
     1
340
92
340
93
  0
GROUP
  5
95
102
{ACAD_REACTORS
330
D
102
}
100
AcDbGroup
300
Group created by Visio.
 70
     0
 71
     1
340
96
340
97
  0
GROUP
  5
99
102
{ACAD_REACTORS
330
D
102
}
100
AcDbGroup
300
Group created by Visio.
 70
     0
 71
     1
340
9A
340
9B
  0
GROUP
  5
9D
102
{ACAD_REACTORS
330
D
102
}
100
AcDbGroup
300
Group created by Visio.
 70
     0
 71
     1
340
9F
340
A0
340
A1
340
A2
  0
GROUP
  5
A3
102
{ACAD_REACTORS
330
D
102
}
100
AcDbGroup
300
Group created by Visio.
 70
     0
 71
     1
340
A4
340
A5
340
A6
340
A7
  0
GROUP
  5
A8
102
{ACAD_REACTORS
330
D
102
}
100
AcDbGroup
300
Group created by Visio.
 70
     0
 71
     1
340
A9
340
AA
340
AB
340
AC
  0
GROUP
  5
AD
102
{ACAD_REACTORS
330
D
102
}
100
AcDbGroup
300
Group created by Visio.
 70
     0
 71
     1
340
AE
340
AF
340
B0
340
B1
  0
GROUP
  5
B2
102
{ACAD_REACTORS
330
D
102
}
100
AcDbGroup
300
Group created by Visio.
 70
     0
 71
     1
340
B3
340
B4
340
B5
340
B6
340
B7
340
B8
340
B9
340
BA
  0
GROUP
  5
BB
102
{ACAD_REACTORS
330
D
102
}
100
AcDbGroup
300
Group created by Visio.
 70
     0
 71
     1
340
BC
340
BD
340
BE
340
BF
340
C0
340
C1
  0
GROUP
  5
C2
102
{ACAD_REACTORS
330
D
102
}
100
AcDbGroup
300
Group created by Visio.
 70
     0
 71
     1
340
C3
340
C4
340
C5
340
C6
340
C7
340
C8
340
C9
340
CA
  0
GROUP
  5
CB
102
{ACAD_REACTORS
330
D
102
}
100
AcDbGroup
300
Group created by Visio.
 70
     0
 71
     1
340
CC
340
CD
340
CE
340
CF
340
D0
340
D1
340
D2
340
D3
  0
GROUP
  5
D4
102
{ACAD_REACTORS
330
D
102
}
100
AcDbGroup
300
Group created by Visio.
 70
     0
 71
     1
340
D5
340
D6
340
D7
340
D8
340
D9
340
DA
340
DB
340
DC
  0
GROUP
  5
DD
102
{ACAD_REACTORS
330
D
102
}
100
AcDbGroup
300
Group created by Visio.
 70
     0
 71
     1
340
DE
340
DF
340
E0
340
E1
340
E2
340
E3
340
E4
340
E5
  0
GROUP
  5
E6
102
{ACAD_REACTORS
330
D
102
}
100
AcDbGroup
300
Group created by Visio.
 70
     0
 71
     1
340
E7
340
E8
340
E9
340
EA
340
EB
340
EC
  0
GROUP
  5
ED
102
{ACAD_REACTORS
330
D
102
}
100
AcDbGroup
300
Group created by Visio.
 70
     0
 71
     1
340
EE
340
EF
340
F0
340
F1
  0
GROUP
  5
F2
102
{ACAD_REACTORS
330
D
102
}
100
AcDbGroup
300
Group created by Visio.
 70
     0
 71
     1
340
F3
340
F4
340
F5
340
F6
340
F7
340
F8
  0
GROUP
  5
F9
102
{ACAD_REACTORS
330
D
102
}
100
AcDbGroup
300
Group created by Visio.
 70
     0
 71
     1
340
FA
340
FB
340
FC
340
FD
340
FE
340
FF
  0
GROUP
  5
100
102
{ACAD_REACTORS
330
D
102
}
100
AcDbGroup
300
Group created by Visio.
 70
     0
 71
     1
340
101
340
102
340
103
340
104
340
105
340
106
340
107
340
108
  0
GROUP
  5
109
102
{ACAD_REACTORS
330
D
102
}
100
AcDbGroup
300
Group created by Visio.
 70
     0
 71
     1
340
10B
340
10C
340
10D
340
10E
340
10F
340
111
340
112
340
113
340
114
340
115
340
116
340
117
340
118
340
119
340
11A
340
11B
340
11C
340
110
340
11F
340
120
340
121
340
122
340
123
340
124
340
126
340
127
340
125
340
129
340
12A
340
12B
340
12C
340
12D
  0
GROUP
  5
12E
102
{ACAD_REACTORS
330
D
102
}
100
AcDbGroup
300
Group created by Visio.
 70
     0
 71
     1
340
12F
340
130
340
131
340
132
340
133
340
134
340
136
340
137
340
138
340
139
340
13A
340
135
340
13B
340
13C
340
13D
340
13F
340
140
340
141
340
13E
340
142
340
143
340
144
340
145
340
146
  0
GROUP
  5
147
102
{ACAD_REACTORS
330
D
102
}
100
AcDbGroup
300
Group created by Visio.
 70
     0
 71
     1
340
148
340
149
340
14A
340
14B
340
14C
340
14D
340
14F
340
150
340
151
340
152
340
153
340
14E
340
154
340
155
340
156
340
158
340
159
340
15A
340
157
340
15B
340
15C
340
15D
340
15E
340
15F
  0
GROUP
  5
160
102
{ACAD_REACTORS
330
D
102
}
100
AcDbGroup
300
Group created by Visio.
 70
     0
 71
     1
340
161
340
162
340
163
340
164
340
165
340
166
340
168
340
169
340
16A
340
16B
340
16C
340
167
340
16D
340
16E
340
16F
340
171
340
172
340
173
340
170
340
174
340
175
340
176
340
177
340
178
  0
GROUP
  5
179
102
{ACAD_REACTORS
330
D
102
}
100
AcDbGroup
300
Group created by Visio.
 70
     0
 71
     1
340
17A
340
17B
340
17C
340
17D
340
17E
340
17F
340
181
340
182
340
183
340
184
340
185
340
180
340
186
340
188
340
187
340
189
340
18A
340
18B
340
18C
340
18E
340
18D
  0
GROUP
  5
18F
102
{ACAD_REACTORS
330
D
102
}
100
AcDbGroup
300
Group created by Visio.
 70
     0
 71
     1
340
190
340
191
340
192
340
193
340
194
340
195
340
197
340
198
340
199
340
19A
340
19B
340
196
340
19C
340
19D
340
19E
340
1A0
340
1A1
340
1A2
340
19F
340
1A3
340
1A4
340
1A5
340
1A6
340
1A7
  0
GROUP
  5
1A8
102
{ACAD_REACTORS
330
D
102
}
100
AcDbGroup
300
Group created by Visio.
 70
     0
 71
     1
340
1A9
340
1AA
340
1AB
340
1AC
340
1AD
340
1AE
340
1B0
340
1B1
340
1B2
340
1B3
340
1B4
340
1AF
340
1B5
340
1B6
340
1B7
340
1B9
340
1BA
340
1BB
340
1B8
340
1BC
340
1BD
340
1BE
340
1BF
340
1C0
  0
GROUP
  5
1C1
102
{ACAD_REACTORS
330
D
102
}
100
AcDbGroup
300
Group created by Visio.
 70
     0
 71
     1
340
1C2
340
1C3
340
1C4
340
1C5
340
1C6
340
1C7
340
1C9
340
1CA
340
1CB
340
1CC
340
1CD
340
1C8
340
1CE
340
1CF
340
1D0
340
1D2
340
1D3
340
1D4
340
1D1
340
1D5
340
1D6
340
1D7
340
1D8
340
1D9
340
1DA
340
1DB
340
1DC
  0
GROUP
  5
1DD
102
{ACAD_REACTORS
330
D
102
}
100
AcDbGroup
300
Group created by Visio.
 70
     0
 71
     1
340
1DE
340
1DF
340
1E0
340
1E1
340
1E2
340
1E3
340
1E5
340
1E6
340
1E7
340
1E8
340
1E9
340
1E4
340
1EA
340
1EB
340
1EC
340
1EE
340
1EF
340
1F0
340
1ED
340
1F1
340
1F2
340
1F3
340
1F4
340
1F5
  0
GROUP
  5
1F6
102
{ACAD_REACTORS
330
D
102
}
100
AcDbGroup
300
Group created by Visio.
 70
     0
 71
     1
340
1F7
340
1F8
340
1F9
340
1FA
340
1FB
340
1FC
340
1FE
340
1FF
340
200
340
201
340
202
340
1FD
340
203
340
204
340
205
340
207
340
208
340
209
340
206
340
20A
340
20B
340
20C
340
20D
340
20E
  0
GROUP
  5
20F
102
{ACAD_REACTORS
330
D
102
}
100
AcDbGroup
300
Group created by Visio.
 70
     0
 71
     1
340
210
340
211
  0
GROUP
  5
213
102
{ACAD_REACTORS
330
D
102
}
100
AcDbGroup
300
Group created by Visio.
 70
     0
 71
     1
340
214
340
215
340
216
340
217
340
218
340
219
340
21B
340
21C
340
21D
340
21E
340
21F
340
21A
340
220
340
221
340
222
340
224
340
225
340
226
340
223
340
227
340
228
340
229
340
22A
340
22B
  0
ENDSEC
  0
EOF
