  0
SECTION
  2
HEADER
  9
$ACADVER
  1
AC1014
  9
$ACADMAINTVER
 70
     0
  9
$DWGCODEPAGE
  3
ANSI_1252
  9
$INSBASE
 10
0.0
 20
0.0
 30
0.0
  9
$EXTMIN
 10
0.0
 20
0.0
 30
0.0
  9
$EXTMAX
 10
27.508533
 20
47.7752
 30
0.0
  9
$LIMMIN
 10
0.0
 20
0.0
  9
$LIMMAX
 10
12.0
 20
9.0
  9
$ORTHOMODE
 70
     0
  9
$REGENMODE
 70
     1
  9
$FILLMODE
 70
     0
  9
$QTEXTMODE
 70
     0
  9
$MIRRTEXT
 70
     1
  9
$DRAGMODE
 70
     2
  9
$LTSCALE
 40
1.0
  9
$OSMODE
 70
    37
  9
$ATTMODE
 70
     1
  9
$TEXTSIZE
 40
0.2
  9
$TRACEWID
 40
0.05
  9
$TEXTSTYLE
  7
STANDARD
  9
$CLAYER
  8
0
  9
$CELTYPE
  6
BYLAYER
  9
$CECOLOR
 62
   256
  9
$CELTSCALE
 40
1.0
  9
$DELOBJ
 70
     1
  9
$DISPSILH
 70
     0
  9
$DIMSCALE
 40
1.0
  9
$DIMASZ
 40
0.18
  9
$DIMEXO
 40
0.0625
  9
$DIMDLI
 40
0.38
  9
$DIMRND
 40
0.0
  9
$DIMDLE
 40
0.0
  9
$DIMEXE
 40
0.18
  9
$DIMTP
 40
0.0
  9
$DIMTM
 40
0.0
  9
$DIMTXT
 40
0.18
  9
$DIMCEN
 40
0.09
  9
$DIMTSZ
 40
0.0
  9
$DIMTOL
 70
     0
  9
$DIMLIM
 70
     0
  9
$DIMTIH
 70
     0
  9
$DIMTOH
 70
     0
  9
$DIMSE1
 70
     0
  9
$DIMSE2
 70
     0
  9
$DIMTAD
 70
     1
  9
$DIMZIN
 70
     0
  9
$DIMBLK
  1

  9
$DIMASO
 70
     1
  9
$DIMSHO
 70
     1
  9
$DIMPOST
  1

  9
$DIMAPOST
  1

  9
$DIMALT
 70
     0
  9
$DIMALTD
 70
     2
  9
$DIMALTF
 40
25.4
  9
$DIMLFAC
 40
1.0
  9
$DIMTOFL
 70
     0
  9
$DIMTVP
 40
0.0
  9
$DIMTIX
 70
     0
  9
$DIMSOXD
 70
     0
  9
$DIMSAH
 70
     0
  9
$DIMBLK1
  1

  9
$DIMBLK2
  1

  9
$DIMSTYLE
  2
STANDARD
  9
$DIMCLRD
 70
     0
  9
$DIMCLRE
 70
     0
  9
$DIMCLRT
 70
     0
  9
$DIMTFAC
 40
1.0
  9
$DIMGAP
 40
0.09
  9
$DIMJUST
 70
     0
  9
$DIMSD1
 70
     0
  9
$DIMSD2
 70
     0
  9
$DIMTOLJ
 70
     1
  9
$DIMTZIN
 70
     0
  9
$DIMALTZ
 70
     0
  9
$DIMALTTZ
 70
     0
  9
$DIMFIT
 70
     5
  9
$DIMUPT
 70
     0
  9
$DIMUNIT
 70
     2
  9
$DIMDEC
 70
     2
  9
$DIMTDEC
 70
     4
  9
$DIMALTU
 70
     2
  9
$DIMALTTD
 70
     2
  9
$DIMTXSTY
  7
STANDARD
  9
$DIMAUNIT
 70
     0
  9
$LUNITS
 70
     2
  9
$LUPREC
 70
     4
  9
$SKETCHINC
 40
0.1
  9
$FILLETRAD
 40
0.5
  9
$AUNITS
 70
     0
  9
$AUPREC
 70
     0
  9
$MENU
  1
.
  9
$ELEVATION
 40
0.0
  9
$PELEVATION
 40
0.0
  9
$THICKNESS
 40
0.0
  9
$LIMCHECK
 70
     0
  9
$BLIPMODE
 70
     0
  9
$CHAMFERA
 40
0.5
  9
$CHAMFERB
 40
0.5
  9
$CHAMFERC
 40
1.0
  9
$CHAMFERD
 40
0.0
  9
$SKPOLY
 70
     0
  9
$TDCREATE
 40
2450772.666465926
  9
$TDUPDATE
 40
2460688.033807870
  9
$TDINDWG
 40
0.0011564931
  9
$TDUSRTIMER
 40
0.0011564931
  9
$USRTIMER
 70
     1
  9
$ANGBASE
 50
0.0
  9
$ANGDIR
 70
     0
  9
$PDMODE
 70
     0
  9
$PDSIZE
 40
0.0
  9
$PLINEWID
 40
0.0
  9
$COORDS
 70
     1
  9
$SPLFRAME
 70
     0
  9
$SPLINETYPE
 70
     6
  9
$SPLINESEGS
 70
     8
  9
$ATTDIA
 70
     0
  9
$ATTREQ
 70
     1
  9
$HANDLING
 70
     1
  9
$HANDSEED
  5
288
  9
$SURFTAB1
 70
     6
  9
$SURFTAB2
 70
     6
  9
$SURFTYPE
 70
     6
  9
$SURFU
 70
     6
  9
$SURFV
 70
     6
  9
$UCSNAME
  2

  9
$UCSORG
 10
0.0
 20
0.0
 30
0.0
  9
$UCSXDIR
 10
1.0
 20
0.0
 30
0.0
  9
$UCSYDIR
 10
0.0
 20
1.0
 30
0.0
  9
$PUCSNAME
  2

  9
$PUCSORG
 10
0.0
 20
0.0
 30
0.0
  9
$PUCSXDIR
 10
1.0
 20
0.0
 30
0.0
  9
$PUCSYDIR
 10
0.0
 20
1.0
 30
0.0
  9
$USERI1
 70
     0
  9
$USERI2
 70
     0
  9
$USERI3
 70
     0
  9
$USERI4
 70
     0
  9
$USERI5
 70
     0
  9
$USERR1
 40
0.0
  9
$USERR2
 40
0.0
  9
$USERR3
 40
0.0
  9
$USERR4
 40
0.0
  9
$USERR5
 40
0.0
  9
$WORLDVIEW
 70
     1
  9
$SHADEDGE
 70
     3
  9
$SHADEDIF
 70
    70
  9
$TILEMODE
 70
     1
  9
$MAXACTVP
 70
    48
  9
$PINSBASE
 10
0.0
 20
0.0
 30
0.0
  9
$PLIMCHECK
 70
     0
  9
$PEXTMIN
 10
0.0
 20
0.0
 30
0.0
  9
$PEXTMAX
 10
0.0
 20
0.0
 30
0.0
  9
$PLIMMIN
 10
0.0
 20
0.0
  9
$PLIMMAX
 10
12.0
 20
9.0
  9
$UNITMODE
 70
     0
  9
$VISRETAIN
 70
     1
  9
$PLINEGEN
 70
     0
  9
$PSLTSCALE
 70
     1
  9
$TREEDEPTH
 70
  3020
  9
$PICKSTYLE
 70
     1
  9
$CMLSTYLE
  2
STANDARD
  9
$CMLJUST
 70
     0
  9
$CMLSCALE
 40
1.0
  9
$PROXYGRAPHICS
 70
     1
  9
$MEASUREMENT
 70
     0
  0
ENDSEC
  0
SECTION
  2
CLASSES
  0
CLASS
  1
LWPOLYLINE
  2
AcDbPolyline
  3
ObjectDBX Classes
 90
       20
280
     0
281
     1
  0
CLASS
  1
IMAGE
  2
AcDbRasterImage
  3
ISM
 90
       21
280
     0
281
     1
  0
CLASS
  1
OLE2FRAME
  2
AcDbOle2Frame
  3
ObjectDBX Classes
 90
       21
280
     0
281
     1
  0
CLASS
  1
HATCH
  2
AcDbHatch
  3
ObjectDBX Classes
 90
       20
280
     0
281
     1
  0
CLASS
  1
DICTIONARYVAR
  2
AcDbDictionaryVar
  3
ObjectDBX Classes
 90
       20
280
     0
281
     0
  0
CLASS
  1
RASTERVARIABLES
  2
AcDbRasterVariables
  3
ISM
 90
       21
280
     0
281
     0
  0
CLASS
  1
IMAGEDEF
  2
AcDbRasterImageDef
  3
ISM
 90
       21
280
     0
281
     0
  0
CLASS
  1
IMAGEDEF_REACTOR
  2
AcDbRasterImageDefReactor
  3
ISM
 90
       21
280
     0
281
     0
  0
CLASS
  1
IDBUFFER
  2
AcDbIdBuffer
  3
ObjectDBX Classes
 90
       20
280
     0
281
     0
  0
CLASS
  1
SPATIAL_FILTER
  2
AcDbSpatialFilter
  3
ObjectDBX Classes
 90
       20
280
     0
281
     0
  0
CLASS
  1
XRECORD
  2
AcDbXrecord
  3
ObjectDBX Classes
 90
       21
280
     0
281
     0
  0
CLASS
  1
ACDBDICTIONARYWDFLT
  2
AcDbDictionaryWithDefault
  3
ObjectDBX Classes
 90
       22
280
     0
281
     0
  0
CLASS
  1
SCALE
  2
AcDbScale
  3
ObjectDBX Classes
 90
       27
280
     0
281
     0
  0
CLASS
  1
VISUALSTYLE
  2
AcDbVisualStyle
  3
ObjectDBX Classes
 90
       26
280
     0
281
     0
  0
CLASS
  1
MATERIAL
  2
AcDbMaterial
  3
ObjectDBX Classes
 90
       23
280
     0
281
     0
  0
CLASS
  1
TABLESTYLE
  2
AcDbTableStyle
  3
ObjectDBX Classes
 90
       25
280
     0
281
     0
  0
CLASS
  1
MLEADERSTYLE
  2
AcDbMLeaderStyle
  3
ACDB_MLEADERSTYLE_CLASS
 90
       27
280
     0
281
     0
  0
CLASS
  1
SORTENTSTABLE
  2
AcDbSortentsTable
  3
"AutoCAD"
 90
        0
280
     0
281
     0
  0
CLASS
  1
LAYER_INDEX
  2
AcDbLayerIndex
  3
"Acad"
 90
        0
280
     0
281
     0
  0
CLASS
  1
SPATIAL_INDEX
  2
AcDbSpatialIndex
  3
"Acad"
 90
        0
280
     0
281
     0
  0
CLASS
  1
OBJECT_PTR
  2
CAseDLPNTableRecord
  3
"ASE-LPNTableRecord"
 90
        1
280
     0
281
     0
  0
CLASS
  1
LAYOUT
  2
AcDbLayout
  3
"AutoCAD 2000"
 90
        1
280
     0
281
     0
  0
CLASS
  1
PLOTSETTINGS
  2
AcDbPlotsettings
  3
"AutoCAD 2000"
 90
        1
280
     0
281
     0
  0
CLASS
  1
ACDBPLACEHOLDER
  2
AcDbPlaceholder
  3
"AutoCAD 2000"
 90
        1
280
     0
281
     0
  0
CLASS
  1
VBA_PROJECT
  2
AcDbVbaProject
  3
"AutoCAD 2000"
 90
        1
280
     0
281
     0
  0
CLASS
  1
WIPEOUT
  2
AcDbWipeout
  3
"AutoCAD 2000"
 90
        1
280
     0
281
     1
  0
CLASS
  1
WIPEOUTVARIABLES
  2
AcDbWipeoutVariables
  3
"AutoCAD 2000"
 90
        1
280
     0
281
     0
  0
CLASS
  1
RTEXT
  2
RText
  3
RText|AutoCAD Express Tool|expresstools@autodesk.com
 90
        1
280
     0
281
     1
  0
CLASS
  1
ARCALIGNEDTEXT
  2
AcDbArcAlignedText
  3
RText|AutoCAD Express Tool|expresstools@autodesk.com
 90
        1
280
     0
281
     1
  0
ENDSEC
  0
SECTION
  2
TABLES
  0
TABLE
  2
VPORT
  5
8
100
AcDbSymbolTable
 70
     1
  0
VPORT
  5
25
100
AcDbSymbolTableRecord
100
AcDbViewportTableRecord
  2
*ACTIVE
 70
     0
 10
0.0
 20
0.0
 11
1.0
 21
1.0
 12
13.754267
 22
23.8876
 13
0.0
 23
0.0
 14
0.5
 24
0.5
 15
0.5
 25
0.5
 16
0.0
 26
0.0
 36
1.0
 17
0.0
 27
0.0
 37
0.0
 40
47.7752
 41
0.575791
 42
50.0
 43
0.0
 44
0.0
 50
0.0
 51
0.0
 71
     0
 72
   100
 73
     1
 74
     1
 75
     0
 76
     0
 77
     0
 78
     0
  0
ENDTAB
  0
TABLE
  2
LTYPE
  5
5
100
AcDbSymbolTable
 70
     3
  0
LTYPE
  5
12
100
AcDbSymbolTableRecord
100
AcDbLinetypeTableRecord
  2
BYBLOCK
 70
     0
  3

 72
    65
 73
     0
 40
0.0
  0
LTYPE
  5
13
100
AcDbSymbolTableRecord
100
AcDbLinetypeTableRecord
  2
BYLAYER
 70
     0
  3

 72
    65
 73
     0
 40
0.0
  0
LTYPE
  5
14
100
AcDbSymbolTableRecord
100
AcDbLinetypeTableRecord
  2
CONTINUOUS
 70
     0
  3
Solid line
 72
    65
 73
     0
 40
0.0
  0
ENDTAB
  0
TABLE
  2
LAYER
  5
2
100
AcDbSymbolTable
 70
     5
  0
LAYER
  5
E
100
AcDbSymbolTableRecord
100
AcDbLayerTableRecord
  2
0
 70
     0
 62
     7
  6
CONTINUOUS
  0
LAYER
  5
75
100
AcDbSymbolTableRecord
100
AcDbLayerTableRecord
  2
SPACE
 70
     0
 62
     7
  6
CONTINUOUS
  0
LAYER
  5
9A
100
AcDbSymbolTableRecord
100
AcDbLayerTableRecord
  2
BUILDING_ENVELOPE
 70
     0
 62
     7
  6
CONTINUOUS
  0
LAYER
  5
1C4
100
AcDbSymbolTableRecord
100
AcDbLayerTableRecord
  2
STAIR
 70
     0
 62
     7
  6
CONTINUOUS
  0
LAYER
  5
1FA
100
AcDbSymbolTableRecord
100
AcDbLayerTableRecord
  2
WALL
 70
     0
 62
     7
  6
CONTINUOUS
  0
ENDTAB
  0
TABLE
  2
STYLE
  5
3
100
AcDbSymbolTable
 70
     1
  0
STYLE
  5
F
100
AcDbSymbolTableRecord
100
AcDbTextStyleTableRecord
  2
STANDARD
 70
     0
 40
0.0
 41
1.0
 50
0.0
 71
     0
 42
0.2
  3
txt.shx
  4

  0
ENDTAB
  0
TABLE
  2
VIEW
  5
6
100
AcDbSymbolTable
 70
     0
  0
ENDTAB
  0
TABLE
  2
UCS
  5
7
100
AcDbSymbolTable
 70
     0
  0
ENDTAB
  0
TABLE
  2
APPID
  5
9
100
AcDbSymbolTable
 70
     1
  0
APPID
  5
10
100
AcDbSymbolTableRecord
100
AcDbRegAppTableRecord
  2
ACAD
 70
     0
  0
ENDTAB
  0
TABLE
  2
DIMSTYLE
  5
A
100
AcDbSymbolTable
 70
     1
  0
DIMSTYLE
105
1D
100
AcDbSymbolTableRecord
100
AcDbDimStyleTableRecord
  2
STANDARD
 70
     0
  3

  4

  5

  6

  7

 40
1.0
 41
0.18
 42
0.0625
 43
0.38
 44
0.18
 45
0.0
 46
0.0
 47
0.0
 48
0.0
 71
     0
 72
     0
 73
     1
 74
     1
 75
     0
 76
     0
 77
     0
 78
     0
140
0.18
141
0.09
142
0.0
143
25.4
144
1.0
145
0.0
146
1.0
147
0.09
170
     0
171
     2
172
     0
173
     0
174
     0
175
     0
176
     0
177
     0
178
     0
270
     2
271
     4
272
     4
273
     2
274
     2
275
     0
280
     0
281
     0
282
     0
283
     1
284
     0
285
     0
286
     0
287
     3
288
     0
340
F
  0
ENDTAB
  0
TABLE
  2
BLOCK_RECORD
  5
1
100
AcDbSymbolTable
 70
     8
  0
BLOCK_RECORD
  5
18
100
AcDbSymbolTableRecord
100
AcDbBlockTableRecord
  2
*MODEL_SPACE
  0
BLOCK_RECORD
  5
15
100
AcDbSymbolTableRecord
100
AcDbBlockTableRecord
  2
*PAPER_SPACE
  0
BLOCK_RECORD
  5
1DD
100
AcDbSymbolTableRecord
100
AcDbBlockTableRecord
  2
NONE_
  0
BLOCK_RECORD
  5
1E0
100
AcDbSymbolTableRecord
100
AcDbBlockTableRecord
  2
WALL
  0
BLOCK_RECORD
  5
1E7
100
AcDbSymbolTableRecord
100
AcDbBlockTableRecord
  2
SPACE
  0
BLOCK_RECORD
  5
1FF
100
AcDbSymbolTableRecord
100
AcDbBlockTableRecord
  2
CORNER_LANDING
  0
BLOCK_RECORD
  5
205
100
AcDbSymbolTableRecord
100
AcDbBlockTableRecord
  2
STRAIGHT_STAIRCASE
  0
BLOCK_RECORD
  5
22C
100
AcDbSymbolTableRecord
100
AcDbBlockTableRecord
  2
DOOR
  0
BLOCK_RECORD
  5
244
100
AcDbSymbolTableRecord
100
AcDbBlockTableRecord
  2
OPENING
  0
BLOCK_RECORD
  5
260
100
AcDbSymbolTableRecord
100
AcDbBlockTableRecord
  2
WINDOW
  0
ENDTAB
  0
ENDSEC
  0
SECTION
  2
BLOCKS
  0
BLOCK
  5
19
100
AcDbEntity
  8
0
100
AcDbBlockBegin
  2
*MODEL_SPACE
 70
     0
 10
0.0
 20
0.0
 30
0.0
  3
*MODEL_SPACE
  1

  0
ENDBLK
  5
1A
100
AcDbEntity
  8
0
100
AcDbBlockEnd
  0
BLOCK
  5
16
100
AcDbEntity
 67
     1
  8
0
100
AcDbBlockBegin
  2
*PAPER_SPACE
 70
     0
 10
0.0
 20
0.0
 30
0.0
  3
*PAPER_SPACE
  1

  0
ENDBLK
  5
17
100
AcDbEntity
 67
     1
  8
0
100
AcDbBlockEnd
  0
BLOCK
  5
1DE
100
AcDbEntity
  8
0
100
AcDbBlockBegin
  2
NONE_
 70
     2
 10
0.0
 20
0.0
 30
0.0
  3
NONE_
  1

  0
ENDBLK
  5
1DF
100
AcDbEntity
  8
0
100
AcDbBlockEnd
  0
BLOCK
  5
1E1
100
AcDbEntity
  8
0
100
AcDbBlockBegin
  2
WALL
 70
     0
 10
0.0
 20
0.0
 30
0.0
  3
WALL
  1

  0
LWPOLYLINE
  5
1E2
102
{ACAD_REACTORS
330
1E3
102
}
100
AcDbEntity
  8
BUILDING_ENVELOPE
  6
CONTINUOUS
 62
     7
100
AcDbPolyline
 90
        6
 70
     1
 10
1.0
 20
5.333333
 10
9.0
 20
5.333333
 10
9.0
 20
5.166667
 10
9.0
 20
5.0
 10
1.0
 20
5.0
 10
1.0
 20
5.166667
  0
HATCH
  5
1E3
100
AcDbEntity
  8
BUILDING_ENVELOPE
 62
   253
100
AcDbHatch
 10
0.0
 20
0.0
 30
0.0
210
0.0
220
0.0
230
1.0
  2
SOLID
 70
     1
 71
     1
 91
        1
 92
        3
 72
     0
 73
     1
 93
        6
 10
1.0
 20
5.333333333333333
 10
9.0
 20
5.333333333333333
 10
9.0
 20
5.1666666666666661
 10
9.0
 20
5.0
 10
1.0
 20
5.0
 10
1.0
 20
5.1666666666666661
 97
       14
330
1CD
330
1CE
330
1CF
330
1D0
330
1D1
330
1D2
330
1D3
330
1D4
330
1D5
330
1D6
330
1D7
330
1D8
330
1D9
330
1E2
 75
     0
 76
     1
 98
        0
  0
LWPOLYLINE
  5
1E4
100
AcDbEntity
  8
BUILDING_ENVELOPE
  6
CONTINUOUS
 62
     7
100
AcDbPolyline
 90
        4
 70
     0
 10
1.0
 20
5.166667
 10
1.0
 20
5.333333
 10
9.0
 20
5.333333
 10
9.0
 20
5.166667
  0
LWPOLYLINE
  5
1E5
100
AcDbEntity
  8
BUILDING_ENVELOPE
  6
CONTINUOUS
 62
     7
100
AcDbPolyline
 90
        4
 70
     0
 10
1.0
 20
5.166667
 10
1.0
 20
5.0
 10
9.0
 20
5.0
 10
9.0
 20
5.166667
  0
ENDBLK
  5
1E6
100
AcDbEntity
  8
0
100
AcDbBlockEnd
  0
BLOCK
  5
1E8
100
AcDbEntity
  8
0
100
AcDbBlockBegin
  2
SPACE
 70
     2
 10
0.0
 20
0.0
 30
0.0
  3
SPACE
  1

  0
ATTDEF
  5
1E9
100
AcDbEntity
  8
0
100
AcDbText
 10
5.0
 20
5.0
 30
0.0
 40
0.2
  1

100
AcDbAttributeDefinition
  3
Name
  2
NAME
 70
     0
  0
ATTDEF
  5
1EA
100
AcDbEntity
  8
0
100
AcDbText
 10
5.0
 20
5.0
 30
0.0
 40
0.2
  1

100
AcDbAttributeDefinition
  3
Space ID
  2
LOCATIONID
 70
     0
  0
ATTDEF
  5
1EB
100
AcDbEntity
  8
0
100
AcDbText
 10
5.0
 20
5.0
 30
0.0
 40
0.2
  1

100
AcDbAttributeDefinition
  3
Department
  2
DEPARTMENT
 70
     0
  0
ATTDEF
  5
1EC
100
AcDbEntity
  8
0
100
AcDbText
 10
5.0
 20
5.0
 30
0.0
 40
0.2
  1
Office
100
AcDbAttributeDefinition
  3
Space use
  2
USE
 70
     0
  0
ATTDEF
  5
1ED
100
AcDbEntity
  8
0
100
AcDbText
 10
5.0
 20
5.0
 30
0.0
 40
0.2
  1

100
AcDbAttributeDefinition
  3
Phone number
  2
PHONENUMBER
 70
     0
  0
ATTDEF
  5
1EE
100
AcDbEntity
  8
0
100
AcDbText
 10
5.0
 20
5.0
 30
0.0
 40
0.2
  1
0
100
AcDbAttributeDefinition
  3
Occupancy
  2
OCCUPANTCOUNT
 70
     0
  0
ATTDEF
  5
1EF
100
AcDbEntity
  8
0
100
AcDbText
 10
5.0
 20
5.0
 30
0.0
 40
0.2
  1
0
100
AcDbAttributeDefinition
  3
Capacity
  2
OCCUPANTCAPACITY
 70
     0
  0
ATTDEF
  5
1F0
100
AcDbEntity
  8
0
100
AcDbText
 10
5.0
 20
5.0
 30
0.0
 40
0.2
  1

100
AcDbAttributeDefinition
  3
ID
  2
ID
 70
     0
  0
ATTDEF
  5
1F1
100
AcDbEntity
  8
0
100
AcDbText
 10
5.0
 20
5.0
 30
0.0
 40
0.2
  1

100
AcDbAttributeDefinition
  3
Belongs to
  2
BELONGSTO
 70
     0
  0
ATTDEF
  5
1F2
100
AcDbEntity
  8
0
100
AcDbText
 10
5.0
 20
5.0
 30
0.0
 40
0.2
  1

100
AcDbAttributeDefinition
  3
Modified
  2
MODIFY
 70
     0
  0
ATTDEF
  5
1F3
100
AcDbEntity
  8
0
100
AcDbText
 10
5.0
 20
5.0
 30
0.0
 40
0.2
  1
Location
100
AcDbAttributeDefinition
  3
Shape class
  2
SHAPECLASS
 70
     0
  0
ATTDEF
  5
1F4
100
AcDbEntity
  8
0
100
AcDbText
 10
5.0
 20
5.0
 30
0.0
 40
0.2
  1
Space
100
AcDbAttributeDefinition
  3
Shape type
  2
SHAPETYPE
 70
     0
  0
ATTDEF
  5
1F5
100
AcDbEntity
  8
0
100
AcDbText
 10
5.0
 20
5.0
 30
0.0
 40
0.2
  1

100
AcDbAttributeDefinition
  3
Subshape type
  2
SUBSHAPETYPE
 70
     0
  0
ATTDEF
  5
1F6
100
AcDbEntity
  8
0
100
AcDbText
 10
5.0
 20
5.0
 30
0.0
 40
0.2
  1
0
100
AcDbAttributeDefinition
  3
Space height
  2
SPACEHEIGHT
 70
     0
  0
ATTDEF
  5
1F7
100
AcDbEntity
  8
0
100
AcDbText
 10
5.0
 20
5.0
 30
0.0
 40
0.2
  1
0
100
AcDbAttributeDefinition
  3
Zones
  2
ZONES
 70
     0
  0
ATTDEF
  5
1F8
100
AcDbEntity
  8
0
100
AcDbText
 10
5.0
 20
5.0
 30
0.0
 40
0.2
  1
100FT^ 2
100
AcDbAttributeDefinition
  3
Calculated area
  2
VISAREA
 70
     0
  0
ATTDEF
  5
1F9
100
AcDbEntity
  8
0
100
AcDbText
 10
5.0
 20
5.0
 30
0.0
 40
0.2
  1
0
100
AcDbAttributeDefinition
  3
Base elevation
  2
BASEELEVATION
 70
     0
  0
LWPOLYLINE
  5
1FB
102
{ACAD_REACTORS
330
1FC
102
}
100
AcDbEntity
  8
WALL
  6
CONTINUOUS
100
AcDbPolyline
 90
        4
 70
     1
 10
0.0
 20
0.0
 10
10.0
 20
0.0
 10
10.0
 20
10.0
 10
0.0
 20
10.0
  0
HATCH
  5
1FC
100
AcDbEntity
  8
WALL
 62
    94
100
AcDbHatch
 10
0.0
 20
0.0
 30
0.0
210
0.0
220
0.0
230
1.0
  2
ANSI31
 70
     0
 71
     1
 91
        1
 92
        2
 72
     0
 73
     1
 93
        4
 10
0.0
 20
0.0
 10
10.0
 20
0.0
 10
10.0
 20
10.0
 10
0.0
 20
10.0
 97
        1
330
1FB
 75
     0
 76
     1
 52
0.0
 41
0.083333
 77
     0
 78
     1
 53
45.0
 43
0.0
 44
0.0
 45
-0.0073333333333333
 46
0.0073333333333333
 79
     0
 98
        0
  0
MTEXT
  5
1FD
100
AcDbEntity
  8
WALL
100
AcDbMText
 10
5.0
 20
4.948732
 30
0.0
 40
0.500004
 41
4.420539
 71
     5
 72
     5
  1
\C7;\fCalibri|b0|i0|;\H0.50000381469727;Office\P\P\P
  0
ENDBLK
  5
1FE
100
AcDbEntity
  8
0
100
AcDbBlockEnd
  0
BLOCK
  5
200
100
AcDbEntity
  8
0
100
AcDbBlockBegin
  2
CORNER_LANDING
 70
     0
 10
0.0
 20
0.0
 30
0.0
  3
CORNER_LANDING
  1

  0
LWPOLYLINE
  5
201
100
AcDbEntity
  8
WALL
  6
CONTINUOUS
 62
     7
100
AcDbPolyline
 90
        4
 70
     1
 10
-1.332899
 20
-1.321759
 10
1.660475
 20
-1.321759
 10
1.660475
 20
1.671615
 10
-1.332899
 20
1.671615
  0
LINE
  5
202
100
AcDbEntity
  8
WALL
  6
CONTINUOUS
 62
     9
100
AcDbLine
 10
-1.332899
 20
-1.321759
 30
0.0
 11
0.156724
 21
1.671615
 31
0.0
  0
LINE
  5
203
100
AcDbEntity
  8
WALL
  6
CONTINUOUS
 62
     9
100
AcDbLine
 10
-1.332899
 20
-1.321759
 30
0.0
 11
1.660475
 21
0.169061
 31
0.0
  0
ENDBLK
  5
204
100
AcDbEntity
  8
0
100
AcDbBlockEnd
  0
BLOCK
  5
206
100
AcDbEntity
  8
0
100
AcDbBlockBegin
  2
STRAIGHT_STAIRCASE
 70
     0
 10
0.0
 20
0.0
 30
0.0
  3
STRAIGHT_STAIRCASE
  1

  0
LWPOLYLINE
  5
207
100
AcDbEntity
  8
BUILDING_ENVELOPE
  6
CONTINUOUS
 62
     9
100
AcDbPolyline
 90
        4
 70
     1
 10
-3.501199
 20
1.758333
 10
-2.630829
 20
1.758333
 10
-2.630829
 20
-1.241667
 10
-3.501199
 20
-1.241667
  0
LWPOLYLINE
  5
208
100
AcDbEntity
  8
BUILDING_ENVELOPE
  6
CONTINUOUS
 62
     9
100
AcDbPolyline
 90
        4
 70
     1
 10
-2.630829
 20
1.758333
 10
-1.760459
 20
1.758333
 10
-1.760459
 20
-1.241667
 10
-2.630829
 20
-1.241667
  0
LWPOLYLINE
  5
209
100
AcDbEntity
  8
BUILDING_ENVELOPE
  6
CONTINUOUS
 62
     9
100
AcDbPolyline
 90
        4
 70
     1
 10
-1.760459
 20
1.758333
 10
-0.890088
 20
1.758333
 10
-0.890088
 20
-1.241667
 10
-1.760459
 20
-1.241667
  0
LWPOLYLINE
  5
20A
100
AcDbEntity
  8
BUILDING_ENVELOPE
  6
CONTINUOUS
 62
     9
100
AcDbPolyline
 90
        4
 70
     1
 10
-0.890088
 20
1.758333
 10
-0.019718
 20
1.758333
 10
-0.019718
 20
-1.241667
 10
-0.890088
 20
-1.241667
  0
LWPOLYLINE
  5
20B
100
AcDbEntity
  8
BUILDING_ENVELOPE
  6
CONTINUOUS
 62
     9
100
AcDbPolyline
 90
        4
 70
     1
 10
-0.019718
 20
1.758333
 10
0.850653
 20
1.758333
 10
0.850653
 20
-1.241667
 10
-0.019718
 20
-1.241667
  0
LWPOLYLINE
  5
20C
100
AcDbEntity
  8
BUILDING_ENVELOPE
  6
CONTINUOUS
 62
     9
100
AcDbPolyline
 90
        4
 70
     1
 10
0.850653
 20
1.758333
 10
1.721023
 20
1.758333
 10
1.721023
 20
-1.241667
 10
0.850653
 20
-1.241667
  0
LWPOLYLINE
  5
20D
100
AcDbEntity
  8
BUILDING_ENVELOPE
  6
CONTINUOUS
 62
     9
100
AcDbPolyline
 90
        4
 70
     1
 10
1.721023
 20
1.758333
 10
2.591393
 20
1.758333
 10
2.591393
 20
-1.241667
 10
1.721023
 20
-1.241667
  0
LWPOLYLINE
  5
20E
100
AcDbEntity
  8
BUILDING_ENVELOPE
  6
CONTINUOUS
 62
     9
100
AcDbPolyline
 90
        4
 70
     1
 10
2.591393
 20
1.758333
 10
3.461764
 20
1.758333
 10
3.461764
 20
-1.241667
 10
2.591393
 20
-1.241667
  0
LWPOLYLINE
  5
20F
100
AcDbEntity
  8
BUILDING_ENVELOPE
  6
CONTINUOUS
 62
     9
100
AcDbPolyline
 90
        4
 70
     1
 10
3.461764
 20
1.758333
 10
4.332134
 20
1.758333
 10
4.332134
 20
-1.241667
 10
3.461764
 20
-1.241667
  0
MTEXT
  5
210
100
AcDbEntity
  8
BUILDING_ENVELOPE
100
AcDbMText
 10
-3.877833
 20
0.258333
 30
0.0
 40
0.333332
 41
0.753267
 71
     5
 72
     5
  1
\C7;\fCalibri|b0|i0|;\H0.33333206176758;UP
  0
CIRCLE
  5
211
102
{ACAD_REACTORS
330
212
102
}
100
AcDbEntity
  8
WALL
  6
CONTINUOUS
 62
     7
100
AcDbCircle
 10
-3.501199
 20
0.258333
 30
0.0
 40
0.086804
  0
HATCH
  5
212
100
AcDbEntity
  8
WALL
 62
     7
100
AcDbHatch
 10
0.0
 20
0.0
 30
0.0
210
0.0
220
0.0
230
1.0
  2
SOLID
 70
     1
 71
     1
 91
        1
 92
        1
 93
        1
 72
     2
 10
-3.5011993055309873
 20
0.2583333333333307
 40
0.0868041666666667
 50
0.0
 51
360.0
 73
     1
 97
        1
330
211
 75
     0
 76
     1
 98
        0
  0
LINE
  5
213
100
AcDbEntity
  8
WALL
  6
CONTINUOUS
 62
     7
100
AcDbLine
 10
-3.501199
 20
0.258333
 30
0.0
 11
-1.192999
 21
0.258333
 31
0.0
  0
LWPOLYLINE
  5
214
102
{ACAD_REACTORS
330
215
102
}
100
AcDbEntity
  8
WALL
  6
CONTINUOUS
 62
     7
100
AcDbPolyline
 90
        3
 70
     1
 10
-1.405912
 20
0.130858
 10
-1.405912
 20
0.385808
 10
-0.980087
 20
0.255599
  0
HATCH
  5
215
100
AcDbEntity
  8
WALL
 62
     7
100
AcDbHatch
 10
0.0
 20
0.0
 30
0.0
210
0.0
220
0.0
230
1.0
  2
SOLID
 70
     1
 71
     1
 91
        1
 92
        3
 72
     0
 73
     1
 93
        3
 10
-1.4059118055309874
 20
0.1308583333333307
 10
-1.4059118055309874
 20
0.3858083333333307
 10
-0.9800868055309874
 20
0.2555989359891018
 97
        1
330
214
 75
     0
 76
     1
 98
        0
  0
LINE
  5
216
102
{ACAD_REACTORS
330
21B
102
}
100
AcDbEntity
  8
BUILDING_ENVELOPE
  6
CONTINUOUS
 62
     7
100
AcDbLine
 10
0.415467
 20
-1.058333
 30
0.0
 11
4.526181
 21
-1.058333
 31
0.0
  0
ARC
  5
217
102
{ACAD_REACTORS
330
21B
102
}
100
AcDbEntity
  8
BUILDING_ENVELOPE
  6
CONTINUOUS
 62
     7
100
AcDbCircle
 10
4.29196
 20
-1.404611
 30
0.0
 40
0.418052
100
AcDbArc
 50
357.204441
 51
55.925661
  0
LINE
  5
218
102
{ACAD_REACTORS
330
21B
102
}
100
AcDbEntity
  8
BUILDING_ENVELOPE
  6
CONTINUOUS
 62
     7
100
AcDbLine
 10
4.709514
 20
-1.425
 30
0.0
 11
4.892848
 21
-1.425
 31
0.0
  0
ARC
  5
219
102
{ACAD_REACTORS
330
21B
102
}
100
AcDbEntity
  8
BUILDING_ENVELOPE
  6
CONTINUOUS
 62
     7
100
AcDbCircle
 10
4.331043
 20
-1.402314
 30
0.0
 40
0.562262
100
AcDbArc
 50
357.687613
 51
69.692522
  0
LINE
  5
21A
102
{ACAD_REACTORS
330
21B
102
}
100
AcDbEntity
  8
BUILDING_ENVELOPE
  6
CONTINUOUS
 62
     7
100
AcDbLine
 10
4.526181
 20
-0.875
 30
0.0
 11
0.415467
 21
-0.875
 31
0.0
  0
HATCH
  5
21B
100
AcDbEntity
  8
BUILDING_ENVELOPE
 62
   254
100
AcDbHatch
 10
0.0
 20
0.0
 30
0.0
210
0.0
220
0.0
230
1.0
  2
SOLID
 70
     1
 71
     1
 91
        4
 92
        1
 93
        6
 72
     1
 10
0.4154673611356792
 20
-1.0583333333333358
 11
4.5261810369690121
 21
-1.0583333333333358
 72
     2
 10
4.2919598054193502
 20
-1.4046106157748337
 40
0.4180520800614547
 50
357.204441
 51
55.925661
 73
     1
 72
     1
 10
4.7095143703023448
 20
-1.4250000000000025
 11
4.8928477036356783
 21
-1.4250000000000025
 72
     2
 10
4.3310434353510541
 20
-1.4023139566341953
 40
0.5622621207465568
 50
357.687613
 51
69.692522
 73
     1
 72
     1
 10
4.5261810369690121
 20
-0.8750000000000029
 11
0.4154673611356792
 21
-0.8750000000000024
 72
     1
 10
0.4154673611356792
 20
-0.8750000000000024
 11
0.4154673611356792
 21
-1.0583333333333358
 97
        5
330
216
330
217
330
218
330
219
330
21A
 92
        1
 93
        6
 72
     1
 10
0.4154673611356792
 20
1.5749999999999971
 11
4.5261810369690121
 21
1.5749999999999971
 72
     2
 10
4.5261840383023308
 20
1.7583303320000119
 40
0.1833303320245822
 50
269.999062
 51
0.000938
 73
     1
 72
     1
 10
4.7095143703023457
 20
1.7583333333333306
 11
4.8928477036356783
 21
1.7583333333333306
 72
     2
 10
4.5261870396356496
 20
1.7583273306666913
 40
0.3666606640491629
 50
269.999062
 51
0.000938
 73
     1
 72
     1
 10
4.5261810369690121
 20
1.3916666666666639
 11
0.4154673611356792
 21
1.3916666666666642
 72
     1
 10
0.4154673611356792
 20
1.3916666666666642
 11
0.4154673611356792
 21
1.5749999999999971
 97
        5
330
21C
330
21D
330
21E
330
21F
330
220
 92
        1
 93
        6
 72
     1
 10
-4.6678659721976539
 20
-1.2416666666666691
 11
-4.4845326388643203
 21
-1.2416666666666691
 72
     2
 10
-4.3012023068643064
 20
-1.2416636653333502
 40
0.1833303320245819
 50
89.999062
 51
180.000938
 73
     1
 72
     1
 10
-4.3011993055309841
 20
-1.0583333333333358
 11
0.4154673611356792
 21
-1.0583333333333358
 72
     1
 10
0.4154673611356792
 20
-1.0583333333333358
 11
0.4154673611356792
 21
-0.8750000000000024
 72
     1
 10
0.4154673611356792
 20
-0.8750000000000024
 11
-4.3011993055309876
 21
-0.8750000000000024
 72
     2
 10
-4.3012053081976251
 20
-1.2416606640000305
 40
0.3666606640491635
 50
89.999062
 51
180.000938
 73
     1
 97
        5
330
221
330
222
330
223
330
224
330
225
 92
        1
 93
        6
 72
     1
 10
-4.7511993055309869
 20
1.7583333333333306
 11
-4.5678659721976533
 21
1.7583333333333306
 72
     2
 10
-4.3845356401976394
 20
1.7583303320000114
 40
0.183330332024582
 50
179.999062
 51
270.000938
 73
     1
 72
     1
 10
-4.384532638864318
 20
1.5749999999999971
 11
0.4154673611356792
 21
1.5749999999999971
 72
     1
 10
0.4154673611356792
 20
1.5749999999999971
 11
0.4154673611356792
 21
1.3916666666666642
 72
     1
 10
0.4154673611356792
 20
1.3916666666666642
 11
-4.3845326388643207
 21
1.3916666666666642
 72
     2
 10
-4.3845386415309591
 20
1.758327330666692
 40
0.3666606640491635
 50
179.999062
 51
270.000938
 73
     1
 97
        5
330
226
330
227
330
228
330
229
330
22A
 75
     0
 76
     1
 98
        0
  0
LINE
  5
21C
102
{ACAD_REACTORS
330
21B
102
}
100
AcDbEntity
  8
BUILDING_ENVELOPE
  6
CONTINUOUS
 62
     7
100
AcDbLine
 10
0.415467
 20
1.575
 30
0.0
 11
4.526181
 21
1.575
 31
0.0
  0
ARC
  5
21D
102
{ACAD_REACTORS
330
21B
102
}
100
AcDbEntity
  8
BUILDING_ENVELOPE
  6
CONTINUOUS
 62
     7
100
AcDbCircle
 10
4.526184
 20
1.75833
 30
0.0
 40
0.18333
100
AcDbArc
 50
269.999062
 51
0.0
  0
LINE
  5
21E
102
{ACAD_REACTORS
330
21B
102
}
100
AcDbEntity
  8
BUILDING_ENVELOPE
  6
CONTINUOUS
 62
     7
100
AcDbLine
 10
4.709514
 20
1.758333
 30
0.0
 11
4.892848
 21
1.758333
 31
0.0
  0
ARC
  5
21F
102
{ACAD_REACTORS
330
21B
102
}
100
AcDbEntity
  8
BUILDING_ENVELOPE
  6
CONTINUOUS
 62
     7
100
AcDbCircle
 10
4.526187
 20
1.758327
 30
0.0
 40
0.366661
100
AcDbArc
 50
269.999062
 51
0.0
  0
LINE
  5
220
102
{ACAD_REACTORS
330
21B
102
}
100
AcDbEntity
  8
BUILDING_ENVELOPE
  6
CONTINUOUS
 62
     7
100
AcDbLine
 10
4.526181
 20
1.391667
 30
0.0
 11
0.415467
 21
1.391667
 31
0.0
  0
LINE
  5
221
102
{ACAD_REACTORS
330
21B
102
}
100
AcDbEntity
  8
BUILDING_ENVELOPE
  6
CONTINUOUS
 62
     7
100
AcDbLine
 10
-4.667866
 20
-1.241667
 30
0.0
 11
-4.484533
 21
-1.241667
 31
0.0
  0
ARC
  5
222
102
{ACAD_REACTORS
330
21B
102
}
100
AcDbEntity
  8
BUILDING_ENVELOPE
  6
CONTINUOUS
 62
     7
100
AcDbCircle
 10
-4.301202
 20
-1.241664
 30
0.0
 40
0.18333
100
AcDbArc
 50
89.999062
 51
180.000938
  0
LINE
  5
223
102
{ACAD_REACTORS
330
21B
102
}
100
AcDbEntity
  8
BUILDING_ENVELOPE
  6
CONTINUOUS
 62
     7
100
AcDbLine
 10
-4.301199
 20
-1.058333
 30
0.0
 11
0.415467
 21
-1.058333
 31
0.0
  0
LINE
  5
224
102
{ACAD_REACTORS
330
21B
102
}
100
AcDbEntity
  8
BUILDING_ENVELOPE
  6
CONTINUOUS
 62
     7
100
AcDbLine
 10
0.415467
 20
-0.875
 30
0.0
 11
-4.301199
 21
-0.875
 31
0.0
  0
ARC
  5
225
102
{ACAD_REACTORS
330
21B
102
}
100
AcDbEntity
  8
BUILDING_ENVELOPE
  6
CONTINUOUS
 62
     7
100
AcDbCircle
 10
-4.301205
 20
-1.241661
 30
0.0
 40
0.366661
100
AcDbArc
 50
89.999062
 51
180.000938
  0
LINE
  5
226
102
{ACAD_REACTORS
330
21B
102
}
100
AcDbEntity
  8
BUILDING_ENVELOPE
  6
CONTINUOUS
 62
     7
100
AcDbLine
 10
-4.751199
 20
1.758333
 30
0.0
 11
-4.567866
 21
1.758333
 31
0.0
  0
ARC
  5
227
102
{ACAD_REACTORS
330
21B
102
}
100
AcDbEntity
  8
BUILDING_ENVELOPE
  6
CONTINUOUS
 62
     7
100
AcDbCircle
 10
-4.384536
 20
1.75833
 30
0.0
 40
0.18333
100
AcDbArc
 50
179.999062
 51
270.000938
  0
LINE
  5
228
102
{ACAD_REACTORS
330
21B
102
}
100
AcDbEntity
  8
BUILDING_ENVELOPE
  6
CONTINUOUS
 62
     7
100
AcDbLine
 10
-4.384533
 20
1.575
 30
0.0
 11
0.415467
 21
1.575
 31
0.0
  0
LINE
  5
229
102
{ACAD_REACTORS
330
21B
102
}
100
AcDbEntity
  8
BUILDING_ENVELOPE
  6
CONTINUOUS
 62
     7
100
AcDbLine
 10
0.415467
 20
1.391667
 30
0.0
 11
-4.384533
 21
1.391667
 31
0.0
  0
ARC
  5
22A
102
{ACAD_REACTORS
330
21B
102
}
100
AcDbEntity
  8
BUILDING_ENVELOPE
  6
CONTINUOUS
 62
     7
100
AcDbCircle
 10
-4.384539
 20
1.758327
 30
0.0
 40
0.366661
100
AcDbArc
 50
179.999062
 51
270.000938
  0
ENDBLK
  5
22B
100
AcDbEntity
  8
0
100
AcDbBlockEnd
  0
BLOCK
  5
22D
100
AcDbEntity
  8
0
100
AcDbBlockBegin
  2
DOOR
 70
     0
 10
0.0
 20
0.0
 30
0.0
  3
DOOR
  1

  0
LWPOLYLINE
  5
22E
100
AcDbEntity
  8
BUILDING_ENVELOPE
  6
CONTINUOUS
 62
     7
100
AcDbPolyline
 90
        4
 70
     1
 10
3.583333
 20
4.734
 10
6.416667
 20
4.734
 10
6.416667
 20
5.266
 10
3.583333
 20
5.266
  0
LINE
  5
22F
100
AcDbEntity
  8
BUILDING_ENVELOPE
  6
CONTINUOUS
 62
     7
100
AcDbLine
 10
6.416667
 20
4.75
 30
0.0
 11
6.416667
 21
5.25
 31
0.0
  0
LINE
  5
230
100
AcDbEntity
  8
BUILDING_ENVELOPE
  6
CONTINUOUS
 62
     7
100
AcDbLine
 10
6.416667
 20
5.25
 30
0.0
 11
6.25
 21
5.25
 31
0.0
  0
LINE
  5
231
100
AcDbEntity
  8
BUILDING_ENVELOPE
  6
CONTINUOUS
 62
     7
100
AcDbLine
 10
6.25
 20
5.25
 30
0.0
 11
6.25
 21
5.083333
 31
0.0
  0
LINE
  5
232
100
AcDbEntity
  8
BUILDING_ENVELOPE
  6
CONTINUOUS
 62
     7
100
AcDbLine
 10
6.25
 20
4.958333
 30
0.0
 11
6.25
 21
4.75
 31
0.0
  0
LINE
  5
233
100
AcDbEntity
  8
BUILDING_ENVELOPE
  6
CONTINUOUS
 62
     7
100
AcDbLine
 10
6.25
 20
4.75
 30
0.0
 11
6.416667
 21
4.75
 31
0.0
  0
LINE
  5
234
100
AcDbEntity
  8
BUILDING_ENVELOPE
  6
CONTINUOUS
 62
     7
100
AcDbLine
 10
3.583333
 20
4.75
 30
0.0
 11
3.583333
 21
5.25
 31
0.0
  0
LINE
  5
235
100
AcDbEntity
  8
BUILDING_ENVELOPE
  6
CONTINUOUS
 62
     7
100
AcDbLine
 10
3.583333
 20
5.25
 30
0.0
 11
3.75
 21
5.25
 31
0.0
  0
LINE
  5
236
100
AcDbEntity
  8
BUILDING_ENVELOPE
  6
CONTINUOUS
 62
     7
100
AcDbLine
 10
3.75
 20
5.25
 30
0.0
 11
3.75
 21
5.083333
 31
0.0
  0
LINE
  5
237
100
AcDbEntity
  8
BUILDING_ENVELOPE
  6
CONTINUOUS
 62
     7
100
AcDbLine
 10
3.75
 20
4.958333
 30
0.0
 11
3.75
 21
4.75
 31
0.0
  0
LINE
  5
238
100
AcDbEntity
  8
BUILDING_ENVELOPE
  6
CONTINUOUS
 62
     7
100
AcDbLine
 10
3.75
 20
4.75
 30
0.0
 11
3.583333
 21
4.75
 31
0.0
  0
LINE
  5
239
100
AcDbEntity
  8
BUILDING_ENVELOPE
  6
CONTINUOUS
 62
     7
100
AcDbLine
 10
6.25
 20
5.083333
 30
0.0
 11
6.208333
 21
5.083333
 31
0.0
  0
LINE
  5
23A
100
AcDbEntity
  8
BUILDING_ENVELOPE
  6
CONTINUOUS
 62
     7
100
AcDbLine
 10
6.208333
 20
5.083333
 30
0.0
 11
6.208333
 21
4.958333
 31
0.0
  0
LINE
  5
23B
100
AcDbEntity
  8
BUILDING_ENVELOPE
  6
CONTINUOUS
 62
     7
100
AcDbLine
 10
6.208333
 20
4.958333
 30
0.0
 11
6.25
 21
4.958333
 31
0.0
  0
LINE
  5
23C
100
AcDbEntity
  8
BUILDING_ENVELOPE
  6
CONTINUOUS
 62
     7
100
AcDbLine
 10
3.75
 20
5.083333
 30
0.0
 11
3.791667
 21
5.083333
 31
0.0
  0
LINE
  5
23D
100
AcDbEntity
  8
BUILDING_ENVELOPE
  6
CONTINUOUS
 62
     7
100
AcDbLine
 10
3.791667
 20
5.083333
 30
0.0
 11
3.791667
 21
4.958333
 31
0.0
  0
LINE
  5
23E
100
AcDbEntity
  8
BUILDING_ENVELOPE
  6
CONTINUOUS
 62
     7
100
AcDbLine
 10
3.791667
 20
4.958333
 30
0.0
 11
3.75
 21
4.958333
 31
0.0
  0
LINE
  5
23F
100
AcDbEntity
  8
BUILDING_ENVELOPE
  6
CONTINUOUS
 62
     7
100
AcDbLine
 10
6.416667
 20
4.75
 30
0.0
 11
6.416667
 21
5.25
 31
0.0
  0
LINE
  5
240
100
AcDbEntity
  8
BUILDING_ENVELOPE
  6
CONTINUOUS
 62
     7
100
AcDbLine
 10
3.583333
 20
4.75
 30
0.0
 11
3.583333
 21
5.25
 31
0.0
  0
ARC
  5
241
100
AcDbEntity
  8
BUILDING_ENVELOPE
  6
CONTINUOUS
 62
     7
100
AcDbCircle
 10
6.25
 20
5.25
 30
0.0
 40
2.5
100
AcDbArc
 50
90.0
 51
180.0
  0
LWPOLYLINE
  5
242
100
AcDbEntity
  8
BUILDING_ENVELOPE
  6
CONTINUOUS
 62
     7
100
AcDbPolyline
 90
        4
 70
     1
 10
6.083333
 20
7.75
 10
6.083333
 20
5.25
 10
6.25
 20
5.25
 10
6.25
 20
7.75
  0
ENDBLK
  5
243
100
AcDbEntity
  8
0
100
AcDbBlockEnd
  0
BLOCK
  5
245
100
AcDbEntity
  8
0
100
AcDbBlockBegin
  2
OPENING
 70
     2
 10
0.0
 20
0.0
 30
0.0
  3
OPENING
  1

  0
ATTDEF
  5
246
100
AcDbEntity
  8
0
100
AcDbText
 10
5.0
 20
5.0
 30
0.0
 40
0.2
  1
80
100
AcDbAttributeDefinition
  3
Opening height
  2
VISDOORHEIGHT
 70
     0
  0
ATTDEF
  5
247
100
AcDbEntity
  8
0
100
AcDbText
 10
5.0
 20
5.0
 30
0.0
 40
0.2
  1
0
100
AcDbAttributeDefinition
  3
Reference Line Offset
  2
REFLN
 70
     0
  0
ATTDEF
  5
248
100
AcDbEntity
  8
0
100
AcDbText
 10
5.0
 20
5.0
 30
0.0
 40
0.2
  1
30
100
AcDbAttributeDefinition
  3
Opening width
  2
SUBTYPE
 70
     0
  0
ATTDEF
  5
249
100
AcDbEntity
  8
0
100
AcDbText
 10
5.0
 20
5.0
 30
0.0
 40
0.2
  1
2
100
AcDbAttributeDefinition
  3
Door frame width
  2
SUBVISDOORFRAMEWIDTH
 70
     0
  0
ATTDEF
  5
24A
100
AcDbEntity
  8
0
100
AcDbText
 10
5.0
 20
5.0
 30
0.0
 40
0.2
  1
4
100
AcDbAttributeDefinition
  3
Door frame depth
  2
SUBVISDOORFRAMEDEPTH
 70
     0
  0
ATTDEF
  5
24B
100
AcDbEntity
  8
0
100
AcDbText
 10
5.0
 20
5.0
 30
0.0
 40
0.2
  1
0.5
100
AcDbAttributeDefinition
  3
Door stop width
  2
SUBVISDOORSTOPWIDTH
 70
     0
  0
ATTDEF
  5
24C
100
AcDbEntity
  8
0
100
AcDbText
 10
5.0
 20
5.0
 30
0.0
 40
0.2
  1
1.5
100
AcDbAttributeDefinition
  3
Door stop depth
  2
SUBVISDOORSTOPDEPTH
 70
     0
  0
ATTDEF
  5
24D
100
AcDbEntity
  8
0
100
AcDbText
 10
5.0
 20
5.0
 30
0.0
 40
0.2
  1
2
100
AcDbAttributeDefinition
  3
Door threshold depth inside
  2
SUBVISDOORTHRESDEPTHIN
 70
     0
  0
ATTDEF
  5
24E
100
AcDbEntity
  8
0
100
AcDbText
 10
5.0
 20
5.0
 30
0.0
 40
0.2
  1
2
100
AcDbAttributeDefinition
  3
Door threshold width inside
  2
SUBVISDOORTHRESWIDTHIN
 70
     0
  0
ATTDEF
  5
24F
100
AcDbEntity
  8
0
100
AcDbText
 10
5.0
 20
5.0
 30
0.0
 40
0.2
  1
2
100
AcDbAttributeDefinition
  3
Door threshold depth outside
  2
SUBVISDOORTHRESDEPTHOUT
 70
     0
  0
ATTDEF
  5
250
100
AcDbEntity
  8
0
100
AcDbText
 10
5.0
 20
5.0
 30
0.0
 40
0.2
  1
2
100
AcDbAttributeDefinition
  3
Door threshold width outside
  2
SUBVISDOORTHRESWIDTHOUT
 70
     0
  0
ATTDEF
  5
251
100
AcDbEntity
  8
0
100
AcDbText
 10
5.0
 20
5.0
 30
0.0
 40
0.2
  1
2
100
AcDbAttributeDefinition
  3
Door panel thickness
  2
SUBVISDOORPANELTHICKNESS
 70
     0
  0
ATTDEF
  5
252
100
AcDbEntity
  8
0
100
AcDbText
 10
5.0
 20
5.0
 30
0.0
 40
0.2
  1
15
100
AcDbAttributeDefinition
  3
Door leaf width
  2
VISDOORLEAF
 70
     0
  0
ATTDEF
  5
253
100
AcDbEntity
  8
0
100
AcDbText
 10
5.0
 20
5.0
 30
0.0
 40
0.2
  1
12
100
AcDbAttributeDefinition
  3
Door spring height
  2
VISDOORSPRING
 70
     0
  0
ATTDEF
  5
254
100
AcDbEntity
  8
0
100
AcDbText
 10
5.0
 20
5.0
 30
0.0
 40
0.2
  1
6
100
AcDbAttributeDefinition
  3
Door along wall offset
  2
VISDOORALONGWALLOFFSET
 70
     0
  0
ATTDEF
  5
255
100
AcDbEntity
  8
0
100
AcDbText
 10
5.0
 20
5.0
 30
0.0
 40
0.2
  1
Building Component
100
AcDbAttributeDefinition
  3
Shape class
  2
SHAPECLASS
 70
     0
  0
ATTDEF
  5
256
100
AcDbEntity
  8
0
100
AcDbText
 10
5.0
 20
5.0
 30
0.0
 40
0.2
  1
Opening Element
100
AcDbAttributeDefinition
  3
Shape type
  2
SHAPETYPE
 70
     0
  0
ATTDEF
  5
257
100
AcDbEntity
  8
0
100
AcDbText
 10
5.0
 20
5.0
 30
0.0
 40
0.2
  1

100
AcDbAttributeDefinition
  3
Subshape type
  2
SUBSHAPETYPE
 70
     0
  0
ATTDEF
  5
258
100
AcDbEntity
  8
0
100
AcDbText
 10
5.0
 20
5.0
 30
0.0
 40
0.2
  1
0
100
AcDbAttributeDefinition
  3
Opening number
  2
OPENNUMBER
 70
     0
  0
ATTDEF
  5
259
100
AcDbEntity
  8
0
100
AcDbText
 10
5.0
 20
5.0
 30
0.0
 40
0.2
  1
80
100
AcDbAttributeDefinition
  3
Header height
  2
OPENINGHEADERHEIGHT
 70
     0
  0
LWPOLYLINE
  5
25A
100
AcDbEntity
  8
WALL
  6
CONTINUOUS
 62
     7
100
AcDbPolyline
 90
        4
 70
     1
 10
3.583333
 20
4.734
 10
6.416667
 20
4.734
 10
6.416667
 20
5.266
 10
3.583333
 20
5.266
  0
LWPOLYLINE
  5
25B
100
AcDbEntity
  8
WALL
  6
CONTINUOUS
 62
     7
100
AcDbPolyline
 90
        4
 70
     1
 10
6.416667
 20
4.75
 10
6.416667
 20
5.25
 10
6.25
 20
5.25
 10
6.25
 20
4.75
  0
LWPOLYLINE
  5
25C
100
AcDbEntity
  8
WALL
  6
CONTINUOUS
 62
     7
100
AcDbPolyline
 90
        4
 70
     1
 10
3.583333
 20
4.75
 10
3.583333
 20
5.25
 10
3.75
 20
5.25
 10
3.75
 20
4.75
  0
LINE
  5
25D
100
AcDbEntity
  8
WALL
  6
CONTINUOUS
 62
     7
100
AcDbLine
 10
6.416667
 20
4.75
 30
0.0
 11
6.416667
 21
5.25
 31
0.0
  0
LINE
  5
25E
100
AcDbEntity
  8
WALL
  6
CONTINUOUS
 62
     7
100
AcDbLine
 10
3.583333
 20
4.75
 30
0.0
 11
3.583333
 21
5.25
 31
0.0
  0
ENDBLK
  5
25F
100
AcDbEntity
  8
0
100
AcDbBlockEnd
  0
BLOCK
  5
261
100
AcDbEntity
  8
0
100
AcDbBlockBegin
  2
WINDOW
 70
     2
 10
0.0
 20
0.0
 30
0.0
  3
WINDOW
  1

  0
ATTDEF
  5
262
100
AcDbEntity
  8
0
100
AcDbText
 10
5.0
 20
5.0
 30
0.0
 40
0.2
  1
60
100
AcDbAttributeDefinition
  3
Window height
  2
VISWNDWHEIGHT
 70
     0
  0
ATTDEF
  5
263
100
AcDbEntity
  8
0
100
AcDbText
 10
5.0
 20
5.0
 30
0.0
 40
0.2
  1
0
100
AcDbAttributeDefinition
  3
Reference Line Offset
  2
REFLN
 70
     0
  0
ATTDEF
  5
264
100
AcDbEntity
  8
0
100
AcDbText
 10
5.0
 20
5.0
 30
0.0
 40
0.2
  1
30
100
AcDbAttributeDefinition
  3
Window width
  2
SUBTYPE
 70
     0
  0
ATTDEF
  5
265
100
AcDbEntity
  8
0
100
AcDbText
 10
5.0
 20
5.0
 30
0.0
 40
0.2
  1
2
100
AcDbAttributeDefinition
  3
Window frame depth
  2
SUBVISWNDWFRAMEDEPTH
 70
     0
  0
ATTDEF
  5
266
100
AcDbEntity
  8
0
100
AcDbText
 10
5.0
 20
5.0
 30
0.0
 40
0.2
  1
4
100
AcDbAttributeDefinition
  3
Window frame width
  2
SUBVISWNDWFRAMEWIDTH
 70
     0
  0
ATTDEF
  5
267
100
AcDbEntity
  8
0
100
AcDbText
 10
5.0
 20
5.0
 30
0.0
 40
0.2
  1
2.5
100
AcDbAttributeDefinition
  3
Window sash depth
  2
SUBVISWNDWSASHDEPTH
 70
     0
  0
ATTDEF
  5
268
100
AcDbEntity
  8
0
100
AcDbText
 10
5.0
 20
5.0
 30
0.0
 40
0.2
  1
1
100
AcDbAttributeDefinition
  3
Window sash width
  2
SUBVISWNDWSASHWIDTH
 70
     0
  0
ATTDEF
  5
269
100
AcDbEntity
  8
0
100
AcDbText
 10
5.0
 20
5.0
 30
0.0
 40
0.2
  1
2
100
AcDbAttributeDefinition
  3
Window sill depth inside
  2
SUBVISWNDWSILLDEPTHIN
 70
     0
  0
ATTDEF
  5
26A
100
AcDbEntity
  8
0
100
AcDbText
 10
5.0
 20
5.0
 30
0.0
 40
0.2
  1
2
100
AcDbAttributeDefinition
  3
Window sill width inside
  2
SUBVISWNDWSILLWIDTHIN
 70
     0
  0
ATTDEF
  5
26B
100
AcDbEntity
  8
0
100
AcDbText
 10
5.0
 20
5.0
 30
0.0
 40
0.2
  1
2
100
AcDbAttributeDefinition
  3
Window sill depth outside
  2
SUBVISWNDWSILLDEPTHOUT
 70
     0
  0
ATTDEF
  5
26C
100
AcDbEntity
  8
0
100
AcDbText
 10
5.0
 20
5.0
 30
0.0
 40
0.2
  1
2
100
AcDbAttributeDefinition
  3
Window sill width outside
  2
SUBVISWNDWSILLWIDTHOUT
 70
     0
  0
ATTDEF
  5
26D
100
AcDbEntity
  8
0
100
AcDbText
 10
5.0
 20
5.0
 30
0.0
 40
0.2
  1
80
100
AcDbAttributeDefinition
  3
Window header height
  2
VISWNDWHEADERHEIGHT
 70
     0
  0
ATTDEF
  5
26E
100
AcDbEntity
  8
0
100
AcDbText
 10
5.0
 20
5.0
 30
0.0
 40
0.2
  1
6
100
AcDbAttributeDefinition
  3
Window along wall offset
  2
VISWNDWALONGWALLOFFSET
 70
     0
  0
ATTDEF
  5
26F
100
AcDbEntity
  8
0
100
AcDbText
 10
5.0
 20
5.0
 30
0.0
 40
0.2
  1
15
100
AcDbAttributeDefinition
  3
Window operator size
  2
VISWNDWOPERATOR
 70
     0
  0
ATTDEF
  5
270
100
AcDbEntity
  8
0
100
AcDbText
 10
5.0
 20
5.0
 30
0.0
 40
0.2
  1
12
100
AcDbAttributeDefinition
  3
Window spring height
  2
VISWNDWSPRING
 70
     0
  0
ATTDEF
  5
271
100
AcDbEntity
  8
0
100
AcDbText
 10
5.0
 20
5.0
 30
0.0
 40
0.2
  1
Center
100
AcDbAttributeDefinition
  3
Window within wall offset
  2
VISJUSTIFICATION
 70
     0
  0
ATTDEF
  5
272
100
AcDbEntity
  8
0
100
AcDbText
 10
5.0
 20
5.0
 30
0.0
 40
0.2
  1
Building Component
100
AcDbAttributeDefinition
  3
Shape class
  2
SHAPECLASS
 70
     0
  0
ATTDEF
  5
273
100
AcDbEntity
  8
0
100
AcDbText
 10
5.0
 20
5.0
 30
0.0
 40
0.2
  1
Window
100
AcDbAttributeDefinition
  3
Shape type
  2
SHAPETYPE
 70
     0
  0
ATTDEF
  5
274
100
AcDbEntity
  8
0
100
AcDbText
 10
5.0
 20
5.0
 30
0.0
 40
0.2
  1
Picture
100
AcDbAttributeDefinition
  3
Window type
  2
SUBSHAPETYPE
 70
     0
  0
ATTDEF
  5
275
100
AcDbEntity
  8
0
100
AcDbText
 10
5.0
 20
5.0
 30
0.0
 40
0.2
  1
0
100
AcDbAttributeDefinition
  3
Fire rating
  2
FIRERATING
 70
     0
  0
ATTDEF
  5
276
100
AcDbEntity
  8
0
100
AcDbText
 10
5.0
 20
5.0
 30
0.0
 40
0.2
  1
0
100
AcDbAttributeDefinition
  3
Window number
  2
WNDWNUMBER
 70
     0
  0
LWPOLYLINE
  5
277
100
AcDbEntity
  8
BUILDING_ENVELOPE
  6
CONTINUOUS
 62
     7
100
AcDbPolyline
 90
        4
 70
     1
 10
3.75
 20
4.734
 10
6.25
 20
4.734
 10
6.25
 20
5.266
 10
3.75
 20
5.266
  0
LINE
  5
278
100
AcDbEntity
  8
BUILDING_ENVELOPE
  6
CONTINUOUS
 62
     7
100
AcDbLine
 10
3.75
 20
4.75
 30
0.0
 11
3.75
 21
5.25
 31
0.0
  0
LINE
  5
279
100
AcDbEntity
  8
BUILDING_ENVELOPE
  6
CONTINUOUS
 62
     7
100
AcDbLine
 10
3.75
 20
5.25
 30
0.0
 11
4.083333
 21
5.25
 31
0.0
  0
LINE
  5
27A
100
AcDbEntity
  8
BUILDING_ENVELOPE
  6
CONTINUOUS
 62
     7
100
AcDbLine
 10
4.083333
 20
5.25
 30
0.0
 11
4.083333
 21
5.104167
 31
0.0
  0
LINE
  5
27B
100
AcDbEntity
  8
BUILDING_ENVELOPE
  6
CONTINUOUS
 62
     7
100
AcDbLine
 10
4.083333
 20
4.895833
 30
0.0
 11
4.083333
 21
4.75
 31
0.0
  0
LINE
  5
27C
100
AcDbEntity
  8
BUILDING_ENVELOPE
  6
CONTINUOUS
 62
     7
100
AcDbLine
 10
4.083333
 20
4.75
 30
0.0
 11
3.75
 21
4.75
 31
0.0
  0
LINE
  5
27D
100
AcDbEntity
  8
BUILDING_ENVELOPE
  6
CONTINUOUS
 62
     7
100
AcDbLine
 10
6.25
 20
4.75
 30
0.0
 11
6.25
 21
5.25
 31
0.0
  0
LINE
  5
27E
100
AcDbEntity
  8
BUILDING_ENVELOPE
  6
CONTINUOUS
 62
     7
100
AcDbLine
 10
6.25
 20
5.25
 30
0.0
 11
5.916667
 21
5.25
 31
0.0
  0
LINE
  5
27F
100
AcDbEntity
  8
BUILDING_ENVELOPE
  6
CONTINUOUS
 62
     7
100
AcDbLine
 10
5.916667
 20
5.25
 30
0.0
 11
5.916667
 21
5.104167
 31
0.0
  0
LINE
  5
280
100
AcDbEntity
  8
BUILDING_ENVELOPE
  6
CONTINUOUS
 62
     7
100
AcDbLine
 10
5.916667
 20
4.895833
 30
0.0
 11
5.916667
 21
4.75
 31
0.0
  0
LINE
  5
281
100
AcDbEntity
  8
BUILDING_ENVELOPE
  6
CONTINUOUS
 62
     7
100
AcDbLine
 10
5.916667
 20
4.75
 30
0.0
 11
6.25
 21
4.75
 31
0.0
  0
LWPOLYLINE
  5
282
100
AcDbEntity
  8
BUILDING_ENVELOPE
  6
CONTINUOUS
 62
     7
100
AcDbPolyline
 90
        4
 70
     1
 10
4.083333
 20
5.104167
 10
4.166667
 20
5.104167
 10
4.166667
 20
4.895833
 10
4.083333
 20
4.895833
  0
LWPOLYLINE
  5
283
100
AcDbEntity
  8
BUILDING_ENVELOPE
  6
CONTINUOUS
 62
     7
100
AcDbPolyline
 90
        4
 70
     1
 10
5.916667
 20
5.104167
 10
5.833333
 20
5.104167
 10
5.833333
 20
4.895833
 10
5.916667
 20
4.895833
  0
LINE
  5
284
100
AcDbEntity
  8
BUILDING_ENVELOPE
  6
CONTINUOUS
 62
     7
100
AcDbLine
 10
4.166667
 20
5.0
 30
0.0
 11
5.833333
 21
5.0
 31
0.0
  0
LINE
  5
285
100
AcDbEntity
  8
BUILDING_ENVELOPE
  6
CONTINUOUS
 62
     7
100
AcDbLine
 10
3.75
 20
4.75
 30
0.0
 11
3.75
 21
5.25
 31
0.0
  0
LINE
  5
286
100
AcDbEntity
  8
BUILDING_ENVELOPE
  6
CONTINUOUS
 62
     7
100
AcDbLine
 10
6.25
 20
4.75
 30
0.0
 11
6.25
 21
5.25
 31
0.0
  0
ENDBLK
  5
287
100
AcDbEntity
  8
0
100
AcDbBlockEnd
  0
ENDSEC
  0
SECTION
  2
ENTITIES
  0
LINE
  5
76
102
{ACAD_REACTORS
330
7A
102
}
100
AcDbEntity
  8
SPACE
  6
CONTINUOUS
100
AcDbLine
 10
11.934869
 20
36.031362
 30
0.0
 11
11.948124
 21
46.422421
 31
0.0
  0
LINE
  5
77
102
{ACAD_REACTORS
330
7A
102
}
100
AcDbEntity
  8
SPACE
  6
CONTINUOUS
100
AcDbLine
 10
11.948124
 20
46.422421
 30
0.0
 11
0.356904
 21
46.422422
 31
0.0
  0
LINE
  5
78
102
{ACAD_REACTORS
330
7A
102
}
100
AcDbEntity
  8
SPACE
  6
CONTINUOUS
100
AcDbLine
 10
0.356904
 20
46.422422
 30
0.0
 11
0.356904
 21
36.099095
 31
0.0
  0
LINE
  5
79
102
{ACAD_REACTORS
330
7A
102
}
100
AcDbEntity
  8
SPACE
  6
CONTINUOUS
100
AcDbLine
 10
0.356904
 20
36.099095
 30
0.0
 11
11.934869
 21
36.031362
 31
0.0
  0
HATCH
  5
7A
102
{ACAD_REACTORS
330
74
102
}
100
AcDbEntity
  8
SPACE
 62
   253
100
AcDbHatch
 10
0.0
 20
0.0
 30
0.0
210
0.0
220
0.0
230
1.0
  2
SOLID
 70
     1
 71
     1
 91
        1
 92
        1
 93
        5
 72
     1
 10
11.9348688039259532
 20
36.0313624225678737
 11
11.9481235283060769
 21
46.4224213594353969
 72
     1
 10
11.9481235283060769
 20
46.4224213594353969
 11
0.356903559372886
 21
46.422422222222238
 72
     1
 10
0.356903559372886
 20
46.422422222222238
 11
0.356903559372886
 21
36.0990949335150049
 72
     1
 10
0.356903559372886
 20
36.0990949335150049
 11
11.9348686990600701
 21
36.0313624225678737
 72
     1
 10
11.9348686990600701
 20
36.0313624225678737
 11
11.9348688039259532
 21
36.0313624225678737
 97
        4
330
76
330
77
330
78
330
79
 75
     0
 76
     1
 98
        0
  0
MTEXT
  5
7B
100
AcDbEntity
  8
SPACE
100
AcDbMText
 10
6.152514
 20
42.549023
 30
0.0
 40
0.500004
 41
3.284793
 71
     5
 72
     5
  1
\C7;\fCalibri|b0|i0|;\H0.50000381469727;Dining\P120 sq. ft.\P\P
  0
LINE
  5
7D
102
{ACAD_REACTORS
330
81
102
}
100
AcDbEntity
  8
SPACE
  6
CONTINUOUS
100
AcDbLine
 10
20.457413
 20
46.422422
 30
0.0
 11
12.281457
 21
46.422422
 31
0.0
  0
LINE
  5
7E
102
{ACAD_REACTORS
330
81
102
}
100
AcDbEntity
  8
SPACE
  6
CONTINUOUS
100
AcDbLine
 10
12.281457
 20
46.422422
 30
0.0
 11
12.272423
 21
39.340212
 31
0.0
  0
LINE
  5
7F
102
{ACAD_REACTORS
330
81
102
}
100
AcDbEntity
  8
SPACE
  6
CONTINUOUS
100
AcDbLine
 10
12.272423
 20
39.340212
 30
0.0
 11
20.400893
 21
39.275926
 31
0.0
  0
LINE
  5
80
102
{ACAD_REACTORS
330
81
102
}
100
AcDbEntity
  8
SPACE
  6
CONTINUOUS
100
AcDbLine
 10
20.400893
 20
39.275926
 30
0.0
 11
20.457413
 21
46.422422
 31
0.0
  0
HATCH
  5
81
102
{ACAD_REACTORS
330
7C
102
}
100
AcDbEntity
  8
SPACE
 62
    40
100
AcDbHatch
 10
0.0
 20
0.0
 30
0.0
210
0.0
220
0.0
230
1.0
  2
SOLID
 70
     1
 71
     1
 91
        1
 92
        1
 93
        5
 72
     1
 10
20.4574125840200693
 20
46.4224222222222309
 11
12.2814571339279031
 21
46.4224222222222309
 72
     1
 10
12.2814571339279031
 20
46.4224222222222309
 11
12.2724231420795782
 21
39.3402122086936359
 72
     1
 10
12.2724231420795782
 20
39.3402122086936359
 11
20.4008927912583076
 21
39.2759262395759237
 72
     1
 10
20.4008927912583076
 20
39.2759262395759237
 11
20.4574125850899264
 21
46.4224223575024055
 72
     1
 10
20.4574125850899264
 20
46.4224223575024055
 11
20.4574125840200693
 21
46.4224222222222309
 97
        4
330
7D
330
7E
330
7F
330
80
 75
     0
 76
     1
 98
        0
  0
MTEXT
  5
82
100
AcDbEntity
  8
SPACE
100
AcDbMText
 10
16.364918
 20
43.360164
 30
0.0
 40
0.500004
 41
2.946903
 71
     5
 72
     5
  1
\C7;\fCalibri|b0|i0|;\H0.50000381469727;Kitchen\P58 sq. ft.\P\P
  0
LINE
  5
84
102
{ACAD_REACTORS
330
88
102
}
100
AcDbEntity
  8
SPACE
  6
CONTINUOUS
100
AcDbLine
 10
20.790756
 20
46.422422
 30
0.0
 11
20.734216
 21
39.27329
 31
0.0
  0
LINE
  5
85
102
{ACAD_REACTORS
330
88
102
}
100
AcDbEntity
  8
SPACE
  6
CONTINUOUS
100
AcDbLine
 10
20.734216
 20
39.27329
 30
0.0
 11
25.02357
 21
39.239367
 31
0.0
  0
LINE
  5
86
102
{ACAD_REACTORS
330
88
102
}
100
AcDbEntity
  8
SPACE
  6
CONTINUOUS
100
AcDbLine
 10
25.02357
 20
39.239367
 30
0.0
 11
25.02357
 21
46.422422
 31
0.0
  0
LINE
  5
87
102
{ACAD_REACTORS
330
88
102
}
100
AcDbEntity
  8
SPACE
  6
CONTINUOUS
100
AcDbLine
 10
25.02357
 20
46.422422
 30
0.0
 11
20.790756
 21
46.422422
 31
0.0
  0
HATCH
  5
88
102
{ACAD_REACTORS
330
83
102
}
100
AcDbEntity
  8
SPACE
 62
     5
100
AcDbHatch
 10
0.0
 20
0.0
 30
0.0
210
0.0
220
0.0
230
1.0
  2
SOLID
 70
     1
 71
     1
 91
        1
 92
        1
 93
        5
 72
     1
 10
20.7907563406547453
 20
46.4224220659966491
 11
20.7342157003807301
 21
39.2732900746928522
 72
     1
 10
20.7342157003807301
 20
39.2732900746928522
 11
25.0235703673353669
 21
39.2393666753870036
 72
     1
 10
25.0235703673353669
 20
39.2393666753870036
 11
25.0235702260395598
 21
46.4224222222222878
 72
     1
 10
25.0235702260395598
 20
46.4224222222222878
 11
20.7907563406547489
 21
46.4224222222222096
 72
     1
 10
20.7907563406547489
 20
46.4224222222222096
 11
20.7907563406547453
 21
46.4224220659966491
 97
        4
330
84
330
85
330
86
330
87
 75
     0
 76
     1
 98
        0
  0
MTEXT
  5
89
100
AcDbEntity
  8
SPACE
100
AcDbMText
 10
22.878893
 20
43.351024
 30
0.0
 40
0.500004
 41
3.319019
 71
     5
 72
     5
  1
\C7;\fCalibri|b0|i0|;\H0.50000381469727;Bathroom\P31 sq. ft.\P\P
  0
LWPOLYLINE
  5
8B
102
{ACAD_REACTORS
330
8C
102
}
100
AcDbEntity
  8
SPACE
  6
CONTINUOUS
100
AcDbPolyline
 90
        4
 70
     1
 10
12.255822
 20
26.32588
 10
25.02357
 20
26.26129
 10
25.02357
 20
38.906023
 10
12.271998
 20
39.006872
  0
HATCH
  5
8C
102
{ACAD_REACTORS
330
8A
102
}
100
AcDbEntity
  8
SPACE
 62
    10
100
AcDbHatch
 10
0.0
 20
0.0
 30
0.0
210
0.0
220
0.0
230
1.0
  2
SOLID
 70
     1
 71
     1
 91
        1
 92
        3
 72
     0
 73
     1
 93
        4
 10
12.2558221979599313
 20
26.3258798236191538
 10
25.0235697794647081
 20
26.2612899133980591
 10
25.0235702260395456
 20
38.9060229198221776
 10
12.2719979366132534
 20
39.0068718136636932
 97
        1
330
8B
 75
     0
 76
     1
 98
        0
  0
MTEXT
  5
8D
100
AcDbEntity
  8
SPACE
100
AcDbMText
 10
18.639696
 20
34.544842
 30
0.0
 40
0.500004
 41
3.284793
 71
     5
 72
     5
  1
\C7;\fCalibri|b0|i0|;\H0.50000381469727;Bedroom\P162 sq. ft.\P\P
  0
LWPOLYLINE
  5
8F
102
{ACAD_REACTORS
330
90
102
}
100
AcDbEntity
  8
SPACE
  6
CONTINUOUS
100
AcDbPolyline
 90
        4
 70
     1
 10
12.249646
 20
21.484379
 10
12.233598
 20
8.903101
 10
25.02357
 20
8.903101
 10
25.02357
 20
21.484379
  0
HATCH
  5
90
102
{ACAD_REACTORS
330
8E
102
}
100
AcDbEntity
  8
SPACE
 62
    10
100
AcDbHatch
 10
0.0
 20
0.0
 30
0.0
210
0.0
220
0.0
230
1.0
  2
SOLID
 70
     1
 71
     1
 91
        1
 92
        3
 72
     0
 73
     1
 93
        4
 10
12.249646431290099
 20
21.4843792683114891
 10
12.2335978863763106
 20
8.9031009738251008
 10
25.0235703339518949
 20
8.9031009738251008
 10
25.0235702260395705
 20
21.4843792683114891
 97
        1
330
8F
 75
     0
 76
     1
 98
        0
  0
MTEXT
  5
91
100
AcDbEntity
  8
SPACE
100
AcDbMText
 10
18.628584
 20
17.063426
 30
0.0
 40
0.500004
 41
3.284793
 71
     5
 72
     5
  1
\C7;\fCalibri|b0|i0|;\H0.50000381469727;Bedroom\P161 sq. ft.\P\P
  0
LINE
  5
93
102
{ACAD_REACTORS
330
97
102
}
100
AcDbEntity
  8
SPACE
  6
CONTINUOUS
100
AcDbLine
 10
11.91167
 20
17.844532
 30
0.0
 11
11.934444
 21
35.698026
 31
0.0
  0
LINE
  5
94
102
{ACAD_REACTORS
330
97
102
}
100
AcDbEntity
  8
SPACE
  6
CONTINUOUS
100
AcDbLine
 10
11.934444
 20
35.698026
 30
0.0
 11
0.356904
 21
35.765756
 31
0.0
  0
LINE
  5
95
102
{ACAD_REACTORS
330
97
102
}
100
AcDbEntity
  8
SPACE
  6
CONTINUOUS
100
AcDbLine
 10
0.356904
 20
35.765756
 30
0.0
 11
0.356904
 21
17.844998
 31
0.0
  0
LINE
  5
96
102
{ACAD_REACTORS
330
97
102
}
100
AcDbEntity
  8
SPACE
  6
CONTINUOUS
100
AcDbLine
 10
0.356904
 20
17.844998
 30
0.0
 11
11.911669
 21
17.844532
 31
0.0
  0
HATCH
  5
97
102
{ACAD_REACTORS
330
92
102
}
100
AcDbEntity
  8
SPACE
 62
     2
100
AcDbHatch
 10
0.0
 20
0.0
 30
0.0
210
0.0
220
0.0
230
1.0
  2
SOLID
 70
     1
 71
     1
 91
        1
 92
        1
 93
        5
 72
     1
 10
11.9116698758531285
 20
17.84453167717556
 11
11.9344436033659296
 21
35.6980258738021874
 72
     1
 10
11.9344436033659296
 20
35.6980258738021874
 11
0.3569035593728884
 21
35.7657558961363122
 72
     1
 10
0.3569035593728884
 20
35.7657558961363122
 11
0.3569035593728884
 21
17.8449978837629075
 72
     1
 10
0.3569035593728884
 20
17.8449978837629075
 11
11.9116693487167318
 21
17.84453167717556
 72
     1
 10
11.9116693487167318
 20
17.84453167717556
 11
11.9116698758531285
 21
17.84453167717556
 97
        4
330
93
330
94
330
95
330
96
 75
     0
 76
     1
 98
        0
  0
MTEXT
  5
98
100
AcDbEntity
  8
SPACE
100
AcDbMText
 10
6.145674
 20
30.009816
 30
0.0
 40
0.500004
 41
3.284793
 71
     5
 72
     5
  1
\C7;\fCalibri|b0|i0|;\H0.50000381469727;Lounge\P207 sq. ft.\P\P
  0
LWPOLYLINE
  5
9B
102
{ACAD_REACTORS
330
99
102
}
100
AcDbEntity
  8
BUILDING_ENVELOPE
  6
CONTINUOUS
 62
     7
100
AcDbPolyline
 90
        3
 70
     0
 10
17.322327
 20
21.53899
 10
17.15566
 20
21.53899
 10
17.15566
 20
25.990745
  0
LWPOLYLINE
  5
9C
102
{ACAD_REACTORS
330
99
102
}
100
AcDbEntity
  8
BUILDING_ENVELOPE
  6
CONTINUOUS
 62
     7
100
AcDbPolyline
 90
        3
 70
     0
 10
17.322327
 20
21.53899
 10
17.488994
 20
21.53899
 10
17.488994
 20
25.990745
  0
LWPOLYLINE
  5
9E
102
{ACAD_REACTORS
330
9F
102
}
100
AcDbEntity
  8
SPACE
  6
CONTINUOUS
100
AcDbPolyline
 90
        4
 70
     1
 10
17.488994
 20
25.966068
 10
17.488994
 20
21.817712
 10
25.023571
 20
21.817713
 10
25.02357
 20
25.927952
  0
HATCH
  5
9F
102
{ACAD_REACTORS
330
9D
102
}
100
AcDbEntity
  8
SPACE
 62
     5
100
AcDbHatch
 10
0.0
 20
0.0
 30
0.0
210
0.0
220
0.0
230
1.0
  2
SOLID
 70
     1
 71
     1
 91
        1
 92
        3
 72
     0
 73
     1
 93
        4
 10
17.4889935216131605
 20
25.9660684821855767
 10
17.4889935216131605
 20
21.8177117285645359
 10
25.0235709347743196
 20
21.8177126016448213
 10
25.0235702260395705
 20
25.927952315711515
 97
        1
330
9E
 75
     0
 76
     1
 98
        0
  0
MTEXT
  5
A0
100
AcDbEntity
  8
SPACE
100
AcDbMText
 10
21.256282
 20
23.653345
 30
0.0
 40
0.500004
 41
3.319019
 71
     5
 72
     5
  1
\C7;\fCalibri|b0|i0|;\H0.50000381469727;Bathroom\P31 sq. ft.\P\P
  0
LWPOLYLINE
  5
A2
102
{ACAD_REACTORS
330
A3
102
}
100
AcDbEntity
  8
SPACE
  6
CONTINUOUS
100
AcDbPolyline
 90
        4
 70
     1
 10
12.250072
 20
21.817713
 10
17.15566
 20
21.817713
 10
17.15566
 20
25.967755
 10
12.255397
 20
25.992544
  0
HATCH
  5
A3
102
{ACAD_REACTORS
330
A1
102
}
100
AcDbEntity
  8
SPACE
 62
     6
100
AcDbHatch
 10
0.0
 20
0.0
 30
0.0
210
0.0
220
0.0
230
1.0
  2
SOLID
 70
     1
 71
     1
 91
        1
 92
        3
 72
     0
 73
     1
 93
        4
 10
12.2500716277489978
 20
21.8177126016448177
 10
17.1556601882797857
 20
21.8177126016448177
 10
17.1556601882809119
 20
25.9677547600459668
 10
12.2553969988045015
 20
25.9925443760254531
 97
        1
330
A2
 75
     0
 76
     1
 98
        0
  0
MTEXT
  5
A4
100
AcDbEntity
  8
SPACE
100
AcDbMText
 10
14.702866
 20
23.673202
 30
0.0
 40
0.500004
 41
2.946903
 71
     5
 72
     5
  1
\C7;\fCalibri|b0|i0|;\H0.50000381469727;Lobby\P20 sq. ft.\P\P
  0
LINE
  5
A6
102
{ACAD_REACTORS
330
AC
102
}
100
AcDbEntity
  8
SPACE
  6
CONTINUOUS
100
AcDbLine
 10
11.911245
 20
17.511198
 30
0.0
 11
0.356904
 21
17.511665
 31
0.0
  0
LINE
  5
A7
102
{ACAD_REACTORS
330
AC
102
}
100
AcDbEntity
  8
SPACE
  6
CONTINUOUS
100
AcDbLine
 10
0.356904
 20
17.511665
 30
0.0
 11
0.356904
 21
1.755756
 31
0.0
  0
LINE
  5
A8
102
{ACAD_REACTORS
330
AC
102
}
100
AcDbEntity
  8
SPACE
  6
CONTINUOUS
100
AcDbLine
 10
0.356904
 20
1.755756
 30
0.0
 11
25.02357
 21
1.755756
 31
0.0
  0
LINE
  5
A9
102
{ACAD_REACTORS
330
AC
102
}
100
AcDbEntity
  8
SPACE
  6
CONTINUOUS
100
AcDbLine
 10
25.02357
 20
1.755756
 30
0.0
 11
25.02357
 21
8.569768
 31
0.0
  0
LINE
  5
AA
102
{ACAD_REACTORS
330
AC
102
}
100
AcDbEntity
  8
SPACE
  6
CONTINUOUS
100
AcDbLine
 10
25.02357
 20
8.569768
 30
0.0
 11
11.899839
 21
8.569768
 31
0.0
  0
LINE
  5
AB
102
{ACAD_REACTORS
330
AC
102
}
100
AcDbEntity
  8
SPACE
  6
CONTINUOUS
100
AcDbLine
 10
11.899839
 20
8.569768
 30
0.0
 11
11.911245
 21
17.511198
 31
0.0
  0
HATCH
  5
AC
102
{ACAD_REACTORS
330
A5
102
}
100
AcDbEntity
  8
SPACE
 62
    22
100
AcDbHatch
 10
0.0
 20
0.0
 30
0.0
210
0.0
220
0.0
230
1.0
  2
SOLID
 70
     1
 71
     1
 91
        1
 92
        1
 93
        7
 72
     1
 10
11.9112451838113564
 20
17.5111983613573514
 11
0.3569035591015653
 21
17.5116645501582617
 72
     1
 10
0.3569035591015653
 20
17.5116645501582617
 11
0.3569035591015653
 21
1.7557555555555369
 72
     1
 10
0.3569035591015653
 20
1.7557555555555369
 11
25.0235702260395456
 21
1.7557555555555369
 72
     1
 10
25.0235702260395456
 20
1.7557555555555369
 11
25.0235702260395456
 21
8.5697676404917758
 72
     1
 10
25.0235702260395456
 20
8.5697676404917758
 11
11.8998390784205625
 21
8.5697676404917758
 72
     1
 10
11.8998390784205625
 20
8.5697676404917758
 11
11.9112446794169955
 21
17.5111983613776729
 72
     1
 10
11.9112446794169955
 20
17.5111983613776729
 11
11.9112451838113564
 21
17.5111983613573514
 97
        6
330
A6
330
A7
330
A8
330
A9
330
AA
330
AB
 75
     0
 76
     1
 98
        0
  0
MTEXT
  5
AD
100
AcDbEntity
  8
SPACE
100
AcDbMText
 10
7.009506
 20
8.652319
 30
0.0
 40
0.500004
 41
3.284793
 71
     5
 72
     5
  1
\C7;\fCalibri|b0|i0|;\H0.50000381469727;Garage\P271 sq. ft.\P\P
  0
LWPOLYLINE
  5
AF
102
{ACAD_REACTORS
330
B0
102
}
100
AcDbEntity
  8
BUILDING_ENVELOPE
  6
CONTINUOUS
 62
     7
100
AcDbPolyline
 90
        4
 70
     1
 10
0.356904
 20
46.422422
 10
0.356904
 20
1.755756
 10
0.02357
 20
1.422422
 10
0.02357
 20
46.755756
  0
HATCH
  5
B0
102
{ACAD_REACTORS
330
AE
102
}
100
AcDbEntity
  8
BUILDING_ENVELOPE
 62
     7
100
AcDbHatch
 10
0.0
 20
0.0
 30
0.0
210
0.0
220
0.0
230
1.0
  2
SOLID
 70
     1
 71
     1
 91
        1
 92
        3
 72
     0
 73
     1
 93
        4
 10
0.356903559372888
 20
46.4224222222222025
 10
0.356903559372888
 20
1.7557555555555382
 10
0.0235702260395547
 20
1.4224222222222047
 10
0.0235702260395547
 20
46.7557555555555382
 97
        1
330
AF
 75
     0
 76
     1
 98
        0
  0
LINE
  5
B1
102
{ACAD_REACTORS
330
AE
102
}
100
AcDbEntity
  8
BUILDING_ENVELOPE
  6
CONTINUOUS
 62
     7
100
AcDbLine
 10
0.356904
 20
46.422422
 30
0.0
 11
0.356904
 21
1.755756
 31
0.0
  0
LINE
  5
B2
102
{ACAD_REACTORS
330
AE
102
}
100
AcDbEntity
  8
BUILDING_ENVELOPE
  6
CONTINUOUS
 62
     7
100
AcDbLine
 10
0.02357
 20
46.755756
 30
0.0
 11
0.02357
 21
1.422422
 31
0.0
  0
LWPOLYLINE
  5
B4
102
{ACAD_REACTORS
330
B5
102
}
100
AcDbEntity
  8
BUILDING_ENVELOPE
  6
CONTINUOUS
 62
     7
100
AcDbPolyline
 90
        4
 70
     1
 10
25.356904
 20
46.755756
 10
25.356904
 20
1.422422
 10
25.02357
 20
1.755756
 10
25.02357
 20
46.422422
  0
HATCH
  5
B5
102
{ACAD_REACTORS
330
B3
102
}
100
AcDbEntity
  8
BUILDING_ENVELOPE
 62
     7
100
AcDbHatch
 10
0.0
 20
0.0
 30
0.0
210
0.0
220
0.0
230
1.0
  2
SOLID
 70
     1
 71
     1
 91
        1
 92
        3
 72
     0
 73
     1
 93
        4
 10
25.3569035593728813
 20
46.7557555555556235
 10
25.3569035593728813
 20
1.42242222222229
 10
25.0235702260395456
 20
1.7557555555556235
 10
25.0235702260395456
 20
46.4224222222222878
 97
        1
330
B4
 75
     0
 76
     1
 98
        0
  0
LINE
  5
B6
102
{ACAD_REACTORS
330
B3
102
}
100
AcDbEntity
  8
BUILDING_ENVELOPE
  6
CONTINUOUS
 62
     7
100
AcDbLine
 10
25.356904
 20
46.755756
 30
0.0
 11
25.356904
 21
1.422422
 31
0.0
  0
LINE
  5
B7
102
{ACAD_REACTORS
330
B3
102
}
100
AcDbEntity
  8
BUILDING_ENVELOPE
  6
CONTINUOUS
 62
     7
100
AcDbLine
 10
25.02357
 20
46.422422
 30
0.0
 11
25.02357
 21
1.755756
 31
0.0
  0
LWPOLYLINE
  5
B9
102
{ACAD_REACTORS
330
BA
102
}
100
AcDbEntity
  8
BUILDING_ENVELOPE
  6
CONTINUOUS
 62
     7
100
AcDbPolyline
 90
        4
 70
     1
 10
0.02357
 20
46.755756
 10
25.356904
 20
46.755756
 10
25.02357
 20
46.422422
 10
0.356904
 20
46.422422
  0
HATCH
  5
BA
102
{ACAD_REACTORS
330
B8
102
}
100
AcDbEntity
  8
BUILDING_ENVELOPE
 62
     7
100
AcDbHatch
 10
0.0
 20
0.0
 30
0.0
210
0.0
220
0.0
230
1.0
  2
SOLID
 70
     1
 71
     1
 91
        1
 92
        3
 72
     0
 73
     1
 93
        4
 10
0.0235702260395488
 20
46.7557555555555737
 10
25.3569035593728813
 20
46.7557555555555737
 10
25.0235702260395456
 20
46.422422222222238
 10
0.3569035593728836
 20
46.422422222222238
 97
        1
330
B9
 75
     0
 76
     1
 98
        0
  0
LINE
  5
BB
102
{ACAD_REACTORS
330
B8
102
}
100
AcDbEntity
  8
BUILDING_ENVELOPE
  6
CONTINUOUS
 62
     7
100
AcDbLine
 10
0.02357
 20
46.755756
 30
0.0
 11
25.356904
 21
46.755756
 31
0.0
  0
LINE
  5
BC
102
{ACAD_REACTORS
330
B8
102
}
100
AcDbEntity
  8
BUILDING_ENVELOPE
  6
CONTINUOUS
 62
     7
100
AcDbLine
 10
0.356904
 20
46.422422
 30
0.0
 11
25.02357
 21
46.422422
 31
0.0
  0
LWPOLYLINE
  5
BE
102
{ACAD_REACTORS
330
BF
102
}
100
AcDbEntity
  8
BUILDING_ENVELOPE
  6
CONTINUOUS
 62
     7
100
AcDbPolyline
 90
        4
 70
     1
 10
0.356904
 20
1.755756
 10
25.02357
 20
1.755756
 10
25.356904
 20
1.422422
 10
0.02357
 20
1.422422
  0
HATCH
  5
BF
102
{ACAD_REACTORS
330
BD
102
}
100
AcDbEntity
  8
BUILDING_ENVELOPE
 62
     7
100
AcDbHatch
 10
0.0
 20
0.0
 30
0.0
210
0.0
220
0.0
230
1.0
  2
SOLID
 70
     1
 71
     1
 91
        1
 92
        3
 72
     0
 73
     1
 93
        4
 10
0.3569035593728805
 20
1.7557555555555817
 10
25.0235702260395456
 20
1.7557555555555817
 10
25.3569035593728813
 20
1.4224222222222482
 10
0.0235702260395504
 20
1.4224222222222482
 97
        1
330
BE
 75
     0
 76
     1
 98
        0
  0
LINE
  5
C0
102
{ACAD_REACTORS
330
BD
102
}
100
AcDbEntity
  8
BUILDING_ENVELOPE
  6
CONTINUOUS
 62
     7
100
AcDbLine
 10
0.356904
 20
1.755756
 30
0.0
 11
25.02357
 21
1.755756
 31
0.0
  0
LINE
  5
C1
102
{ACAD_REACTORS
330
BD
102
}
100
AcDbEntity
  8
BUILDING_ENVELOPE
  6
CONTINUOUS
 62
     7
100
AcDbLine
 10
0.02357
 20
1.422422
 30
0.0
 11
25.356904
 21
1.422422
 31
0.0
  0
LWPOLYLINE
  5
C3
102
{ACAD_REACTORS
330
C5
102
}
100
AcDbEntity
  8
BUILDING_ENVELOPE
  6
CONTINUOUS
 62
     7
100
AcDbPolyline
 90
        4
 70
     1
 10
12.299625
 20
40.103435
 10
12.299625
 20
44.177957
 10
11.950292
 20
44.177957
 10
11.950292
 20
40.103435
  0
LWPOLYLINE
  5
C4
102
{ACAD_REACTORS
330
C5
102
}
100
AcDbEntity
  8
BUILDING_ENVELOPE
  6
CONTINUOUS
 62
     7
100
AcDbPolyline
 90
        4
 70
     1
 10
12.291625
 20
44.177957
 10
11.958292
 20
44.177957
 10
11.958292
 20
44.01129
 10
12.291625
 20
44.01129
  0
HATCH
  5
C5
102
{ACAD_REACTORS
330
C2
102
}
100
AcDbEntity
  8
BUILDING_ENVELOPE
 62
     7
100
AcDbHatch
 10
0.0
 20
0.0
 30
0.0
210
0.0
220
0.0
230
1.0
  2
SOLID
 70
     1
 71
     1
 91
        2
 92
        3
 72
     0
 73
     1
 93
        4
 10
12.2916251881977416
 20
44.177956670837375
 10
11.9582918548644077
 20
44.177956670837375
 10
11.9582918548644077
 20
44.0112900041707036
 10
12.2916251881977416
 20
44.0112900041707036
 97
        2
330
C3
330
C4
 92
        3
 72
     0
 73
     1
 93
        4
 10
12.2916251881977416
 20
40.1034353741906955
 10
11.9582918548644077
 20
40.1034353741906955
 10
11.9582918548644077
 20
40.2701020408573669
 10
12.2916251881977416
 20
40.2701020408573669
 97
        1
330
C6
 75
     0
 76
     1
 98
        0
  0
LWPOLYLINE
  5
C6
102
{ACAD_REACTORS
330
C5
102
}
100
AcDbEntity
  8
BUILDING_ENVELOPE
  6
CONTINUOUS
 62
     7
100
AcDbPolyline
 90
        4
 70
     1
 10
12.291625
 20
40.103435
 10
11.958292
 20
40.103435
 10
11.958292
 20
40.270102
 10
12.291625
 20
40.270102
  0
LINE
  5
C7
102
{ACAD_REACTORS
330
C2
102
}
100
AcDbEntity
  8
BUILDING_ENVELOPE
  6
CONTINUOUS
 62
     7
100
AcDbLine
 10
12.291625
 20
44.177957
 30
0.0
 11
11.958292
 21
44.177957
 31
0.0
  0
LINE
  5
C8
102
{ACAD_REACTORS
330
C2
102
}
100
AcDbEntity
  8
BUILDING_ENVELOPE
  6
CONTINUOUS
 62
     7
100
AcDbLine
 10
12.291625
 20
40.103435
 30
0.0
 11
11.958292
 21
40.103435
 31
0.0
  0
LWPOLYLINE
  5
CA
102
{ACAD_REACTORS
330
CB
102
}
100
AcDbEntity
  8
BUILDING_ENVELOPE
  6
CONTINUOUS
 62
     7
100
AcDbPolyline
 90
        4
 70
     1
 10
0.356904
 20
36.099095
 10
11.934869
 20
36.031362
 10
11.934444
 20
35.698026
 10
0.356904
 20
35.765756
  0
HATCH
  5
CB
102
{ACAD_REACTORS
330
C9
102
}
100
AcDbEntity
  8
BUILDING_ENVELOPE
 62
     7
100
AcDbHatch
 10
0.0
 20
0.0
 30
0.0
210
0.0
220
0.0
230
1.0
  2
SOLID
 70
     1
 71
     1
 91
        1
 92
        3
 72
     0
 73
     1
 93
        4
 10
0.3569035593728791
 20
36.0990949335150049
 10
11.9348688039253865
 20
36.031362422088165
 10
11.934443603364004
 20
35.698025872290593
 10
0.3569035593728884
 20
35.7657558962421973
 97
        1
330
CA
 75
     0
 76
     1
 98
        0
  0
LWPOLYLINE
  5
CC
102
{ACAD_REACTORS
330
CD
102
}
100
AcDbEntity
  8
BUILDING_ENVELOPE
  6
CONTINUOUS
 62
     7
100
AcDbPolyline
 90
        4
 70
     1
 10
0.356904
 20
35.765756
 10
0.356904
 20
36.099095
 10
0.32357
 20
36.099095
 10
0.32357
 20
35.765756
  0
HATCH
  5
CD
102
{ACAD_REACTORS
330
C9
102
}
100
AcDbEntity
  8
BUILDING_ENVELOPE
 62
     7
100
AcDbHatch
 10
0.0
 20
0.0
 30
0.0
210
0.0
220
0.0
230
1.0
  2
SOLID
 70
     1
 71
     1
 91
        1
 92
        3
 72
     0
 73
     1
 93
        4
 10
0.3569035593728884
 20
35.7657558962421973
 10
0.3569035593728791
 20
36.0990949335150049
 10
0.3235702260395457
 20
36.0990949335150049
 10
0.3235702260395551
 20
35.7657558962421973
 97
        1
330
CC
 75
     0
 76
     1
 98
        0
  0
LWPOLYLINE
  5
CE
102
{ACAD_REACTORS
330
CF
102
}
100
AcDbEntity
  8
BUILDING_ENVELOPE
  6
CONTINUOUS
 62
     7
100
AcDbPolyline
 90
        4
 70
     1
 10
11.934869
 20
36.031362
 10
11.934444
 20
35.698026
 10
11.967777
 20
35.697983
 10
11.968202
 20
36.03132
  0
HATCH
  5
CF
102
{ACAD_REACTORS
330
C9
102
}
100
AcDbEntity
  8
BUILDING_ENVELOPE
 62
     7
100
AcDbHatch
 10
0.0
 20
0.0
 30
0.0
210
0.0
220
0.0
230
1.0
  2
SOLID
 70
     1
 71
     1
 91
        1
 92
        3
 72
     0
 73
     1
 93
        4
 10
11.934868803925383
 20
36.031362422088165
 10
11.9344436033640022
 20
35.698025872290593
 10
11.9677769095785642
 20
35.6979833526793371
 10
11.9682021101399449
 20
36.0313199024769091
 97
        1
330
CE
 75
     0
 76
     1
 98
        0
  0
LINE
  5
D0
102
{ACAD_REACTORS
330
C9
102
}
100
AcDbEntity
  8
BUILDING_ENVELOPE
  6
CONTINUOUS
 62
     7
100
AcDbLine
 10
0.356904
 20
36.099095
 30
0.0
 11
11.934869
 21
36.031362
 31
0.0
  0
LINE
  5
D1
102
{ACAD_REACTORS
330
C9
102
}
100
AcDbEntity
  8
BUILDING_ENVELOPE
  6
CONTINUOUS
 62
     7
100
AcDbLine
 10
0.356904
 20
35.765756
 30
0.0
 11
11.934444
 21
35.698026
 31
0.0
  0
LWPOLYLINE
  5
D3
102
{ACAD_REACTORS
330
D4
102
}
100
AcDbEntity
  8
BUILDING_ENVELOPE
  6
CONTINUOUS
 62
     7
100
AcDbPolyline
 90
        4
 70
     1
 10
0.356904
 20
17.844998
 10
11.91167
 20
17.844532
 10
11.911245
 20
17.511198
 10
0.356904
 20
17.511665
  0
HATCH
  5
D4
102
{ACAD_REACTORS
330
D2
102
}
100
AcDbEntity
  8
BUILDING_ENVELOPE
 62
     7
100
AcDbHatch
 10
0.0
 20
0.0
 30
0.0
210
0.0
220
0.0
230
1.0
  2
SOLID
 70
     1
 71
     1
 91
        1
 92
        3
 72
     0
 73
     1
 93
        4
 10
0.3569035593728792
 20
17.8449978837629075
 10
11.9116698758539528
 20
17.8445316778267014
 10
11.9112446794170026
 20
17.5111983613776587
 10
0.3569035593728884
 20
17.5116645501582546
 97
        1
330
D3
 75
     0
 76
     1
 98
        0
  0
LWPOLYLINE
  5
D5
102
{ACAD_REACTORS
330
D6
102
}
100
AcDbEntity
  8
BUILDING_ENVELOPE
  6
CONTINUOUS
 62
     7
100
AcDbPolyline
 90
        4
 70
     1
 10
0.356904
 20
17.511665
 10
0.356904
 20
17.844998
 10
0.32357
 20
17.844998
 10
0.32357
 20
17.511665
  0
HATCH
  5
D6
102
{ACAD_REACTORS
330
D2
102
}
100
AcDbEntity
  8
BUILDING_ENVELOPE
 62
     7
100
AcDbHatch
 10
0.0
 20
0.0
 30
0.0
210
0.0
220
0.0
230
1.0
  2
SOLID
 70
     1
 71
     1
 91
        1
 92
        3
 72
     0
 73
     1
 93
        4
 10
0.3569035593728885
 20
17.5116645501582546
 10
0.3569035593728791
 20
17.8449978837629075
 10
0.3235702260395457
 20
17.8449978837629075
 10
0.3235702260395552
 20
17.5116645501582546
 97
        1
330
D5
 75
     0
 76
     1
 98
        0
  0
LWPOLYLINE
  5
D7
102
{ACAD_REACTORS
330
D8
102
}
100
AcDbEntity
  8
BUILDING_ENVELOPE
  6
CONTINUOUS
 62
     7
100
AcDbPolyline
 90
        4
 70
     1
 10
11.91167
 20
17.844532
 10
11.911245
 20
17.511198
 10
11.944578
 20
17.511156
 10
11.945003
 20
17.844489
  0
HATCH
  5
D8
102
{ACAD_REACTORS
330
D2
102
}
100
AcDbEntity
  8
BUILDING_ENVELOPE
 62
     7
100
AcDbHatch
 10
0.0
 20
0.0
 30
0.0
210
0.0
220
0.0
230
1.0
  2
SOLID
 70
     1
 71
     1
 91
        1
 92
        3
 72
     0
 73
     1
 93
        4
 10
11.9116698758539528
 20
17.8445316778267014
 10
11.9112446794170026
 20
17.5111983613776587
 10
11.9445779856315628
 20
17.5111558417664028
 10
11.9450031820685147
 20
17.8444891582154455
 97
        1
330
D7
 75
     0
 76
     1
 98
        0
  0
LINE
  5
D9
102
{ACAD_REACTORS
330
D2
102
}
100
AcDbEntity
  8
BUILDING_ENVELOPE
  6
CONTINUOUS
 62
     7
100
AcDbLine
 10
0.356904
 20
17.844998
 30
0.0
 11
11.91167
 21
17.844532
 31
0.0
  0
LINE
  5
DA
102
{ACAD_REACTORS
330
D2
102
}
100
AcDbEntity
  8
BUILDING_ENVELOPE
  6
CONTINUOUS
 62
     7
100
AcDbLine
 10
0.356904
 20
17.511665
 30
0.0
 11
11.911245
 21
17.511198
 31
0.0
  0
LWPOLYLINE
  5
DC
102
{ACAD_REACTORS
330
DD
102
}
100
AcDbEntity
  8
BUILDING_ENVELOPE
  6
CONTINUOUS
 62
     7
100
AcDbPolyline
 90
        4
 70
     1
 10
12.272423
 20
39.340212
 10
25.02357
 20
39.239367
 10
25.02357
 20
38.906023
 10
12.271998
 20
39.006872
  0
HATCH
  5
DD
102
{ACAD_REACTORS
330
DB
102
}
100
AcDbEntity
  8
BUILDING_ENVELOPE
 62
     7
100
AcDbHatch
 10
0.0
 20
0.0
 30
0.0
210
0.0
220
0.0
230
1.0
  2
SOLID
 70
     1
 71
     1
 91
        1
 92
        3
 72
     0
 73
     1
 93
        4
 10
12.2724231420795711
 20
39.3402122086936501
 10
25.0235702260395385
 20
39.2393666765044884
 10
25.0235702260395456
 20
38.9060229186342212
 10
12.2719979366132499
 20
39.0068718136637003
 97
        1
330
DC
 75
     0
 76
     1
 98
        0
  0
LWPOLYLINE
  5
DE
102
{ACAD_REACTORS
330
DF
102
}
100
AcDbEntity
  8
BUILDING_ENVELOPE
  6
CONTINUOUS
 62
     7
100
AcDbPolyline
 90
        4
 70
     1
 10
12.271998
 20
39.006872
 10
12.272423
 20
39.340212
 10
12.23909
 20
39.340255
 10
12.238665
 20
39.006914
  0
HATCH
  5
DF
102
{ACAD_REACTORS
330
DB
102
}
100
AcDbEntity
  8
BUILDING_ENVELOPE
 62
     7
100
AcDbHatch
 10
0.0
 20
0.0
 30
0.0
210
0.0
220
0.0
230
1.0
  2
SOLID
 70
     1
 71
     1
 91
        1
 92
        3
 72
     0
 73
     1
 93
        4
 10
12.2719979366132499
 20
39.0068718136637003
 10
12.2724231420795711
 20
39.3402122086936501
 10
12.2390898358650091
 20
39.340254728304906
 10
12.2386646303986879
 20
39.0069143332749562
 97
        1
330
DE
 75
     0
 76
     1
 98
        0
  0
LWPOLYLINE
  5
E0
102
{ACAD_REACTORS
330
E1
102
}
100
AcDbEntity
  8
BUILDING_ENVELOPE
  6
CONTINUOUS
 62
     7
100
AcDbPolyline
 90
        4
 70
     1
 10
25.02357
 20
39.239367
 10
25.02357
 20
38.906023
 10
25.056904
 20
38.906023
 10
25.056904
 20
39.239367
  0
HATCH
  5
E1
102
{ACAD_REACTORS
330
DB
102
}
100
AcDbEntity
  8
BUILDING_ENVELOPE
 62
     7
100
AcDbHatch
 10
0.0
 20
0.0
 30
0.0
210
0.0
220
0.0
230
1.0
  2
SOLID
 70
     1
 71
     1
 91
        1
 92
        3
 72
     0
 73
     1
 93
        4
 10
25.0235702260395385
 20
39.2393666765044884
 10
25.0235702260395527
 20
38.9060229186342212
 10
25.0569035593728877
 20
38.9060229186342212
 10
25.0569035593728699
 20
39.2393666765044884
 97
        1
330
E0
 75
     0
 76
     1
 98
        0
  0
LINE
  5
E2
102
{ACAD_REACTORS
330
DB
102
}
100
AcDbEntity
  8
BUILDING_ENVELOPE
  6
CONTINUOUS
 62
     7
100
AcDbLine
 10
12.272423
 20
39.340212
 30
0.0
 11
25.02357
 21
39.239367
 31
0.0
  0
LINE
  5
E3
102
{ACAD_REACTORS
330
DB
102
}
100
AcDbEntity
  8
BUILDING_ENVELOPE
  6
CONTINUOUS
 62
     7
100
AcDbLine
 10
12.271998
 20
39.006872
 30
0.0
 11
25.02357
 21
38.906023
 31
0.0
  0
LWPOLYLINE
  5
E5
102
{ACAD_REACTORS
330
E6
102
}
100
AcDbEntity
  8
BUILDING_ENVELOPE
  6
CONTINUOUS
 62
     7
100
AcDbPolyline
 90
        4
 70
     1
 10
12.255822
 20
26.32588
 10
25.02357
 20
26.26129
 10
25.02357
 20
25.927952
 10
12.255397
 20
25.992544
  0
HATCH
  5
E6
102
{ACAD_REACTORS
330
E4
102
}
100
AcDbEntity
  8
BUILDING_ENVELOPE
 62
     7
100
AcDbHatch
 10
0.0
 20
0.0
 30
0.0
210
0.0
220
0.0
230
1.0
  2
SOLID
 70
     1
 71
     1
 91
        1
 92
        3
 72
     0
 73
     1
 93
        4
 10
12.2558221979599242
 20
26.3258798236192639
 10
25.0235702260395385
 20
26.2612899111389098
 10
25.0235702260395456
 20
25.9279523125333284
 10
12.2553969988044997
 20
25.9925443760254531
 97
        1
330
E5
 75
     0
 76
     1
 98
        0
  0
LWPOLYLINE
  5
E7
102
{ACAD_REACTORS
330
E8
102
}
100
AcDbEntity
  8
BUILDING_ENVELOPE
  6
CONTINUOUS
 62
     7
100
AcDbPolyline
 90
        4
 70
     1
 10
12.255397
 20
25.992544
 10
12.255822
 20
26.32588
 10
12.222489
 20
26.325922
 10
12.222064
 20
25.992587
  0
HATCH
  5
E8
102
{ACAD_REACTORS
330
E4
102
}
100
AcDbEntity
  8
BUILDING_ENVELOPE
 62
     7
100
AcDbHatch
 10
0.0
 20
0.0
 30
0.0
210
0.0
220
0.0
230
1.0
  2
SOLID
 70
     1
 71
     1
 91
        1
 92
        3
 72
     0
 73
     1
 93
        4
 10
12.2553969988044997
 20
25.9925443760254531
 10
12.2558221979599242
 20
26.3258798236192639
 10
12.2224888917453605
 20
26.3259223432305234
 10
12.222063692589936
 20
25.992586895636709
 97
        1
330
E7
 75
     0
 76
     1
 98
        0
  0
LWPOLYLINE
  5
E9
102
{ACAD_REACTORS
330
EA
102
}
100
AcDbEntity
  8
BUILDING_ENVELOPE
  6
CONTINUOUS
 62
     7
100
AcDbPolyline
 90
        4
 70
     1
 10
25.02357
 20
26.26129
 10
25.02357
 20
25.927952
 10
25.056904
 20
25.927952
 10
25.056904
 20
26.26129
  0
HATCH
  5
EA
102
{ACAD_REACTORS
330
E4
102
}
100
AcDbEntity
  8
BUILDING_ENVELOPE
 62
     7
100
AcDbHatch
 10
0.0
 20
0.0
 30
0.0
210
0.0
220
0.0
230
1.0
  2
SOLID
 70
     1
 71
     1
 91
        1
 92
        3
 72
     0
 73
     1
 93
        4
 10
25.0235702260395385
 20
26.2612899111389098
 10
25.0235702260395527
 20
25.9279523125333284
 10
25.0569035593728877
 20
25.9279523125333355
 10
25.0569035593728699
 20
26.2612899111389098
 97
        1
330
E9
 75
     0
 76
     1
 98
        0
  0
LINE
  5
EB
102
{ACAD_REACTORS
330
E4
102
}
100
AcDbEntity
  8
BUILDING_ENVELOPE
  6
CONTINUOUS
 62
     7
100
AcDbLine
 10
12.255822
 20
26.32588
 30
0.0
 11
25.02357
 21
26.26129
 31
0.0
  0
LINE
  5
EC
102
{ACAD_REACTORS
330
E4
102
}
100
AcDbEntity
  8
BUILDING_ENVELOPE
  6
CONTINUOUS
 62
     7
100
AcDbLine
 10
12.255397
 20
25.992544
 30
0.0
 11
25.02357
 21
25.927952
 31
0.0
  0
LWPOLYLINE
  5
EE
102
{ACAD_REACTORS
330
EF
102
}
100
AcDbEntity
  8
BUILDING_ENVELOPE
  6
CONTINUOUS
 62
     7
100
AcDbPolyline
 90
        4
 70
     1
 10
12.233598
 20
8.903101
 10
25.02357
 20
8.903101
 10
25.02357
 20
8.569768
 10
11.899839
 20
8.569768
  0
HATCH
  5
EF
102
{ACAD_REACTORS
330
ED
102
}
100
AcDbEntity
  8
BUILDING_ENVELOPE
 62
     7
100
AcDbHatch
 10
0.0
 20
0.0
 30
0.0
210
0.0
220
0.0
230
1.0
  2
SOLID
 70
     1
 71
     1
 91
        1
 92
        3
 72
     0
 73
     1
 93
        4
 10
12.2335978863674164
 20
8.903100973825099
 10
25.0235702260395385
 20
8.903100973825099
 10
25.0235702260395456
 20
8.5697676404917651
 10
11.8998390853876508
 20
8.5697676404917651
 97
        1
330
EE
 75
     0
 76
     1
 98
        0
  0
LWPOLYLINE
  5
F0
102
{ACAD_REACTORS
330
F1
102
}
100
AcDbEntity
  8
BUILDING_ENVELOPE
  6
CONTINUOUS
 62
     7
100
AcDbPolyline
 90
        4
 70
     1
 10
25.02357
 20
8.903101
 10
25.02357
 20
8.569768
 10
25.056904
 20
8.569768
 10
25.056904
 20
8.903101
  0
HATCH
  5
F1
102
{ACAD_REACTORS
330
ED
102
}
100
AcDbEntity
  8
BUILDING_ENVELOPE
 62
     7
100
AcDbHatch
 10
0.0
 20
0.0
 30
0.0
210
0.0
220
0.0
230
1.0
  2
SOLID
 70
     1
 71
     1
 91
        1
 92
        3
 72
     0
 73
     1
 93
        4
 10
25.0235702260395456
 20
8.903100973825099
 10
25.0235702260395456
 20
8.5697676404917651
 10
25.0569035593728842
 20
8.5697676404917651
 10
25.0569035593728842
 20
8.903100973825099
 97
        1
330
F0
 75
     0
 76
     1
 98
        0
  0
LINE
  5
F2
102
{ACAD_REACTORS
330
ED
102
}
100
AcDbEntity
  8
BUILDING_ENVELOPE
  6
CONTINUOUS
 62
     7
100
AcDbLine
 10
12.233598
 20
8.903101
 30
0.0
 11
25.02357
 21
8.903101
 31
0.0
  0
LINE
  5
F3
102
{ACAD_REACTORS
330
ED
102
}
100
AcDbEntity
  8
BUILDING_ENVELOPE
  6
CONTINUOUS
 62
     7
100
AcDbLine
 10
11.899839
 20
8.569768
 30
0.0
 11
25.02357
 21
8.569768
 31
0.0
  0
LWPOLYLINE
  5
F5
102
{ACAD_REACTORS
330
F6
102
}
100
AcDbEntity
  8
BUILDING_ENVELOPE
  6
CONTINUOUS
 62
     7
100
AcDbPolyline
 90
        4
 70
     1
 10
12.250072
 20
21.817713
 10
25.02357
 20
21.817713
 10
25.02357
 20
21.484379
 10
12.249646
 20
21.484379
  0
HATCH
  5
F6
102
{ACAD_REACTORS
330
F4
102
}
100
AcDbEntity
  8
BUILDING_ENVELOPE
 62
     7
100
AcDbHatch
 10
0.0
 20
0.0
 30
0.0
210
0.0
220
0.0
230
1.0
  2
SOLID
 70
     1
 71
     1
 91
        1
 92
        3
 72
     0
 73
     1
 93
        4
 10
12.2500718751417175
 20
21.8177126016448213
 10
25.0235704796341167
 20
21.8177126016448213
 10
25.023570226041393
 20
21.4843792683114891
 10
12.2496464250900807
 20
21.4843792683114891
 97
        1
330
F5
 75
     0
 76
     1
 98
        0
  0
LWPOLYLINE
  5
F7
102
{ACAD_REACTORS
330
F8
102
}
100
AcDbEntity
  8
BUILDING_ENVELOPE
  6
CONTINUOUS
 62
     7
100
AcDbPolyline
 90
        4
 70
     1
 10
12.249646
 20
21.484379
 10
12.250072
 20
21.817713
 10
12.216739
 20
21.817755
 10
12.216313
 20
21.484422
  0
HATCH
  5
F8
102
{ACAD_REACTORS
330
F4
102
}
100
AcDbEntity
  8
BUILDING_ENVELOPE
 62
     7
100
AcDbHatch
 10
0.0
 20
0.0
 30
0.0
210
0.0
220
0.0
230
1.0
  2
SOLID
 70
     1
 71
     1
 91
        1
 92
        3
 72
     0
 73
     1
 93
        4
 10
12.2496464250900807
 20
21.4843792683114891
 10
12.2500718751417175
 20
21.8177126016448213
 10
12.2167385689595136
 20
21.8177551466153297
 10
12.2163131189078769
 20
21.4844218132819975
 97
        1
330
F7
 75
     0
 76
     1
 98
        0
  0
LWPOLYLINE
  5
F9
102
{ACAD_REACTORS
330
FA
102
}
100
AcDbEntity
  8
BUILDING_ENVELOPE
  6
CONTINUOUS
 62
     7
100
AcDbPolyline
 90
        4
 70
     1
 10
25.02357
 20
21.817713
 10
25.02357
 20
21.484379
 10
25.056904
 20
21.484379
 10
25.056904
 20
21.817713
  0
HATCH
  5
FA
102
{ACAD_REACTORS
330
F4
102
}
100
AcDbEntity
  8
BUILDING_ENVELOPE
 62
     7
100
AcDbHatch
 10
0.0
 20
0.0
 30
0.0
210
0.0
220
0.0
230
1.0
  2
SOLID
 70
     1
 71
     1
 91
        1
 92
        3
 72
     0
 73
     1
 93
        4
 10
25.0235703528377549
 20
21.817712601644871
 10
25.0235703528377549
 20
21.484379268311443
 10
25.0569036861710863
 20
21.484379268311443
 10
25.0569036861710863
 20
21.817712601644871
 97
        1
330
F9
 75
     0
 76
     1
 98
        0
  0
LINE
  5
FB
102
{ACAD_REACTORS
330
F4
102
}
100
AcDbEntity
  8
BUILDING_ENVELOPE
  6
CONTINUOUS
 62
     7
100
AcDbLine
 10
12.250072
 20
21.817713
 30
0.0
 11
25.02357
 21
21.817713
 31
0.0
  0
LINE
  5
FC
102
{ACAD_REACTORS
330
F4
102
}
100
AcDbEntity
  8
BUILDING_ENVELOPE
  6
CONTINUOUS
 62
     7
100
AcDbLine
 10
12.249646
 20
21.484379
 30
0.0
 11
25.02357
 21
21.484379
 31
0.0
  0
LWPOLYLINE
  5
FE
102
{ACAD_REACTORS
330
FF
102
}
100
AcDbEntity
  8
BUILDING_ENVELOPE
  6
CONTINUOUS
 62
     7
100
AcDbPolyline
 90
        4
 70
     1
 10
17.15566
 20
21.817711
 10
17.15566
 20
25.990745
 10
17.488994
 20
25.990745
 10
17.488994
 20
21.817712
  0
HATCH
  5
FF
102
{ACAD_REACTORS
330
FD
102
}
100
AcDbEntity
  8
BUILDING_ENVELOPE
 62
     7
100
AcDbHatch
 10
0.0
 20
0.0
 30
0.0
210
0.0
220
0.0
230
1.0
  2
SOLID
 70
     1
 71
     1
 91
        1
 92
        3
 72
     0
 73
     1
 93
        4
 10
17.1556601882809474
 20
21.8177114749720609
 10
17.1556601882809474
 20
25.9907446077638475
 10
17.4889935216142831
 20
25.9907446077638475
 10
17.4889935216142831
 20
21.8177117285646212
 97
        1
330
FE
 75
     0
 76
     1
 98
        0
  0
LWPOLYLINE
  5
100
102
{ACAD_REACTORS
330
101
102
}
100
AcDbEntity
  8
BUILDING_ENVELOPE
  6
CONTINUOUS
 62
     7
100
AcDbPolyline
 90
        4
 70
     1
 10
17.488994
 20
21.817712
 10
17.15566
 20
21.817712
 10
17.15566
 20
21.784378
 10
17.488994
 20
21.784378
  0
HATCH
  5
101
102
{ACAD_REACTORS
330
FD
102
}
100
AcDbEntity
  8
BUILDING_ENVELOPE
 62
     7
100
AcDbHatch
 10
0.0
 20
0.0
 30
0.0
210
0.0
220
0.0
230
1.0
  2
SOLID
 70
     1
 71
     1
 91
        1
 92
        3
 72
     0
 73
     1
 93
        4
 10
17.4889935216142831
 20
21.817711601768341
 10
17.1556601882808515
 20
21.817711601768341
 10
17.1556601882808515
 20
21.7843782684350096
 10
17.4889935216142831
 20
21.7843782684350096
 97
        1
330
100
 75
     0
 76
     1
 98
        0
  0
LINE
  5
102
102
{ACAD_REACTORS
330
FD
102
}
100
AcDbEntity
  8
BUILDING_ENVELOPE
  6
CONTINUOUS
 62
     7
100
AcDbLine
 10
17.15566
 20
21.817711
 30
0.0
 11
17.15566
 21
25.990745
 31
0.0
  0
LINE
  5
103
102
{ACAD_REACTORS
330
FD
102
}
100
AcDbEntity
  8
BUILDING_ENVELOPE
  6
CONTINUOUS
 62
     7
100
AcDbLine
 10
17.488994
 20
21.817712
 30
0.0
 11
17.488994
 21
25.990745
 31
0.0
  0
LWPOLYLINE
  5
105
102
{ACAD_REACTORS
330
106
102
}
100
AcDbEntity
  8
BUILDING_ENVELOPE
  6
CONTINUOUS
 62
     7
100
AcDbPolyline
 90
        4
 70
     1
 10
11.899839
 20
8.569768
 10
11.948124
 20
46.422422
 10
12.281457
 20
46.422422
 10
12.233598
 20
8.903101
  0
HATCH
  5
106
102
{ACAD_REACTORS
330
104
102
}
100
AcDbEntity
  8
BUILDING_ENVELOPE
 62
     7
100
AcDbHatch
 10
0.0
 20
0.0
 30
0.0
210
0.0
220
0.0
230
1.0
  2
SOLID
 70
     1
 71
     1
 91
        1
 92
        3
 72
     0
 73
     1
 93
        4
 10
11.899839085387665
 20
8.5697676404917118
 10
11.9481235294066366
 20
46.4224222222222309
 10
12.2814571339279031
 20
46.422422222222238
 10
12.2335978863674306
 20
8.9031009738250493
 97
        1
330
105
 75
     0
 76
     1
 98
        0
  0
LWPOLYLINE
  5
107
102
{ACAD_REACTORS
330
108
102
}
100
AcDbEntity
  8
BUILDING_ENVELOPE
  6
CONTINUOUS
 62
     7
100
AcDbPolyline
 90
        4
 70
     1
 10
11.948124
 20
46.422422
 10
12.281457
 20
46.422422
 10
12.281457
 20
46.455756
 10
11.948124
 20
46.455756
  0
HATCH
  5
108
102
{ACAD_REACTORS
330
104
102
}
100
AcDbEntity
  8
BUILDING_ENVELOPE
 62
     7
100
AcDbHatch
 10
0.0
 20
0.0
 30
0.0
210
0.0
220
0.0
230
1.0
  2
SOLID
 70
     1
 71
     1
 91
        1
 92
        3
 72
     0
 73
     1
 93
        4
 10
11.9481235294066366
 20
46.4224222222222309
 10
12.2814571339279031
 20
46.4224222222222522
 10
12.2814571339279013
 20
46.4557555555555837
 10
11.9481235294066366
 20
46.4557555555555695
 97
        1
330
107
 75
     0
 76
     1
 98
        0
  0
LINE
  5
109
102
{ACAD_REACTORS
330
104
102
}
100
AcDbEntity
  8
BUILDING_ENVELOPE
  6
CONTINUOUS
 62
     7
100
AcDbLine
 10
11.899839
 20
8.569768
 30
0.0
 11
11.948124
 21
46.422422
 31
0.0
  0
LINE
  5
10A
102
{ACAD_REACTORS
330
104
102
}
100
AcDbEntity
  8
BUILDING_ENVELOPE
  6
CONTINUOUS
 62
     7
100
AcDbLine
 10
12.233598
 20
8.903101
 30
0.0
 11
12.281457
 21
46.422422
 31
0.0
  0
LWPOLYLINE
  5
10C
102
{ACAD_REACTORS
330
10B
102
}
100
AcDbEntity
  8
BUILDING_ENVELOPE
  6
CONTINUOUS
 62
     7
100
AcDbPolyline
 90
        4
 70
     1
 10
11.914487
 20
26.32456
 10
11.908666
 20
21.761585
 10
12.257999
 20
21.76114
 10
12.26382
 20
26.324114
  0
LWPOLYLINE
  5
10D
102
{ACAD_REACTORS
330
10B
102
}
100
AcDbEntity
  8
BUILDING_ENVELOPE
  6
CONTINUOUS
 62
     7
100
AcDbPolyline
 90
        4
 70
     1
 10
11.916666
 20
21.761575
 10
12.249999
 20
21.76115
 10
12.250212
 20
21.927817
 10
11.916879
 20
21.928242
  0
LWPOLYLINE
  5
10E
102
{ACAD_REACTORS
330
10B
102
}
100
AcDbEntity
  8
BUILDING_ENVELOPE
  6
CONTINUOUS
 62
     7
100
AcDbPolyline
 90
        4
 70
     1
 10
11.922487
 20
26.32455
 10
12.25582
 20
26.324124
 10
12.255607
 20
26.157458
 10
11.922274
 20
26.157883
  0
LINE
  5
10F
102
{ACAD_REACTORS
330
10B
102
}
100
AcDbEntity
  8
BUILDING_ENVELOPE
  6
CONTINUOUS
 62
     7
100
AcDbLine
 10
11.916666
 20
21.761575
 30
0.0
 11
12.249999
 21
21.76115
 31
0.0
  0
LINE
  5
110
102
{ACAD_REACTORS
330
10B
102
}
100
AcDbEntity
  8
BUILDING_ENVELOPE
  6
CONTINUOUS
 62
     7
100
AcDbLine
 10
11.922487
 20
26.32455
 30
0.0
 11
12.25582
 21
26.324124
 31
0.0
  0
LWPOLYLINE
  5
112
102
{ACAD_REACTORS
330
118
102
}
100
AcDbEntity
  8
BUILDING_ENVELOPE
  6
CONTINUOUS
 62
     7
100
AcDbPolyline
 90
        4
 70
     1
 10
4.035601
 20
17.503516
 10
0.452268
 20
17.503661
 10
0.452282
 20
17.852994
 10
4.035615
 20
17.852849
  0
LINE
  5
113
102
{ACAD_REACTORS
330
118
102
}
100
AcDbEntity
  8
BUILDING_ENVELOPE
  6
CONTINUOUS
 62
     7
100
AcDbLine
 10
0.452268
 20
17.511661
 30
0.0
 11
0.452282
 21
17.844994
 31
0.0
  0
LINE
  5
114
102
{ACAD_REACTORS
330
118
102
}
100
AcDbEntity
  8
BUILDING_ENVELOPE
  6
CONTINUOUS
 62
     7
100
AcDbLine
 10
0.452282
 20
17.844994
 30
0.0
 11
0.618948
 21
17.844987
 31
0.0
  0
LINE
  5
115
102
{ACAD_REACTORS
330
118
102
}
100
AcDbEntity
  8
BUILDING_ENVELOPE
  6
CONTINUOUS
 62
     7
100
AcDbLine
 10
0.618948
 20
17.844987
 30
0.0
 11
0.618943
 21
17.719987
 31
0.0
  0
LINE
  5
116
102
{ACAD_REACTORS
330
118
102
}
100
AcDbEntity
  8
BUILDING_ENVELOPE
  6
CONTINUOUS
 62
     7
100
AcDbLine
 10
0.618938
 20
17.594987
 30
0.0
 11
0.618935
 21
17.511654
 31
0.0
  0
LINE
  5
117
102
{ACAD_REACTORS
330
118
102
}
100
AcDbEntity
  8
BUILDING_ENVELOPE
  6
CONTINUOUS
 62
     7
100
AcDbLine
 10
0.618935
 20
17.511654
 30
0.0
 11
0.452268
 21
17.511661
 31
0.0
  0
HATCH
  5
118
102
{ACAD_REACTORS
330
111
102
}
100
AcDbEntity
  8
BUILDING_ENVELOPE
 62
     7
100
AcDbHatch
 10
0.0
 20
0.0
 30
0.0
210
0.0
220
0.0
230
1.0
  2
SOLID
 70
     1
 71
     1
 91
        2
 92
        1
 93
        6
 72
     1
 10
0.4522681244548773
 20
17.5116607024364903
 11
0.4522815736215975
 21
17.8449940354985017
 72
     1
 10
0.4522815736215975
 20
17.8449940354985017
 11
0.6189482401526043
 21
17.844987310915144
 72
     1
 10
0.6189482401526043
 20
17.844987310915144
 11
0.6189431967150842
 21
17.7199873110168866
 72
     1
 10
0.6189431967150842
 20
17.7199873110168866
 11
0.6189381532775642
 21
17.5949873111186328
 72
     1
 10
0.6189381532775642
 20
17.5949873111186328
 11
0.6189347909858842
 21
17.511653977853129
 72
     1
 10
0.6189347909858842
 20
17.511653977853129
 11
0.4522681244548773
 21
17.5116607024364903
 97
        9
330
10C
330
10D
330
10E
330
112
330
113
330
114
330
115
330
116
330
117
 92
        1
 93
        6
 72
     1
 10
4.0356014211478692
 20
17.5115161238956105
 11
4.0356148703145891
 21
17.8448494569576219
 72
     1
 10
4.0356148703145891
 20
17.8448494569576219
 11
3.8689482037835825
 21
17.8448561815409832
 72
     1
 10
3.8689482037835825
 20
17.8448561815409832
 11
3.8689431603460624
 21
17.7198561816427258
 72
     1
 10
3.8689431603460624
 20
17.7198561816427258
 11
3.8689381169085424
 21
17.594856181744472
 72
     1
 10
3.8689381169085424
 20
17.594856181744472
 11
3.8689347546168626
 21
17.5115228484789682
 72
     1
 10
3.8689347546168626
 20
17.5115228484789682
 11
4.0356014211478692
 21
17.5115161238956105
 97
        5
330
119
330
11A
330
11B
330
11C
330
11D
 75
     0
 76
     1
 98
        0
  0
LINE
  5
119
102
{ACAD_REACTORS
330
118
102
}
100
AcDbEntity
  8
BUILDING_ENVELOPE
  6
CONTINUOUS
 62
     7
100
AcDbLine
 10
4.035601
 20
17.511516
 30
0.0
 11
4.035615
 21
17.844849
 31
0.0
  0
LINE
  5
11A
102
{ACAD_REACTORS
330
118
102
}
100
AcDbEntity
  8
BUILDING_ENVELOPE
  6
CONTINUOUS
 62
     7
100
AcDbLine
 10
4.035615
 20
17.844849
 30
0.0
 11
3.868948
 21
17.844856
 31
0.0
  0
LINE
  5
11B
102
{ACAD_REACTORS
330
118
102
}
100
AcDbEntity
  8
BUILDING_ENVELOPE
  6
CONTINUOUS
 62
     7
100
AcDbLine
 10
3.868948
 20
17.844856
 30
0.0
 11
3.868943
 21
17.719856
 31
0.0
  0
LINE
  5
11C
102
{ACAD_REACTORS
330
118
102
}
100
AcDbEntity
  8
BUILDING_ENVELOPE
  6
CONTINUOUS
 62
     7
100
AcDbLine
 10
3.868938
 20
17.594856
 30
0.0
 11
3.868935
 21
17.511523
 31
0.0
  0
LINE
  5
11D
102
{ACAD_REACTORS
330
118
102
}
100
AcDbEntity
  8
BUILDING_ENVELOPE
  6
CONTINUOUS
 62
     7
100
AcDbLine
 10
3.868935
 20
17.511523
 30
0.0
 11
4.035601
 21
17.511516
 31
0.0
  0
LINE
  5
11E
102
{ACAD_REACTORS
330
121
102
}
100
AcDbEntity
  8
BUILDING_ENVELOPE
  6
CONTINUOUS
 62
     7
100
AcDbLine
 10
0.618943
 20
17.719987
 30
0.0
 11
0.66061
 21
17.719986
 31
0.0
  0
LINE
  5
11F
102
{ACAD_REACTORS
330
121
102
}
100
AcDbEntity
  8
BUILDING_ENVELOPE
  6
CONTINUOUS
 62
     7
100
AcDbLine
 10
0.66061
 20
17.719986
 30
0.0
 11
0.660605
 21
17.594986
 31
0.0
  0
LINE
  5
120
102
{ACAD_REACTORS
330
121
102
}
100
AcDbEntity
  8
BUILDING_ENVELOPE
  6
CONTINUOUS
 62
     7
100
AcDbLine
 10
0.660605
 20
17.594986
 30
0.0
 11
0.618938
 21
17.594987
 31
0.0
  0
HATCH
  5
121
102
{ACAD_REACTORS
330
111
102
}
100
AcDbEntity
  8
BUILDING_ENVELOPE
 62
     7
100
AcDbHatch
 10
0.0
 20
0.0
 30
0.0
210
0.0
220
0.0
230
1.0
  2
SOLID
 70
     1
 71
     1
 91
        2
 92
        1
 93
        4
 72
     1
 10
0.6189431967150842
 20
17.7199873110168866
 11
0.6606098633478356
 21
17.7199856298710472
 72
     1
 10
0.6606098633478356
 20
17.7199856298710472
 11
0.6606048199103155
 21
17.5949856299727934
 72
     1
 10
0.6606048199103155
 20
17.5949856299727934
 11
0.6189381532775642
 21
17.5949873111186328
 72
     1
 10
0.6189381532775642
 20
17.5949873111186328
 11
0.6189431967150842
 21
17.7199873110168866
 97
        3
330
11E
330
11F
330
120
 92
        1
 93
        4
 72
     1
 10
3.8689431603460624
 20
17.7198561816427258
 11
3.8272764937133106
 21
17.7198578627885688
 72
     1
 10
3.8272764937133106
 20
17.7198578627885688
 11
3.8272714502757905
 21
17.5948578628903149
 72
     1
 10
3.8272714502757905
 20
17.5948578628903149
 11
3.8689381169085424
 21
17.594856181744472
 72
     1
 10
3.8689381169085424
 20
17.594856181744472
 11
3.8689431603460624
 21
17.7198561816427258
 97
        3
330
122
330
123
330
124
 75
     0
 76
     1
 98
        0
  0
LINE
  5
122
102
{ACAD_REACTORS
330
121
102
}
100
AcDbEntity
  8
BUILDING_ENVELOPE
  6
CONTINUOUS
 62
     7
100
AcDbLine
 10
3.868943
 20
17.719856
 30
0.0
 11
3.827276
 21
17.719858
 31
0.0
  0
LINE
  5
123
102
{ACAD_REACTORS
330
121
102
}
100
AcDbEntity
  8
BUILDING_ENVELOPE
  6
CONTINUOUS
 62
     7
100
AcDbLine
 10
3.827276
 20
17.719858
 30
0.0
 11
3.827271
 21
17.594858
 31
0.0
  0
LINE
  5
124
102
{ACAD_REACTORS
330
121
102
}
100
AcDbEntity
  8
BUILDING_ENVELOPE
  6
CONTINUOUS
 62
     7
100
AcDbLine
 10
3.827271
 20
17.594858
 30
0.0
 11
3.868938
 21
17.594856
 31
0.0
  0
LINE
  5
125
102
{ACAD_REACTORS
330
111
102
}
100
AcDbEntity
  8
BUILDING_ENVELOPE
  6
CONTINUOUS
 62
     7
100
AcDbLine
 10
0.452268
 20
17.511661
 30
0.0
 11
0.452282
 21
17.844994
 31
0.0
  0
LINE
  5
126
102
{ACAD_REACTORS
330
111
102
}
100
AcDbEntity
  8
BUILDING_ENVELOPE
  6
CONTINUOUS
 62
     7
100
AcDbLine
 10
4.035601
 20
17.511516
 30
0.0
 11
4.035615
 21
17.844849
 31
0.0
  0
ARC
  5
127
102
{ACAD_REACTORS
330
111
102
}
100
AcDbEntity
  8
BUILDING_ENVELOPE
  6
CONTINUOUS
 62
     7
100
AcDbCircle
 10
0.618948
 20
17.844987
 30
0.0
 40
3.25
100
AcDbArc
 50
0.0
 51
89.997688
  0
LWPOLYLINE
  5
128
102
{ACAD_REACTORS
330
129
102
}
100
AcDbEntity
  8
BUILDING_ENVELOPE
  6
CONTINUOUS
 62
     7
100
AcDbPolyline
 90
        4
 70
     1
 10
0.744079
 20
21.094982
 10
0.743948
 20
17.844982
 10
0.618948
 20
17.844987
 10
0.619079
 20
21.094987
  0
HATCH
  5
129
102
{ACAD_REACTORS
330
111
102
}
100
AcDbEntity
  8
BUILDING_ENVELOPE
 62
     7
100
AcDbHatch
 10
0.0
 20
0.0
 30
0.0
210
0.0
220
0.0
230
1.0
  2
SOLID
 70
     1
 71
     1
 91
        1
 92
        3
 72
     0
 73
     1
 93
        4
 10
0.7440793694250196
 20
21.0949822311086024
 10
0.7439482400508588
 20
17.8449822674776222
 10
0.6189482401526043
 20
17.844987310915144
 10
0.6190793695267651
 20
21.0949872745461207
 97
        1
330
128
 75
     0
 76
     1
 98
        0
  0
LWPOLYLINE
  5
12B
102
{ACAD_REACTORS
330
131
102
}
100
AcDbEntity
  8
BUILDING_ENVELOPE
  6
CONTINUOUS
 62
     7
100
AcDbPolyline
 90
        4
 70
     1
 10
15.109059
 20
21.825709
 10
12.275725
 20
21.825709
 10
12.275725
 20
21.476376
 10
15.109059
 20
21.476376
  0
LINE
  5
12C
102
{ACAD_REACTORS
330
131
102
}
100
AcDbEntity
  8
BUILDING_ENVELOPE
  6
CONTINUOUS
 62
     7
100
AcDbLine
 10
12.275725
 20
21.817709
 30
0.0
 11
12.275725
 21
21.484376
 31
0.0
  0
LINE
  5
12D
102
{ACAD_REACTORS
330
131
102
}
100
AcDbEntity
  8
BUILDING_ENVELOPE
  6
CONTINUOUS
 62
     7
100
AcDbLine
 10
12.275725
 20
21.484376
 30
0.0
 11
12.442392
 21
21.484376
 31
0.0
  0
LINE
  5
12E
102
{ACAD_REACTORS
330
131
102
}
100
AcDbEntity
  8
BUILDING_ENVELOPE
  6
CONTINUOUS
 62
     7
100
AcDbLine
 10
12.442392
 20
21.484376
 30
0.0
 11
12.442392
 21
21.609376
 31
0.0
  0
LINE
  5
12F
102
{ACAD_REACTORS
330
131
102
}
100
AcDbEntity
  8
BUILDING_ENVELOPE
  6
CONTINUOUS
 62
     7
100
AcDbLine
 10
12.442392
 20
21.734376
 30
0.0
 11
12.442392
 21
21.817709
 31
0.0
  0
LINE
  5
130
102
{ACAD_REACTORS
330
131
102
}
100
AcDbEntity
  8
BUILDING_ENVELOPE
  6
CONTINUOUS
 62
     7
100
AcDbLine
 10
12.442392
 20
21.817709
 30
0.0
 11
12.275725
 21
21.817709
 31
0.0
  0
HATCH
  5
131
102
{ACAD_REACTORS
330
12A
102
}
100
AcDbEntity
  8
BUILDING_ENVELOPE
 62
     7
100
AcDbHatch
 10
0.0
 20
0.0
 30
0.0
210
0.0
220
0.0
230
1.0
  2
SOLID
 70
     1
 71
     1
 91
        2
 92
        1
 93
        6
 72
     1
 10
12.275725472701092
 20
21.8177088401931343
 11
12.275725472701092
 21
21.4843755068597986
 72
     1
 10
12.275725472701092
 20
21.4843755068597986
 11
12.4423921393677581
 21
21.4843755068597986
 72
     1
 10
12.4423921393677581
 20
21.4843755068597986
 11
12.4423921393677581
 21
21.6093755068597986
 72
     1
 10
12.4423921393677581
 20
21.6093755068597986
 11
12.4423921393677581
 21
21.7343755068597986
 72
     1
 10
12.4423921393677581
 20
21.7343755068597986
 11
12.4423921393677581
 21
21.8177088401931343
 72
     1
 10
12.4423921393677581
 20
21.8177088401931343
 11
12.275725472701092
 21
21.8177088401931343
 97
        6
330
12B
330
12C
330
12D
330
12E
330
12F
330
130
 92
        1
 93
        6
 72
     1
 10
15.109058806034426
 20
21.8177088401931343
 11
15.109058806034426
 21
21.4843755068597986
 72
     1
 10
15.109058806034426
 20
21.4843755068597986
 11
14.9423921393677581
 21
21.4843755068597986
 72
     1
 10
14.9423921393677581
 20
21.4843755068597986
 11
14.9423921393677581
 21
21.6093755068597986
 72
     1
 10
14.9423921393677581
 20
21.6093755068597986
 11
14.9423921393677581
 21
21.7343755068597986
 72
     1
 10
14.9423921393677581
 20
21.7343755068597986
 11
14.9423921393677581
 21
21.8177088401931343
 72
     1
 10
14.9423921393677581
 20
21.8177088401931343
 11
15.109058806034426
 21
21.8177088401931343
 97
        5
330
132
330
133
330
134
330
135
330
136
 75
     0
 76
     1
 98
        0
  0
LINE
  5
132
102
{ACAD_REACTORS
330
131
102
}
100
AcDbEntity
  8
BUILDING_ENVELOPE
  6
CONTINUOUS
 62
     7
100
AcDbLine
 10
15.109059
 20
21.817709
 30
0.0
 11
15.109059
 21
21.484376
 31
0.0
  0
LINE
  5
133
102
{ACAD_REACTORS
330
131
102
}
100
AcDbEntity
  8
BUILDING_ENVELOPE
  6
CONTINUOUS
 62
     7
100
AcDbLine
 10
15.109059
 20
21.484376
 30
0.0
 11
14.942392
 21
21.484376
 31
0.0
  0
LINE
  5
134
102
{ACAD_REACTORS
330
131
102
}
100
AcDbEntity
  8
BUILDING_ENVELOPE
  6
CONTINUOUS
 62
     7
100
AcDbLine
 10
14.942392
 20
21.484376
 30
0.0
 11
14.942392
 21
21.609376
 31
0.0
  0
LINE
  5
135
102
{ACAD_REACTORS
330
131
102
}
100
AcDbEntity
  8
BUILDING_ENVELOPE
  6
CONTINUOUS
 62
     7
100
AcDbLine
 10
14.942392
 20
21.734376
 30
0.0
 11
14.942392
 21
21.817709
 31
0.0
  0
LINE
  5
136
102
{ACAD_REACTORS
330
131
102
}
100
AcDbEntity
  8
BUILDING_ENVELOPE
  6
CONTINUOUS
 62
     7
100
AcDbLine
 10
14.942392
 20
21.817709
 30
0.0
 11
15.109059
 21
21.817709
 31
0.0
  0
LINE
  5
137
102
{ACAD_REACTORS
330
13A
102
}
100
AcDbEntity
  8
BUILDING_ENVELOPE
  6
CONTINUOUS
 62
     7
100
AcDbLine
 10
12.442392
 20
21.609376
 30
0.0
 11
12.484059
 21
21.609376
 31
0.0
  0
LINE
  5
138
102
{ACAD_REACTORS
330
13A
102
}
100
AcDbEntity
  8
BUILDING_ENVELOPE
  6
CONTINUOUS
 62
     7
100
AcDbLine
 10
12.484059
 20
21.609376
 30
0.0
 11
12.484059
 21
21.734376
 31
0.0
  0
LINE
  5
139
102
{ACAD_REACTORS
330
13A
102
}
100
AcDbEntity
  8
BUILDING_ENVELOPE
  6
CONTINUOUS
 62
     7
100
AcDbLine
 10
12.484059
 20
21.734376
 30
0.0
 11
12.442392
 21
21.734376
 31
0.0
  0
HATCH
  5
13A
102
{ACAD_REACTORS
330
12A
102
}
100
AcDbEntity
  8
BUILDING_ENVELOPE
 62
     7
100
AcDbHatch
 10
0.0
 20
0.0
 30
0.0
210
0.0
220
0.0
230
1.0
  2
SOLID
 70
     1
 71
     1
 91
        2
 92
        1
 93
        4
 72
     1
 10
12.4423921393677581
 20
21.6093755068597986
 11
12.484058806034426
 21
21.6093755068597986
 72
     1
 10
12.484058806034426
 20
21.6093755068597986
 11
12.484058806034426
 21
21.7343755068597986
 72
     1
 10
12.484058806034426
 20
21.7343755068597986
 11
12.4423921393677581
 21
21.7343755068597986
 72
     1
 10
12.4423921393677581
 20
21.7343755068597986
 11
12.4423921393677581
 21
21.6093755068597986
 97
        3
330
137
330
138
330
139
 92
        1
 93
        4
 72
     1
 10
14.9423921393677581
 20
21.6093755068597986
 11
14.900725472701092
 21
21.6093755068597986
 72
     1
 10
14.900725472701092
 20
21.6093755068597986
 11
14.900725472701092
 21
21.7343755068597986
 72
     1
 10
14.900725472701092
 20
21.7343755068597986
 11
14.9423921393677581
 21
21.7343755068597986
 72
     1
 10
14.9423921393677581
 20
21.7343755068597986
 11
14.9423921393677581
 21
21.6093755068597986
 97
        3
330
13B
330
13C
330
13D
 75
     0
 76
     1
 98
        0
  0
LINE
  5
13B
102
{ACAD_REACTORS
330
13A
102
}
100
AcDbEntity
  8
BUILDING_ENVELOPE
  6
CONTINUOUS
 62
     7
100
AcDbLine
 10
14.942392
 20
21.609376
 30
0.0
 11
14.900725
 21
21.609376
 31
0.0
  0
LINE
  5
13C
102
{ACAD_REACTORS
330
13A
102
}
100
AcDbEntity
  8
BUILDING_ENVELOPE
  6
CONTINUOUS
 62
     7
100
AcDbLine
 10
14.900725
 20
21.609376
 30
0.0
 11
14.900725
 21
21.734376
 31
0.0
  0
LINE
  5
13D
102
{ACAD_REACTORS
330
13A
102
}
100
AcDbEntity
  8
BUILDING_ENVELOPE
  6
CONTINUOUS
 62
     7
100
AcDbLine
 10
14.900725
 20
21.734376
 30
0.0
 11
14.942392
 21
21.734376
 31
0.0
  0
LINE
  5
13E
102
{ACAD_REACTORS
330
12A
102
}
100
AcDbEntity
  8
BUILDING_ENVELOPE
  6
CONTINUOUS
 62
     7
100
AcDbLine
 10
12.275725
 20
21.817709
 30
0.0
 11
12.275725
 21
21.484376
 31
0.0
  0
LINE
  5
13F
102
{ACAD_REACTORS
330
12A
102
}
100
AcDbEntity
  8
BUILDING_ENVELOPE
  6
CONTINUOUS
 62
     7
100
AcDbLine
 10
15.109059
 20
21.817709
 30
0.0
 11
15.109059
 21
21.484376
 31
0.0
  0
ARC
  5
140
102
{ACAD_REACTORS
330
12A
102
}
100
AcDbEntity
  8
BUILDING_ENVELOPE
  6
CONTINUOUS
 62
     7
100
AcDbCircle
 10
12.442392
 20
21.484376
 30
0.0
 40
2.5
100
AcDbArc
 50
270.0
 51
0.0
  0
LWPOLYLINE
  5
141
102
{ACAD_REACTORS
330
142
102
}
100
AcDbEntity
  8
BUILDING_ENVELOPE
  6
CONTINUOUS
 62
     7
100
AcDbPolyline
 90
        4
 70
     1
 10
12.567392
 20
18.984376
 10
12.567392
 20
21.484376
 10
12.442392
 20
21.484376
 10
12.442392
 20
18.984376
  0
HATCH
  5
142
102
{ACAD_REACTORS
330
12A
102
}
100
AcDbEntity
  8
BUILDING_ENVELOPE
 62
     7
100
AcDbHatch
 10
0.0
 20
0.0
 30
0.0
210
0.0
220
0.0
230
1.0
  2
SOLID
 70
     1
 71
     1
 91
        1
 92
        3
 72
     0
 73
     1
 93
        4
 10
12.5673921393677581
 20
18.9843755068597986
 10
12.5673921393677581
 20
21.4843755068597986
 10
12.4423921393677581
 20
21.4843755068597986
 10
12.4423921393677581
 20
18.9843755068597986
 97
        1
330
141
 75
     0
 76
     1
 98
        0
  0
LWPOLYLINE
  5
144
102
{ACAD_REACTORS
330
145
102
}
100
AcDbEntity
  8
BUILDING_ENVELOPE
  6
CONTINUOUS
 62
     7
100
AcDbPolyline
 90
        4
 70
     1
 10
20.400893
 20
39.275926
 10
20.457413
 20
46.422422
 10
20.790756
 20
46.422422
 10
20.734216
 20
39.27329
  0
HATCH
  5
145
102
{ACAD_REACTORS
330
143
102
}
100
AcDbEntity
  8
BUILDING_ENVELOPE
 62
     7
100
AcDbHatch
 10
0.0
 20
0.0
 30
0.0
210
0.0
220
0.0
230
1.0
  2
SOLID
 70
     1
 71
     1
 91
        1
 92
        3
 72
     0
 73
     1
 93
        4
 10
20.4008927912583466
 20
39.2759262395759023
 10
20.4574125840200374
 20
46.4224222222222593
 10
20.7907563418903045
 20
46.4224222222222664
 10
20.7342157003807479
 20
39.2732900746928522
 97
        1
330
144
 75
     0
 76
     1
 98
        0
  0
LWPOLYLINE
  5
146
102
{ACAD_REACTORS
330
147
102
}
100
AcDbEntity
  8
BUILDING_ENVELOPE
  6
CONTINUOUS
 62
     7
100
AcDbPolyline
 90
        4
 70
     1
 10
20.734216
 20
39.27329
 10
20.400893
 20
39.275926
 10
20.400629
 20
39.242594
 10
20.733952
 20
39.239958
  0
HATCH
  5
147
102
{ACAD_REACTORS
330
143
102
}
100
AcDbEntity
  8
BUILDING_ENVELOPE
 62
     7
100
AcDbHatch
 10
0.0
 20
0.0
 30
0.0
210
0.0
220
0.0
230
1.0
  2
SOLID
 70
     1
 71
     1
 91
        1
 92
        3
 72
     0
 73
     1
 93
        4
 10
20.7342157003807479
 20
39.2732900746928522
 10
20.4008927912583466
 20
39.2759262395759023
 10
20.4006291747700388
 20
39.2425939486636608
 10
20.73395208389244
 20
39.2399577837806106
 97
        1
330
146
 75
     0
 76
     1
 98
        0
  0
LWPOLYLINE
  5
148
102
{ACAD_REACTORS
330
149
102
}
100
AcDbEntity
  8
BUILDING_ENVELOPE
  6
CONTINUOUS
 62
     7
100
AcDbPolyline
 90
        4
 70
     1
 10
20.457413
 20
46.422422
 10
20.790756
 20
46.422422
 10
20.790756
 20
46.455756
 10
20.457413
 20
46.455756
  0
HATCH
  5
149
102
{ACAD_REACTORS
330
143
102
}
100
AcDbEntity
  8
BUILDING_ENVELOPE
 62
     7
100
AcDbHatch
 10
0.0
 20
0.0
 30
0.0
210
0.0
220
0.0
230
1.0
  2
SOLID
 70
     1
 71
     1
 91
        1
 92
        3
 72
     0
 73
     1
 93
        4
 10
20.4574125840200374
 20
46.4224222222222593
 10
20.7907563418903045
 20
46.4224222222222664
 10
20.7907563418903045
 20
46.4557555555555979
 10
20.4574125840200338
 20
46.4557555555555908
 97
        1
330
148
 75
     0
 76
     1
 98
        0
  0
LINE
  5
14A
102
{ACAD_REACTORS
330
143
102
}
100
AcDbEntity
  8
BUILDING_ENVELOPE
  6
CONTINUOUS
 62
     7
100
AcDbLine
 10
20.400893
 20
39.275926
 30
0.0
 11
20.457413
 21
46.422422
 31
0.0
  0
LINE
  5
14B
102
{ACAD_REACTORS
330
143
102
}
100
AcDbEntity
  8
BUILDING_ENVELOPE
  6
CONTINUOUS
 62
     7
100
AcDbLine
 10
20.734216
 20
39.27329
 30
0.0
 11
20.790756
 21
46.422422
 31
0.0
  0
LWPOLYLINE
  5
14D
102
{ACAD_REACTORS
330
153
102
}
100
AcDbEntity
  8
BUILDING_ENVELOPE
  6
CONTINUOUS
 62
     7
100
AcDbPolyline
 90
        4
 70
     1
 10
22.926073
 20
38.914611
 10
20.801114
 20
38.931417
 10
20.803876
 20
39.280739
 10
22.928835
 20
39.263934
  0
LINE
  5
14E
102
{ACAD_REACTORS
330
153
102
}
100
AcDbEntity
  8
BUILDING_ENVELOPE
  6
CONTINUOUS
 62
     7
100
AcDbLine
 10
20.801177
 20
38.939417
 30
0.0
 11
20.803813
 21
39.27274
 31
0.0
  0
LINE
  5
14F
102
{ACAD_REACTORS
330
153
102
}
100
AcDbEntity
  8
BUILDING_ENVELOPE
  6
CONTINUOUS
 62
     7
100
AcDbLine
 10
20.803813
 20
39.27274
 30
0.0
 11
20.970475
 21
39.271422
 31
0.0
  0
LINE
  5
150
102
{ACAD_REACTORS
330
153
102
}
100
AcDbEntity
  8
BUILDING_ENVELOPE
  6
CONTINUOUS
 62
     7
100
AcDbLine
 10
20.970475
 20
39.271422
 30
0.0
 11
20.969486
 21
39.146425
 31
0.0
  0
LINE
  5
151
102
{ACAD_REACTORS
330
153
102
}
100
AcDbEntity
  8
BUILDING_ENVELOPE
  6
CONTINUOUS
 62
     7
100
AcDbLine
 10
20.968497
 20
39.021429
 30
0.0
 11
20.967838
 21
38.938099
 31
0.0
  0
LINE
  5
152
102
{ACAD_REACTORS
330
153
102
}
100
AcDbEntity
  8
BUILDING_ENVELOPE
  6
CONTINUOUS
 62
     7
100
AcDbLine
 10
20.967838
 20
38.938099
 30
0.0
 11
20.801177
 21
38.939417
 31
0.0
  0
HATCH
  5
153
102
{ACAD_REACTORS
330
14C
102
}
100
AcDbEntity
  8
BUILDING_ENVELOPE
 62
     7
100
AcDbHatch
 10
0.0
 20
0.0
 30
0.0
210
0.0
220
0.0
230
1.0
  2
SOLID
 70
     1
 71
     1
 91
        2
 92
        1
 93
        6
 72
     1
 10
20.8011769971905949
 20
38.9394167372036861
 11
20.803813162073638
 21
39.2727396463260874
 72
     1
 10
20.803813162073638
 20
39.2727396463260874
 11
20.9704746166348386
 21
39.2714215638845729
 72
     1
 10
20.9704746166348386
 20
39.2714215638845729
 11
20.9694860548036957
 21
39.1464254729636707
 72
     1
 10
20.9694860548036957
 20
39.1464254729636707
 11
20.9684974929725563
 21
39.0214293820427685
 72
     1
 10
20.9684974929725563
 20
39.0214293820427685
 11
20.9678384517517955
 21
38.9380986547621717
 72
     1
 10
20.9678384517517955
 20
38.9380986547621717
 11
20.8011769971905949
 21
38.9394167372036861
 97
        6
330
14D
330
14E
330
14F
330
150
330
151
330
152
 92
        1
 93
        6
 72
     1
 10
22.92613597261591
 20
38.9226109849567976
 11
22.9287721374989566
 21
39.2559338940791989
 72
     1
 10
22.9287721374989566
 20
39.2559338940791989
 11
22.7621106829377524
 21
39.2572519765207204
 72
     1
 10
22.7621106829377524
 20
39.2572519765207204
 11
22.761122121106613
 21
39.1322558855998182
 72
     1
 10
22.761122121106613
 20
39.1322558855998182
 11
22.7601335592754737
 21
39.007259794678923
 72
     1
 10
22.7601335592754737
 20
39.007259794678923
 11
22.7594745180547093
 21
38.9239290673983191
 72
     1
 10
22.7594745180547093
 20
38.9239290673983191
 11
22.92613597261591
 21
38.9226109849567976
 97
        5
330
154
330
155
330
156
330
157
330
158
 75
     0
 76
     1
 98
        0
  0
LINE
  5
154
102
{ACAD_REACTORS
330
153
102
}
100
AcDbEntity
  8
BUILDING_ENVELOPE
  6
CONTINUOUS
 62
     7
100
AcDbLine
 10
22.926136
 20
38.922611
 30
0.0
 11
22.928772
 21
39.255934
 31
0.0
  0
LINE
  5
155
102
{ACAD_REACTORS
330
153
102
}
100
AcDbEntity
  8
BUILDING_ENVELOPE
  6
CONTINUOUS
 62
     7
100
AcDbLine
 10
22.928772
 20
39.255934
 30
0.0
 11
22.762111
 21
39.257252
 31
0.0
  0
LINE
  5
156
102
{ACAD_REACTORS
330
153
102
}
100
AcDbEntity
  8
BUILDING_ENVELOPE
  6
CONTINUOUS
 62
     7
100
AcDbLine
 10
22.762111
 20
39.257252
 30
0.0
 11
22.761122
 21
39.132256
 31
0.0
  0
LINE
  5
157
102
{ACAD_REACTORS
330
153
102
}
100
AcDbEntity
  8
BUILDING_ENVELOPE
  6
CONTINUOUS
 62
     7
100
AcDbLine
 10
22.760134
 20
39.00726
 30
0.0
 11
22.759475
 21
38.923929
 31
0.0
  0
LINE
  5
158
102
{ACAD_REACTORS
330
153
102
}
100
AcDbEntity
  8
BUILDING_ENVELOPE
  6
CONTINUOUS
 62
     7
100
AcDbLine
 10
22.759475
 20
38.923929
 30
0.0
 11
22.926136
 21
38.922611
 31
0.0
  0
LINE
  5
159
102
{ACAD_REACTORS
330
15C
102
}
100
AcDbEntity
  8
BUILDING_ENVELOPE
  6
CONTINUOUS
 62
     7
100
AcDbLine
 10
20.969486
 20
39.146425
 30
0.0
 11
21.011151
 21
39.146096
 31
0.0
  0
LINE
  5
15A
102
{ACAD_REACTORS
330
15C
102
}
100
AcDbEntity
  8
BUILDING_ENVELOPE
  6
CONTINUOUS
 62
     7
100
AcDbLine
 10
21.011151
 20
39.146096
 30
0.0
 11
21.010163
 21
39.0211
 31
0.0
  0
LINE
  5
15B
102
{ACAD_REACTORS
330
15C
102
}
100
AcDbEntity
  8
BUILDING_ENVELOPE
  6
CONTINUOUS
 62
     7
100
AcDbLine
 10
21.010163
 20
39.0211
 30
0.0
 11
20.968497
 21
39.021429
 31
0.0
  0
HATCH
  5
15C
102
{ACAD_REACTORS
330
14C
102
}
100
AcDbEntity
  8
BUILDING_ENVELOPE
 62
     7
100
AcDbHatch
 10
0.0
 20
0.0
 30
0.0
210
0.0
220
0.0
230
1.0
  2
SOLID
 70
     1
 71
     1
 91
        2
 92
        1
 93
        4
 72
     1
 10
20.9694860548036957
 20
39.1464254729636707
 11
21.0111514184439976
 21
39.1460959523532921
 72
     1
 10
21.0111514184439976
 20
39.1460959523532921
 11
21.0101628566128547
 21
39.0210998614323898
 72
     1
 10
21.0101628566128547
 20
39.0210998614323898
 11
20.9684974929725563
 21
39.0214293820427685
 72
     1
 10
20.9684974929725563
 20
39.0214293820427685
 11
20.9694860548036957
 21
39.1464254729636707
 97
        3
330
159
330
15A
330
15B
 92
        1
 93
        4
 72
     1
 10
22.761122121106613
 20
39.1322558855998182
 11
22.7194567574663111
 21
39.1325854062102039
 72
     1
 10
22.7194567574663111
 20
39.1325854062102039
 11
22.7184681956351717
 21
39.0075893152893016
 72
     1
 10
22.7184681956351717
 20
39.0075893152893016
 11
22.7601335592754737
 21
39.007259794678923
 72
     1
 10
22.7601335592754737
 20
39.007259794678923
 11
22.761122121106613
 21
39.1322558855998182
 97
        3
330
15D
330
15E
330
15F
 75
     0
 76
     1
 98
        0
  0
LINE
  5
15D
102
{ACAD_REACTORS
330
15C
102
}
100
AcDbEntity
  8
BUILDING_ENVELOPE
  6
CONTINUOUS
 62
     7
100
AcDbLine
 10
22.761122
 20
39.132256
 30
0.0
 11
22.719457
 21
39.132585
 31
0.0
  0
LINE
  5
15E
102
{ACAD_REACTORS
330
15C
102
}
100
AcDbEntity
  8
BUILDING_ENVELOPE
  6
CONTINUOUS
 62
     7
100
AcDbLine
 10
22.719457
 20
39.132585
 30
0.0
 11
22.718468
 21
39.007589
 31
0.0
  0
LINE
  5
15F
102
{ACAD_REACTORS
330
15C
102
}
100
AcDbEntity
  8
BUILDING_ENVELOPE
  6
CONTINUOUS
 62
     7
100
AcDbLine
 10
22.718468
 20
39.007589
 30
0.0
 11
22.760134
 21
39.00726
 31
0.0
  0
LINE
  5
160
102
{ACAD_REACTORS
330
14C
102
}
100
AcDbEntity
  8
BUILDING_ENVELOPE
  6
CONTINUOUS
 62
     7
100
AcDbLine
 10
20.801177
 20
38.939417
 30
0.0
 11
20.803813
 21
39.27274
 31
0.0
  0
LINE
  5
161
102
{ACAD_REACTORS
330
14C
102
}
100
AcDbEntity
  8
BUILDING_ENVELOPE
  6
CONTINUOUS
 62
     7
100
AcDbLine
 10
22.926136
 20
38.922611
 30
0.0
 11
22.928772
 21
39.255934
 31
0.0
  0
ARC
  5
162
102
{ACAD_REACTORS
330
14C
102
}
100
AcDbEntity
  8
BUILDING_ENVELOPE
  6
CONTINUOUS
 62
     7
100
AcDbCircle
 10
20.970475
 20
39.271422
 30
0.0
 40
1.791692
100
AcDbArc
 50
359.546872
 51
89.546872
  0
LWPOLYLINE
  5
163
102
{ACAD_REACTORS
330
164
102
}
100
AcDbEntity
  8
BUILDING_ENVELOPE
  6
CONTINUOUS
 62
     7
100
AcDbPolyline
 90
        4
 70
     1
 10
21.10964
 20
41.062069
 10
21.095471
 20
39.270433
 10
20.970475
 20
39.271422
 10
20.984644
 20
41.063058
  0
HATCH
  5
164
102
{ACAD_REACTORS
330
14C
102
}
100
AcDbEntity
  8
BUILDING_ENVELOPE
 62
     7
100
AcDbHatch
 10
0.0
 20
0.0
 30
0.0
210
0.0
220
0.0
230
1.0
  2
SOLID
 70
     1
 71
     1
 91
        1
 92
        3
 72
     0
 73
     1
 93
        4
 10
21.1096402949195863
 20
41.0620690683563438
 10
21.0954707075557408
 20
39.27043300205343
 10
20.9704746166348386
 20
39.2714215638845729
 10
20.984644203998684
 20
41.0630576301874868
 97
        1
330
163
 75
     0
 76
     1
 98
        0
  0
LWPOLYLINE
  5
166
102
{ACAD_REACTORS
330
16C
102
}
100
AcDbEntity
  8
BUILDING_ENVELOPE
  6
CONTINUOUS
 62
     7
100
AcDbPolyline
 90
        4
 70
     1
 10
8.956388
 20
35.707448
 10
11.789673
 20
35.690873
 10
11.791717
 20
36.0402
 10
8.958432
 20
36.056775
  0
LINE
  5
167
102
{ACAD_REACTORS
330
16C
102
}
100
AcDbEntity
  8
BUILDING_ENVELOPE
  6
CONTINUOUS
 62
     7
100
AcDbLine
 10
11.78972
 20
35.698873
 30
0.0
 11
11.79167
 21
36.0322
 31
0.0
  0
LINE
  5
168
102
{ACAD_REACTORS
330
16C
102
}
100
AcDbEntity
  8
BUILDING_ENVELOPE
  6
CONTINUOUS
 62
     7
100
AcDbLine
 10
11.79167
 20
36.0322
 30
0.0
 11
11.625006
 21
36.033175
 31
0.0
  0
LINE
  5
169
102
{ACAD_REACTORS
330
16C
102
}
100
AcDbEntity
  8
BUILDING_ENVELOPE
  6
CONTINUOUS
 62
     7
100
AcDbLine
 10
11.625006
 20
36.033175
 30
0.0
 11
11.624275
 21
35.908177
 31
0.0
  0
LINE
  5
16A
102
{ACAD_REACTORS
330
16C
102
}
100
AcDbEntity
  8
BUILDING_ENVELOPE
  6
CONTINUOUS
 62
     7
100
AcDbLine
 10
11.623544
 20
35.783179
 30
0.0
 11
11.623056
 21
35.699848
 31
0.0
  0
LINE
  5
16B
102
{ACAD_REACTORS
330
16C
102
}
100
AcDbEntity
  8
BUILDING_ENVELOPE
  6
CONTINUOUS
 62
     7
100
AcDbLine
 10
11.623056
 20
35.699848
 30
0.0
 11
11.78972
 21
35.698873
 31
0.0
  0
HATCH
  5
16C
102
{ACAD_REACTORS
330
165
102
}
100
AcDbEntity
  8
BUILDING_ENVELOPE
 62
     7
100
AcDbHatch
 10
0.0
 20
0.0
 30
0.0
210
0.0
220
0.0
230
1.0
  2
SOLID
 70
     1
 71
     1
 91
        2
 92
        1
 93
        6
 72
     1
 10
11.7897198771622485
 20
35.6988725237730193
 11
11.7916698845250796
 21
36.0322001532644762
 72
     1
 10
11.7916698845250796
 20
36.0322001532644762
 11
11.6250060697793494
 21
36.0331751569458874
 72
     1
 10
11.6250060697793494
 20
36.0331751569458874
 11
11.6242748170182892
 21
35.9081772958865955
 72
     1
 10
11.6242748170182892
 20
35.9081772958865955
 11
11.6235435642572256
 21
35.7831794348272965
 72
     1
 10
11.6235435642572256
 20
35.7831794348272965
 11
11.6230560624165182
 21
35.6998475274544305
 72
     1
 10
11.6230560624165182
 20
35.6998475274544305
 11
11.7897198771622485
 21
35.6988725237730193
 97
        6
330
166
330
167
330
168
330
169
330
16A
330
16B
 92
        1
 93
        6
 72
     1
 10
8.9564350264848382
 20
35.7154475863570866
 11
8.9583850338476694
 21
36.0487752158485506
 72
     1
 10
8.9583850338476694
 20
36.0487752158485506
 11
9.1250488485933996
 21
36.0478002121671324
 72
     1
 10
9.1250488485933996
 20
36.0478002121671324
 11
9.1243175958323377
 21
35.9228023511078334
 72
     1
 10
9.1243175958323377
 20
35.9228023511078334
 11
9.1235863430712758
 21
35.7978044900485344
 72
     1
 10
9.1235863430712758
 20
35.7978044900485344
 11
9.1230988412305685
 21
35.7144725826756684
 72
     1
 10
9.1230988412305685
 20
35.7144725826756684
 11
8.9564350264848382
 21
35.7154475863570866
 97
        5
330
16D
330
16E
330
16F
330
170
330
171
 75
     0
 76
     1
 98
        0
  0
LINE
  5
16D
102
{ACAD_REACTORS
330
16C
102
}
100
AcDbEntity
  8
BUILDING_ENVELOPE
  6
CONTINUOUS
 62
     7
100
AcDbLine
 10
8.956435
 20
35.715448
 30
0.0
 11
8.958385
 21
36.048775
 31
0.0
  0
LINE
  5
16E
102
{ACAD_REACTORS
330
16C
102
}
100
AcDbEntity
  8
BUILDING_ENVELOPE
  6
CONTINUOUS
 62
     7
100
AcDbLine
 10
8.958385
 20
36.048775
 30
0.0
 11
9.125049
 21
36.0478
 31
0.0
  0
LINE
  5
16F
102
{ACAD_REACTORS
330
16C
102
}
100
AcDbEntity
  8
BUILDING_ENVELOPE
  6
CONTINUOUS
 62
     7
100
AcDbLine
 10
9.125049
 20
36.0478
 30
0.0
 11
9.124318
 21
35.922802
 31
0.0
  0
LINE
  5
170
102
{ACAD_REACTORS
330
16C
102
}
100
AcDbEntity
  8
BUILDING_ENVELOPE
  6
CONTINUOUS
 62
     7
100
AcDbLine
 10
9.123586
 20
35.797804
 30
0.0
 11
9.123099
 21
35.714473
 31
0.0
  0
LINE
  5
171
102
{ACAD_REACTORS
330
16C
102
}
100
AcDbEntity
  8
BUILDING_ENVELOPE
  6
CONTINUOUS
 62
     7
100
AcDbLine
 10
9.123099
 20
35.714473
 30
0.0
 11
8.956435
 21
35.715448
 31
0.0
  0
LINE
  5
172
102
{ACAD_REACTORS
330
175
102
}
100
AcDbEntity
  8
BUILDING_ENVELOPE
  6
CONTINUOUS
 62
     7
100
AcDbLine
 10
11.624275
 20
35.908177
 30
0.0
 11
11.582609
 21
35.908421
 31
0.0
  0
LINE
  5
173
102
{ACAD_REACTORS
330
175
102
}
100
AcDbEntity
  8
BUILDING_ENVELOPE
  6
CONTINUOUS
 62
     7
100
AcDbLine
 10
11.582609
 20
35.908421
 30
0.0
 11
11.581878
 21
35.783423
 31
0.0
  0
LINE
  5
174
102
{ACAD_REACTORS
330
175
102
}
100
AcDbEntity
  8
BUILDING_ENVELOPE
  6
CONTINUOUS
 62
     7
100
AcDbLine
 10
11.581878
 20
35.783423
 30
0.0
 11
11.623544
 21
35.783179
 31
0.0
  0
HATCH
  5
175
102
{ACAD_REACTORS
330
165
102
}
100
AcDbEntity
  8
BUILDING_ENVELOPE
 62
     7
100
AcDbHatch
 10
0.0
 20
0.0
 30
0.0
210
0.0
220
0.0
230
1.0
  2
SOLID
 70
     1
 71
     1
 91
        2
 92
        1
 93
        4
 72
     1
 10
11.6242748170182892
 20
35.9081772958865955
 11
11.5826088633318562
 21
35.90842104680695
 72
     1
 10
11.5826088633318562
 20
35.90842104680695
 11
11.5818776105707943
 21
35.783423185747651
 72
     1
 10
11.5818776105707943
 20
35.783423185747651
 11
11.6235435642572256
 21
35.7831794348272965
 72
     1
 10
11.6235435642572256
 20
35.7831794348272965
 11
11.6242748170182892
 21
35.9081772958865955
 97
        3
330
172
330
173
330
174
 92
        1
 93
        4
 72
     1
 10
9.1243175958323377
 20
35.9228023511078334
 11
9.1659835495187707
 21
35.9225586001874788
 72
     1
 10
9.1659835495187707
 20
35.9225586001874788
 11
9.1652522967577088
 21
35.7975607391281798
 72
     1
 10
9.1652522967577088
 20
35.7975607391281798
 11
9.1235863430712758
 21
35.7978044900485344
 72
     1
 10
9.1235863430712758
 20
35.7978044900485344
 11
9.1243175958323377
 21
35.9228023511078334
 97
        3
330
176
330
177
330
178
 75
     0
 76
     1
 98
        0
  0
LINE
  5
176
102
{ACAD_REACTORS
330
175
102
}
100
AcDbEntity
  8
BUILDING_ENVELOPE
  6
CONTINUOUS
 62
     7
100
AcDbLine
 10
9.124318
 20
35.922802
 30
0.0
 11
9.165984
 21
35.922559
 31
0.0
  0
LINE
  5
177
102
{ACAD_REACTORS
330
175
102
}
100
AcDbEntity
  8
BUILDING_ENVELOPE
  6
CONTINUOUS
 62
     7
100
AcDbLine
 10
9.165984
 20
35.922559
 30
0.0
 11
9.165252
 21
35.797561
 31
0.0
  0
LINE
  5
178
102
{ACAD_REACTORS
330
175
102
}
100
AcDbEntity
  8
BUILDING_ENVELOPE
  6
CONTINUOUS
 62
     7
100
AcDbLine
 10
9.165252
 20
35.797561
 30
0.0
 11
9.123586
 21
35.797804
 31
0.0
  0
LINE
  5
179
102
{ACAD_REACTORS
330
165
102
}
100
AcDbEntity
  8
BUILDING_ENVELOPE
  6
CONTINUOUS
 62
     7
100
AcDbLine
 10
11.78972
 20
35.698873
 30
0.0
 11
11.79167
 21
36.0322
 31
0.0
  0
LINE
  5
17A
102
{ACAD_REACTORS
330
165
102
}
100
AcDbEntity
  8
BUILDING_ENVELOPE
  6
CONTINUOUS
 62
     7
100
AcDbLine
 10
8.956435
 20
35.715448
 30
0.0
 11
8.958385
 21
36.048775
 31
0.0
  0
ARC
  5
17B
102
{ACAD_REACTORS
330
165
102
}
100
AcDbEntity
  8
BUILDING_ENVELOPE
  6
CONTINUOUS
 62
     7
100
AcDbCircle
 10
11.625006
 20
36.033175
 30
0.0
 40
2.5
100
AcDbArc
 50
89.664817
 51
179.664817
  0
LWPOLYLINE
  5
17C
102
{ACAD_REACTORS
330
17D
102
}
100
AcDbEntity
  8
BUILDING_ENVELOPE
  6
CONTINUOUS
 62
     7
100
AcDbPolyline
 90
        4
 70
     1
 10
11.514633
 20
38.533864
 10
11.500008
 20
36.033906
 10
11.625006
 20
36.033175
 10
11.639631
 20
38.533132
  0
HATCH
  5
17D
102
{ACAD_REACTORS
330
165
102
}
100
AcDbEntity
  8
BUILDING_ENVELOPE
 62
     7
100
AcDbHatch
 10
0.0
 20
0.0
 30
0.0
210
0.0
220
0.0
230
1.0
  2
SOLID
 70
     1
 71
     1
 91
        1
 92
        3
 72
     0
 73
     1
 93
        4
 10
11.5146332639412918
 20
38.5338636308929026
 10
11.5000082087200504
 20
36.0339064097069581
 10
11.6250060697793494
 20
36.0331751569458874
 10
11.6396311250005873
 20
38.5331323781318389
 97
        1
330
17C
 75
     0
 76
     1
 98
        0
  0
LWPOLYLINE
  5
17F
102
{ACAD_REACTORS
330
17E
102
}
100
AcDbEntity
  8
BUILDING_ENVELOPE
  6
CONTINUOUS
 62
     7
100
AcDbPolyline
 90
        4
 70
     1
 10
12.282873
 20
41.260937
 10
12.286664
 20
44.232455
 10
11.937331
 20
44.232901
 10
11.93354
 20
41.261383
  0
LWPOLYLINE
  5
180
102
{ACAD_REACTORS
330
17E
102
}
100
AcDbEntity
  8
BUILDING_ENVELOPE
  6
CONTINUOUS
 62
     7
100
AcDbPolyline
 90
        4
 70
     1
 10
12.278664
 20
44.232465
 10
11.945331
 20
44.232891
 10
11.945118
 20
44.066224
 10
12.278451
 20
44.065799
  0
LWPOLYLINE
  5
181
102
{ACAD_REACTORS
330
17E
102
}
100
AcDbEntity
  8
BUILDING_ENVELOPE
  6
CONTINUOUS
 62
     7
100
AcDbPolyline
 90
        4
 70
     1
 10
12.274873
 20
41.260947
 10
11.94154
 20
41.261373
 10
11.941753
 20
41.428039
 10
12.275086
 20
41.427614
  0
LINE
  5
182
102
{ACAD_REACTORS
330
17E
102
}
100
AcDbEntity
  8
BUILDING_ENVELOPE
  6
CONTINUOUS
 62
     7
100
AcDbLine
 10
12.278664
 20
44.232465
 30
0.0
 11
11.945331
 21
44.232891
 31
0.0
  0
LINE
  5
183
102
{ACAD_REACTORS
330
17E
102
}
100
AcDbEntity
  8
BUILDING_ENVELOPE
  6
CONTINUOUS
 62
     7
100
AcDbLine
 10
12.274873
 20
41.260947
 30
0.0
 11
11.94154
 21
41.261373
 31
0.0
  0
LWPOLYLINE
  5
185
102
{ACAD_REACTORS
330
18B
102
}
100
AcDbEntity
  8
BUILDING_ENVELOPE
  6
CONTINUOUS
 62
     7
100
AcDbPolyline
 90
        4
 70
     1
 10
15.255713
 20
25.969366
 10
12.422416
 20
25.983699
 10
12.424183
 20
26.333028
 10
15.257481
 20
26.318695
  0
LINE
  5
186
102
{ACAD_REACTORS
330
18B
102
}
100
AcDbEntity
  8
BUILDING_ENVELOPE
  6
CONTINUOUS
 62
     7
100
AcDbLine
 10
12.422457
 20
25.991699
 30
0.0
 11
12.424143
 21
26.325028
 31
0.0
  0
LINE
  5
187
102
{ACAD_REACTORS
330
18B
102
}
100
AcDbEntity
  8
BUILDING_ENVELOPE
  6
CONTINUOUS
 62
     7
100
AcDbLine
 10
12.424143
 20
26.325028
 30
0.0
 11
12.590808
 21
26.324185
 31
0.0
  0
LINE
  5
188
102
{ACAD_REACTORS
330
18B
102
}
100
AcDbEntity
  8
BUILDING_ENVELOPE
  6
CONTINUOUS
 62
     7
100
AcDbLine
 10
12.590808
 20
26.324185
 30
0.0
 11
12.590175
 21
26.199187
 31
0.0
  0
LINE
  5
189
102
{ACAD_REACTORS
330
18B
102
}
100
AcDbEntity
  8
BUILDING_ENVELOPE
  6
CONTINUOUS
 62
     7
100
AcDbLine
 10
12.589543
 20
26.074188
 30
0.0
 11
12.589121
 21
25.990856
 31
0.0
  0
LINE
  5
18A
102
{ACAD_REACTORS
330
18B
102
}
100
AcDbEntity
  8
BUILDING_ENVELOPE
  6
CONTINUOUS
 62
     7
100
AcDbLine
 10
12.589121
 20
25.990856
 30
0.0
 11
12.422457
 21
25.991699
 31
0.0
  0
HATCH
  5
18B
102
{ACAD_REACTORS
330
184
102
}
100
AcDbEntity
  8
BUILDING_ENVELOPE
 62
     7
100
AcDbHatch
 10
0.0
 20
0.0
 30
0.0
210
0.0
220
0.0
230
1.0
  2
SOLID
 70
     1
 71
     1
 91
        2
 92
        1
 93
        6
 72
     1
 10
12.4224567550552791
 20
25.991699248520554
 11
12.4241430113386464
 21
26.3250283166362209
 72
     1
 10
12.4241430113386464
 20
26.3250283166362209
 11
12.5908075453964798
 21
26.324185188494539
 72
     1
 10
12.5908075453964798
 20
26.324185188494539
 11
12.5901751992902167
 21
26.1991867879511631
 72
     1
 10
12.5901751992902167
 20
26.1991867879511631
 11
12.5895428531839535
 21
26.0741883874077871
 72
     1
 10
12.5895428531839535
 20
26.0741883874077871
 11
12.5891212891131108
 21
25.9908561203788686
 72
     1
 10
12.5891212891131108
 20
25.9908561203788686
 11
12.4224567550552791
 21
25.991699248520554
 97
        9
330
17F
330
180
330
181
330
185
330
186
330
187
330
188
330
189
330
18A
 92
        1
 93
        6
 72
     1
 10
15.2557538340384333
 20
25.9773660701119269
 11
15.2574400903218024
 21
26.3106951382275902
 72
     1
 10
15.2574400903218024
 20
26.3106951382275902
 11
15.0907755562639707
 21
26.3115382663692721
 72
     1
 10
15.0907755562639707
 20
26.3115382663692721
 11
15.0901432101577075
 21
26.1865398658258997
 72
     1
 10
15.0901432101577075
 20
26.1865398658258997
 11
15.0895108640514426
 21
26.0615414652825237
 72
     1
 10
15.0895108640514426
 20
26.0615414652825237
 11
15.0890892999806017
 21
25.9782091982536087
 72
     1
 10
15.0890892999806017
 20
25.9782091982536087
 11
15.2557538340384333
 21
25.9773660701119269
 97
        5
330
18C
330
18D
330
18E
330
18F
330
190
 75
     0
 76
     1
 98
        0
  0
LINE
  5
18C
102
{ACAD_REACTORS
330
18B
102
}
100
AcDbEntity
  8
BUILDING_ENVELOPE
  6
CONTINUOUS
 62
     7
100
AcDbLine
 10
15.255754
 20
25.977366
 30
0.0
 11
15.25744
 21
26.310695
 31
0.0
  0
LINE
  5
18D
102
{ACAD_REACTORS
330
18B
102
}
100
AcDbEntity
  8
BUILDING_ENVELOPE
  6
CONTINUOUS
 62
     7
100
AcDbLine
 10
15.25744
 20
26.310695
 30
0.0
 11
15.090776
 21
26.311538
 31
0.0
  0
LINE
  5
18E
102
{ACAD_REACTORS
330
18B
102
}
100
AcDbEntity
  8
BUILDING_ENVELOPE
  6
CONTINUOUS
 62
     7
100
AcDbLine
 10
15.090776
 20
26.311538
 30
0.0
 11
15.090143
 21
26.18654
 31
0.0
  0
LINE
  5
18F
102
{ACAD_REACTORS
330
18B
102
}
100
AcDbEntity
  8
BUILDING_ENVELOPE
  6
CONTINUOUS
 62
     7
100
AcDbLine
 10
15.089511
 20
26.061541
 30
0.0
 11
15.089089
 21
25.978209
 31
0.0
  0
LINE
  5
190
102
{ACAD_REACTORS
330
18B
102
}
100
AcDbEntity
  8
BUILDING_ENVELOPE
  6
CONTINUOUS
 62
     7
100
AcDbLine
 10
15.089089
 20
25.978209
 30
0.0
 11
15.255754
 21
25.977366
 31
0.0
  0
LINE
  5
191
102
{ACAD_REACTORS
330
194
102
}
100
AcDbEntity
  8
BUILDING_ENVELOPE
  6
CONTINUOUS
 62
     7
100
AcDbLine
 10
12.590175
 20
26.199187
 30
0.0
 11
12.631841
 21
26.198976
 31
0.0
  0
LINE
  5
192
102
{ACAD_REACTORS
330
194
102
}
100
AcDbEntity
  8
BUILDING_ENVELOPE
  6
CONTINUOUS
 62
     7
100
AcDbLine
 10
12.631841
 20
26.198976
 30
0.0
 11
12.631209
 21
26.073978
 31
0.0
  0
LINE
  5
193
102
{ACAD_REACTORS
330
194
102
}
100
AcDbEntity
  8
BUILDING_ENVELOPE
  6
CONTINUOUS
 62
     7
100
AcDbLine
 10
12.631209
 20
26.073978
 30
0.0
 11
12.589543
 21
26.074188
 31
0.0
  0
HATCH
  5
194
102
{ACAD_REACTORS
330
184
102
}
100
AcDbEntity
  8
BUILDING_ENVELOPE
 62
     7
100
AcDbHatch
 10
0.0
 20
0.0
 30
0.0
210
0.0
220
0.0
230
1.0
  2
SOLID
 70
     1
 71
     1
 91
        2
 92
        1
 93
        4
 72
     1
 10
12.5901751992902167
 20
26.1991867879511631
 11
12.6318413328046759
 21
26.1989760059157426
 72
     1
 10
12.6318413328046759
 20
26.1989760059157426
 11
12.631208986698411
 21
26.0739776053723666
 72
     1
 10
12.631208986698411
 20
26.0739776053723666
 11
12.5895428531839535
 21
26.0741883874077871
 72
     1
 10
12.5895428531839535
 20
26.0741883874077871
 11
12.5901751992902167
 21
26.1991867879511631
 97
        3
330
191
330
192
330
193
 92
        1
 93
        4
 72
     1
 10
15.0901432101577075
 20
26.1865398658258997
 11
15.0484770766432483
 21
26.1867506478613201
 72
     1
 10
15.0484770766432483
 20
26.1867506478613201
 11
15.0478447305369869
 21
26.0617522473179442
 72
     1
 10
15.0478447305369869
 20
26.0617522473179442
 11
15.0895108640514426
 21
26.0615414652825237
 72
     1
 10
15.0895108640514426
 20
26.0615414652825237
 11
15.0901432101577075
 21
26.1865398658258997
 97
        3
330
195
330
196
330
197
 75
     0
 76
     1
 98
        0
  0
LINE
  5
195
102
{ACAD_REACTORS
330
194
102
}
100
AcDbEntity
  8
BUILDING_ENVELOPE
  6
CONTINUOUS
 62
     7
100
AcDbLine
 10
15.090143
 20
26.18654
 30
0.0
 11
15.048477
 21
26.186751
 31
0.0
  0
LINE
  5
196
102
{ACAD_REACTORS
330
194
102
}
100
AcDbEntity
  8
BUILDING_ENVELOPE
  6
CONTINUOUS
 62
     7
100
AcDbLine
 10
15.048477
 20
26.186751
 30
0.0
 11
15.047845
 21
26.061752
 31
0.0
  0
LINE
  5
197
102
{ACAD_REACTORS
330
194
102
}
100
AcDbEntity
  8
BUILDING_ENVELOPE
  6
CONTINUOUS
 62
     7
100
AcDbLine
 10
15.047845
 20
26.061752
 30
0.0
 11
15.089511
 21
26.061541
 31
0.0
  0
LINE
  5
198
102
{ACAD_REACTORS
330
184
102
}
100
AcDbEntity
  8
BUILDING_ENVELOPE
  6
CONTINUOUS
 62
     7
100
AcDbLine
 10
12.422457
 20
25.991699
 30
0.0
 11
12.424143
 21
26.325028
 31
0.0
  0
LINE
  5
199
102
{ACAD_REACTORS
330
184
102
}
100
AcDbEntity
  8
BUILDING_ENVELOPE
  6
CONTINUOUS
 62
     7
100
AcDbLine
 10
15.255754
 20
25.977366
 30
0.0
 11
15.25744
 21
26.310695
 31
0.0
  0
ARC
  5
19A
102
{ACAD_REACTORS
330
184
102
}
100
AcDbEntity
  8
BUILDING_ENVELOPE
  6
CONTINUOUS
 62
     7
100
AcDbCircle
 10
12.590808
 20
26.324185
 30
0.0
 40
2.5
100
AcDbArc
 50
359.710153
 51
89.710153
  0
LWPOLYLINE
  5
19B
102
{ACAD_REACTORS
330
19C
102
}
100
AcDbEntity
  8
BUILDING_ENVELOPE
  6
CONTINUOUS
 62
     7
100
AcDbPolyline
 90
        4
 70
     1
 10
12.728453
 20
28.823521
 10
12.715806
 20
26.323553
 10
12.590808
 20
26.324185
 10
12.603454
 20
28.824153
  0
HATCH
  5
19C
102
{ACAD_REACTORS
330
184
102
}
100
AcDbEntity
  8
BUILDING_ENVELOPE
 62
     7
100
AcDbHatch
 10
0.0
 20
0.0
 30
0.0
210
0.0
220
0.0
230
1.0
  2
SOLID
 70
     1
 71
     1
 91
        1
 92
        3
 72
     0
 73
     1
 93
        4
 10
12.7284528680651157
 20
28.8235208532557614
 10
12.7158059459398523
 20
26.3235528423882705
 10
12.5908075453964798
 20
26.324185188494539
 10
12.6034544675217433
 20
28.8241531993620299
 97
        1
330
19B
 75
     0
 76
     1
 98
        0
  0
LWPOLYLINE
  5
19E
102
{ACAD_REACTORS
330
1A4
102
}
100
AcDbEntity
  8
BUILDING_ENVELOPE
  6
CONTINUOUS
 62
     7
100
AcDbPolyline
 90
        4
 70
     1
 10
20.424592
 20
21.47638
 10
17.591259
 20
21.47638
 10
17.591259
 20
21.825713
 10
20.424592
 20
21.825713
  0
LINE
  5
19F
102
{ACAD_REACTORS
330
1A4
102
}
100
AcDbEntity
  8
BUILDING_ENVELOPE
  6
CONTINUOUS
 62
     7
100
AcDbLine
 10
17.591259
 20
21.48438
 30
0.0
 11
17.591259
 21
21.817713
 31
0.0
  0
LINE
  5
1A0
102
{ACAD_REACTORS
330
1A4
102
}
100
AcDbEntity
  8
BUILDING_ENVELOPE
  6
CONTINUOUS
 62
     7
100
AcDbLine
 10
17.591259
 20
21.817713
 30
0.0
 11
17.757926
 21
21.817713
 31
0.0
  0
LINE
  5
1A1
102
{ACAD_REACTORS
330
1A4
102
}
100
AcDbEntity
  8
BUILDING_ENVELOPE
  6
CONTINUOUS
 62
     7
100
AcDbLine
 10
17.757926
 20
21.817713
 30
0.0
 11
17.757926
 21
21.692713
 31
0.0
  0
LINE
  5
1A2
102
{ACAD_REACTORS
330
1A4
102
}
100
AcDbEntity
  8
BUILDING_ENVELOPE
  6
CONTINUOUS
 62
     7
100
AcDbLine
 10
17.757926
 20
21.567713
 30
0.0
 11
17.757926
 21
21.48438
 31
0.0
  0
LINE
  5
1A3
102
{ACAD_REACTORS
330
1A4
102
}
100
AcDbEntity
  8
BUILDING_ENVELOPE
  6
CONTINUOUS
 62
     7
100
AcDbLine
 10
17.757926
 20
21.48438
 30
0.0
 11
17.591259
 21
21.48438
 31
0.0
  0
HATCH
  5
1A4
102
{ACAD_REACTORS
330
19D
102
}
100
AcDbEntity
  8
BUILDING_ENVELOPE
 62
     7
100
AcDbHatch
 10
0.0
 20
0.0
 30
0.0
210
0.0
220
0.0
230
1.0
  2
SOLID
 70
     1
 71
     1
 91
        2
 92
        1
 93
        6
 72
     1
 10
17.5912589491752662
 20
21.4843795508016235
 11
17.5912589491752662
 21
21.8177128841349557
 72
     1
 10
17.5912589491752662
 20
21.8177128841349557
 11
17.7579256158419341
 21
21.8177128841349557
 72
     1
 10
17.7579256158419341
 20
21.8177128841349557
 11
17.7579256158419341
 21
21.6927128841349557
 72
     1
 10
17.7579256158419341
 20
21.6927128841349557
 11
17.7579256158419341
 21
21.5677128841349557
 72
     1
 10
17.7579256158419341
 20
21.5677128841349557
 11
17.7579256158419341
 21
21.4843795508016235
 72
     1
 10
17.7579256158419341
 20
21.4843795508016235
 11
17.5912589491752662
 21
21.4843795508016235
 97
        6
330
19E
330
19F
330
1A0
330
1A1
330
1A2
330
1A3
 92
        1
 93
        6
 72
     1
 10
20.4245922825085984
 20
21.4843795508016235
 11
20.4245922825085984
 21
21.8177128841349557
 72
     1
 10
20.4245922825085984
 20
21.8177128841349557
 11
20.2579256158419341
 21
21.8177128841349557
 72
     1
 10
20.2579256158419341
 20
21.8177128841349557
 11
20.2579256158419341
 21
21.6927128841349557
 72
     1
 10
20.2579256158419341
 20
21.6927128841349557
 11
20.2579256158419341
 21
21.5677128841349557
 72
     1
 10
20.2579256158419341
 20
21.5677128841349557
 11
20.2579256158419341
 21
21.4843795508016235
 72
     1
 10
20.2579256158419341
 20
21.4843795508016235
 11
20.4245922825085984
 21
21.4843795508016235
 97
        5
330
1A5
330
1A6
330
1A7
330
1A8
330
1A9
 75
     0
 76
     1
 98
        0
  0
LINE
  5
1A5
102
{ACAD_REACTORS
330
1A4
102
}
100
AcDbEntity
  8
BUILDING_ENVELOPE
  6
CONTINUOUS
 62
     7
100
AcDbLine
 10
20.424592
 20
21.48438
 30
0.0
 11
20.424592
 21
21.817713
 31
0.0
  0
LINE
  5
1A6
102
{ACAD_REACTORS
330
1A4
102
}
100
AcDbEntity
  8
BUILDING_ENVELOPE
  6
CONTINUOUS
 62
     7
100
AcDbLine
 10
20.424592
 20
21.817713
 30
0.0
 11
20.257926
 21
21.817713
 31
0.0
  0
LINE
  5
1A7
102
{ACAD_REACTORS
330
1A4
102
}
100
AcDbEntity
  8
BUILDING_ENVELOPE
  6
CONTINUOUS
 62
     7
100
AcDbLine
 10
20.257926
 20
21.817713
 30
0.0
 11
20.257926
 21
21.692713
 31
0.0
  0
LINE
  5
1A8
102
{ACAD_REACTORS
330
1A4
102
}
100
AcDbEntity
  8
BUILDING_ENVELOPE
  6
CONTINUOUS
 62
     7
100
AcDbLine
 10
20.257926
 20
21.567713
 30
0.0
 11
20.257926
 21
21.48438
 31
0.0
  0
LINE
  5
1A9
102
{ACAD_REACTORS
330
1A4
102
}
100
AcDbEntity
  8
BUILDING_ENVELOPE
  6
CONTINUOUS
 62
     7
100
AcDbLine
 10
20.257926
 20
21.48438
 30
0.0
 11
20.424592
 21
21.48438
 31
0.0
  0
LINE
  5
1AA
102
{ACAD_REACTORS
330
1AD
102
}
100
AcDbEntity
  8
BUILDING_ENVELOPE
  6
CONTINUOUS
 62
     7
100
AcDbLine
 10
17.757926
 20
21.692713
 30
0.0
 11
17.799592
 21
21.692713
 31
0.0
  0
LINE
  5
1AB
102
{ACAD_REACTORS
330
1AD
102
}
100
AcDbEntity
  8
BUILDING_ENVELOPE
  6
CONTINUOUS
 62
     7
100
AcDbLine
 10
17.799592
 20
21.692713
 30
0.0
 11
17.799592
 21
21.567713
 31
0.0
  0
LINE
  5
1AC
102
{ACAD_REACTORS
330
1AD
102
}
100
AcDbEntity
  8
BUILDING_ENVELOPE
  6
CONTINUOUS
 62
     7
100
AcDbLine
 10
17.799592
 20
21.567713
 30
0.0
 11
17.757926
 21
21.567713
 31
0.0
  0
HATCH
  5
1AD
102
{ACAD_REACTORS
330
19D
102
}
100
AcDbEntity
  8
BUILDING_ENVELOPE
 62
     7
100
AcDbHatch
 10
0.0
 20
0.0
 30
0.0
210
0.0
220
0.0
230
1.0
  2
SOLID
 70
     1
 71
     1
 91
        2
 92
        1
 93
        4
 72
     1
 10
17.7579256158419341
 20
21.6927128841349557
 11
17.7995922825085984
 21
21.6927128841349557
 72
     1
 10
17.7995922825085984
 20
21.6927128841349557
 11
17.7995922825085984
 21
21.5677128841349557
 72
     1
 10
17.7995922825085984
 20
21.5677128841349557
 11
17.7579256158419341
 21
21.5677128841349557
 72
     1
 10
17.7579256158419341
 20
21.5677128841349557
 11
17.7579256158419341
 21
21.6927128841349557
 97
        3
330
1AA
330
1AB
330
1AC
 92
        1
 93
        4
 72
     1
 10
20.2579256158419341
 20
21.6927128841349557
 11
20.2162589491752662
 21
21.6927128841349557
 72
     1
 10
20.2162589491752662
 20
21.6927128841349557
 11
20.2162589491752662
 21
21.5677128841349557
 72
     1
 10
20.2162589491752662
 20
21.5677128841349557
 11
20.2579256158419341
 21
21.5677128841349557
 72
     1
 10
20.2579256158419341
 20
21.5677128841349557
 11
20.2579256158419341
 21
21.6927128841349557
 97
        3
330
1AE
330
1AF
330
1B0
 75
     0
 76
     1
 98
        0
  0
LINE
  5
1AE
102
{ACAD_REACTORS
330
1AD
102
}
100
AcDbEntity
  8
BUILDING_ENVELOPE
  6
CONTINUOUS
 62
     7
100
AcDbLine
 10
20.257926
 20
21.692713
 30
0.0
 11
20.216259
 21
21.692713
 31
0.0
  0
LINE
  5
1AF
102
{ACAD_REACTORS
330
1AD
102
}
100
AcDbEntity
  8
BUILDING_ENVELOPE
  6
CONTINUOUS
 62
     7
100
AcDbLine
 10
20.216259
 20
21.692713
 30
0.0
 11
20.216259
 21
21.567713
 31
0.0
  0
LINE
  5
1B0
102
{ACAD_REACTORS
330
1AD
102
}
100
AcDbEntity
  8
BUILDING_ENVELOPE
  6
CONTINUOUS
 62
     7
100
AcDbLine
 10
20.216259
 20
21.567713
 30
0.0
 11
20.257926
 21
21.567713
 31
0.0
  0
LINE
  5
1B1
102
{ACAD_REACTORS
330
19D
102
}
100
AcDbEntity
  8
BUILDING_ENVELOPE
  6
CONTINUOUS
 62
     7
100
AcDbLine
 10
17.591259
 20
21.48438
 30
0.0
 11
17.591259
 21
21.817713
 31
0.0
  0
LINE
  5
1B2
102
{ACAD_REACTORS
330
19D
102
}
100
AcDbEntity
  8
BUILDING_ENVELOPE
  6
CONTINUOUS
 62
     7
100
AcDbLine
 10
20.424592
 20
21.48438
 30
0.0
 11
20.424592
 21
21.817713
 31
0.0
  0
ARC
  5
1B3
102
{ACAD_REACTORS
330
19D
102
}
100
AcDbEntity
  8
BUILDING_ENVELOPE
  6
CONTINUOUS
 62
     7
100
AcDbCircle
 10
17.757926
 20
21.817713
 30
0.0
 40
2.5
100
AcDbArc
 50
0.0
 51
90.0
  0
LWPOLYLINE
  5
1B4
102
{ACAD_REACTORS
330
1B5
102
}
100
AcDbEntity
  8
BUILDING_ENVELOPE
  6
CONTINUOUS
 62
     7
100
AcDbPolyline
 90
        4
 70
     1
 10
17.882926
 20
24.317713
 10
17.882926
 20
21.817713
 10
17.757926
 20
21.817713
 10
17.757926
 20
24.317713
  0
HATCH
  5
1B5
102
{ACAD_REACTORS
330
19D
102
}
100
AcDbEntity
  8
BUILDING_ENVELOPE
 62
     7
100
AcDbHatch
 10
0.0
 20
0.0
 30
0.0
210
0.0
220
0.0
230
1.0
  2
SOLID
 70
     1
 71
     1
 91
        1
 92
        3
 72
     0
 73
     1
 93
        4
 10
17.8829256158419341
 20
24.3177128841349557
 10
17.8829256158419341
 20
21.8177128841349557
 10
17.7579256158419341
 20
21.8177128841349557
 10
17.7579256158419341
 20
24.3177128841349557
 97
        1
330
1B4
 75
     0
 76
     1
 98
        0
  0
LWPOLYLINE
  5
1B7
102
{ACAD_REACTORS
330
1B8
102
}
100
AcDbEntity
  8
BUILDING_ENVELOPE
  6
CONTINUOUS
 62
     9
100
AcDbPolyline
 90
        4
 70
     1
 10
12.426173
 20
8.637818
 10
13.290903
 20
8.637818
 10
13.290903
 20
1.789396
 10
12.426173
 20
1.789396
  0
HATCH
  5
1B8
102
{ACAD_REACTORS
330
1B6
102
}
100
AcDbEntity
  8
BUILDING_ENVELOPE
 62
   134
100
AcDbHatch
 10
0.0
 20
0.0
 30
0.0
210
0.0
220
0.0
230
1.0
  2
SOLID
 70
     1
 71
     1
 91
       33
 92
        3
 72
     0
 73
     1
 93
        4
 10
12.4261730288423511
 20
8.6378182935425762
 10
13.2909027314318013
 20
8.6378182935425762
 10
13.2909027314318013
 20
1.7893963442099405
 10
12.4261730288423511
 20
1.7893963442099405
 97
        1
330
1B7
 92
        3
 72
     0
 73
     1
 93
        4
 10
13.2909027314318013
 20
8.6378182935425762
 10
14.1556324340212516
 20
8.6378182935425762
 10
14.1556324340212516
 20
1.7893963442099405
 10
13.2909027314318013
 20
1.7893963442099405
 97
        1
330
1B9
 92
        3
 72
     0
 73
     1
 93
        4
 10
14.1556324340212516
 20
8.6378182935425762
 10
15.0203621366107019
 20
8.6378182935425762
 10
15.0203621366107019
 20
1.7893963442099405
 10
14.1556324340212516
 20
1.7893963442099405
 97
        1
330
1BA
 92
        3
 72
     0
 73
     1
 93
        4
 10
15.0203621366107019
 20
8.6378182935425762
 10
15.8850918392001521
 20
8.6378182935425762
 10
15.8850918392001521
 20
1.7893963442099405
 10
15.0203621366107019
 20
1.7893963442099405
 97
        1
330
1BB
 92
        3
 72
     0
 73
     1
 93
        4
 10
15.8850918392001521
 20
8.6378182935425762
 10
16.7498215417896006
 20
8.6378182935425762
 10
16.7498215417896006
 20
1.7893963442099405
 10
15.8850918392001521
 20
1.7893963442099405
 97
        1
330
1BC
 92
        3
 72
     0
 73
     1
 93
        4
 10
16.7498215417896006
 20
8.6378182935425762
 10
17.6145512443790508
 20
8.6378182935425762
 10
17.6145512443790508
 20
1.7893963442099405
 10
16.7498215417896006
 20
1.7893963442099405
 97
        1
330
1BD
 92
        3
 72
     0
 73
     1
 93
        4
 10
17.6145512443790508
 20
8.6378182935425762
 10
18.4792809469685011
 20
8.6378182935425762
 10
18.4792809469685011
 20
1.7893963442099405
 10
17.6145512443790508
 20
1.7893963442099405
 97
        1
330
1BE
 92
        3
 72
     0
 73
     1
 93
        4
 10
18.4792809469685011
 20
8.6378182935425762
 10
19.3440106495579514
 20
8.6378182935425762
 10
19.3440106495579514
 20
1.7893963442099405
 10
18.4792809469685011
 20
1.7893963442099405
 97
        1
330
1BF
 92
        3
 72
     0
 73
     1
 93
        4
 10
19.3440106495579514
 20
8.6378182935425762
 10
20.2087403521474016
 20
8.6378182935425762
 10
20.2087403521474016
 20
1.7893963442099405
 10
19.3440106495579514
 20
1.7893963442099405
 97
        1
330
1C0
 92
        3
 72
     0
 73
     1
 93
        4
 10
20.2087403521474016
 20
8.6378182935425762
 10
21.0734700547368519
 20
8.6378182935425762
 10
21.0734700547368519
 20
1.7893963442099405
 10
20.2087403521474016
 20
1.7893963442099405
 97
        1
330
1C1
 92
        3
 72
     0
 73
     1
 93
        4
 10
21.0734700547368519
 20
8.6378182935425762
 10
21.9381997573263021
 20
8.6378182935425762
 10
21.9381997573263021
 20
1.7893963442099405
 10
21.0734700547368519
 20
1.7893963442099405
 97
        1
330
1C2
 92
        0
 93
        0
 97
        0
 92
        0
 93
        0
 97
        0
 92
        0
 93
        0
 97
        0
 92
        0
 93
        0
 97
        0
 92
        0
 93
        0
 97
        0
 92
        0
 93
        0
 97
        0
 92
        0
 93
        0
 97
        0
 92
        0
 93
        0
 97
        0
 92
        0
 93
        0
 97
        0
 92
        0
 93
        0
 97
        0
 92
        0
 93
        0
 97
        0
 92
        0
 93
        0
 97
        0
 92
        0
 93
        0
 97
        0
 92
        0
 93
        0
 97
        0
 92
        0
 93
        0
 97
        0
 92
        0
 93
        0
 97
        0
 92
        0
 93
        0
 97
        0
 92
        0
 93
        0
 97
        0
 92
        0
 93
        0
 97
        0
 92
        0
 93
        0
 97
        0
 92
        0
 93
        0
 97
        0
 92
        0
 93
        0
 97
        0
 75
     0
 76
     1
 98
        0
  0
LWPOLYLINE
  5
1B9
102
{ACAD_REACTORS
330
1B8
102
}
100
AcDbEntity
  8
BUILDING_ENVELOPE
  6
CONTINUOUS
 62
     9
100
AcDbPolyline
 90
        4
 70
     1
 10
13.290903
 20
8.637818
 10
14.155632
 20
8.637818
 10
14.155632
 20
1.789396
 10
13.290903
 20
1.789396
  0
LWPOLYLINE
  5
1BA
102
{ACAD_REACTORS
330
1B8
102
}
100
AcDbEntity
  8
BUILDING_ENVELOPE
  6
CONTINUOUS
 62
     9
100
AcDbPolyline
 90
        4
 70
     1
 10
14.155632
 20
8.637818
 10
15.020362
 20
8.637818
 10
15.020362
 20
1.789396
 10
14.155632
 20
1.789396
  0
LWPOLYLINE
  5
1BB
102
{ACAD_REACTORS
330
1B8
102
}
100
AcDbEntity
  8
BUILDING_ENVELOPE
  6
CONTINUOUS
 62
     9
100
AcDbPolyline
 90
        4
 70
     1
 10
15.020362
 20
8.637818
 10
15.885092
 20
8.637818
 10
15.885092
 20
1.789396
 10
15.020362
 20
1.789396
  0
LWPOLYLINE
  5
1BC
102
{ACAD_REACTORS
330
1B8
102
}
100
AcDbEntity
  8
BUILDING_ENVELOPE
  6
CONTINUOUS
 62
     9
100
AcDbPolyline
 90
        4
 70
     1
 10
15.885092
 20
8.637818
 10
16.749822
 20
8.637818
 10
16.749822
 20
1.789396
 10
15.885092
 20
1.789396
  0
LWPOLYLINE
  5
1BD
102
{ACAD_REACTORS
330
1B8
102
}
100
AcDbEntity
  8
BUILDING_ENVELOPE
  6
CONTINUOUS
 62
     9
100
AcDbPolyline
 90
        4
 70
     1
 10
16.749822
 20
8.637818
 10
17.614551
 20
8.637818
 10
17.614551
 20
1.789396
 10
16.749822
 20
1.789396
  0
LWPOLYLINE
  5
1BE
102
{ACAD_REACTORS
330
1B8
102
}
100
AcDbEntity
  8
BUILDING_ENVELOPE
  6
CONTINUOUS
 62
     9
100
AcDbPolyline
 90
        4
 70
     1
 10
17.614551
 20
8.637818
 10
18.479281
 20
8.637818
 10
18.479281
 20
1.789396
 10
17.614551
 20
1.789396
  0
LWPOLYLINE
  5
1BF
102
{ACAD_REACTORS
330
1B8
102
}
100
AcDbEntity
  8
BUILDING_ENVELOPE
  6
CONTINUOUS
 62
     9
100
AcDbPolyline
 90
        4
 70
     1
 10
18.479281
 20
8.637818
 10
19.344011
 20
8.637818
 10
19.344011
 20
1.789396
 10
18.479281
 20
1.789396
  0
LWPOLYLINE
  5
1C0
102
{ACAD_REACTORS
330
1B8
102
}
100
AcDbEntity
  8
BUILDING_ENVELOPE
  6
CONTINUOUS
 62
     9
100
AcDbPolyline
 90
        4
 70
     1
 10
19.344011
 20
8.637818
 10
20.20874
 20
8.637818
 10
20.20874
 20
1.789396
 10
19.344011
 20
1.789396
  0
LWPOLYLINE
  5
1C1
102
{ACAD_REACTORS
330
1B8
102
}
100
AcDbEntity
  8
BUILDING_ENVELOPE
  6
CONTINUOUS
 62
     9
100
AcDbPolyline
 90
        4
 70
     1
 10
20.20874
 20
8.637818
 10
21.07347
 20
8.637818
 10
21.07347
 20
1.789396
 10
20.20874
 20
1.789396
  0
LWPOLYLINE
  5
1C2
102
{ACAD_REACTORS
330
1B8
102
}
100
AcDbEntity
  8
BUILDING_ENVELOPE
  6
CONTINUOUS
 62
     9
100
AcDbPolyline
 90
        4
 70
     1
 10
21.07347
 20
8.637818
 10
21.9382
 20
8.637818
 10
21.9382
 20
1.789396
 10
21.07347
 20
1.789396
  0
MTEXT
  5
1C3
100
AcDbEntity
  8
BUILDING_ENVELOPE
100
AcDbMText
 10
12.04954
 20
5.213607
 30
0.0
 40
0.500004
 41
0.753267
 71
     5
 72
     5
  1
\C7;\fCalibri|b0|i0|;\H0.50000381469727;U\PP
  0
CIRCLE
  5
1C5
102
{ACAD_REACTORS
330
1C6
102
}
100
AcDbEntity
  8
STAIR
  6
CONTINUOUS
 62
     7
100
AcDbCircle
 10
12.426173
 20
5.213607
 30
0.0
 40
0.086804
  0
HATCH
  5
1C6
102
{ACAD_REACTORS
330
1B6
102
}
100
AcDbEntity
  8
STAIR
 62
   134
100
AcDbHatch
 10
0.0
 20
0.0
 30
0.0
210
0.0
220
0.0
230
1.0
  2
SOLID
 70
     1
 71
     1
 91
        1
 92
        1
 93
        1
 72
     2
 10
12.4261730288423511
 20
5.2136073188762584
 40
0.0868041666666667
 50
0.0
 51
360.0
 73
     1
 97
        1
330
1C5
 75
     0
 76
     1
 98
        0
  0
LINE
  5
1C7
102
{ACAD_REACTORS
330
1B6
102
}
100
AcDbEntity
  8
STAIR
  6
CONTINUOUS
 62
     7
100
AcDbLine
 10
12.426173
 20
5.213607
 30
0.0
 11
14.734373
 21
5.213607
 31
0.0
  0
LWPOLYLINE
  5
1C8
102
{ACAD_REACTORS
330
1C9
102
}
100
AcDbEntity
  8
STAIR
  6
CONTINUOUS
 62
     7
100
AcDbPolyline
 90
        3
 70
     1
 10
14.521461
 20
5.086132
 10
14.521461
 20
5.341082
 10
14.947286
 20
5.210873
  0
HATCH
  5
1C9
102
{ACAD_REACTORS
330
1B6
102
}
100
AcDbEntity
  8
STAIR
 62
   134
100
AcDbHatch
 10
0.0
 20
0.0
 30
0.0
210
0.0
220
0.0
230
1.0
  2
SOLID
 70
     1
 71
     1
 91
        1
 92
        3
 72
     0
 73
     1
 93
        3
 10
14.5214605288423506
 20
5.0861323188762588
 10
14.5214605288423506
 20
5.341082318876258
 10
14.9472855288423521
 20
5.2108729215320295
 97
        1
330
1C8
 75
     0
 76
     1
 98
        0
  0
LWPOLYLINE
  5
1CA
102
{ACAD_REACTORS
330
1CB
102
}
100
AcDbEntity
  8
0
  6
CONTINUOUS
 62
     7
100
AcDbPolyline
 90
        4
 70
     1
 10
21.996141
 20
1.791063
 10
25.02357
 20
1.791063
 10
25.02357
 20
8.603101
 10
21.996141
 20
8.603101
  0
HATCH
  5
1CB
102
{ACAD_REACTORS
330
1B6
102
}
100
AcDbEntity
  8
0
 62
   134
100
AcDbHatch
 10
0.0
 20
0.0
 30
0.0
210
0.0
220
0.0
230
1.0
  2
SOLID
 70
     1
 71
     1
 91
        1
 92
        3
 72
     0
 73
     1
 93
        4
 10
21.9961414275245275
 20
1.7910634407166435
 10
25.0235702260394888
 20
1.7910634407166435
 10
25.0235702260394888
 20
8.6031011646104751
 10
21.9961414275245275
 20
8.6031011646104751
 97
        1
330
1CA
 75
     0
 76
     1
 98
        0
  0
LWPOLYLINE
  5
1CD
102
{ACAD_REACTORS
330
1CC
102
}
100
AcDbEntity
  8
BUILDING_ENVELOPE
  6
CONTINUOUS
 62
     7
100
AcDbPolyline
 90
        4
 70
     1
 10
9.622397
 20
1.763756
 10
1.490818
 20
1.763756
 10
1.490818
 20
1.414422
 10
9.622397
 20
1.414422
  0
LINE
  5
1CE
102
{ACAD_REACTORS
330
1CC
102
}
100
AcDbEntity
  8
BUILDING_ENVELOPE
  6
CONTINUOUS
 62
     7
100
AcDbLine
 10
9.622397
 20
1.755756
 30
0.0
 11
9.622397
 21
1.422422
 31
0.0
  0
LINE
  5
1CF
102
{ACAD_REACTORS
330
1CC
102
}
100
AcDbEntity
  8
BUILDING_ENVELOPE
  6
CONTINUOUS
 62
     7
100
AcDbLine
 10
9.622397
 20
1.422422
 30
0.0
 11
9.45573
 21
1.422422
 31
0.0
  0
LINE
  5
1D0
102
{ACAD_REACTORS
330
1CC
102
}
100
AcDbEntity
  8
BUILDING_ENVELOPE
  6
CONTINUOUS
 62
     7
100
AcDbLine
 10
9.45573
 20
1.422422
 30
0.0
 11
9.45573
 21
1.505756
 31
0.0
  0
LINE
  5
1D1
102
{ACAD_REACTORS
330
1CC
102
}
100
AcDbEntity
  8
BUILDING_ENVELOPE
  6
CONTINUOUS
 62
     7
100
AcDbLine
 10
9.45573
 20
1.672422
 30
0.0
 11
9.45573
 21
1.755756
 31
0.0
  0
LINE
  5
1D2
102
{ACAD_REACTORS
330
1CC
102
}
100
AcDbEntity
  8
BUILDING_ENVELOPE
  6
CONTINUOUS
 62
     7
100
AcDbLine
 10
9.45573
 20
1.755756
 30
0.0
 11
9.622397
 21
1.755756
 31
0.0
  0
LINE
  5
1D3
102
{ACAD_REACTORS
330
1CC
102
}
100
AcDbEntity
  8
BUILDING_ENVELOPE
  6
CONTINUOUS
 62
     7
100
AcDbLine
 10
1.490818
 20
1.755756
 30
0.0
 11
1.490818
 21
1.422422
 31
0.0
  0
LINE
  5
1D4
102
{ACAD_REACTORS
330
1CC
102
}
100
AcDbEntity
  8
BUILDING_ENVELOPE
  6
CONTINUOUS
 62
     7
100
AcDbLine
 10
1.490818
 20
1.422422
 30
0.0
 11
1.657485
 21
1.422422
 31
0.0
  0
LINE
  5
1D5
102
{ACAD_REACTORS
330
1CC
102
}
100
AcDbEntity
  8
BUILDING_ENVELOPE
  6
CONTINUOUS
 62
     7
100
AcDbLine
 10
1.657485
 20
1.422422
 30
0.0
 11
1.657485
 21
1.505756
 31
0.0
  0
LINE
  5
1D6
102
{ACAD_REACTORS
330
1CC
102
}
100
AcDbEntity
  8
BUILDING_ENVELOPE
  6
CONTINUOUS
 62
     7
100
AcDbLine
 10
1.657485
 20
1.672422
 30
0.0
 11
1.657485
 21
1.755756
 31
0.0
  0
LINE
  5
1D7
102
{ACAD_REACTORS
330
1CC
102
}
100
AcDbEntity
  8
BUILDING_ENVELOPE
  6
CONTINUOUS
 62
     7
100
AcDbLine
 10
1.657485
 20
1.755756
 30
0.0
 11
1.490818
 21
1.755756
 31
0.0
  0
LWPOLYLINE
  5
1D8
102
{ACAD_REACTORS
330
1CC
102
}
100
AcDbEntity
  8
BUILDING_ENVELOPE
  6
CONTINUOUS
 62
     7
100
AcDbPolyline
 90
        4
 70
     1
 10
9.45573
 20
1.505756
 10
9.289063
 20
1.505756
 10
9.289063
 20
1.672422
 10
9.45573
 20
1.672422
  0
LWPOLYLINE
  5
1D9
102
{ACAD_REACTORS
330
1CC
102
}
100
AcDbEntity
  8
BUILDING_ENVELOPE
  6
CONTINUOUS
 62
     7
100
AcDbPolyline
 90
        4
 70
     1
 10
1.657485
 20
1.505756
 10
1.824151
 20
1.505756
 10
1.824151
 20
1.672422
 10
1.657485
 20
1.672422
  0
LINE
  5
1DA
102
{ACAD_REACTORS
330
1CC
102
}
100
AcDbEntity
  8
BUILDING_ENVELOPE
  6
CONTINUOUS
 62
     7
100
AcDbLine
 10
9.289063
 20
1.589089
 30
0.0
 11
1.824151
 21
1.589089
 31
0.0
  0
LINE
  5
1DB
102
{ACAD_REACTORS
330
1CC
102
}
100
AcDbEntity
  8
BUILDING_ENVELOPE
  6
CONTINUOUS
 62
     7
100
AcDbLine
 10
9.622397
 20
1.755756
 30
0.0
 11
9.622397
 21
1.422422
 31
0.0
  0
LINE
  5
1DC
102
{ACAD_REACTORS
330
1CC
102
}
100
AcDbEntity
  8
BUILDING_ENVELOPE
  6
CONTINUOUS
 62
     7
100
AcDbLine
 10
1.490818
 20
1.755756
 30
0.0
 11
1.490818
 21
1.422422
 31
0.0
  0
ENDSEC
  0
SECTION
  2
OBJECTS
  0
DICTIONARY
  5
C
100
AcDbDictionary
  3
ACAD_GROUP
350
D
  3
ACAD_MLINESTYLE
350
1B
  3
ACAD_SCALELIST
350
2C
  3
ACAD_VISUALSTYLE
350
51
  3
ACAD_MATERIAL
350
6A
  3
ACAD_TABLESTYLE
350
6E
  3
ACAD_MLEADERSTYLE
350
70
  0
DICTIONARY
  5
D
102
{ACAD_REACTORS
330
C
102
}
100
AcDbDictionary
  3
VISIOGROUP_0
350
74
  3
VISIOGROUP_1
350
7C
  3
VISIOGROUP_2
350
83
  3
VISIOGROUP_3
350
8A
  3
VISIOGROUP_4
350
8E
  3
VISIOGROUP_5
350
92
  3
VISIOGROUP_6
350
99
  3
VISIOGROUP_7
350
9D
  3
VISIOGROUP_8
350
A1
  3
VISIOGROUP_9
350
A5
  3
VISIOGROUP_10
350
AE
  3
VISIOGROUP_11
350
B3
  3
VISIOGROUP_12
350
B8
  3
VISIOGROUP_13
350
BD
  3
VISIOGROUP_14
350
C2
  3
VISIOGROUP_15
350
C9
  3
VISIOGROUP_16
350
D2
  3
VISIOGROUP_17
350
DB
  3
VISIOGROUP_18
350
E4
  3
VISIOGROUP_19
350
ED
  3
VISIOGROUP_20
350
F4
  3
VISIOGROUP_21
350
FD
  3
VISIOGROUP_22
350
104
  3
VISIOGROUP_23
350
10B
  3
VISIOGROUP_24
350
111
  3
VISIOGROUP_25
350
12A
  3
VISIOGROUP_26
350
143
  3
VISIOGROUP_27
350
14C
  3
VISIOGROUP_28
350
165
  3
VISIOGROUP_29
350
17E
  3
VISIOGROUP_30
350
184
  3
VISIOGROUP_31
350
19D
  3
VISIOGROUP_32
350
1B6
  3
VISIOGROUP_33
350
1CC
  0
DICTIONARY
  5
1B
102
{ACAD_REACTORS
330
C
102
}
100
AcDbDictionary
  3
STANDARD
350
1C
  0
MLINESTYLE
  5
1C
102
{ACAD_REACTORS
330
1B
102
}
100
AcDbMlineStyle
  2
STANDARD
 70
     0
  3

 62
   256
 51
90.0
 52
90.0
 71
     2
 49
0.5
 62
   256
  6
BYLAYER
 49
-0.5
 62
   256
  6
BYLAYER
  0
DICTIONARY
  5
29
102
{ACAD_REACTORS
330
C
102
}
100
AcDbDictionary
  0
DICTIONARY
  5
2C
102
{ACAD_REACTORS
330
C
102
}
100
AcDbDictionary
  3
A0
350
2D
  3
A1
350
2E
  3
A2
350
2F
  3
A3
350
30
  3
A4
350
31
  3
A5
350
32
  3
A6
350
33
  3
A7
350
34
  3
A8
350
35
  3
A9
350
36
  3
B0
350
37
  3
B1
350
38
  3
B2
350
39
  3
B3
350
3A
  3
B4
350
3B
  3
B5
350
3C
  3
B6
350
3D
  3
B7
350
3E
  3
B8
350
3F
  3
B9
350
40
  3
C0
350
41
  3
C1
350
42
  3
C2
350
43
  3
C3
350
44
  3
C4
350
45
  3
C5
350
46
  3
C6
350
47
  3
C7
350
48
  3
C8
350
49
  3
C9
350
4A
  3
D0
350
4B
  3
D1
350
4C
  3
D2
350
4D
  0
DICTIONARY
  5
4E
102
{ACAD_REACTORS
330
C
102
}
100
AcDbDictionary
  3
MODEL
350
4F
  3
LAYOUT1
350
50
  0
DICTIONARY
  5
51
102
{ACAD_REACTORS
330
C
102
}
100
AcDbDictionary
  3
FLAT
350
52
  3
FLATWITHEDGES
350
53
  3
GOURAUD
350
54
  3
GOURAUDWITHEDGES
350
55
  3
2DWIREFRAME
350
56
  3
WIREFRAME
350
57
  3
HIDDEN
350
58
  3
BASIC
350
59
  3
REALISTIC
350
5A
  3
CONCEPTUAL
350
5B
  3
DIM
350
5C
  3
BRIGHTEN
350
5D
  3
THICKEN
350
5E
  3
LINEPATTERN
350
5F
  3
FACEPATTERN
350
60
  3
COLORCHANGE
350
61
  3
JITTEROFF
350
62
  3
OVERHANGOFF
350
63
  3
EDGECOLOROFF
350
64
  3
SHADES OF GRAY
350
65
  3
SKETCHY
350
66
  3
X-RAY
350
67
  3
SHADED WITH EDGES
350
68
  3
SHADED
350
69
  0
DICTIONARY
  5
6A
102
{ACAD_REACTORS
330
C
102
}
100
AcDbDictionary
  3
BYLAYER
350
6B
  3
BYBLOCK
350
6C
  3
GLOBAL
350
6D
  0
DICTIONARY
  5
6E
102
{ACAD_REACTORS
330
C
102
}
100
AcDbDictionary
  3
STANDARD
350
6F
  0
DICTIONARY
  5
70
102
{ACAD_REACTORS
330
C
102
}
100
AcDbDictionary
  3
STANDARD
350
71
  0
GROUP
  5
74
102
{ACAD_REACTORS
330
D
102
}
100
AcDbGroup
300
Group created by Visio.
 70
     0
 71
     1
340
76
340
77
340
78
340
79
340
7A
  0
GROUP
  5
7C
102
{ACAD_REACTORS
330
D
102
}
100
AcDbGroup
300
Group created by Visio.
 70
     0
 71
     1
340
7D
340
7E
340
7F
340
80
340
81
  0
GROUP
  5
83
102
{ACAD_REACTORS
330
D
102
}
100
AcDbGroup
300
Group created by Visio.
 70
     0
 71
     1
340
84
340
85
340
86
340
87
340
88
  0
GROUP
  5
8A
102
{ACAD_REACTORS
330
D
102
}
100
AcDbGroup
300
Group created by Visio.
 70
     0
 71
     1
340
8B
340
8C
  0
GROUP
  5
8E
102
{ACAD_REACTORS
330
D
102
}
100
AcDbGroup
300
Group created by Visio.
 70
     0
 71
     1
340
8F
340
90
  0
GROUP
  5
92
102
{ACAD_REACTORS
330
D
102
}
100
AcDbGroup
300
Group created by Visio.
 70
     0
 71
     1
340
93
340
94
340
95
340
96
340
97
  0
GROUP
  5
99
102
{ACAD_REACTORS
330
D
102
}
100
AcDbGroup
300
Group created by Visio.
 70
     0
 71
     1
340
9B
340
9C
  0
GROUP
  5
9D
102
{ACAD_REACTORS
330
D
102
}
100
AcDbGroup
300
Group created by Visio.
 70
     0
 71
     1
340
9E
340
9F
  0
GROUP
  5
A1
102
{ACAD_REACTORS
330
D
102
}
100
AcDbGroup
300
Group created by Visio.
 70
     0
 71
     1
340
A2
340
A3
  0
GROUP
  5
A5
102
{ACAD_REACTORS
330
D
102
}
100
AcDbGroup
300
Group created by Visio.
 70
     0
 71
     1
340
A6
340
A7
340
A8
340
A9
340
AA
340
AB
340
AC
  0
GROUP
  5
AE
102
{ACAD_REACTORS
330
D
102
}
100
AcDbGroup
300
Group created by Visio.
 70
     0
 71
     1
340
AF
340
B0
340
B1
340
B2
  0
GROUP
  5
B3
102
{ACAD_REACTORS
330
D
102
}
100
AcDbGroup
300
Group created by Visio.
 70
     0
 71
     1
340
B4
340
B5
340
B6
340
B7
  0
GROUP
  5
B8
102
{ACAD_REACTORS
330
D
102
}
100
AcDbGroup
300
Group created by Visio.
 70
     0
 71
     1
340
B9
340
BA
340
BB
340
BC
  0
GROUP
  5
BD
102
{ACAD_REACTORS
330
D
102
}
100
AcDbGroup
300
Group created by Visio.
 70
     0
 71
     1
340
BE
340
BF
340
C0
340
C1
  0
GROUP
  5
C2
102
{ACAD_REACTORS
330
D
102
}
100
AcDbGroup
300
Group created by Visio.
 70
     0
 71
     1
340
C3
340
C4
340
C6
340
C5
340
C7
340
C8
  0
GROUP
  5
C9
102
{ACAD_REACTORS
330
D
102
}
100
AcDbGroup
300
Group created by Visio.
 70
     0
 71
     1
340
CA
340
CB
340
CC
340
CD
340
CE
340
CF
340
D0
340
D1
  0
GROUP
  5
D2
102
{ACAD_REACTORS
330
D
102
}
100
AcDbGroup
300
Group created by Visio.
 70
     0
 71
     1
340
D3
340
D4
340
D5
340
D6
340
D7
340
D8
340
D9
340
DA
  0
GROUP
  5
DB
102
{ACAD_REACTORS
330
D
102
}
100
AcDbGroup
300
Group created by Visio.
 70
     0
 71
     1
340
DC
340
DD
340
DE
340
DF
340
E0
340
E1
340
E2
340
E3
  0
GROUP
  5
E4
102
{ACAD_REACTORS
330
D
102
}
100
AcDbGroup
300
Group created by Visio.
 70
     0
 71
     1
340
E5
340
E6
340
E7
340
E8
340
E9
340
EA
340
EB
340
EC
  0
GROUP
  5
ED
102
{ACAD_REACTORS
330
D
102
}
100
AcDbGroup
300
Group created by Visio.
 70
     0
 71
     1
340
EE
340
EF
340
F0
340
F1
340
F2
340
F3
  0
GROUP
  5
F4
102
{ACAD_REACTORS
330
D
102
}
100
AcDbGroup
300
Group created by Visio.
 70
     0
 71
     1
340
F5
340
F6
340
F7
340
F8
340
F9
340
FA
340
FB
340
FC
  0
GROUP
  5
FD
102
{ACAD_REACTORS
330
D
102
}
100
AcDbGroup
300
Group created by Visio.
 70
     0
 71
     1
340
FE
340
FF
340
100
340
101
340
102
340
103
  0
GROUP
  5
104
102
{ACAD_REACTORS
330
D
102
}
100
AcDbGroup
300
Group created by Visio.
 70
     0
 71
     1
340
105
340
106
340
107
340
108
340
109
340
10A
  0
GROUP
  5
10B
102
{ACAD_REACTORS
330
D
102
}
100
AcDbGroup
300
Group created by Visio.
 70
     0
 71
     1
340
10C
340
10D
340
10E
340
10F
340
110
  0
GROUP
  5
111
102
{ACAD_REACTORS
330
D
102
}
100
AcDbGroup
300
Group created by Visio.
 70
     0
 71
     1
340
112
340
113
340
114
340
115
340
116
340
117
340
119
340
11A
340
11B
340
11C
340
11D
340
118
340
11E
340
11F
340
120
340
122
340
123
340
124
340
121
340
125
340
126
340
127
340
128
340
129
  0
GROUP
  5
12A
102
{ACAD_REACTORS
330
D
102
}
100
AcDbGroup
300
Group created by Visio.
 70
     0
 71
     1
340
12B
340
12C
340
12D
340
12E
340
12F
340
130
340
132
340
133
340
134
340
135
340
136
340
131
340
137
340
138
340
139
340
13B
340
13C
340
13D
340
13A
340
13E
340
13F
340
140
340
141
340
142
  0
GROUP
  5
143
102
{ACAD_REACTORS
330
D
102
}
100
AcDbGroup
300
Group created by Visio.
 70
     0
 71
     1
340
144
340
145
340
146
340
147
340
148
340
149
340
14A
340
14B
  0
GROUP
  5
14C
102
{ACAD_REACTORS
330
D
102
}
100
AcDbGroup
300
Group created by Visio.
 70
     0
 71
     1
340
14D
340
14E
340
14F
340
150
340
151
340
152
340
154
340
155
340
156
340
157
340
158
340
153
340
159
340
15A
340
15B
340
15D
340
15E
340
15F
340
15C
340
160
340
161
340
162
340
163
340
164
  0
GROUP
  5
165
102
{ACAD_REACTORS
330
D
102
}
100
AcDbGroup
300
Group created by Visio.
 70
     0
 71
     1
340
166
340
167
340
168
340
169
340
16A
340
16B
340
16D
340
16E
340
16F
340
170
340
171
340
16C
340
172
340
173
340
174
340
176
340
177
340
178
340
175
340
179
340
17A
340
17B
340
17C
340
17D
  0
GROUP
  5
17E
102
{ACAD_REACTORS
330
D
102
}
100
AcDbGroup
300
Group created by Visio.
 70
     0
 71
     1
340
17F
340
180
340
181
340
182
340
183
  0
GROUP
  5
184
102
{ACAD_REACTORS
330
D
102
}
100
AcDbGroup
300
Group created by Visio.
 70
     0
 71
     1
340
185
340
186
340
187
340
188
340
189
340
18A
340
18C
340
18D
340
18E
340
18F
340
190
340
18B
340
191
340
192
340
193
340
195
340
196
340
197
340
194
340
198
340
199
340
19A
340
19B
340
19C
  0
GROUP
  5
19D
102
{ACAD_REACTORS
330
D
102
}
100
AcDbGroup
300
Group created by Visio.
 70
     0
 71
     1
340
19E
340
19F
340
1A0
340
1A1
340
1A2
340
1A3
340
1A5
340
1A6
340
1A7
340
1A8
340
1A9
340
1A4
340
1AA
340
1AB
340
1AC
340
1AE
340
1AF
340
1B0
340
1AD
340
1B1
340
1B2
340
1B3
340
1B4
340
1B5
  0
GROUP
  5
1B6
102
{ACAD_REACTORS
330
D
102
}
100
AcDbGroup
300
Group created by Visio.
 70
     0
 71
     1
340
1B7
340
1B9
340
1BA
340
1BB
340
1BC
340
1BD
340
1BE
340
1BF
340
1C0
340
1C1
340
1C2
340
1B8
340
1C5
340
1C6
340
1C7
340
1C8
340
1C9
340
1CA
340
1CB
  0
GROUP
  5
1CC
102
{ACAD_REACTORS
330
D
102
}
100
AcDbGroup
300
Group created by Visio.
 70
     0
 71
     1
340
1CD
340
1CE
340
1CF
340
1D0
340
1D1
340
1D2
340
1D3
340
1D4
340
1D5
340
1D6
340
1D7
340
1D8
340
1D9
340
1DA
340
1DB
340
1DC
  0
ENDSEC
  0
EOF
