  0
SECTION
  2
HEADER
  9
$ACADVER
  1
AC1014
  9
$ACADMAINTVER
 70
     0
  9
$DWGCODEPAGE
  3
ANSI_1252
  9
$INSBASE
 10
0.0
 20
0.0
 30
0.0
  9
$EXTMIN
 10
0.0
 20
0.0
 30
0.0
  9
$EXTMAX
 10
27.508533
 20
47.7752
 30
0.0
  9
$LIMMIN
 10
0.0
 20
0.0
  9
$LIMMAX
 10
12.0
 20
9.0
  9
$ORTHOMODE
 70
     0
  9
$REGENMODE
 70
     1
  9
$FILLMODE
 70
     0
  9
$QTEXTMODE
 70
     0
  9
$MIRRTEXT
 70
     1
  9
$DRAGMODE
 70
     2
  9
$LTSCALE
 40
1.0
  9
$OSMODE
 70
    37
  9
$ATTMODE
 70
     1
  9
$TEXTSIZE
 40
0.2
  9
$TRACEWID
 40
0.05
  9
$TEXTSTYLE
  7
STANDARD
  9
$CLAYER
  8
0
  9
$CELTYPE
  6
BYLAYER
  9
$CECOLOR
 62
   256
  9
$CELTSCALE
 40
1.0
  9
$DELOBJ
 70
     1
  9
$DISPSILH
 70
     0
  9
$DIMSCALE
 40
1.0
  9
$DIMASZ
 40
0.18
  9
$DIMEXO
 40
0.0625
  9
$DIMDLI
 40
0.38
  9
$DIMRND
 40
0.0
  9
$DIMDLE
 40
0.0
  9
$DIMEXE
 40
0.18
  9
$DIMTP
 40
0.0
  9
$DIMTM
 40
0.0
  9
$DIMTXT
 40
0.18
  9
$DIMCEN
 40
0.09
  9
$DIMTSZ
 40
0.0
  9
$DIMTOL
 70
     0
  9
$DIMLIM
 70
     0
  9
$DIMTIH
 70
     0
  9
$DIMTOH
 70
     0
  9
$DIMSE1
 70
     0
  9
$DIMSE2
 70
     0
  9
$DIMTAD
 70
     1
  9
$DIMZIN
 70
     0
  9
$DIMBLK
  1

  9
$DIMASO
 70
     1
  9
$DIMSHO
 70
     1
  9
$DIMPOST
  1

  9
$DIMAPOST
  1

  9
$DIMALT
 70
     0
  9
$DIMALTD
 70
     2
  9
$DIMALTF
 40
25.4
  9
$DIMLFAC
 40
1.0
  9
$DIMTOFL
 70
     0
  9
$DIMTVP
 40
0.0
  9
$DIMTIX
 70
     0
  9
$DIMSOXD
 70
     0
  9
$DIMSAH
 70
     0
  9
$DIMBLK1
  1

  9
$DIMBLK2
  1

  9
$DIMSTYLE
  2
STANDARD
  9
$DIMCLRD
 70
     0
  9
$DIMCLRE
 70
     0
  9
$DIMCLRT
 70
     0
  9
$DIMTFAC
 40
1.0
  9
$DIMGAP
 40
0.09
  9
$DIMJUST
 70
     0
  9
$DIMSD1
 70
     0
  9
$DIMSD2
 70
     0
  9
$DIMTOLJ
 70
     1
  9
$DIMTZIN
 70
     0
  9
$DIMALTZ
 70
     0
  9
$DIMALTTZ
 70
     0
  9
$DIMFIT
 70
     5
  9
$DIMUPT
 70
     0
  9
$DIMUNIT
 70
     2
  9
$DIMDEC
 70
     2
  9
$DIMTDEC
 70
     4
  9
$DIMALTU
 70
     2
  9
$DIMALTTD
 70
     2
  9
$DIMTXSTY
  7
STANDARD
  9
$DIMAUNIT
 70
     0
  9
$LUNITS
 70
     2
  9
$LUPREC
 70
     4
  9
$SKETCHINC
 40
0.1
  9
$FILLETRAD
 40
0.5
  9
$AUNITS
 70
     0
  9
$AUPREC
 70
     0
  9
$MENU
  1
.
  9
$ELEVATION
 40
0.0
  9
$PELEVATION
 40
0.0
  9
$THICKNESS
 40
0.0
  9
$LIMCHECK
 70
     0
  9
$BLIPMODE
 70
     0
  9
$CHAMFERA
 40
0.5
  9
$CHAMFERB
 40
0.5
  9
$CHAMFERC
 40
1.0
  9
$CHAMFERD
 40
0.0
  9
$SKPOLY
 70
     0
  9
$TDCREATE
 40
2450772.666465926
  9
$TDUPDATE
 40
2460687.067835636
  9
$TDINDWG
 40
0.0011564931
  9
$TDUSRTIMER
 40
0.0011564931
  9
$USRTIMER
 70
     1
  9
$ANGBASE
 50
0.0
  9
$ANGDIR
 70
     0
  9
$PDMODE
 70
     0
  9
$PDSIZE
 40
0.0
  9
$PLINEWID
 40
0.0
  9
$COORDS
 70
     1
  9
$SPLFRAME
 70
     0
  9
$SPLINETYPE
 70
     6
  9
$SPLINESEGS
 70
     8
  9
$ATTDIA
 70
     0
  9
$ATTREQ
 70
     1
  9
$HANDLING
 70
     1
  9
$HANDSEED
  5
2D6
  9
$SURFTAB1
 70
     6
  9
$SURFTAB2
 70
     6
  9
$SURFTYPE
 70
     6
  9
$SURFU
 70
     6
  9
$SURFV
 70
     6
  9
$UCSNAME
  2

  9
$UCSORG
 10
0.0
 20
0.0
 30
0.0
  9
$UCSXDIR
 10
1.0
 20
0.0
 30
0.0
  9
$UCSYDIR
 10
0.0
 20
1.0
 30
0.0
  9
$PUCSNAME
  2

  9
$PUCSORG
 10
0.0
 20
0.0
 30
0.0
  9
$PUCSXDIR
 10
1.0
 20
0.0
 30
0.0
  9
$PUCSYDIR
 10
0.0
 20
1.0
 30
0.0
  9
$USERI1
 70
     0
  9
$USERI2
 70
     0
  9
$USERI3
 70
     0
  9
$USERI4
 70
     0
  9
$USERI5
 70
     0
  9
$USERR1
 40
0.0
  9
$USERR2
 40
0.0
  9
$USERR3
 40
0.0
  9
$USERR4
 40
0.0
  9
$USERR5
 40
0.0
  9
$WORLDVIEW
 70
     1
  9
$SHADEDGE
 70
     3
  9
$SHADEDIF
 70
    70
  9
$TILEMODE
 70
     1
  9
$MAXACTVP
 70
    48
  9
$PINSBASE
 10
0.0
 20
0.0
 30
0.0
  9
$PLIMCHECK
 70
     0
  9
$PEXTMIN
 10
0.0
 20
0.0
 30
0.0
  9
$PEXTMAX
 10
0.0
 20
0.0
 30
0.0
  9
$PLIMMIN
 10
0.0
 20
0.0
  9
$PLIMMAX
 10
12.0
 20
9.0
  9
$UNITMODE
 70
     0
  9
$VISRETAIN
 70
     1
  9
$PLINEGEN
 70
     0
  9
$PSLTSCALE
 70
     1
  9
$TREEDEPTH
 70
  3020
  9
$PICKSTYLE
 70
     1
  9
$CMLSTYLE
  2
STANDARD
  9
$CMLJUST
 70
     0
  9
$CMLSCALE
 40
1.0
  9
$PROXYGRAPHICS
 70
     1
  9
$MEASUREMENT
 70
     0
  0
ENDSEC
  0
SECTION
  2
CLASSES
  0
CLASS
  1
LWPOLYLINE
  2
AcDbPolyline
  3
ObjectDBX Classes
 90
       20
280
     0
281
     1
  0
CLASS
  1
IMAGE
  2
AcDbRasterImage
  3
ISM
 90
       21
280
     0
281
     1
  0
CLASS
  1
OLE2FRAME
  2
AcDbOle2Frame
  3
ObjectDBX Classes
 90
       21
280
     0
281
     1
  0
CLASS
  1
HATCH
  2
AcDbHatch
  3
ObjectDBX Classes
 90
       20
280
     0
281
     1
  0
CLASS
  1
DICTIONARYVAR
  2
AcDbDictionaryVar
  3
ObjectDBX Classes
 90
       20
280
     0
281
     0
  0
CLASS
  1
RASTERVARIABLES
  2
AcDbRasterVariables
  3
ISM
 90
       21
280
     0
281
     0
  0
CLASS
  1
IMAGEDEF
  2
AcDbRasterImageDef
  3
ISM
 90
       21
280
     0
281
     0
  0
CLASS
  1
IMAGEDEF_REACTOR
  2
AcDbRasterImageDefReactor
  3
ISM
 90
       21
280
     0
281
     0
  0
CLASS
  1
IDBUFFER
  2
AcDbIdBuffer
  3
ObjectDBX Classes
 90
       20
280
     0
281
     0
  0
CLASS
  1
SPATIAL_FILTER
  2
AcDbSpatialFilter
  3
ObjectDBX Classes
 90
       20
280
     0
281
     0
  0
CLASS
  1
XRECORD
  2
AcDbXrecord
  3
ObjectDBX Classes
 90
       21
280
     0
281
     0
  0
CLASS
  1
ACDBDICTIONARYWDFLT
  2
AcDbDictionaryWithDefault
  3
ObjectDBX Classes
 90
       22
280
     0
281
     0
  0
CLASS
  1
SCALE
  2
AcDbScale
  3
ObjectDBX Classes
 90
       27
280
     0
281
     0
  0
CLASS
  1
VISUALSTYLE
  2
AcDbVisualStyle
  3
ObjectDBX Classes
 90
       26
280
     0
281
     0
  0
CLASS
  1
MATERIAL
  2
AcDbMaterial
  3
ObjectDBX Classes
 90
       23
280
     0
281
     0
  0
CLASS
  1
TABLESTYLE
  2
AcDbTableStyle
  3
ObjectDBX Classes
 90
       25
280
     0
281
     0
  0
CLASS
  1
MLEADERSTYLE
  2
AcDbMLeaderStyle
  3
ACDB_MLEADERSTYLE_CLASS
 90
       27
280
     0
281
     0
  0
CLASS
  1
SORTENTSTABLE
  2
AcDbSortentsTable
  3
"AutoCAD"
 90
        0
280
     0
281
     0
  0
CLASS
  1
LAYER_INDEX
  2
AcDbLayerIndex
  3
"Acad"
 90
        0
280
     0
281
     0
  0
CLASS
  1
SPATIAL_INDEX
  2
AcDbSpatialIndex
  3
"Acad"
 90
        0
280
     0
281
     0
  0
CLASS
  1
OBJECT_PTR
  2
CAseDLPNTableRecord
  3
"ASE-LPNTableRecord"
 90
        1
280
     0
281
     0
  0
CLASS
  1
LAYOUT
  2
AcDbLayout
  3
"AutoCAD 2000"
 90
        1
280
     0
281
     0
  0
CLASS
  1
PLOTSETTINGS
  2
AcDbPlotsettings
  3
"AutoCAD 2000"
 90
        1
280
     0
281
     0
  0
CLASS
  1
ACDBPLACEHOLDER
  2
AcDbPlaceholder
  3
"AutoCAD 2000"
 90
        1
280
     0
281
     0
  0
CLASS
  1
VBA_PROJECT
  2
AcDbVbaProject
  3
"AutoCAD 2000"
 90
        1
280
     0
281
     0
  0
CLASS
  1
WIPEOUT
  2
AcDbWipeout
  3
"AutoCAD 2000"
 90
        1
280
     0
281
     1
  0
CLASS
  1
WIPEOUTVARIABLES
  2
AcDbWipeoutVariables
  3
"AutoCAD 2000"
 90
        1
280
     0
281
     0
  0
CLASS
  1
RTEXT
  2
RText
  3
RText|AutoCAD Express Tool|expresstools@autodesk.com
 90
        1
280
     0
281
     1
  0
CLASS
  1
ARCALIGNEDTEXT
  2
AcDbArcAlignedText
  3
RText|AutoCAD Express Tool|expresstools@autodesk.com
 90
        1
280
     0
281
     1
  0
ENDSEC
  0
SECTION
  2
TABLES
  0
TABLE
  2
VPORT
  5
8
100
AcDbSymbolTable
 70
     1
  0
VPORT
  5
25
100
AcDbSymbolTableRecord
100
AcDbViewportTableRecord
  2
*ACTIVE
 70
     0
 10
0.0
 20
0.0
 11
1.0
 21
1.0
 12
13.754267
 22
23.8876
 13
0.0
 23
0.0
 14
0.5
 24
0.5
 15
0.5
 25
0.5
 16
0.0
 26
0.0
 36
1.0
 17
0.0
 27
0.0
 37
0.0
 40
47.7752
 41
0.575791
 42
50.0
 43
0.0
 44
0.0
 50
0.0
 51
0.0
 71
     0
 72
   100
 73
     1
 74
     1
 75
     0
 76
     0
 77
     0
 78
     0
  0
ENDTAB
  0
TABLE
  2
LTYPE
  5
5
100
AcDbSymbolTable
 70
     3
  0
LTYPE
  5
12
100
AcDbSymbolTableRecord
100
AcDbLinetypeTableRecord
  2
BYBLOCK
 70
     0
  3

 72
    65
 73
     0
 40
0.0
  0
LTYPE
  5
13
100
AcDbSymbolTableRecord
100
AcDbLinetypeTableRecord
  2
BYLAYER
 70
     0
  3

 72
    65
 73
     0
 40
0.0
  0
LTYPE
  5
14
100
AcDbSymbolTableRecord
100
AcDbLinetypeTableRecord
  2
CONTINUOUS
 70
     0
  3
Solid line
 72
    65
 73
     0
 40
0.0
  0
ENDTAB
  0
TABLE
  2
LAYER
  5
2
100
AcDbSymbolTable
 70
     5
  0
LAYER
  5
E
100
AcDbSymbolTableRecord
100
AcDbLayerTableRecord
  2
0
 70
     0
 62
     7
  6
CONTINUOUS
  0
LAYER
  5
75
100
AcDbSymbolTableRecord
100
AcDbLayerTableRecord
  2
SPACE
 70
     0
 62
     7
  6
CONTINUOUS
  0
LAYER
  5
A3
100
AcDbSymbolTableRecord
100
AcDbLayerTableRecord
  2
BUILDING_ENVELOPE
 70
     0
 62
     7
  6
CONTINUOUS
  0
LAYER
  5
10D
100
AcDbSymbolTableRecord
100
AcDbLayerTableRecord
  2
STAIR
 70
     0
 62
     7
  6
CONTINUOUS
  0
LAYER
  5
231
100
AcDbSymbolTableRecord
100
AcDbLayerTableRecord
  2
WALL
 70
     0
 62
     7
  6
CONTINUOUS
  0
ENDTAB
  0
TABLE
  2
STYLE
  5
3
100
AcDbSymbolTable
 70
     1
  0
STYLE
  5
F
100
AcDbSymbolTableRecord
100
AcDbTextStyleTableRecord
  2
STANDARD
 70
     0
 40
0.0
 41
1.0
 50
0.0
 71
     0
 42
0.2
  3
txt.shx
  4

  0
ENDTAB
  0
TABLE
  2
VIEW
  5
6
100
AcDbSymbolTable
 70
     0
  0
ENDTAB
  0
TABLE
  2
UCS
  5
7
100
AcDbSymbolTable
 70
     0
  0
ENDTAB
  0
TABLE
  2
APPID
  5
9
100
AcDbSymbolTable
 70
     1
  0
APPID
  5
10
100
AcDbSymbolTableRecord
100
AcDbRegAppTableRecord
  2
ACAD
 70
     0
  0
ENDTAB
  0
TABLE
  2
DIMSTYLE
  5
A
100
AcDbSymbolTable
 70
     1
  0
DIMSTYLE
105
1D
100
AcDbSymbolTableRecord
100
AcDbDimStyleTableRecord
  2
STANDARD
 70
     0
  3

  4

  5

  6

  7

 40
1.0
 41
0.18
 42
0.0625
 43
0.38
 44
0.18
 45
0.0
 46
0.0
 47
0.0
 48
0.0
 71
     0
 72
     0
 73
     1
 74
     1
 75
     0
 76
     0
 77
     0
 78
     0
140
0.18
141
0.09
142
0.0
143
25.4
144
1.0
145
0.0
146
1.0
147
0.09
170
     0
171
     2
172
     0
173
     0
174
     0
175
     0
176
     0
177
     0
178
     0
270
     2
271
     4
272
     4
273
     2
274
     2
275
     0
280
     0
281
     0
282
     0
283
     1
284
     0
285
     0
286
     0
287
     3
288
     0
340
F
  0
ENDTAB
  0
TABLE
  2
BLOCK_RECORD
  5
1
100
AcDbSymbolTable
 70
     8
  0
BLOCK_RECORD
  5
18
100
AcDbSymbolTableRecord
100
AcDbBlockTableRecord
  2
*MODEL_SPACE
  0
BLOCK_RECORD
  5
15
100
AcDbSymbolTableRecord
100
AcDbBlockTableRecord
  2
*PAPER_SPACE
  0
BLOCK_RECORD
  5
214
100
AcDbSymbolTableRecord
100
AcDbBlockTableRecord
  2
NONE_
  0
BLOCK_RECORD
  5
217
100
AcDbSymbolTableRecord
100
AcDbBlockTableRecord
  2
WALL
  0
BLOCK_RECORD
  5
21E
100
AcDbSymbolTableRecord
100
AcDbBlockTableRecord
  2
SPACE
  0
BLOCK_RECORD
  5
236
100
AcDbSymbolTableRecord
100
AcDbBlockTableRecord
  2
CORNER_LANDING
  0
BLOCK_RECORD
  5
23C
100
AcDbSymbolTableRecord
100
AcDbBlockTableRecord
  2
STRAIGHT_STAIRCASE
  0
BLOCK_RECORD
  5
263
100
AcDbSymbolTableRecord
100
AcDbBlockTableRecord
  2
DOUBLE
  0
BLOCK_RECORD
  5
27D
100
AcDbSymbolTableRecord
100
AcDbBlockTableRecord
  2
DOOR
  0
BLOCK_RECORD
  5
2AC
100
AcDbSymbolTableRecord
100
AcDbBlockTableRecord
  2
CASEMENT
  0
ENDTAB
  0
ENDSEC
  0
SECTION
  2
BLOCKS
  0
BLOCK
  5
19
100
AcDbEntity
  8
0
100
AcDbBlockBegin
  2
*MODEL_SPACE
 70
     0
 10
0.0
 20
0.0
 30
0.0
  3
*MODEL_SPACE
  1

  0
ENDBLK
  5
1A
100
AcDbEntity
  8
0
100
AcDbBlockEnd
  0
BLOCK
  5
16
100
AcDbEntity
 67
     1
  8
0
100
AcDbBlockBegin
  2
*PAPER_SPACE
 70
     0
 10
0.0
 20
0.0
 30
0.0
  3
*PAPER_SPACE
  1

  0
ENDBLK
  5
17
100
AcDbEntity
 67
     1
  8
0
100
AcDbBlockEnd
  0
BLOCK
  5
215
100
AcDbEntity
  8
0
100
AcDbBlockBegin
  2
NONE_
 70
     2
 10
0.0
 20
0.0
 30
0.0
  3
NONE_
  1

  0
ENDBLK
  5
216
100
AcDbEntity
  8
0
100
AcDbBlockEnd
  0
BLOCK
  5
218
100
AcDbEntity
  8
0
100
AcDbBlockBegin
  2
WALL
 70
     0
 10
0.0
 20
0.0
 30
0.0
  3
WALL
  1

  0
LWPOLYLINE
  5
219
102
{ACAD_REACTORS
330
21A
102
}
100
AcDbEntity
  8
BUILDING_ENVELOPE
  6
CONTINUOUS
 62
     7
100
AcDbPolyline
 90
        6
 70
     1
 10
1.0
 20
5.333333
 10
9.0
 20
5.333333
 10
9.0
 20
5.166667
 10
9.0
 20
5.0
 10
1.0
 20
5.0
 10
1.0
 20
5.166667
  0
HATCH
  5
21A
100
AcDbEntity
  8
BUILDING_ENVELOPE
 62
   253
100
AcDbHatch
 10
0.0
 20
0.0
 30
0.0
210
0.0
220
0.0
230
1.0
  2
SOLID
 70
     1
 71
     1
 91
        1
 92
        3
 72
     0
 73
     1
 93
        6
 10
1.0
 20
5.333333333333333
 10
9.0
 20
5.333333333333333
 10
9.0
 20
5.1666666666666661
 10
9.0
 20
5.0
 10
1.0
 20
5.0
 10
1.0
 20
5.1666666666666661
 97
        1
330
219
 75
     0
 76
     1
 98
        0
  0
LWPOLYLINE
  5
21B
100
AcDbEntity
  8
BUILDING_ENVELOPE
  6
CONTINUOUS
 62
     7
100
AcDbPolyline
 90
        4
 70
     0
 10
1.0
 20
5.166667
 10
1.0
 20
5.333333
 10
9.0
 20
5.333333
 10
9.0
 20
5.166667
  0
LWPOLYLINE
  5
21C
100
AcDbEntity
  8
BUILDING_ENVELOPE
  6
CONTINUOUS
 62
     7
100
AcDbPolyline
 90
        4
 70
     0
 10
1.0
 20
5.166667
 10
1.0
 20
5.0
 10
9.0
 20
5.0
 10
9.0
 20
5.166667
  0
ENDBLK
  5
21D
100
AcDbEntity
  8
0
100
AcDbBlockEnd
  0
BLOCK
  5
21F
100
AcDbEntity
  8
0
100
AcDbBlockBegin
  2
SPACE
 70
     2
 10
0.0
 20
0.0
 30
0.0
  3
SPACE
  1

  0
ATTDEF
  5
220
100
AcDbEntity
  8
0
100
AcDbText
 10
5.0
 20
5.0
 30
0.0
 40
0.2
  1

100
AcDbAttributeDefinition
  3
Name
  2
NAME
 70
     0
  0
ATTDEF
  5
221
100
AcDbEntity
  8
0
100
AcDbText
 10
5.0
 20
5.0
 30
0.0
 40
0.2
  1

100
AcDbAttributeDefinition
  3
Space ID
  2
LOCATIONID
 70
     0
  0
ATTDEF
  5
222
100
AcDbEntity
  8
0
100
AcDbText
 10
5.0
 20
5.0
 30
0.0
 40
0.2
  1

100
AcDbAttributeDefinition
  3
Department
  2
DEPARTMENT
 70
     0
  0
ATTDEF
  5
223
100
AcDbEntity
  8
0
100
AcDbText
 10
5.0
 20
5.0
 30
0.0
 40
0.2
  1
Office
100
AcDbAttributeDefinition
  3
Space use
  2
USE
 70
     0
  0
ATTDEF
  5
224
100
AcDbEntity
  8
0
100
AcDbText
 10
5.0
 20
5.0
 30
0.0
 40
0.2
  1

100
AcDbAttributeDefinition
  3
Phone number
  2
PHONENUMBER
 70
     0
  0
ATTDEF
  5
225
100
AcDbEntity
  8
0
100
AcDbText
 10
5.0
 20
5.0
 30
0.0
 40
0.2
  1
0
100
AcDbAttributeDefinition
  3
Occupancy
  2
OCCUPANTCOUNT
 70
     0
  0
ATTDEF
  5
226
100
AcDbEntity
  8
0
100
AcDbText
 10
5.0
 20
5.0
 30
0.0
 40
0.2
  1
0
100
AcDbAttributeDefinition
  3
Capacity
  2
OCCUPANTCAPACITY
 70
     0
  0
ATTDEF
  5
227
100
AcDbEntity
  8
0
100
AcDbText
 10
5.0
 20
5.0
 30
0.0
 40
0.2
  1

100
AcDbAttributeDefinition
  3
ID
  2
ID
 70
     0
  0
ATTDEF
  5
228
100
AcDbEntity
  8
0
100
AcDbText
 10
5.0
 20
5.0
 30
0.0
 40
0.2
  1

100
AcDbAttributeDefinition
  3
Belongs to
  2
BELONGSTO
 70
     0
  0
ATTDEF
  5
229
100
AcDbEntity
  8
0
100
AcDbText
 10
5.0
 20
5.0
 30
0.0
 40
0.2
  1

100
AcDbAttributeDefinition
  3
Modified
  2
MODIFY
 70
     0
  0
ATTDEF
  5
22A
100
AcDbEntity
  8
0
100
AcDbText
 10
5.0
 20
5.0
 30
0.0
 40
0.2
  1
Location
100
AcDbAttributeDefinition
  3
Shape class
  2
SHAPECLASS
 70
     0
  0
ATTDEF
  5
22B
100
AcDbEntity
  8
0
100
AcDbText
 10
5.0
 20
5.0
 30
0.0
 40
0.2
  1
Space
100
AcDbAttributeDefinition
  3
Shape type
  2
SHAPETYPE
 70
     0
  0
ATTDEF
  5
22C
100
AcDbEntity
  8
0
100
AcDbText
 10
5.0
 20
5.0
 30
0.0
 40
0.2
  1

100
AcDbAttributeDefinition
  3
Subshape type
  2
SUBSHAPETYPE
 70
     0
  0
ATTDEF
  5
22D
100
AcDbEntity
  8
0
100
AcDbText
 10
5.0
 20
5.0
 30
0.0
 40
0.2
  1
0
100
AcDbAttributeDefinition
  3
Space height
  2
SPACEHEIGHT
 70
     0
  0
ATTDEF
  5
22E
100
AcDbEntity
  8
0
100
AcDbText
 10
5.0
 20
5.0
 30
0.0
 40
0.2
  1
0
100
AcDbAttributeDefinition
  3
Zones
  2
ZONES
 70
     0
  0
ATTDEF
  5
22F
100
AcDbEntity
  8
0
100
AcDbText
 10
5.0
 20
5.0
 30
0.0
 40
0.2
  1
100FT^ 2
100
AcDbAttributeDefinition
  3
Calculated area
  2
VISAREA
 70
     0
  0
ATTDEF
  5
230
100
AcDbEntity
  8
0
100
AcDbText
 10
5.0
 20
5.0
 30
0.0
 40
0.2
  1
0
100
AcDbAttributeDefinition
  3
Base elevation
  2
BASEELEVATION
 70
     0
  0
LWPOLYLINE
  5
232
102
{ACAD_REACTORS
330
233
102
}
100
AcDbEntity
  8
WALL
  6
CONTINUOUS
100
AcDbPolyline
 90
        4
 70
     1
 10
0.0
 20
0.0
 10
10.0
 20
0.0
 10
10.0
 20
10.0
 10
0.0
 20
10.0
  0
HATCH
  5
233
100
AcDbEntity
  8
WALL
 62
    94
100
AcDbHatch
 10
0.0
 20
0.0
 30
0.0
210
0.0
220
0.0
230
1.0
  2
ANSI31
 70
     0
 71
     1
 91
        1
 92
        2
 72
     0
 73
     1
 93
        4
 10
0.0
 20
0.0
 10
10.0
 20
0.0
 10
10.0
 20
10.0
 10
0.0
 20
10.0
 97
        1
330
232
 75
     0
 76
     1
 52
0.0
 41
0.083333
 77
     0
 78
     1
 53
45.0
 43
0.0
 44
0.0
 45
-0.0073333333333333
 46
0.0073333333333333
 79
     0
 98
        0
  0
MTEXT
  5
234
100
AcDbEntity
  8
WALL
100
AcDbMText
 10
5.0
 20
4.948732
 30
0.0
 40
0.500004
 41
4.420539
 71
     5
 72
     5
  1
\C7;\fCalibri|b0|i0|;\H0.50000381469727;Office\P\P\P
  0
ENDBLK
  5
235
100
AcDbEntity
  8
0
100
AcDbBlockEnd
  0
BLOCK
  5
237
100
AcDbEntity
  8
0
100
AcDbBlockBegin
  2
CORNER_LANDING
 70
     0
 10
0.0
 20
0.0
 30
0.0
  3
CORNER_LANDING
  1

  0
LWPOLYLINE
  5
238
100
AcDbEntity
  8
WALL
  6
CONTINUOUS
 62
     7
100
AcDbPolyline
 90
        4
 70
     1
 10
-1.332899
 20
-1.321759
 10
1.660475
 20
-1.321759
 10
1.660475
 20
1.671615
 10
-1.332899
 20
1.671615
  0
LINE
  5
239
100
AcDbEntity
  8
WALL
  6
CONTINUOUS
 62
     9
100
AcDbLine
 10
-1.332899
 20
-1.321759
 30
0.0
 11
0.156724
 21
1.671615
 31
0.0
  0
LINE
  5
23A
100
AcDbEntity
  8
WALL
  6
CONTINUOUS
 62
     9
100
AcDbLine
 10
-1.332899
 20
-1.321759
 30
0.0
 11
1.660475
 21
0.169061
 31
0.0
  0
ENDBLK
  5
23B
100
AcDbEntity
  8
0
100
AcDbBlockEnd
  0
BLOCK
  5
23D
100
AcDbEntity
  8
0
100
AcDbBlockBegin
  2
STRAIGHT_STAIRCASE
 70
     0
 10
0.0
 20
0.0
 30
0.0
  3
STRAIGHT_STAIRCASE
  1

  0
LWPOLYLINE
  5
23E
100
AcDbEntity
  8
BUILDING_ENVELOPE
  6
CONTINUOUS
 62
     9
100
AcDbPolyline
 90
        4
 70
     1
 10
-3.501199
 20
1.758333
 10
-2.630829
 20
1.758333
 10
-2.630829
 20
-1.241667
 10
-3.501199
 20
-1.241667
  0
LWPOLYLINE
  5
23F
100
AcDbEntity
  8
BUILDING_ENVELOPE
  6
CONTINUOUS
 62
     9
100
AcDbPolyline
 90
        4
 70
     1
 10
-2.630829
 20
1.758333
 10
-1.760459
 20
1.758333
 10
-1.760459
 20
-1.241667
 10
-2.630829
 20
-1.241667
  0
LWPOLYLINE
  5
240
100
AcDbEntity
  8
BUILDING_ENVELOPE
  6
CONTINUOUS
 62
     9
100
AcDbPolyline
 90
        4
 70
     1
 10
-1.760459
 20
1.758333
 10
-0.890088
 20
1.758333
 10
-0.890088
 20
-1.241667
 10
-1.760459
 20
-1.241667
  0
LWPOLYLINE
  5
241
100
AcDbEntity
  8
BUILDING_ENVELOPE
  6
CONTINUOUS
 62
     9
100
AcDbPolyline
 90
        4
 70
     1
 10
-0.890088
 20
1.758333
 10
-0.019718
 20
1.758333
 10
-0.019718
 20
-1.241667
 10
-0.890088
 20
-1.241667
  0
LWPOLYLINE
  5
242
100
AcDbEntity
  8
BUILDING_ENVELOPE
  6
CONTINUOUS
 62
     9
100
AcDbPolyline
 90
        4
 70
     1
 10
-0.019718
 20
1.758333
 10
0.850653
 20
1.758333
 10
0.850653
 20
-1.241667
 10
-0.019718
 20
-1.241667
  0
LWPOLYLINE
  5
243
100
AcDbEntity
  8
BUILDING_ENVELOPE
  6
CONTINUOUS
 62
     9
100
AcDbPolyline
 90
        4
 70
     1
 10
0.850653
 20
1.758333
 10
1.721023
 20
1.758333
 10
1.721023
 20
-1.241667
 10
0.850653
 20
-1.241667
  0
LWPOLYLINE
  5
244
100
AcDbEntity
  8
BUILDING_ENVELOPE
  6
CONTINUOUS
 62
     9
100
AcDbPolyline
 90
        4
 70
     1
 10
1.721023
 20
1.758333
 10
2.591393
 20
1.758333
 10
2.591393
 20
-1.241667
 10
1.721023
 20
-1.241667
  0
LWPOLYLINE
  5
245
100
AcDbEntity
  8
BUILDING_ENVELOPE
  6
CONTINUOUS
 62
     9
100
AcDbPolyline
 90
        4
 70
     1
 10
2.591393
 20
1.758333
 10
3.461764
 20
1.758333
 10
3.461764
 20
-1.241667
 10
2.591393
 20
-1.241667
  0
LWPOLYLINE
  5
246
100
AcDbEntity
  8
BUILDING_ENVELOPE
  6
CONTINUOUS
 62
     9
100
AcDbPolyline
 90
        4
 70
     1
 10
3.461764
 20
1.758333
 10
4.332134
 20
1.758333
 10
4.332134
 20
-1.241667
 10
3.461764
 20
-1.241667
  0
MTEXT
  5
247
100
AcDbEntity
  8
BUILDING_ENVELOPE
100
AcDbMText
 10
-3.877833
 20
0.258333
 30
0.0
 40
0.333332
 41
0.753267
 71
     5
 72
     5
  1
\C7;\fCalibri|b0|i0|;\H0.33333206176758;UP
  0
CIRCLE
  5
248
102
{ACAD_REACTORS
330
249
102
}
100
AcDbEntity
  8
WALL
  6
CONTINUOUS
 62
     7
100
AcDbCircle
 10
-3.501199
 20
0.258333
 30
0.0
 40
0.086804
  0
HATCH
  5
249
100
AcDbEntity
  8
WALL
 62
     7
100
AcDbHatch
 10
0.0
 20
0.0
 30
0.0
210
0.0
220
0.0
230
1.0
  2
SOLID
 70
     1
 71
     1
 91
        1
 92
        1
 93
        1
 72
     2
 10
-3.5011993055309873
 20
0.2583333333333307
 40
0.0868041666666667
 50
0.0
 51
360.0
 73
     1
 97
        1
330
248
 75
     0
 76
     1
 98
        0
  0
LINE
  5
24A
100
AcDbEntity
  8
WALL
  6
CONTINUOUS
 62
     7
100
AcDbLine
 10
-3.501199
 20
0.258333
 30
0.0
 11
-1.192999
 21
0.258333
 31
0.0
  0
LWPOLYLINE
  5
24B
102
{ACAD_REACTORS
330
24C
102
}
100
AcDbEntity
  8
WALL
  6
CONTINUOUS
 62
     7
100
AcDbPolyline
 90
        3
 70
     1
 10
-1.405912
 20
0.130858
 10
-1.405912
 20
0.385808
 10
-0.980087
 20
0.255599
  0
HATCH
  5
24C
100
AcDbEntity
  8
WALL
 62
     7
100
AcDbHatch
 10
0.0
 20
0.0
 30
0.0
210
0.0
220
0.0
230
1.0
  2
SOLID
 70
     1
 71
     1
 91
        1
 92
        3
 72
     0
 73
     1
 93
        3
 10
-1.4059118055309874
 20
0.1308583333333307
 10
-1.4059118055309874
 20
0.3858083333333307
 10
-0.9800868055309874
 20
0.2555989359891018
 97
        1
330
24B
 75
     0
 76
     1
 98
        0
  0
LINE
  5
24D
102
{ACAD_REACTORS
330
252
102
}
100
AcDbEntity
  8
BUILDING_ENVELOPE
  6
CONTINUOUS
 62
     7
100
AcDbLine
 10
0.415467
 20
-1.058333
 30
0.0
 11
4.526181
 21
-1.058333
 31
0.0
  0
ARC
  5
24E
102
{ACAD_REACTORS
330
252
102
}
100
AcDbEntity
  8
BUILDING_ENVELOPE
  6
CONTINUOUS
 62
     7
100
AcDbCircle
 10
4.29196
 20
-1.404611
 30
0.0
 40
0.418052
100
AcDbArc
 50
357.204441
 51
55.925661
  0
LINE
  5
24F
102
{ACAD_REACTORS
330
252
102
}
100
AcDbEntity
  8
BUILDING_ENVELOPE
  6
CONTINUOUS
 62
     7
100
AcDbLine
 10
4.709514
 20
-1.425
 30
0.0
 11
4.892848
 21
-1.425
 31
0.0
  0
ARC
  5
250
102
{ACAD_REACTORS
330
252
102
}
100
AcDbEntity
  8
BUILDING_ENVELOPE
  6
CONTINUOUS
 62
     7
100
AcDbCircle
 10
4.331043
 20
-1.402314
 30
0.0
 40
0.562262
100
AcDbArc
 50
357.687613
 51
69.692522
  0
LINE
  5
251
102
{ACAD_REACTORS
330
252
102
}
100
AcDbEntity
  8
BUILDING_ENVELOPE
  6
CONTINUOUS
 62
     7
100
AcDbLine
 10
4.526181
 20
-0.875
 30
0.0
 11
0.415467
 21
-0.875
 31
0.0
  0
HATCH
  5
252
100
AcDbEntity
  8
BUILDING_ENVELOPE
 62
   254
100
AcDbHatch
 10
0.0
 20
0.0
 30
0.0
210
0.0
220
0.0
230
1.0
  2
SOLID
 70
     1
 71
     1
 91
        4
 92
        1
 93
        6
 72
     1
 10
0.4154673611356792
 20
-1.0583333333333358
 11
4.5261810369690121
 21
-1.0583333333333358
 72
     2
 10
4.2919598054193502
 20
-1.4046106157748337
 40
0.4180520800614547
 50
357.204441
 51
55.925661
 73
     1
 72
     1
 10
4.7095143703023448
 20
-1.4250000000000025
 11
4.8928477036356783
 21
-1.4250000000000025
 72
     2
 10
4.3310434353510541
 20
-1.4023139566341953
 40
0.5622621207465568
 50
357.687613
 51
69.692522
 73
     1
 72
     1
 10
4.5261810369690121
 20
-0.8750000000000029
 11
0.4154673611356792
 21
-0.8750000000000024
 72
     1
 10
0.4154673611356792
 20
-0.8750000000000024
 11
0.4154673611356792
 21
-1.0583333333333358
 97
        5
330
24D
330
24E
330
24F
330
250
330
251
 92
        1
 93
        6
 72
     1
 10
0.4154673611356792
 20
1.5749999999999971
 11
4.5261810369690121
 21
1.5749999999999971
 72
     2
 10
4.5261840383023308
 20
1.7583303320000119
 40
0.1833303320245822
 50
269.999062
 51
0.000938
 73
     1
 72
     1
 10
4.7095143703023457
 20
1.7583333333333306
 11
4.8928477036356783
 21
1.7583333333333306
 72
     2
 10
4.5261870396356496
 20
1.7583273306666913
 40
0.3666606640491629
 50
269.999062
 51
0.000938
 73
     1
 72
     1
 10
4.5261810369690121
 20
1.3916666666666639
 11
0.4154673611356792
 21
1.3916666666666642
 72
     1
 10
0.4154673611356792
 20
1.3916666666666642
 11
0.4154673611356792
 21
1.5749999999999971
 97
        5
330
253
330
254
330
255
330
256
330
257
 92
        1
 93
        6
 72
     1
 10
-4.6678659721976539
 20
-1.2416666666666691
 11
-4.4845326388643203
 21
-1.2416666666666691
 72
     2
 10
-4.3012023068643064
 20
-1.2416636653333502
 40
0.1833303320245819
 50
89.999062
 51
180.000938
 73
     1
 72
     1
 10
-4.3011993055309841
 20
-1.0583333333333358
 11
0.4154673611356792
 21
-1.0583333333333358
 72
     1
 10
0.4154673611356792
 20
-1.0583333333333358
 11
0.4154673611356792
 21
-0.8750000000000024
 72
     1
 10
0.4154673611356792
 20
-0.8750000000000024
 11
-4.3011993055309876
 21
-0.8750000000000024
 72
     2
 10
-4.3012053081976251
 20
-1.2416606640000305
 40
0.3666606640491635
 50
89.999062
 51
180.000938
 73
     1
 97
        5
330
258
330
259
330
25A
330
25B
330
25C
 92
        1
 93
        6
 72
     1
 10
-4.7511993055309869
 20
1.7583333333333306
 11
-4.5678659721976533
 21
1.7583333333333306
 72
     2
 10
-4.3845356401976394
 20
1.7583303320000114
 40
0.183330332024582
 50
179.999062
 51
270.000938
 73
     1
 72
     1
 10
-4.384532638864318
 20
1.5749999999999971
 11
0.4154673611356792
 21
1.5749999999999971
 72
     1
 10
0.4154673611356792
 20
1.5749999999999971
 11
0.4154673611356792
 21
1.3916666666666642
 72
     1
 10
0.4154673611356792
 20
1.3916666666666642
 11
-4.3845326388643207
 21
1.3916666666666642
 72
     2
 10
-4.3845386415309591
 20
1.758327330666692
 40
0.3666606640491635
 50
179.999062
 51
270.000938
 73
     1
 97
        5
330
25D
330
25E
330
25F
330
260
330
261
 75
     0
 76
     1
 98
        0
  0
LINE
  5
253
102
{ACAD_REACTORS
330
252
102
}
100
AcDbEntity
  8
BUILDING_ENVELOPE
  6
CONTINUOUS
 62
     7
100
AcDbLine
 10
0.415467
 20
1.575
 30
0.0
 11
4.526181
 21
1.575
 31
0.0
  0
ARC
  5
254
102
{ACAD_REACTORS
330
252
102
}
100
AcDbEntity
  8
BUILDING_ENVELOPE
  6
CONTINUOUS
 62
     7
100
AcDbCircle
 10
4.526184
 20
1.75833
 30
0.0
 40
0.18333
100
AcDbArc
 50
269.999062
 51
0.0
  0
LINE
  5
255
102
{ACAD_REACTORS
330
252
102
}
100
AcDbEntity
  8
BUILDING_ENVELOPE
  6
CONTINUOUS
 62
     7
100
AcDbLine
 10
4.709514
 20
1.758333
 30
0.0
 11
4.892848
 21
1.758333
 31
0.0
  0
ARC
  5
256
102
{ACAD_REACTORS
330
252
102
}
100
AcDbEntity
  8
BUILDING_ENVELOPE
  6
CONTINUOUS
 62
     7
100
AcDbCircle
 10
4.526187
 20
1.758327
 30
0.0
 40
0.366661
100
AcDbArc
 50
269.999062
 51
0.0
  0
LINE
  5
257
102
{ACAD_REACTORS
330
252
102
}
100
AcDbEntity
  8
BUILDING_ENVELOPE
  6
CONTINUOUS
 62
     7
100
AcDbLine
 10
4.526181
 20
1.391667
 30
0.0
 11
0.415467
 21
1.391667
 31
0.0
  0
LINE
  5
258
102
{ACAD_REACTORS
330
252
102
}
100
AcDbEntity
  8
BUILDING_ENVELOPE
  6
CONTINUOUS
 62
     7
100
AcDbLine
 10
-4.667866
 20
-1.241667
 30
0.0
 11
-4.484533
 21
-1.241667
 31
0.0
  0
ARC
  5
259
102
{ACAD_REACTORS
330
252
102
}
100
AcDbEntity
  8
BUILDING_ENVELOPE
  6
CONTINUOUS
 62
     7
100
AcDbCircle
 10
-4.301202
 20
-1.241664
 30
0.0
 40
0.18333
100
AcDbArc
 50
89.999062
 51
180.000938
  0
LINE
  5
25A
102
{ACAD_REACTORS
330
252
102
}
100
AcDbEntity
  8
BUILDING_ENVELOPE
  6
CONTINUOUS
 62
     7
100
AcDbLine
 10
-4.301199
 20
-1.058333
 30
0.0
 11
0.415467
 21
-1.058333
 31
0.0
  0
LINE
  5
25B
102
{ACAD_REACTORS
330
252
102
}
100
AcDbEntity
  8
BUILDING_ENVELOPE
  6
CONTINUOUS
 62
     7
100
AcDbLine
 10
0.415467
 20
-0.875
 30
0.0
 11
-4.301199
 21
-0.875
 31
0.0
  0
ARC
  5
25C
102
{ACAD_REACTORS
330
252
102
}
100
AcDbEntity
  8
BUILDING_ENVELOPE
  6
CONTINUOUS
 62
     7
100
AcDbCircle
 10
-4.301205
 20
-1.241661
 30
0.0
 40
0.366661
100
AcDbArc
 50
89.999062
 51
180.000938
  0
LINE
  5
25D
102
{ACAD_REACTORS
330
252
102
}
100
AcDbEntity
  8
BUILDING_ENVELOPE
  6
CONTINUOUS
 62
     7
100
AcDbLine
 10
-4.751199
 20
1.758333
 30
0.0
 11
-4.567866
 21
1.758333
 31
0.0
  0
ARC
  5
25E
102
{ACAD_REACTORS
330
252
102
}
100
AcDbEntity
  8
BUILDING_ENVELOPE
  6
CONTINUOUS
 62
     7
100
AcDbCircle
 10
-4.384536
 20
1.75833
 30
0.0
 40
0.18333
100
AcDbArc
 50
179.999062
 51
270.000938
  0
LINE
  5
25F
102
{ACAD_REACTORS
330
252
102
}
100
AcDbEntity
  8
BUILDING_ENVELOPE
  6
CONTINUOUS
 62
     7
100
AcDbLine
 10
-4.384533
 20
1.575
 30
0.0
 11
0.415467
 21
1.575
 31
0.0
  0
LINE
  5
260
102
{ACAD_REACTORS
330
252
102
}
100
AcDbEntity
  8
BUILDING_ENVELOPE
  6
CONTINUOUS
 62
     7
100
AcDbLine
 10
0.415467
 20
1.391667
 30
0.0
 11
-4.384533
 21
1.391667
 31
0.0
  0
ARC
  5
261
102
{ACAD_REACTORS
330
252
102
}
100
AcDbEntity
  8
BUILDING_ENVELOPE
  6
CONTINUOUS
 62
     7
100
AcDbCircle
 10
-4.384539
 20
1.758327
 30
0.0
 40
0.366661
100
AcDbArc
 50
179.999062
 51
270.000938
  0
ENDBLK
  5
262
100
AcDbEntity
  8
0
100
AcDbBlockEnd
  0
BLOCK
  5
264
100
AcDbEntity
  8
0
100
AcDbBlockBegin
  2
DOUBLE
 70
     0
 10
0.0
 20
0.0
 30
0.0
  3
DOUBLE
  1

  0
LWPOLYLINE
  5
265
100
AcDbEntity
  8
BUILDING_ENVELOPE
  6
CONTINUOUS
 62
     7
100
AcDbPolyline
 90
        4
 70
     1
 10
2.333333
 20
4.734
 10
7.666667
 20
4.734
 10
7.666667
 20
5.266
 10
2.333333
 20
5.266
  0
LINE
  5
266
100
AcDbEntity
  8
BUILDING_ENVELOPE
  6
CONTINUOUS
 62
     7
100
AcDbLine
 10
7.666667
 20
4.75
 30
0.0
 11
7.666667
 21
5.25
 31
0.0
  0
LINE
  5
267
100
AcDbEntity
  8
BUILDING_ENVELOPE
  6
CONTINUOUS
 62
     7
100
AcDbLine
 10
7.666667
 20
5.25
 30
0.0
 11
7.5
 21
5.25
 31
0.0
  0
LINE
  5
268
100
AcDbEntity
  8
BUILDING_ENVELOPE
  6
CONTINUOUS
 62
     7
100
AcDbLine
 10
7.5
 20
5.25
 30
0.0
 11
7.5
 21
5.083333
 31
0.0
  0
LINE
  5
269
100
AcDbEntity
  8
BUILDING_ENVELOPE
  6
CONTINUOUS
 62
     7
100
AcDbLine
 10
7.5
 20
4.958333
 30
0.0
 11
7.5
 21
4.75
 31
0.0
  0
LINE
  5
26A
100
AcDbEntity
  8
BUILDING_ENVELOPE
  6
CONTINUOUS
 62
     7
100
AcDbLine
 10
7.5
 20
4.75
 30
0.0
 11
7.666667
 21
4.75
 31
0.0
  0
LINE
  5
26B
100
AcDbEntity
  8
BUILDING_ENVELOPE
  6
CONTINUOUS
 62
     7
100
AcDbLine
 10
2.333333
 20
4.75
 30
0.0
 11
2.333333
 21
5.25
 31
0.0
  0
LINE
  5
26C
100
AcDbEntity
  8
BUILDING_ENVELOPE
  6
CONTINUOUS
 62
     7
100
AcDbLine
 10
2.333333
 20
5.25
 30
0.0
 11
2.5
 21
5.25
 31
0.0
  0
LINE
  5
26D
100
AcDbEntity
  8
BUILDING_ENVELOPE
  6
CONTINUOUS
 62
     7
100
AcDbLine
 10
2.5
 20
5.25
 30
0.0
 11
2.5
 21
5.083333
 31
0.0
  0
LINE
  5
26E
100
AcDbEntity
  8
BUILDING_ENVELOPE
  6
CONTINUOUS
 62
     7
100
AcDbLine
 10
2.5
 20
4.958333
 30
0.0
 11
2.5
 21
4.75
 31
0.0
  0
LINE
  5
26F
100
AcDbEntity
  8
BUILDING_ENVELOPE
  6
CONTINUOUS
 62
     7
100
AcDbLine
 10
2.5
 20
4.75
 30
0.0
 11
2.333333
 21
4.75
 31
0.0
  0
LINE
  5
270
100
AcDbEntity
  8
BUILDING_ENVELOPE
  6
CONTINUOUS
 62
     7
100
AcDbLine
 10
7.5
 20
5.083333
 30
0.0
 11
7.458333
 21
5.083333
 31
0.0
  0
LINE
  5
271
100
AcDbEntity
  8
BUILDING_ENVELOPE
  6
CONTINUOUS
 62
     7
100
AcDbLine
 10
7.458333
 20
5.083333
 30
0.0
 11
7.458333
 21
4.958333
 31
0.0
  0
LINE
  5
272
100
AcDbEntity
  8
BUILDING_ENVELOPE
  6
CONTINUOUS
 62
     7
100
AcDbLine
 10
7.458333
 20
4.958333
 30
0.0
 11
7.5
 21
4.958333
 31
0.0
  0
LINE
  5
273
100
AcDbEntity
  8
BUILDING_ENVELOPE
  6
CONTINUOUS
 62
     7
100
AcDbLine
 10
2.5
 20
5.083333
 30
0.0
 11
2.541667
 21
5.083333
 31
0.0
  0
LINE
  5
274
100
AcDbEntity
  8
BUILDING_ENVELOPE
  6
CONTINUOUS
 62
     7
100
AcDbLine
 10
2.541667
 20
5.083333
 30
0.0
 11
2.541667
 21
4.958333
 31
0.0
  0
LINE
  5
275
100
AcDbEntity
  8
BUILDING_ENVELOPE
  6
CONTINUOUS
 62
     7
100
AcDbLine
 10
2.541667
 20
4.958333
 30
0.0
 11
2.5
 21
4.958333
 31
0.0
  0
LINE
  5
276
100
AcDbEntity
  8
BUILDING_ENVELOPE
  6
CONTINUOUS
 62
     7
100
AcDbLine
 10
7.666667
 20
4.75
 30
0.0
 11
7.666667
 21
5.25
 31
0.0
  0
LINE
  5
277
100
AcDbEntity
  8
BUILDING_ENVELOPE
  6
CONTINUOUS
 62
     7
100
AcDbLine
 10
2.333333
 20
4.75
 30
0.0
 11
2.333333
 21
5.25
 31
0.0
  0
ARC
  5
278
100
AcDbEntity
  8
BUILDING_ENVELOPE
  6
CONTINUOUS
 62
     7
100
AcDbCircle
 10
2.5
 20
5.25
 30
0.0
 40
2.5
100
AcDbArc
 50
0.0
 51
90.0
  0
ARC
  5
279
100
AcDbEntity
  8
BUILDING_ENVELOPE
  6
CONTINUOUS
 62
     7
100
AcDbCircle
 10
7.5
 20
5.25
 30
0.0
 40
2.5
100
AcDbArc
 50
90.0
 51
180.0
  0
LWPOLYLINE
  5
27A
100
AcDbEntity
  8
BUILDING_ENVELOPE
  6
CONTINUOUS
 62
     7
100
AcDbPolyline
 90
        4
 70
     1
 10
2.5
 20
7.75
 10
2.5
 20
5.25
 10
2.666667
 20
5.25
 10
2.666667
 20
7.75
  0
LWPOLYLINE
  5
27B
100
AcDbEntity
  8
BUILDING_ENVELOPE
  6
CONTINUOUS
 62
     7
100
AcDbPolyline
 90
        4
 70
     1
 10
7.333333
 20
7.75
 10
7.333333
 20
5.25
 10
7.5
 20
5.25
 10
7.5
 20
7.75
  0
ENDBLK
  5
27C
100
AcDbEntity
  8
0
100
AcDbBlockEnd
  0
BLOCK
  5
27E
100
AcDbEntity
  8
0
100
AcDbBlockBegin
  2
DOOR
 70
     2
 10
0.0
 20
0.0
 30
0.0
  3
DOOR
  1

  0
ATTDEF
  5
27F
100
AcDbEntity
  8
0
100
AcDbText
 10
5.0
 20
5.0
 30
0.0
 40
0.2
  1
80
100
AcDbAttributeDefinition
  3
Door height
  2
VISDOORHEIGHT
 70
     0
  0
ATTDEF
  5
280
100
AcDbEntity
  8
0
100
AcDbText
 10
5.0
 20
5.0
 30
0.0
 40
0.2
  1
0
100
AcDbAttributeDefinition
  3
Reference Line Offset
  2
REFLN
 70
     0
  0
ATTDEF
  5
281
100
AcDbEntity
  8
0
100
AcDbText
 10
5.0
 20
5.0
 30
0.0
 40
0.2
  1
30
100
AcDbAttributeDefinition
  3
Door width
  2
SUBTYPE
 70
     0
  0
ATTDEF
  5
282
100
AcDbEntity
  8
0
100
AcDbText
 10
5.0
 20
5.0
 30
0.0
 40
0.2
  1
2
100
AcDbAttributeDefinition
  3
Door frame width
  2
SUBVISDOORFRAMEWIDTH
 70
     0
  0
ATTDEF
  5
283
100
AcDbEntity
  8
0
100
AcDbText
 10
5.0
 20
5.0
 30
0.0
 40
0.2
  1
4
100
AcDbAttributeDefinition
  3
Door frame depth
  2
SUBVISDOORFRAMEDEPTH
 70
     0
  0
ATTDEF
  5
284
100
AcDbEntity
  8
0
100
AcDbText
 10
5.0
 20
5.0
 30
0.0
 40
0.2
  1
0.5
100
AcDbAttributeDefinition
  3
Door stop width
  2
SUBVISDOORSTOPWIDTH
 70
     0
  0
ATTDEF
  5
285
100
AcDbEntity
  8
0
100
AcDbText
 10
5.0
 20
5.0
 30
0.0
 40
0.2
  1
1.5
100
AcDbAttributeDefinition
  3
Door stop depth
  2
SUBVISDOORSTOPDEPTH
 70
     0
  0
ATTDEF
  5
286
100
AcDbEntity
  8
0
100
AcDbText
 10
5.0
 20
5.0
 30
0.0
 40
0.2
  1
2
100
AcDbAttributeDefinition
  3
Door threshold depth inside
  2
SUBVISDOORTHRESDEPTHIN
 70
     0
  0
ATTDEF
  5
287
100
AcDbEntity
  8
0
100
AcDbText
 10
5.0
 20
5.0
 30
0.0
 40
0.2
  1
2
100
AcDbAttributeDefinition
  3
Door threshold width inside
  2
SUBVISDOORTHRESWIDTHIN
 70
     0
  0
ATTDEF
  5
288
100
AcDbEntity
  8
0
100
AcDbText
 10
5.0
 20
5.0
 30
0.0
 40
0.2
  1
2
100
AcDbAttributeDefinition
  3
Door threshold depth outside
  2
SUBVISDOORTHRESDEPTHOUT
 70
     0
  0
ATTDEF
  5
289
100
AcDbEntity
  8
0
100
AcDbText
 10
5.0
 20
5.0
 30
0.0
 40
0.2
  1
2
100
AcDbAttributeDefinition
  3
Door threshold width outside
  2
SUBVISDOORTHRESWIDTHOUT
 70
     0
  0
ATTDEF
  5
28A
100
AcDbEntity
  8
0
100
AcDbText
 10
5.0
 20
5.0
 30
0.0
 40
0.2
  1
2
100
AcDbAttributeDefinition
  3
Door panel thickness
  2
SUBVISDOORPANELTHICKNESS
 70
     0
  0
ATTDEF
  5
28B
100
AcDbEntity
  8
0
100
AcDbText
 10
5.0
 20
5.0
 30
0.0
 40
0.2
  1
15
100
AcDbAttributeDefinition
  3
Door leaf width
  2
VISDOORLEAF
 70
     0
  0
ATTDEF
  5
28C
100
AcDbEntity
  8
0
100
AcDbText
 10
5.0
 20
5.0
 30
0.0
 40
0.2
  1
12
100
AcDbAttributeDefinition
  3
Door spring height
  2
VISDOORSPRING
 70
     0
  0
ATTDEF
  5
28D
100
AcDbEntity
  8
0
100
AcDbText
 10
5.0
 20
5.0
 30
0.0
 40
0.2
  1
6
100
AcDbAttributeDefinition
  3
Door along wall offset
  2
VISDOORALONGWALLOFFSET
 70
     0
  0
ATTDEF
  5
28E
100
AcDbEntity
  8
0
100
AcDbText
 10
5.0
 20
5.0
 30
0.0
 40
0.2
  1
Single
100
AcDbAttributeDefinition
  3
Door type
  2
SUBSHAPETYPE
 70
     0
  0
ATTDEF
  5
28F
100
AcDbEntity
  8
0
100
AcDbText
 10
5.0
 20
5.0
 30
0.0
 40
0.2
  1
Center
100
AcDbAttributeDefinition
  3
Door within wall offset
  2
VISJUSTIFICATION
 70
     0
  0
ATTDEF
  5
290
100
AcDbEntity
  8
0
100
AcDbText
 10
5.0
 20
5.0
 30
0.0
 40
0.2
  1
50
100
AcDbAttributeDefinition
  3
Door open percentage
  2
VISDOOROPENPERCENT
 70
     0
  0
ATTDEF
  5
291
100
AcDbEntity
  8
0
100
AcDbText
 10
5.0
 20
5.0
 30
0.0
 40
0.2
  1
Building Component
100
AcDbAttributeDefinition
  3
Shape class
  2
SHAPECLASS
 70
     0
  0
ATTDEF
  5
292
100
AcDbEntity
  8
0
100
AcDbText
 10
5.0
 20
5.0
 30
0.0
 40
0.2
  1
Door
100
AcDbAttributeDefinition
  3
Shape type
  2
SHAPETYPE
 70
     0
  0
ATTDEF
  5
293
100
AcDbEntity
  8
0
100
AcDbText
 10
5.0
 20
5.0
 30
0.0
 40
0.2
  1
0
100
AcDbAttributeDefinition
  3
Fire rating
  2
FIRERATING
 70
     0
  0
ATTDEF
  5
294
100
AcDbEntity
  8
0
100
AcDbText
 10
5.0
 20
5.0
 30
0.0
 40
0.2
  1
0
100
AcDbAttributeDefinition
  3
Door number
  2
DOORNUMBER
 70
     0
  0
ATTDEF
  5
295
100
AcDbEntity
  8
0
100
AcDbText
 10
5.0
 20
5.0
 30
0.0
 40
0.2
  1
0
100
AcDbAttributeDefinition
  3
Base elevation
  2
BASEELEVATION
 70
     0
  0
LWPOLYLINE
  5
296
100
AcDbEntity
  8
BUILDING_ENVELOPE
  6
CONTINUOUS
 62
     7
100
AcDbPolyline
 90
        4
 70
     1
 10
3.583333
 20
4.734
 10
6.416667
 20
4.734
 10
6.416667
 20
5.266
 10
3.583333
 20
5.266
  0
LINE
  5
297
100
AcDbEntity
  8
BUILDING_ENVELOPE
  6
CONTINUOUS
 62
     7
100
AcDbLine
 10
6.416667
 20
4.75
 30
0.0
 11
6.416667
 21
5.25
 31
0.0
  0
LINE
  5
298
100
AcDbEntity
  8
BUILDING_ENVELOPE
  6
CONTINUOUS
 62
     7
100
AcDbLine
 10
6.416667
 20
5.25
 30
0.0
 11
6.25
 21
5.25
 31
0.0
  0
LINE
  5
299
100
AcDbEntity
  8
BUILDING_ENVELOPE
  6
CONTINUOUS
 62
     7
100
AcDbLine
 10
6.25
 20
5.25
 30
0.0
 11
6.25
 21
5.083333
 31
0.0
  0
LINE
  5
29A
100
AcDbEntity
  8
BUILDING_ENVELOPE
  6
CONTINUOUS
 62
     7
100
AcDbLine
 10
6.25
 20
4.958333
 30
0.0
 11
6.25
 21
4.75
 31
0.0
  0
LINE
  5
29B
100
AcDbEntity
  8
BUILDING_ENVELOPE
  6
CONTINUOUS
 62
     7
100
AcDbLine
 10
6.25
 20
4.75
 30
0.0
 11
6.416667
 21
4.75
 31
0.0
  0
LINE
  5
29C
100
AcDbEntity
  8
BUILDING_ENVELOPE
  6
CONTINUOUS
 62
     7
100
AcDbLine
 10
3.583333
 20
4.75
 30
0.0
 11
3.583333
 21
5.25
 31
0.0
  0
LINE
  5
29D
100
AcDbEntity
  8
BUILDING_ENVELOPE
  6
CONTINUOUS
 62
     7
100
AcDbLine
 10
3.583333
 20
5.25
 30
0.0
 11
3.75
 21
5.25
 31
0.0
  0
LINE
  5
29E
100
AcDbEntity
  8
BUILDING_ENVELOPE
  6
CONTINUOUS
 62
     7
100
AcDbLine
 10
3.75
 20
5.25
 30
0.0
 11
3.75
 21
5.083333
 31
0.0
  0
LINE
  5
29F
100
AcDbEntity
  8
BUILDING_ENVELOPE
  6
CONTINUOUS
 62
     7
100
AcDbLine
 10
3.75
 20
4.958333
 30
0.0
 11
3.75
 21
4.75
 31
0.0
  0
LINE
  5
2A0
100
AcDbEntity
  8
BUILDING_ENVELOPE
  6
CONTINUOUS
 62
     7
100
AcDbLine
 10
3.75
 20
4.75
 30
0.0
 11
3.583333
 21
4.75
 31
0.0
  0
LINE
  5
2A1
100
AcDbEntity
  8
BUILDING_ENVELOPE
  6
CONTINUOUS
 62
     7
100
AcDbLine
 10
6.25
 20
5.083333
 30
0.0
 11
6.208333
 21
5.083333
 31
0.0
  0
LINE
  5
2A2
100
AcDbEntity
  8
BUILDING_ENVELOPE
  6
CONTINUOUS
 62
     7
100
AcDbLine
 10
6.208333
 20
5.083333
 30
0.0
 11
6.208333
 21
4.958333
 31
0.0
  0
LINE
  5
2A3
100
AcDbEntity
  8
BUILDING_ENVELOPE
  6
CONTINUOUS
 62
     7
100
AcDbLine
 10
6.208333
 20
4.958333
 30
0.0
 11
6.25
 21
4.958333
 31
0.0
  0
LINE
  5
2A4
100
AcDbEntity
  8
BUILDING_ENVELOPE
  6
CONTINUOUS
 62
     7
100
AcDbLine
 10
3.75
 20
5.083333
 30
0.0
 11
3.791667
 21
5.083333
 31
0.0
  0
LINE
  5
2A5
100
AcDbEntity
  8
BUILDING_ENVELOPE
  6
CONTINUOUS
 62
     7
100
AcDbLine
 10
3.791667
 20
5.083333
 30
0.0
 11
3.791667
 21
4.958333
 31
0.0
  0
LINE
  5
2A6
100
AcDbEntity
  8
BUILDING_ENVELOPE
  6
CONTINUOUS
 62
     7
100
AcDbLine
 10
3.791667
 20
4.958333
 30
0.0
 11
3.75
 21
4.958333
 31
0.0
  0
LINE
  5
2A7
100
AcDbEntity
  8
BUILDING_ENVELOPE
  6
CONTINUOUS
 62
     7
100
AcDbLine
 10
6.416667
 20
4.75
 30
0.0
 11
6.416667
 21
5.25
 31
0.0
  0
LINE
  5
2A8
100
AcDbEntity
  8
BUILDING_ENVELOPE
  6
CONTINUOUS
 62
     7
100
AcDbLine
 10
3.583333
 20
4.75
 30
0.0
 11
3.583333
 21
5.25
 31
0.0
  0
ARC
  5
2A9
100
AcDbEntity
  8
BUILDING_ENVELOPE
  6
CONTINUOUS
 62
     7
100
AcDbCircle
 10
6.25
 20
5.25
 30
0.0
 40
2.5
100
AcDbArc
 50
90.0
 51
180.0
  0
LWPOLYLINE
  5
2AA
100
AcDbEntity
  8
BUILDING_ENVELOPE
  6
CONTINUOUS
 62
     7
100
AcDbPolyline
 90
        4
 70
     1
 10
6.083333
 20
7.75
 10
6.083333
 20
5.25
 10
6.25
 20
5.25
 10
6.25
 20
7.75
  0
ENDBLK
  5
2AB
100
AcDbEntity
  8
0
100
AcDbBlockEnd
  0
BLOCK
  5
2AD
100
AcDbEntity
  8
0
100
AcDbBlockBegin
  2
CASEMENT
 70
     2
 10
0.0
 20
0.0
 30
0.0
  3
CASEMENT
  1

  0
ATTDEF
  5
2AE
100
AcDbEntity
  8
0
100
AcDbText
 10
5.0
 20
5.0
 30
0.0
 40
0.2
  1
60
100
AcDbAttributeDefinition
  3
Window height
  2
VISWNDWHEIGHT
 70
     0
  0
ATTDEF
  5
2AF
100
AcDbEntity
  8
0
100
AcDbText
 10
5.0
 20
5.0
 30
0.0
 40
0.2
  1
0
100
AcDbAttributeDefinition
  3
Reference Line Offset
  2
REFLN
 70
     0
  0
ATTDEF
  5
2B0
100
AcDbEntity
  8
0
100
AcDbText
 10
5.0
 20
5.0
 30
0.0
 40
0.2
  1
30
100
AcDbAttributeDefinition
  3
Window width
  2
SUBTYPE
 70
     0
  0
ATTDEF
  5
2B1
100
AcDbEntity
  8
0
100
AcDbText
 10
5.0
 20
5.0
 30
0.0
 40
0.2
  1
2
100
AcDbAttributeDefinition
  3
Window frame depth
  2
SUBVISWNDWFRAMEDEPTH
 70
     0
  0
ATTDEF
  5
2B2
100
AcDbEntity
  8
0
100
AcDbText
 10
5.0
 20
5.0
 30
0.0
 40
0.2
  1
4
100
AcDbAttributeDefinition
  3
Window frame width
  2
SUBVISWNDWFRAMEWIDTH
 70
     0
  0
ATTDEF
  5
2B3
100
AcDbEntity
  8
0
100
AcDbText
 10
5.0
 20
5.0
 30
0.0
 40
0.2
  1
2.5
100
AcDbAttributeDefinition
  3
Window sash depth
  2
SUBVISWNDWSASHDEPTH
 70
     0
  0
ATTDEF
  5
2B4
100
AcDbEntity
  8
0
100
AcDbText
 10
5.0
 20
5.0
 30
0.0
 40
0.2
  1
1
100
AcDbAttributeDefinition
  3
Window sash width
  2
SUBVISWNDWSASHWIDTH
 70
     0
  0
ATTDEF
  5
2B5
100
AcDbEntity
  8
0
100
AcDbText
 10
5.0
 20
5.0
 30
0.0
 40
0.2
  1
2
100
AcDbAttributeDefinition
  3
Window sill depth inside
  2
SUBVISWNDWSILLDEPTHIN
 70
     0
  0
ATTDEF
  5
2B6
100
AcDbEntity
  8
0
100
AcDbText
 10
5.0
 20
5.0
 30
0.0
 40
0.2
  1
2
100
AcDbAttributeDefinition
  3
Window sill width inside
  2
SUBVISWNDWSILLWIDTHIN
 70
     0
  0
ATTDEF
  5
2B7
100
AcDbEntity
  8
0
100
AcDbText
 10
5.0
 20
5.0
 30
0.0
 40
0.2
  1
2
100
AcDbAttributeDefinition
  3
Window sill depth outside
  2
SUBVISWNDWSILLDEPTHOUT
 70
     0
  0
ATTDEF
  5
2B8
100
AcDbEntity
  8
0
100
AcDbText
 10
5.0
 20
5.0
 30
0.0
 40
0.2
  1
2
100
AcDbAttributeDefinition
  3
Window sill width outside
  2
SUBVISWNDWSILLWIDTHOUT
 70
     0
  0
ATTDEF
  5
2B9
100
AcDbEntity
  8
0
100
AcDbText
 10
5.0
 20
5.0
 30
0.0
 40
0.2
  1
80
100
AcDbAttributeDefinition
  3
Window header height
  2
VISWNDWHEADERHEIGHT
 70
     0
  0
ATTDEF
  5
2BA
100
AcDbEntity
  8
0
100
AcDbText
 10
5.0
 20
5.0
 30
0.0
 40
0.2
  1
6
100
AcDbAttributeDefinition
  3
Window along wall offset
  2
VISWNDWALONGWALLOFFSET
 70
     0
  0
ATTDEF
  5
2BB
100
AcDbEntity
  8
0
100
AcDbText
 10
5.0
 20
5.0
 30
0.0
 40
0.2
  1
15
100
AcDbAttributeDefinition
  3
Window operator size
  2
VISWNDWOPERATOR
 70
     0
  0
ATTDEF
  5
2BC
100
AcDbEntity
  8
0
100
AcDbText
 10
5.0
 20
5.0
 30
0.0
 40
0.2
  1
12
100
AcDbAttributeDefinition
  3
Window spring height
  2
VISWNDWSPRING
 70
     0
  0
ATTDEF
  5
2BD
100
AcDbEntity
  8
0
100
AcDbText
 10
5.0
 20
5.0
 30
0.0
 40
0.2
  1
Center
100
AcDbAttributeDefinition
  3
Window within wall offset
  2
VISJUSTIFICATION
 70
     0
  0
ATTDEF
  5
2BE
100
AcDbEntity
  8
0
100
AcDbText
 10
5.0
 20
5.0
 30
0.0
 40
0.2
  1
Building Component
100
AcDbAttributeDefinition
  3
Shape class
  2
SHAPECLASS
 70
     0
  0
ATTDEF
  5
2BF
100
AcDbEntity
  8
0
100
AcDbText
 10
5.0
 20
5.0
 30
0.0
 40
0.2
  1
Window
100
AcDbAttributeDefinition
  3
Shape type
  2
SHAPETYPE
 70
     0
  0
ATTDEF
  5
2C0
100
AcDbEntity
  8
0
100
AcDbText
 10
5.0
 20
5.0
 30
0.0
 40
0.2
  1
Casement
100
AcDbAttributeDefinition
  3
Window type
  2
SUBSHAPETYPE
 70
     0
  0
ATTDEF
  5
2C1
100
AcDbEntity
  8
0
100
AcDbText
 10
5.0
 20
5.0
 30
0.0
 40
0.2
  1
0
100
AcDbAttributeDefinition
  3
Fire rating
  2
FIRERATING
 70
     0
  0
ATTDEF
  5
2C2
100
AcDbEntity
  8
0
100
AcDbText
 10
5.0
 20
5.0
 30
0.0
 40
0.2
  1
0
100
AcDbAttributeDefinition
  3
Window number
  2
WNDWNUMBER
 70
     0
  0
LWPOLYLINE
  5
2C3
100
AcDbEntity
  8
BUILDING_ENVELOPE
  6
CONTINUOUS
 62
     7
100
AcDbPolyline
 90
        4
 70
     1
 10
3.75
 20
4.734
 10
6.25
 20
4.734
 10
6.25
 20
5.266
 10
3.75
 20
5.266
  0
LINE
  5
2C4
100
AcDbEntity
  8
BUILDING_ENVELOPE
  6
CONTINUOUS
 62
     7
100
AcDbLine
 10
3.75
 20
4.75
 30
0.0
 11
3.75
 21
5.25
 31
0.0
  0
LINE
  5
2C5
100
AcDbEntity
  8
BUILDING_ENVELOPE
  6
CONTINUOUS
 62
     7
100
AcDbLine
 10
3.75
 20
5.25
 30
0.0
 11
4.083333
 21
5.25
 31
0.0
  0
LINE
  5
2C6
100
AcDbEntity
  8
BUILDING_ENVELOPE
  6
CONTINUOUS
 62
     7
100
AcDbLine
 10
4.083333
 20
5.25
 30
0.0
 11
4.083333
 21
5.104167
 31
0.0
  0
LINE
  5
2C7
100
AcDbEntity
  8
BUILDING_ENVELOPE
  6
CONTINUOUS
 62
     7
100
AcDbLine
 10
4.083333
 20
4.895833
 30
0.0
 11
4.083333
 21
4.75
 31
0.0
  0
LINE
  5
2C8
100
AcDbEntity
  8
BUILDING_ENVELOPE
  6
CONTINUOUS
 62
     7
100
AcDbLine
 10
4.083333
 20
4.75
 30
0.0
 11
3.75
 21
4.75
 31
0.0
  0
LINE
  5
2C9
100
AcDbEntity
  8
BUILDING_ENVELOPE
  6
CONTINUOUS
 62
     7
100
AcDbLine
 10
6.25
 20
4.75
 30
0.0
 11
6.25
 21
5.25
 31
0.0
  0
LINE
  5
2CA
100
AcDbEntity
  8
BUILDING_ENVELOPE
  6
CONTINUOUS
 62
     7
100
AcDbLine
 10
6.25
 20
5.25
 30
0.0
 11
5.916667
 21
5.25
 31
0.0
  0
LINE
  5
2CB
100
AcDbEntity
  8
BUILDING_ENVELOPE
  6
CONTINUOUS
 62
     7
100
AcDbLine
 10
5.916667
 20
5.25
 30
0.0
 11
5.916667
 21
5.104167
 31
0.0
  0
LINE
  5
2CC
100
AcDbEntity
  8
BUILDING_ENVELOPE
  6
CONTINUOUS
 62
     7
100
AcDbLine
 10
5.916667
 20
4.895833
 30
0.0
 11
5.916667
 21
4.75
 31
0.0
  0
LINE
  5
2CD
100
AcDbEntity
  8
BUILDING_ENVELOPE
  6
CONTINUOUS
 62
     7
100
AcDbLine
 10
5.916667
 20
4.75
 30
0.0
 11
6.25
 21
4.75
 31
0.0
  0
LWPOLYLINE
  5
2CE
100
AcDbEntity
  8
BUILDING_ENVELOPE
  6
CONTINUOUS
 62
     7
100
AcDbPolyline
 90
        4
 70
     1
 10
4.083333
 20
5.208333
 10
4.166667
 20
5.208333
 10
4.166667
 20
5.0
 10
4.083333
 20
5.0
  0
LWPOLYLINE
  5
2CF
100
AcDbEntity
  8
BUILDING_ENVELOPE
  6
CONTINUOUS
 62
     7
100
AcDbPolyline
 90
        4
 70
     1
 10
5.916667
 20
5.208333
 10
5.833333
 20
5.208333
 10
5.833333
 20
5.0
 10
5.916667
 20
5.0
  0
LINE
  5
2D0
100
AcDbEntity
  8
BUILDING_ENVELOPE
  6
CONTINUOUS
 62
     7
100
AcDbLine
 10
4.166667
 20
5.104167
 30
0.0
 11
5.833333
 21
5.104167
 31
0.0
  0
LINE
  5
2D1
100
AcDbEntity
  8
BUILDING_ENVELOPE
  6
CONTINUOUS
 62
     7
100
AcDbLine
 10
3.75
 20
4.75
 30
0.0
 11
3.75
 21
5.25
 31
0.0
  0
LINE
  5
2D2
100
AcDbEntity
  8
BUILDING_ENVELOPE
  6
CONTINUOUS
 62
     7
100
AcDbLine
 10
6.25
 20
4.75
 30
0.0
 11
6.25
 21
5.25
 31
0.0
  0
LWPOLYLINE
  5
2D3
100
AcDbEntity
  8
BUILDING_ENVELOPE
  6
CONTINUOUS
 62
     7
100
AcDbPolyline
 90
        4
 70
     1
 10
4.083333
 20
5.0
 10
4.125
 20
5.0
 10
4.125
 20
4.895833
 10
4.083333
 20
4.895833
  0
LWPOLYLINE
  5
2D4
100
AcDbEntity
  8
BUILDING_ENVELOPE
  6
CONTINUOUS
 62
     7
100
AcDbPolyline
 90
        4
 70
     1
 10
5.916667
 20
5.0
 10
5.875
 20
5.0
 10
5.875
 20
4.895833
 10
5.916667
 20
4.895833
  0
ENDBLK
  5
2D5
100
AcDbEntity
  8
0
100
AcDbBlockEnd
  0
ENDSEC
  0
SECTION
  2
ENTITIES
  0
LWPOLYLINE
  5
76
102
{ACAD_REACTORS
330
77
102
}
100
AcDbEntity
  8
SPACE
  6
CONTINUOUS
100
AcDbPolyline
 90
        4
 70
     1
 10
25.312708
 20
11.668056
 10
0.646042
 20
11.668056
 10
0.646042
 20
0.5
 10
25.312708
 20
0.5
  0
HATCH
  5
77
102
{ACAD_REACTORS
330
74
102
}
100
AcDbEntity
  8
SPACE
 62
    22
100
AcDbHatch
 10
0.0
 20
0.0
 30
0.0
210
0.0
220
0.0
230
1.0
  2
SOLID
 70
     1
 71
     1
 91
        1
 92
        3
 72
     0
 73
     1
 93
        4
 10
25.3127082467447408
 20
11.6680555439139688
 10
0.646041617165757
 20
11.6680555439139688
 10
0.646041617165757
 20
0.5000000211927613
 10
25.3127082467447408
 20
0.5000000211927613
 97
        1
330
76
 75
     0
 76
     1
 98
        0
  0
MTEXT
  5
78
100
AcDbEntity
  8
SPACE
100
AcDbMText
 10
14.580764
 20
6.392421
 30
0.0
 40
0.500004
 41
3.284793
 71
     5
 72
     5
  1
\C7;\fCalibri|b0|i0|;\H0.50000381469727;Garage\P275 sq. ft.\P\P
  0
LINE
  5
7A
102
{ACAD_REACTORS
330
7E
102
}
100
AcDbEntity
  8
SPACE
  6
CONTINUOUS
100
AcDbLine
 10
12.658888
 20
24.168056
 30
0.0
 11
0.646042
 21
24.168056
 31
0.0
  0
LINE
  5
7B
102
{ACAD_REACTORS
330
7E
102
}
100
AcDbEntity
  8
SPACE
  6
CONTINUOUS
100
AcDbLine
 10
0.646042
 20
24.168056
 30
0.0
 11
0.646042
 21
12.001389
 31
0.0
  0
LINE
  5
7C
102
{ACAD_REACTORS
330
7E
102
}
100
AcDbEntity
  8
SPACE
  6
CONTINUOUS
100
AcDbLine
 10
0.646042
 20
12.001389
 30
0.0
 11
12.658889
 21
12.001389
 31
0.0
  0
LINE
  5
7D
102
{ACAD_REACTORS
330
7E
102
}
100
AcDbEntity
  8
SPACE
  6
CONTINUOUS
100
AcDbLine
 10
12.658889
 20
12.001389
 30
0.0
 11
12.658889
 21
24.168056
 31
0.0
  0
HATCH
  5
7E
102
{ACAD_REACTORS
330
79
102
}
100
AcDbEntity
  8
SPACE
 62
    10
100
AcDbHatch
 10
0.0
 20
0.0
 30
0.0
210
0.0
220
0.0
230
1.0
  2
SOLID
 70
     1
 71
     1
 91
        1
 92
        1
 93
        5
 72
     1
 10
12.6588882089033152
 20
24.1680555322724615
 11
0.6460415800784258
 21
24.1680555322724615
 72
     1
 10
0.6460415800784258
 20
24.1680555322724615
 11
0.6460415800784258
 21
12.0013888772473507
 72
     1
 10
0.6460415800784258
 20
12.0013888772473507
 11
12.6588888028099493
 21
12.0013888772473507
 72
     1
 10
12.6588888028099493
 20
12.0013888772473507
 11
12.6588888028099493
 21
24.168055543914015
 72
     1
 10
12.6588888028099493
 20
24.168055543914015
 11
12.6588882089033152
 21
24.1680555322724615
 97
        4
330
7A
330
7B
330
7C
330
7D
 75
     0
 76
     1
 98
        0
  0
MTEXT
  5
7F
100
AcDbEntity
  8
SPACE
100
AcDbMText
 10
5.580764
 20
18.642421
 30
0.0
 40
0.500004
 41
3.284793
 71
     5
 72
     5
  1
\C7;\fCalibri|b0|i0|;\H0.50000381469727;Bedroom\P146 sq. ft.\P\P
  0
LWPOLYLINE
  5
81
102
{ACAD_REACTORS
330
82
102
}
100
AcDbEntity
  8
SPACE
  6
CONTINUOUS
100
AcDbPolyline
 90
        6
 70
     1
 10
17.080764
 20
23.32691
 10
16.74743
 20
23.32691
 10
12.992222
 20
23.32691
 10
12.992222
 20
12.001389
 10
25.312708
 20
12.001389
 10
25.312708
 20
23.32691
  0
HATCH
  5
82
102
{ACAD_REACTORS
330
80
102
}
100
AcDbEntity
  8
SPACE
 62
    94
100
AcDbHatch
 10
0.0
 20
0.0
 30
0.0
210
0.0
220
0.0
230
1.0
  2
SOLID
 70
     1
 71
     1
 91
        1
 92
        3
 72
     0
 73
     1
 93
        6
 10
17.0807637860024748
 20
23.3269097211429681
 10
16.7474304526691391
 20
23.3269097211429681
 10
12.9922221361432868
 20
23.3269097211429681
 10
12.9922221361432868
 20
12.0013888772473507
 10
25.3127082467450926
 20
12.0013888772473507
 10
25.3127082467450926
 20
23.3269097211429681
 97
        1
330
81
 75
     0
 76
     1
 98
        0
  0
MTEXT
  5
83
100
AcDbEntity
  8
SPACE
100
AcDbMText
 10
19.580764
 20
17.892421
 30
0.0
 40
0.500004
 41
4.599277
 71
     5
 72
     5
  1
\C7;\fCalibri|b0|i0|;\H0.50000381469727;Drawing Room\P140 sq. ft.\P\P
  0
LWPOLYLINE
  5
85
102
{ACAD_REACTORS
330
86
102
}
100
AcDbEntity
  8
SPACE
  6
CONTINUOUS
100
AcDbPolyline
 90
        4
 70
     1
 10
17.080764
 20
23.660243
 10
25.312708
 20
23.660243
 10
25.312708
 20
33.168707
 10
17.080764
 20
33.168707
  0
HATCH
  5
86
102
{ACAD_REACTORS
330
84
102
}
100
AcDbEntity
  8
SPACE
 62
    40
100
AcDbHatch
 10
0.0
 20
0.0
 30
0.0
210
0.0
220
0.0
230
1.0
  2
SOLID
 70
     1
 71
     1
 91
        1
 92
        3
 72
     0
 73
     1
 93
        4
 10
17.0807638023006447
 20
23.6602430555555578
 10
25.3127081880617375
 20
23.6602430555555578
 10
25.3127082467447906
 20
33.1687065985410499
 10
17.0807638023006447
 20
33.1687065985410499
 97
        1
330
85
 75
     0
 76
     1
 98
        0
  0
MTEXT
  5
87
100
AcDbEntity
  8
SPACE
100
AcDbMText
 10
21.580764
 20
27.892421
 30
0.0
 40
0.500004
 41
2.946903
 71
     5
 72
     5
  1
\C7;\fCalibri|b0|i0|;\H0.50000381469727;Kitchen\P78 sq. ft.\P\P
  0
LWPOLYLINE
  5
89
102
{ACAD_REACTORS
330
8A
102
}
100
AcDbEntity
  8
SPACE
  6
CONTINUOUS
100
AcDbPolyline
 90
        6
 70
     1
 10
16.74743
 20
23.660243
 10
16.74743
 20
33.168707
 10
8.580764
 20
33.168707
 10
8.580764
 20
24.501389
 10
12.992222
 20
24.501389
 10
12.992222
 20
23.660243
  0
HATCH
  5
8A
102
{ACAD_REACTORS
330
88
102
}
100
AcDbEntity
  8
SPACE
 62
     6
100
AcDbHatch
 10
0.0
 20
0.0
 30
0.0
210
0.0
220
0.0
230
1.0
  2
SOLID
 70
     1
 71
     1
 91
        1
 92
        3
 72
     0
 73
     1
 93
        6
 10
16.7474304526691711
 20
23.660243054476247
 10
16.7474304526691711
 20
33.1687065961428971
 10
8.5807638023006465
 20
33.1687065985410285
 10
8.5807638023006465
 20
24.5013888656057794
 10
12.9922215422366243
 20
24.5013888656058363
 10
12.9922221361432442
 20
23.660243054476247
 97
        1
330
89
 75
     0
 76
     1
 98
        0
  0
MTEXT
  5
8B
100
AcDbEntity
  8
SPACE
100
AcDbMText
 10
12.580764
 20
28.892421
 30
0.0
 40
0.500004
 41
2.946903
 71
     5
 72
     5
  1
\C7;\fCalibri|b0|i0|;\H0.50000381469727;Lobby\P74 sq. ft.\P\P
  0
LWPOLYLINE
  5
8D
102
{ACAD_REACTORS
330
8E
102
}
100
AcDbEntity
  8
SPACE
  6
CONTINUOUS
100
AcDbPolyline
 90
        4
 70
     1
 10
8.24743
 20
28.832986
 10
8.24743
 20
33.168707
 10
0.646042
 20
33.168707
 10
0.646042
 20
28.832986
  0
HATCH
  5
8E
102
{ACAD_REACTORS
330
8C
102
}
100
AcDbEntity
  8
SPACE
 62
     5
100
AcDbHatch
 10
0.0
 20
0.0
 30
0.0
210
0.0
220
0.0
230
1.0
  2
SOLID
 70
     1
 71
     1
 91
        1
 92
        3
 72
     0
 73
     1
 93
        4
 10
8.2474304689673446
 20
28.8329861122509534
 10
8.2474304689673446
 20
33.1687065739391045
 10
0.6460415800784258
 20
33.1687065985410285
 10
0.6460415800784258
 20
28.8329861122509534
 97
        1
330
8D
 75
     0
 76
     1
 98
        0
  0
MTEXT
  5
8F
100
AcDbEntity
  8
SPACE
100
AcDbMText
 10
3.830764
 20
30.642421
 30
0.0
 40
0.500004
 41
3.319019
 71
     5
 72
     5
  1
\C7;\fCalibri|b0|i0|;\H0.50000381469727;Bathroom\P33 sq. ft.\P\P
  0
LINE
  5
91
102
{ACAD_REACTORS
330
95
102
}
100
AcDbEntity
  8
SPACE
  6
CONTINUOUS
100
AcDbLine
 10
12.647466
 20
45.166667
 30
0.0
 11
0.646042
 21
45.166667
 31
0.0
  0
LINE
  5
92
102
{ACAD_REACTORS
330
95
102
}
100
AcDbEntity
  8
SPACE
  6
CONTINUOUS
100
AcDbLine
 10
0.646042
 20
45.166667
 30
0.0
 11
0.646042
 21
33.50204
 31
0.0
  0
LINE
  5
93
102
{ACAD_REACTORS
330
95
102
}
100
AcDbEntity
  8
SPACE
  6
CONTINUOUS
100
AcDbLine
 10
0.646042
 20
33.50204
 30
0.0
 11
12.647466
 21
33.50204
 31
0.0
  0
LINE
  5
94
102
{ACAD_REACTORS
330
95
102
}
100
AcDbEntity
  8
SPACE
  6
CONTINUOUS
100
AcDbLine
 10
12.647466
 20
33.50204
 30
0.0
 11
12.647466
 21
45.166667
 31
0.0
  0
HATCH
  5
95
102
{ACAD_REACTORS
330
90
102
}
100
AcDbEntity
  8
SPACE
 62
    10
100
AcDbHatch
 10
0.0
 20
0.0
 30
0.0
210
0.0
220
0.0
230
1.0
  2
SOLID
 70
     1
 71
     1
 91
        1
 92
        1
 93
        5
 72
     1
 10
12.6474663181279112
 20
45.1666666666666856
 11
0.6460415800784258
 21
45.1666666666666856
 72
     1
 10
0.6460415800784258
 20
45.1666666666666856
 11
0.6460415800784258
 21
33.5020399318743571
 72
     1
 10
0.6460415800784258
 20
33.5020399318743571
 11
12.6474663181279112
 21
33.5020399318743571
 72
     1
 10
12.6474663181279112
 20
33.5020399318743571
 11
12.6474663181279112
 21
45.1666670070696696
 72
     1
 10
12.6474663181279112
 20
45.1666670070696696
 11
12.6474663181279112
 21
45.1666666666666856
 97
        4
330
91
330
92
330
93
330
94
 75
     0
 76
     1
 98
        0
  0
MTEXT
  5
96
100
AcDbEntity
  8
SPACE
100
AcDbMText
 10
6.646754
 20
40.974876
 30
0.0
 40
0.500004
 41
3.284793
 71
     5
 72
     5
  1
\C7;\fCalibri|b0|i0|;\H0.50000381469727;Bedroom\P140 sq. ft.\P\P
  0
LINE
  5
98
102
{ACAD_REACTORS
330
9C
102
}
100
AcDbEntity
  8
SPACE
  6
CONTINUOUS
100
AcDbLine
 10
12.9808
 20
45.166667
 30
0.0
 11
12.9808
 21
33.50204
 31
0.0
  0
LINE
  5
99
102
{ACAD_REACTORS
330
9C
102
}
100
AcDbEntity
  8
SPACE
  6
CONTINUOUS
100
AcDbLine
 10
12.9808
 20
33.50204
 30
0.0
 11
25.312708
 21
33.50204
 31
0.0
  0
LINE
  5
9A
102
{ACAD_REACTORS
330
9C
102
}
100
AcDbEntity
  8
SPACE
  6
CONTINUOUS
100
AcDbLine
 10
25.312708
 20
33.50204
 30
0.0
 11
25.312708
 21
45.166667
 31
0.0
  0
LINE
  5
9B
102
{ACAD_REACTORS
330
9C
102
}
100
AcDbEntity
  8
SPACE
  6
CONTINUOUS
100
AcDbLine
 10
25.312708
 20
45.166667
 30
0.0
 11
12.9808
 21
45.166667
 31
0.0
  0
HATCH
  5
9C
102
{ACAD_REACTORS
330
97
102
}
100
AcDbEntity
  8
SPACE
 62
    10
100
AcDbHatch
 10
0.0
 20
0.0
 30
0.0
210
0.0
220
0.0
230
1.0
  2
SOLID
 70
     1
 71
     1
 91
        1
 92
        1
 93
        5
 72
     1
 10
12.9807996514612398
 20
45.1666670070696696
 11
12.9807996514612398
 21
33.5020399318743571
 72
     1
 10
12.9807996514612398
 20
33.5020399318743571
 11
25.3127082467450961
 21
33.5020399318743571
 72
     1
 10
25.3127082467450961
 20
33.5020399318743571
 11
25.3127082467450961
 21
45.1666666666666927
 72
     1
 10
25.3127082467450961
 20
45.1666666666666927
 11
12.9807996514612398
 21
45.1666666666666927
 72
     1
 10
12.9807996514612398
 20
45.1666666666666927
 11
12.9807996514612398
 21
45.1666670070696696
 97
        4
330
98
330
99
330
9A
330
9B
 75
     0
 76
     1
 98
        0
  0
MTEXT
  5
9D
100
AcDbEntity
  8
SPACE
100
AcDbMText
 10
19.146754
 20
40.974876
 30
0.0
 40
0.500004
 41
3.284793
 71
     5
 72
     5
  1
\C7;\fCalibri|b0|i0|;\H0.50000381469727;Bedroom\P144 sq. ft.\P\P
  0
LWPOLYLINE
  5
9F
102
{ACAD_REACTORS
330
A0
102
}
100
AcDbEntity
  8
SPACE
  6
CONTINUOUS
100
AcDbPolyline
 90
        4
 70
     1
 10
8.247431
 20
28.499653
 10
0.646042
 20
28.499653
 10
0.646042
 20
24.501389
 10
8.24743
 20
24.501389
  0
HATCH
  5
A0
102
{ACAD_REACTORS
330
9E
102
}
100
AcDbEntity
  8
SPACE
 62
     5
100
AcDbHatch
 10
0.0
 20
0.0
 30
0.0
210
0.0
220
0.0
230
1.0
  2
SOLID
 70
     1
 71
     1
 91
        1
 92
        3
 72
     0
 73
     1
 93
        4
 10
8.2474305113526647
 20
28.4996527789177421
 10
0.6460416171657624
 20
28.4996527789177421
 10
0.6460416171657624
 20
24.50138888888889
 10
8.2474304689673197
 20
24.50138888888889
 97
        1
330
9F
 75
     0
 76
     1
 98
        0
  0
MTEXT
  5
A1
100
AcDbEntity
  8
SPACE
100
AcDbMText
 10
4.080764
 20
25.892421
 30
0.0
 40
0.500004
 41
3.319019
 71
     5
 72
     5
  1
\C7;\fCalibri|b0|i0|;\H0.50000381469727;Bathroom\P30 sq. ft.\P\P
  0
LWPOLYLINE
  5
A4
102
{ACAD_REACTORS
330
A5
102
}
100
AcDbEntity
  8
BUILDING_ENVELOPE
  6
CONTINUOUS
 62
     7
100
AcDbPolyline
 90
        4
 70
     1
 10
0.646042
 20
45.166667
 10
0.646042
 20
0.5
 10
0.312708
 20
0.166667
 10
0.312708
 20
45.5
  0
HATCH
  5
A5
102
{ACAD_REACTORS
330
A2
102
}
100
AcDbEntity
  8
BUILDING_ENVELOPE
 62
     7
100
AcDbHatch
 10
0.0
 20
0.0
 30
0.0
210
0.0
220
0.0
230
1.0
  2
SOLID
 70
     1
 71
     1
 91
        1
 92
        3
 72
     0
 73
     1
 93
        4
 10
0.6460415800784258
 20
45.1666666666666643
 10
0.6460415800784258
 20
0.5
 10
0.3127082467450925
 20
0.1666666666666667
 10
0.3127082467450925
 20
45.5
 97
        1
330
A4
 75
     0
 76
     1
 98
        0
  0
LINE
  5
A6
102
{ACAD_REACTORS
330
A2
102
}
100
AcDbEntity
  8
BUILDING_ENVELOPE
  6
CONTINUOUS
 62
     7
100
AcDbLine
 10
0.646042
 20
45.166667
 30
0.0
 11
0.646042
 21
0.5
 31
0.0
  0
LINE
  5
A7
102
{ACAD_REACTORS
330
A2
102
}
100
AcDbEntity
  8
BUILDING_ENVELOPE
  6
CONTINUOUS
 62
     7
100
AcDbLine
 10
0.312708
 20
45.5
 30
0.0
 11
0.312708
 21
0.166667
 31
0.0
  0
LWPOLYLINE
  5
A9
102
{ACAD_REACTORS
330
AA
102
}
100
AcDbEntity
  8
BUILDING_ENVELOPE
  6
CONTINUOUS
 62
     7
100
AcDbPolyline
 90
        4
 70
     1
 10
25.646042
 20
45.5
 10
25.646042
 20
0.166667
 10
25.312708
 20
0.5
 10
25.312708
 20
45.166667
  0
HATCH
  5
AA
102
{ACAD_REACTORS
330
A8
102
}
100
AcDbEntity
  8
BUILDING_ENVELOPE
 62
     7
100
AcDbHatch
 10
0.0
 20
0.0
 30
0.0
210
0.0
220
0.0
230
1.0
  2
SOLID
 70
     1
 71
     1
 91
        1
 92
        3
 72
     0
 73
     1
 93
        4
 10
25.6460415800784247
 20
45.5000000000000355
 10
25.6460415800784247
 20
0.1666666666667045
 10
25.3127082467450926
 20
0.5000000000000379
 10
25.3127082467450926
 20
45.1666666666666998
 97
        1
330
A9
 75
     0
 76
     1
 98
        0
  0
LINE
  5
AB
102
{ACAD_REACTORS
330
A8
102
}
100
AcDbEntity
  8
BUILDING_ENVELOPE
  6
CONTINUOUS
 62
     7
100
AcDbLine
 10
25.646042
 20
45.5
 30
0.0
 11
25.646042
 21
0.166667
 31
0.0
  0
LINE
  5
AC
102
{ACAD_REACTORS
330
A8
102
}
100
AcDbEntity
  8
BUILDING_ENVELOPE
  6
CONTINUOUS
 62
     7
100
AcDbLine
 10
25.312708
 20
45.166667
 30
0.0
 11
25.312708
 21
0.5
 31
0.0
  0
LWPOLYLINE
  5
AE
102
{ACAD_REACTORS
330
AF
102
}
100
AcDbEntity
  8
BUILDING_ENVELOPE
  6
CONTINUOUS
 62
     7
100
AcDbPolyline
 90
        4
 70
     1
 10
0.312708
 20
45.5
 10
25.646042
 20
45.5
 10
25.312708
 20
45.166667
 10
0.646042
 20
45.166667
  0
HATCH
  5
AF
102
{ACAD_REACTORS
330
AD
102
}
100
AcDbEntity
  8
BUILDING_ENVELOPE
 62
     7
100
AcDbHatch
 10
0.0
 20
0.0
 30
0.0
210
0.0
220
0.0
230
1.0
  2
SOLID
 70
     1
 71
     1
 91
        1
 92
        3
 72
     0
 73
     1
 93
        4
 10
0.3127082467450889
 20
45.5
 10
25.6460415800784247
 20
45.5
 10
25.3127082467450926
 20
45.1666666666666643
 10
0.6460415800784247
 20
45.1666666666666643
 97
        1
330
AE
 75
     0
 76
     1
 98
        0
  0
LINE
  5
B0
102
{ACAD_REACTORS
330
AD
102
}
100
AcDbEntity
  8
BUILDING_ENVELOPE
  6
CONTINUOUS
 62
     7
100
AcDbLine
 10
0.312708
 20
45.5
 30
0.0
 11
25.646042
 21
45.5
 31
0.0
  0
LINE
  5
B1
102
{ACAD_REACTORS
330
AD
102
}
100
AcDbEntity
  8
BUILDING_ENVELOPE
  6
CONTINUOUS
 62
     7
100
AcDbLine
 10
0.646042
 20
45.166667
 30
0.0
 11
25.312708
 21
45.166667
 31
0.0
  0
LWPOLYLINE
  5
B3
102
{ACAD_REACTORS
330
B4
102
}
100
AcDbEntity
  8
BUILDING_ENVELOPE
  6
CONTINUOUS
 62
     7
100
AcDbPolyline
 90
        4
 70
     1
 10
0.646042
 20
0.5
 10
25.312708
 20
0.5
 10
25.646042
 20
0.166667
 10
0.312708
 20
0.166667
  0
HATCH
  5
B4
102
{ACAD_REACTORS
330
B2
102
}
100
AcDbEntity
  8
BUILDING_ENVELOPE
 62
     7
100
AcDbHatch
 10
0.0
 20
0.0
 30
0.0
210
0.0
220
0.0
230
1.0
  2
SOLID
 70
     1
 71
     1
 91
        1
 92
        3
 72
     0
 73
     1
 93
        4
 10
0.6460415800784201
 20
0.5
 10
25.3127082467450926
 20
0.5
 10
25.6460415800784247
 20
0.1666666666666667
 10
0.3127082467450913
 20
0.1666666666666667
 97
        1
330
B3
 75
     0
 76
     1
 98
        0
  0
LINE
  5
B5
102
{ACAD_REACTORS
330
B2
102
}
100
AcDbEntity
  8
BUILDING_ENVELOPE
  6
CONTINUOUS
 62
     7
100
AcDbLine
 10
0.646042
 20
0.5
 30
0.0
 11
25.312708
 21
0.5
 31
0.0
  0
LINE
  5
B6
102
{ACAD_REACTORS
330
B2
102
}
100
AcDbEntity
  8
BUILDING_ENVELOPE
  6
CONTINUOUS
 62
     7
100
AcDbLine
 10
0.312708
 20
0.166667
 30
0.0
 11
25.646042
 21
0.166667
 31
0.0
  0
LWPOLYLINE
  5
B8
102
{ACAD_REACTORS
330
B9
102
}
100
AcDbEntity
  8
BUILDING_ENVELOPE
  6
CONTINUOUS
 62
     7
100
AcDbPolyline
 90
        4
 70
     1
 10
0.646042
 20
33.50204
 10
25.312708
 20
33.50204
 10
25.312708
 20
33.168707
 10
0.646042
 20
33.168707
  0
HATCH
  5
B9
102
{ACAD_REACTORS
330
B7
102
}
100
AcDbEntity
  8
BUILDING_ENVELOPE
 62
     7
100
AcDbHatch
 10
0.0
 20
0.0
 30
0.0
210
0.0
220
0.0
230
1.0
  2
SOLID
 70
     1
 71
     1
 91
        1
 92
        3
 72
     0
 73
     1
 93
        4
 10
0.6460415800784212
 20
33.5020399318743642
 10
25.3127082467450926
 20
33.5020399318743642
 10
25.3127082467450926
 20
33.1687065985410356
 10
0.6460415800784247
 20
33.1687065985410356
 97
        1
330
B8
 75
     0
 76
     1
 98
        0
  0
LWPOLYLINE
  5
BA
102
{ACAD_REACTORS
330
BB
102
}
100
AcDbEntity
  8
BUILDING_ENVELOPE
  6
CONTINUOUS
 62
     7
100
AcDbPolyline
 90
        4
 70
     1
 10
0.646042
 20
33.168707
 10
0.646042
 20
33.50204
 10
0.612708
 20
33.50204
 10
0.612708
 20
33.168707
  0
HATCH
  5
BB
102
{ACAD_REACTORS
330
B7
102
}
100
AcDbEntity
  8
BUILDING_ENVELOPE
 62
     7
100
AcDbHatch
 10
0.0
 20
0.0
 30
0.0
210
0.0
220
0.0
230
1.0
  2
SOLID
 70
     1
 71
     1
 91
        1
 92
        3
 72
     0
 73
     1
 93
        4
 10
0.6460415800784229
 20
33.1687065985410356
 10
0.6460415800784229
 20
33.5020399318743642
 10
0.6127082467450896
 20
33.5020399318743642
 10
0.6127082467450896
 20
33.1687065985410356
 97
        1
330
BA
 75
     0
 76
     1
 98
        0
  0
LWPOLYLINE
  5
BC
102
{ACAD_REACTORS
330
BD
102
}
100
AcDbEntity
  8
BUILDING_ENVELOPE
  6
CONTINUOUS
 62
     7
100
AcDbPolyline
 90
        4
 70
     1
 10
25.312708
 20
33.50204
 10
25.312708
 20
33.168707
 10
25.346042
 20
33.168707
 10
25.346042
 20
33.50204
  0
HATCH
  5
BD
102
{ACAD_REACTORS
330
B7
102
}
100
AcDbEntity
  8
BUILDING_ENVELOPE
 62
     7
100
AcDbHatch
 10
0.0
 20
0.0
 30
0.0
210
0.0
220
0.0
230
1.0
  2
SOLID
 70
     1
 71
     1
 91
        1
 92
        3
 72
     0
 73
     1
 93
        4
 10
25.3127082467450926
 20
33.5020399318743642
 10
25.3127082467450926
 20
33.1687065985410356
 10
25.346041580078424
 20
33.1687065985410356
 10
25.346041580078424
 20
33.5020399318743642
 97
        1
330
BC
 75
     0
 76
     1
 98
        0
  0
LINE
  5
BE
102
{ACAD_REACTORS
330
B7
102
}
100
AcDbEntity
  8
BUILDING_ENVELOPE
  6
CONTINUOUS
 62
     7
100
AcDbLine
 10
0.646042
 20
33.50204
 30
0.0
 11
25.312708
 21
33.50204
 31
0.0
  0
LINE
  5
BF
102
{ACAD_REACTORS
330
B7
102
}
100
AcDbEntity
  8
BUILDING_ENVELOPE
  6
CONTINUOUS
 62
     7
100
AcDbLine
 10
0.646042
 20
33.168707
 30
0.0
 11
25.312708
 21
33.168707
 31
0.0
  0
LWPOLYLINE
  5
C1
102
{ACAD_REACTORS
330
C2
102
}
100
AcDbEntity
  8
BUILDING_ENVELOPE
  6
CONTINUOUS
 62
     7
100
AcDbPolyline
 90
        4
 70
     1
 10
0.646042
 20
12.001389
 10
25.312708
 20
12.001389
 10
25.312708
 20
11.668056
 10
0.646042
 20
11.668056
  0
HATCH
  5
C2
102
{ACAD_REACTORS
330
C0
102
}
100
AcDbEntity
  8
BUILDING_ENVELOPE
 62
     7
100
AcDbHatch
 10
0.0
 20
0.0
 30
0.0
210
0.0
220
0.0
230
1.0
  2
SOLID
 70
     1
 71
     1
 91
        1
 92
        3
 72
     0
 73
     1
 93
        4
 10
0.6460415800784201
 20
12.0013888772473507
 10
25.3127082467450926
 20
12.0013888772473507
 10
25.3127082467450926
 20
11.6680555439140168
 10
0.6460415800784247
 20
11.6680555439140168
 97
        1
330
C1
 75
     0
 76
     1
 98
        0
  0
LWPOLYLINE
  5
C3
102
{ACAD_REACTORS
330
C4
102
}
100
AcDbEntity
  8
BUILDING_ENVELOPE
  6
CONTINUOUS
 62
     7
100
AcDbPolyline
 90
        4
 70
     1
 10
0.646042
 20
11.668056
 10
0.646042
 20
12.001389
 10
0.612708
 20
12.001389
 10
0.612708
 20
11.668056
  0
HATCH
  5
C4
102
{ACAD_REACTORS
330
C0
102
}
100
AcDbEntity
  8
BUILDING_ENVELOPE
 62
     7
100
AcDbHatch
 10
0.0
 20
0.0
 30
0.0
210
0.0
220
0.0
230
1.0
  2
SOLID
 70
     1
 71
     1
 91
        1
 92
        3
 72
     0
 73
     1
 93
        4
 10
0.6460415800784223
 20
11.6680555439140168
 10
0.6460415800784223
 20
12.0013888772473507
 10
0.6127082467450891
 20
12.0013888772473507
 10
0.6127082467450891
 20
11.6680555439140168
 97
        1
330
C3
 75
     0
 76
     1
 98
        0
  0
LWPOLYLINE
  5
C5
102
{ACAD_REACTORS
330
C6
102
}
100
AcDbEntity
  8
BUILDING_ENVELOPE
  6
CONTINUOUS
 62
     7
100
AcDbPolyline
 90
        4
 70
     1
 10
25.312708
 20
12.001389
 10
25.312708
 20
11.668056
 10
25.346042
 20
11.668056
 10
25.346042
 20
12.001389
  0
HATCH
  5
C6
102
{ACAD_REACTORS
330
C0
102
}
100
AcDbEntity
  8
BUILDING_ENVELOPE
 62
     7
100
AcDbHatch
 10
0.0
 20
0.0
 30
0.0
210
0.0
220
0.0
230
1.0
  2
SOLID
 70
     1
 71
     1
 91
        1
 92
        3
 72
     0
 73
     1
 93
        4
 10
25.3127082467450926
 20
12.0013888772473507
 10
25.3127082467450926
 20
11.6680555439140168
 10
25.346041580078424
 20
11.6680555439140168
 10
25.346041580078424
 20
12.0013888772473507
 97
        1
330
C5
 75
     0
 76
     1
 98
        0
  0
LINE
  5
C7
102
{ACAD_REACTORS
330
C0
102
}
100
AcDbEntity
  8
BUILDING_ENVELOPE
  6
CONTINUOUS
 62
     7
100
AcDbLine
 10
0.646042
 20
12.001389
 30
0.0
 11
25.312708
 21
12.001389
 31
0.0
  0
LINE
  5
C8
102
{ACAD_REACTORS
330
C0
102
}
100
AcDbEntity
  8
BUILDING_ENVELOPE
  6
CONTINUOUS
 62
     7
100
AcDbLine
 10
0.646042
 20
11.668056
 30
0.0
 11
25.312708
 21
11.668056
 31
0.0
  0
LWPOLYLINE
  5
CA
102
{ACAD_REACTORS
330
CB
102
}
100
AcDbEntity
  8
BUILDING_ENVELOPE
  6
CONTINUOUS
 62
     7
100
AcDbPolyline
 90
        4
 70
     1
 10
12.647466
 20
33.50204
 10
12.647466
 20
45.166667
 10
12.9808
 20
45.166667
 10
12.9808
 20
33.50204
  0
HATCH
  5
CB
102
{ACAD_REACTORS
330
C9
102
}
100
AcDbEntity
  8
BUILDING_ENVELOPE
 62
     7
100
AcDbHatch
 10
0.0
 20
0.0
 30
0.0
210
0.0
220
0.0
230
1.0
  2
SOLID
 70
     1
 71
     1
 91
        1
 92
        3
 72
     0
 73
     1
 93
        4
 10
12.6474663181279077
 20
33.5020399318743642
 10
12.6474663181279077
 20
45.1666666666666643
 10
12.9807996514612416
 20
45.1666666666666643
 10
12.9807996514612416
 20
33.5020399318743642
 97
        1
330
CA
 75
     0
 76
     1
 98
        0
  0
LWPOLYLINE
  5
CC
102
{ACAD_REACTORS
330
CD
102
}
100
AcDbEntity
  8
BUILDING_ENVELOPE
  6
CONTINUOUS
 62
     7
100
AcDbPolyline
 90
        4
 70
     1
 10
12.9808
 20
33.50204
 10
12.647466
 20
33.50204
 10
12.647466
 20
33.468707
 10
12.9808
 20
33.468707
  0
HATCH
  5
CD
102
{ACAD_REACTORS
330
C9
102
}
100
AcDbEntity
  8
BUILDING_ENVELOPE
 62
     7
100
AcDbHatch
 10
0.0
 20
0.0
 30
0.0
210
0.0
220
0.0
230
1.0
  2
SOLID
 70
     1
 71
     1
 91
        1
 92
        3
 72
     0
 73
     1
 93
        4
 10
12.9807996514612416
 20
33.5020399318743642
 10
12.6474663181279077
 20
33.5020399318743642
 10
12.6474663181279077
 20
33.4687065985410328
 10
12.9807996514612416
 20
33.4687065985410328
 97
        1
330
CC
 75
     0
 76
     1
 98
        0
  0
LWPOLYLINE
  5
CE
102
{ACAD_REACTORS
330
CF
102
}
100
AcDbEntity
  8
BUILDING_ENVELOPE
  6
CONTINUOUS
 62
     7
100
AcDbPolyline
 90
        4
 70
     1
 10
12.647466
 20
45.166667
 10
12.9808
 20
45.166667
 10
12.9808
 20
45.2
 10
12.647466
 20
45.2
  0
HATCH
  5
CF
102
{ACAD_REACTORS
330
C9
102
}
100
AcDbEntity
  8
BUILDING_ENVELOPE
 62
     7
100
AcDbHatch
 10
0.0
 20
0.0
 30
0.0
210
0.0
220
0.0
230
1.0
  2
SOLID
 70
     1
 71
     1
 91
        1
 92
        3
 72
     0
 73
     1
 93
        4
 10
12.6474663181279077
 20
45.1666666666666643
 10
12.9807996514612416
 20
45.1666666666666643
 10
12.9807996514612416
 20
45.2000000000000028
 10
12.6474663181279077
 20
45.2000000000000028
 97
        1
330
CE
 75
     0
 76
     1
 98
        0
  0
LINE
  5
D0
102
{ACAD_REACTORS
330
C9
102
}
100
AcDbEntity
  8
BUILDING_ENVELOPE
  6
CONTINUOUS
 62
     7
100
AcDbLine
 10
12.647466
 20
33.50204
 30
0.0
 11
12.647466
 21
45.166667
 31
0.0
  0
LINE
  5
D1
102
{ACAD_REACTORS
330
C9
102
}
100
AcDbEntity
  8
BUILDING_ENVELOPE
  6
CONTINUOUS
 62
     7
100
AcDbLine
 10
12.9808
 20
33.50204
 30
0.0
 11
12.9808
 21
45.166667
 31
0.0
  0
LWPOLYLINE
  5
D3
102
{ACAD_REACTORS
330
D4
102
}
100
AcDbEntity
  8
BUILDING_ENVELOPE
  6
CONTINUOUS
 62
     7
100
AcDbPolyline
 90
        4
 70
     1
 10
16.74743
 20
23.32691
 10
16.74743
 20
33.168707
 10
17.080764
 20
33.168707
 10
17.080764
 20
23.660243
  0
HATCH
  5
D4
102
{ACAD_REACTORS
330
D2
102
}
100
AcDbEntity
  8
BUILDING_ENVELOPE
 62
     7
100
AcDbHatch
 10
0.0
 20
0.0
 30
0.0
210
0.0
220
0.0
230
1.0
  2
SOLID
 70
     1
 71
     1
 91
        1
 92
        3
 72
     0
 73
     1
 93
        4
 10
16.747430452669164
 20
23.326909721142929
 10
16.747430452669164
 20
33.1687065985410356
 10
17.0807637860024997
 20
33.1687065985410428
 10
17.0807637860024997
 20
23.6602430544762683
 97
        1
330
D3
 75
     0
 76
     1
 98
        0
  0
LWPOLYLINE
  5
D5
102
{ACAD_REACTORS
330
D6
102
}
100
AcDbEntity
  8
BUILDING_ENVELOPE
  6
CONTINUOUS
 62
     7
100
AcDbPolyline
 90
        4
 70
     1
 10
16.74743
 20
33.168707
 10
17.080764
 20
33.168707
 10
17.080764
 20
33.20204
 10
16.74743
 20
33.20204
  0
HATCH
  5
D6
102
{ACAD_REACTORS
330
D2
102
}
100
AcDbEntity
  8
BUILDING_ENVELOPE
 62
     7
100
AcDbHatch
 10
0.0
 20
0.0
 30
0.0
210
0.0
220
0.0
230
1.0
  2
SOLID
 70
     1
 71
     1
 91
        1
 92
        3
 72
     0
 73
     1
 93
        4
 10
16.747430452669164
 20
33.1687065985410428
 10
17.0807637860024997
 20
33.1687065985410428
 10
17.0807637860024997
 20
33.2020399318743742
 10
16.747430452669164
 20
33.2020399318743742
 97
        1
330
D5
 75
     0
 76
     1
 98
        0
  0
LINE
  5
D7
102
{ACAD_REACTORS
330
D2
102
}
100
AcDbEntity
  8
BUILDING_ENVELOPE
  6
CONTINUOUS
 62
     7
100
AcDbLine
 10
16.74743
 20
23.32691
 30
0.0
 11
16.74743
 21
33.168707
 31
0.0
  0
LINE
  5
D8
102
{ACAD_REACTORS
330
D2
102
}
100
AcDbEntity
  8
BUILDING_ENVELOPE
  6
CONTINUOUS
 62
     7
100
AcDbLine
 10
17.080764
 20
23.660243
 30
0.0
 11
17.080764
 21
33.168707
 31
0.0
  0
LWPOLYLINE
  5
DA
102
{ACAD_REACTORS
330
DB
102
}
100
AcDbEntity
  8
BUILDING_ENVELOPE
  6
CONTINUOUS
 62
     7
100
AcDbPolyline
 90
        4
 70
     1
 10
12.658889
 20
12.001389
 10
12.658889
 20
24.168056
 10
12.992222
 20
24.501389
 10
12.992222
 20
12.001389
  0
HATCH
  5
DB
102
{ACAD_REACTORS
330
D9
102
}
100
AcDbEntity
  8
BUILDING_ENVELOPE
 62
     7
100
AcDbHatch
 10
0.0
 20
0.0
 30
0.0
210
0.0
220
0.0
230
1.0
  2
SOLID
 70
     1
 71
     1
 91
        1
 92
        3
 72
     0
 73
     1
 93
        4
 10
12.6588888028099582
 20
12.0013888772473436
 10
12.6588888028099582
 20
24.1680555322724118
 10
12.9922221361432921
 20
24.5013888656057475
 10
12.9922221361432921
 20
12.0013888772473472
 97
        1
330
DA
 75
     0
 76
     1
 98
        0
  0
LWPOLYLINE
  5
DC
102
{ACAD_REACTORS
330
DD
102
}
100
AcDbEntity
  8
BUILDING_ENVELOPE
  6
CONTINUOUS
 62
     7
100
AcDbPolyline
 90
        4
 70
     1
 10
12.992222
 20
12.001389
 10
12.658889
 20
12.001389
 10
12.658889
 20
11.968056
 10
12.992222
 20
11.968056
  0
HATCH
  5
DD
102
{ACAD_REACTORS
330
D9
102
}
100
AcDbEntity
  8
BUILDING_ENVELOPE
 62
     7
100
AcDbHatch
 10
0.0
 20
0.0
 30
0.0
210
0.0
220
0.0
230
1.0
  2
SOLID
 70
     1
 71
     1
 91
        1
 92
        3
 72
     0
 73
     1
 93
        4
 10
12.9922221361432921
 20
12.0013888772473454
 10
12.6588888028099582
 20
12.0013888772473454
 10
12.6588888028099582
 20
11.9680555439140122
 10
12.9922221361432921
 20
11.9680555439140122
 97
        1
330
DC
 75
     0
 76
     1
 98
        0
  0
LINE
  5
DE
102
{ACAD_REACTORS
330
D9
102
}
100
AcDbEntity
  8
BUILDING_ENVELOPE
  6
CONTINUOUS
 62
     7
100
AcDbLine
 10
12.658889
 20
12.001389
 30
0.0
 11
12.658889
 21
24.168056
 31
0.0
  0
LINE
  5
DF
102
{ACAD_REACTORS
330
D9
102
}
100
AcDbEntity
  8
BUILDING_ENVELOPE
  6
CONTINUOUS
 62
     7
100
AcDbLine
 10
12.992222
 20
12.001389
 30
0.0
 11
12.992222
 21
24.501389
 31
0.0
  0
LWPOLYLINE
  5
E1
102
{ACAD_REACTORS
330
E2
102
}
100
AcDbEntity
  8
BUILDING_ENVELOPE
  6
CONTINUOUS
 62
     7
100
AcDbPolyline
 90
        4
 70
     1
 10
17.080764
 20
23.660243
 10
25.312708
 20
23.660243
 10
25.312708
 20
23.32691
 10
16.74743
 20
23.32691
  0
HATCH
  5
E2
102
{ACAD_REACTORS
330
E0
102
}
100
AcDbEntity
  8
BUILDING_ENVELOPE
 62
     7
100
AcDbHatch
 10
0.0
 20
0.0
 30
0.0
210
0.0
220
0.0
230
1.0
  2
SOLID
 70
     1
 71
     1
 91
        1
 92
        3
 72
     0
 73
     1
 93
        4
 10
17.0807637860024997
 20
23.6602430544762825
 10
25.312708246745089
 20
23.6602430544762825
 10
25.3127082467450926
 20
23.3269097211429468
 10
16.7474304526691711
 20
23.3269097211429468
 97
        1
330
E1
 75
     0
 76
     1
 98
        0
  0
LWPOLYLINE
  5
E3
102
{ACAD_REACTORS
330
E4
102
}
100
AcDbEntity
  8
BUILDING_ENVELOPE
  6
CONTINUOUS
 62
     7
100
AcDbPolyline
 90
        4
 70
     1
 10
25.312708
 20
23.660243
 10
25.312708
 20
23.32691
 10
25.346042
 20
23.32691
 10
25.346042
 20
23.660243
  0
HATCH
  5
E4
102
{ACAD_REACTORS
330
E0
102
}
100
AcDbEntity
  8
BUILDING_ENVELOPE
 62
     7
100
AcDbHatch
 10
0.0
 20
0.0
 30
0.0
210
0.0
220
0.0
230
1.0
  2
SOLID
 70
     1
 71
     1
 91
        1
 92
        3
 72
     0
 73
     1
 93
        4
 10
25.3127082467450926
 20
23.6602430544762825
 10
25.3127082467450926
 20
23.3269097211429468
 10
25.346041580078424
 20
23.3269097211429468
 10
25.346041580078424
 20
23.6602430544762825
 97
        1
330
E3
 75
     0
 76
     1
 98
        0
  0
LINE
  5
E5
102
{ACAD_REACTORS
330
E0
102
}
100
AcDbEntity
  8
BUILDING_ENVELOPE
  6
CONTINUOUS
 62
     7
100
AcDbLine
 10
17.080764
 20
23.660243
 30
0.0
 11
25.312708
 21
23.660243
 31
0.0
  0
LINE
  5
E6
102
{ACAD_REACTORS
330
E0
102
}
100
AcDbEntity
  8
BUILDING_ENVELOPE
  6
CONTINUOUS
 62
     7
100
AcDbLine
 10
16.74743
 20
23.32691
 30
0.0
 11
25.312708
 21
23.32691
 31
0.0
  0
LWPOLYLINE
  5
E8
102
{ACAD_REACTORS
330
E9
102
}
100
AcDbEntity
  8
BUILDING_ENVELOPE
  6
CONTINUOUS
 62
     7
100
AcDbPolyline
 90
        4
 70
     1
 10
0.646042
 20
24.501389
 10
12.992222
 20
24.501389
 10
12.658889
 20
24.168056
 10
0.646042
 20
24.168056
  0
HATCH
  5
E9
102
{ACAD_REACTORS
330
E7
102
}
100
AcDbEntity
  8
BUILDING_ENVELOPE
 62
     7
100
AcDbHatch
 10
0.0
 20
0.0
 30
0.0
210
0.0
220
0.0
230
1.0
  2
SOLID
 70
     1
 71
     1
 91
        1
 92
        3
 72
     0
 73
     1
 93
        4
 10
0.6460415800784179
 20
24.5013888656057901
 10
12.9922221361432904
 20
24.5013888656057901
 10
12.6588888028099653
 20
24.1680555322724544
 10
0.6460415800784247
 20
24.1680555322724544
 97
        1
330
E8
 75
     0
 76
     1
 98
        0
  0
LWPOLYLINE
  5
EA
102
{ACAD_REACTORS
330
EB
102
}
100
AcDbEntity
  8
BUILDING_ENVELOPE
  6
CONTINUOUS
 62
     7
100
AcDbPolyline
 90
        4
 70
     1
 10
0.646042
 20
24.168056
 10
0.646042
 20
24.501389
 10
0.612708
 20
24.501389
 10
0.612708
 20
24.168056
  0
HATCH
  5
EB
102
{ACAD_REACTORS
330
E7
102
}
100
AcDbEntity
  8
BUILDING_ENVELOPE
 62
     7
100
AcDbHatch
 10
0.0
 20
0.0
 30
0.0
210
0.0
220
0.0
230
1.0
  2
SOLID
 70
     1
 71
     1
 91
        1
 92
        3
 72
     0
 73
     1
 93
        4
 10
0.6460415800784214
 20
24.1680555322724544
 10
0.6460415800784214
 20
24.5013888656057901
 10
0.6127082467450881
 20
24.5013888656057901
 10
0.6127082467450881
 20
24.1680555322724544
 97
        1
330
EA
 75
     0
 76
     1
 98
        0
  0
LINE
  5
EC
102
{ACAD_REACTORS
330
E7
102
}
100
AcDbEntity
  8
BUILDING_ENVELOPE
  6
CONTINUOUS
 62
     7
100
AcDbLine
 10
0.646042
 20
24.501389
 30
0.0
 11
12.992222
 21
24.501389
 31
0.0
  0
LINE
  5
ED
102
{ACAD_REACTORS
330
E7
102
}
100
AcDbEntity
  8
BUILDING_ENVELOPE
  6
CONTINUOUS
 62
     7
100
AcDbLine
 10
0.646042
 20
24.168056
 30
0.0
 11
12.658889
 21
24.168056
 31
0.0
  0
LWPOLYLINE
  5
EF
102
{ACAD_REACTORS
330
F0
102
}
100
AcDbEntity
  8
BUILDING_ENVELOPE
  6
CONTINUOUS
 62
     7
100
AcDbPolyline
 90
        4
 70
     1
 10
8.24743
 20
24.501389
 10
8.24743
 20
33.168707
 10
8.580764
 20
33.168707
 10
8.580764
 20
24.501389
  0
HATCH
  5
F0
102
{ACAD_REACTORS
330
EE
102
}
100
AcDbEntity
  8
BUILDING_ENVELOPE
 62
     7
100
AcDbHatch
 10
0.0
 20
0.0
 30
0.0
210
0.0
220
0.0
230
1.0
  2
SOLID
 70
     1
 71
     1
 91
        1
 92
        3
 72
     0
 73
     1
 93
        4
 10
8.2474304689673161
 20
24.5013888656057794
 10
8.2474304689673161
 20
33.1687065985410143
 10
8.5807638023006483
 20
33.1687065985410143
 10
8.5807638023006483
 20
24.5013888656057794
 97
        1
330
EF
 75
     0
 76
     1
 98
        0
  0
LWPOLYLINE
  5
F1
102
{ACAD_REACTORS
330
F2
102
}
100
AcDbEntity
  8
BUILDING_ENVELOPE
  6
CONTINUOUS
 62
     7
100
AcDbPolyline
 90
        4
 70
     1
 10
8.580764
 20
24.501389
 10
8.24743
 20
24.501389
 10
8.24743
 20
24.468056
 10
8.580764
 20
24.468056
  0
HATCH
  5
F2
102
{ACAD_REACTORS
330
EE
102
}
100
AcDbEntity
  8
BUILDING_ENVELOPE
 62
     7
100
AcDbHatch
 10
0.0
 20
0.0
 30
0.0
210
0.0
220
0.0
230
1.0
  2
SOLID
 70
     1
 71
     1
 91
        1
 92
        3
 72
     0
 73
     1
 93
        4
 10
8.5807638023006483
 20
24.5013888656057794
 10
8.2474304689673161
 20
24.5013888656057794
 10
8.2474304689673161
 20
24.4680555322724445
 10
8.5807638023006483
 20
24.4680555322724445
 97
        1
330
F1
 75
     0
 76
     1
 98
        0
  0
LWPOLYLINE
  5
F3
102
{ACAD_REACTORS
330
F4
102
}
100
AcDbEntity
  8
BUILDING_ENVELOPE
  6
CONTINUOUS
 62
     7
100
AcDbPolyline
 90
        4
 70
     1
 10
8.24743
 20
33.168707
 10
8.580764
 20
33.168707
 10
8.580764
 20
33.20204
 10
8.24743
 20
33.20204
  0
HATCH
  5
F4
102
{ACAD_REACTORS
330
EE
102
}
100
AcDbEntity
  8
BUILDING_ENVELOPE
 62
     7
100
AcDbHatch
 10
0.0
 20
0.0
 30
0.0
210
0.0
220
0.0
230
1.0
  2
SOLID
 70
     1
 71
     1
 91
        1
 92
        3
 72
     0
 73
     1
 93
        4
 10
8.2474304689673161
 20
33.1687065985410143
 10
8.5807638023006483
 20
33.1687065985410143
 10
8.5807638023006483
 20
33.2020399318743458
 10
8.2474304689673161
 20
33.2020399318743458
 97
        1
330
F3
 75
     0
 76
     1
 98
        0
  0
LINE
  5
F5
102
{ACAD_REACTORS
330
EE
102
}
100
AcDbEntity
  8
BUILDING_ENVELOPE
  6
CONTINUOUS
 62
     7
100
AcDbLine
 10
8.24743
 20
24.501389
 30
0.0
 11
8.24743
 21
33.168707
 31
0.0
  0
LINE
  5
F6
102
{ACAD_REACTORS
330
EE
102
}
100
AcDbEntity
  8
BUILDING_ENVELOPE
  6
CONTINUOUS
 62
     7
100
AcDbLine
 10
8.580764
 20
24.501389
 30
0.0
 11
8.580764
 21
33.168707
 31
0.0
  0
LWPOLYLINE
  5
F8
102
{ACAD_REACTORS
330
F9
102
}
100
AcDbEntity
  8
BUILDING_ENVELOPE
  6
CONTINUOUS
 62
     7
100
AcDbPolyline
 90
        4
 70
     1
 10
0.646042
 20
28.832986
 10
8.24743
 20
28.832986
 10
8.24743
 20
28.499653
 10
0.646042
 20
28.499653
  0
HATCH
  5
F9
102
{ACAD_REACTORS
330
F7
102
}
100
AcDbEntity
  8
BUILDING_ENVELOPE
 62
     7
100
AcDbHatch
 10
0.0
 20
0.0
 30
0.0
210
0.0
220
0.0
230
1.0
  2
SOLID
 70
     1
 71
     1
 91
        1
 92
        3
 72
     0
 73
     1
 93
        4
 10
0.6460415800784208
 20
28.8329861122509996
 10
8.2474304689673144
 20
28.8329861122509996
 10
8.2474304689673161
 20
28.4996527789176675
 10
0.646041580078427
 20
28.4996527789176675
 97
        1
330
F8
 75
     0
 76
     1
 98
        0
  0
LWPOLYLINE
  5
FA
102
{ACAD_REACTORS
330
FB
102
}
100
AcDbEntity
  8
BUILDING_ENVELOPE
  6
CONTINUOUS
 62
     7
100
AcDbPolyline
 90
        4
 70
     1
 10
0.646042
 20
28.499653
 10
0.646042
 20
28.832986
 10
0.612708
 20
28.832986
 10
0.612708
 20
28.499653
  0
HATCH
  5
FB
102
{ACAD_REACTORS
330
F7
102
}
100
AcDbEntity
  8
BUILDING_ENVELOPE
 62
     7
100
AcDbHatch
 10
0.0
 20
0.0
 30
0.0
210
0.0
220
0.0
230
1.0
  2
SOLID
 70
     1
 71
     1
 91
        1
 92
        3
 72
     0
 73
     1
 93
        4
 10
0.6460415800784239
 20
28.4996527789176675
 10
0.6460415800784239
 20
28.8329861122509996
 10
0.6127082467450906
 20
28.8329861122509996
 10
0.6127082467450906
 20
28.4996527789176675
 97
        1
330
FA
 75
     0
 76
     1
 98
        0
  0
LWPOLYLINE
  5
FC
102
{ACAD_REACTORS
330
FD
102
}
100
AcDbEntity
  8
BUILDING_ENVELOPE
  6
CONTINUOUS
 62
     7
100
AcDbPolyline
 90
        4
 70
     1
 10
8.24743
 20
28.832986
 10
8.24743
 20
28.499653
 10
8.280764
 20
28.499653
 10
8.280764
 20
28.832986
  0
HATCH
  5
FD
102
{ACAD_REACTORS
330
F7
102
}
100
AcDbEntity
  8
BUILDING_ENVELOPE
 62
     7
100
AcDbHatch
 10
0.0
 20
0.0
 30
0.0
210
0.0
220
0.0
230
1.0
  2
SOLID
 70
     1
 71
     1
 91
        1
 92
        3
 72
     0
 73
     1
 93
        4
 10
8.2474304689673161
 20
28.8329861122509996
 10
8.2474304689673161
 20
28.4996527789176675
 10
8.2807638023006493
 20
28.4996527789176675
 10
8.2807638023006493
 20
28.8329861122509996
 97
        1
330
FC
 75
     0
 76
     1
 98
        0
  0
LINE
  5
FE
102
{ACAD_REACTORS
330
F7
102
}
100
AcDbEntity
  8
BUILDING_ENVELOPE
  6
CONTINUOUS
 62
     7
100
AcDbLine
 10
0.646042
 20
28.832986
 30
0.0
 11
8.24743
 21
28.832986
 31
0.0
  0
LINE
  5
FF
102
{ACAD_REACTORS
330
F7
102
}
100
AcDbEntity
  8
BUILDING_ENVELOPE
  6
CONTINUOUS
 62
     7
100
AcDbLine
 10
0.646042
 20
28.499653
 30
0.0
 11
8.24743
 21
28.499653
 31
0.0
  0
LWPOLYLINE
  5
101
102
{ACAD_REACTORS
330
102
102
}
100
AcDbEntity
  8
BUILDING_ENVELOPE
  6
CONTINUOUS
 62
     9
100
AcDbPolyline
 90
        4
 70
     1
 10
9.112014
 20
7.444235
 10
8.276139
 20
7.444235
 10
8.276139
 20
11.676179
 10
9.112014
 20
11.676179
  0
HATCH
  5
102
102
{ACAD_REACTORS
330
100
102
}
100
AcDbEntity
  8
BUILDING_ENVELOPE
 62
   134
100
AcDbHatch
 10
0.0
 20
0.0
 30
0.0
210
0.0
220
0.0
230
1.0
  2
SOLID
 70
     1
 71
     1
 91
       33
 92
        3
 72
     0
 73
     1
 93
        4
 10
9.1120137934240901
 20
7.4442345780039689
 10
8.2761390807483473
 20
7.4442345780039689
 10
8.2761390807483473
 20
11.6761794763128819
 10
9.1120137934240901
 20
11.6761794763128819
 97
        1
330
101
 92
        3
 72
     0
 73
     1
 93
        4
 10
8.2761390807483473
 20
7.4442345780039689
 10
7.4402643680726062
 20
7.4442345780039689
 10
7.4402643680726062
 20
11.6761794763128819
 10
8.2761390807483473
 20
11.6761794763128819
 97
        1
330
103
 92
        3
 72
     0
 73
     1
 93
        4
 10
7.4402643680726062
 20
7.4442345780039689
 10
6.6043896553968651
 20
7.4442345780039689
 10
6.6043896553968651
 20
11.6761794763128819
 10
7.4402643680726062
 20
11.6761794763128819
 97
        1
330
104
 92
        3
 72
     0
 73
     1
 93
        4
 10
6.6043896553968651
 20
7.4442345780039689
 10
5.7685149427211231
 20
7.4442345780039689
 10
5.7685149427211231
 20
11.6761794763128819
 10
6.6043896553968651
 20
11.6761794763128819
 97
        1
330
105
 92
        3
 72
     0
 73
     1
 93
        4
 10
5.7685149427211231
 20
7.4442345780039689
 10
4.9326402300453802
 20
7.4442345780039689
 10
4.9326402300453802
 20
11.6761794763128819
 10
5.7685149427211231
 20
11.6761794763128819
 97
        1
330
106
 92
        3
 72
     0
 73
     1
 93
        4
 10
4.9326402300453802
 20
7.4442345780039689
 10
4.0967655173696382
 20
7.4442345780039689
 10
4.0967655173696382
 20
11.6761794763128819
 10
4.9326402300453802
 20
11.6761794763128819
 97
        1
330
107
 92
        3
 72
     0
 73
     1
 93
        4
 10
4.0967655173696382
 20
7.4442345780039689
 10
3.2608908046938958
 20
7.4442345780039689
 10
3.2608908046938958
 20
11.6761794763128819
 10
4.0967655173696382
 20
11.6761794763128819
 97
        1
330
108
 92
        3
 72
     0
 73
     1
 93
        4
 10
3.2608908046938958
 20
7.4442345780039689
 10
2.4250160920181543
 20
7.4442345780039689
 10
2.4250160920181543
 20
11.6761794763128819
 10
3.2608908046938958
 20
11.6761794763128819
 97
        1
330
109
 92
        3
 72
     0
 73
     1
 93
        4
 10
2.4250160920181543
 20
7.4442345780039689
 10
1.5891413793424125
 20
7.4442345780039689
 10
1.5891413793424125
 20
11.6761794763128819
 10
2.4250160920181543
 20
11.6761794763128819
 97
        1
330
10A
 92
        3
 72
     0
 73
     1
 93
        4
 10
1.5891413793424125
 20
7.4442345780039689
 10
0.7532666666666661
 20
7.4442345780039689
 10
0.7532666666666661
 20
11.6761794763128819
 10
1.5891413793424125
 20
11.6761794763128819
 97
        1
330
10B
 92
        0
 93
        0
 97
        0
 92
        0
 93
        0
 97
        0
 92
        0
 93
        0
 97
        0
 92
        0
 93
        0
 97
        0
 92
        0
 93
        0
 97
        0
 92
        0
 93
        0
 97
        0
 92
        0
 93
        0
 97
        0
 92
        0
 93
        0
 97
        0
 92
        0
 93
        0
 97
        0
 92
        0
 93
        0
 97
        0
 92
        0
 93
        0
 97
        0
 92
        0
 93
        0
 97
        0
 92
        0
 93
        0
 97
        0
 92
        0
 93
        0
 97
        0
 92
        0
 93
        0
 97
        0
 92
        0
 93
        0
 97
        0
 92
        0
 93
        0
 97
        0
 92
        0
 93
        0
 97
        0
 92
        0
 93
        0
 97
        0
 92
        0
 93
        0
 97
        0
 92
        0
 93
        0
 97
        0
 92
        0
 93
        0
 97
        0
 92
        0
 93
        0
 97
        0
 75
     0
 76
     1
 98
        0
  0
LWPOLYLINE
  5
103
102
{ACAD_REACTORS
330
102
102
}
100
AcDbEntity
  8
BUILDING_ENVELOPE
  6
CONTINUOUS
 62
     9
100
AcDbPolyline
 90
        4
 70
     1
 10
8.276139
 20
7.444235
 10
7.440264
 20
7.444235
 10
7.440264
 20
11.676179
 10
8.276139
 20
11.676179
  0
LWPOLYLINE
  5
104
102
{ACAD_REACTORS
330
102
102
}
100
AcDbEntity
  8
BUILDING_ENVELOPE
  6
CONTINUOUS
 62
     9
100
AcDbPolyline
 90
        4
 70
     1
 10
7.440264
 20
7.444235
 10
6.60439
 20
7.444235
 10
6.60439
 20
11.676179
 10
7.440264
 20
11.676179
  0
LWPOLYLINE
  5
105
102
{ACAD_REACTORS
330
102
102
}
100
AcDbEntity
  8
BUILDING_ENVELOPE
  6
CONTINUOUS
 62
     9
100
AcDbPolyline
 90
        4
 70
     1
 10
6.60439
 20
7.444235
 10
5.768515
 20
7.444235
 10
5.768515
 20
11.676179
 10
6.60439
 20
11.676179
  0
LWPOLYLINE
  5
106
102
{ACAD_REACTORS
330
102
102
}
100
AcDbEntity
  8
BUILDING_ENVELOPE
  6
CONTINUOUS
 62
     9
100
AcDbPolyline
 90
        4
 70
     1
 10
5.768515
 20
7.444235
 10
4.93264
 20
7.444235
 10
4.93264
 20
11.676179
 10
5.768515
 20
11.676179
  0
LWPOLYLINE
  5
107
102
{ACAD_REACTORS
330
102
102
}
100
AcDbEntity
  8
BUILDING_ENVELOPE
  6
CONTINUOUS
 62
     9
100
AcDbPolyline
 90
        4
 70
     1
 10
4.93264
 20
7.444235
 10
4.096766
 20
7.444235
 10
4.096766
 20
11.676179
 10
4.93264
 20
11.676179
  0
LWPOLYLINE
  5
108
102
{ACAD_REACTORS
330
102
102
}
100
AcDbEntity
  8
BUILDING_ENVELOPE
  6
CONTINUOUS
 62
     9
100
AcDbPolyline
 90
        4
 70
     1
 10
4.096766
 20
7.444235
 10
3.260891
 20
7.444235
 10
3.260891
 20
11.676179
 10
4.096766
 20
11.676179
  0
LWPOLYLINE
  5
109
102
{ACAD_REACTORS
330
102
102
}
100
AcDbEntity
  8
BUILDING_ENVELOPE
  6
CONTINUOUS
 62
     9
100
AcDbPolyline
 90
        4
 70
     1
 10
3.260891
 20
7.444235
 10
2.425016
 20
7.444235
 10
2.425016
 20
11.676179
 10
3.260891
 20
11.676179
  0
LWPOLYLINE
  5
10A
102
{ACAD_REACTORS
330
102
102
}
100
AcDbEntity
  8
BUILDING_ENVELOPE
  6
CONTINUOUS
 62
     9
100
AcDbPolyline
 90
        4
 70
     1
 10
2.425016
 20
7.444235
 10
1.589141
 20
7.444235
 10
1.589141
 20
11.676179
 10
2.425016
 20
11.676179
  0
LWPOLYLINE
  5
10B
102
{ACAD_REACTORS
330
102
102
}
100
AcDbEntity
  8
BUILDING_ENVELOPE
  6
CONTINUOUS
 62
     9
100
AcDbPolyline
 90
        4
 70
     1
 10
1.589141
 20
7.444235
 10
0.753267
 20
7.444235
 10
0.753267
 20
11.676179
 10
1.589141
 20
11.676179
  0
MTEXT
  5
10C
100
AcDbEntity
  8
BUILDING_ENVELOPE
100
AcDbMText
 10
9.488647
 20
9.560207
 30
0.0
 40
0.416668
 41
0.753267
 71
     5
 72
     5
  1
\C7;\fCalibri|b0|i0|;\H0.41666793823242;U\PP
  0
CIRCLE
  5
10E
102
{ACAD_REACTORS
330
10F
102
}
100
AcDbEntity
  8
STAIR
  6
CONTINUOUS
 62
     7
100
AcDbCircle
 10
9.112014
 20
9.560207
 30
0.0
 40
0.086804
  0
HATCH
  5
10F
102
{ACAD_REACTORS
330
100
102
}
100
AcDbEntity
  8
STAIR
 62
   134
100
AcDbHatch
 10
0.0
 20
0.0
 30
0.0
210
0.0
220
0.0
230
1.0
  2
SOLID
 70
     1
 71
     1
 91
        1
 92
        1
 93
        1
 72
     2
 10
9.1120137934240901
 20
9.560207027158425
 40
0.0868041666666667
 50
0.0
 51
360.0
 73
     1
 97
        1
330
10E
 75
     0
 76
     1
 98
        0
  0
LINE
  5
110
102
{ACAD_REACTORS
330
100
102
}
100
AcDbEntity
  8
STAIR
  6
CONTINUOUS
 62
     7
100
AcDbLine
 10
9.112014
 20
9.560207
 30
0.0
 11
6.803814
 21
9.560207
 31
0.0
  0
LWPOLYLINE
  5
111
102
{ACAD_REACTORS
330
112
102
}
100
AcDbEntity
  8
STAIR
  6
CONTINUOUS
 62
     7
100
AcDbPolyline
 90
        3
 70
     1
 10
7.016726
 20
9.687682
 10
7.016726
 20
9.432732
 10
6.590901
 20
9.562941
  0
HATCH
  5
112
102
{ACAD_REACTORS
330
100
102
}
100
AcDbEntity
  8
STAIR
 62
   134
100
AcDbHatch
 10
0.0
 20
0.0
 30
0.0
210
0.0
220
0.0
230
1.0
  2
SOLID
 70
     1
 71
     1
 91
        1
 92
        3
 72
     0
 73
     1
 93
        3
 10
7.0167262934240906
 20
9.6876820271584254
 10
7.0167262934240906
 20
9.4327320271584245
 10
6.5909012934240909
 20
9.5629414245026538
 97
        1
330
111
 75
     0
 76
     1
 98
        0
  0
LWPOLYLINE
  5
114
102
{ACAD_REACTORS
330
115
102
}
100
AcDbEntity
  8
BUILDING_ENVELOPE
  6
CONTINUOUS
 62
     7
100
AcDbPolyline
 90
        5
 70
     1
 10
12.992222
 20
23.660243
 10
17.080764
 20
23.660243
 10
17.080764
 20
23.493576
 10
17.080764
 20
23.32691
 10
12.992222
 20
23.32691
  0
HATCH
  5
115
102
{ACAD_REACTORS
330
113
102
}
100
AcDbEntity
  8
BUILDING_ENVELOPE
 62
     7
100
AcDbHatch
 10
0.0
 20
0.0
 30
0.0
210
0.0
220
0.0
230
1.0
  2
SOLID
 70
     1
 71
     1
 91
        1
 92
        3
 72
     0
 73
     1
 93
        5
 10
12.9922221361432975
 20
23.6602430544762719
 10
17.0807637860024997
 20
23.6602430544762719
 10
17.0807637860024997
 20
23.493576387809604
 10
17.0807637860024997
 20
23.3269097211429397
 10
12.9922221361432975
 20
23.3269097211429397
 97
        1
330
114
 75
     0
 76
     1
 98
        0
  0
LWPOLYLINE
  5
116
102
{ACAD_REACTORS
330
117
102
}
100
AcDbEntity
  8
BUILDING_ENVELOPE
  6
CONTINUOUS
 62
     7
100
AcDbPolyline
 90
        4
 70
     1
 10
12.992222
 20
23.32691
 10
12.992222
 20
23.660243
 10
12.958889
 20
23.660243
 10
12.958889
 20
23.32691
  0
HATCH
  5
117
102
{ACAD_REACTORS
330
113
102
}
100
AcDbEntity
  8
BUILDING_ENVELOPE
 62
     7
100
AcDbHatch
 10
0.0
 20
0.0
 30
0.0
210
0.0
220
0.0
230
1.0
  2
SOLID
 70
     1
 71
     1
 91
        1
 92
        3
 72
     0
 73
     1
 93
        4
 10
12.9922221361432975
 20
23.3269097211429397
 10
12.9922221361432975
 20
23.6602430544762719
 10
12.9588888028099625
 20
23.6602430544762719
 10
12.9588888028099625
 20
23.3269097211429397
 97
        1
330
116
 75
     0
 76
     1
 98
        0
  0
LWPOLYLINE
  5
118
102
{ACAD_REACTORS
330
113
102
}
100
AcDbEntity
  8
BUILDING_ENVELOPE
  6
CONTINUOUS
 62
     7
100
AcDbPolyline
 90
        3
 70
     0
 10
12.992222
 20
23.660243
 10
17.080764
 20
23.660243
 10
17.080764
 20
23.493576
  0
LWPOLYLINE
  5
119
102
{ACAD_REACTORS
330
113
102
}
100
AcDbEntity
  8
BUILDING_ENVELOPE
  6
CONTINUOUS
 62
     7
100
AcDbPolyline
 90
        3
 70
     0
 10
12.992222
 20
23.32691
 10
17.080764
 20
23.32691
 10
17.080764
 20
23.493576
  0
LWPOLYLINE
  5
11B
102
{ACAD_REACTORS
330
121
102
}
100
AcDbEntity
  8
BUILDING_ENVELOPE
  6
CONTINUOUS
 62
     7
100
AcDbPolyline
 90
        4
 70
     1
 10
15.045347
 20
0.158667
 10
24.080764
 20
0.158667
 10
24.080764
 20
0.508
 10
15.045347
 20
0.508
  0
LINE
  5
11C
102
{ACAD_REACTORS
330
121
102
}
100
AcDbEntity
  8
BUILDING_ENVELOPE
  6
CONTINUOUS
 62
     7
100
AcDbLine
 10
15.045347
 20
0.166667
 30
0.0
 11
15.045347
 21
0.5
 31
0.0
  0
LINE
  5
11D
102
{ACAD_REACTORS
330
121
102
}
100
AcDbEntity
  8
BUILDING_ENVELOPE
  6
CONTINUOUS
 62
     7
100
AcDbLine
 10
15.045347
 20
0.5
 30
0.0
 11
15.212014
 21
0.5
 31
0.0
  0
LINE
  5
11E
102
{ACAD_REACTORS
330
121
102
}
100
AcDbEntity
  8
BUILDING_ENVELOPE
  6
CONTINUOUS
 62
     7
100
AcDbLine
 10
15.212014
 20
0.5
 30
0.0
 11
15.212014
 21
0.416667
 31
0.0
  0
LINE
  5
11F
102
{ACAD_REACTORS
330
121
102
}
100
AcDbEntity
  8
BUILDING_ENVELOPE
  6
CONTINUOUS
 62
     7
100
AcDbLine
 10
15.212014
 20
0.25
 30
0.0
 11
15.212014
 21
0.166667
 31
0.0
  0
LINE
  5
120
102
{ACAD_REACTORS
330
121
102
}
100
AcDbEntity
  8
BUILDING_ENVELOPE
  6
CONTINUOUS
 62
     7
100
AcDbLine
 10
15.212014
 20
0.166667
 30
0.0
 11
15.045347
 21
0.166667
 31
0.0
  0
HATCH
  5
121
102
{ACAD_REACTORS
330
11A
102
}
100
AcDbEntity
  8
BUILDING_ENVELOPE
 62
     7
100
AcDbHatch
 10
0.0
 20
0.0
 30
0.0
210
0.0
220
0.0
230
1.0
  2
SOLID
 70
     1
 71
     1
 91
        2
 92
        1
 93
        6
 72
     1
 10
15.0453471044930147
 20
0.1666666666666923
 11
15.0453471044930147
 21
0.5000000000000255
 72
     1
 10
15.0453471044930147
 20
0.5000000000000255
 11
15.2120137711596826
 21
0.5000000000000255
 72
     1
 10
15.2120137711596826
 20
0.5000000000000255
 11
15.2120137711596826
 21
0.4166666666666923
 72
     1
 10
15.2120137711596826
 20
0.4166666666666923
 11
15.2120137711596826
 21
0.2500000000000256
 72
     1
 10
15.2120137711596826
 20
0.2500000000000256
 11
15.2120137711596826
 21
0.1666666666666923
 72
     1
 10
15.2120137711596826
 20
0.1666666666666923
 11
15.0453471044930147
 21
0.1666666666666923
 97
        6
330
11B
330
11C
330
11D
330
11E
330
11F
330
120
 92
        1
 93
        6
 72
     1
 10
24.080763802300666
 20
0.1666666666666923
 11
24.080763802300666
 21
0.5000000000000255
 72
     1
 10
24.080763802300666
 20
0.5000000000000255
 11
23.9140971356339982
 21
0.5000000000000255
 72
     1
 10
23.9140971356339982
 20
0.5000000000000255
 11
23.9140971356339982
 21
0.4166666666666923
 72
     1
 10
23.9140971356339982
 20
0.4166666666666923
 11
23.9140971356339982
 21
0.2500000000000256
 72
     1
 10
23.9140971356339982
 20
0.2500000000000256
 11
23.9140971356339982
 21
0.1666666666666923
 72
     1
 10
23.9140971356339982
 20
0.1666666666666923
 11
24.080763802300666
 21
0.1666666666666923
 97
        5
330
122
330
123
330
124
330
125
330
126
 75
     0
 76
     1
 98
        0
  0
LINE
  5
122
102
{ACAD_REACTORS
330
121
102
}
100
AcDbEntity
  8
BUILDING_ENVELOPE
  6
CONTINUOUS
 62
     7
100
AcDbLine
 10
24.080764
 20
0.166667
 30
0.0
 11
24.080764
 21
0.5
 31
0.0
  0
LINE
  5
123
102
{ACAD_REACTORS
330
121
102
}
100
AcDbEntity
  8
BUILDING_ENVELOPE
  6
CONTINUOUS
 62
     7
100
AcDbLine
 10
24.080764
 20
0.5
 30
0.0
 11
23.914097
 21
0.5
 31
0.0
  0
LINE
  5
124
102
{ACAD_REACTORS
330
121
102
}
100
AcDbEntity
  8
BUILDING_ENVELOPE
  6
CONTINUOUS
 62
     7
100
AcDbLine
 10
23.914097
 20
0.5
 30
0.0
 11
23.914097
 21
0.416667
 31
0.0
  0
LINE
  5
125
102
{ACAD_REACTORS
330
121
102
}
100
AcDbEntity
  8
BUILDING_ENVELOPE
  6
CONTINUOUS
 62
     7
100
AcDbLine
 10
23.914097
 20
0.25
 30
0.0
 11
23.914097
 21
0.166667
 31
0.0
  0
LINE
  5
126
102
{ACAD_REACTORS
330
121
102
}
100
AcDbEntity
  8
BUILDING_ENVELOPE
  6
CONTINUOUS
 62
     7
100
AcDbLine
 10
23.914097
 20
0.166667
 30
0.0
 11
24.080764
 21
0.166667
 31
0.0
  0
LWPOLYLINE
  5
127
102
{ACAD_REACTORS
330
128
102
}
100
AcDbEntity
  8
BUILDING_ENVELOPE
  6
CONTINUOUS
 62
     7
100
AcDbPolyline
 90
        4
 70
     1
 10
15.212014
 20
0.5
 10
15.37868
 20
0.5
 10
15.37868
 20
0.333333
 10
15.212014
 20
0.333333
  0
HATCH
  5
128
102
{ACAD_REACTORS
330
11A
102
}
100
AcDbEntity
  8
BUILDING_ENVELOPE
 62
     7
100
AcDbHatch
 10
0.0
 20
0.0
 30
0.0
210
0.0
220
0.0
230
1.0
  2
SOLID
 70
     1
 71
     1
 91
        2
 92
        3
 72
     0
 73
     1
 93
        4
 10
15.2120137711596826
 20
0.5000000000000255
 10
15.3786804378263486
 20
0.5000000000000255
 10
15.3786804378263486
 20
0.3333333333333589
 10
15.2120137711596826
 20
0.3333333333333589
 97
        1
330
127
 92
        3
 72
     0
 73
     1
 93
        4
 10
23.9140971356339982
 20
0.5000000000000255
 10
23.7474304689673303
 20
0.5000000000000255
 10
23.7474304689673303
 20
0.3333333333333589
 10
23.9140971356339982
 20
0.3333333333333589
 97
        1
330
129
 75
     0
 76
     1
 98
        0
  0
LWPOLYLINE
  5
129
102
{ACAD_REACTORS
330
128
102
}
100
AcDbEntity
  8
BUILDING_ENVELOPE
  6
CONTINUOUS
 62
     7
100
AcDbPolyline
 90
        4
 70
     1
 10
23.914097
 20
0.5
 10
23.74743
 20
0.5
 10
23.74743
 20
0.333333
 10
23.914097
 20
0.333333
  0
LINE
  5
12A
102
{ACAD_REACTORS
330
11A
102
}
100
AcDbEntity
  8
BUILDING_ENVELOPE
  6
CONTINUOUS
 62
     7
100
AcDbLine
 10
15.37868
 20
0.416667
 30
0.0
 11
23.74743
 21
0.416667
 31
0.0
  0
LINE
  5
12B
102
{ACAD_REACTORS
330
11A
102
}
100
AcDbEntity
  8
BUILDING_ENVELOPE
  6
CONTINUOUS
 62
     7
100
AcDbLine
 10
15.045347
 20
0.166667
 30
0.0
 11
15.045347
 21
0.5
 31
0.0
  0
LINE
  5
12C
102
{ACAD_REACTORS
330
11A
102
}
100
AcDbEntity
  8
BUILDING_ENVELOPE
  6
CONTINUOUS
 62
     7
100
AcDbLine
 10
24.080764
 20
0.166667
 30
0.0
 11
24.080764
 21
0.5
 31
0.0
  0
LWPOLYLINE
  5
12D
102
{ACAD_REACTORS
330
12E
102
}
100
AcDbEntity
  8
BUILDING_ENVELOPE
  6
CONTINUOUS
 62
     7
100
AcDbPolyline
 90
        4
 70
     1
 10
15.212014
 20
0.333333
 10
15.295347
 20
0.333333
 10
15.295347
 20
0.25
 10
15.212014
 20
0.25
  0
HATCH
  5
12E
102
{ACAD_REACTORS
330
11A
102
}
100
AcDbEntity
  8
BUILDING_ENVELOPE
 62
     7
100
AcDbHatch
 10
0.0
 20
0.0
 30
0.0
210
0.0
220
0.0
230
1.0
  2
SOLID
 70
     1
 71
     1
 91
        2
 92
        3
 72
     0
 73
     1
 93
        4
 10
15.2120137711596826
 20
0.3333333333333589
 10
15.2953471044930147
 20
0.3333333333333589
 10
15.2953471044930147
 20
0.2500000000000256
 10
15.2120137711596826
 20
0.2500000000000256
 97
        1
330
12D
 92
        3
 72
     0
 73
     1
 93
        4
 10
23.9140971356339982
 20
0.3333333333333589
 10
23.830763802300666
 20
0.3333333333333589
 10
23.830763802300666
 20
0.2500000000000256
 10
23.9140971356339982
 20
0.2500000000000256
 97
        1
330
12F
 75
     0
 76
     1
 98
        0
  0
LWPOLYLINE
  5
12F
102
{ACAD_REACTORS
330
12E
102
}
100
AcDbEntity
  8
BUILDING_ENVELOPE
  6
CONTINUOUS
 62
     7
100
AcDbPolyline
 90
        4
 70
     1
 10
23.914097
 20
0.333333
 10
23.830764
 20
0.333333
 10
23.830764
 20
0.25
 10
23.914097
 20
0.25
  0
LWPOLYLINE
  5
131
102
{ACAD_REACTORS
330
137
102
}
100
AcDbEntity
  8
BUILDING_ENVELOPE
  6
CONTINUOUS
 62
     7
100
AcDbPolyline
 90
        4
 70
     1
 10
8.588764
 20
26.251389
 10
8.588764
 20
28.397222
 10
8.23943
 20
28.397222
 10
8.23943
 20
26.251389
  0
LINE
  5
132
102
{ACAD_REACTORS
330
137
102
}
100
AcDbEntity
  8
BUILDING_ENVELOPE
  6
CONTINUOUS
 62
     7
100
AcDbLine
 10
8.580764
 20
28.397222
 30
0.0
 11
8.24743
 21
28.397222
 31
0.0
  0
LINE
  5
133
102
{ACAD_REACTORS
330
137
102
}
100
AcDbEntity
  8
BUILDING_ENVELOPE
  6
CONTINUOUS
 62
     7
100
AcDbLine
 10
8.24743
 20
28.397222
 30
0.0
 11
8.24743
 21
28.230556
 31
0.0
  0
LINE
  5
134
102
{ACAD_REACTORS
330
137
102
}
100
AcDbEntity
  8
BUILDING_ENVELOPE
  6
CONTINUOUS
 62
     7
100
AcDbLine
 10
8.24743
 20
28.230556
 30
0.0
 11
8.37243
 21
28.230556
 31
0.0
  0
LINE
  5
135
102
{ACAD_REACTORS
330
137
102
}
100
AcDbEntity
  8
BUILDING_ENVELOPE
  6
CONTINUOUS
 62
     7
100
AcDbLine
 10
8.49743
 20
28.230556
 30
0.0
 11
8.580764
 21
28.230556
 31
0.0
  0
LINE
  5
136
102
{ACAD_REACTORS
330
137
102
}
100
AcDbEntity
  8
BUILDING_ENVELOPE
  6
CONTINUOUS
 62
     7
100
AcDbLine
 10
8.580764
 20
28.230556
 30
0.0
 11
8.580764
 21
28.397222
 31
0.0
  0
HATCH
  5
137
102
{ACAD_REACTORS
330
130
102
}
100
AcDbEntity
  8
BUILDING_ENVELOPE
 62
     7
100
AcDbHatch
 10
0.0
 20
0.0
 30
0.0
210
0.0
220
0.0
230
1.0
  2
SOLID
 70
     1
 71
     1
 91
        2
 92
        1
 93
        6
 72
     1
 10
8.5807638023006483
 20
28.3972221974839201
 11
8.2474304689673161
 21
28.3972221974839201
 72
     1
 10
8.2474304689673161
 20
28.3972221974839201
 11
8.2474304689673161
 21
28.2305555308172558
 72
     1
 10
8.2474304689673161
 20
28.2305555308172558
 11
8.3724304689673161
 21
28.2305555308172558
 72
     1
 10
8.3724304689673161
 20
28.2305555308172558
 11
8.4974304689673161
 21
28.2305555308172558
 72
     1
 10
8.4974304689673161
 20
28.2305555308172558
 11
8.5807638023006483
 21
28.2305555308172558
 72
     1
 10
8.5807638023006483
 20
28.2305555308172558
 11
8.5807638023006483
 21
28.3972221974839201
 97
        6
330
131
330
132
330
133
330
134
330
135
330
136
 92
        1
 93
        6
 72
     1
 10
8.5807638023006483
 20
26.2513888635103001
 11
8.2474304689673161
 21
26.2513888635103001
 72
     1
 10
8.2474304689673161
 20
26.2513888635103001
 11
8.2474304689673161
 21
26.4180555301769644
 72
     1
 10
8.2474304689673161
 20
26.4180555301769644
 11
8.3724304689673161
 21
26.4180555301769644
 72
     1
 10
8.3724304689673161
 20
26.4180555301769644
 11
8.4974304689673161
 21
26.4180555301769644
 72
     1
 10
8.4974304689673161
 20
26.4180555301769644
 11
8.5807638023006483
 21
26.4180555301769644
 72
     1
 10
8.5807638023006483
 20
26.4180555301769644
 11
8.5807638023006483
 21
26.2513888635103001
 97
        5
330
138
330
139
330
13A
330
13B
330
13C
 75
     0
 76
     1
 98
        0
  0
LINE
  5
138
102
{ACAD_REACTORS
330
137
102
}
100
AcDbEntity
  8
BUILDING_ENVELOPE
  6
CONTINUOUS
 62
     7
100
AcDbLine
 10
8.580764
 20
26.251389
 30
0.0
 11
8.24743
 21
26.251389
 31
0.0
  0
LINE
  5
139
102
{ACAD_REACTORS
330
137
102
}
100
AcDbEntity
  8
BUILDING_ENVELOPE
  6
CONTINUOUS
 62
     7
100
AcDbLine
 10
8.24743
 20
26.251389
 30
0.0
 11
8.24743
 21
26.418056
 31
0.0
  0
LINE
  5
13A
102
{ACAD_REACTORS
330
137
102
}
100
AcDbEntity
  8
BUILDING_ENVELOPE
  6
CONTINUOUS
 62
     7
100
AcDbLine
 10
8.24743
 20
26.418056
 30
0.0
 11
8.37243
 21
26.418056
 31
0.0
  0
LINE
  5
13B
102
{ACAD_REACTORS
330
137
102
}
100
AcDbEntity
  8
BUILDING_ENVELOPE
  6
CONTINUOUS
 62
     7
100
AcDbLine
 10
8.49743
 20
26.418056
 30
0.0
 11
8.580764
 21
26.418056
 31
0.0
  0
LINE
  5
13C
102
{ACAD_REACTORS
330
137
102
}
100
AcDbEntity
  8
BUILDING_ENVELOPE
  6
CONTINUOUS
 62
     7
100
AcDbLine
 10
8.580764
 20
26.418056
 30
0.0
 11
8.580764
 21
26.251389
 31
0.0
  0
LINE
  5
13D
102
{ACAD_REACTORS
330
140
102
}
100
AcDbEntity
  8
BUILDING_ENVELOPE
  6
CONTINUOUS
 62
     7
100
AcDbLine
 10
8.37243
 20
28.230556
 30
0.0
 11
8.37243
 21
28.188889
 31
0.0
  0
LINE
  5
13E
102
{ACAD_REACTORS
330
140
102
}
100
AcDbEntity
  8
BUILDING_ENVELOPE
  6
CONTINUOUS
 62
     7
100
AcDbLine
 10
8.37243
 20
28.188889
 30
0.0
 11
8.49743
 21
28.188889
 31
0.0
  0
LINE
  5
13F
102
{ACAD_REACTORS
330
140
102
}
100
AcDbEntity
  8
BUILDING_ENVELOPE
  6
CONTINUOUS
 62
     7
100
AcDbLine
 10
8.49743
 20
28.188889
 30
0.0
 11
8.49743
 21
28.230556
 31
0.0
  0
HATCH
  5
140
102
{ACAD_REACTORS
330
130
102
}
100
AcDbEntity
  8
BUILDING_ENVELOPE
 62
     7
100
AcDbHatch
 10
0.0
 20
0.0
 30
0.0
210
0.0
220
0.0
230
1.0
  2
SOLID
 70
     1
 71
     1
 91
        2
 92
        1
 93
        4
 72
     1
 10
8.3724304689673161
 20
28.2305555308172558
 11
8.3724304689673161
 21
28.1888888641505879
 72
     1
 10
8.3724304689673161
 20
28.1888888641505879
 11
8.4974304689673161
 21
28.1888888641505879
 72
     1
 10
8.4974304689673161
 20
28.1888888641505879
 11
8.4974304689673161
 21
28.2305555308172558
 72
     1
 10
8.4974304689673161
 20
28.2305555308172558
 11
8.3724304689673161
 21
28.2305555308172558
 97
        3
330
13D
330
13E
330
13F
 92
        1
 93
        4
 72
     1
 10
8.3724304689673161
 20
26.4180555301769644
 11
8.3724304689673161
 21
26.4597221968436322
 72
     1
 10
8.3724304689673161
 20
26.4597221968436322
 11
8.4974304689673161
 21
26.4597221968436322
 72
     1
 10
8.4974304689673161
 20
26.4597221968436322
 11
8.4974304689673161
 21
26.4180555301769644
 72
     1
 10
8.4974304689673161
 20
26.4180555301769644
 11
8.3724304689673161
 21
26.4180555301769644
 97
        3
330
141
330
142
330
143
 75
     0
 76
     1
 98
        0
  0
LINE
  5
141
102
{ACAD_REACTORS
330
140
102
}
100
AcDbEntity
  8
BUILDING_ENVELOPE
  6
CONTINUOUS
 62
     7
100
AcDbLine
 10
8.37243
 20
26.418056
 30
0.0
 11
8.37243
 21
26.459722
 31
0.0
  0
LINE
  5
142
102
{ACAD_REACTORS
330
140
102
}
100
AcDbEntity
  8
BUILDING_ENVELOPE
  6
CONTINUOUS
 62
     7
100
AcDbLine
 10
8.37243
 20
26.459722
 30
0.0
 11
8.49743
 21
26.459722
 31
0.0
  0
LINE
  5
143
102
{ACAD_REACTORS
330
140
102
}
100
AcDbEntity
  8
BUILDING_ENVELOPE
  6
CONTINUOUS
 62
     7
100
AcDbLine
 10
8.49743
 20
26.459722
 30
0.0
 11
8.49743
 21
26.418056
 31
0.0
  0
LINE
  5
144
102
{ACAD_REACTORS
330
130
102
}
100
AcDbEntity
  8
BUILDING_ENVELOPE
  6
CONTINUOUS
 62
     7
100
AcDbLine
 10
8.580764
 20
28.397222
 30
0.0
 11
8.24743
 21
28.397222
 31
0.0
  0
LINE
  5
145
102
{ACAD_REACTORS
330
130
102
}
100
AcDbEntity
  8
BUILDING_ENVELOPE
  6
CONTINUOUS
 62
     7
100
AcDbLine
 10
8.580764
 20
26.251389
 30
0.0
 11
8.24743
 21
26.251389
 31
0.0
  0
ARC
  5
146
102
{ACAD_REACTORS
330
130
102
}
100
AcDbEntity
  8
BUILDING_ENVELOPE
  6
CONTINUOUS
 62
     7
100
AcDbCircle
 10
8.24743
 20
28.230556
 30
0.0
 40
1.8125
100
AcDbArc
 50
180.0
 51
270.0
  0
LWPOLYLINE
  5
147
102
{ACAD_REACTORS
330
148
102
}
100
AcDbEntity
  8
BUILDING_ENVELOPE
  6
CONTINUOUS
 62
     7
100
AcDbPolyline
 90
        4
 70
     1
 10
6.43493
 20
28.105556
 10
8.24743
 20
28.105556
 10
8.24743
 20
28.230556
 10
6.43493
 20
28.230556
  0
HATCH
  5
148
102
{ACAD_REACTORS
330
130
102
}
100
AcDbEntity
  8
BUILDING_ENVELOPE
 62
     7
100
AcDbHatch
 10
0.0
 20
0.0
 30
0.0
210
0.0
220
0.0
230
1.0
  2
SOLID
 70
     1
 71
     1
 91
        1
 92
        3
 72
     0
 73
     1
 93
        4
 10
6.4349304683270265
 20
28.1055555308172558
 10
8.2474304689673161
 20
28.1055555308172558
 10
8.2474304689673161
 20
28.2305555308172558
 10
6.4349304683270265
 20
28.2305555308172558
 97
        1
330
147
 75
     0
 76
     1
 98
        0
  0
LWPOLYLINE
  5
14A
102
{ACAD_REACTORS
330
150
102
}
100
AcDbEntity
  8
BUILDING_ENVELOPE
  6
CONTINUOUS
 62
     7
100
AcDbPolyline
 90
        4
 70
     1
 10
9.164097
 20
24.509389
 10
11.99743
 20
24.509389
 10
11.99743
 20
24.160056
 10
9.164097
 20
24.160056
  0
LINE
  5
14B
102
{ACAD_REACTORS
330
150
102
}
100
AcDbEntity
  8
BUILDING_ENVELOPE
  6
CONTINUOUS
 62
     7
100
AcDbLine
 10
11.99743
 20
24.501389
 30
0.0
 11
11.99743
 21
24.168056
 31
0.0
  0
LINE
  5
14C
102
{ACAD_REACTORS
330
150
102
}
100
AcDbEntity
  8
BUILDING_ENVELOPE
  6
CONTINUOUS
 62
     7
100
AcDbLine
 10
11.99743
 20
24.168056
 30
0.0
 11
11.830764
 21
24.168056
 31
0.0
  0
LINE
  5
14D
102
{ACAD_REACTORS
330
150
102
}
100
AcDbEntity
  8
BUILDING_ENVELOPE
  6
CONTINUOUS
 62
     7
100
AcDbLine
 10
11.830764
 20
24.168056
 30
0.0
 11
11.830764
 21
24.293056
 31
0.0
  0
LINE
  5
14E
102
{ACAD_REACTORS
330
150
102
}
100
AcDbEntity
  8
BUILDING_ENVELOPE
  6
CONTINUOUS
 62
     7
100
AcDbLine
 10
11.830764
 20
24.418056
 30
0.0
 11
11.830764
 21
24.501389
 31
0.0
  0
LINE
  5
14F
102
{ACAD_REACTORS
330
150
102
}
100
AcDbEntity
  8
BUILDING_ENVELOPE
  6
CONTINUOUS
 62
     7
100
AcDbLine
 10
11.830764
 20
24.501389
 30
0.0
 11
11.99743
 21
24.501389
 31
0.0
  0
HATCH
  5
150
102
{ACAD_REACTORS
330
149
102
}
100
AcDbEntity
  8
BUILDING_ENVELOPE
 62
     7
100
AcDbHatch
 10
0.0
 20
0.0
 30
0.0
210
0.0
220
0.0
230
1.0
  2
SOLID
 70
     1
 71
     1
 91
        2
 92
        1
 93
        6
 72
     1
 10
11.9974304587227838
 20
24.5013888656057652
 11
11.9974304587227838
 21
24.1680555322724331
 72
     1
 10
11.9974304587227838
 20
24.1680555322724331
 11
11.8307637920561177
 21
24.1680555322724331
 72
     1
 10
11.8307637920561177
 20
24.1680555322724331
 11
11.8307637920561177
 21
24.2930555322724331
 72
     1
 10
11.8307637920561177
 20
24.2930555322724331
 11
11.8307637920561177
 21
24.4180555322724331
 72
     1
 10
11.8307637920561177
 20
24.4180555322724331
 11
11.8307637920561177
 21
24.5013888656057652
 72
     1
 10
11.8307637920561177
 20
24.5013888656057652
 11
11.9974304587227838
 21
24.5013888656057652
 97
        6
330
14A
330
14B
330
14C
330
14D
330
14E
330
14F
 92
        1
 93
        6
 72
     1
 10
9.1640971253894499
 20
24.5013888656057652
 11
9.1640971253894499
 21
24.1680555322724331
 72
     1
 10
9.1640971253894499
 20
24.1680555322724331
 11
9.3307637920561159
 21
24.1680555322724331
 72
     1
 10
9.3307637920561159
 20
24.1680555322724331
 11
9.3307637920561159
 21
24.2930555322724331
 72
     1
 10
9.3307637920561159
 20
24.2930555322724331
 11
9.3307637920561159
 21
24.4180555322724331
 72
     1
 10
9.3307637920561159
 20
24.4180555322724331
 11
9.3307637920561159
 21
24.5013888656057652
 72
     1
 10
9.3307637920561159
 20
24.5013888656057652
 11
9.1640971253894499
 21
24.5013888656057652
 97
        5
330
151
330
152
330
153
330
154
330
155
 75
     0
 76
     1
 98
        0
  0
LINE
  5
151
102
{ACAD_REACTORS
330
150
102
}
100
AcDbEntity
  8
BUILDING_ENVELOPE
  6
CONTINUOUS
 62
     7
100
AcDbLine
 10
9.164097
 20
24.501389
 30
0.0
 11
9.164097
 21
24.168056
 31
0.0
  0
LINE
  5
152
102
{ACAD_REACTORS
330
150
102
}
100
AcDbEntity
  8
BUILDING_ENVELOPE
  6
CONTINUOUS
 62
     7
100
AcDbLine
 10
9.164097
 20
24.168056
 30
0.0
 11
9.330764
 21
24.168056
 31
0.0
  0
LINE
  5
153
102
{ACAD_REACTORS
330
150
102
}
100
AcDbEntity
  8
BUILDING_ENVELOPE
  6
CONTINUOUS
 62
     7
100
AcDbLine
 10
9.330764
 20
24.168056
 30
0.0
 11
9.330764
 21
24.293056
 31
0.0
  0
LINE
  5
154
102
{ACAD_REACTORS
330
150
102
}
100
AcDbEntity
  8
BUILDING_ENVELOPE
  6
CONTINUOUS
 62
     7
100
AcDbLine
 10
9.330764
 20
24.418056
 30
0.0
 11
9.330764
 21
24.501389
 31
0.0
  0
LINE
  5
155
102
{ACAD_REACTORS
330
150
102
}
100
AcDbEntity
  8
BUILDING_ENVELOPE
  6
CONTINUOUS
 62
     7
100
AcDbLine
 10
9.330764
 20
24.501389
 30
0.0
 11
9.164097
 21
24.501389
 31
0.0
  0
LINE
  5
156
102
{ACAD_REACTORS
330
159
102
}
100
AcDbEntity
  8
BUILDING_ENVELOPE
  6
CONTINUOUS
 62
     7
100
AcDbLine
 10
11.830764
 20
24.293056
 30
0.0
 11
11.789097
 21
24.293056
 31
0.0
  0
LINE
  5
157
102
{ACAD_REACTORS
330
159
102
}
100
AcDbEntity
  8
BUILDING_ENVELOPE
  6
CONTINUOUS
 62
     7
100
AcDbLine
 10
11.789097
 20
24.293056
 30
0.0
 11
11.789097
 21
24.418056
 31
0.0
  0
LINE
  5
158
102
{ACAD_REACTORS
330
159
102
}
100
AcDbEntity
  8
BUILDING_ENVELOPE
  6
CONTINUOUS
 62
     7
100
AcDbLine
 10
11.789097
 20
24.418056
 30
0.0
 11
11.830764
 21
24.418056
 31
0.0
  0
HATCH
  5
159
102
{ACAD_REACTORS
330
149
102
}
100
AcDbEntity
  8
BUILDING_ENVELOPE
 62
     7
100
AcDbHatch
 10
0.0
 20
0.0
 30
0.0
210
0.0
220
0.0
230
1.0
  2
SOLID
 70
     1
 71
     1
 91
        2
 92
        1
 93
        4
 72
     1
 10
11.8307637920561177
 20
24.2930555322724331
 11
11.7890971253894499
 21
24.2930555322724331
 72
     1
 10
11.7890971253894499
 20
24.2930555322724331
 11
11.7890971253894499
 21
24.4180555322724331
 72
     1
 10
11.7890971253894499
 20
24.4180555322724331
 11
11.8307637920561177
 21
24.4180555322724331
 72
     1
 10
11.8307637920561177
 20
24.4180555322724331
 11
11.8307637920561177
 21
24.2930555322724331
 97
        3
330
156
330
157
330
158
 92
        1
 93
        4
 72
     1
 10
9.3307637920561159
 20
24.2930555322724331
 11
9.372430458722782
 21
24.2930555322724331
 72
     1
 10
9.372430458722782
 20
24.2930555322724331
 11
9.372430458722782
 21
24.4180555322724331
 72
     1
 10
9.372430458722782
 20
24.4180555322724331
 11
9.3307637920561159
 21
24.4180555322724331
 72
     1
 10
9.3307637920561159
 20
24.4180555322724331
 11
9.3307637920561159
 21
24.2930555322724331
 97
        3
330
15A
330
15B
330
15C
 75
     0
 76
     1
 98
        0
  0
LINE
  5
15A
102
{ACAD_REACTORS
330
159
102
}
100
AcDbEntity
  8
BUILDING_ENVELOPE
  6
CONTINUOUS
 62
     7
100
AcDbLine
 10
9.330764
 20
24.293056
 30
0.0
 11
9.37243
 21
24.293056
 31
0.0
  0
LINE
  5
15B
102
{ACAD_REACTORS
330
159
102
}
100
AcDbEntity
  8
BUILDING_ENVELOPE
  6
CONTINUOUS
 62
     7
100
AcDbLine
 10
9.37243
 20
24.293056
 30
0.0
 11
9.37243
 21
24.418056
 31
0.0
  0
LINE
  5
15C
102
{ACAD_REACTORS
330
159
102
}
100
AcDbEntity
  8
BUILDING_ENVELOPE
  6
CONTINUOUS
 62
     7
100
AcDbLine
 10
9.37243
 20
24.418056
 30
0.0
 11
9.330764
 21
24.418056
 31
0.0
  0
LINE
  5
15D
102
{ACAD_REACTORS
330
149
102
}
100
AcDbEntity
  8
BUILDING_ENVELOPE
  6
CONTINUOUS
 62
     7
100
AcDbLine
 10
11.99743
 20
24.501389
 30
0.0
 11
11.99743
 21
24.168056
 31
0.0
  0
LINE
  5
15E
102
{ACAD_REACTORS
330
149
102
}
100
AcDbEntity
  8
BUILDING_ENVELOPE
  6
CONTINUOUS
 62
     7
100
AcDbLine
 10
9.164097
 20
24.501389
 30
0.0
 11
9.164097
 21
24.168056
 31
0.0
  0
ARC
  5
15F
102
{ACAD_REACTORS
330
149
102
}
100
AcDbEntity
  8
BUILDING_ENVELOPE
  6
CONTINUOUS
 62
     7
100
AcDbCircle
 10
11.830764
 20
24.168056
 30
0.0
 40
2.5
100
AcDbArc
 50
180.0
 51
270.0
  0
LWPOLYLINE
  5
160
102
{ACAD_REACTORS
330
161
102
}
100
AcDbEntity
  8
BUILDING_ENVELOPE
  6
CONTINUOUS
 62
     7
100
AcDbPolyline
 90
        4
 70
     1
 10
11.705764
 20
21.668056
 10
11.705764
 20
24.168056
 10
11.830764
 20
24.168056
 10
11.830764
 20
21.668056
  0
HATCH
  5
161
102
{ACAD_REACTORS
330
149
102
}
100
AcDbEntity
  8
BUILDING_ENVELOPE
 62
     7
100
AcDbHatch
 10
0.0
 20
0.0
 30
0.0
210
0.0
220
0.0
230
1.0
  2
SOLID
 70
     1
 71
     1
 91
        1
 92
        3
 72
     0
 73
     1
 93
        4
 10
11.7057637920561177
 20
21.6680555322724331
 10
11.7057637920561177
 20
24.1680555322724331
 10
11.8307637920561177
 20
24.1680555322724331
 10
11.8307637920561177
 20
21.6680555322724331
 97
        1
330
160
 75
     0
 76
     1
 98
        0
  0
LWPOLYLINE
  5
163
102
{ACAD_REACTORS
330
169
102
}
100
AcDbEntity
  8
BUILDING_ENVELOPE
  6
CONTINUOUS
 62
     7
100
AcDbPolyline
 90
        4
 70
     1
 10
9.664097
 20
33.160707
 10
12.49743
 20
33.160707
 10
12.49743
 20
33.51004
 10
9.664097
 20
33.51004
  0
LINE
  5
164
102
{ACAD_REACTORS
330
169
102
}
100
AcDbEntity
  8
BUILDING_ENVELOPE
  6
CONTINUOUS
 62
     7
100
AcDbLine
 10
12.49743
 20
33.168707
 30
0.0
 11
12.49743
 21
33.50204
 31
0.0
  0
LINE
  5
165
102
{ACAD_REACTORS
330
169
102
}
100
AcDbEntity
  8
BUILDING_ENVELOPE
  6
CONTINUOUS
 62
     7
100
AcDbLine
 10
12.49743
 20
33.50204
 30
0.0
 11
12.330764
 21
33.50204
 31
0.0
  0
LINE
  5
166
102
{ACAD_REACTORS
330
169
102
}
100
AcDbEntity
  8
BUILDING_ENVELOPE
  6
CONTINUOUS
 62
     7
100
AcDbLine
 10
12.330764
 20
33.50204
 30
0.0
 11
12.330764
 21
33.37704
 31
0.0
  0
LINE
  5
167
102
{ACAD_REACTORS
330
169
102
}
100
AcDbEntity
  8
BUILDING_ENVELOPE
  6
CONTINUOUS
 62
     7
100
AcDbLine
 10
12.330764
 20
33.25204
 30
0.0
 11
12.330764
 21
33.168707
 31
0.0
  0
LINE
  5
168
102
{ACAD_REACTORS
330
169
102
}
100
AcDbEntity
  8
BUILDING_ENVELOPE
  6
CONTINUOUS
 62
     7
100
AcDbLine
 10
12.330764
 20
33.168707
 30
0.0
 11
12.49743
 21
33.168707
 31
0.0
  0
HATCH
  5
169
102
{ACAD_REACTORS
330
162
102
}
100
AcDbEntity
  8
BUILDING_ENVELOPE
 62
     7
100
AcDbHatch
 10
0.0
 20
0.0
 30
0.0
210
0.0
220
0.0
230
1.0
  2
SOLID
 70
     1
 71
     1
 91
        2
 92
        1
 93
        6
 72
     1
 10
12.4974304582570088
 20
33.1687065985410214
 11
12.4974304582570088
 21
33.5020399318743571
 72
     1
 10
12.4974304582570088
 20
33.5020399318743571
 11
12.3307637915903427
 21
33.5020399318743571
 72
     1
 10
12.3307637915903427
 20
33.5020399318743571
 11
12.3307637915903427
 21
33.3770399318743571
 72
     1
 10
12.3307637915903427
 20
33.3770399318743571
 11
12.3307637915903427
 21
33.2520399318743571
 72
     1
 10
12.3307637915903427
 20
33.2520399318743571
 11
12.3307637915903427
 21
33.1687065985410214
 72
     1
 10
12.3307637915903427
 20
33.1687065985410214
 11
12.4974304582570088
 21
33.1687065985410214
 97
        6
330
163
330
164
330
165
330
166
330
167
330
168
 92
        1
 93
        6
 72
     1
 10
9.6640971249236749
 20
33.1687065985410214
 11
9.6640971249236749
 21
33.5020399318743571
 72
     1
 10
9.6640971249236749
 20
33.5020399318743571
 11
9.8307637915903427
 21
33.5020399318743571
 72
     1
 10
9.8307637915903427
 20
33.5020399318743571
 11
9.8307637915903427
 21
33.3770399318743571
 72
     1
 10
9.8307637915903427
 20
33.3770399318743571
 11
9.8307637915903427
 21
33.2520399318743571
 72
     1
 10
9.8307637915903427
 20
33.2520399318743571
 11
9.8307637915903427
 21
33.1687065985410214
 72
     1
 10
9.8307637915903427
 20
33.1687065985410214
 11
9.6640971249236749
 21
33.1687065985410214
 97
        5
330
16A
330
16B
330
16C
330
16D
330
16E
 75
     0
 76
     1
 98
        0
  0
LINE
  5
16A
102
{ACAD_REACTORS
330
169
102
}
100
AcDbEntity
  8
BUILDING_ENVELOPE
  6
CONTINUOUS
 62
     7
100
AcDbLine
 10
9.664097
 20
33.168707
 30
0.0
 11
9.664097
 21
33.50204
 31
0.0
  0
LINE
  5
16B
102
{ACAD_REACTORS
330
169
102
}
100
AcDbEntity
  8
BUILDING_ENVELOPE
  6
CONTINUOUS
 62
     7
100
AcDbLine
 10
9.664097
 20
33.50204
 30
0.0
 11
9.830764
 21
33.50204
 31
0.0
  0
LINE
  5
16C
102
{ACAD_REACTORS
330
169
102
}
100
AcDbEntity
  8
BUILDING_ENVELOPE
  6
CONTINUOUS
 62
     7
100
AcDbLine
 10
9.830764
 20
33.50204
 30
0.0
 11
9.830764
 21
33.37704
 31
0.0
  0
LINE
  5
16D
102
{ACAD_REACTORS
330
169
102
}
100
AcDbEntity
  8
BUILDING_ENVELOPE
  6
CONTINUOUS
 62
     7
100
AcDbLine
 10
9.830764
 20
33.25204
 30
0.0
 11
9.830764
 21
33.168707
 31
0.0
  0
LINE
  5
16E
102
{ACAD_REACTORS
330
169
102
}
100
AcDbEntity
  8
BUILDING_ENVELOPE
  6
CONTINUOUS
 62
     7
100
AcDbLine
 10
9.830764
 20
33.168707
 30
0.0
 11
9.664097
 21
33.168707
 31
0.0
  0
LINE
  5
16F
102
{ACAD_REACTORS
330
172
102
}
100
AcDbEntity
  8
BUILDING_ENVELOPE
  6
CONTINUOUS
 62
     7
100
AcDbLine
 10
12.330764
 20
33.37704
 30
0.0
 11
12.289097
 21
33.37704
 31
0.0
  0
LINE
  5
170
102
{ACAD_REACTORS
330
172
102
}
100
AcDbEntity
  8
BUILDING_ENVELOPE
  6
CONTINUOUS
 62
     7
100
AcDbLine
 10
12.289097
 20
33.37704
 30
0.0
 11
12.289097
 21
33.25204
 31
0.0
  0
LINE
  5
171
102
{ACAD_REACTORS
330
172
102
}
100
AcDbEntity
  8
BUILDING_ENVELOPE
  6
CONTINUOUS
 62
     7
100
AcDbLine
 10
12.289097
 20
33.25204
 30
0.0
 11
12.330764
 21
33.25204
 31
0.0
  0
HATCH
  5
172
102
{ACAD_REACTORS
330
162
102
}
100
AcDbEntity
  8
BUILDING_ENVELOPE
 62
     7
100
AcDbHatch
 10
0.0
 20
0.0
 30
0.0
210
0.0
220
0.0
230
1.0
  2
SOLID
 70
     1
 71
     1
 91
        2
 92
        1
 93
        4
 72
     1
 10
12.3307637915903427
 20
33.3770399318743571
 11
12.2890971249236749
 21
33.3770399318743571
 72
     1
 10
12.2890971249236749
 20
33.3770399318743571
 11
12.2890971249236749
 21
33.2520399318743571
 72
     1
 10
12.2890971249236749
 20
33.2520399318743571
 11
12.3307637915903427
 21
33.2520399318743571
 72
     1
 10
12.3307637915903427
 20
33.2520399318743571
 11
12.3307637915903427
 21
33.3770399318743571
 97
        3
330
16F
330
170
330
171
 92
        1
 93
        4
 72
     1
 10
9.8307637915903427
 20
33.3770399318743571
 11
9.8724304582570088
 21
33.3770399318743571
 72
     1
 10
9.8724304582570088
 20
33.3770399318743571
 11
9.8724304582570088
 21
33.2520399318743571
 72
     1
 10
9.8724304582570088
 20
33.2520399318743571
 11
9.8307637915903427
 21
33.2520399318743571
 72
     1
 10
9.8307637915903427
 20
33.2520399318743571
 11
9.8307637915903427
 21
33.3770399318743571
 97
        3
330
173
330
174
330
175
 75
     0
 76
     1
 98
        0
  0
LINE
  5
173
102
{ACAD_REACTORS
330
172
102
}
100
AcDbEntity
  8
BUILDING_ENVELOPE
  6
CONTINUOUS
 62
     7
100
AcDbLine
 10
9.830764
 20
33.37704
 30
0.0
 11
9.87243
 21
33.37704
 31
0.0
  0
LINE
  5
174
102
{ACAD_REACTORS
330
172
102
}
100
AcDbEntity
  8
BUILDING_ENVELOPE
  6
CONTINUOUS
 62
     7
100
AcDbLine
 10
9.87243
 20
33.37704
 30
0.0
 11
9.87243
 21
33.25204
 31
0.0
  0
LINE
  5
175
102
{ACAD_REACTORS
330
172
102
}
100
AcDbEntity
  8
BUILDING_ENVELOPE
  6
CONTINUOUS
 62
     7
100
AcDbLine
 10
9.87243
 20
33.25204
 30
0.0
 11
9.830764
 21
33.25204
 31
0.0
  0
LINE
  5
176
102
{ACAD_REACTORS
330
162
102
}
100
AcDbEntity
  8
BUILDING_ENVELOPE
  6
CONTINUOUS
 62
     7
100
AcDbLine
 10
12.49743
 20
33.168707
 30
0.0
 11
12.49743
 21
33.50204
 31
0.0
  0
LINE
  5
177
102
{ACAD_REACTORS
330
162
102
}
100
AcDbEntity
  8
BUILDING_ENVELOPE
  6
CONTINUOUS
 62
     7
100
AcDbLine
 10
9.664097
 20
33.168707
 30
0.0
 11
9.664097
 21
33.50204
 31
0.0
  0
ARC
  5
178
102
{ACAD_REACTORS
330
162
102
}
100
AcDbEntity
  8
BUILDING_ENVELOPE
  6
CONTINUOUS
 62
     7
100
AcDbCircle
 10
12.330764
 20
33.50204
 30
0.0
 40
2.5
100
AcDbArc
 50
90.0
 51
180.0
  0
LWPOLYLINE
  5
179
102
{ACAD_REACTORS
330
17A
102
}
100
AcDbEntity
  8
BUILDING_ENVELOPE
  6
CONTINUOUS
 62
     7
100
AcDbPolyline
 90
        4
 70
     1
 10
12.205764
 20
36.00204
 10
12.205764
 20
33.50204
 10
12.330764
 20
33.50204
 10
12.330764
 20
36.00204
  0
HATCH
  5
17A
102
{ACAD_REACTORS
330
162
102
}
100
AcDbEntity
  8
BUILDING_ENVELOPE
 62
     7
100
AcDbHatch
 10
0.0
 20
0.0
 30
0.0
210
0.0
220
0.0
230
1.0
  2
SOLID
 70
     1
 71
     1
 91
        1
 92
        3
 72
     0
 73
     1
 93
        4
 10
12.2057637915903427
 20
36.0020399318743571
 10
12.2057637915903427
 20
33.5020399318743571
 10
12.3307637915903427
 20
33.5020399318743571
 10
12.3307637915903427
 20
36.0020399318743571
 97
        1
330
179
 75
     0
 76
     1
 98
        0
  0
LWPOLYLINE
  5
17C
102
{ACAD_REACTORS
330
182
102
}
100
AcDbEntity
  8
BUILDING_ENVELOPE
  6
CONTINUOUS
 62
     7
100
AcDbPolyline
 90
        4
 70
     1
 10
8.945347
 20
11.660056
 10
11.77868
 20
11.660056
 10
11.77868
 20
12.009389
 10
8.945347
 20
12.009389
  0
LINE
  5
17D
102
{ACAD_REACTORS
330
182
102
}
100
AcDbEntity
  8
BUILDING_ENVELOPE
  6
CONTINUOUS
 62
     7
100
AcDbLine
 10
11.77868
 20
11.668056
 30
0.0
 11
11.77868
 21
12.001389
 31
0.0
  0
LINE
  5
17E
102
{ACAD_REACTORS
330
182
102
}
100
AcDbEntity
  8
BUILDING_ENVELOPE
  6
CONTINUOUS
 62
     7
100
AcDbLine
 10
11.77868
 20
12.001389
 30
0.0
 11
11.612014
 21
12.001389
 31
0.0
  0
LINE
  5
17F
102
{ACAD_REACTORS
330
182
102
}
100
AcDbEntity
  8
BUILDING_ENVELOPE
  6
CONTINUOUS
 62
     7
100
AcDbLine
 10
11.612014
 20
12.001389
 30
0.0
 11
11.612014
 21
11.876389
 31
0.0
  0
LINE
  5
180
102
{ACAD_REACTORS
330
182
102
}
100
AcDbEntity
  8
BUILDING_ENVELOPE
  6
CONTINUOUS
 62
     7
100
AcDbLine
 10
11.612014
 20
11.751389
 30
0.0
 11
11.612014
 21
11.668056
 31
0.0
  0
LINE
  5
181
102
{ACAD_REACTORS
330
182
102
}
100
AcDbEntity
  8
BUILDING_ENVELOPE
  6
CONTINUOUS
 62
     7
100
AcDbLine
 10
11.612014
 20
11.668056
 30
0.0
 11
11.77868
 21
11.668056
 31
0.0
  0
HATCH
  5
182
102
{ACAD_REACTORS
330
17B
102
}
100
AcDbEntity
  8
BUILDING_ENVELOPE
 62
     7
100
AcDbHatch
 10
0.0
 20
0.0
 30
0.0
210
0.0
220
0.0
230
1.0
  2
SOLID
 70
     1
 71
     1
 91
        2
 92
        1
 93
        6
 72
     1
 10
11.778680460090758
 20
11.6680555439140168
 11
11.778680460090758
 21
12.0013888772473507
 72
     1
 10
11.778680460090758
 20
12.0013888772473507
 11
11.6120137934240919
 21
12.0013888772473507
 72
     1
 10
11.6120137934240919
 20
12.0013888772473507
 11
11.6120137934240919
 21
11.8763888772473507
 72
     1
 10
11.6120137934240919
 20
11.8763888772473507
 11
11.6120137934240919
 21
11.7513888772473507
 72
     1
 10
11.6120137934240919
 20
11.7513888772473507
 11
11.6120137934240919
 21
11.6680555439140168
 72
     1
 10
11.6120137934240919
 20
11.6680555439140168
 11
11.778680460090758
 21
11.6680555439140168
 97
        6
330
17C
330
17D
330
17E
330
17F
330
180
330
181
 92
        1
 93
        6
 72
     1
 10
8.945347126757424
 20
11.6680555439140168
 11
8.945347126757424
 21
12.0013888772473507
 72
     1
 10
8.945347126757424
 20
12.0013888772473507
 11
9.1120137934240901
 21
12.0013888772473507
 72
     1
 10
9.1120137934240901
 20
12.0013888772473507
 11
9.1120137934240901
 21
11.8763888772473507
 72
     1
 10
9.1120137934240901
 20
11.8763888772473507
 11
9.1120137934240901
 21
11.7513888772473507
 72
     1
 10
9.1120137934240901
 20
11.7513888772473507
 11
9.1120137934240901
 21
11.6680555439140168
 72
     1
 10
9.1120137934240901
 20
11.6680555439140168
 11
8.945347126757424
 21
11.6680555439140168
 97
        5
330
183
330
184
330
185
330
186
330
187
 75
     0
 76
     1
 98
        0
  0
LINE
  5
183
102
{ACAD_REACTORS
330
182
102
}
100
AcDbEntity
  8
BUILDING_ENVELOPE
  6
CONTINUOUS
 62
     7
100
AcDbLine
 10
8.945347
 20
11.668056
 30
0.0
 11
8.945347
 21
12.001389
 31
0.0
  0
LINE
  5
184
102
{ACAD_REACTORS
330
182
102
}
100
AcDbEntity
  8
BUILDING_ENVELOPE
  6
CONTINUOUS
 62
     7
100
AcDbLine
 10
8.945347
 20
12.001389
 30
0.0
 11
9.112014
 21
12.001389
 31
0.0
  0
LINE
  5
185
102
{ACAD_REACTORS
330
182
102
}
100
AcDbEntity
  8
BUILDING_ENVELOPE
  6
CONTINUOUS
 62
     7
100
AcDbLine
 10
9.112014
 20
12.001389
 30
0.0
 11
9.112014
 21
11.876389
 31
0.0
  0
LINE
  5
186
102
{ACAD_REACTORS
330
182
102
}
100
AcDbEntity
  8
BUILDING_ENVELOPE
  6
CONTINUOUS
 62
     7
100
AcDbLine
 10
9.112014
 20
11.751389
 30
0.0
 11
9.112014
 21
11.668056
 31
0.0
  0
LINE
  5
187
102
{ACAD_REACTORS
330
182
102
}
100
AcDbEntity
  8
BUILDING_ENVELOPE
  6
CONTINUOUS
 62
     7
100
AcDbLine
 10
9.112014
 20
11.668056
 30
0.0
 11
8.945347
 21
11.668056
 31
0.0
  0
LINE
  5
188
102
{ACAD_REACTORS
330
18B
102
}
100
AcDbEntity
  8
BUILDING_ENVELOPE
  6
CONTINUOUS
 62
     7
100
AcDbLine
 10
11.612014
 20
11.876389
 30
0.0
 11
11.570347
 21
11.876389
 31
0.0
  0
LINE
  5
189
102
{ACAD_REACTORS
330
18B
102
}
100
AcDbEntity
  8
BUILDING_ENVELOPE
  6
CONTINUOUS
 62
     7
100
AcDbLine
 10
11.570347
 20
11.876389
 30
0.0
 11
11.570347
 21
11.751389
 31
0.0
  0
LINE
  5
18A
102
{ACAD_REACTORS
330
18B
102
}
100
AcDbEntity
  8
BUILDING_ENVELOPE
  6
CONTINUOUS
 62
     7
100
AcDbLine
 10
11.570347
 20
11.751389
 30
0.0
 11
11.612014
 21
11.751389
 31
0.0
  0
HATCH
  5
18B
102
{ACAD_REACTORS
330
17B
102
}
100
AcDbEntity
  8
BUILDING_ENVELOPE
 62
     7
100
AcDbHatch
 10
0.0
 20
0.0
 30
0.0
210
0.0
220
0.0
230
1.0
  2
SOLID
 70
     1
 71
     1
 91
        2
 92
        1
 93
        4
 72
     1
 10
11.6120137934240919
 20
11.8763888772473507
 11
11.5703471267574258
 21
11.8763888772473507
 72
     1
 10
11.5703471267574258
 20
11.8763888772473507
 11
11.5703471267574258
 21
11.7513888772473507
 72
     1
 10
11.5703471267574258
 20
11.7513888772473507
 11
11.6120137934240919
 21
11.7513888772473507
 72
     1
 10
11.6120137934240919
 20
11.7513888772473507
 11
11.6120137934240919
 21
11.8763888772473507
 97
        3
330
188
330
189
330
18A
 92
        1
 93
        4
 72
     1
 10
9.1120137934240901
 20
11.8763888772473507
 11
9.153680460090758
 21
11.8763888772473507
 72
     1
 10
9.153680460090758
 20
11.8763888772473507
 11
9.153680460090758
 21
11.7513888772473507
 72
     1
 10
9.153680460090758
 20
11.7513888772473507
 11
9.1120137934240901
 21
11.7513888772473507
 72
     1
 10
9.1120137934240901
 20
11.7513888772473507
 11
9.1120137934240901
 21
11.8763888772473507
 97
        3
330
18C
330
18D
330
18E
 75
     0
 76
     1
 98
        0
  0
LINE
  5
18C
102
{ACAD_REACTORS
330
18B
102
}
100
AcDbEntity
  8
BUILDING_ENVELOPE
  6
CONTINUOUS
 62
     7
100
AcDbLine
 10
9.112014
 20
11.876389
 30
0.0
 11
9.15368
 21
11.876389
 31
0.0
  0
LINE
  5
18D
102
{ACAD_REACTORS
330
18B
102
}
100
AcDbEntity
  8
BUILDING_ENVELOPE
  6
CONTINUOUS
 62
     7
100
AcDbLine
 10
9.15368
 20
11.876389
 30
0.0
 11
9.15368
 21
11.751389
 31
0.0
  0
LINE
  5
18E
102
{ACAD_REACTORS
330
18B
102
}
100
AcDbEntity
  8
BUILDING_ENVELOPE
  6
CONTINUOUS
 62
     7
100
AcDbLine
 10
9.15368
 20
11.751389
 30
0.0
 11
9.112014
 21
11.751389
 31
0.0
  0
LINE
  5
18F
102
{ACAD_REACTORS
330
17B
102
}
100
AcDbEntity
  8
BUILDING_ENVELOPE
  6
CONTINUOUS
 62
     7
100
AcDbLine
 10
11.77868
 20
11.668056
 30
0.0
 11
11.77868
 21
12.001389
 31
0.0
  0
LINE
  5
190
102
{ACAD_REACTORS
330
17B
102
}
100
AcDbEntity
  8
BUILDING_ENVELOPE
  6
CONTINUOUS
 62
     7
100
AcDbLine
 10
8.945347
 20
11.668056
 30
0.0
 11
8.945347
 21
12.001389
 31
0.0
  0
ARC
  5
191
102
{ACAD_REACTORS
330
17B
102
}
100
AcDbEntity
  8
BUILDING_ENVELOPE
  6
CONTINUOUS
 62
     7
100
AcDbCircle
 10
11.612014
 20
12.001389
 30
0.0
 40
2.5
100
AcDbArc
 50
90.0
 51
180.0
  0
LWPOLYLINE
  5
192
102
{ACAD_REACTORS
330
193
102
}
100
AcDbEntity
  8
BUILDING_ENVELOPE
  6
CONTINUOUS
 62
     7
100
AcDbPolyline
 90
        4
 70
     1
 10
11.487014
 20
14.501389
 10
11.487014
 20
12.001389
 10
11.612014
 20
12.001389
 10
11.612014
 20
14.501389
  0
HATCH
  5
193
102
{ACAD_REACTORS
330
17B
102
}
100
AcDbEntity
  8
BUILDING_ENVELOPE
 62
     7
100
AcDbHatch
 10
0.0
 20
0.0
 30
0.0
210
0.0
220
0.0
230
1.0
  2
SOLID
 70
     1
 71
     1
 91
        1
 92
        3
 72
     0
 73
     1
 93
        4
 10
11.4870137934240919
 20
14.5013888772473507
 10
11.4870137934240919
 20
12.0013888772473507
 10
11.6120137934240919
 20
12.0013888772473507
 10
11.6120137934240919
 20
14.5013888772473507
 97
        1
330
192
 75
     0
 76
     1
 98
        0
  0
LWPOLYLINE
  5
195
102
{ACAD_REACTORS
330
19B
102
}
100
AcDbEntity
  8
BUILDING_ENVELOPE
  6
CONTINUOUS
 62
     7
100
AcDbPolyline
 90
        4
 70
     1
 10
16.24743
 20
33.160707
 10
13.414097
 20
33.160707
 10
13.414097
 20
33.51004
 10
16.24743
 20
33.51004
  0
LINE
  5
196
102
{ACAD_REACTORS
330
19B
102
}
100
AcDbEntity
  8
BUILDING_ENVELOPE
  6
CONTINUOUS
 62
     7
100
AcDbLine
 10
13.414097
 20
33.168707
 30
0.0
 11
13.414097
 21
33.50204
 31
0.0
  0
LINE
  5
197
102
{ACAD_REACTORS
330
19B
102
}
100
AcDbEntity
  8
BUILDING_ENVELOPE
  6
CONTINUOUS
 62
     7
100
AcDbLine
 10
13.414097
 20
33.50204
 30
0.0
 11
13.580764
 21
33.50204
 31
0.0
  0
LINE
  5
198
102
{ACAD_REACTORS
330
19B
102
}
100
AcDbEntity
  8
BUILDING_ENVELOPE
  6
CONTINUOUS
 62
     7
100
AcDbLine
 10
13.580764
 20
33.50204
 30
0.0
 11
13.580764
 21
33.37704
 31
0.0
  0
LINE
  5
199
102
{ACAD_REACTORS
330
19B
102
}
100
AcDbEntity
  8
BUILDING_ENVELOPE
  6
CONTINUOUS
 62
     7
100
AcDbLine
 10
13.580764
 20
33.25204
 30
0.0
 11
13.580764
 21
33.168707
 31
0.0
  0
LINE
  5
19A
102
{ACAD_REACTORS
330
19B
102
}
100
AcDbEntity
  8
BUILDING_ENVELOPE
  6
CONTINUOUS
 62
     7
100
AcDbLine
 10
13.580764
 20
33.168707
 30
0.0
 11
13.414097
 21
33.168707
 31
0.0
  0
HATCH
  5
19B
102
{ACAD_REACTORS
330
194
102
}
100
AcDbEntity
  8
BUILDING_ENVELOPE
 62
     7
100
AcDbHatch
 10
0.0
 20
0.0
 30
0.0
210
0.0
220
0.0
230
1.0
  2
SOLID
 70
     1
 71
     1
 91
        2
 92
        1
 93
        6
 72
     1
 10
13.4140971202671828
 20
33.1687065985410356
 11
13.4140971202671828
 21
33.5020399318743642
 72
     1
 10
13.4140971202671828
 20
33.5020399318743642
 11
13.5807637869338507
 21
33.5020399318743642
 72
     1
 10
13.5807637869338507
 20
33.5020399318743642
 11
13.5807637869338507
 21
33.3770399318743642
 72
     1
 10
13.5807637869338507
 20
33.3770399318743642
 11
13.5807637869338507
 21
33.2520399318743642
 72
     1
 10
13.5807637869338507
 20
33.2520399318743642
 11
13.5807637869338507
 21
33.1687065985410356
 72
     1
 10
13.5807637869338507
 20
33.1687065985410356
 11
13.4140971202671828
 21
33.1687065985410356
 97
        6
330
195
330
196
330
197
330
198
330
199
330
19A
 92
        1
 93
        6
 72
     1
 10
16.247430453600515
 20
33.1687065985410356
 11
16.247430453600515
 21
33.5020399318743642
 72
     1
 10
16.247430453600515
 20
33.5020399318743642
 11
16.0807637869338507
 21
33.5020399318743642
 72
     1
 10
16.0807637869338507
 20
33.5020399318743642
 11
16.0807637869338507
 21
33.3770399318743642
 72
     1
 10
16.0807637869338507
 20
33.3770399318743642
 11
16.0807637869338507
 21
33.2520399318743642
 72
     1
 10
16.0807637869338507
 20
33.2520399318743642
 11
16.0807637869338507
 21
33.1687065985410356
 72
     1
 10
16.0807637869338507
 20
33.1687065985410356
 11
16.247430453600515
 21
33.1687065985410356
 97
        5
330
19C
330
19D
330
19E
330
19F
330
1A0
 75
     0
 76
     1
 98
        0
  0
LINE
  5
19C
102
{ACAD_REACTORS
330
19B
102
}
100
AcDbEntity
  8
BUILDING_ENVELOPE
  6
CONTINUOUS
 62
     7
100
AcDbLine
 10
16.24743
 20
33.168707
 30
0.0
 11
16.24743
 21
33.50204
 31
0.0
  0
LINE
  5
19D
102
{ACAD_REACTORS
330
19B
102
}
100
AcDbEntity
  8
BUILDING_ENVELOPE
  6
CONTINUOUS
 62
     7
100
AcDbLine
 10
16.24743
 20
33.50204
 30
0.0
 11
16.080764
 21
33.50204
 31
0.0
  0
LINE
  5
19E
102
{ACAD_REACTORS
330
19B
102
}
100
AcDbEntity
  8
BUILDING_ENVELOPE
  6
CONTINUOUS
 62
     7
100
AcDbLine
 10
16.080764
 20
33.50204
 30
0.0
 11
16.080764
 21
33.37704
 31
0.0
  0
LINE
  5
19F
102
{ACAD_REACTORS
330
19B
102
}
100
AcDbEntity
  8
BUILDING_ENVELOPE
  6
CONTINUOUS
 62
     7
100
AcDbLine
 10
16.080764
 20
33.25204
 30
0.0
 11
16.080764
 21
33.168707
 31
0.0
  0
LINE
  5
1A0
102
{ACAD_REACTORS
330
19B
102
}
100
AcDbEntity
  8
BUILDING_ENVELOPE
  6
CONTINUOUS
 62
     7
100
AcDbLine
 10
16.080764
 20
33.168707
 30
0.0
 11
16.24743
 21
33.168707
 31
0.0
  0
LINE
  5
1A1
102
{ACAD_REACTORS
330
1A4
102
}
100
AcDbEntity
  8
BUILDING_ENVELOPE
  6
CONTINUOUS
 62
     7
100
AcDbLine
 10
13.580764
 20
33.37704
 30
0.0
 11
13.62243
 21
33.37704
 31
0.0
  0
LINE
  5
1A2
102
{ACAD_REACTORS
330
1A4
102
}
100
AcDbEntity
  8
BUILDING_ENVELOPE
  6
CONTINUOUS
 62
     7
100
AcDbLine
 10
13.62243
 20
33.37704
 30
0.0
 11
13.62243
 21
33.25204
 31
0.0
  0
LINE
  5
1A3
102
{ACAD_REACTORS
330
1A4
102
}
100
AcDbEntity
  8
BUILDING_ENVELOPE
  6
CONTINUOUS
 62
     7
100
AcDbLine
 10
13.62243
 20
33.25204
 30
0.0
 11
13.580764
 21
33.25204
 31
0.0
  0
HATCH
  5
1A4
102
{ACAD_REACTORS
330
194
102
}
100
AcDbEntity
  8
BUILDING_ENVELOPE
 62
     7
100
AcDbHatch
 10
0.0
 20
0.0
 30
0.0
210
0.0
220
0.0
230
1.0
  2
SOLID
 70
     1
 71
     1
 91
        2
 92
        1
 93
        4
 72
     1
 10
13.5807637869338507
 20
33.3770399318743642
 11
13.6224304536005167
 21
33.3770399318743642
 72
     1
 10
13.6224304536005167
 20
33.3770399318743642
 11
13.6224304536005167
 21
33.2520399318743642
 72
     1
 10
13.6224304536005167
 20
33.2520399318743642
 11
13.5807637869338507
 21
33.2520399318743642
 72
     1
 10
13.5807637869338507
 20
33.2520399318743642
 11
13.5807637869338507
 21
33.3770399318743642
 97
        3
330
1A1
330
1A2
330
1A3
 92
        1
 93
        4
 72
     1
 10
16.0807637869338507
 20
33.3770399318743642
 11
16.0390971202671828
 21
33.3770399318743642
 72
     1
 10
16.0390971202671828
 20
33.3770399318743642
 11
16.0390971202671828
 21
33.2520399318743642
 72
     1
 10
16.0390971202671828
 20
33.2520399318743642
 11
16.0807637869338507
 21
33.2520399318743642
 72
     1
 10
16.0807637869338507
 20
33.2520399318743642
 11
16.0807637869338507
 21
33.3770399318743642
 97
        3
330
1A5
330
1A6
330
1A7
 75
     0
 76
     1
 98
        0
  0
LINE
  5
1A5
102
{ACAD_REACTORS
330
1A4
102
}
100
AcDbEntity
  8
BUILDING_ENVELOPE
  6
CONTINUOUS
 62
     7
100
AcDbLine
 10
16.080764
 20
33.37704
 30
0.0
 11
16.039097
 21
33.37704
 31
0.0
  0
LINE
  5
1A6
102
{ACAD_REACTORS
330
1A4
102
}
100
AcDbEntity
  8
BUILDING_ENVELOPE
  6
CONTINUOUS
 62
     7
100
AcDbLine
 10
16.039097
 20
33.37704
 30
0.0
 11
16.039097
 21
33.25204
 31
0.0
  0
LINE
  5
1A7
102
{ACAD_REACTORS
330
1A4
102
}
100
AcDbEntity
  8
BUILDING_ENVELOPE
  6
CONTINUOUS
 62
     7
100
AcDbLine
 10
16.039097
 20
33.25204
 30
0.0
 11
16.080764
 21
33.25204
 31
0.0
  0
LINE
  5
1A8
102
{ACAD_REACTORS
330
194
102
}
100
AcDbEntity
  8
BUILDING_ENVELOPE
  6
CONTINUOUS
 62
     7
100
AcDbLine
 10
13.414097
 20
33.168707
 30
0.0
 11
13.414097
 21
33.50204
 31
0.0
  0
LINE
  5
1A9
102
{ACAD_REACTORS
330
194
102
}
100
AcDbEntity
  8
BUILDING_ENVELOPE
  6
CONTINUOUS
 62
     7
100
AcDbLine
 10
16.24743
 20
33.168707
 30
0.0
 11
16.24743
 21
33.50204
 31
0.0
  0
ARC
  5
1AA
102
{ACAD_REACTORS
330
194
102
}
100
AcDbEntity
  8
BUILDING_ENVELOPE
  6
CONTINUOUS
 62
     7
100
AcDbCircle
 10
13.580764
 20
33.50204
 30
0.0
 40
2.5
100
AcDbArc
 50
0.0
 51
90.0
  0
LWPOLYLINE
  5
1AB
102
{ACAD_REACTORS
330
1AC
102
}
100
AcDbEntity
  8
BUILDING_ENVELOPE
  6
CONTINUOUS
 62
     7
100
AcDbPolyline
 90
        4
 70
     1
 10
13.705764
 20
36.00204
 10
13.705764
 20
33.50204
 10
13.580764
 20
33.50204
 10
13.580764
 20
36.00204
  0
HATCH
  5
1AC
102
{ACAD_REACTORS
330
194
102
}
100
AcDbEntity
  8
BUILDING_ENVELOPE
 62
     7
100
AcDbHatch
 10
0.0
 20
0.0
 30
0.0
210
0.0
220
0.0
230
1.0
  2
SOLID
 70
     1
 71
     1
 91
        1
 92
        3
 72
     0
 73
     1
 93
        4
 10
13.7057637869338507
 20
36.0020399318743642
 10
13.7057637869338507
 20
33.5020399318743642
 10
13.5807637869338507
 20
33.5020399318743642
 10
13.5807637869338507
 20
36.0020399318743642
 97
        1
330
1AB
 75
     0
 76
     1
 98
        0
  0
LWPOLYLINE
  5
1AE
102
{ACAD_REACTORS
330
1B4
102
}
100
AcDbEntity
  8
BUILDING_ENVELOPE
  6
CONTINUOUS
 62
     7
100
AcDbPolyline
 90
        4
 70
     1
 10
5.414097
 20
33.51004
 10
8.24743
 20
33.51004
 10
8.24743
 20
33.160707
 10
5.414097
 20
33.160707
  0
LINE
  5
1AF
102
{ACAD_REACTORS
330
1B4
102
}
100
AcDbEntity
  8
BUILDING_ENVELOPE
  6
CONTINUOUS
 62
     7
100
AcDbLine
 10
8.24743
 20
33.50204
 30
0.0
 11
8.24743
 21
33.168707
 31
0.0
  0
LINE
  5
1B0
102
{ACAD_REACTORS
330
1B4
102
}
100
AcDbEntity
  8
BUILDING_ENVELOPE
  6
CONTINUOUS
 62
     7
100
AcDbLine
 10
8.24743
 20
33.168707
 30
0.0
 11
8.080764
 21
33.168707
 31
0.0
  0
LINE
  5
1B1
102
{ACAD_REACTORS
330
1B4
102
}
100
AcDbEntity
  8
BUILDING_ENVELOPE
  6
CONTINUOUS
 62
     7
100
AcDbLine
 10
8.080764
 20
33.168707
 30
0.0
 11
8.080764
 21
33.293707
 31
0.0
  0
LINE
  5
1B2
102
{ACAD_REACTORS
330
1B4
102
}
100
AcDbEntity
  8
BUILDING_ENVELOPE
  6
CONTINUOUS
 62
     7
100
AcDbLine
 10
8.080764
 20
33.418707
 30
0.0
 11
8.080764
 21
33.50204
 31
0.0
  0
LINE
  5
1B3
102
{ACAD_REACTORS
330
1B4
102
}
100
AcDbEntity
  8
BUILDING_ENVELOPE
  6
CONTINUOUS
 62
     7
100
AcDbLine
 10
8.080764
 20
33.50204
 30
0.0
 11
8.24743
 21
33.50204
 31
0.0
  0
HATCH
  5
1B4
102
{ACAD_REACTORS
330
1AD
102
}
100
AcDbEntity
  8
BUILDING_ENVELOPE
 62
     7
100
AcDbHatch
 10
0.0
 20
0.0
 30
0.0
210
0.0
220
0.0
230
1.0
  2
SOLID
 70
     1
 71
     1
 91
        2
 92
        1
 93
        6
 72
     1
 10
8.2474304633792599
 20
33.5020399318743358
 11
8.2474304633792599
 21
33.1687065985410072
 72
     1
 10
8.2474304633792599
 20
33.1687065985410072
 11
8.080763796712592
 21
33.1687065985410072
 72
     1
 10
8.080763796712592
 20
33.1687065985410072
 11
8.080763796712592
 21
33.2937065985410072
 72
     1
 10
8.080763796712592
 20
33.2937065985410072
 11
8.080763796712592
 21
33.4187065985410072
 72
     1
 10
8.080763796712592
 20
33.4187065985410072
 11
8.080763796712592
 21
33.5020399318743358
 72
     1
 10
8.080763796712592
 20
33.5020399318743358
 11
8.2474304633792599
 21
33.5020399318743358
 97
        6
330
1AE
330
1AF
330
1B0
330
1B1
330
1B2
330
1B3
 92
        1
 93
        6
 72
     1
 10
5.414097130045926
 20
33.5020399318743358
 11
5.414097130045926
 21
33.1687065985410072
 72
     1
 10
5.414097130045926
 20
33.1687065985410072
 11
5.5807637967125929
 21
33.1687065985410072
 72
     1
 10
5.5807637967125929
 20
33.1687065985410072
 11
5.5807637967125929
 21
33.2937065985410072
 72
     1
 10
5.5807637967125929
 20
33.2937065985410072
 11
5.5807637967125929
 21
33.4187065985410072
 72
     1
 10
5.5807637967125929
 20
33.4187065985410072
 11
5.5807637967125929
 21
33.5020399318743358
 72
     1
 10
5.5807637967125929
 20
33.5020399318743358
 11
5.414097130045926
 21
33.5020399318743358
 97
        5
330
1B5
330
1B6
330
1B7
330
1B8
330
1B9
 75
     0
 76
     1
 98
        0
  0
LINE
  5
1B5
102
{ACAD_REACTORS
330
1B4
102
}
100
AcDbEntity
  8
BUILDING_ENVELOPE
  6
CONTINUOUS
 62
     7
100
AcDbLine
 10
5.414097
 20
33.50204
 30
0.0
 11
5.414097
 21
33.168707
 31
0.0
  0
LINE
  5
1B6
102
{ACAD_REACTORS
330
1B4
102
}
100
AcDbEntity
  8
BUILDING_ENVELOPE
  6
CONTINUOUS
 62
     7
100
AcDbLine
 10
5.414097
 20
33.168707
 30
0.0
 11
5.580764
 21
33.168707
 31
0.0
  0
LINE
  5
1B7
102
{ACAD_REACTORS
330
1B4
102
}
100
AcDbEntity
  8
BUILDING_ENVELOPE
  6
CONTINUOUS
 62
     7
100
AcDbLine
 10
5.580764
 20
33.168707
 30
0.0
 11
5.580764
 21
33.293707
 31
0.0
  0
LINE
  5
1B8
102
{ACAD_REACTORS
330
1B4
102
}
100
AcDbEntity
  8
BUILDING_ENVELOPE
  6
CONTINUOUS
 62
     7
100
AcDbLine
 10
5.580764
 20
33.418707
 30
0.0
 11
5.580764
 21
33.50204
 31
0.0
  0
LINE
  5
1B9
102
{ACAD_REACTORS
330
1B4
102
}
100
AcDbEntity
  8
BUILDING_ENVELOPE
  6
CONTINUOUS
 62
     7
100
AcDbLine
 10
5.580764
 20
33.50204
 30
0.0
 11
5.414097
 21
33.50204
 31
0.0
  0
LINE
  5
1BA
102
{ACAD_REACTORS
330
1BD
102
}
100
AcDbEntity
  8
BUILDING_ENVELOPE
  6
CONTINUOUS
 62
     7
100
AcDbLine
 10
8.080764
 20
33.293707
 30
0.0
 11
8.039097
 21
33.293707
 31
0.0
  0
LINE
  5
1BB
102
{ACAD_REACTORS
330
1BD
102
}
100
AcDbEntity
  8
BUILDING_ENVELOPE
  6
CONTINUOUS
 62
     7
100
AcDbLine
 10
8.039097
 20
33.293707
 30
0.0
 11
8.039097
 21
33.418707
 31
0.0
  0
LINE
  5
1BC
102
{ACAD_REACTORS
330
1BD
102
}
100
AcDbEntity
  8
BUILDING_ENVELOPE
  6
CONTINUOUS
 62
     7
100
AcDbLine
 10
8.039097
 20
33.418707
 30
0.0
 11
8.080764
 21
33.418707
 31
0.0
  0
HATCH
  5
1BD
102
{ACAD_REACTORS
330
1AD
102
}
100
AcDbEntity
  8
BUILDING_ENVELOPE
 62
     7
100
AcDbHatch
 10
0.0
 20
0.0
 30
0.0
210
0.0
220
0.0
230
1.0
  2
SOLID
 70
     1
 71
     1
 91
        2
 92
        1
 93
        4
 72
     1
 10
8.080763796712592
 20
33.2937065985410072
 11
8.039097130045926
 21
33.2937065985410072
 72
     1
 10
8.039097130045926
 20
33.2937065985410072
 11
8.039097130045926
 21
33.4187065985410072
 72
     1
 10
8.039097130045926
 20
33.4187065985410072
 11
8.080763796712592
 21
33.4187065985410072
 72
     1
 10
8.080763796712592
 20
33.4187065985410072
 11
8.080763796712592
 21
33.2937065985410072
 97
        3
330
1BA
330
1BB
330
1BC
 92
        1
 93
        4
 72
     1
 10
5.5807637967125929
 20
33.2937065985410072
 11
5.6224304633792599
 21
33.2937065985410072
 72
     1
 10
5.6224304633792599
 20
33.2937065985410072
 11
5.6224304633792599
 21
33.4187065985410072
 72
     1
 10
5.6224304633792599
 20
33.4187065985410072
 11
5.5807637967125929
 21
33.4187065985410072
 72
     1
 10
5.5807637967125929
 20
33.4187065985410072
 11
5.5807637967125929
 21
33.2937065985410072
 97
        3
330
1BE
330
1BF
330
1C0
 75
     0
 76
     1
 98
        0
  0
LINE
  5
1BE
102
{ACAD_REACTORS
330
1BD
102
}
100
AcDbEntity
  8
BUILDING_ENVELOPE
  6
CONTINUOUS
 62
     7
100
AcDbLine
 10
5.580764
 20
33.293707
 30
0.0
 11
5.62243
 21
33.293707
 31
0.0
  0
LINE
  5
1BF
102
{ACAD_REACTORS
330
1BD
102
}
100
AcDbEntity
  8
BUILDING_ENVELOPE
  6
CONTINUOUS
 62
     7
100
AcDbLine
 10
5.62243
 20
33.293707
 30
0.0
 11
5.62243
 21
33.418707
 31
0.0
  0
LINE
  5
1C0
102
{ACAD_REACTORS
330
1BD
102
}
100
AcDbEntity
  8
BUILDING_ENVELOPE
  6
CONTINUOUS
 62
     7
100
AcDbLine
 10
5.62243
 20
33.418707
 30
0.0
 11
5.580764
 21
33.418707
 31
0.0
  0
LINE
  5
1C1
102
{ACAD_REACTORS
330
1AD
102
}
100
AcDbEntity
  8
BUILDING_ENVELOPE
  6
CONTINUOUS
 62
     7
100
AcDbLine
 10
8.24743
 20
33.50204
 30
0.0
 11
8.24743
 21
33.168707
 31
0.0
  0
LINE
  5
1C2
102
{ACAD_REACTORS
330
1AD
102
}
100
AcDbEntity
  8
BUILDING_ENVELOPE
  6
CONTINUOUS
 62
     7
100
AcDbLine
 10
5.414097
 20
33.50204
 30
0.0
 11
5.414097
 21
33.168707
 31
0.0
  0
ARC
  5
1C3
102
{ACAD_REACTORS
330
1AD
102
}
100
AcDbEntity
  8
BUILDING_ENVELOPE
  6
CONTINUOUS
 62
     7
100
AcDbCircle
 10
8.080764
 20
33.168707
 30
0.0
 40
2.5
100
AcDbArc
 50
180.0
 51
270.0
  0
LWPOLYLINE
  5
1C4
102
{ACAD_REACTORS
330
1C5
102
}
100
AcDbEntity
  8
BUILDING_ENVELOPE
  6
CONTINUOUS
 62
     7
100
AcDbPolyline
 90
        4
 70
     1
 10
7.955764
 20
30.668707
 10
7.955764
 20
33.168707
 10
8.080764
 20
33.168707
 10
8.080764
 20
30.668707
  0
HATCH
  5
1C5
102
{ACAD_REACTORS
330
1AD
102
}
100
AcDbEntity
  8
BUILDING_ENVELOPE
 62
     7
100
AcDbHatch
 10
0.0
 20
0.0
 30
0.0
210
0.0
220
0.0
230
1.0
  2
SOLID
 70
     1
 71
     1
 91
        1
 92
        3
 72
     0
 73
     1
 93
        4
 10
7.9557637967125929
 20
30.6687065985410072
 10
7.9557637967125929
 20
33.1687065985410072
 10
8.080763796712592
 20
33.1687065985410072
 10
8.080763796712592
 20
30.6687065985410072
 97
        1
330
1C4
 75
     0
 76
     1
 98
        0
  0
LWPOLYLINE
  5
1C7
102
{ACAD_REACTORS
330
1CD
102
}
100
AcDbEntity
  8
BUILDING_ENVELOPE
  6
CONTINUOUS
 62
     7
100
AcDbPolyline
 90
        4
 70
     1
 10
13.664097
 20
23.31891
 10
16.49743
 20
23.31891
 10
16.49743
 20
23.668243
 10
13.664097
 20
23.668243
  0
LINE
  5
1C8
102
{ACAD_REACTORS
330
1CD
102
}
100
AcDbEntity
  8
BUILDING_ENVELOPE
  6
CONTINUOUS
 62
     7
100
AcDbLine
 10
16.49743
 20
23.32691
 30
0.0
 11
16.49743
 21
23.660243
 31
0.0
  0
LINE
  5
1C9
102
{ACAD_REACTORS
330
1CD
102
}
100
AcDbEntity
  8
BUILDING_ENVELOPE
  6
CONTINUOUS
 62
     7
100
AcDbLine
 10
16.49743
 20
23.660243
 30
0.0
 11
16.330764
 21
23.660243
 31
0.0
  0
LINE
  5
1CA
102
{ACAD_REACTORS
330
1CD
102
}
100
AcDbEntity
  8
BUILDING_ENVELOPE
  6
CONTINUOUS
 62
     7
100
AcDbLine
 10
16.330764
 20
23.660243
 30
0.0
 11
16.330764
 21
23.535243
 31
0.0
  0
LINE
  5
1CB
102
{ACAD_REACTORS
330
1CD
102
}
100
AcDbEntity
  8
BUILDING_ENVELOPE
  6
CONTINUOUS
 62
     7
100
AcDbLine
 10
16.330764
 20
23.410243
 30
0.0
 11
16.330764
 21
23.32691
 31
0.0
  0
LINE
  5
1CC
102
{ACAD_REACTORS
330
1CD
102
}
100
AcDbEntity
  8
BUILDING_ENVELOPE
  6
CONTINUOUS
 62
     7
100
AcDbLine
 10
16.330764
 20
23.32691
 30
0.0
 11
16.49743
 21
23.32691
 31
0.0
  0
HATCH
  5
1CD
102
{ACAD_REACTORS
330
1C6
102
}
100
AcDbEntity
  8
BUILDING_ENVELOPE
 62
     7
100
AcDbHatch
 10
0.0
 20
0.0
 30
0.0
210
0.0
220
0.0
230
1.0
  2
SOLID
 70
     1
 71
     1
 91
        2
 92
        1
 93
        6
 72
     1
 10
16.4974304545318091
 20
23.3269097211429397
 11
16.4974304545318091
 21
23.6602430544762719
 72
     1
 10
16.4974304545318091
 20
23.6602430544762719
 11
16.3307637878651413
 21
23.6602430544762719
 72
     1
 10
16.3307637878651413
 20
23.6602430544762719
 11
16.3307637878651413
 21
23.5352430544762719
 72
     1
 10
16.3307637878651413
 20
23.5352430544762719
 11
16.3307637878651413
 21
23.4102430544762719
 72
     1
 10
16.3307637878651413
 20
23.4102430544762719
 11
16.3307637878651413
 21
23.3269097211429397
 72
     1
 10
16.3307637878651413
 20
23.3269097211429397
 11
16.4974304545318091
 21
23.3269097211429397
 97
        6
330
1C7
330
1C8
330
1C9
330
1CA
330
1CB
330
1CC
 92
        1
 93
        6
 72
     1
 10
13.6640971211984752
 20
23.3269097211429397
 11
13.6640971211984752
 21
23.6602430544762719
 72
     1
 10
13.6640971211984752
 20
23.6602430544762719
 11
13.8307637878651413
 21
23.6602430544762719
 72
     1
 10
13.8307637878651413
 20
23.6602430544762719
 11
13.8307637878651413
 21
23.5352430544762719
 72
     1
 10
13.8307637878651413
 20
23.5352430544762719
 11
13.8307637878651413
 21
23.4102430544762719
 72
     1
 10
13.8307637878651413
 20
23.4102430544762719
 11
13.8307637878651413
 21
23.3269097211429397
 72
     1
 10
13.8307637878651413
 20
23.3269097211429397
 11
13.6640971211984752
 21
23.3269097211429397
 97
        5
330
1CE
330
1CF
330
1D0
330
1D1
330
1D2
 75
     0
 76
     1
 98
        0
  0
LINE
  5
1CE
102
{ACAD_REACTORS
330
1CD
102
}
100
AcDbEntity
  8
BUILDING_ENVELOPE
  6
CONTINUOUS
 62
     7
100
AcDbLine
 10
13.664097
 20
23.32691
 30
0.0
 11
13.664097
 21
23.660243
 31
0.0
  0
LINE
  5
1CF
102
{ACAD_REACTORS
330
1CD
102
}
100
AcDbEntity
  8
BUILDING_ENVELOPE
  6
CONTINUOUS
 62
     7
100
AcDbLine
 10
13.664097
 20
23.660243
 30
0.0
 11
13.830764
 21
23.660243
 31
0.0
  0
LINE
  5
1D0
102
{ACAD_REACTORS
330
1CD
102
}
100
AcDbEntity
  8
BUILDING_ENVELOPE
  6
CONTINUOUS
 62
     7
100
AcDbLine
 10
13.830764
 20
23.660243
 30
0.0
 11
13.830764
 21
23.535243
 31
0.0
  0
LINE
  5
1D1
102
{ACAD_REACTORS
330
1CD
102
}
100
AcDbEntity
  8
BUILDING_ENVELOPE
  6
CONTINUOUS
 62
     7
100
AcDbLine
 10
13.830764
 20
23.410243
 30
0.0
 11
13.830764
 21
23.32691
 31
0.0
  0
LINE
  5
1D2
102
{ACAD_REACTORS
330
1CD
102
}
100
AcDbEntity
  8
BUILDING_ENVELOPE
  6
CONTINUOUS
 62
     7
100
AcDbLine
 10
13.830764
 20
23.32691
 30
0.0
 11
13.664097
 21
23.32691
 31
0.0
  0
LINE
  5
1D3
102
{ACAD_REACTORS
330
1D6
102
}
100
AcDbEntity
  8
BUILDING_ENVELOPE
  6
CONTINUOUS
 62
     7
100
AcDbLine
 10
16.330764
 20
23.535243
 30
0.0
 11
16.289097
 21
23.535243
 31
0.0
  0
LINE
  5
1D4
102
{ACAD_REACTORS
330
1D6
102
}
100
AcDbEntity
  8
BUILDING_ENVELOPE
  6
CONTINUOUS
 62
     7
100
AcDbLine
 10
16.289097
 20
23.535243
 30
0.0
 11
16.289097
 21
23.410243
 31
0.0
  0
LINE
  5
1D5
102
{ACAD_REACTORS
330
1D6
102
}
100
AcDbEntity
  8
BUILDING_ENVELOPE
  6
CONTINUOUS
 62
     7
100
AcDbLine
 10
16.289097
 20
23.410243
 30
0.0
 11
16.330764
 21
23.410243
 31
0.0
  0
HATCH
  5
1D6
102
{ACAD_REACTORS
330
1C6
102
}
100
AcDbEntity
  8
BUILDING_ENVELOPE
 62
     7
100
AcDbHatch
 10
0.0
 20
0.0
 30
0.0
210
0.0
220
0.0
230
1.0
  2
SOLID
 70
     1
 71
     1
 91
        2
 92
        1
 93
        4
 72
     1
 10
16.3307637878651413
 20
23.5352430544762719
 11
16.2890971211984734
 21
23.5352430544762719
 72
     1
 10
16.2890971211984734
 20
23.5352430544762719
 11
16.2890971211984734
 21
23.4102430544762719
 72
     1
 10
16.2890971211984734
 20
23.4102430544762719
 11
16.3307637878651413
 21
23.4102430544762719
 72
     1
 10
16.3307637878651413
 20
23.4102430544762719
 11
16.3307637878651413
 21
23.5352430544762719
 97
        3
330
1D3
330
1D4
330
1D5
 92
        1
 93
        4
 72
     1
 10
13.8307637878651413
 20
23.5352430544762719
 11
13.8724304545318091
 21
23.5352430544762719
 72
     1
 10
13.8724304545318091
 20
23.5352430544762719
 11
13.8724304545318091
 21
23.4102430544762719
 72
     1
 10
13.8724304545318091
 20
23.4102430544762719
 11
13.8307637878651413
 21
23.4102430544762719
 72
     1
 10
13.8307637878651413
 20
23.4102430544762719
 11
13.8307637878651413
 21
23.5352430544762719
 97
        3
330
1D7
330
1D8
330
1D9
 75
     0
 76
     1
 98
        0
  0
LINE
  5
1D7
102
{ACAD_REACTORS
330
1D6
102
}
100
AcDbEntity
  8
BUILDING_ENVELOPE
  6
CONTINUOUS
 62
     7
100
AcDbLine
 10
13.830764
 20
23.535243
 30
0.0
 11
13.87243
 21
23.535243
 31
0.0
  0
LINE
  5
1D8
102
{ACAD_REACTORS
330
1D6
102
}
100
AcDbEntity
  8
BUILDING_ENVELOPE
  6
CONTINUOUS
 62
     7
100
AcDbLine
 10
13.87243
 20
23.535243
 30
0.0
 11
13.87243
 21
23.410243
 31
0.0
  0
LINE
  5
1D9
102
{ACAD_REACTORS
330
1D6
102
}
100
AcDbEntity
  8
BUILDING_ENVELOPE
  6
CONTINUOUS
 62
     7
100
AcDbLine
 10
13.87243
 20
23.410243
 30
0.0
 11
13.830764
 21
23.410243
 31
0.0
  0
LINE
  5
1DA
102
{ACAD_REACTORS
330
1C6
102
}
100
AcDbEntity
  8
BUILDING_ENVELOPE
  6
CONTINUOUS
 62
     7
100
AcDbLine
 10
16.49743
 20
23.32691
 30
0.0
 11
16.49743
 21
23.660243
 31
0.0
  0
LINE
  5
1DB
102
{ACAD_REACTORS
330
1C6
102
}
100
AcDbEntity
  8
BUILDING_ENVELOPE
  6
CONTINUOUS
 62
     7
100
AcDbLine
 10
13.664097
 20
23.32691
 30
0.0
 11
13.664097
 21
23.660243
 31
0.0
  0
ARC
  5
1DC
102
{ACAD_REACTORS
330
1C6
102
}
100
AcDbEntity
  8
BUILDING_ENVELOPE
  6
CONTINUOUS
 62
     7
100
AcDbCircle
 10
16.330764
 20
23.660243
 30
0.0
 40
2.5
100
AcDbArc
 50
90.0
 51
180.0
  0
LWPOLYLINE
  5
1DD
102
{ACAD_REACTORS
330
1DE
102
}
100
AcDbEntity
  8
BUILDING_ENVELOPE
  6
CONTINUOUS
 62
     7
100
AcDbPolyline
 90
        4
 70
     1
 10
16.205764
 20
26.160243
 10
16.205764
 20
23.660243
 10
16.330764
 20
23.660243
 10
16.330764
 20
26.160243
  0
HATCH
  5
1DE
102
{ACAD_REACTORS
330
1C6
102
}
100
AcDbEntity
  8
BUILDING_ENVELOPE
 62
     7
100
AcDbHatch
 10
0.0
 20
0.0
 30
0.0
210
0.0
220
0.0
230
1.0
  2
SOLID
 70
     1
 71
     1
 91
        1
 92
        3
 72
     0
 73
     1
 93
        4
 10
16.2057637878651413
 20
26.1602430544762719
 10
16.2057637878651413
 20
23.6602430544762719
 10
16.3307637878651413
 20
23.6602430544762719
 10
16.3307637878651413
 20
26.1602430544762719
 97
        1
330
1DD
 75
     0
 76
     1
 98
        0
  0
LWPOLYLINE
  5
1E0
102
{ACAD_REACTORS
330
1E6
102
}
100
AcDbEntity
  8
BUILDING_ENVELOPE
  6
CONTINUOUS
 62
     7
100
AcDbPolyline
 90
        4
 70
     1
 10
16.73943
 20
30.001389
 10
16.73943
 20
32.834722
 10
17.088764
 20
32.834722
 10
17.088764
 20
30.001389
  0
LINE
  5
1E1
102
{ACAD_REACTORS
330
1E6
102
}
100
AcDbEntity
  8
BUILDING_ENVELOPE
  6
CONTINUOUS
 62
     7
100
AcDbLine
 10
16.74743
 20
32.834722
 30
0.0
 11
17.080764
 21
32.834722
 31
0.0
  0
LINE
  5
1E2
102
{ACAD_REACTORS
330
1E6
102
}
100
AcDbEntity
  8
BUILDING_ENVELOPE
  6
CONTINUOUS
 62
     7
100
AcDbLine
 10
17.080764
 20
32.834722
 30
0.0
 11
17.080764
 21
32.668056
 31
0.0
  0
LINE
  5
1E3
102
{ACAD_REACTORS
330
1E6
102
}
100
AcDbEntity
  8
BUILDING_ENVELOPE
  6
CONTINUOUS
 62
     7
100
AcDbLine
 10
17.080764
 20
32.668056
 30
0.0
 11
16.955764
 21
32.668056
 31
0.0
  0
LINE
  5
1E4
102
{ACAD_REACTORS
330
1E6
102
}
100
AcDbEntity
  8
BUILDING_ENVELOPE
  6
CONTINUOUS
 62
     7
100
AcDbLine
 10
16.830764
 20
32.668056
 30
0.0
 11
16.74743
 21
32.668056
 31
0.0
  0
LINE
  5
1E5
102
{ACAD_REACTORS
330
1E6
102
}
100
AcDbEntity
  8
BUILDING_ENVELOPE
  6
CONTINUOUS
 62
     7
100
AcDbLine
 10
16.74743
 20
32.668056
 30
0.0
 11
16.74743
 21
32.834722
 31
0.0
  0
HATCH
  5
1E6
102
{ACAD_REACTORS
330
1DF
102
}
100
AcDbEntity
  8
BUILDING_ENVELOPE
 62
     7
100
AcDbHatch
 10
0.0
 20
0.0
 30
0.0
210
0.0
220
0.0
230
1.0
  2
SOLID
 70
     1
 71
     1
 91
        2
 92
        1
 93
        6
 72
     1
 10
16.747430452669164
 20
32.8347221933512259
 11
17.0807637860024997
 21
32.8347221933512259
 72
     1
 10
17.0807637860024997
 20
32.8347221933512259
 11
17.0807637860024997
 21
32.6680555266845545
 72
     1
 10
17.0807637860024997
 20
32.6680555266845545
 11
16.9557637860024997
 21
32.6680555266845545
 72
     1
 10
16.9557637860024997
 20
32.6680555266845545
 11
16.8307637860024997
 21
32.6680555266845545
 72
     1
 10
16.8307637860024997
 20
32.6680555266845545
 11
16.747430452669164
 21
32.6680555266845545
 72
     1
 10
16.747430452669164
 20
32.6680555266845545
 11
16.747430452669164
 21
32.8347221933512259
 97
        6
330
1E0
330
1E1
330
1E2
330
1E3
330
1E4
330
1E5
 92
        1
 93
        6
 72
     1
 10
16.747430452669164
 20
30.0013888600178902
 11
17.0807637860024997
 21
30.0013888600178902
 72
     1
 10
17.0807637860024997
 20
30.0013888600178902
 11
17.0807637860024997
 21
30.168055526684558
 72
     1
 10
17.0807637860024997
 20
30.168055526684558
 11
16.9557637860024997
 21
30.168055526684558
 72
     1
 10
16.9557637860024997
 20
30.168055526684558
 11
16.8307637860024997
 21
30.168055526684558
 72
     1
 10
16.8307637860024997
 20
30.168055526684558
 11
16.747430452669164
 21
30.168055526684558
 72
     1
 10
16.747430452669164
 20
30.168055526684558
 11
16.747430452669164
 21
30.0013888600178902
 97
        5
330
1E7
330
1E8
330
1E9
330
1EA
330
1EB
 75
     0
 76
     1
 98
        0
  0
LINE
  5
1E7
102
{ACAD_REACTORS
330
1E6
102
}
100
AcDbEntity
  8
BUILDING_ENVELOPE
  6
CONTINUOUS
 62
     7
100
AcDbLine
 10
16.74743
 20
30.001389
 30
0.0
 11
17.080764
 21
30.001389
 31
0.0
  0
LINE
  5
1E8
102
{ACAD_REACTORS
330
1E6
102
}
100
AcDbEntity
  8
BUILDING_ENVELOPE
  6
CONTINUOUS
 62
     7
100
AcDbLine
 10
17.080764
 20
30.001389
 30
0.0
 11
17.080764
 21
30.168056
 31
0.0
  0
LINE
  5
1E9
102
{ACAD_REACTORS
330
1E6
102
}
100
AcDbEntity
  8
BUILDING_ENVELOPE
  6
CONTINUOUS
 62
     7
100
AcDbLine
 10
17.080764
 20
30.168056
 30
0.0
 11
16.955764
 21
30.168056
 31
0.0
  0
LINE
  5
1EA
102
{ACAD_REACTORS
330
1E6
102
}
100
AcDbEntity
  8
BUILDING_ENVELOPE
  6
CONTINUOUS
 62
     7
100
AcDbLine
 10
16.830764
 20
30.168056
 30
0.0
 11
16.74743
 21
30.168056
 31
0.0
  0
LINE
  5
1EB
102
{ACAD_REACTORS
330
1E6
102
}
100
AcDbEntity
  8
BUILDING_ENVELOPE
  6
CONTINUOUS
 62
     7
100
AcDbLine
 10
16.74743
 20
30.168056
 30
0.0
 11
16.74743
 21
30.001389
 31
0.0
  0
LINE
  5
1EC
102
{ACAD_REACTORS
330
1EF
102
}
100
AcDbEntity
  8
BUILDING_ENVELOPE
  6
CONTINUOUS
 62
     7
100
AcDbLine
 10
16.955764
 20
32.668056
 30
0.0
 11
16.955764
 21
32.626389
 31
0.0
  0
LINE
  5
1ED
102
{ACAD_REACTORS
330
1EF
102
}
100
AcDbEntity
  8
BUILDING_ENVELOPE
  6
CONTINUOUS
 62
     7
100
AcDbLine
 10
16.955764
 20
32.626389
 30
0.0
 11
16.830764
 21
32.626389
 31
0.0
  0
LINE
  5
1EE
102
{ACAD_REACTORS
330
1EF
102
}
100
AcDbEntity
  8
BUILDING_ENVELOPE
  6
CONTINUOUS
 62
     7
100
AcDbLine
 10
16.830764
 20
32.626389
 30
0.0
 11
16.830764
 21
32.668056
 31
0.0
  0
HATCH
  5
1EF
102
{ACAD_REACTORS
330
1DF
102
}
100
AcDbEntity
  8
BUILDING_ENVELOPE
 62
     7
100
AcDbHatch
 10
0.0
 20
0.0
 30
0.0
210
0.0
220
0.0
230
1.0
  2
SOLID
 70
     1
 71
     1
 91
        2
 92
        1
 93
        4
 72
     1
 10
16.9557637860024997
 20
32.6680555266845545
 11
16.9557637860024997
 21
32.6263888600178902
 72
     1
 10
16.9557637860024997
 20
32.6263888600178902
 11
16.8307637860024997
 21
32.6263888600178902
 72
     1
 10
16.8307637860024997
 20
32.6263888600178902
 11
16.8307637860024997
 21
32.6680555266845545
 72
     1
 10
16.8307637860024997
 20
32.6680555266845545
 11
16.9557637860024997
 21
32.6680555266845545
 97
        3
330
1EC
330
1ED
330
1EE
 92
        1
 93
        4
 72
     1
 10
16.9557637860024997
 20
30.168055526684558
 11
16.9557637860024997
 21
30.2097221933512259
 72
     1
 10
16.9557637860024997
 20
30.2097221933512259
 11
16.8307637860024997
 21
30.2097221933512259
 72
     1
 10
16.8307637860024997
 20
30.2097221933512259
 11
16.8307637860024997
 21
30.168055526684558
 72
     1
 10
16.8307637860024997
 20
30.168055526684558
 11
16.9557637860024997
 21
30.168055526684558
 97
        3
330
1F0
330
1F1
330
1F2
 75
     0
 76
     1
 98
        0
  0
LINE
  5
1F0
102
{ACAD_REACTORS
330
1EF
102
}
100
AcDbEntity
  8
BUILDING_ENVELOPE
  6
CONTINUOUS
 62
     7
100
AcDbLine
 10
16.955764
 20
30.168056
 30
0.0
 11
16.955764
 21
30.209722
 31
0.0
  0
LINE
  5
1F1
102
{ACAD_REACTORS
330
1EF
102
}
100
AcDbEntity
  8
BUILDING_ENVELOPE
  6
CONTINUOUS
 62
     7
100
AcDbLine
 10
16.955764
 20
30.209722
 30
0.0
 11
16.830764
 21
30.209722
 31
0.0
  0
LINE
  5
1F2
102
{ACAD_REACTORS
330
1EF
102
}
100
AcDbEntity
  8
BUILDING_ENVELOPE
  6
CONTINUOUS
 62
     7
100
AcDbLine
 10
16.830764
 20
30.209722
 30
0.0
 11
16.830764
 21
30.168056
 31
0.0
  0
LINE
  5
1F3
102
{ACAD_REACTORS
330
1DF
102
}
100
AcDbEntity
  8
BUILDING_ENVELOPE
  6
CONTINUOUS
 62
     7
100
AcDbLine
 10
16.74743
 20
32.834722
 30
0.0
 11
17.080764
 21
32.834722
 31
0.0
  0
LINE
  5
1F4
102
{ACAD_REACTORS
330
1DF
102
}
100
AcDbEntity
  8
BUILDING_ENVELOPE
  6
CONTINUOUS
 62
     7
100
AcDbLine
 10
16.74743
 20
30.001389
 30
0.0
 11
17.080764
 21
30.001389
 31
0.0
  0
ARC
  5
1F5
102
{ACAD_REACTORS
330
1DF
102
}
100
AcDbEntity
  8
BUILDING_ENVELOPE
  6
CONTINUOUS
 62
     7
100
AcDbCircle
 10
17.080764
 20
32.668056
 30
0.0
 40
2.5
100
AcDbArc
 50
270.0
 51
0.0
  0
LWPOLYLINE
  5
1F6
102
{ACAD_REACTORS
330
1F7
102
}
100
AcDbEntity
  8
BUILDING_ENVELOPE
  6
CONTINUOUS
 62
     7
100
AcDbPolyline
 90
        4
 70
     1
 10
19.580764
 20
32.543056
 10
17.080764
 20
32.543056
 10
17.080764
 20
32.668056
 10
19.580764
 20
32.668056
  0
HATCH
  5
1F7
102
{ACAD_REACTORS
330
1DF
102
}
100
AcDbEntity
  8
BUILDING_ENVELOPE
 62
     7
100
AcDbHatch
 10
0.0
 20
0.0
 30
0.0
210
0.0
220
0.0
230
1.0
  2
SOLID
 70
     1
 71
     1
 91
        1
 92
        3
 72
     0
 73
     1
 93
        4
 10
19.5807637860024997
 20
32.5430555266845545
 10
17.0807637860024997
 20
32.5430555266845545
 10
17.0807637860024997
 20
32.6680555266845545
 10
19.5807637860024997
 20
32.6680555266845545
 97
        1
330
1F6
 75
     0
 76
     1
 98
        0
  0
LWPOLYLINE
  5
1F9
102
{ACAD_REACTORS
330
1FF
102
}
100
AcDbEntity
  8
BUILDING_ENVELOPE
  6
CONTINUOUS
 62
     7
100
AcDbPolyline
 90
        4
 70
     1
 10
13.320347
 20
11.660056
 10
18.65368
 20
11.660056
 10
18.65368
 20
12.009389
 10
13.320347
 20
12.009389
  0
LINE
  5
1FA
102
{ACAD_REACTORS
330
1FF
102
}
100
AcDbEntity
  8
BUILDING_ENVELOPE
  6
CONTINUOUS
 62
     7
100
AcDbLine
 10
18.65368
 20
11.668056
 30
0.0
 11
18.65368
 21
12.001389
 31
0.0
  0
LINE
  5
1FB
102
{ACAD_REACTORS
330
1FF
102
}
100
AcDbEntity
  8
BUILDING_ENVELOPE
  6
CONTINUOUS
 62
     7
100
AcDbLine
 10
18.65368
 20
12.001389
 30
0.0
 11
18.487014
 21
12.001389
 31
0.0
  0
LINE
  5
1FC
102
{ACAD_REACTORS
330
1FF
102
}
100
AcDbEntity
  8
BUILDING_ENVELOPE
  6
CONTINUOUS
 62
     7
100
AcDbLine
 10
18.487014
 20
12.001389
 30
0.0
 11
18.487014
 21
11.876389
 31
0.0
  0
LINE
  5
1FD
102
{ACAD_REACTORS
330
1FF
102
}
100
AcDbEntity
  8
BUILDING_ENVELOPE
  6
CONTINUOUS
 62
     7
100
AcDbLine
 10
18.487014
 20
11.751389
 30
0.0
 11
18.487014
 21
11.668056
 31
0.0
  0
LINE
  5
1FE
102
{ACAD_REACTORS
330
1FF
102
}
100
AcDbEntity
  8
BUILDING_ENVELOPE
  6
CONTINUOUS
 62
     7
100
AcDbLine
 10
18.487014
 20
11.668056
 30
0.0
 11
18.65368
 21
11.668056
 31
0.0
  0
HATCH
  5
1FF
102
{ACAD_REACTORS
330
1F8
102
}
100
AcDbEntity
  8
BUILDING_ENVELOPE
 62
     7
100
AcDbHatch
 10
0.0
 20
0.0
 30
0.0
210
0.0
220
0.0
230
1.0
  2
SOLID
 70
     1
 71
     1
 91
        2
 92
        1
 93
        6
 72
     1
 10
18.653680456016005
 20
11.6680555439140168
 11
18.653680456016005
 21
12.0013888772473507
 72
     1
 10
18.653680456016005
 20
12.0013888772473507
 11
18.4870137893493407
 21
12.0013888772473507
 72
     1
 10
18.4870137893493407
 20
12.0013888772473507
 11
18.4870137893493407
 21
11.8763888772473507
 72
     1
 10
18.4870137893493407
 20
11.8763888772473507
 11
18.4870137893493407
 21
11.7513888772473507
 72
     1
 10
18.4870137893493407
 20
11.7513888772473507
 11
18.4870137893493407
 21
11.6680555439140168
 72
     1
 10
18.4870137893493407
 20
11.6680555439140168
 11
18.653680456016005
 21
11.6680555439140168
 97
        6
330
1F9
330
1FA
330
1FB
330
1FC
330
1FD
330
1FE
 92
        1
 93
        6
 72
     1
 10
13.3203471226826728
 20
11.6680555439140168
 11
13.3203471226826728
 21
12.0013888772473507
 72
     1
 10
13.3203471226826728
 20
12.0013888772473507
 11
13.4870137893493407
 21
12.0013888772473507
 72
     1
 10
13.4870137893493407
 20
12.0013888772473507
 11
13.4870137893493407
 21
11.8763888772473507
 72
     1
 10
13.4870137893493407
 20
11.8763888772473507
 11
13.4870137893493407
 21
11.7513888772473507
 72
     1
 10
13.4870137893493407
 20
11.7513888772473507
 11
13.4870137893493407
 21
11.6680555439140168
 72
     1
 10
13.4870137893493407
 20
11.6680555439140168
 11
13.3203471226826728
 21
11.6680555439140168
 97
        5
330
200
330
201
330
202
330
203
330
204
 75
     0
 76
     1
 98
        0
  0
LINE
  5
200
102
{ACAD_REACTORS
330
1FF
102
}
100
AcDbEntity
  8
BUILDING_ENVELOPE
  6
CONTINUOUS
 62
     7
100
AcDbLine
 10
13.320347
 20
11.668056
 30
0.0
 11
13.320347
 21
12.001389
 31
0.0
  0
LINE
  5
201
102
{ACAD_REACTORS
330
1FF
102
}
100
AcDbEntity
  8
BUILDING_ENVELOPE
  6
CONTINUOUS
 62
     7
100
AcDbLine
 10
13.320347
 20
12.001389
 30
0.0
 11
13.487014
 21
12.001389
 31
0.0
  0
LINE
  5
202
102
{ACAD_REACTORS
330
1FF
102
}
100
AcDbEntity
  8
BUILDING_ENVELOPE
  6
CONTINUOUS
 62
     7
100
AcDbLine
 10
13.487014
 20
12.001389
 30
0.0
 11
13.487014
 21
11.876389
 31
0.0
  0
LINE
  5
203
102
{ACAD_REACTORS
330
1FF
102
}
100
AcDbEntity
  8
BUILDING_ENVELOPE
  6
CONTINUOUS
 62
     7
100
AcDbLine
 10
13.487014
 20
11.751389
 30
0.0
 11
13.487014
 21
11.668056
 31
0.0
  0
LINE
  5
204
102
{ACAD_REACTORS
330
1FF
102
}
100
AcDbEntity
  8
BUILDING_ENVELOPE
  6
CONTINUOUS
 62
     7
100
AcDbLine
 10
13.487014
 20
11.668056
 30
0.0
 11
13.320347
 21
11.668056
 31
0.0
  0
LINE
  5
205
102
{ACAD_REACTORS
330
208
102
}
100
AcDbEntity
  8
BUILDING_ENVELOPE
  6
CONTINUOUS
 62
     7
100
AcDbLine
 10
18.487014
 20
11.876389
 30
0.0
 11
18.445347
 21
11.876389
 31
0.0
  0
LINE
  5
206
102
{ACAD_REACTORS
330
208
102
}
100
AcDbEntity
  8
BUILDING_ENVELOPE
  6
CONTINUOUS
 62
     7
100
AcDbLine
 10
18.445347
 20
11.876389
 30
0.0
 11
18.445347
 21
11.751389
 31
0.0
  0
LINE
  5
207
102
{ACAD_REACTORS
330
208
102
}
100
AcDbEntity
  8
BUILDING_ENVELOPE
  6
CONTINUOUS
 62
     7
100
AcDbLine
 10
18.445347
 20
11.751389
 30
0.0
 11
18.487014
 21
11.751389
 31
0.0
  0
HATCH
  5
208
102
{ACAD_REACTORS
330
1F8
102
}
100
AcDbEntity
  8
BUILDING_ENVELOPE
 62
     7
100
AcDbHatch
 10
0.0
 20
0.0
 30
0.0
210
0.0
220
0.0
230
1.0
  2
SOLID
 70
     1
 71
     1
 91
        2
 92
        1
 93
        4
 72
     1
 10
18.4870137893493407
 20
11.8763888772473507
 11
18.4453471226826728
 21
11.8763888772473507
 72
     1
 10
18.4453471226826728
 20
11.8763888772473507
 11
18.4453471226826728
 21
11.7513888772473507
 72
     1
 10
18.4453471226826728
 20
11.7513888772473507
 11
18.4870137893493407
 21
11.7513888772473507
 72
     1
 10
18.4870137893493407
 20
11.7513888772473507
 11
18.4870137893493407
 21
11.8763888772473507
 97
        3
330
205
330
206
330
207
 92
        1
 93
        4
 72
     1
 10
13.4870137893493407
 20
11.8763888772473507
 11
13.5286804560160068
 21
11.8763888772473507
 72
     1
 10
13.5286804560160068
 20
11.8763888772473507
 11
13.5286804560160068
 21
11.7513888772473507
 72
     1
 10
13.5286804560160068
 20
11.7513888772473507
 11
13.4870137893493407
 21
11.7513888772473507
 72
     1
 10
13.4870137893493407
 20
11.7513888772473507
 11
13.4870137893493407
 21
11.8763888772473507
 97
        3
330
209
330
20A
330
20B
 75
     0
 76
     1
 98
        0
  0
LINE
  5
209
102
{ACAD_REACTORS
330
208
102
}
100
AcDbEntity
  8
BUILDING_ENVELOPE
  6
CONTINUOUS
 62
     7
100
AcDbLine
 10
13.487014
 20
11.876389
 30
0.0
 11
13.52868
 21
11.876389
 31
0.0
  0
LINE
  5
20A
102
{ACAD_REACTORS
330
208
102
}
100
AcDbEntity
  8
BUILDING_ENVELOPE
  6
CONTINUOUS
 62
     7
100
AcDbLine
 10
13.52868
 20
11.876389
 30
0.0
 11
13.52868
 21
11.751389
 31
0.0
  0
LINE
  5
20B
102
{ACAD_REACTORS
330
208
102
}
100
AcDbEntity
  8
BUILDING_ENVELOPE
  6
CONTINUOUS
 62
     7
100
AcDbLine
 10
13.52868
 20
11.751389
 30
0.0
 11
13.487014
 21
11.751389
 31
0.0
  0
LINE
  5
20C
102
{ACAD_REACTORS
330
1F8
102
}
100
AcDbEntity
  8
BUILDING_ENVELOPE
  6
CONTINUOUS
 62
     7
100
AcDbLine
 10
18.65368
 20
11.668056
 30
0.0
 11
18.65368
 21
12.001389
 31
0.0
  0
LINE
  5
20D
102
{ACAD_REACTORS
330
1F8
102
}
100
AcDbEntity
  8
BUILDING_ENVELOPE
  6
CONTINUOUS
 62
     7
100
AcDbLine
 10
13.320347
 20
11.668056
 30
0.0
 11
13.320347
 21
12.001389
 31
0.0
  0
ARC
  5
20E
102
{ACAD_REACTORS
330
1F8
102
}
100
AcDbEntity
  8
BUILDING_ENVELOPE
  6
CONTINUOUS
 62
     7
100
AcDbCircle
 10
13.487014
 20
12.001389
 30
0.0
 40
2.5
100
AcDbArc
 50
0.0
 51
90.0
  0
ARC
  5
20F
102
{ACAD_REACTORS
330
1F8
102
}
100
AcDbEntity
  8
BUILDING_ENVELOPE
  6
CONTINUOUS
 62
     7
100
AcDbCircle
 10
18.487014
 20
12.001389
 30
0.0
 40
2.5
100
AcDbArc
 50
90.0
 51
180.0
  0
LWPOLYLINE
  5
210
102
{ACAD_REACTORS
330
211
102
}
100
AcDbEntity
  8
BUILDING_ENVELOPE
  6
CONTINUOUS
 62
     7
100
AcDbPolyline
 90
        4
 70
     1
 10
13.487014
 20
14.501389
 10
13.487014
 20
12.001389
 10
13.612014
 20
12.001389
 10
13.612014
 20
14.501389
  0
HATCH
  5
211
102
{ACAD_REACTORS
330
1F8
102
}
100
AcDbEntity
  8
BUILDING_ENVELOPE
 62
     7
100
AcDbHatch
 10
0.0
 20
0.0
 30
0.0
210
0.0
220
0.0
230
1.0
  2
SOLID
 70
     1
 71
     1
 91
        1
 92
        3
 72
     0
 73
     1
 93
        4
 10
13.4870137893493407
 20
14.5013888772473507
 10
13.4870137893493407
 20
12.0013888772473507
 10
13.6120137893493407
 20
12.0013888772473507
 10
13.6120137893493407
 20
14.5013888772473507
 97
        1
330
210
 75
     0
 76
     1
 98
        0
  0
LWPOLYLINE
  5
212
102
{ACAD_REACTORS
330
213
102
}
100
AcDbEntity
  8
BUILDING_ENVELOPE
  6
CONTINUOUS
 62
     7
100
AcDbPolyline
 90
        4
 70
     1
 10
18.362014
 20
14.501389
 10
18.362014
 20
12.001389
 10
18.487014
 20
12.001389
 10
18.487014
 20
14.501389
  0
HATCH
  5
213
102
{ACAD_REACTORS
330
1F8
102
}
100
AcDbEntity
  8
BUILDING_ENVELOPE
 62
     7
100
AcDbHatch
 10
0.0
 20
0.0
 30
0.0
210
0.0
220
0.0
230
1.0
  2
SOLID
 70
     1
 71
     1
 91
        1
 92
        3
 72
     0
 73
     1
 93
        4
 10
18.3620137893493407
 20
14.5013888772473507
 10
18.3620137893493407
 20
12.0013888772473507
 10
18.4870137893493407
 20
12.0013888772473507
 10
18.4870137893493407
 20
14.5013888772473507
 97
        1
330
212
 75
     0
 76
     1
 98
        0
  0
ENDSEC
  0
SECTION
  2
OBJECTS
  0
DICTIONARY
  5
C
100
AcDbDictionary
  3
ACAD_GROUP
350
D
  3
ACAD_MLINESTYLE
350
1B
  3
ACAD_SCALELIST
350
2C
  3
ACAD_VISUALSTYLE
350
51
  3
ACAD_MATERIAL
350
6A
  3
ACAD_TABLESTYLE
350
6E
  3
ACAD_MLEADERSTYLE
350
70
  0
DICTIONARY
  5
D
102
{ACAD_REACTORS
330
C
102
}
100
AcDbDictionary
  3
VISIOGROUP_0
350
74
  3
VISIOGROUP_1
350
79
  3
VISIOGROUP_2
350
80
  3
VISIOGROUP_3
350
84
  3
VISIOGROUP_4
350
88
  3
VISIOGROUP_5
350
8C
  3
VISIOGROUP_6
350
90
  3
VISIOGROUP_7
350
97
  3
VISIOGROUP_8
350
9E
  3
VISIOGROUP_9
350
A2
  3
VISIOGROUP_10
350
A8
  3
VISIOGROUP_11
350
AD
  3
VISIOGROUP_12
350
B2
  3
VISIOGROUP_13
350
B7
  3
VISIOGROUP_14
350
C0
  3
VISIOGROUP_15
350
C9
  3
VISIOGROUP_16
350
D2
  3
VISIOGROUP_17
350
D9
  3
VISIOGROUP_18
350
E0
  3
VISIOGROUP_19
350
E7
  3
VISIOGROUP_20
350
EE
  3
VISIOGROUP_21
350
F7
  3
VISIOGROUP_22
350
100
  3
VISIOGROUP_23
350
113
  3
VISIOGROUP_24
350
11A
  3
VISIOGROUP_25
350
130
  3
VISIOGROUP_26
350
149
  3
VISIOGROUP_27
350
162
  3
VISIOGROUP_28
350
17B
  3
VISIOGROUP_29
350
194
  3
VISIOGROUP_30
350
1AD
  3
VISIOGROUP_31
350
1C6
  3
VISIOGROUP_32
350
1DF
  3
VISIOGROUP_33
350
1F8
  0
DICTIONARY
  5
1B
102
{ACAD_REACTORS
330
C
102
}
100
AcDbDictionary
  3
STANDARD
350
1C
  0
MLINESTYLE
  5
1C
102
{ACAD_REACTORS
330
1B
102
}
100
AcDbMlineStyle
  2
STANDARD
 70
     0
  3

 62
   256
 51
90.0
 52
90.0
 71
     2
 49
0.5
 62
   256
  6
BYLAYER
 49
-0.5
 62
   256
  6
BYLAYER
  0
DICTIONARY
  5
29
102
{ACAD_REACTORS
330
C
102
}
100
AcDbDictionary
  0
DICTIONARY
  5
2C
102
{ACAD_REACTORS
330
C
102
}
100
AcDbDictionary
  3
A0
350
2D
  3
A1
350
2E
  3
A2
350
2F
  3
A3
350
30
  3
A4
350
31
  3
A5
350
32
  3
A6
350
33
  3
A7
350
34
  3
A8
350
35
  3
A9
350
36
  3
B0
350
37
  3
B1
350
38
  3
B2
350
39
  3
B3
350
3A
  3
B4
350
3B
  3
B5
350
3C
  3
B6
350
3D
  3
B7
350
3E
  3
B8
350
3F
  3
B9
350
40
  3
C0
350
41
  3
C1
350
42
  3
C2
350
43
  3
C3
350
44
  3
C4
350
45
  3
C5
350
46
  3
C6
350
47
  3
C7
350
48
  3
C8
350
49
  3
C9
350
4A
  3
D0
350
4B
  3
D1
350
4C
  3
D2
350
4D
  0
DICTIONARY
  5
4E
102
{ACAD_REACTORS
330
C
102
}
100
AcDbDictionary
  3
MODEL
350
4F
  3
LAYOUT1
350
50
  0
DICTIONARY
  5
51
102
{ACAD_REACTORS
330
C
102
}
100
AcDbDictionary
  3
FLAT
350
52
  3
FLATWITHEDGES
350
53
  3
GOURAUD
350
54
  3
GOURAUDWITHEDGES
350
55
  3
2DWIREFRAME
350
56
  3
WIREFRAME
350
57
  3
HIDDEN
350
58
  3
BASIC
350
59
  3
REALISTIC
350
5A
  3
CONCEPTUAL
350
5B
  3
DIM
350
5C
  3
BRIGHTEN
350
5D
  3
THICKEN
350
5E
  3
LINEPATTERN
350
5F
  3
FACEPATTERN
350
60
  3
COLORCHANGE
350
61
  3
JITTEROFF
350
62
  3
OVERHANGOFF
350
63
  3
EDGECOLOROFF
350
64
  3
SHADES OF GRAY
350
65
  3
SKETCHY
350
66
  3
X-RAY
350
67
  3
SHADED WITH EDGES
350
68
  3
SHADED
350
69
  0
DICTIONARY
  5
6A
102
{ACAD_REACTORS
330
C
102
}
100
AcDbDictionary
  3
BYLAYER
350
6B
  3
BYBLOCK
350
6C
  3
GLOBAL
350
6D
  0
DICTIONARY
  5
6E
102
{ACAD_REACTORS
330
C
102
}
100
AcDbDictionary
  3
STANDARD
350
6F
  0
DICTIONARY
  5
70
102
{ACAD_REACTORS
330
C
102
}
100
AcDbDictionary
  3
STANDARD
350
71
  0
GROUP
  5
74
102
{ACAD_REACTORS
330
D
102
}
100
AcDbGroup
300
Group created by Visio.
 70
     0
 71
     1
340
76
340
77
  0
GROUP
  5
79
102
{ACAD_REACTORS
330
D
102
}
100
AcDbGroup
300
Group created by Visio.
 70
     0
 71
     1
340
7A
340
7B
340
7C
340
7D
340
7E
  0
GROUP
  5
80
102
{ACAD_REACTORS
330
D
102
}
100
AcDbGroup
300
Group created by Visio.
 70
     0
 71
     1
340
81
340
82
  0
GROUP
  5
84
102
{ACAD_REACTORS
330
D
102
}
100
AcDbGroup
300
Group created by Visio.
 70
     0
 71
     1
340
85
340
86
  0
GROUP
  5
88
102
{ACAD_REACTORS
330
D
102
}
100
AcDbGroup
300
Group created by Visio.
 70
     0
 71
     1
340
89
340
8A
  0
GROUP
  5
8C
102
{ACAD_REACTORS
330
D
102
}
100
AcDbGroup
300
Group created by Visio.
 70
     0
 71
     1
340
8D
340
8E
  0
GROUP
  5
90
102
{ACAD_REACTORS
330
D
102
}
100
AcDbGroup
300
Group created by Visio.
 70
     0
 71
     1
340
91
340
92
340
93
340
94
340
95
  0
GROUP
  5
97
102
{ACAD_REACTORS
330
D
102
}
100
AcDbGroup
300
Group created by Visio.
 70
     0
 71
     1
340
98
340
99
340
9A
340
9B
340
9C
  0
GROUP
  5
9E
102
{ACAD_REACTORS
330
D
102
}
100
AcDbGroup
300
Group created by Visio.
 70
     0
 71
     1
340
9F
340
A0
  0
GROUP
  5
A2
102
{ACAD_REACTORS
330
D
102
}
100
AcDbGroup
300
Group created by Visio.
 70
     0
 71
     1
340
A4
340
A5
340
A6
340
A7
  0
GROUP
  5
A8
102
{ACAD_REACTORS
330
D
102
}
100
AcDbGroup
300
Group created by Visio.
 70
     0
 71
     1
340
A9
340
AA
340
AB
340
AC
  0
GROUP
  5
AD
102
{ACAD_REACTORS
330
D
102
}
100
AcDbGroup
300
Group created by Visio.
 70
     0
 71
     1
340
AE
340
AF
340
B0
340
B1
  0
GROUP
  5
B2
102
{ACAD_REACTORS
330
D
102
}
100
AcDbGroup
300
Group created by Visio.
 70
     0
 71
     1
340
B3
340
B4
340
B5
340
B6
  0
GROUP
  5
B7
102
{ACAD_REACTORS
330
D
102
}
100
AcDbGroup
300
Group created by Visio.
 70
     0
 71
     1
340
B8
340
B9
340
BA
340
BB
340
BC
340
BD
340
BE
340
BF
  0
GROUP
  5
C0
102
{ACAD_REACTORS
330
D
102
}
100
AcDbGroup
300
Group created by Visio.
 70
     0
 71
     1
340
C1
340
C2
340
C3
340
C4
340
C5
340
C6
340
C7
340
C8
  0
GROUP
  5
C9
102
{ACAD_REACTORS
330
D
102
}
100
AcDbGroup
300
Group created by Visio.
 70
     0
 71
     1
340
CA
340
CB
340
CC
340
CD
340
CE
340
CF
340
D0
340
D1
  0
GROUP
  5
D2
102
{ACAD_REACTORS
330
D
102
}
100
AcDbGroup
300
Group created by Visio.
 70
     0
 71
     1
340
D3
340
D4
340
D5
340
D6
340
D7
340
D8
  0
GROUP
  5
D9
102
{ACAD_REACTORS
330
D
102
}
100
AcDbGroup
300
Group created by Visio.
 70
     0
 71
     1
340
DA
340
DB
340
DC
340
DD
340
DE
340
DF
  0
GROUP
  5
E0
102
{ACAD_REACTORS
330
D
102
}
100
AcDbGroup
300
Group created by Visio.
 70
     0
 71
     1
340
E1
340
E2
340
E3
340
E4
340
E5
340
E6
  0
GROUP
  5
E7
102
{ACAD_REACTORS
330
D
102
}
100
AcDbGroup
300
Group created by Visio.
 70
     0
 71
     1
340
E8
340
E9
340
EA
340
EB
340
EC
340
ED
  0
GROUP
  5
EE
102
{ACAD_REACTORS
330
D
102
}
100
AcDbGroup
300
Group created by Visio.
 70
     0
 71
     1
340
EF
340
F0
340
F1
340
F2
340
F3
340
F4
340
F5
340
F6
  0
GROUP
  5
F7
102
{ACAD_REACTORS
330
D
102
}
100
AcDbGroup
300
Group created by Visio.
 70
     0
 71
     1
340
F8
340
F9
340
FA
340
FB
340
FC
340
FD
340
FE
340
FF
  0
GROUP
  5
100
102
{ACAD_REACTORS
330
D
102
}
100
AcDbGroup
300
Group created by Visio.
 70
     0
 71
     1
340
101
340
103
340
104
340
105
340
106
340
107
340
108
340
109
340
10A
340
10B
340
102
340
10E
340
10F
340
110
340
111
340
112
  0
GROUP
  5
113
102
{ACAD_REACTORS
330
D
102
}
100
AcDbGroup
300
Group created by Visio.
 70
     0
 71
     1
340
114
340
115
340
116
340
117
340
118
340
119
  0
GROUP
  5
11A
102
{ACAD_REACTORS
330
D
102
}
100
AcDbGroup
300
Group created by Visio.
 70
     0
 71
     1
340
11B
340
11C
340
11D
340
11E
340
11F
340
120
340
122
340
123
340
124
340
125
340
126
340
121
340
127
340
129
340
128
340
12A
340
12B
340
12C
340
12D
340
12F
340
12E
  0
GROUP
  5
130
102
{ACAD_REACTORS
330
D
102
}
100
AcDbGroup
300
Group created by Visio.
 70
     0
 71
     1
340
131
340
132
340
133
340
134
340
135
340
136
340
138
340
139
340
13A
340
13B
340
13C
340
137
340
13D
340
13E
340
13F
340
141
340
142
340
143
340
140
340
144
340
145
340
146
340
147
340
148
  0
GROUP
  5
149
102
{ACAD_REACTORS
330
D
102
}
100
AcDbGroup
300
Group created by Visio.
 70
     0
 71
     1
340
14A
340
14B
340
14C
340
14D
340
14E
340
14F
340
151
340
152
340
153
340
154
340
155
340
150
340
156
340
157
340
158
340
15A
340
15B
340
15C
340
159
340
15D
340
15E
340
15F
340
160
340
161
  0
GROUP
  5
162
102
{ACAD_REACTORS
330
D
102
}
100
AcDbGroup
300
Group created by Visio.
 70
     0
 71
     1
340
163
340
164
340
165
340
166
340
167
340
168
340
16A
340
16B
340
16C
340
16D
340
16E
340
169
340
16F
340
170
340
171
340
173
340
174
340
175
340
172
340
176
340
177
340
178
340
179
340
17A
  0
GROUP
  5
17B
102
{ACAD_REACTORS
330
D
102
}
100
AcDbGroup
300
Group created by Visio.
 70
     0
 71
     1
340
17C
340
17D
340
17E
340
17F
340
180
340
181
340
183
340
184
340
185
340
186
340
187
340
182
340
188
340
189
340
18A
340
18C
340
18D
340
18E
340
18B
340
18F
340
190
340
191
340
192
340
193
  0
GROUP
  5
194
102
{ACAD_REACTORS
330
D
102
}
100
AcDbGroup
300
Group created by Visio.
 70
     0
 71
     1
340
195
340
196
340
197
340
198
340
199
340
19A
340
19C
340
19D
340
19E
340
19F
340
1A0
340
19B
340
1A1
340
1A2
340
1A3
340
1A5
340
1A6
340
1A7
340
1A4
340
1A8
340
1A9
340
1AA
340
1AB
340
1AC
  0
GROUP
  5
1AD
102
{ACAD_REACTORS
330
D
102
}
100
AcDbGroup
300
Group created by Visio.
 70
     0
 71
     1
340
1AE
340
1AF
340
1B0
340
1B1
340
1B2
340
1B3
340
1B5
340
1B6
340
1B7
340
1B8
340
1B9
340
1B4
340
1BA
340
1BB
340
1BC
340
1BE
340
1BF
340
1C0
340
1BD
340
1C1
340
1C2
340
1C3
340
1C4
340
1C5
  0
GROUP
  5
1C6
102
{ACAD_REACTORS
330
D
102
}
100
AcDbGroup
300
Group created by Visio.
 70
     0
 71
     1
340
1C7
340
1C8
340
1C9
340
1CA
340
1CB
340
1CC
340
1CE
340
1CF
340
1D0
340
1D1
340
1D2
340
1CD
340
1D3
340
1D4
340
1D5
340
1D7
340
1D8
340
1D9
340
1D6
340
1DA
340
1DB
340
1DC
340
1DD
340
1DE
  0
GROUP
  5
1DF
102
{ACAD_REACTORS
330
D
102
}
100
AcDbGroup
300
Group created by Visio.
 70
     0
 71
     1
340
1E0
340
1E1
340
1E2
340
1E3
340
1E4
340
1E5
340
1E7
340
1E8
340
1E9
340
1EA
340
1EB
340
1E6
340
1EC
340
1ED
340
1EE
340
1F0
340
1F1
340
1F2
340
1EF
340
1F3
340
1F4
340
1F5
340
1F6
340
1F7
  0
GROUP
  5
1F8
102
{ACAD_REACTORS
330
D
102
}
100
AcDbGroup
300
Group created by Visio.
 70
     0
 71
     1
340
1F9
340
1FA
340
1FB
340
1FC
340
1FD
340
1FE
340
200
340
201
340
202
340
203
340
204
340
1FF
340
205
340
206
340
207
340
209
340
20A
340
20B
340
208
340
20C
340
20D
340
20E
340
20F
340
210
340
211
340
212
340
213
  0
ENDSEC
  0
EOF
