  0
SECTION
  2
HEADER
  9
$ACADVER
  1
AC1014
  9
$ACADMAINTVER
 70
     0
  9
$DWGCODEPAGE
  3
ANSI_1252
  9
$INSBASE
 10
0.0
 20
0.0
 30
0.0
  9
$EXTMIN
 10
0.0
 20
0.0
 30
0.0
  9
$EXTMAX
 10
27.508533
 20
47.7752
 30
0.0
  9
$LIMMIN
 10
0.0
 20
0.0
  9
$LIMMAX
 10
12.0
 20
9.0
  9
$ORTHOMODE
 70
     0
  9
$REGENMODE
 70
     1
  9
$FILLMODE
 70
     0
  9
$QTEXTMODE
 70
     0
  9
$MIRRTEXT
 70
     1
  9
$DRAGMODE
 70
     2
  9
$LTSCALE
 40
1.0
  9
$OSMODE
 70
    37
  9
$ATTMODE
 70
     1
  9
$TEXTSIZE
 40
0.2
  9
$TRACEWID
 40
0.05
  9
$TEXTSTYLE
  7
STANDARD
  9
$CLAYER
  8
0
  9
$CELTYPE
  6
BYLAYER
  9
$CECOLOR
 62
   256
  9
$CELTSCALE
 40
1.0
  9
$DELOBJ
 70
     1
  9
$DISPSILH
 70
     0
  9
$DIMSCALE
 40
1.0
  9
$DIMASZ
 40
0.18
  9
$DIMEXO
 40
0.0625
  9
$DIMDLI
 40
0.38
  9
$DIMRND
 40
0.0
  9
$DIMDLE
 40
0.0
  9
$DIMEXE
 40
0.18
  9
$DIMTP
 40
0.0
  9
$DIMTM
 40
0.0
  9
$DIMTXT
 40
0.18
  9
$DIMCEN
 40
0.09
  9
$DIMTSZ
 40
0.0
  9
$DIMTOL
 70
     0
  9
$DIMLIM
 70
     0
  9
$DIMTIH
 70
     0
  9
$DIMTOH
 70
     0
  9
$DIMSE1
 70
     0
  9
$DIMSE2
 70
     0
  9
$DIMTAD
 70
     1
  9
$DIMZIN
 70
     0
  9
$DIMBLK
  1

  9
$DIMASO
 70
     1
  9
$DIMSHO
 70
     1
  9
$DIMPOST
  1

  9
$DIMAPOST
  1

  9
$DIMALT
 70
     0
  9
$DIMALTD
 70
     2
  9
$DIMALTF
 40
25.4
  9
$DIMLFAC
 40
1.0
  9
$DIMTOFL
 70
     0
  9
$DIMTVP
 40
0.0
  9
$DIMTIX
 70
     0
  9
$DIMSOXD
 70
     0
  9
$DIMSAH
 70
     0
  9
$DIMBLK1
  1

  9
$DIMBLK2
  1

  9
$DIMSTYLE
  2
STANDARD
  9
$DIMCLRD
 70
     0
  9
$DIMCLRE
 70
     0
  9
$DIMCLRT
 70
     0
  9
$DIMTFAC
 40
1.0
  9
$DIMGAP
 40
0.09
  9
$DIMJUST
 70
     0
  9
$DIMSD1
 70
     0
  9
$DIMSD2
 70
     0
  9
$DIMTOLJ
 70
     1
  9
$DIMTZIN
 70
     0
  9
$DIMALTZ
 70
     0
  9
$DIMALTTZ
 70
     0
  9
$DIMFIT
 70
     5
  9
$DIMUPT
 70
     0
  9
$DIMUNIT
 70
     2
  9
$DIMDEC
 70
     2
  9
$DIMTDEC
 70
     4
  9
$DIMALTU
 70
     2
  9
$DIMALTTD
 70
     2
  9
$DIMTXSTY
  7
STANDARD
  9
$DIMAUNIT
 70
     0
  9
$LUNITS
 70
     2
  9
$LUPREC
 70
     4
  9
$SKETCHINC
 40
0.1
  9
$FILLETRAD
 40
0.5
  9
$AUNITS
 70
     0
  9
$AUPREC
 70
     0
  9
$MENU
  1
.
  9
$ELEVATION
 40
0.0
  9
$PELEVATION
 40
0.0
  9
$THICKNESS
 40
0.0
  9
$LIMCHECK
 70
     0
  9
$BLIPMODE
 70
     0
  9
$CHAMFERA
 40
0.5
  9
$CHAMFERB
 40
0.5
  9
$CHAMFERC
 40
1.0
  9
$CHAMFERD
 40
0.0
  9
$SKPOLY
 70
     0
  9
$TDCREATE
 40
2450772.666465926
  9
$TDUPDATE
 40
2460687.890625000
  9
$TDINDWG
 40
0.0011680671
  9
$TDUSRTIMER
 40
0.0011680671
  9
$USRTIMER
 70
     1
  9
$ANGBASE
 50
0.0
  9
$ANGDIR
 70
     0
  9
$PDMODE
 70
     0
  9
$PDSIZE
 40
0.0
  9
$PLINEWID
 40
0.0
  9
$COORDS
 70
     1
  9
$SPLFRAME
 70
     0
  9
$SPLINETYPE
 70
     6
  9
$SPLINESEGS
 70
     8
  9
$ATTDIA
 70
     0
  9
$ATTREQ
 70
     1
  9
$HANDLING
 70
     1
  9
$HANDSEED
  5
29B
  9
$SURFTAB1
 70
     6
  9
$SURFTAB2
 70
     6
  9
$SURFTYPE
 70
     6
  9
$SURFU
 70
     6
  9
$SURFV
 70
     6
  9
$UCSNAME
  2

  9
$UCSORG
 10
0.0
 20
0.0
 30
0.0
  9
$UCSXDIR
 10
1.0
 20
0.0
 30
0.0
  9
$UCSYDIR
 10
0.0
 20
1.0
 30
0.0
  9
$PUCSNAME
  2

  9
$PUCSORG
 10
0.0
 20
0.0
 30
0.0
  9
$PUCSXDIR
 10
1.0
 20
0.0
 30
0.0
  9
$PUCSYDIR
 10
0.0
 20
1.0
 30
0.0
  9
$USERI1
 70
     0
  9
$USERI2
 70
     0
  9
$USERI3
 70
     0
  9
$USERI4
 70
     0
  9
$USERI5
 70
     0
  9
$USERR1
 40
0.0
  9
$USERR2
 40
0.0
  9
$USERR3
 40
0.0
  9
$USERR4
 40
0.0
  9
$USERR5
 40
0.0
  9
$WORLDVIEW
 70
     1
  9
$SHADEDGE
 70
     3
  9
$SHADEDIF
 70
    70
  9
$TILEMODE
 70
     1
  9
$MAXACTVP
 70
    48
  9
$PINSBASE
 10
0.0
 20
0.0
 30
0.0
  9
$PLIMCHECK
 70
     0
  9
$PEXTMIN
 10
0.0
 20
0.0
 30
0.0
  9
$PEXTMAX
 10
0.0
 20
0.0
 30
0.0
  9
$PLIMMIN
 10
0.0
 20
0.0
  9
$PLIMMAX
 10
12.0
 20
9.0
  9
$UNITMODE
 70
     0
  9
$VISRETAIN
 70
     1
  9
$PLINEGEN
 70
     0
  9
$PSLTSCALE
 70
     1
  9
$TREEDEPTH
 70
  3020
  9
$PICKSTYLE
 70
     1
  9
$CMLSTYLE
  2
STANDARD
  9
$CMLJUST
 70
     0
  9
$CMLSCALE
 40
1.0
  9
$PROXYGRAPHICS
 70
     1
  9
$MEASUREMENT
 70
     0
  0
ENDSEC
  0
SECTION
  2
CLASSES
  0
CLASS
  1
LWPOLYLINE
  2
AcDbPolyline
  3
ObjectDBX Classes
 90
       20
280
     0
281
     1
  0
CLASS
  1
IMAGE
  2
AcDbRasterImage
  3
ISM
 90
       21
280
     0
281
     1
  0
CLASS
  1
OLE2FRAME
  2
AcDbOle2Frame
  3
ObjectDBX Classes
 90
       21
280
     0
281
     1
  0
CLASS
  1
HATCH
  2
AcDbHatch
  3
ObjectDBX Classes
 90
       20
280
     0
281
     1
  0
CLASS
  1
DICTIONARYVAR
  2
AcDbDictionaryVar
  3
ObjectDBX Classes
 90
       20
280
     0
281
     0
  0
CLASS
  1
RASTERVARIABLES
  2
AcDbRasterVariables
  3
ISM
 90
       21
280
     0
281
     0
  0
CLASS
  1
IMAGEDEF
  2
AcDbRasterImageDef
  3
ISM
 90
       21
280
     0
281
     0
  0
CLASS
  1
IMAGEDEF_REACTOR
  2
AcDbRasterImageDefReactor
  3
ISM
 90
       21
280
     0
281
     0
  0
CLASS
  1
IDBUFFER
  2
AcDbIdBuffer
  3
ObjectDBX Classes
 90
       20
280
     0
281
     0
  0
CLASS
  1
SPATIAL_FILTER
  2
AcDbSpatialFilter
  3
ObjectDBX Classes
 90
       20
280
     0
281
     0
  0
CLASS
  1
XRECORD
  2
AcDbXrecord
  3
ObjectDBX Classes
 90
       21
280
     0
281
     0
  0
CLASS
  1
ACDBDICTIONARYWDFLT
  2
AcDbDictionaryWithDefault
  3
ObjectDBX Classes
 90
       22
280
     0
281
     0
  0
CLASS
  1
SCALE
  2
AcDbScale
  3
ObjectDBX Classes
 90
       27
280
     0
281
     0
  0
CLASS
  1
VISUALSTYLE
  2
AcDbVisualStyle
  3
ObjectDBX Classes
 90
       26
280
     0
281
     0
  0
CLASS
  1
MATERIAL
  2
AcDbMaterial
  3
ObjectDBX Classes
 90
       23
280
     0
281
     0
  0
CLASS
  1
TABLESTYLE
  2
AcDbTableStyle
  3
ObjectDBX Classes
 90
       25
280
     0
281
     0
  0
CLASS
  1
MLEADERSTYLE
  2
AcDbMLeaderStyle
  3
ACDB_MLEADERSTYLE_CLASS
 90
       27
280
     0
281
     0
  0
CLASS
  1
SORTENTSTABLE
  2
AcDbSortentsTable
  3
"AutoCAD"
 90
        0
280
     0
281
     0
  0
CLASS
  1
LAYER_INDEX
  2
AcDbLayerIndex
  3
"Acad"
 90
        0
280
     0
281
     0
  0
CLASS
  1
SPATIAL_INDEX
  2
AcDbSpatialIndex
  3
"Acad"
 90
        0
280
     0
281
     0
  0
CLASS
  1
OBJECT_PTR
  2
CAseDLPNTableRecord
  3
"ASE-LPNTableRecord"
 90
        1
280
     0
281
     0
  0
CLASS
  1
LAYOUT
  2
AcDbLayout
  3
"AutoCAD 2000"
 90
        1
280
     0
281
     0
  0
CLASS
  1
PLOTSETTINGS
  2
AcDbPlotsettings
  3
"AutoCAD 2000"
 90
        1
280
     0
281
     0
  0
CLASS
  1
ACDBPLACEHOLDER
  2
AcDbPlaceholder
  3
"AutoCAD 2000"
 90
        1
280
     0
281
     0
  0
CLASS
  1
VBA_PROJECT
  2
AcDbVbaProject
  3
"AutoCAD 2000"
 90
        1
280
     0
281
     0
  0
CLASS
  1
WIPEOUT
  2
AcDbWipeout
  3
"AutoCAD 2000"
 90
        1
280
     0
281
     1
  0
CLASS
  1
WIPEOUTVARIABLES
  2
AcDbWipeoutVariables
  3
"AutoCAD 2000"
 90
        1
280
     0
281
     0
  0
CLASS
  1
RTEXT
  2
RText
  3
RText|AutoCAD Express Tool|expresstools@autodesk.com
 90
        1
280
     0
281
     1
  0
CLASS
  1
ARCALIGNEDTEXT
  2
AcDbArcAlignedText
  3
RText|AutoCAD Express Tool|expresstools@autodesk.com
 90
        1
280
     0
281
     1
  0
ENDSEC
  0
SECTION
  2
TABLES
  0
TABLE
  2
VPORT
  5
8
100
AcDbSymbolTable
 70
     1
  0
VPORT
  5
25
100
AcDbSymbolTableRecord
100
AcDbViewportTableRecord
  2
*ACTIVE
 70
     0
 10
0.0
 20
0.0
 11
1.0
 21
1.0
 12
13.754267
 22
23.8876
 13
0.0
 23
0.0
 14
0.5
 24
0.5
 15
0.5
 25
0.5
 16
0.0
 26
0.0
 36
1.0
 17
0.0
 27
0.0
 37
0.0
 40
47.7752
 41
0.575791
 42
50.0
 43
0.0
 44
0.0
 50
0.0
 51
0.0
 71
     0
 72
   100
 73
     1
 74
     1
 75
     0
 76
     0
 77
     0
 78
     0
  0
ENDTAB
  0
TABLE
  2
LTYPE
  5
5
100
AcDbSymbolTable
 70
     3
  0
LTYPE
  5
12
100
AcDbSymbolTableRecord
100
AcDbLinetypeTableRecord
  2
BYBLOCK
 70
     0
  3

 72
    65
 73
     0
 40
0.0
  0
LTYPE
  5
13
100
AcDbSymbolTableRecord
100
AcDbLinetypeTableRecord
  2
BYLAYER
 70
     0
  3

 72
    65
 73
     0
 40
0.0
  0
LTYPE
  5
14
100
AcDbSymbolTableRecord
100
AcDbLinetypeTableRecord
  2
CONTINUOUS
 70
     0
  3
Solid line
 72
    65
 73
     0
 40
0.0
  0
ENDTAB
  0
TABLE
  2
LAYER
  5
2
100
AcDbSymbolTable
 70
     6
  0
LAYER
  5
E
100
AcDbSymbolTableRecord
100
AcDbLayerTableRecord
  2
0
 70
     0
 62
     7
  6
CONTINUOUS
  0
LAYER
  5
75
100
AcDbSymbolTableRecord
100
AcDbLayerTableRecord
  2
SPACE
 70
     0
 62
     7
  6
CONTINUOUS
  0
LAYER
  5
B5
100
AcDbSymbolTableRecord
100
AcDbLayerTableRecord
  2
BUILDING_ENVELOPE
 70
     0
 62
     7
  6
CONTINUOUS
  0
LAYER
  5
1C2
100
AcDbSymbolTableRecord
100
AcDbLayerTableRecord
  2
LANDING
 70
     0
 62
     7
  6
CONTINUOUS
  0
LAYER
  5
1D1
100
AcDbSymbolTableRecord
100
AcDbLayerTableRecord
  2
STAIR
 70
     0
 62
     7
  6
CONTINUOUS
  0
LAYER
  5
20B
100
AcDbSymbolTableRecord
100
AcDbLayerTableRecord
  2
WALL
 70
     0
 62
     7
  6
CONTINUOUS
  0
ENDTAB
  0
TABLE
  2
STYLE
  5
3
100
AcDbSymbolTable
 70
     1
  0
STYLE
  5
F
100
AcDbSymbolTableRecord
100
AcDbTextStyleTableRecord
  2
STANDARD
 70
     0
 40
0.0
 41
1.0
 50
0.0
 71
     0
 42
0.2
  3
txt.shx
  4

  0
ENDTAB
  0
TABLE
  2
VIEW
  5
6
100
AcDbSymbolTable
 70
     0
  0
ENDTAB
  0
TABLE
  2
UCS
  5
7
100
AcDbSymbolTable
 70
     0
  0
ENDTAB
  0
TABLE
  2
APPID
  5
9
100
AcDbSymbolTable
 70
     1
  0
APPID
  5
10
100
AcDbSymbolTableRecord
100
AcDbRegAppTableRecord
  2
ACAD
 70
     0
  0
ENDTAB
  0
TABLE
  2
DIMSTYLE
  5
A
100
AcDbSymbolTable
 70
     1
  0
DIMSTYLE
105
1D
100
AcDbSymbolTableRecord
100
AcDbDimStyleTableRecord
  2
STANDARD
 70
     0
  3

  4

  5

  6

  7

 40
1.0
 41
0.18
 42
0.0625
 43
0.38
 44
0.18
 45
0.0
 46
0.0
 47
0.0
 48
0.0
 71
     0
 72
     0
 73
     1
 74
     1
 75
     0
 76
     0
 77
     0
 78
     0
140
0.18
141
0.09
142
0.0
143
25.4
144
1.0
145
0.0
146
1.0
147
0.09
170
     0
171
     2
172
     0
173
     0
174
     0
175
     0
176
     0
177
     0
178
     0
270
     2
271
     4
272
     4
273
     2
274
     2
275
     0
280
     0
281
     0
282
     0
283
     1
284
     0
285
     0
286
     0
287
     3
288
     0
340
F
  0
ENDTAB
  0
TABLE
  2
BLOCK_RECORD
  5
1
100
AcDbSymbolTable
 70
     8
  0
BLOCK_RECORD
  5
18
100
AcDbSymbolTableRecord
100
AcDbBlockTableRecord
  2
*MODEL_SPACE
  0
BLOCK_RECORD
  5
15
100
AcDbSymbolTableRecord
100
AcDbBlockTableRecord
  2
*PAPER_SPACE
  0
BLOCK_RECORD
  5
1EE
100
AcDbSymbolTableRecord
100
AcDbBlockTableRecord
  2
NONE_
  0
BLOCK_RECORD
  5
1F1
100
AcDbSymbolTableRecord
100
AcDbBlockTableRecord
  2
WALL
  0
BLOCK_RECORD
  5
1F8
100
AcDbSymbolTableRecord
100
AcDbBlockTableRecord
  2
SPACE
  0
BLOCK_RECORD
  5
210
100
AcDbSymbolTableRecord
100
AcDbBlockTableRecord
  2
CORNER_LANDING
  0
BLOCK_RECORD
  5
216
100
AcDbSymbolTableRecord
100
AcDbBlockTableRecord
  2
STRAIGHT_STAIRCASE
  0
BLOCK_RECORD
  5
23D
100
AcDbSymbolTableRecord
100
AcDbBlockTableRecord
  2
DOOR
  0
BLOCK_RECORD
  5
255
100
AcDbSymbolTableRecord
100
AcDbBlockTableRecord
  2
OPENING
  0
BLOCK_RECORD
  5
271
100
AcDbSymbolTableRecord
100
AcDbBlockTableRecord
  2
CASEMENT
  0
ENDTAB
  0
ENDSEC
  0
SECTION
  2
BLOCKS
  0
BLOCK
  5
19
100
AcDbEntity
  8
0
100
AcDbBlockBegin
  2
*MODEL_SPACE
 70
     0
 10
0.0
 20
0.0
 30
0.0
  3
*MODEL_SPACE
  1

  0
ENDBLK
  5
1A
100
AcDbEntity
  8
0
100
AcDbBlockEnd
  0
BLOCK
  5
16
100
AcDbEntity
 67
     1
  8
0
100
AcDbBlockBegin
  2
*PAPER_SPACE
 70
     0
 10
0.0
 20
0.0
 30
0.0
  3
*PAPER_SPACE
  1

  0
ENDBLK
  5
17
100
AcDbEntity
 67
     1
  8
0
100
AcDbBlockEnd
  0
BLOCK
  5
1EF
100
AcDbEntity
  8
0
100
AcDbBlockBegin
  2
NONE_
 70
     2
 10
0.0
 20
0.0
 30
0.0
  3
NONE_
  1

  0
ENDBLK
  5
1F0
100
AcDbEntity
  8
0
100
AcDbBlockEnd
  0
BLOCK
  5
1F2
100
AcDbEntity
  8
0
100
AcDbBlockBegin
  2
WALL
 70
     0
 10
0.0
 20
0.0
 30
0.0
  3
WALL
  1

  0
LWPOLYLINE
  5
1F3
102
{ACAD_REACTORS
330
1F4
102
}
100
AcDbEntity
  8
BUILDING_ENVELOPE
  6
CONTINUOUS
 62
     7
100
AcDbPolyline
 90
        6
 70
     1
 10
1.0
 20
5.333333
 10
9.0
 20
5.333333
 10
9.0
 20
5.166667
 10
9.0
 20
5.0
 10
1.0
 20
5.0
 10
1.0
 20
5.166667
  0
HATCH
  5
1F4
100
AcDbEntity
  8
BUILDING_ENVELOPE
 62
   253
100
AcDbHatch
 10
0.0
 20
0.0
 30
0.0
210
0.0
220
0.0
230
1.0
  2
SOLID
 70
     1
 71
     1
 91
        1
 92
        3
 72
     0
 73
     1
 93
        6
 10
1.0
 20
5.333333333333333
 10
9.0
 20
5.333333333333333
 10
9.0
 20
5.1666666666666661
 10
9.0
 20
5.0
 10
1.0
 20
5.0
 10
1.0
 20
5.1666666666666661
 97
       16
330
1DC
330
1DD
330
1DE
330
1DF
330
1E0
330
1E1
330
1E2
330
1E3
330
1E4
330
1E5
330
1E6
330
1E7
330
1E8
330
1EC
330
1ED
330
1F3
 75
     0
 76
     1
 98
        0
  0
LWPOLYLINE
  5
1F5
100
AcDbEntity
  8
BUILDING_ENVELOPE
  6
CONTINUOUS
 62
     7
100
AcDbPolyline
 90
        4
 70
     0
 10
1.0
 20
5.166667
 10
1.0
 20
5.333333
 10
9.0
 20
5.333333
 10
9.0
 20
5.166667
  0
LWPOLYLINE
  5
1F6
100
AcDbEntity
  8
BUILDING_ENVELOPE
  6
CONTINUOUS
 62
     7
100
AcDbPolyline
 90
        4
 70
     0
 10
1.0
 20
5.166667
 10
1.0
 20
5.0
 10
9.0
 20
5.0
 10
9.0
 20
5.166667
  0
ENDBLK
  5
1F7
100
AcDbEntity
  8
0
100
AcDbBlockEnd
  0
BLOCK
  5
1F9
100
AcDbEntity
  8
0
100
AcDbBlockBegin
  2
SPACE
 70
     2
 10
0.0
 20
0.0
 30
0.0
  3
SPACE
  1

  0
ATTDEF
  5
1FA
100
AcDbEntity
  8
0
100
AcDbText
 10
5.0
 20
5.0
 30
0.0
 40
0.2
  1

100
AcDbAttributeDefinition
  3
Name
  2
NAME
 70
     0
  0
ATTDEF
  5
1FB
100
AcDbEntity
  8
0
100
AcDbText
 10
5.0
 20
5.0
 30
0.0
 40
0.2
  1

100
AcDbAttributeDefinition
  3
Space ID
  2
LOCATIONID
 70
     0
  0
ATTDEF
  5
1FC
100
AcDbEntity
  8
0
100
AcDbText
 10
5.0
 20
5.0
 30
0.0
 40
0.2
  1

100
AcDbAttributeDefinition
  3
Department
  2
DEPARTMENT
 70
     0
  0
ATTDEF
  5
1FD
100
AcDbEntity
  8
0
100
AcDbText
 10
5.0
 20
5.0
 30
0.0
 40
0.2
  1
Office
100
AcDbAttributeDefinition
  3
Space use
  2
USE
 70
     0
  0
ATTDEF
  5
1FE
100
AcDbEntity
  8
0
100
AcDbText
 10
5.0
 20
5.0
 30
0.0
 40
0.2
  1

100
AcDbAttributeDefinition
  3
Phone number
  2
PHONENUMBER
 70
     0
  0
ATTDEF
  5
1FF
100
AcDbEntity
  8
0
100
AcDbText
 10
5.0
 20
5.0
 30
0.0
 40
0.2
  1
0
100
AcDbAttributeDefinition
  3
Occupancy
  2
OCCUPANTCOUNT
 70
     0
  0
ATTDEF
  5
200
100
AcDbEntity
  8
0
100
AcDbText
 10
5.0
 20
5.0
 30
0.0
 40
0.2
  1
0
100
AcDbAttributeDefinition
  3
Capacity
  2
OCCUPANTCAPACITY
 70
     0
  0
ATTDEF
  5
201
100
AcDbEntity
  8
0
100
AcDbText
 10
5.0
 20
5.0
 30
0.0
 40
0.2
  1

100
AcDbAttributeDefinition
  3
ID
  2
ID
 70
     0
  0
ATTDEF
  5
202
100
AcDbEntity
  8
0
100
AcDbText
 10
5.0
 20
5.0
 30
0.0
 40
0.2
  1

100
AcDbAttributeDefinition
  3
Belongs to
  2
BELONGSTO
 70
     0
  0
ATTDEF
  5
203
100
AcDbEntity
  8
0
100
AcDbText
 10
5.0
 20
5.0
 30
0.0
 40
0.2
  1

100
AcDbAttributeDefinition
  3
Modified
  2
MODIFY
 70
     0
  0
ATTDEF
  5
204
100
AcDbEntity
  8
0
100
AcDbText
 10
5.0
 20
5.0
 30
0.0
 40
0.2
  1
Location
100
AcDbAttributeDefinition
  3
Shape class
  2
SHAPECLASS
 70
     0
  0
ATTDEF
  5
205
100
AcDbEntity
  8
0
100
AcDbText
 10
5.0
 20
5.0
 30
0.0
 40
0.2
  1
Space
100
AcDbAttributeDefinition
  3
Shape type
  2
SHAPETYPE
 70
     0
  0
ATTDEF
  5
206
100
AcDbEntity
  8
0
100
AcDbText
 10
5.0
 20
5.0
 30
0.0
 40
0.2
  1

100
AcDbAttributeDefinition
  3
Subshape type
  2
SUBSHAPETYPE
 70
     0
  0
ATTDEF
  5
207
100
AcDbEntity
  8
0
100
AcDbText
 10
5.0
 20
5.0
 30
0.0
 40
0.2
  1
0
100
AcDbAttributeDefinition
  3
Space height
  2
SPACEHEIGHT
 70
     0
  0
ATTDEF
  5
208
100
AcDbEntity
  8
0
100
AcDbText
 10
5.0
 20
5.0
 30
0.0
 40
0.2
  1
0
100
AcDbAttributeDefinition
  3
Zones
  2
ZONES
 70
     0
  0
ATTDEF
  5
209
100
AcDbEntity
  8
0
100
AcDbText
 10
5.0
 20
5.0
 30
0.0
 40
0.2
  1
100FT^ 2
100
AcDbAttributeDefinition
  3
Calculated area
  2
VISAREA
 70
     0
  0
ATTDEF
  5
20A
100
AcDbEntity
  8
0
100
AcDbText
 10
5.0
 20
5.0
 30
0.0
 40
0.2
  1
0
100
AcDbAttributeDefinition
  3
Base elevation
  2
BASEELEVATION
 70
     0
  0
LWPOLYLINE
  5
20C
102
{ACAD_REACTORS
330
20D
102
}
100
AcDbEntity
  8
WALL
  6
CONTINUOUS
100
AcDbPolyline
 90
        4
 70
     1
 10
0.0
 20
0.0
 10
10.0
 20
0.0
 10
10.0
 20
10.0
 10
0.0
 20
10.0
  0
HATCH
  5
20D
100
AcDbEntity
  8
WALL
 62
    94
100
AcDbHatch
 10
0.0
 20
0.0
 30
0.0
210
0.0
220
0.0
230
1.0
  2
ANSI31
 70
     0
 71
     1
 91
        1
 92
        2
 72
     0
 73
     1
 93
        4
 10
0.0
 20
0.0
 10
10.0
 20
0.0
 10
10.0
 20
10.0
 10
0.0
 20
10.0
 97
        1
330
20C
 75
     0
 76
     1
 52
0.0
 41
0.083333
 77
     0
 78
     1
 53
45.0
 43
0.0
 44
0.0
 45
-0.0073333333333333
 46
0.0073333333333333
 79
     0
 98
        0
  0
MTEXT
  5
20E
100
AcDbEntity
  8
WALL
100
AcDbMText
 10
5.0
 20
4.948732
 30
0.0
 40
0.500004
 41
4.420539
 71
     5
 72
     5
  1
\C7;\fCalibri|b0|i0|;\H0.50000381469727;Office\P\P\P
  0
ENDBLK
  5
20F
100
AcDbEntity
  8
0
100
AcDbBlockEnd
  0
BLOCK
  5
211
100
AcDbEntity
  8
0
100
AcDbBlockBegin
  2
CORNER_LANDING
 70
     0
 10
0.0
 20
0.0
 30
0.0
  3
CORNER_LANDING
  1

  0
LWPOLYLINE
  5
212
100
AcDbEntity
  8
WALL
  6
CONTINUOUS
 62
     7
100
AcDbPolyline
 90
        4
 70
     1
 10
-1.332899
 20
-1.321759
 10
1.660475
 20
-1.321759
 10
1.660475
 20
1.671615
 10
-1.332899
 20
1.671615
  0
LINE
  5
213
100
AcDbEntity
  8
WALL
  6
CONTINUOUS
 62
     9
100
AcDbLine
 10
-1.332899
 20
-1.321759
 30
0.0
 11
0.156724
 21
1.671615
 31
0.0
  0
LINE
  5
214
100
AcDbEntity
  8
WALL
  6
CONTINUOUS
 62
     9
100
AcDbLine
 10
-1.332899
 20
-1.321759
 30
0.0
 11
1.660475
 21
0.169061
 31
0.0
  0
ENDBLK
  5
215
100
AcDbEntity
  8
0
100
AcDbBlockEnd
  0
BLOCK
  5
217
100
AcDbEntity
  8
0
100
AcDbBlockBegin
  2
STRAIGHT_STAIRCASE
 70
     0
 10
0.0
 20
0.0
 30
0.0
  3
STRAIGHT_STAIRCASE
  1

  0
LWPOLYLINE
  5
218
100
AcDbEntity
  8
BUILDING_ENVELOPE
  6
CONTINUOUS
 62
     9
100
AcDbPolyline
 90
        4
 70
     1
 10
-3.501199
 20
1.758333
 10
-2.630829
 20
1.758333
 10
-2.630829
 20
-1.241667
 10
-3.501199
 20
-1.241667
  0
LWPOLYLINE
  5
219
100
AcDbEntity
  8
BUILDING_ENVELOPE
  6
CONTINUOUS
 62
     9
100
AcDbPolyline
 90
        4
 70
     1
 10
-2.630829
 20
1.758333
 10
-1.760459
 20
1.758333
 10
-1.760459
 20
-1.241667
 10
-2.630829
 20
-1.241667
  0
LWPOLYLINE
  5
21A
100
AcDbEntity
  8
BUILDING_ENVELOPE
  6
CONTINUOUS
 62
     9
100
AcDbPolyline
 90
        4
 70
     1
 10
-1.760459
 20
1.758333
 10
-0.890088
 20
1.758333
 10
-0.890088
 20
-1.241667
 10
-1.760459
 20
-1.241667
  0
LWPOLYLINE
  5
21B
100
AcDbEntity
  8
BUILDING_ENVELOPE
  6
CONTINUOUS
 62
     9
100
AcDbPolyline
 90
        4
 70
     1
 10
-0.890088
 20
1.758333
 10
-0.019718
 20
1.758333
 10
-0.019718
 20
-1.241667
 10
-0.890088
 20
-1.241667
  0
LWPOLYLINE
  5
21C
100
AcDbEntity
  8
BUILDING_ENVELOPE
  6
CONTINUOUS
 62
     9
100
AcDbPolyline
 90
        4
 70
     1
 10
-0.019718
 20
1.758333
 10
0.850653
 20
1.758333
 10
0.850653
 20
-1.241667
 10
-0.019718
 20
-1.241667
  0
LWPOLYLINE
  5
21D
100
AcDbEntity
  8
BUILDING_ENVELOPE
  6
CONTINUOUS
 62
     9
100
AcDbPolyline
 90
        4
 70
     1
 10
0.850653
 20
1.758333
 10
1.721023
 20
1.758333
 10
1.721023
 20
-1.241667
 10
0.850653
 20
-1.241667
  0
LWPOLYLINE
  5
21E
100
AcDbEntity
  8
BUILDING_ENVELOPE
  6
CONTINUOUS
 62
     9
100
AcDbPolyline
 90
        4
 70
     1
 10
1.721023
 20
1.758333
 10
2.591393
 20
1.758333
 10
2.591393
 20
-1.241667
 10
1.721023
 20
-1.241667
  0
LWPOLYLINE
  5
21F
100
AcDbEntity
  8
BUILDING_ENVELOPE
  6
CONTINUOUS
 62
     9
100
AcDbPolyline
 90
        4
 70
     1
 10
2.591393
 20
1.758333
 10
3.461764
 20
1.758333
 10
3.461764
 20
-1.241667
 10
2.591393
 20
-1.241667
  0
LWPOLYLINE
  5
220
100
AcDbEntity
  8
BUILDING_ENVELOPE
  6
CONTINUOUS
 62
     9
100
AcDbPolyline
 90
        4
 70
     1
 10
3.461764
 20
1.758333
 10
4.332134
 20
1.758333
 10
4.332134
 20
-1.241667
 10
3.461764
 20
-1.241667
  0
MTEXT
  5
221
100
AcDbEntity
  8
BUILDING_ENVELOPE
100
AcDbMText
 10
-3.877833
 20
0.258333
 30
0.0
 40
0.333332
 41
0.753267
 71
     5
 72
     5
  1
\C7;\fCalibri|b0|i0|;\H0.33333206176758;UP
  0
CIRCLE
  5
222
102
{ACAD_REACTORS
330
223
102
}
100
AcDbEntity
  8
WALL
  6
CONTINUOUS
 62
     7
100
AcDbCircle
 10
-3.501199
 20
0.258333
 30
0.0
 40
0.086804
  0
HATCH
  5
223
100
AcDbEntity
  8
WALL
 62
     7
100
AcDbHatch
 10
0.0
 20
0.0
 30
0.0
210
0.0
220
0.0
230
1.0
  2
SOLID
 70
     1
 71
     1
 91
        1
 92
        1
 93
        1
 72
     2
 10
-3.5011993055309873
 20
0.2583333333333307
 40
0.0868041666666667
 50
0.0
 51
360.0
 73
     1
 97
        1
330
222
 75
     0
 76
     1
 98
        0
  0
LINE
  5
224
100
AcDbEntity
  8
WALL
  6
CONTINUOUS
 62
     7
100
AcDbLine
 10
-3.501199
 20
0.258333
 30
0.0
 11
-1.192999
 21
0.258333
 31
0.0
  0
LWPOLYLINE
  5
225
102
{ACAD_REACTORS
330
226
102
}
100
AcDbEntity
  8
WALL
  6
CONTINUOUS
 62
     7
100
AcDbPolyline
 90
        3
 70
     1
 10
-1.405912
 20
0.130858
 10
-1.405912
 20
0.385808
 10
-0.980087
 20
0.255599
  0
HATCH
  5
226
100
AcDbEntity
  8
WALL
 62
     7
100
AcDbHatch
 10
0.0
 20
0.0
 30
0.0
210
0.0
220
0.0
230
1.0
  2
SOLID
 70
     1
 71
     1
 91
        1
 92
        3
 72
     0
 73
     1
 93
        3
 10
-1.4059118055309874
 20
0.1308583333333307
 10
-1.4059118055309874
 20
0.3858083333333307
 10
-0.9800868055309874
 20
0.2555989359891018
 97
        1
330
225
 75
     0
 76
     1
 98
        0
  0
LINE
  5
227
102
{ACAD_REACTORS
330
22C
102
}
100
AcDbEntity
  8
BUILDING_ENVELOPE
  6
CONTINUOUS
 62
     7
100
AcDbLine
 10
0.415467
 20
-1.058333
 30
0.0
 11
4.526181
 21
-1.058333
 31
0.0
  0
ARC
  5
228
102
{ACAD_REACTORS
330
22C
102
}
100
AcDbEntity
  8
BUILDING_ENVELOPE
  6
CONTINUOUS
 62
     7
100
AcDbCircle
 10
4.29196
 20
-1.404611
 30
0.0
 40
0.418052
100
AcDbArc
 50
357.204441
 51
55.925661
  0
LINE
  5
229
102
{ACAD_REACTORS
330
22C
102
}
100
AcDbEntity
  8
BUILDING_ENVELOPE
  6
CONTINUOUS
 62
     7
100
AcDbLine
 10
4.709514
 20
-1.425
 30
0.0
 11
4.892848
 21
-1.425
 31
0.0
  0
ARC
  5
22A
102
{ACAD_REACTORS
330
22C
102
}
100
AcDbEntity
  8
BUILDING_ENVELOPE
  6
CONTINUOUS
 62
     7
100
AcDbCircle
 10
4.331043
 20
-1.402314
 30
0.0
 40
0.562262
100
AcDbArc
 50
357.687613
 51
69.692522
  0
LINE
  5
22B
102
{ACAD_REACTORS
330
22C
102
}
100
AcDbEntity
  8
BUILDING_ENVELOPE
  6
CONTINUOUS
 62
     7
100
AcDbLine
 10
4.526181
 20
-0.875
 30
0.0
 11
0.415467
 21
-0.875
 31
0.0
  0
HATCH
  5
22C
100
AcDbEntity
  8
BUILDING_ENVELOPE
 62
   254
100
AcDbHatch
 10
0.0
 20
0.0
 30
0.0
210
0.0
220
0.0
230
1.0
  2
SOLID
 70
     1
 71
     1
 91
        4
 92
        1
 93
        6
 72
     1
 10
0.4154673611356792
 20
-1.0583333333333358
 11
4.5261810369690121
 21
-1.0583333333333358
 72
     2
 10
4.2919598054193502
 20
-1.4046106157748337
 40
0.4180520800614547
 50
357.204441
 51
55.925661
 73
     1
 72
     1
 10
4.7095143703023448
 20
-1.4250000000000025
 11
4.8928477036356783
 21
-1.4250000000000025
 72
     2
 10
4.3310434353510541
 20
-1.4023139566341953
 40
0.5622621207465568
 50
357.687613
 51
69.692522
 73
     1
 72
     1
 10
4.5261810369690121
 20
-0.8750000000000029
 11
0.4154673611356792
 21
-0.8750000000000024
 72
     1
 10
0.4154673611356792
 20
-0.8750000000000024
 11
0.4154673611356792
 21
-1.0583333333333358
 97
        5
330
227
330
228
330
229
330
22A
330
22B
 92
        1
 93
        6
 72
     1
 10
0.4154673611356792
 20
1.5749999999999971
 11
4.5261810369690121
 21
1.5749999999999971
 72
     2
 10
4.5261840383023308
 20
1.7583303320000119
 40
0.1833303320245822
 50
269.999062
 51
0.000938
 73
     1
 72
     1
 10
4.7095143703023457
 20
1.7583333333333306
 11
4.8928477036356783
 21
1.7583333333333306
 72
     2
 10
4.5261870396356496
 20
1.7583273306666913
 40
0.3666606640491629
 50
269.999062
 51
0.000938
 73
     1
 72
     1
 10
4.5261810369690121
 20
1.3916666666666639
 11
0.4154673611356792
 21
1.3916666666666642
 72
     1
 10
0.4154673611356792
 20
1.3916666666666642
 11
0.4154673611356792
 21
1.5749999999999971
 97
        5
330
22D
330
22E
330
22F
330
230
330
231
 92
        1
 93
        6
 72
     1
 10
-4.6678659721976539
 20
-1.2416666666666691
 11
-4.4845326388643203
 21
-1.2416666666666691
 72
     2
 10
-4.3012023068643064
 20
-1.2416636653333502
 40
0.1833303320245819
 50
89.999062
 51
180.000938
 73
     1
 72
     1
 10
-4.3011993055309841
 20
-1.0583333333333358
 11
0.4154673611356792
 21
-1.0583333333333358
 72
     1
 10
0.4154673611356792
 20
-1.0583333333333358
 11
0.4154673611356792
 21
-0.8750000000000024
 72
     1
 10
0.4154673611356792
 20
-0.8750000000000024
 11
-4.3011993055309876
 21
-0.8750000000000024
 72
     2
 10
-4.3012053081976251
 20
-1.2416606640000305
 40
0.3666606640491635
 50
89.999062
 51
180.000938
 73
     1
 97
        5
330
232
330
233
330
234
330
235
330
236
 92
        1
 93
        6
 72
     1
 10
-4.7511993055309869
 20
1.7583333333333306
 11
-4.5678659721976533
 21
1.7583333333333306
 72
     2
 10
-4.3845356401976394
 20
1.7583303320000114
 40
0.183330332024582
 50
179.999062
 51
270.000938
 73
     1
 72
     1
 10
-4.384532638864318
 20
1.5749999999999971
 11
0.4154673611356792
 21
1.5749999999999971
 72
     1
 10
0.4154673611356792
 20
1.5749999999999971
 11
0.4154673611356792
 21
1.3916666666666642
 72
     1
 10
0.4154673611356792
 20
1.3916666666666642
 11
-4.3845326388643207
 21
1.3916666666666642
 72
     2
 10
-4.3845386415309591
 20
1.758327330666692
 40
0.3666606640491635
 50
179.999062
 51
270.000938
 73
     1
 97
        5
330
237
330
238
330
239
330
23A
330
23B
 75
     0
 76
     1
 98
        0
  0
LINE
  5
22D
102
{ACAD_REACTORS
330
22C
102
}
100
AcDbEntity
  8
BUILDING_ENVELOPE
  6
CONTINUOUS
 62
     7
100
AcDbLine
 10
0.415467
 20
1.575
 30
0.0
 11
4.526181
 21
1.575
 31
0.0
  0
ARC
  5
22E
102
{ACAD_REACTORS
330
22C
102
}
100
AcDbEntity
  8
BUILDING_ENVELOPE
  6
CONTINUOUS
 62
     7
100
AcDbCircle
 10
4.526184
 20
1.75833
 30
0.0
 40
0.18333
100
AcDbArc
 50
269.999062
 51
0.0
  0
LINE
  5
22F
102
{ACAD_REACTORS
330
22C
102
}
100
AcDbEntity
  8
BUILDING_ENVELOPE
  6
CONTINUOUS
 62
     7
100
AcDbLine
 10
4.709514
 20
1.758333
 30
0.0
 11
4.892848
 21
1.758333
 31
0.0
  0
ARC
  5
230
102
{ACAD_REACTORS
330
22C
102
}
100
AcDbEntity
  8
BUILDING_ENVELOPE
  6
CONTINUOUS
 62
     7
100
AcDbCircle
 10
4.526187
 20
1.758327
 30
0.0
 40
0.366661
100
AcDbArc
 50
269.999062
 51
0.0
  0
LINE
  5
231
102
{ACAD_REACTORS
330
22C
102
}
100
AcDbEntity
  8
BUILDING_ENVELOPE
  6
CONTINUOUS
 62
     7
100
AcDbLine
 10
4.526181
 20
1.391667
 30
0.0
 11
0.415467
 21
1.391667
 31
0.0
  0
LINE
  5
232
102
{ACAD_REACTORS
330
22C
102
}
100
AcDbEntity
  8
BUILDING_ENVELOPE
  6
CONTINUOUS
 62
     7
100
AcDbLine
 10
-4.667866
 20
-1.241667
 30
0.0
 11
-4.484533
 21
-1.241667
 31
0.0
  0
ARC
  5
233
102
{ACAD_REACTORS
330
22C
102
}
100
AcDbEntity
  8
BUILDING_ENVELOPE
  6
CONTINUOUS
 62
     7
100
AcDbCircle
 10
-4.301202
 20
-1.241664
 30
0.0
 40
0.18333
100
AcDbArc
 50
89.999062
 51
180.000938
  0
LINE
  5
234
102
{ACAD_REACTORS
330
22C
102
}
100
AcDbEntity
  8
BUILDING_ENVELOPE
  6
CONTINUOUS
 62
     7
100
AcDbLine
 10
-4.301199
 20
-1.058333
 30
0.0
 11
0.415467
 21
-1.058333
 31
0.0
  0
LINE
  5
235
102
{ACAD_REACTORS
330
22C
102
}
100
AcDbEntity
  8
BUILDING_ENVELOPE
  6
CONTINUOUS
 62
     7
100
AcDbLine
 10
0.415467
 20
-0.875
 30
0.0
 11
-4.301199
 21
-0.875
 31
0.0
  0
ARC
  5
236
102
{ACAD_REACTORS
330
22C
102
}
100
AcDbEntity
  8
BUILDING_ENVELOPE
  6
CONTINUOUS
 62
     7
100
AcDbCircle
 10
-4.301205
 20
-1.241661
 30
0.0
 40
0.366661
100
AcDbArc
 50
89.999062
 51
180.000938
  0
LINE
  5
237
102
{ACAD_REACTORS
330
22C
102
}
100
AcDbEntity
  8
BUILDING_ENVELOPE
  6
CONTINUOUS
 62
     7
100
AcDbLine
 10
-4.751199
 20
1.758333
 30
0.0
 11
-4.567866
 21
1.758333
 31
0.0
  0
ARC
  5
238
102
{ACAD_REACTORS
330
22C
102
}
100
AcDbEntity
  8
BUILDING_ENVELOPE
  6
CONTINUOUS
 62
     7
100
AcDbCircle
 10
-4.384536
 20
1.75833
 30
0.0
 40
0.18333
100
AcDbArc
 50
179.999062
 51
270.000938
  0
LINE
  5
239
102
{ACAD_REACTORS
330
22C
102
}
100
AcDbEntity
  8
BUILDING_ENVELOPE
  6
CONTINUOUS
 62
     7
100
AcDbLine
 10
-4.384533
 20
1.575
 30
0.0
 11
0.415467
 21
1.575
 31
0.0
  0
LINE
  5
23A
102
{ACAD_REACTORS
330
22C
102
}
100
AcDbEntity
  8
BUILDING_ENVELOPE
  6
CONTINUOUS
 62
     7
100
AcDbLine
 10
0.415467
 20
1.391667
 30
0.0
 11
-4.384533
 21
1.391667
 31
0.0
  0
ARC
  5
23B
102
{ACAD_REACTORS
330
22C
102
}
100
AcDbEntity
  8
BUILDING_ENVELOPE
  6
CONTINUOUS
 62
     7
100
AcDbCircle
 10
-4.384539
 20
1.758327
 30
0.0
 40
0.366661
100
AcDbArc
 50
179.999062
 51
270.000938
  0
ENDBLK
  5
23C
100
AcDbEntity
  8
0
100
AcDbBlockEnd
  0
BLOCK
  5
23E
100
AcDbEntity
  8
0
100
AcDbBlockBegin
  2
DOOR
 70
     0
 10
0.0
 20
0.0
 30
0.0
  3
DOOR
  1

  0
LWPOLYLINE
  5
23F
100
AcDbEntity
  8
BUILDING_ENVELOPE
  6
CONTINUOUS
 62
     7
100
AcDbPolyline
 90
        4
 70
     1
 10
3.583333
 20
4.734
 10
6.416667
 20
4.734
 10
6.416667
 20
5.266
 10
3.583333
 20
5.266
  0
LINE
  5
240
100
AcDbEntity
  8
BUILDING_ENVELOPE
  6
CONTINUOUS
 62
     7
100
AcDbLine
 10
6.416667
 20
4.75
 30
0.0
 11
6.416667
 21
5.25
 31
0.0
  0
LINE
  5
241
100
AcDbEntity
  8
BUILDING_ENVELOPE
  6
CONTINUOUS
 62
     7
100
AcDbLine
 10
6.416667
 20
5.25
 30
0.0
 11
6.25
 21
5.25
 31
0.0
  0
LINE
  5
242
100
AcDbEntity
  8
BUILDING_ENVELOPE
  6
CONTINUOUS
 62
     7
100
AcDbLine
 10
6.25
 20
5.25
 30
0.0
 11
6.25
 21
5.083333
 31
0.0
  0
LINE
  5
243
100
AcDbEntity
  8
BUILDING_ENVELOPE
  6
CONTINUOUS
 62
     7
100
AcDbLine
 10
6.25
 20
4.958333
 30
0.0
 11
6.25
 21
4.75
 31
0.0
  0
LINE
  5
244
100
AcDbEntity
  8
BUILDING_ENVELOPE
  6
CONTINUOUS
 62
     7
100
AcDbLine
 10
6.25
 20
4.75
 30
0.0
 11
6.416667
 21
4.75
 31
0.0
  0
LINE
  5
245
100
AcDbEntity
  8
BUILDING_ENVELOPE
  6
CONTINUOUS
 62
     7
100
AcDbLine
 10
3.583333
 20
4.75
 30
0.0
 11
3.583333
 21
5.25
 31
0.0
  0
LINE
  5
246
100
AcDbEntity
  8
BUILDING_ENVELOPE
  6
CONTINUOUS
 62
     7
100
AcDbLine
 10
3.583333
 20
5.25
 30
0.0
 11
3.75
 21
5.25
 31
0.0
  0
LINE
  5
247
100
AcDbEntity
  8
BUILDING_ENVELOPE
  6
CONTINUOUS
 62
     7
100
AcDbLine
 10
3.75
 20
5.25
 30
0.0
 11
3.75
 21
5.083333
 31
0.0
  0
LINE
  5
248
100
AcDbEntity
  8
BUILDING_ENVELOPE
  6
CONTINUOUS
 62
     7
100
AcDbLine
 10
3.75
 20
4.958333
 30
0.0
 11
3.75
 21
4.75
 31
0.0
  0
LINE
  5
249
100
AcDbEntity
  8
BUILDING_ENVELOPE
  6
CONTINUOUS
 62
     7
100
AcDbLine
 10
3.75
 20
4.75
 30
0.0
 11
3.583333
 21
4.75
 31
0.0
  0
LINE
  5
24A
100
AcDbEntity
  8
BUILDING_ENVELOPE
  6
CONTINUOUS
 62
     7
100
AcDbLine
 10
6.25
 20
5.083333
 30
0.0
 11
6.208333
 21
5.083333
 31
0.0
  0
LINE
  5
24B
100
AcDbEntity
  8
BUILDING_ENVELOPE
  6
CONTINUOUS
 62
     7
100
AcDbLine
 10
6.208333
 20
5.083333
 30
0.0
 11
6.208333
 21
4.958333
 31
0.0
  0
LINE
  5
24C
100
AcDbEntity
  8
BUILDING_ENVELOPE
  6
CONTINUOUS
 62
     7
100
AcDbLine
 10
6.208333
 20
4.958333
 30
0.0
 11
6.25
 21
4.958333
 31
0.0
  0
LINE
  5
24D
100
AcDbEntity
  8
BUILDING_ENVELOPE
  6
CONTINUOUS
 62
     7
100
AcDbLine
 10
3.75
 20
5.083333
 30
0.0
 11
3.791667
 21
5.083333
 31
0.0
  0
LINE
  5
24E
100
AcDbEntity
  8
BUILDING_ENVELOPE
  6
CONTINUOUS
 62
     7
100
AcDbLine
 10
3.791667
 20
5.083333
 30
0.0
 11
3.791667
 21
4.958333
 31
0.0
  0
LINE
  5
24F
100
AcDbEntity
  8
BUILDING_ENVELOPE
  6
CONTINUOUS
 62
     7
100
AcDbLine
 10
3.791667
 20
4.958333
 30
0.0
 11
3.75
 21
4.958333
 31
0.0
  0
LINE
  5
250
100
AcDbEntity
  8
BUILDING_ENVELOPE
  6
CONTINUOUS
 62
     7
100
AcDbLine
 10
6.416667
 20
4.75
 30
0.0
 11
6.416667
 21
5.25
 31
0.0
  0
LINE
  5
251
100
AcDbEntity
  8
BUILDING_ENVELOPE
  6
CONTINUOUS
 62
     7
100
AcDbLine
 10
3.583333
 20
4.75
 30
0.0
 11
3.583333
 21
5.25
 31
0.0
  0
ARC
  5
252
100
AcDbEntity
  8
BUILDING_ENVELOPE
  6
CONTINUOUS
 62
     7
100
AcDbCircle
 10
6.25
 20
5.25
 30
0.0
 40
2.5
100
AcDbArc
 50
90.0
 51
180.0
  0
LWPOLYLINE
  5
253
100
AcDbEntity
  8
BUILDING_ENVELOPE
  6
CONTINUOUS
 62
     7
100
AcDbPolyline
 90
        4
 70
     1
 10
6.083333
 20
7.75
 10
6.083333
 20
5.25
 10
6.25
 20
5.25
 10
6.25
 20
7.75
  0
ENDBLK
  5
254
100
AcDbEntity
  8
0
100
AcDbBlockEnd
  0
BLOCK
  5
256
100
AcDbEntity
  8
0
100
AcDbBlockBegin
  2
OPENING
 70
     2
 10
0.0
 20
0.0
 30
0.0
  3
OPENING
  1

  0
ATTDEF
  5
257
100
AcDbEntity
  8
0
100
AcDbText
 10
5.0
 20
5.0
 30
0.0
 40
0.2
  1
80
100
AcDbAttributeDefinition
  3
Opening height
  2
VISDOORHEIGHT
 70
     0
  0
ATTDEF
  5
258
100
AcDbEntity
  8
0
100
AcDbText
 10
5.0
 20
5.0
 30
0.0
 40
0.2
  1
0
100
AcDbAttributeDefinition
  3
Reference Line Offset
  2
REFLN
 70
     0
  0
ATTDEF
  5
259
100
AcDbEntity
  8
0
100
AcDbText
 10
5.0
 20
5.0
 30
0.0
 40
0.2
  1
30
100
AcDbAttributeDefinition
  3
Opening width
  2
SUBTYPE
 70
     0
  0
ATTDEF
  5
25A
100
AcDbEntity
  8
0
100
AcDbText
 10
5.0
 20
5.0
 30
0.0
 40
0.2
  1
2
100
AcDbAttributeDefinition
  3
Door frame width
  2
SUBVISDOORFRAMEWIDTH
 70
     0
  0
ATTDEF
  5
25B
100
AcDbEntity
  8
0
100
AcDbText
 10
5.0
 20
5.0
 30
0.0
 40
0.2
  1
4
100
AcDbAttributeDefinition
  3
Door frame depth
  2
SUBVISDOORFRAMEDEPTH
 70
     0
  0
ATTDEF
  5
25C
100
AcDbEntity
  8
0
100
AcDbText
 10
5.0
 20
5.0
 30
0.0
 40
0.2
  1
0.5
100
AcDbAttributeDefinition
  3
Door stop width
  2
SUBVISDOORSTOPWIDTH
 70
     0
  0
ATTDEF
  5
25D
100
AcDbEntity
  8
0
100
AcDbText
 10
5.0
 20
5.0
 30
0.0
 40
0.2
  1
1.5
100
AcDbAttributeDefinition
  3
Door stop depth
  2
SUBVISDOORSTOPDEPTH
 70
     0
  0
ATTDEF
  5
25E
100
AcDbEntity
  8
0
100
AcDbText
 10
5.0
 20
5.0
 30
0.0
 40
0.2
  1
2
100
AcDbAttributeDefinition
  3
Door threshold depth inside
  2
SUBVISDOORTHRESDEPTHIN
 70
     0
  0
ATTDEF
  5
25F
100
AcDbEntity
  8
0
100
AcDbText
 10
5.0
 20
5.0
 30
0.0
 40
0.2
  1
2
100
AcDbAttributeDefinition
  3
Door threshold width inside
  2
SUBVISDOORTHRESWIDTHIN
 70
     0
  0
ATTDEF
  5
260
100
AcDbEntity
  8
0
100
AcDbText
 10
5.0
 20
5.0
 30
0.0
 40
0.2
  1
2
100
AcDbAttributeDefinition
  3
Door threshold depth outside
  2
SUBVISDOORTHRESDEPTHOUT
 70
     0
  0
ATTDEF
  5
261
100
AcDbEntity
  8
0
100
AcDbText
 10
5.0
 20
5.0
 30
0.0
 40
0.2
  1
2
100
AcDbAttributeDefinition
  3
Door threshold width outside
  2
SUBVISDOORTHRESWIDTHOUT
 70
     0
  0
ATTDEF
  5
262
100
AcDbEntity
  8
0
100
AcDbText
 10
5.0
 20
5.0
 30
0.0
 40
0.2
  1
2
100
AcDbAttributeDefinition
  3
Door panel thickness
  2
SUBVISDOORPANELTHICKNESS
 70
     0
  0
ATTDEF
  5
263
100
AcDbEntity
  8
0
100
AcDbText
 10
5.0
 20
5.0
 30
0.0
 40
0.2
  1
15
100
AcDbAttributeDefinition
  3
Door leaf width
  2
VISDOORLEAF
 70
     0
  0
ATTDEF
  5
264
100
AcDbEntity
  8
0
100
AcDbText
 10
5.0
 20
5.0
 30
0.0
 40
0.2
  1
12
100
AcDbAttributeDefinition
  3
Door spring height
  2
VISDOORSPRING
 70
     0
  0
ATTDEF
  5
265
100
AcDbEntity
  8
0
100
AcDbText
 10
5.0
 20
5.0
 30
0.0
 40
0.2
  1
6
100
AcDbAttributeDefinition
  3
Door along wall offset
  2
VISDOORALONGWALLOFFSET
 70
     0
  0
ATTDEF
  5
266
100
AcDbEntity
  8
0
100
AcDbText
 10
5.0
 20
5.0
 30
0.0
 40
0.2
  1
Building Component
100
AcDbAttributeDefinition
  3
Shape class
  2
SHAPECLASS
 70
     0
  0
ATTDEF
  5
267
100
AcDbEntity
  8
0
100
AcDbText
 10
5.0
 20
5.0
 30
0.0
 40
0.2
  1
Opening Element
100
AcDbAttributeDefinition
  3
Shape type
  2
SHAPETYPE
 70
     0
  0
ATTDEF
  5
268
100
AcDbEntity
  8
0
100
AcDbText
 10
5.0
 20
5.0
 30
0.0
 40
0.2
  1

100
AcDbAttributeDefinition
  3
Subshape type
  2
SUBSHAPETYPE
 70
     0
  0
ATTDEF
  5
269
100
AcDbEntity
  8
0
100
AcDbText
 10
5.0
 20
5.0
 30
0.0
 40
0.2
  1
0
100
AcDbAttributeDefinition
  3
Opening number
  2
OPENNUMBER
 70
     0
  0
ATTDEF
  5
26A
100
AcDbEntity
  8
0
100
AcDbText
 10
5.0
 20
5.0
 30
0.0
 40
0.2
  1
80
100
AcDbAttributeDefinition
  3
Header height
  2
OPENINGHEADERHEIGHT
 70
     0
  0
LWPOLYLINE
  5
26B
100
AcDbEntity
  8
WALL
  6
CONTINUOUS
 62
     7
100
AcDbPolyline
 90
        4
 70
     1
 10
3.583333
 20
4.734
 10
6.416667
 20
4.734
 10
6.416667
 20
5.266
 10
3.583333
 20
5.266
  0
LWPOLYLINE
  5
26C
100
AcDbEntity
  8
WALL
  6
CONTINUOUS
 62
     7
100
AcDbPolyline
 90
        4
 70
     1
 10
6.416667
 20
4.75
 10
6.416667
 20
5.25
 10
6.25
 20
5.25
 10
6.25
 20
4.75
  0
LWPOLYLINE
  5
26D
100
AcDbEntity
  8
WALL
  6
CONTINUOUS
 62
     7
100
AcDbPolyline
 90
        4
 70
     1
 10
3.583333
 20
4.75
 10
3.583333
 20
5.25
 10
3.75
 20
5.25
 10
3.75
 20
4.75
  0
LINE
  5
26E
100
AcDbEntity
  8
WALL
  6
CONTINUOUS
 62
     7
100
AcDbLine
 10
6.416667
 20
4.75
 30
0.0
 11
6.416667
 21
5.25
 31
0.0
  0
LINE
  5
26F
100
AcDbEntity
  8
WALL
  6
CONTINUOUS
 62
     7
100
AcDbLine
 10
3.583333
 20
4.75
 30
0.0
 11
3.583333
 21
5.25
 31
0.0
  0
ENDBLK
  5
270
100
AcDbEntity
  8
0
100
AcDbBlockEnd
  0
BLOCK
  5
272
100
AcDbEntity
  8
0
100
AcDbBlockBegin
  2
CASEMENT
 70
     2
 10
0.0
 20
0.0
 30
0.0
  3
CASEMENT
  1

  0
ATTDEF
  5
273
100
AcDbEntity
  8
0
100
AcDbText
 10
5.0
 20
5.0
 30
0.0
 40
0.2
  1
60
100
AcDbAttributeDefinition
  3
Window height
  2
VISWNDWHEIGHT
 70
     0
  0
ATTDEF
  5
274
100
AcDbEntity
  8
0
100
AcDbText
 10
5.0
 20
5.0
 30
0.0
 40
0.2
  1
0
100
AcDbAttributeDefinition
  3
Reference Line Offset
  2
REFLN
 70
     0
  0
ATTDEF
  5
275
100
AcDbEntity
  8
0
100
AcDbText
 10
5.0
 20
5.0
 30
0.0
 40
0.2
  1
30
100
AcDbAttributeDefinition
  3
Window width
  2
SUBTYPE
 70
     0
  0
ATTDEF
  5
276
100
AcDbEntity
  8
0
100
AcDbText
 10
5.0
 20
5.0
 30
0.0
 40
0.2
  1
2
100
AcDbAttributeDefinition
  3
Window frame depth
  2
SUBVISWNDWFRAMEDEPTH
 70
     0
  0
ATTDEF
  5
277
100
AcDbEntity
  8
0
100
AcDbText
 10
5.0
 20
5.0
 30
0.0
 40
0.2
  1
4
100
AcDbAttributeDefinition
  3
Window frame width
  2
SUBVISWNDWFRAMEWIDTH
 70
     0
  0
ATTDEF
  5
278
100
AcDbEntity
  8
0
100
AcDbText
 10
5.0
 20
5.0
 30
0.0
 40
0.2
  1
2.5
100
AcDbAttributeDefinition
  3
Window sash depth
  2
SUBVISWNDWSASHDEPTH
 70
     0
  0
ATTDEF
  5
279
100
AcDbEntity
  8
0
100
AcDbText
 10
5.0
 20
5.0
 30
0.0
 40
0.2
  1
1
100
AcDbAttributeDefinition
  3
Window sash width
  2
SUBVISWNDWSASHWIDTH
 70
     0
  0
ATTDEF
  5
27A
100
AcDbEntity
  8
0
100
AcDbText
 10
5.0
 20
5.0
 30
0.0
 40
0.2
  1
2
100
AcDbAttributeDefinition
  3
Window sill depth inside
  2
SUBVISWNDWSILLDEPTHIN
 70
     0
  0
ATTDEF
  5
27B
100
AcDbEntity
  8
0
100
AcDbText
 10
5.0
 20
5.0
 30
0.0
 40
0.2
  1
2
100
AcDbAttributeDefinition
  3
Window sill width inside
  2
SUBVISWNDWSILLWIDTHIN
 70
     0
  0
ATTDEF
  5
27C
100
AcDbEntity
  8
0
100
AcDbText
 10
5.0
 20
5.0
 30
0.0
 40
0.2
  1
2
100
AcDbAttributeDefinition
  3
Window sill depth outside
  2
SUBVISWNDWSILLDEPTHOUT
 70
     0
  0
ATTDEF
  5
27D
100
AcDbEntity
  8
0
100
AcDbText
 10
5.0
 20
5.0
 30
0.0
 40
0.2
  1
2
100
AcDbAttributeDefinition
  3
Window sill width outside
  2
SUBVISWNDWSILLWIDTHOUT
 70
     0
  0
ATTDEF
  5
27E
100
AcDbEntity
  8
0
100
AcDbText
 10
5.0
 20
5.0
 30
0.0
 40
0.2
  1
80
100
AcDbAttributeDefinition
  3
Window header height
  2
VISWNDWHEADERHEIGHT
 70
     0
  0
ATTDEF
  5
27F
100
AcDbEntity
  8
0
100
AcDbText
 10
5.0
 20
5.0
 30
0.0
 40
0.2
  1
6
100
AcDbAttributeDefinition
  3
Window along wall offset
  2
VISWNDWALONGWALLOFFSET
 70
     0
  0
ATTDEF
  5
280
100
AcDbEntity
  8
0
100
AcDbText
 10
5.0
 20
5.0
 30
0.0
 40
0.2
  1
15
100
AcDbAttributeDefinition
  3
Window operator size
  2
VISWNDWOPERATOR
 70
     0
  0
ATTDEF
  5
281
100
AcDbEntity
  8
0
100
AcDbText
 10
5.0
 20
5.0
 30
0.0
 40
0.2
  1
12
100
AcDbAttributeDefinition
  3
Window spring height
  2
VISWNDWSPRING
 70
     0
  0
ATTDEF
  5
282
100
AcDbEntity
  8
0
100
AcDbText
 10
5.0
 20
5.0
 30
0.0
 40
0.2
  1
Center
100
AcDbAttributeDefinition
  3
Window within wall offset
  2
VISJUSTIFICATION
 70
     0
  0
ATTDEF
  5
283
100
AcDbEntity
  8
0
100
AcDbText
 10
5.0
 20
5.0
 30
0.0
 40
0.2
  1
Building Component
100
AcDbAttributeDefinition
  3
Shape class
  2
SHAPECLASS
 70
     0
  0
ATTDEF
  5
284
100
AcDbEntity
  8
0
100
AcDbText
 10
5.0
 20
5.0
 30
0.0
 40
0.2
  1
Window
100
AcDbAttributeDefinition
  3
Shape type
  2
SHAPETYPE
 70
     0
  0
ATTDEF
  5
285
100
AcDbEntity
  8
0
100
AcDbText
 10
5.0
 20
5.0
 30
0.0
 40
0.2
  1
Casement
100
AcDbAttributeDefinition
  3
Window type
  2
SUBSHAPETYPE
 70
     0
  0
ATTDEF
  5
286
100
AcDbEntity
  8
0
100
AcDbText
 10
5.0
 20
5.0
 30
0.0
 40
0.2
  1
0
100
AcDbAttributeDefinition
  3
Fire rating
  2
FIRERATING
 70
     0
  0
ATTDEF
  5
287
100
AcDbEntity
  8
0
100
AcDbText
 10
5.0
 20
5.0
 30
0.0
 40
0.2
  1
0
100
AcDbAttributeDefinition
  3
Window number
  2
WNDWNUMBER
 70
     0
  0
LWPOLYLINE
  5
288
100
AcDbEntity
  8
BUILDING_ENVELOPE
  6
CONTINUOUS
 62
     7
100
AcDbPolyline
 90
        4
 70
     1
 10
3.75
 20
4.734
 10
6.25
 20
4.734
 10
6.25
 20
5.266
 10
3.75
 20
5.266
  0
LINE
  5
289
100
AcDbEntity
  8
BUILDING_ENVELOPE
  6
CONTINUOUS
 62
     7
100
AcDbLine
 10
3.75
 20
4.75
 30
0.0
 11
3.75
 21
5.25
 31
0.0
  0
LINE
  5
28A
100
AcDbEntity
  8
BUILDING_ENVELOPE
  6
CONTINUOUS
 62
     7
100
AcDbLine
 10
3.75
 20
5.25
 30
0.0
 11
4.083333
 21
5.25
 31
0.0
  0
LINE
  5
28B
100
AcDbEntity
  8
BUILDING_ENVELOPE
  6
CONTINUOUS
 62
     7
100
AcDbLine
 10
4.083333
 20
5.25
 30
0.0
 11
4.083333
 21
5.104167
 31
0.0
  0
LINE
  5
28C
100
AcDbEntity
  8
BUILDING_ENVELOPE
  6
CONTINUOUS
 62
     7
100
AcDbLine
 10
4.083333
 20
4.895833
 30
0.0
 11
4.083333
 21
4.75
 31
0.0
  0
LINE
  5
28D
100
AcDbEntity
  8
BUILDING_ENVELOPE
  6
CONTINUOUS
 62
     7
100
AcDbLine
 10
4.083333
 20
4.75
 30
0.0
 11
3.75
 21
4.75
 31
0.0
  0
LINE
  5
28E
100
AcDbEntity
  8
BUILDING_ENVELOPE
  6
CONTINUOUS
 62
     7
100
AcDbLine
 10
6.25
 20
4.75
 30
0.0
 11
6.25
 21
5.25
 31
0.0
  0
LINE
  5
28F
100
AcDbEntity
  8
BUILDING_ENVELOPE
  6
CONTINUOUS
 62
     7
100
AcDbLine
 10
6.25
 20
5.25
 30
0.0
 11
5.916667
 21
5.25
 31
0.0
  0
LINE
  5
290
100
AcDbEntity
  8
BUILDING_ENVELOPE
  6
CONTINUOUS
 62
     7
100
AcDbLine
 10
5.916667
 20
5.25
 30
0.0
 11
5.916667
 21
5.104167
 31
0.0
  0
LINE
  5
291
100
AcDbEntity
  8
BUILDING_ENVELOPE
  6
CONTINUOUS
 62
     7
100
AcDbLine
 10
5.916667
 20
4.895833
 30
0.0
 11
5.916667
 21
4.75
 31
0.0
  0
LINE
  5
292
100
AcDbEntity
  8
BUILDING_ENVELOPE
  6
CONTINUOUS
 62
     7
100
AcDbLine
 10
5.916667
 20
4.75
 30
0.0
 11
6.25
 21
4.75
 31
0.0
  0
LWPOLYLINE
  5
293
100
AcDbEntity
  8
BUILDING_ENVELOPE
  6
CONTINUOUS
 62
     7
100
AcDbPolyline
 90
        4
 70
     1
 10
4.083333
 20
5.208333
 10
4.166667
 20
5.208333
 10
4.166667
 20
5.0
 10
4.083333
 20
5.0
  0
LWPOLYLINE
  5
294
100
AcDbEntity
  8
BUILDING_ENVELOPE
  6
CONTINUOUS
 62
     7
100
AcDbPolyline
 90
        4
 70
     1
 10
5.916667
 20
5.208333
 10
5.833333
 20
5.208333
 10
5.833333
 20
5.0
 10
5.916667
 20
5.0
  0
LINE
  5
295
100
AcDbEntity
  8
BUILDING_ENVELOPE
  6
CONTINUOUS
 62
     7
100
AcDbLine
 10
4.166667
 20
5.104167
 30
0.0
 11
5.833333
 21
5.104167
 31
0.0
  0
LINE
  5
296
100
AcDbEntity
  8
BUILDING_ENVELOPE
  6
CONTINUOUS
 62
     7
100
AcDbLine
 10
3.75
 20
4.75
 30
0.0
 11
3.75
 21
5.25
 31
0.0
  0
LINE
  5
297
100
AcDbEntity
  8
BUILDING_ENVELOPE
  6
CONTINUOUS
 62
     7
100
AcDbLine
 10
6.25
 20
4.75
 30
0.0
 11
6.25
 21
5.25
 31
0.0
  0
LWPOLYLINE
  5
298
100
AcDbEntity
  8
BUILDING_ENVELOPE
  6
CONTINUOUS
 62
     7
100
AcDbPolyline
 90
        4
 70
     1
 10
4.083333
 20
5.0
 10
4.125
 20
5.0
 10
4.125
 20
4.895833
 10
4.083333
 20
4.895833
  0
LWPOLYLINE
  5
299
100
AcDbEntity
  8
BUILDING_ENVELOPE
  6
CONTINUOUS
 62
     7
100
AcDbPolyline
 90
        4
 70
     1
 10
5.916667
 20
5.0
 10
5.875
 20
5.0
 10
5.875
 20
4.895833
 10
5.916667
 20
4.895833
  0
ENDBLK
  5
29A
100
AcDbEntity
  8
0
100
AcDbBlockEnd
  0
ENDSEC
  0
SECTION
  2
ENTITIES
  0
LINE
  5
76
102
{ACAD_REACTORS
330
7A
102
}
100
AcDbEntity
  8
SPACE
  6
CONTINUOUS
100
AcDbLine
 10
13.389228
 20
34.422765
 30
0.0
 11
13.389228
 21
46.088043
 31
0.0
  0
LINE
  5
77
102
{ACAD_REACTORS
330
7A
102
}
100
AcDbEntity
  8
SPACE
  6
CONTINUOUS
100
AcDbLine
 10
13.389228
 20
46.088043
 30
0.0
 11
2.625
 21
46.088042
 31
0.0
  0
LINE
  5
78
102
{ACAD_REACTORS
330
7A
102
}
100
AcDbEntity
  8
SPACE
  6
CONTINUOUS
100
AcDbLine
 10
2.625
 20
46.088042
 30
0.0
 11
2.625
 21
34.422765
 31
0.0
  0
LINE
  5
79
102
{ACAD_REACTORS
330
7A
102
}
100
AcDbEntity
  8
SPACE
  6
CONTINUOUS
100
AcDbLine
 10
2.625
 20
34.422765
 30
0.0
 11
13.389228
 21
34.422765
 31
0.0
  0
HATCH
  5
7A
102
{ACAD_REACTORS
330
74
102
}
100
AcDbEntity
  8
SPACE
 62
   253
100
AcDbHatch
 10
0.0
 20
0.0
 30
0.0
210
0.0
220
0.0
230
1.0
  2
SOLID
 70
     1
 71
     1
 91
        1
 92
        1
 93
        5
 72
     1
 10
13.3892280415761267
 20
34.4227651227588538
 11
13.3892280415761267
 21
46.0880426595561232
 72
     1
 10
13.3892280415761267
 20
46.0880426595561232
 11
2.6250000000000022
 21
46.0880419966442929
 72
     1
 10
2.6250000000000022
 20
46.0880419966442929
 11
2.6250000000000022
 21
34.4227651227588538
 72
     1
 10
2.6250000000000022
 20
34.4227651227588538
 11
13.3892275492349757
 21
34.4227651227588538
 72
     1
 10
13.3892275492349757
 20
34.4227651227588538
 11
13.3892280415761267
 21
34.4227651227588538
 97
        4
330
76
330
77
330
78
330
79
 75
     0
 76
     1
 98
        0
  0
MTEXT
  5
7B
100
AcDbEntity
  8
SPACE
100
AcDbMText
 10
8.007114
 20
41.896089
 30
0.0
 40
0.500004
 41
3.284793
 71
     5
 72
     5
  1
\C7;\fCalibri|b0|i0|;\H0.50000381469727;Dining\P126 sq. ft.\P\P
  0
LWPOLYLINE
  5
7D
102
{ACAD_REACTORS
330
7E
102
}
100
AcDbEntity
  8
SPACE
  6
CONTINUOUS
100
AcDbPolyline
 90
        4
 70
     1
 10
13.722561
 20
21.089432
 10
13.722561
 20
9.422765
 10
25.356944
 20
9.422765
 10
25.356944
 20
21.089432
  0
HATCH
  5
7E
102
{ACAD_REACTORS
330
7C
102
}
100
AcDbEntity
  8
SPACE
 62
    10
100
AcDbHatch
 10
0.0
 20
0.0
 30
0.0
210
0.0
220
0.0
230
1.0
  2
SOLID
 70
     1
 71
     1
 91
        1
 92
        3
 72
     0
 73
     1
 93
        4
 10
13.7225613749094535
 20
21.089431641131025
 10
13.7225613749094535
 20
9.4227645426941411
 10
25.3569442586171263
 20
9.4227645426941411
 10
25.3569443365018756
 20
21.0894316411311422
 97
        1
330
7D
 75
     0
 76
     1
 98
        0
  0
MTEXT
  5
7F
100
AcDbEntity
  8
SPACE
100
AcDbMText
 10
19.539753
 20
16.897131
 30
0.0
 40
0.500004
 41
3.284793
 71
     5
 72
     5
  1
\C7;\fCalibri|b0|i0|;\H0.50000381469727;Bedroom\P136 sq. ft.\P\P
  0
LWPOLYLINE
  5
81
102
{ACAD_REACTORS
330
82
102
}
100
AcDbEntity
  8
SPACE
  6
CONTINUOUS
100
AcDbPolyline
 90
        4
 70
     1
 10
25.356944
 20
37.589432
 10
13.722561
 20
37.589432
 10
13.722561
 20
26.422764
 10
25.356944
 20
26.422764
  0
HATCH
  5
82
102
{ACAD_REACTORS
330
80
102
}
100
AcDbEntity
  8
SPACE
 62
    10
100
AcDbHatch
 10
0.0
 20
0.0
 30
0.0
210
0.0
220
0.0
230
1.0
  2
SOLID
 70
     1
 71
     1
 91
        1
 92
        3
 72
     0
 73
     1
 93
        4
 10
25.3569442586176095
 20
37.5894322348151491
 10
13.7225607746257996
 20
37.5894322348151491
 10
13.7225607746257996
 20
26.4227642188664618
 10
25.3569442586176095
 20
26.4227642188664618
 97
        1
330
81
 75
     0
 76
     1
 98
        0
  0
MTEXT
  5
83
100
AcDbEntity
  8
SPACE
100
AcDbMText
 10
19.539752
 20
33.522132
 30
0.0
 40
0.500004
 41
3.284793
 71
     5
 72
     5
  1
\C7;\fCalibri|b0|i0|;\H0.50000381469727;Bedroom\P130 sq. ft.\P\P
  0
LINE
  5
85
102
{ACAD_REACTORS
330
89
102
}
100
AcDbEntity
  8
SPACE
  6
CONTINUOUS
100
AcDbLine
 10
18.356708
 20
26.089432
 30
0.0
 11
18.356708
 21
21.422765
 31
0.0
  0
LINE
  5
86
102
{ACAD_REACTORS
330
89
102
}
100
AcDbEntity
  8
SPACE
  6
CONTINUOUS
100
AcDbLine
 10
18.356708
 20
21.422765
 30
0.0
 11
25.356944
 21
21.422765
 31
0.0
  0
LINE
  5
87
102
{ACAD_REACTORS
330
89
102
}
100
AcDbEntity
  8
SPACE
  6
CONTINUOUS
100
AcDbLine
 10
25.356944
 20
21.422765
 30
0.0
 11
25.356944
 21
26.089432
 31
0.0
  0
LINE
  5
88
102
{ACAD_REACTORS
330
89
102
}
100
AcDbEntity
  8
SPACE
  6
CONTINUOUS
100
AcDbLine
 10
25.356944
 20
26.089432
 30
0.0
 11
18.356708
 21
26.089432
 31
0.0
  0
HATCH
  5
89
102
{ACAD_REACTORS
330
84
102
}
100
AcDbEntity
  8
SPACE
 62
     5
100
AcDbHatch
 10
0.0
 20
0.0
 30
0.0
210
0.0
220
0.0
230
1.0
  2
SOLID
 70
     1
 71
     1
 91
        1
 92
        1
 93
        5
 72
     1
 10
18.3567078831135504
 20
26.0894319590224981
 11
18.3567078831135504
 21
21.4227649744643891
 72
     1
 10
18.3567078831135504
 20
21.4227649744643891
 11
25.3569442586171121
 21
21.4227649744643891
 72
     1
 10
25.3569442586171121
 20
21.4227649744643891
 11
25.3569443365018863
 21
26.089431821035312
 72
     1
 10
25.3569443365018863
 20
26.089431821035312
 11
18.3567078831135504
 21
26.089431821035312
 72
     1
 10
18.3567078831135504
 20
26.089431821035312
 11
18.3567078831135504
 21
26.0894319590224981
 97
        4
330
85
330
86
330
87
330
88
 75
     0
 76
     1
 98
        0
  0
MTEXT
  5
8A
100
AcDbEntity
  8
SPACE
100
AcDbMText
 10
21.856826
 20
23.647131
 30
0.0
 40
0.500004
 41
3.319019
 71
     5
 72
     5
  1
\C7;\fCalibri|b0|i0|;\H0.50000381469727;Bathroom\P33 sq. ft.\P\P
  0
LINE
  5
8C
102
{ACAD_REACTORS
330
90
102
}
100
AcDbEntity
  8
SPACE
  6
CONTINUOUS
100
AcDbLine
 10
21.234757
 20
46.088042
 30
0.0
 11
21.234757
 21
37.922766
 31
0.0
  0
LINE
  5
8D
102
{ACAD_REACTORS
330
90
102
}
100
AcDbEntity
  8
SPACE
  6
CONTINUOUS
100
AcDbLine
 10
21.234757
 20
37.922766
 30
0.0
 11
25.356944
 21
37.922766
 31
0.0
  0
LINE
  5
8E
102
{ACAD_REACTORS
330
90
102
}
100
AcDbEntity
  8
SPACE
  6
CONTINUOUS
100
AcDbLine
 10
25.356944
 20
37.922766
 30
0.0
 11
25.356944
 21
46.088042
 31
0.0
  0
LINE
  5
8F
102
{ACAD_REACTORS
330
90
102
}
100
AcDbEntity
  8
SPACE
  6
CONTINUOUS
100
AcDbLine
 10
25.356944
 20
46.088042
 30
0.0
 11
21.234757
 21
46.088042
 31
0.0
  0
HATCH
  5
90
102
{ACAD_REACTORS
330
8B
102
}
100
AcDbEntity
  8
SPACE
 62
     5
100
AcDbHatch
 10
0.0
 20
0.0
 30
0.0
210
0.0
220
0.0
230
1.0
  2
SOLID
 70
     1
 71
     1
 91
        1
 92
        1
 93
        5
 72
     1
 10
21.2347567671558863
 20
46.0880417776618643
 11
21.2347567671558863
 21
37.9227655681484777
 72
     1
 10
21.2347567671558863
 20
37.9227655681484777
 11
25.3569442586171405
 21
37.9227655681484777
 72
     1
 10
25.3569442586171405
 20
37.9227655681484777
 11
25.3569443365018756
 21
46.0880419966442858
 72
     1
 10
25.3569443365018756
 20
46.0880419966442858
 11
21.2347567671558863
 21
46.0880419966442076
 72
     1
 10
21.2347567671558863
 20
46.0880419966442076
 11
21.2347567671558863
 21
46.0880417776618643
 97
        4
330
8C
330
8D
330
8E
330
8F
 75
     0
 76
     1
 98
        0
  0
MTEXT
  5
91
100
AcDbEntity
  8
SPACE
100
AcDbMText
 10
23.295851
 20
42.771089
 30
0.0
 40
0.500004
 41
3.319019
 71
     5
 72
     5
  1
\C7;\fCalibri|b0|i0|;\H0.50000381469727;Bathroom\P34 sq. ft.\P\P
  0
LINE
  5
93
102
{ACAD_REACTORS
330
97
102
}
100
AcDbEntity
  8
SPACE
  6
CONTINUOUS
100
AcDbLine
 10
18.023375
 20
26.089432
 30
0.0
 11
13.722561
 21
26.089432
 31
0.0
  0
LINE
  5
94
102
{ACAD_REACTORS
330
97
102
}
100
AcDbEntity
  8
SPACE
  6
CONTINUOUS
100
AcDbLine
 10
13.722561
 20
26.089432
 30
0.0
 11
13.722561
 21
21.422765
 31
0.0
  0
LINE
  5
95
102
{ACAD_REACTORS
330
97
102
}
100
AcDbEntity
  8
SPACE
  6
CONTINUOUS
100
AcDbLine
 10
13.722561
 20
21.422765
 30
0.0
 11
18.023375
 21
21.422765
 31
0.0
  0
LINE
  5
96
102
{ACAD_REACTORS
330
97
102
}
100
AcDbEntity
  8
SPACE
  6
CONTINUOUS
100
AcDbLine
 10
18.023375
 20
21.422765
 30
0.0
 11
18.023375
 21
26.089432
 31
0.0
  0
HATCH
  5
97
102
{ACAD_REACTORS
330
92
102
}
100
AcDbEntity
  8
SPACE
 62
     6
100
AcDbHatch
 10
0.0
 20
0.0
 30
0.0
210
0.0
220
0.0
230
1.0
  2
SOLID
 70
     1
 71
     1
 91
        1
 92
        1
 93
        5
 72
     1
 10
18.0233745497802147
 20
26.089431821035312
 11
13.7225613749094553
 21
26.089431821035312
 72
     1
 10
13.7225613749094553
 20
26.089431821035312
 11
13.7225613749094553
 21
21.4227649744643145
 72
     1
 10
13.7225613749094553
 20
21.4227649744643145
 11
18.0233745497802147
 21
21.4227649744643145
 72
     1
 10
18.0233745497802147
 20
21.4227649744643145
 11
18.0233745497802147
 21
26.0894319590224946
 72
     1
 10
18.0233745497802147
 20
26.0894319590224946
 11
18.0233745497802147
 21
26.089431821035312
 97
        4
330
93
330
94
330
95
330
96
 75
     0
 76
     1
 98
        0
  0
MTEXT
  5
98
100
AcDbEntity
  8
SPACE
100
AcDbMText
 10
15.872968
 20
23.647131
 30
0.0
 40
0.500004
 41
2.946903
 71
     5
 72
     5
  1
\C7;\fCalibri|b0|i0|;\H0.50000381469727;Lobby\P20 sq. ft.\P\P
  0
LINE
  5
9A
102
{ACAD_REACTORS
330
9E
102
}
100
AcDbEntity
  8
SPACE
  6
CONTINUOUS
100
AcDbLine
 10
20.901423
 20
46.088042
 30
0.0
 11
13.722561
 21
46.088042
 31
0.0
  0
LINE
  5
9B
102
{ACAD_REACTORS
330
9E
102
}
100
AcDbEntity
  8
SPACE
  6
CONTINUOUS
100
AcDbLine
 10
13.722561
 20
46.088042
 30
0.0
 11
13.722561
 21
37.922766
 31
0.0
  0
LINE
  5
9C
102
{ACAD_REACTORS
330
9E
102
}
100
AcDbEntity
  8
SPACE
  6
CONTINUOUS
100
AcDbLine
 10
13.722561
 20
37.922766
 30
0.0
 11
20.901423
 21
37.922766
 31
0.0
  0
LINE
  5
9D
102
{ACAD_REACTORS
330
9E
102
}
100
AcDbEntity
  8
SPACE
  6
CONTINUOUS
100
AcDbLine
 10
20.901423
 20
37.922766
 30
0.0
 11
20.901423
 21
46.088042
 31
0.0
  0
HATCH
  5
9E
102
{ACAD_REACTORS
330
99
102
}
100
AcDbEntity
  8
SPACE
 62
    40
100
AcDbHatch
 10
0.0
 20
0.0
 30
0.0
210
0.0
220
0.0
230
1.0
  2
SOLID
 70
     1
 71
     1
 91
        1
 92
        1
 93
        5
 72
     1
 10
20.9014234338225577
 20
46.088041996644229
 11
13.7225613749094606
 21
46.088041996644229
 72
     1
 10
13.7225613749094606
 20
46.088041996644229
 11
13.7225613749094606
 21
37.9227655681484777
 72
     1
 10
13.7225613749094606
 20
37.9227655681484777
 11
20.9014234338225577
 21
37.9227655681484777
 72
     1
 10
20.9014234338225577
 20
37.9227655681484777
 11
20.9014234338225577
 21
46.0880417776618074
 72
     1
 10
20.9014234338225577
 20
46.0880417776618074
 11
20.9014234338225577
 21
46.088041996644229
 97
        4
330
9A
330
9B
330
9C
330
9D
 75
     0
 76
     1
 98
        0
  0
MTEXT
  5
9F
100
AcDbEntity
  8
SPACE
100
AcDbMText
 10
17.311992
 20
42.771089
 30
0.0
 40
0.500004
 41
2.946903
 71
     5
 72
     5
  1
\C7;\fCalibri|b0|i0|;\H0.50000381469727;Kitchen\P59 sq. ft.\P\P
  0
LINE
  5
A1
102
{ACAD_REACTORS
330
AB
102
}
100
AcDbEntity
  8
SPACE
  6
CONTINUOUS
100
AcDbLine
 10
13.389228
 20
14.089431
 30
0.0
 11
2.625
 21
14.089431
 31
0.0
  0
LINE
  5
A2
102
{ACAD_REACTORS
330
AB
102
}
100
AcDbEntity
  8
SPACE
  6
CONTINUOUS
100
AcDbLine
 10
2.625
 20
14.089431
 30
0.0
 11
2.503049
 21
14.089431
 31
0.0
  0
LINE
  5
A3
102
{ACAD_REACTORS
330
AB
102
}
100
AcDbEntity
  8
SPACE
  6
CONTINUOUS
100
AcDbLine
 10
2.503049
 20
14.089431
 30
0.0
 11
2.458333
 21
14.089431
 31
0.0
  0
LINE
  5
A4
102
{ACAD_REACTORS
330
AB
102
}
100
AcDbEntity
  8
SPACE
  6
CONTINUOUS
100
AcDbLine
 10
2.458333
 20
14.089431
 30
0.0
 11
2.291667
 21
14.089431
 31
0.0
  0
LINE
  5
A5
102
{ACAD_REACTORS
330
AB
102
}
100
AcDbEntity
  8
SPACE
  6
CONTINUOUS
100
AcDbLine
 10
2.291667
 20
14.089431
 30
0.0
 11
0.690278
 21
14.089431
 31
0.0
  0
LINE
  5
A6
102
{ACAD_REACTORS
330
AB
102
}
100
AcDbEntity
  8
SPACE
  6
CONTINUOUS
100
AcDbLine
 10
0.690278
 20
14.089431
 30
0.0
 11
0.690278
 21
1.421375
 31
0.0
  0
LINE
  5
A7
102
{ACAD_REACTORS
330
AB
102
}
100
AcDbEntity
  8
SPACE
  6
CONTINUOUS
100
AcDbLine
 10
0.690278
 20
1.421375
 30
0.0
 11
25.356944
 21
1.421375
 31
0.0
  0
LINE
  5
A8
102
{ACAD_REACTORS
330
AB
102
}
100
AcDbEntity
  8
SPACE
  6
CONTINUOUS
100
AcDbLine
 10
25.356944
 20
1.421375
 30
0.0
 11
25.356944
 21
9.089431
 31
0.0
  0
LINE
  5
A9
102
{ACAD_REACTORS
330
AB
102
}
100
AcDbEntity
  8
SPACE
  6
CONTINUOUS
100
AcDbLine
 10
25.356944
 20
9.089431
 30
0.0
 11
13.389228
 21
9.089431
 31
0.0
  0
LINE
  5
AA
102
{ACAD_REACTORS
330
AB
102
}
100
AcDbEntity
  8
SPACE
  6
CONTINUOUS
100
AcDbLine
 10
13.389228
 20
9.089431
 30
0.0
 11
13.389228
 21
14.089431
 31
0.0
  0
HATCH
  5
AB
102
{ACAD_REACTORS
330
A0
102
}
100
AcDbEntity
  8
SPACE
 62
    22
100
AcDbHatch
 10
0.0
 20
0.0
 30
0.0
210
0.0
220
0.0
230
1.0
  2
SOLID
 70
     1
 71
     1
 91
        1
 92
        1
 93
       11
 72
     1
 10
13.389227549235013
 20
14.0894311447437346
 11
2.624999999999988
 21
14.0894311447437346
 72
     1
 10
2.624999999999988
 20
14.0894311447437346
 11
2.5030487687015293
 21
14.0894313892650835
 72
     1
 10
2.5030487687015293
 20
14.0894313892650835
 11
2.4583333333333397
 21
14.0894313892650835
 72
     1
 10
2.4583333333333397
 20
14.0894313892650835
 11
2.2916666666666674
 21
14.0894313892650835
 72
     1
 10
2.2916666666666674
 20
14.0894313892650835
 11
0.690277669835216
 21
14.0894313892650835
 72
     1
 10
0.690277669835216
 20
14.0894313892650835
 11
0.690277669835216
 21
1.4213753299775267
 72
     1
 10
0.690277669835216
 20
1.4213753299775267
 11
25.3569443365018827
 21
1.4213753299775267
 72
     1
 10
25.3569443365018827
 20
1.4213753299775267
 11
25.3569443365018827
 21
9.089431209360864
 72
     1
 10
25.3569443365018827
 20
9.089431209360864
 11
13.3892280415760077
 21
9.089431209360864
 72
     1
 10
13.3892280415760077
 20
9.089431209360864
 11
13.3892280415760077
 21
14.0894311447437346
 72
     1
 10
13.3892280415760077
 20
14.0894311447437346
 11
13.389227549235013
 21
14.0894311447437346
 97
       10
330
A1
330
A2
330
A3
330
A4
330
A5
330
A6
330
A7
330
A8
330
A9
330
AA
 75
     0
 76
     1
 98
        0
  0
MTEXT
  5
AC
100
AcDbEntity
  8
SPACE
100
AcDbMText
 10
7.125
 20
9.313797
 30
0.0
 40
0.500004
 41
3.284793
 71
     5
 72
     5
  1
\C7;\fCalibri|b0|i0|;\H0.50000381469727;Garage\P253 sq. ft.\P\P
  0
LINE
  5
AE
102
{ACAD_REACTORS
330
B2
102
}
100
AcDbEntity
  8
SPACE
  6
CONTINUOUS
100
AcDbLine
 10
13.389228
 20
34.089432
 30
0.0
 11
2.625
 21
34.089432
 31
0.0
  0
LINE
  5
AF
102
{ACAD_REACTORS
330
B2
102
}
100
AcDbEntity
  8
SPACE
  6
CONTINUOUS
100
AcDbLine
 10
2.625
 20
34.089432
 30
0.0
 11
2.625
 21
14.422765
 31
0.0
  0
LINE
  5
B0
102
{ACAD_REACTORS
330
B2
102
}
100
AcDbEntity
  8
SPACE
  6
CONTINUOUS
100
AcDbLine
 10
2.625
 20
14.422765
 30
0.0
 11
13.389228
 21
14.422765
 31
0.0
  0
LINE
  5
B1
102
{ACAD_REACTORS
330
B2
102
}
100
AcDbEntity
  8
SPACE
  6
CONTINUOUS
100
AcDbLine
 10
13.389228
 20
14.422765
 30
0.0
 11
13.389228
 21
34.089432
 31
0.0
  0
HATCH
  5
B2
102
{ACAD_REACTORS
330
AD
102
}
100
AcDbEntity
  8
SPACE
 62
     2
100
AcDbHatch
 10
0.0
 20
0.0
 30
0.0
210
0.0
220
0.0
230
1.0
  2
SOLID
 70
     1
 71
     1
 91
        1
 92
        1
 93
        5
 72
     1
 10
13.3892275492350805
 20
34.0894317894255181
 11
2.625
 21
34.0894317894255181
 72
     1
 10
2.625
 20
34.0894317894255181
 11
2.625
 21
14.4227647225984157
 72
     1
 10
2.625
 20
14.4227647225984157
 11
13.3892280415761249
 21
14.4227647225984157
 72
     1
 10
13.3892280415761249
 20
14.4227647225984157
 11
13.3892280415761249
 21
34.0894317894255181
 72
     1
 10
13.3892280415761249
 20
34.0894317894255181
 11
13.3892275492350805
 21
34.0894317894255181
 97
        4
330
AE
330
AF
330
B0
330
B1
 75
     0
 76
     1
 98
        0
  0
MTEXT
  5
B3
100
AcDbEntity
  8
SPACE
100
AcDbMText
 10
8.007114
 20
27.897131
 30
0.0
 40
0.500004
 41
3.284793
 71
     5
 72
     5
  1
\C7;\fCalibri|b0|i0|;\H0.50000381469727;Lounge\P212 sq. ft.\P\P
  0
LWPOLYLINE
  5
B6
102
{ACAD_REACTORS
330
B7
102
}
100
AcDbEntity
  8
BUILDING_ENVELOPE
  6
CONTINUOUS
 62
     7
100
AcDbPolyline
 90
        4
 70
     1
 10
0.690278
 20
46.088042
 10
0.690278
 20
1.421375
 10
0.356944
 20
1.088042
 10
0.356944
 20
46.421375
  0
HATCH
  5
B7
102
{ACAD_REACTORS
330
B4
102
}
100
AcDbEntity
  8
BUILDING_ENVELOPE
 62
     7
100
AcDbHatch
 10
0.0
 20
0.0
 30
0.0
210
0.0
220
0.0
230
1.0
  2
SOLID
 70
     1
 71
     1
 91
        1
 92
        3
 72
     0
 73
     1
 93
        4
 10
0.6902776698352131
 20
46.0880419966442005
 10
0.6902776698352131
 20
1.4213753299775362
 10
0.3569443365018797
 20
1.0880419966442028
 10
0.3569443365018797
 20
46.4213753299775362
 97
        1
330
B6
 75
     0
 76
     1
 98
        0
  0
LINE
  5
B8
102
{ACAD_REACTORS
330
B4
102
}
100
AcDbEntity
  8
BUILDING_ENVELOPE
  6
CONTINUOUS
 62
     7
100
AcDbLine
 10
0.690278
 20
46.088042
 30
0.0
 11
0.690278
 21
1.421375
 31
0.0
  0
LINE
  5
B9
102
{ACAD_REACTORS
330
B4
102
}
100
AcDbEntity
  8
BUILDING_ENVELOPE
  6
CONTINUOUS
 62
     7
100
AcDbLine
 10
0.356944
 20
46.421375
 30
0.0
 11
0.356944
 21
1.088042
 31
0.0
  0
LWPOLYLINE
  5
BB
102
{ACAD_REACTORS
330
BC
102
}
100
AcDbEntity
  8
BUILDING_ENVELOPE
  6
CONTINUOUS
 62
     7
100
AcDbPolyline
 90
        4
 70
     1
 10
25.690278
 20
46.421375
 10
25.690278
 20
1.088042
 10
25.356944
 20
1.421375
 10
25.356944
 20
46.088042
  0
HATCH
  5
BC
102
{ACAD_REACTORS
330
BA
102
}
100
AcDbEntity
  8
BUILDING_ENVELOPE
 62
     7
100
AcDbHatch
 10
0.0
 20
0.0
 30
0.0
210
0.0
220
0.0
230
1.0
  2
SOLID
 70
     1
 71
     1
 91
        1
 92
        3
 72
     0
 73
     1
 93
        4
 10
25.6902776698352042
 20
46.4213753299776073
 10
25.6902776698352042
 20
1.0880419966442787
 10
25.3569443365018721
 20
1.421375329977612
 10
25.3569443365018721
 20
46.0880419966442787
 97
        1
330
BB
 75
     0
 76
     1
 98
        0
  0
LINE
  5
BD
102
{ACAD_REACTORS
330
BA
102
}
100
AcDbEntity
  8
BUILDING_ENVELOPE
  6
CONTINUOUS
 62
     7
100
AcDbLine
 10
25.690278
 20
46.421375
 30
0.0
 11
25.690278
 21
1.088042
 31
0.0
  0
LINE
  5
BE
102
{ACAD_REACTORS
330
BA
102
}
100
AcDbEntity
  8
BUILDING_ENVELOPE
  6
CONTINUOUS
 62
     7
100
AcDbLine
 10
25.356944
 20
46.088042
 30
0.0
 11
25.356944
 21
1.421375
 31
0.0
  0
LWPOLYLINE
  5
C0
102
{ACAD_REACTORS
330
C1
102
}
100
AcDbEntity
  8
BUILDING_ENVELOPE
  6
CONTINUOUS
 62
     7
100
AcDbPolyline
 90
        4
 70
     1
 10
0.356944
 20
46.421375
 10
25.690278
 20
46.421375
 10
25.356944
 20
46.088042
 10
0.690278
 20
46.088042
  0
HATCH
  5
C1
102
{ACAD_REACTORS
330
BF
102
}
100
AcDbEntity
  8
BUILDING_ENVELOPE
 62
     7
100
AcDbHatch
 10
0.0
 20
0.0
 30
0.0
210
0.0
220
0.0
230
1.0
  2
SOLID
 70
     1
 71
     1
 91
        1
 92
        3
 72
     0
 73
     1
 93
        4
 10
0.3569443365018732
 20
46.4213753299775718
 10
25.6902776698352113
 20
46.4213753299775718
 10
25.3569443365018756
 20
46.0880419966442361
 10
0.6902776698352089
 20
46.0880419966442361
 97
        1
330
C0
 75
     0
 76
     1
 98
        0
  0
LINE
  5
C2
102
{ACAD_REACTORS
330
BF
102
}
100
AcDbEntity
  8
BUILDING_ENVELOPE
  6
CONTINUOUS
 62
     7
100
AcDbLine
 10
0.356944
 20
46.421375
 30
0.0
 11
25.690278
 21
46.421375
 31
0.0
  0
LINE
  5
C3
102
{ACAD_REACTORS
330
BF
102
}
100
AcDbEntity
  8
BUILDING_ENVELOPE
  6
CONTINUOUS
 62
     7
100
AcDbLine
 10
0.690278
 20
46.088042
 30
0.0
 11
25.356944
 21
46.088042
 31
0.0
  0
LWPOLYLINE
  5
C5
102
{ACAD_REACTORS
330
C6
102
}
100
AcDbEntity
  8
BUILDING_ENVELOPE
  6
CONTINUOUS
 62
     7
100
AcDbPolyline
 90
        4
 70
     1
 10
0.690278
 20
1.421375
 10
25.356944
 20
1.421375
 10
25.690278
 20
1.088042
 10
0.356944
 20
1.088042
  0
HATCH
  5
C6
102
{ACAD_REACTORS
330
C4
102
}
100
AcDbEntity
  8
BUILDING_ENVELOPE
 62
     7
100
AcDbHatch
 10
0.0
 20
0.0
 30
0.0
210
0.0
220
0.0
230
1.0
  2
SOLID
 70
     1
 71
     1
 91
        1
 92
        3
 72
     0
 73
     1
 93
        4
 10
0.6902776698352042
 20
1.421375329977574
 10
25.3569443365018756
 20
1.421375329977574
 10
25.6902776698352113
 20
1.0880419966442407
 10
0.3569443365018756
 20
1.0880419966442407
 97
        1
330
C5
 75
     0
 76
     1
 98
        0
  0
LINE
  5
C7
102
{ACAD_REACTORS
330
C4
102
}
100
AcDbEntity
  8
BUILDING_ENVELOPE
  6
CONTINUOUS
 62
     7
100
AcDbLine
 10
0.690278
 20
1.421375
 30
0.0
 11
25.356944
 21
1.421375
 31
0.0
  0
LINE
  5
C8
102
{ACAD_REACTORS
330
C4
102
}
100
AcDbEntity
  8
BUILDING_ENVELOPE
  6
CONTINUOUS
 62
     7
100
AcDbLine
 10
0.356944
 20
1.088042
 30
0.0
 11
25.690278
 21
1.088042
 31
0.0
  0
LWPOLYLINE
  5
CA
102
{ACAD_REACTORS
330
CB
102
}
100
AcDbEntity
  8
BUILDING_ENVELOPE
  6
CONTINUOUS
 62
     7
100
AcDbPolyline
 90
        4
 70
     1
 10
13.722561
 20
9.422765
 10
25.356944
 20
9.422765
 10
25.356944
 20
9.089431
 10
13.389228
 20
9.089431
  0
HATCH
  5
CB
102
{ACAD_REACTORS
330
C9
102
}
100
AcDbEntity
  8
BUILDING_ENVELOPE
 62
     7
100
AcDbHatch
 10
0.0
 20
0.0
 30
0.0
210
0.0
220
0.0
230
1.0
  2
SOLID
 70
     1
 71
     1
 91
        1
 92
        3
 72
     0
 73
     1
 93
        4
 10
13.7225613749094499
 20
9.4227645426941411
 10
25.3569443365018756
 20
9.4227645426941411
 10
25.3569443365018756
 20
9.0894312093608072
 10
13.3892280415761196
 20
9.0894312093608072
 97
        1
330
CA
 75
     0
 76
     1
 98
        0
  0
LWPOLYLINE
  5
CC
102
{ACAD_REACTORS
330
CD
102
}
100
AcDbEntity
  8
BUILDING_ENVELOPE
  6
CONTINUOUS
 62
     7
100
AcDbPolyline
 90
        4
 70
     1
 10
25.356944
 20
9.422765
 10
25.356944
 20
9.089431
 10
25.390278
 20
9.089431
 10
25.390278
 20
9.422765
  0
HATCH
  5
CD
102
{ACAD_REACTORS
330
C9
102
}
100
AcDbEntity
  8
BUILDING_ENVELOPE
 62
     7
100
AcDbHatch
 10
0.0
 20
0.0
 30
0.0
210
0.0
220
0.0
230
1.0
  2
SOLID
 70
     1
 71
     1
 91
        1
 92
        3
 72
     0
 73
     1
 93
        4
 10
25.3569443365018756
 20
9.4227645426941411
 10
25.3569443365018756
 20
9.0894312093608072
 10
25.3902776698352071
 20
9.0894312093608072
 10
25.3902776698352071
 20
9.4227645426941411
 97
        1
330
CC
 75
     0
 76
     1
 98
        0
  0
LINE
  5
CE
102
{ACAD_REACTORS
330
C9
102
}
100
AcDbEntity
  8
BUILDING_ENVELOPE
  6
CONTINUOUS
 62
     7
100
AcDbLine
 10
13.722561
 20
9.422765
 30
0.0
 11
25.356944
 21
9.422765
 31
0.0
  0
LINE
  5
CF
102
{ACAD_REACTORS
330
C9
102
}
100
AcDbEntity
  8
BUILDING_ENVELOPE
  6
CONTINUOUS
 62
     7
100
AcDbLine
 10
13.389228
 20
9.089431
 30
0.0
 11
25.356944
 21
9.089431
 31
0.0
  0
LWPOLYLINE
  5
D1
102
{ACAD_REACTORS
330
D2
102
}
100
AcDbEntity
  8
BUILDING_ENVELOPE
  6
CONTINUOUS
 62
     7
100
AcDbPolyline
 90
        4
 70
     1
 10
13.722561
 20
21.422765
 10
25.356944
 20
21.422765
 10
25.356944
 20
21.089432
 10
13.722561
 20
21.089432
  0
HATCH
  5
D2
102
{ACAD_REACTORS
330
D0
102
}
100
AcDbEntity
  8
BUILDING_ENVELOPE
 62
     7
100
AcDbHatch
 10
0.0
 20
0.0
 30
0.0
210
0.0
220
0.0
230
1.0
  2
SOLID
 70
     1
 71
     1
 91
        1
 92
        3
 72
     0
 73
     1
 93
        4
 10
13.7225613749094553
 20
21.4227649744643784
 10
25.3569443365018721
 20
21.4227649744643784
 10
25.3569443365018756
 20
21.0894316411310498
 10
13.7225613749094553
 20
21.0894316411310498
 97
        1
330
D1
 75
     0
 76
     1
 98
        0
  0
LWPOLYLINE
  5
D3
102
{ACAD_REACTORS
330
D4
102
}
100
AcDbEntity
  8
BUILDING_ENVELOPE
  6
CONTINUOUS
 62
     7
100
AcDbPolyline
 90
        4
 70
     1
 10
13.722561
 20
21.089432
 10
13.722561
 20
21.422765
 10
13.689228
 20
21.422765
 10
13.689228
 20
21.089432
  0
HATCH
  5
D4
102
{ACAD_REACTORS
330
D0
102
}
100
AcDbEntity
  8
BUILDING_ENVELOPE
 62
     7
100
AcDbHatch
 10
0.0
 20
0.0
 30
0.0
210
0.0
220
0.0
230
1.0
  2
SOLID
 70
     1
 71
     1
 91
        1
 92
        3
 72
     0
 73
     1
 93
        4
 10
13.7225613749094553
 20
21.0894316411310498
 10
13.7225613749094553
 20
21.4227649744643784
 10
13.6892280415761221
 20
21.4227649744643784
 10
13.6892280415761221
 20
21.0894316411310498
 97
        1
330
D3
 75
     0
 76
     1
 98
        0
  0
LWPOLYLINE
  5
D5
102
{ACAD_REACTORS
330
D6
102
}
100
AcDbEntity
  8
BUILDING_ENVELOPE
  6
CONTINUOUS
 62
     7
100
AcDbPolyline
 90
        4
 70
     1
 10
25.356944
 20
21.422765
 10
25.356944
 20
21.089432
 10
25.390278
 20
21.089432
 10
25.390278
 20
21.422765
  0
HATCH
  5
D6
102
{ACAD_REACTORS
330
D0
102
}
100
AcDbEntity
  8
BUILDING_ENVELOPE
 62
     7
100
AcDbHatch
 10
0.0
 20
0.0
 30
0.0
210
0.0
220
0.0
230
1.0
  2
SOLID
 70
     1
 71
     1
 91
        1
 92
        3
 72
     0
 73
     1
 93
        4
 10
25.3569443365018756
 20
21.4227649744643784
 10
25.3569443365018756
 20
21.0894316411310498
 10
25.3902776698352142
 20
21.0894316411310498
 10
25.3902776698352142
 20
21.4227649744643784
 97
        1
330
D5
 75
     0
 76
     1
 98
        0
  0
LINE
  5
D7
102
{ACAD_REACTORS
330
D0
102
}
100
AcDbEntity
  8
BUILDING_ENVELOPE
  6
CONTINUOUS
 62
     7
100
AcDbLine
 10
13.722561
 20
21.422765
 30
0.0
 11
25.356944
 21
21.422765
 31
0.0
  0
LINE
  5
D8
102
{ACAD_REACTORS
330
D0
102
}
100
AcDbEntity
  8
BUILDING_ENVELOPE
  6
CONTINUOUS
 62
     7
100
AcDbLine
 10
13.722561
 20
21.089432
 30
0.0
 11
25.356944
 21
21.089432
 31
0.0
  0
LWPOLYLINE
  5
DA
102
{ACAD_REACTORS
330
DB
102
}
100
AcDbEntity
  8
BUILDING_ENVELOPE
  6
CONTINUOUS
 62
     7
100
AcDbPolyline
 90
        4
 70
     1
 10
13.722561
 20
26.422765
 10
25.356944
 20
26.422765
 10
25.356944
 20
26.089432
 10
13.722561
 20
26.089432
  0
HATCH
  5
DB
102
{ACAD_REACTORS
330
D9
102
}
100
AcDbEntity
  8
BUILDING_ENVELOPE
 62
     7
100
AcDbHatch
 10
0.0
 20
0.0
 30
0.0
210
0.0
220
0.0
230
1.0
  2
SOLID
 70
     1
 71
     1
 91
        1
 92
        3
 72
     0
 73
     1
 93
        4
 10
13.7225613749094553
 20
26.4227651543686548
 10
25.3569443365018721
 20
26.4227651543686548
 10
25.3569443365018756
 20
26.0894318210353227
 10
13.7225613749094553
 20
26.0894318210353227
 97
        1
330
DA
 75
     0
 76
     1
 98
        0
  0
LWPOLYLINE
  5
DC
102
{ACAD_REACTORS
330
DD
102
}
100
AcDbEntity
  8
BUILDING_ENVELOPE
  6
CONTINUOUS
 62
     7
100
AcDbPolyline
 90
        4
 70
     1
 10
13.722561
 20
26.089432
 10
13.722561
 20
26.422765
 10
13.689228
 20
26.422765
 10
13.689228
 20
26.089432
  0
HATCH
  5
DD
102
{ACAD_REACTORS
330
D9
102
}
100
AcDbEntity
  8
BUILDING_ENVELOPE
 62
     7
100
AcDbHatch
 10
0.0
 20
0.0
 30
0.0
210
0.0
220
0.0
230
1.0
  2
SOLID
 70
     1
 71
     1
 91
        1
 92
        3
 72
     0
 73
     1
 93
        4
 10
13.7225613749094553
 20
26.0894318210353227
 10
13.7225613749094553
 20
26.4227651543686548
 10
13.6892280415761221
 20
26.4227651543686548
 10
13.6892280415761221
 20
26.0894318210353227
 97
        1
330
DC
 75
     0
 76
     1
 98
        0
  0
LWPOLYLINE
  5
DE
102
{ACAD_REACTORS
330
DF
102
}
100
AcDbEntity
  8
BUILDING_ENVELOPE
  6
CONTINUOUS
 62
     7
100
AcDbPolyline
 90
        4
 70
     1
 10
25.356944
 20
26.422765
 10
25.356944
 20
26.089432
 10
25.390278
 20
26.089432
 10
25.390278
 20
26.422765
  0
HATCH
  5
DF
102
{ACAD_REACTORS
330
D9
102
}
100
AcDbEntity
  8
BUILDING_ENVELOPE
 62
     7
100
AcDbHatch
 10
0.0
 20
0.0
 30
0.0
210
0.0
220
0.0
230
1.0
  2
SOLID
 70
     1
 71
     1
 91
        1
 92
        3
 72
     0
 73
     1
 93
        4
 10
25.3569443365018721
 20
26.4227651543686548
 10
25.3569443365018721
 20
26.0894318210353227
 10
25.3902776698352071
 20
26.0894318210353227
 10
25.3902776698352071
 20
26.4227651543686548
 97
        1
330
DE
 75
     0
 76
     1
 98
        0
  0
LINE
  5
E0
102
{ACAD_REACTORS
330
D9
102
}
100
AcDbEntity
  8
BUILDING_ENVELOPE
  6
CONTINUOUS
 62
     7
100
AcDbLine
 10
13.722561
 20
26.422765
 30
0.0
 11
25.356944
 21
26.422765
 31
0.0
  0
LINE
  5
E1
102
{ACAD_REACTORS
330
D9
102
}
100
AcDbEntity
  8
BUILDING_ENVELOPE
  6
CONTINUOUS
 62
     7
100
AcDbLine
 10
13.722561
 20
26.089432
 30
0.0
 11
25.356944
 21
26.089432
 31
0.0
  0
LWPOLYLINE
  5
E3
102
{ACAD_REACTORS
330
E4
102
}
100
AcDbEntity
  8
BUILDING_ENVELOPE
  6
CONTINUOUS
 62
     7
100
AcDbPolyline
 90
        5
 70
     1
 10
2.291667
 20
14.089431
 10
2.291667
 20
46.088042
 10
2.625
 20
46.088042
 10
2.625
 20
14.089431
 10
2.458333
 20
14.089431
  0
HATCH
  5
E4
102
{ACAD_REACTORS
330
E2
102
}
100
AcDbEntity
  8
BUILDING_ENVELOPE
 62
     7
100
AcDbHatch
 10
0.0
 20
0.0
 30
0.0
210
0.0
220
0.0
230
1.0
  2
SOLID
 70
     1
 71
     1
 91
        1
 92
        3
 72
     0
 73
     1
 93
        5
 10
2.2916666666666665
 20
14.0894313892650729
 10
2.2916666666666665
 20
46.0880419966442005
 10
2.625
 20
46.0880419966442005
 10
2.625
 20
14.0894313892650729
 10
2.458333333333333
 20
14.0894313892650729
 97
        1
330
E3
 75
     0
 76
     1
 98
        0
  0
LWPOLYLINE
  5
E5
102
{ACAD_REACTORS
330
E6
102
}
100
AcDbEntity
  8
BUILDING_ENVELOPE
  6
CONTINUOUS
 62
     7
100
AcDbPolyline
 90
        4
 70
     1
 10
2.291667
 20
46.088042
 10
2.625
 20
46.088042
 10
2.625
 20
46.121375
 10
2.291667
 20
46.121375
  0
HATCH
  5
E6
102
{ACAD_REACTORS
330
E2
102
}
100
AcDbEntity
  8
BUILDING_ENVELOPE
 62
     7
100
AcDbHatch
 10
0.0
 20
0.0
 30
0.0
210
0.0
220
0.0
230
1.0
  2
SOLID
 70
     1
 71
     1
 91
        1
 92
        3
 72
     0
 73
     1
 93
        4
 10
2.2916666666666665
 20
46.0880419966442005
 10
2.625
 20
46.0880419966442005
 10
2.625
 20
46.1213753299775391
 10
2.2916666666666665
 20
46.1213753299775391
 97
        1
330
E5
 75
     0
 76
     1
 98
        0
  0
LWPOLYLINE
  5
E7
102
{ACAD_REACTORS
330
E2
102
}
100
AcDbEntity
  8
BUILDING_ENVELOPE
  6
CONTINUOUS
 62
     7
100
AcDbPolyline
 90
        3
 70
     0
 10
2.458333
 20
14.089431
 10
2.291667
 20
14.089431
 10
2.291667
 20
46.088042
  0
LWPOLYLINE
  5
E8
102
{ACAD_REACTORS
330
E2
102
}
100
AcDbEntity
  8
BUILDING_ENVELOPE
  6
CONTINUOUS
 62
     7
100
AcDbPolyline
 90
        3
 70
     0
 10
2.458333
 20
14.089431
 10
2.625
 20
14.089431
 10
2.625
 20
46.088042
  0
LWPOLYLINE
  5
EA
102
{ACAD_REACTORS
330
EB
102
}
100
AcDbEntity
  8
BUILDING_ENVELOPE
  6
CONTINUOUS
 62
     7
100
AcDbPolyline
 90
        4
 70
     1
 10
13.389228
 20
9.089431
 10
13.389228
 20
46.088042
 10
13.722561
 20
46.088042
 10
13.722561
 20
9.422765
  0
HATCH
  5
EB
102
{ACAD_REACTORS
330
E9
102
}
100
AcDbEntity
  8
BUILDING_ENVELOPE
 62
     7
100
AcDbHatch
 10
0.0
 20
0.0
 30
0.0
210
0.0
220
0.0
230
1.0
  2
SOLID
 70
     1
 71
     1
 91
        1
 92
        3
 72
     0
 73
     1
 93
        4
 10
13.3892280415761249
 20
9.0894312093608054
 10
13.3892280415761249
 20
46.088041996644229
 10
13.722561374909457
 20
46.0880419966442361
 10
13.722561374909457
 20
9.4227645426941411
 97
        1
330
EA
 75
     0
 76
     1
 98
        0
  0
LWPOLYLINE
  5
EC
102
{ACAD_REACTORS
330
ED
102
}
100
AcDbEntity
  8
BUILDING_ENVELOPE
  6
CONTINUOUS
 62
     7
100
AcDbPolyline
 90
        4
 70
     1
 10
13.389228
 20
46.088042
 10
13.722561
 20
46.088042
 10
13.722561
 20
46.121375
 10
13.389228
 20
46.121375
  0
HATCH
  5
ED
102
{ACAD_REACTORS
330
E9
102
}
100
AcDbEntity
  8
BUILDING_ENVELOPE
 62
     7
100
AcDbHatch
 10
0.0
 20
0.0
 30
0.0
210
0.0
220
0.0
230
1.0
  2
SOLID
 70
     1
 71
     1
 91
        1
 92
        3
 72
     0
 73
     1
 93
        4
 10
13.3892280415761249
 20
46.0880419966442361
 10
13.722561374909457
 20
46.0880419966442361
 10
13.722561374909457
 20
46.1213753299775675
 10
13.3892280415761249
 20
46.1213753299775675
 97
        1
330
EC
 75
     0
 76
     1
 98
        0
  0
LINE
  5
EE
102
{ACAD_REACTORS
330
E9
102
}
100
AcDbEntity
  8
BUILDING_ENVELOPE
  6
CONTINUOUS
 62
     7
100
AcDbLine
 10
13.389228
 20
9.089431
 30
0.0
 11
13.389228
 21
46.088042
 31
0.0
  0
LINE
  5
EF
102
{ACAD_REACTORS
330
E9
102
}
100
AcDbEntity
  8
BUILDING_ENVELOPE
  6
CONTINUOUS
 62
     7
100
AcDbLine
 10
13.722561
 20
9.422765
 30
0.0
 11
13.722561
 21
46.088042
 31
0.0
  0
LWPOLYLINE
  5
F1
102
{ACAD_REACTORS
330
F2
102
}
100
AcDbEntity
  8
BUILDING_ENVELOPE
  6
CONTINUOUS
 62
     7
100
AcDbPolyline
 90
        4
 70
     1
 10
13.722561
 20
37.922766
 10
25.356944
 20
37.922766
 10
25.356944
 20
37.589432
 10
13.722561
 20
37.589432
  0
HATCH
  5
F2
102
{ACAD_REACTORS
330
F0
102
}
100
AcDbEntity
  8
BUILDING_ENVELOPE
 62
     7
100
AcDbHatch
 10
0.0
 20
0.0
 30
0.0
210
0.0
220
0.0
230
1.0
  2
SOLID
 70
     1
 71
     1
 91
        1
 92
        3
 72
     0
 73
     1
 93
        4
 10
13.7225613749094553
 20
37.9227655681484777
 10
25.3569443365018721
 20
37.9227655681484777
 10
25.3569443365018721
 20
37.5894322348151491
 10
13.7225613749094553
 20
37.5894322348151491
 97
        1
330
F1
 75
     0
 76
     1
 98
        0
  0
LWPOLYLINE
  5
F3
102
{ACAD_REACTORS
330
F4
102
}
100
AcDbEntity
  8
BUILDING_ENVELOPE
  6
CONTINUOUS
 62
     7
100
AcDbPolyline
 90
        4
 70
     1
 10
13.722561
 20
37.589432
 10
13.722561
 20
37.922766
 10
13.689228
 20
37.922766
 10
13.689228
 20
37.589432
  0
HATCH
  5
F4
102
{ACAD_REACTORS
330
F0
102
}
100
AcDbEntity
  8
BUILDING_ENVELOPE
 62
     7
100
AcDbHatch
 10
0.0
 20
0.0
 30
0.0
210
0.0
220
0.0
230
1.0
  2
SOLID
 70
     1
 71
     1
 91
        1
 92
        3
 72
     0
 73
     1
 93
        4
 10
13.7225613749094553
 20
37.5894322348151491
 10
13.7225613749094553
 20
37.9227655681484777
 10
13.6892280415761221
 20
37.9227655681484777
 10
13.6892280415761221
 20
37.5894322348151491
 97
        1
330
F3
 75
     0
 76
     1
 98
        0
  0
LWPOLYLINE
  5
F5
102
{ACAD_REACTORS
330
F6
102
}
100
AcDbEntity
  8
BUILDING_ENVELOPE
  6
CONTINUOUS
 62
     7
100
AcDbPolyline
 90
        4
 70
     1
 10
25.356944
 20
37.922766
 10
25.356944
 20
37.589432
 10
25.390278
 20
37.589432
 10
25.390278
 20
37.922766
  0
HATCH
  5
F6
102
{ACAD_REACTORS
330
F0
102
}
100
AcDbEntity
  8
BUILDING_ENVELOPE
 62
     7
100
AcDbHatch
 10
0.0
 20
0.0
 30
0.0
210
0.0
220
0.0
230
1.0
  2
SOLID
 70
     1
 71
     1
 91
        1
 92
        3
 72
     0
 73
     1
 93
        4
 10
25.3569443365018721
 20
37.9227655681484777
 10
25.3569443365018721
 20
37.5894322348151491
 10
25.3902776698352071
 20
37.5894322348151491
 10
25.3902776698352071
 20
37.9227655681484777
 97
        1
330
F5
 75
     0
 76
     1
 98
        0
  0
LINE
  5
F7
102
{ACAD_REACTORS
330
F0
102
}
100
AcDbEntity
  8
BUILDING_ENVELOPE
  6
CONTINUOUS
 62
     7
100
AcDbLine
 10
13.722561
 20
37.922766
 30
0.0
 11
25.356944
 21
37.922766
 31
0.0
  0
LINE
  5
F8
102
{ACAD_REACTORS
330
F0
102
}
100
AcDbEntity
  8
BUILDING_ENVELOPE
  6
CONTINUOUS
 62
     7
100
AcDbLine
 10
13.722561
 20
37.589432
 30
0.0
 11
25.356944
 21
37.589432
 31
0.0
  0
LWPOLYLINE
  5
FA
102
{ACAD_REACTORS
330
FB
102
}
100
AcDbEntity
  8
BUILDING_ENVELOPE
  6
CONTINUOUS
 62
     7
100
AcDbPolyline
 90
        4
 70
     1
 10
2.625
 20
34.422765
 10
13.389228
 20
34.422765
 10
13.389228
 20
34.089432
 10
2.625
 20
34.089432
  0
HATCH
  5
FB
102
{ACAD_REACTORS
330
F9
102
}
100
AcDbEntity
  8
BUILDING_ENVELOPE
 62
     7
100
AcDbHatch
 10
0.0
 20
0.0
 30
0.0
210
0.0
220
0.0
230
1.0
  2
SOLID
 70
     1
 71
     1
 91
        1
 92
        3
 72
     0
 73
     1
 93
        4
 10
2.6250000191907898
 20
34.4227651227588467
 10
13.3892280607669392
 20
34.4227651227588467
 10
13.3892280415761391
 20
34.0894317894255181
 10
2.624999999999988
 20
34.0894317894255181
 97
        1
330
FA
 75
     0
 76
     1
 98
        0
  0
LWPOLYLINE
  5
FC
102
{ACAD_REACTORS
330
FD
102
}
100
AcDbEntity
  8
BUILDING_ENVELOPE
  6
CONTINUOUS
 62
     7
100
AcDbPolyline
 90
        4
 70
     1
 10
2.625
 20
34.089432
 10
2.625
 20
34.422765
 10
2.591667
 20
34.422765
 10
2.591667
 20
34.089432
  0
HATCH
  5
FD
102
{ACAD_REACTORS
330
F9
102
}
100
AcDbEntity
  8
BUILDING_ENVELOPE
 62
     7
100
AcDbHatch
 10
0.0
 20
0.0
 30
0.0
210
0.0
220
0.0
230
1.0
  2
SOLID
 70
     1
 71
     1
 91
        1
 92
        3
 72
     0
 73
     1
 93
        4
 10
2.6250000095953889
 20
34.0894317894255181
 10
2.6250000095953889
 20
34.4227651227588467
 10
2.5916666762620553
 20
34.4227651227588467
 10
2.5916666762620553
 20
34.0894317894255181
 97
        1
330
FC
 75
     0
 76
     1
 98
        0
  0
LWPOLYLINE
  5
FE
102
{ACAD_REACTORS
330
FF
102
}
100
AcDbEntity
  8
BUILDING_ENVELOPE
  6
CONTINUOUS
 62
     7
100
AcDbPolyline
 90
        4
 70
     1
 10
13.389228
 20
34.422765
 10
13.389228
 20
34.089432
 10
13.422561
 20
34.089432
 10
13.422561
 20
34.422765
  0
HATCH
  5
FF
102
{ACAD_REACTORS
330
F9
102
}
100
AcDbEntity
  8
BUILDING_ENVELOPE
 62
     7
100
AcDbHatch
 10
0.0
 20
0.0
 30
0.0
210
0.0
220
0.0
230
1.0
  2
SOLID
 70
     1
 71
     1
 91
        1
 92
        3
 72
     0
 73
     1
 93
        4
 10
13.3892280511715374
 20
34.4227651227588467
 10
13.3892280511715374
 20
34.0894317894255181
 10
13.4225613845048706
 20
34.0894317894255181
 10
13.4225613845048706
 20
34.4227651227588467
 97
        1
330
FE
 75
     0
 76
     1
 98
        0
  0
LINE
  5
100
102
{ACAD_REACTORS
330
F9
102
}
100
AcDbEntity
  8
BUILDING_ENVELOPE
  6
CONTINUOUS
 62
     7
100
AcDbLine
 10
2.625
 20
34.422765
 30
0.0
 11
13.389228
 21
34.422765
 31
0.0
  0
LINE
  5
101
102
{ACAD_REACTORS
330
F9
102
}
100
AcDbEntity
  8
BUILDING_ENVELOPE
  6
CONTINUOUS
 62
     7
100
AcDbLine
 10
2.625
 20
34.089432
 30
0.0
 11
13.389228
 21
34.089432
 31
0.0
  0
LWPOLYLINE
  5
103
102
{ACAD_REACTORS
330
104
102
}
100
AcDbEntity
  8
BUILDING_ENVELOPE
  6
CONTINUOUS
 62
     7
100
AcDbPolyline
 90
        4
 70
     1
 10
20.901423
 20
37.922766
 10
20.901423
 20
46.088042
 10
21.234757
 20
46.088042
 10
21.234757
 20
37.922766
  0
HATCH
  5
104
102
{ACAD_REACTORS
330
102
102
}
100
AcDbEntity
  8
BUILDING_ENVELOPE
 62
     7
100
AcDbHatch
 10
0.0
 20
0.0
 30
0.0
210
0.0
220
0.0
230
1.0
  2
SOLID
 70
     1
 71
     1
 91
        1
 92
        3
 72
     0
 73
     1
 93
        4
 10
20.9014234338225506
 20
37.9227655681484777
 10
20.9014234338225506
 20
46.0880419966442645
 10
21.2347567671558828
 20
46.0880419966442645
 10
21.2347567671558828
 20
37.9227655681484777
 97
        1
330
103
 75
     0
 76
     1
 98
        0
  0
LWPOLYLINE
  5
105
102
{ACAD_REACTORS
330
106
102
}
100
AcDbEntity
  8
BUILDING_ENVELOPE
  6
CONTINUOUS
 62
     7
100
AcDbPolyline
 90
        4
 70
     1
 10
21.234757
 20
37.922766
 10
20.901423
 20
37.922766
 10
20.901423
 20
37.889432
 10
21.234757
 20
37.889432
  0
HATCH
  5
106
102
{ACAD_REACTORS
330
102
102
}
100
AcDbEntity
  8
BUILDING_ENVELOPE
 62
     7
100
AcDbHatch
 10
0.0
 20
0.0
 30
0.0
210
0.0
220
0.0
230
1.0
  2
SOLID
 70
     1
 71
     1
 91
        1
 92
        3
 72
     0
 73
     1
 93
        4
 10
21.2347567671558828
 20
37.9227655681484777
 10
20.9014234338225506
 20
37.9227655681484777
 10
20.9014234338225506
 20
37.8894322348151462
 10
21.2347567671558828
 20
37.8894322348151462
 97
        1
330
105
 75
     0
 76
     1
 98
        0
  0
LWPOLYLINE
  5
107
102
{ACAD_REACTORS
330
108
102
}
100
AcDbEntity
  8
BUILDING_ENVELOPE
  6
CONTINUOUS
 62
     7
100
AcDbPolyline
 90
        4
 70
     1
 10
20.901423
 20
46.088042
 10
21.234757
 20
46.088042
 10
21.234757
 20
46.121375
 10
20.901423
 20
46.121375
  0
HATCH
  5
108
102
{ACAD_REACTORS
330
102
102
}
100
AcDbEntity
  8
BUILDING_ENVELOPE
 62
     7
100
AcDbHatch
 10
0.0
 20
0.0
 30
0.0
210
0.0
220
0.0
230
1.0
  2
SOLID
 70
     1
 71
     1
 91
        1
 92
        3
 72
     0
 73
     1
 93
        4
 10
20.9014234338225506
 20
46.0880419966442645
 10
21.2347567671558828
 20
46.0880419966442645
 10
21.2347567671558828
 20
46.1213753299775959
 10
20.9014234338225506
 20
46.1213753299775959
 97
        1
330
107
 75
     0
 76
     1
 98
        0
  0
LINE
  5
109
102
{ACAD_REACTORS
330
102
102
}
100
AcDbEntity
  8
BUILDING_ENVELOPE
  6
CONTINUOUS
 62
     7
100
AcDbLine
 10
20.901423
 20
37.922766
 30
0.0
 11
20.901423
 21
46.088042
 31
0.0
  0
LINE
  5
10A
102
{ACAD_REACTORS
330
102
102
}
100
AcDbEntity
  8
BUILDING_ENVELOPE
  6
CONTINUOUS
 62
     7
100
AcDbLine
 10
21.234757
 20
37.922766
 30
0.0
 11
21.234757
 21
46.088042
 31
0.0
  0
LWPOLYLINE
  5
10C
102
{ACAD_REACTORS
330
10D
102
}
100
AcDbEntity
  8
BUILDING_ENVELOPE
  6
CONTINUOUS
 62
     7
100
AcDbPolyline
 90
        4
 70
     1
 10
18.023375
 20
21.422765
 10
18.023375
 20
26.089432
 10
18.356708
 20
26.089432
 10
18.356708
 20
21.422765
  0
HATCH
  5
10D
102
{ACAD_REACTORS
330
10B
102
}
100
AcDbEntity
  8
BUILDING_ENVELOPE
 62
     7
100
AcDbHatch
 10
0.0
 20
0.0
 30
0.0
210
0.0
220
0.0
230
1.0
  2
SOLID
 70
     1
 71
     1
 91
        1
 92
        3
 72
     0
 73
     1
 93
        4
 10
18.0233745497802147
 20
21.4227649744643784
 10
18.0233745497802147
 20
26.0894318210353191
 10
18.3567078831135504
 20
26.0894318210353227
 10
18.3567078831135504
 20
21.4227649744643891
 97
        1
330
10C
 75
     0
 76
     1
 98
        0
  0
LWPOLYLINE
  5
10E
102
{ACAD_REACTORS
330
10F
102
}
100
AcDbEntity
  8
BUILDING_ENVELOPE
  6
CONTINUOUS
 62
     7
100
AcDbPolyline
 90
        4
 70
     1
 10
18.356708
 20
21.422765
 10
18.023375
 20
21.422765
 10
18.023375
 20
21.389432
 10
18.356708
 20
21.389432
  0
HATCH
  5
10F
102
{ACAD_REACTORS
330
10B
102
}
100
AcDbEntity
  8
BUILDING_ENVELOPE
 62
     7
100
AcDbHatch
 10
0.0
 20
0.0
 30
0.0
210
0.0
220
0.0
230
1.0
  2
SOLID
 70
     1
 71
     1
 91
        1
 92
        3
 72
     0
 73
     1
 93
        4
 10
18.3567078831135504
 20
21.4227649744643855
 10
18.0233745497802147
 20
21.4227649744643855
 10
18.0233745497802147
 20
21.389431641131047
 10
18.3567078831135504
 20
21.389431641131047
 97
        1
330
10E
 75
     0
 76
     1
 98
        0
  0
LWPOLYLINE
  5
110
102
{ACAD_REACTORS
330
111
102
}
100
AcDbEntity
  8
BUILDING_ENVELOPE
  6
CONTINUOUS
 62
     7
100
AcDbPolyline
 90
        4
 70
     1
 10
18.023375
 20
26.089432
 10
18.356708
 20
26.089432
 10
18.356708
 20
26.122765
 10
18.023375
 20
26.122765
  0
HATCH
  5
111
102
{ACAD_REACTORS
330
10B
102
}
100
AcDbEntity
  8
BUILDING_ENVELOPE
 62
     7
100
AcDbHatch
 10
0.0
 20
0.0
 30
0.0
210
0.0
220
0.0
230
1.0
  2
SOLID
 70
     1
 71
     1
 91
        1
 92
        3
 72
     0
 73
     1
 93
        4
 10
18.0233745497802147
 20
26.0894318210353227
 10
18.3567078831135504
 20
26.0894318210353227
 10
18.3567078831135504
 20
26.1227651543686576
 10
18.0233745497802147
 20
26.1227651543686576
 97
        1
330
110
 75
     0
 76
     1
 98
        0
  0
LINE
  5
112
102
{ACAD_REACTORS
330
10B
102
}
100
AcDbEntity
  8
BUILDING_ENVELOPE
  6
CONTINUOUS
 62
     7
100
AcDbLine
 10
18.023375
 20
21.422765
 30
0.0
 11
18.023375
 21
26.089432
 31
0.0
  0
LINE
  5
113
102
{ACAD_REACTORS
330
10B
102
}
100
AcDbEntity
  8
BUILDING_ENVELOPE
  6
CONTINUOUS
 62
     7
100
AcDbLine
 10
18.356708
 20
21.422765
 30
0.0
 11
18.356708
 21
26.089432
 31
0.0
  0
LWPOLYLINE
  5
115
102
{ACAD_REACTORS
330
11B
102
}
100
AcDbEntity
  8
BUILDING_ENVELOPE
  6
CONTINUOUS
 62
     7
100
AcDbPolyline
 90
        4
 70
     1
 10
21.291667
 20
21.081432
 10
18.458334
 20
21.081432
 10
18.458334
 20
21.430765
 10
21.291667
 20
21.430765
  0
LINE
  5
116
102
{ACAD_REACTORS
330
11B
102
}
100
AcDbEntity
  8
BUILDING_ENVELOPE
  6
CONTINUOUS
 62
     7
100
AcDbLine
 10
18.458334
 20
21.089432
 30
0.0
 11
18.458334
 21
21.422765
 31
0.0
  0
LINE
  5
117
102
{ACAD_REACTORS
330
11B
102
}
100
AcDbEntity
  8
BUILDING_ENVELOPE
  6
CONTINUOUS
 62
     7
100
AcDbLine
 10
18.458334
 20
21.422765
 30
0.0
 11
18.625001
 21
21.422765
 31
0.0
  0
LINE
  5
118
102
{ACAD_REACTORS
330
11B
102
}
100
AcDbEntity
  8
BUILDING_ENVELOPE
  6
CONTINUOUS
 62
     7
100
AcDbLine
 10
18.625001
 20
21.422765
 30
0.0
 11
18.625001
 21
21.297765
 31
0.0
  0
LINE
  5
119
102
{ACAD_REACTORS
330
11B
102
}
100
AcDbEntity
  8
BUILDING_ENVELOPE
  6
CONTINUOUS
 62
     7
100
AcDbLine
 10
18.625001
 20
21.172765
 30
0.0
 11
18.625001
 21
21.089432
 31
0.0
  0
LINE
  5
11A
102
{ACAD_REACTORS
330
11B
102
}
100
AcDbEntity
  8
BUILDING_ENVELOPE
  6
CONTINUOUS
 62
     7
100
AcDbLine
 10
18.625001
 20
21.089432
 30
0.0
 11
18.458334
 21
21.089432
 31
0.0
  0
HATCH
  5
11B
102
{ACAD_REACTORS
330
114
102
}
100
AcDbEntity
  8
BUILDING_ENVELOPE
 62
     7
100
AcDbHatch
 10
0.0
 20
0.0
 30
0.0
210
0.0
220
0.0
230
1.0
  2
SOLID
 70
     1
 71
     1
 91
        2
 92
        1
 93
        6
 72
     1
 10
18.4583339090270577
 20
21.0894316411310498
 11
18.4583339090270577
 21
21.4227649744643784
 72
     1
 10
18.4583339090270577
 20
21.4227649744643784
 11
18.6250005756937256
 21
21.4227649744643784
 72
     1
 10
18.6250005756937256
 20
21.4227649744643784
 11
18.6250005756937256
 21
21.297764974464382
 72
     1
 10
18.6250005756937256
 20
21.297764974464382
 11
18.6250005756937256
 21
21.172764974464382
 72
     1
 10
18.6250005756937256
 20
21.172764974464382
 11
18.6250005756937256
 21
21.0894316411310498
 72
     1
 10
18.6250005756937256
 20
21.0894316411310498
 11
18.4583339090270577
 21
21.0894316411310498
 97
        6
330
115
330
116
330
117
330
118
330
119
330
11A
 92
        1
 93
        6
 72
     1
 10
21.2916672423603899
 20
21.0894316411310498
 11
21.2916672423603899
 21
21.4227649744643784
 72
     1
 10
21.2916672423603899
 20
21.4227649744643784
 11
21.1250005756937256
 21
21.4227649744643784
 72
     1
 10
21.1250005756937256
 20
21.4227649744643784
 11
21.1250005756937256
 21
21.297764974464382
 72
     1
 10
21.1250005756937256
 20
21.297764974464382
 11
21.1250005756937256
 21
21.172764974464382
 72
     1
 10
21.1250005756937256
 20
21.172764974464382
 11
21.1250005756937256
 21
21.0894316411310498
 72
     1
 10
21.1250005756937256
 20
21.0894316411310498
 11
21.2916672423603899
 21
21.0894316411310498
 97
        5
330
11C
330
11D
330
11E
330
11F
330
120
 75
     0
 76
     1
 98
        0
  0
LINE
  5
11C
102
{ACAD_REACTORS
330
11B
102
}
100
AcDbEntity
  8
BUILDING_ENVELOPE
  6
CONTINUOUS
 62
     7
100
AcDbLine
 10
21.291667
 20
21.089432
 30
0.0
 11
21.291667
 21
21.422765
 31
0.0
  0
LINE
  5
11D
102
{ACAD_REACTORS
330
11B
102
}
100
AcDbEntity
  8
BUILDING_ENVELOPE
  6
CONTINUOUS
 62
     7
100
AcDbLine
 10
21.291667
 20
21.422765
 30
0.0
 11
21.125001
 21
21.422765
 31
0.0
  0
LINE
  5
11E
102
{ACAD_REACTORS
330
11B
102
}
100
AcDbEntity
  8
BUILDING_ENVELOPE
  6
CONTINUOUS
 62
     7
100
AcDbLine
 10
21.125001
 20
21.422765
 30
0.0
 11
21.125001
 21
21.297765
 31
0.0
  0
LINE
  5
11F
102
{ACAD_REACTORS
330
11B
102
}
100
AcDbEntity
  8
BUILDING_ENVELOPE
  6
CONTINUOUS
 62
     7
100
AcDbLine
 10
21.125001
 20
21.172765
 30
0.0
 11
21.125001
 21
21.089432
 31
0.0
  0
LINE
  5
120
102
{ACAD_REACTORS
330
11B
102
}
100
AcDbEntity
  8
BUILDING_ENVELOPE
  6
CONTINUOUS
 62
     7
100
AcDbLine
 10
21.125001
 20
21.089432
 30
0.0
 11
21.291667
 21
21.089432
 31
0.0
  0
LINE
  5
121
102
{ACAD_REACTORS
330
124
102
}
100
AcDbEntity
  8
BUILDING_ENVELOPE
  6
CONTINUOUS
 62
     7
100
AcDbLine
 10
18.625001
 20
21.297765
 30
0.0
 11
18.666667
 21
21.297765
 31
0.0
  0
LINE
  5
122
102
{ACAD_REACTORS
330
124
102
}
100
AcDbEntity
  8
BUILDING_ENVELOPE
  6
CONTINUOUS
 62
     7
100
AcDbLine
 10
18.666667
 20
21.297765
 30
0.0
 11
18.666667
 21
21.172765
 31
0.0
  0
LINE
  5
123
102
{ACAD_REACTORS
330
124
102
}
100
AcDbEntity
  8
BUILDING_ENVELOPE
  6
CONTINUOUS
 62
     7
100
AcDbLine
 10
18.666667
 20
21.172765
 30
0.0
 11
18.625001
 21
21.172765
 31
0.0
  0
HATCH
  5
124
102
{ACAD_REACTORS
330
114
102
}
100
AcDbEntity
  8
BUILDING_ENVELOPE
 62
     7
100
AcDbHatch
 10
0.0
 20
0.0
 30
0.0
210
0.0
220
0.0
230
1.0
  2
SOLID
 70
     1
 71
     1
 91
        2
 92
        1
 93
        4
 72
     1
 10
18.6250005756937256
 20
21.297764974464382
 11
18.6666672423603899
 21
21.297764974464382
 72
     1
 10
18.6666672423603899
 20
21.297764974464382
 11
18.6666672423603899
 21
21.172764974464382
 72
     1
 10
18.6666672423603899
 20
21.172764974464382
 11
18.6250005756937256
 21
21.172764974464382
 72
     1
 10
18.6250005756937256
 20
21.172764974464382
 11
18.6250005756937256
 21
21.297764974464382
 97
        3
330
121
330
122
330
123
 92
        1
 93
        4
 72
     1
 10
21.1250005756937256
 20
21.297764974464382
 11
21.0833339090270577
 21
21.297764974464382
 72
     1
 10
21.0833339090270577
 20
21.297764974464382
 11
21.0833339090270577
 21
21.172764974464382
 72
     1
 10
21.0833339090270577
 20
21.172764974464382
 11
21.1250005756937256
 21
21.172764974464382
 72
     1
 10
21.1250005756937256
 20
21.172764974464382
 11
21.1250005756937256
 21
21.297764974464382
 97
        3
330
125
330
126
330
127
 75
     0
 76
     1
 98
        0
  0
LINE
  5
125
102
{ACAD_REACTORS
330
124
102
}
100
AcDbEntity
  8
BUILDING_ENVELOPE
  6
CONTINUOUS
 62
     7
100
AcDbLine
 10
21.125001
 20
21.297765
 30
0.0
 11
21.083334
 21
21.297765
 31
0.0
  0
LINE
  5
126
102
{ACAD_REACTORS
330
124
102
}
100
AcDbEntity
  8
BUILDING_ENVELOPE
  6
CONTINUOUS
 62
     7
100
AcDbLine
 10
21.083334
 20
21.297765
 30
0.0
 11
21.083334
 21
21.172765
 31
0.0
  0
LINE
  5
127
102
{ACAD_REACTORS
330
124
102
}
100
AcDbEntity
  8
BUILDING_ENVELOPE
  6
CONTINUOUS
 62
     7
100
AcDbLine
 10
21.083334
 20
21.172765
 30
0.0
 11
21.125001
 21
21.172765
 31
0.0
  0
LINE
  5
128
102
{ACAD_REACTORS
330
114
102
}
100
AcDbEntity
  8
BUILDING_ENVELOPE
  6
CONTINUOUS
 62
     7
100
AcDbLine
 10
18.458334
 20
21.089432
 30
0.0
 11
18.458334
 21
21.422765
 31
0.0
  0
LINE
  5
129
102
{ACAD_REACTORS
330
114
102
}
100
AcDbEntity
  8
BUILDING_ENVELOPE
  6
CONTINUOUS
 62
     7
100
AcDbLine
 10
21.291667
 20
21.089432
 30
0.0
 11
21.291667
 21
21.422765
 31
0.0
  0
ARC
  5
12A
102
{ACAD_REACTORS
330
114
102
}
100
AcDbEntity
  8
BUILDING_ENVELOPE
  6
CONTINUOUS
 62
     7
100
AcDbCircle
 10
18.625001
 20
21.422765
 30
0.0
 40
2.5
100
AcDbArc
 50
0.0
 51
90.0
  0
LWPOLYLINE
  5
12B
102
{ACAD_REACTORS
330
12C
102
}
100
AcDbEntity
  8
BUILDING_ENVELOPE
  6
CONTINUOUS
 62
     7
100
AcDbPolyline
 90
        4
 70
     1
 10
18.750001
 20
23.922765
 10
18.750001
 20
21.422765
 10
18.625001
 20
21.422765
 10
18.625001
 20
23.922765
  0
HATCH
  5
12C
102
{ACAD_REACTORS
330
114
102
}
100
AcDbEntity
  8
BUILDING_ENVELOPE
 62
     7
100
AcDbHatch
 10
0.0
 20
0.0
 30
0.0
210
0.0
220
0.0
230
1.0
  2
SOLID
 70
     1
 71
     1
 91
        1
 92
        3
 72
     0
 73
     1
 93
        4
 10
18.7500005756937256
 20
23.9227649744643784
 10
18.7500005756937256
 20
21.4227649744643784
 10
18.6250005756937256
 20
21.4227649744643784
 10
18.6250005756937256
 20
23.9227649744643784
 97
        1
330
12B
 75
     0
 76
     1
 98
        0
  0
LWPOLYLINE
  5
12E
102
{ACAD_REACTORS
330
134
102
}
100
AcDbEntity
  8
BUILDING_ENVELOPE
  6
CONTINUOUS
 62
     7
100
AcDbPolyline
 90
        4
 70
     1
 10
24.291667
 20
37.581432
 10
21.458334
 20
37.581432
 10
21.458334
 20
37.930766
 10
24.291667
 20
37.930766
  0
LINE
  5
12F
102
{ACAD_REACTORS
330
134
102
}
100
AcDbEntity
  8
BUILDING_ENVELOPE
  6
CONTINUOUS
 62
     7
100
AcDbLine
 10
21.458334
 20
37.589432
 30
0.0
 11
21.458334
 21
37.922766
 31
0.0
  0
LINE
  5
130
102
{ACAD_REACTORS
330
134
102
}
100
AcDbEntity
  8
BUILDING_ENVELOPE
  6
CONTINUOUS
 62
     7
100
AcDbLine
 10
21.458334
 20
37.922766
 30
0.0
 11
21.625001
 21
37.922766
 31
0.0
  0
LINE
  5
131
102
{ACAD_REACTORS
330
134
102
}
100
AcDbEntity
  8
BUILDING_ENVELOPE
  6
CONTINUOUS
 62
     7
100
AcDbLine
 10
21.625001
 20
37.922766
 30
0.0
 11
21.625001
 21
37.797766
 31
0.0
  0
LINE
  5
132
102
{ACAD_REACTORS
330
134
102
}
100
AcDbEntity
  8
BUILDING_ENVELOPE
  6
CONTINUOUS
 62
     7
100
AcDbLine
 10
21.625001
 20
37.672766
 30
0.0
 11
21.625001
 21
37.589432
 31
0.0
  0
LINE
  5
133
102
{ACAD_REACTORS
330
134
102
}
100
AcDbEntity
  8
BUILDING_ENVELOPE
  6
CONTINUOUS
 62
     7
100
AcDbLine
 10
21.625001
 20
37.589432
 30
0.0
 11
21.458334
 21
37.589432
 31
0.0
  0
HATCH
  5
134
102
{ACAD_REACTORS
330
12D
102
}
100
AcDbEntity
  8
BUILDING_ENVELOPE
 62
     7
100
AcDbHatch
 10
0.0
 20
0.0
 30
0.0
210
0.0
220
0.0
230
1.0
  2
SOLID
 70
     1
 71
     1
 91
        2
 92
        1
 93
        6
 72
     1
 10
21.4583340169694914
 20
37.5894322348151491
 11
21.4583340169694914
 21
37.9227655681484777
 72
     1
 10
21.4583340169694914
 20
37.9227655681484777
 11
21.6250006836361592
 21
37.9227655681484777
 72
     1
 10
21.6250006836361592
 20
37.9227655681484777
 11
21.6250006836361592
 21
37.7977655681484777
 72
     1
 10
21.6250006836361592
 20
37.7977655681484777
 11
21.6250006836361592
 21
37.6727655681484777
 72
     1
 10
21.6250006836361592
 20
37.6727655681484777
 11
21.6250006836361592
 21
37.5894322348151491
 72
     1
 10
21.6250006836361592
 20
37.5894322348151491
 11
21.4583340169694914
 21
37.5894322348151491
 97
        6
330
12E
330
12F
330
130
330
131
330
132
330
133
 92
        1
 93
        6
 72
     1
 10
24.2916673503028235
 20
37.5894322348151491
 11
24.2916673503028235
 21
37.9227655681484777
 72
     1
 10
24.2916673503028235
 20
37.9227655681484777
 11
24.1250006836361592
 21
37.9227655681484777
 72
     1
 10
24.1250006836361592
 20
37.9227655681484777
 11
24.1250006836361592
 21
37.7977655681484777
 72
     1
 10
24.1250006836361592
 20
37.7977655681484777
 11
24.1250006836361592
 21
37.6727655681484777
 72
     1
 10
24.1250006836361592
 20
37.6727655681484777
 11
24.1250006836361592
 21
37.5894322348151491
 72
     1
 10
24.1250006836361592
 20
37.5894322348151491
 11
24.2916673503028235
 21
37.5894322348151491
 97
        5
330
135
330
136
330
137
330
138
330
139
 75
     0
 76
     1
 98
        0
  0
LINE
  5
135
102
{ACAD_REACTORS
330
134
102
}
100
AcDbEntity
  8
BUILDING_ENVELOPE
  6
CONTINUOUS
 62
     7
100
AcDbLine
 10
24.291667
 20
37.589432
 30
0.0
 11
24.291667
 21
37.922766
 31
0.0
  0
LINE
  5
136
102
{ACAD_REACTORS
330
134
102
}
100
AcDbEntity
  8
BUILDING_ENVELOPE
  6
CONTINUOUS
 62
     7
100
AcDbLine
 10
24.291667
 20
37.922766
 30
0.0
 11
24.125001
 21
37.922766
 31
0.0
  0
LINE
  5
137
102
{ACAD_REACTORS
330
134
102
}
100
AcDbEntity
  8
BUILDING_ENVELOPE
  6
CONTINUOUS
 62
     7
100
AcDbLine
 10
24.125001
 20
37.922766
 30
0.0
 11
24.125001
 21
37.797766
 31
0.0
  0
LINE
  5
138
102
{ACAD_REACTORS
330
134
102
}
100
AcDbEntity
  8
BUILDING_ENVELOPE
  6
CONTINUOUS
 62
     7
100
AcDbLine
 10
24.125001
 20
37.672766
 30
0.0
 11
24.125001
 21
37.589432
 31
0.0
  0
LINE
  5
139
102
{ACAD_REACTORS
330
134
102
}
100
AcDbEntity
  8
BUILDING_ENVELOPE
  6
CONTINUOUS
 62
     7
100
AcDbLine
 10
24.125001
 20
37.589432
 30
0.0
 11
24.291667
 21
37.589432
 31
0.0
  0
LINE
  5
13A
102
{ACAD_REACTORS
330
13D
102
}
100
AcDbEntity
  8
BUILDING_ENVELOPE
  6
CONTINUOUS
 62
     7
100
AcDbLine
 10
21.625001
 20
37.797766
 30
0.0
 11
21.666667
 21
37.797766
 31
0.0
  0
LINE
  5
13B
102
{ACAD_REACTORS
330
13D
102
}
100
AcDbEntity
  8
BUILDING_ENVELOPE
  6
CONTINUOUS
 62
     7
100
AcDbLine
 10
21.666667
 20
37.797766
 30
0.0
 11
21.666667
 21
37.672766
 31
0.0
  0
LINE
  5
13C
102
{ACAD_REACTORS
330
13D
102
}
100
AcDbEntity
  8
BUILDING_ENVELOPE
  6
CONTINUOUS
 62
     7
100
AcDbLine
 10
21.666667
 20
37.672766
 30
0.0
 11
21.625001
 21
37.672766
 31
0.0
  0
HATCH
  5
13D
102
{ACAD_REACTORS
330
12D
102
}
100
AcDbEntity
  8
BUILDING_ENVELOPE
 62
     7
100
AcDbHatch
 10
0.0
 20
0.0
 30
0.0
210
0.0
220
0.0
230
1.0
  2
SOLID
 70
     1
 71
     1
 91
        2
 92
        1
 93
        4
 72
     1
 10
21.6250006836361592
 20
37.7977655681484777
 11
21.6666673503028235
 21
37.7977655681484777
 72
     1
 10
21.6666673503028235
 20
37.7977655681484777
 11
21.6666673503028235
 21
37.6727655681484777
 72
     1
 10
21.6666673503028235
 20
37.6727655681484777
 11
21.6250006836361592
 21
37.6727655681484777
 72
     1
 10
21.6250006836361592
 20
37.6727655681484777
 11
21.6250006836361592
 21
37.7977655681484777
 97
        3
330
13A
330
13B
330
13C
 92
        1
 93
        4
 72
     1
 10
24.1250006836361592
 20
37.7977655681484777
 11
24.0833340169694914
 21
37.7977655681484777
 72
     1
 10
24.0833340169694914
 20
37.7977655681484777
 11
24.0833340169694914
 21
37.6727655681484777
 72
     1
 10
24.0833340169694914
 20
37.6727655681484777
 11
24.1250006836361592
 21
37.6727655681484777
 72
     1
 10
24.1250006836361592
 20
37.6727655681484777
 11
24.1250006836361592
 21
37.7977655681484777
 97
        3
330
13E
330
13F
330
140
 75
     0
 76
     1
 98
        0
  0
LINE
  5
13E
102
{ACAD_REACTORS
330
13D
102
}
100
AcDbEntity
  8
BUILDING_ENVELOPE
  6
CONTINUOUS
 62
     7
100
AcDbLine
 10
24.125001
 20
37.797766
 30
0.0
 11
24.083334
 21
37.797766
 31
0.0
  0
LINE
  5
13F
102
{ACAD_REACTORS
330
13D
102
}
100
AcDbEntity
  8
BUILDING_ENVELOPE
  6
CONTINUOUS
 62
     7
100
AcDbLine
 10
24.083334
 20
37.797766
 30
0.0
 11
24.083334
 21
37.672766
 31
0.0
  0
LINE
  5
140
102
{ACAD_REACTORS
330
13D
102
}
100
AcDbEntity
  8
BUILDING_ENVELOPE
  6
CONTINUOUS
 62
     7
100
AcDbLine
 10
24.083334
 20
37.672766
 30
0.0
 11
24.125001
 21
37.672766
 31
0.0
  0
LINE
  5
141
102
{ACAD_REACTORS
330
12D
102
}
100
AcDbEntity
  8
BUILDING_ENVELOPE
  6
CONTINUOUS
 62
     7
100
AcDbLine
 10
21.458334
 20
37.589432
 30
0.0
 11
21.458334
 21
37.922766
 31
0.0
  0
LINE
  5
142
102
{ACAD_REACTORS
330
12D
102
}
100
AcDbEntity
  8
BUILDING_ENVELOPE
  6
CONTINUOUS
 62
     7
100
AcDbLine
 10
24.291667
 20
37.589432
 30
0.0
 11
24.291667
 21
37.922766
 31
0.0
  0
ARC
  5
143
102
{ACAD_REACTORS
330
12D
102
}
100
AcDbEntity
  8
BUILDING_ENVELOPE
  6
CONTINUOUS
 62
     7
100
AcDbCircle
 10
21.625001
 20
37.922766
 30
0.0
 40
2.5
100
AcDbArc
 50
0.0
 51
90.0
  0
LWPOLYLINE
  5
144
102
{ACAD_REACTORS
330
145
102
}
100
AcDbEntity
  8
BUILDING_ENVELOPE
  6
CONTINUOUS
 62
     7
100
AcDbPolyline
 90
        4
 70
     1
 10
21.750001
 20
40.422766
 10
21.750001
 20
37.922766
 10
21.625001
 20
37.922766
 10
21.625001
 20
40.422766
  0
HATCH
  5
145
102
{ACAD_REACTORS
330
12D
102
}
100
AcDbEntity
  8
BUILDING_ENVELOPE
 62
     7
100
AcDbHatch
 10
0.0
 20
0.0
 30
0.0
210
0.0
220
0.0
230
1.0
  2
SOLID
 70
     1
 71
     1
 91
        1
 92
        3
 72
     0
 73
     1
 93
        4
 10
21.7500006836361592
 20
40.4227655681484777
 10
21.7500006836361592
 20
37.9227655681484777
 10
21.6250006836361592
 20
37.9227655681484777
 10
21.6250006836361592
 20
40.4227655681484777
 97
        1
330
144
 75
     0
 76
     1
 98
        0
  0
LWPOLYLINE
  5
147
102
{ACAD_REACTORS
330
14D
102
}
100
AcDbEntity
  8
BUILDING_ENVELOPE
  6
CONTINUOUS
 62
     7
100
AcDbPolyline
 90
        4
 70
     1
 10
16.83435
 20
21.430765
 10
14.001017
 20
21.430765
 10
14.001017
 20
21.081432
 10
16.83435
 20
21.081432
  0
LINE
  5
148
102
{ACAD_REACTORS
330
14D
102
}
100
AcDbEntity
  8
BUILDING_ENVELOPE
  6
CONTINUOUS
 62
     7
100
AcDbLine
 10
14.001017
 20
21.422765
 30
0.0
 11
14.001017
 21
21.089432
 31
0.0
  0
LINE
  5
149
102
{ACAD_REACTORS
330
14D
102
}
100
AcDbEntity
  8
BUILDING_ENVELOPE
  6
CONTINUOUS
 62
     7
100
AcDbLine
 10
14.001017
 20
21.089432
 30
0.0
 11
14.167683
 21
21.089432
 31
0.0
  0
LINE
  5
14A
102
{ACAD_REACTORS
330
14D
102
}
100
AcDbEntity
  8
BUILDING_ENVELOPE
  6
CONTINUOUS
 62
     7
100
AcDbLine
 10
14.167683
 20
21.089432
 30
0.0
 11
14.167683
 21
21.214432
 31
0.0
  0
LINE
  5
14B
102
{ACAD_REACTORS
330
14D
102
}
100
AcDbEntity
  8
BUILDING_ENVELOPE
  6
CONTINUOUS
 62
     7
100
AcDbLine
 10
14.167683
 20
21.339432
 30
0.0
 11
14.167683
 21
21.422765
 31
0.0
  0
LINE
  5
14C
102
{ACAD_REACTORS
330
14D
102
}
100
AcDbEntity
  8
BUILDING_ENVELOPE
  6
CONTINUOUS
 62
     7
100
AcDbLine
 10
14.167683
 20
21.422765
 30
0.0
 11
14.001017
 21
21.422765
 31
0.0
  0
HATCH
  5
14D
102
{ACAD_REACTORS
330
146
102
}
100
AcDbEntity
  8
BUILDING_ENVELOPE
 62
     7
100
AcDbHatch
 10
0.0
 20
0.0
 30
0.0
210
0.0
220
0.0
230
1.0
  2
SOLID
 70
     1
 71
     1
 91
        2
 92
        1
 93
        6
 72
     1
 10
14.0010167204539488
 20
21.4227649744643891
 11
14.0010167204539488
 21
21.0894316411310569
 72
     1
 10
14.0010167204539488
 20
21.0894316411310569
 11
14.1676833871206149
 21
21.0894316411310569
 72
     1
 10
14.1676833871206149
 20
21.0894316411310569
 11
14.1676833871206149
 21
21.2144316411310569
 72
     1
 10
14.1676833871206149
 20
21.2144316411310569
 11
14.1676833871206149
 21
21.3394316411310569
 72
     1
 10
14.1676833871206149
 20
21.3394316411310569
 11
14.1676833871206149
 21
21.4227649744643891
 72
     1
 10
14.1676833871206149
 20
21.4227649744643891
 11
14.0010167204539488
 21
21.4227649744643891
 97
        6
330
147
330
148
330
149
330
14A
330
14B
330
14C
 92
        1
 93
        6
 72
     1
 10
16.8343500537872828
 20
21.4227649744643891
 11
16.8343500537872828
 21
21.0894316411310569
 72
     1
 10
16.8343500537872828
 20
21.0894316411310569
 11
16.6676833871206149
 21
21.0894316411310569
 72
     1
 10
16.6676833871206149
 20
21.0894316411310569
 11
16.6676833871206149
 21
21.2144316411310569
 72
     1
 10
16.6676833871206149
 20
21.2144316411310569
 11
16.6676833871206149
 21
21.3394316411310569
 72
     1
 10
16.6676833871206149
 20
21.3394316411310569
 11
16.6676833871206149
 21
21.4227649744643891
 72
     1
 10
16.6676833871206149
 20
21.4227649744643891
 11
16.8343500537872828
 21
21.4227649744643891
 97
        5
330
14E
330
14F
330
150
330
151
330
152
 75
     0
 76
     1
 98
        0
  0
LINE
  5
14E
102
{ACAD_REACTORS
330
14D
102
}
100
AcDbEntity
  8
BUILDING_ENVELOPE
  6
CONTINUOUS
 62
     7
100
AcDbLine
 10
16.83435
 20
21.422765
 30
0.0
 11
16.83435
 21
21.089432
 31
0.0
  0
LINE
  5
14F
102
{ACAD_REACTORS
330
14D
102
}
100
AcDbEntity
  8
BUILDING_ENVELOPE
  6
CONTINUOUS
 62
     7
100
AcDbLine
 10
16.83435
 20
21.089432
 30
0.0
 11
16.667683
 21
21.089432
 31
0.0
  0
LINE
  5
150
102
{ACAD_REACTORS
330
14D
102
}
100
AcDbEntity
  8
BUILDING_ENVELOPE
  6
CONTINUOUS
 62
     7
100
AcDbLine
 10
16.667683
 20
21.089432
 30
0.0
 11
16.667683
 21
21.214432
 31
0.0
  0
LINE
  5
151
102
{ACAD_REACTORS
330
14D
102
}
100
AcDbEntity
  8
BUILDING_ENVELOPE
  6
CONTINUOUS
 62
     7
100
AcDbLine
 10
16.667683
 20
21.339432
 30
0.0
 11
16.667683
 21
21.422765
 31
0.0
  0
LINE
  5
152
102
{ACAD_REACTORS
330
14D
102
}
100
AcDbEntity
  8
BUILDING_ENVELOPE
  6
CONTINUOUS
 62
     7
100
AcDbLine
 10
16.667683
 20
21.422765
 30
0.0
 11
16.83435
 21
21.422765
 31
0.0
  0
LINE
  5
153
102
{ACAD_REACTORS
330
156
102
}
100
AcDbEntity
  8
BUILDING_ENVELOPE
  6
CONTINUOUS
 62
     7
100
AcDbLine
 10
14.167683
 20
21.214432
 30
0.0
 11
14.20935
 21
21.214432
 31
0.0
  0
LINE
  5
154
102
{ACAD_REACTORS
330
156
102
}
100
AcDbEntity
  8
BUILDING_ENVELOPE
  6
CONTINUOUS
 62
     7
100
AcDbLine
 10
14.20935
 20
21.214432
 30
0.0
 11
14.20935
 21
21.339432
 31
0.0
  0
LINE
  5
155
102
{ACAD_REACTORS
330
156
102
}
100
AcDbEntity
  8
BUILDING_ENVELOPE
  6
CONTINUOUS
 62
     7
100
AcDbLine
 10
14.20935
 20
21.339432
 30
0.0
 11
14.167683
 21
21.339432
 31
0.0
  0
HATCH
  5
156
102
{ACAD_REACTORS
330
146
102
}
100
AcDbEntity
  8
BUILDING_ENVELOPE
 62
     7
100
AcDbHatch
 10
0.0
 20
0.0
 30
0.0
210
0.0
220
0.0
230
1.0
  2
SOLID
 70
     1
 71
     1
 91
        2
 92
        1
 93
        4
 72
     1
 10
14.1676833871206149
 20
21.2144316411310569
 11
14.2093500537872828
 21
21.2144316411310569
 72
     1
 10
14.2093500537872828
 20
21.2144316411310569
 11
14.2093500537872828
 21
21.3394316411310569
 72
     1
 10
14.2093500537872828
 20
21.3394316411310569
 11
14.1676833871206149
 21
21.3394316411310569
 72
     1
 10
14.1676833871206149
 20
21.3394316411310569
 11
14.1676833871206149
 21
21.2144316411310569
 97
        3
330
153
330
154
330
155
 92
        1
 93
        4
 72
     1
 10
16.6676833871206149
 20
21.2144316411310569
 11
16.6260167204539471
 21
21.2144316411310569
 72
     1
 10
16.6260167204539471
 20
21.2144316411310569
 11
16.6260167204539471
 21
21.3394316411310569
 72
     1
 10
16.6260167204539471
 20
21.3394316411310569
 11
16.6676833871206149
 21
21.3394316411310569
 72
     1
 10
16.6676833871206149
 20
21.3394316411310569
 11
16.6676833871206149
 21
21.2144316411310569
 97
        3
330
157
330
158
330
159
 75
     0
 76
     1
 98
        0
  0
LINE
  5
157
102
{ACAD_REACTORS
330
156
102
}
100
AcDbEntity
  8
BUILDING_ENVELOPE
  6
CONTINUOUS
 62
     7
100
AcDbLine
 10
16.667683
 20
21.214432
 30
0.0
 11
16.626017
 21
21.214432
 31
0.0
  0
LINE
  5
158
102
{ACAD_REACTORS
330
156
102
}
100
AcDbEntity
  8
BUILDING_ENVELOPE
  6
CONTINUOUS
 62
     7
100
AcDbLine
 10
16.626017
 20
21.214432
 30
0.0
 11
16.626017
 21
21.339432
 31
0.0
  0
LINE
  5
159
102
{ACAD_REACTORS
330
156
102
}
100
AcDbEntity
  8
BUILDING_ENVELOPE
  6
CONTINUOUS
 62
     7
100
AcDbLine
 10
16.626017
 20
21.339432
 30
0.0
 11
16.667683
 21
21.339432
 31
0.0
  0
LINE
  5
15A
102
{ACAD_REACTORS
330
146
102
}
100
AcDbEntity
  8
BUILDING_ENVELOPE
  6
CONTINUOUS
 62
     7
100
AcDbLine
 10
14.001017
 20
21.422765
 30
0.0
 11
14.001017
 21
21.089432
 31
0.0
  0
LINE
  5
15B
102
{ACAD_REACTORS
330
146
102
}
100
AcDbEntity
  8
BUILDING_ENVELOPE
  6
CONTINUOUS
 62
     7
100
AcDbLine
 10
16.83435
 20
21.422765
 30
0.0
 11
16.83435
 21
21.089432
 31
0.0
  0
ARC
  5
15C
102
{ACAD_REACTORS
330
146
102
}
100
AcDbEntity
  8
BUILDING_ENVELOPE
  6
CONTINUOUS
 62
     7
100
AcDbCircle
 10
14.167683
 20
21.089432
 30
0.0
 40
2.5
100
AcDbArc
 50
270.0
 51
0.0
  0
LWPOLYLINE
  5
15D
102
{ACAD_REACTORS
330
15E
102
}
100
AcDbEntity
  8
BUILDING_ENVELOPE
  6
CONTINUOUS
 62
     7
100
AcDbPolyline
 90
        4
 70
     1
 10
14.292683
 20
18.589432
 10
14.292683
 20
21.089432
 10
14.167683
 20
21.089432
 10
14.167683
 20
18.589432
  0
HATCH
  5
15E
102
{ACAD_REACTORS
330
146
102
}
100
AcDbEntity
  8
BUILDING_ENVELOPE
 62
     7
100
AcDbHatch
 10
0.0
 20
0.0
 30
0.0
210
0.0
220
0.0
230
1.0
  2
SOLID
 70
     1
 71
     1
 91
        1
 92
        3
 72
     0
 73
     1
 93
        4
 10
14.2926833871206149
 20
18.5894316411310569
 10
14.2926833871206149
 20
21.0894316411310569
 10
14.1676833871206149
 20
21.0894316411310569
 10
14.1676833871206149
 20
18.5894316411310569
 97
        1
330
15D
 75
     0
 76
     1
 98
        0
  0
LWPOLYLINE
  5
160
102
{ACAD_REACTORS
330
162
102
}
100
AcDbEntity
  8
BUILDING_ENVELOPE
  6
CONTINUOUS
 62
     7
100
AcDbPolyline
 90
        4
 70
     1
 10
13.730561
 20
39.014301
 10
13.730561
 20
43.997287
 10
13.381228
 20
43.997287
 10
13.381228
 20
39.014301
  0
LWPOLYLINE
  5
161
102
{ACAD_REACTORS
330
162
102
}
100
AcDbEntity
  8
BUILDING_ENVELOPE
  6
CONTINUOUS
 62
     7
100
AcDbPolyline
 90
        4
 70
     1
 10
13.722561
 20
43.997287
 10
13.389228
 20
43.997287
 10
13.389228
 20
43.83062
 10
13.722561
 20
43.83062
  0
HATCH
  5
162
102
{ACAD_REACTORS
330
15F
102
}
100
AcDbEntity
  8
BUILDING_ENVELOPE
 62
     7
100
AcDbHatch
 10
0.0
 20
0.0
 30
0.0
210
0.0
220
0.0
230
1.0
  2
SOLID
 70
     1
 71
     1
 91
        2
 92
        3
 72
     0
 73
     1
 93
        4
 10
13.722561374909457
 20
43.9972869907285045
 10
13.3892280415761249
 20
43.9972869907285045
 10
13.3892280415761249
 20
43.8306203240618402
 10
13.722561374909457
 20
43.8306203240618402
 97
        2
330
160
330
161
 92
        3
 72
     0
 73
     1
 93
        4
 10
13.722561374909457
 20
39.0143008414186596
 10
13.3892280415761249
 20
39.0143008414186596
 10
13.3892280415761249
 20
39.1809675080853239
 10
13.722561374909457
 20
39.1809675080853239
 97
        1
330
163
 75
     0
 76
     1
 98
        0
  0
LWPOLYLINE
  5
163
102
{ACAD_REACTORS
330
162
102
}
100
AcDbEntity
  8
BUILDING_ENVELOPE
  6
CONTINUOUS
 62
     7
100
AcDbPolyline
 90
        4
 70
     1
 10
13.722561
 20
39.014301
 10
13.389228
 20
39.014301
 10
13.389228
 20
39.180968
 10
13.722561
 20
39.180968
  0
LINE
  5
164
102
{ACAD_REACTORS
330
15F
102
}
100
AcDbEntity
  8
BUILDING_ENVELOPE
  6
CONTINUOUS
 62
     7
100
AcDbLine
 10
13.722561
 20
43.997287
 30
0.0
 11
13.389228
 21
43.997287
 31
0.0
  0
LINE
  5
165
102
{ACAD_REACTORS
330
15F
102
}
100
AcDbEntity
  8
BUILDING_ENVELOPE
  6
CONTINUOUS
 62
     7
100
AcDbLine
 10
13.722561
 20
39.014301
 30
0.0
 11
13.389228
 21
39.014301
 31
0.0
  0
LWPOLYLINE
  5
167
102
{ACAD_REACTORS
330
16D
102
}
100
AcDbEntity
  8
BUILDING_ENVELOPE
  6
CONTINUOUS
 62
     7
100
AcDbPolyline
 90
        4
 70
     1
 10
16.83435
 20
26.081432
 10
14.001017
 20
26.081432
 10
14.001017
 20
26.430765
 10
16.83435
 20
26.430765
  0
LINE
  5
168
102
{ACAD_REACTORS
330
16D
102
}
100
AcDbEntity
  8
BUILDING_ENVELOPE
  6
CONTINUOUS
 62
     7
100
AcDbLine
 10
14.001017
 20
26.089432
 30
0.0
 11
14.001017
 21
26.422765
 31
0.0
  0
LINE
  5
169
102
{ACAD_REACTORS
330
16D
102
}
100
AcDbEntity
  8
BUILDING_ENVELOPE
  6
CONTINUOUS
 62
     7
100
AcDbLine
 10
14.001017
 20
26.422765
 30
0.0
 11
14.167683
 21
26.422765
 31
0.0
  0
LINE
  5
16A
102
{ACAD_REACTORS
330
16D
102
}
100
AcDbEntity
  8
BUILDING_ENVELOPE
  6
CONTINUOUS
 62
     7
100
AcDbLine
 10
14.167683
 20
26.422765
 30
0.0
 11
14.167683
 21
26.297765
 31
0.0
  0
LINE
  5
16B
102
{ACAD_REACTORS
330
16D
102
}
100
AcDbEntity
  8
BUILDING_ENVELOPE
  6
CONTINUOUS
 62
     7
100
AcDbLine
 10
14.167683
 20
26.172765
 30
0.0
 11
14.167683
 21
26.089432
 31
0.0
  0
LINE
  5
16C
102
{ACAD_REACTORS
330
16D
102
}
100
AcDbEntity
  8
BUILDING_ENVELOPE
  6
CONTINUOUS
 62
     7
100
AcDbLine
 10
14.167683
 20
26.089432
 30
0.0
 11
14.001017
 21
26.089432
 31
0.0
  0
HATCH
  5
16D
102
{ACAD_REACTORS
330
166
102
}
100
AcDbEntity
  8
BUILDING_ENVELOPE
 62
     7
100
AcDbHatch
 10
0.0
 20
0.0
 30
0.0
210
0.0
220
0.0
230
1.0
  2
SOLID
 70
     1
 71
     1
 91
        2
 92
        1
 93
        6
 72
     1
 10
14.0010167204539488
 20
26.0894318210353227
 11
14.0010167204539488
 21
26.4227651543686548
 72
     1
 10
14.0010167204539488
 20
26.4227651543686548
 11
14.1676833871206149
 21
26.4227651543686548
 72
     1
 10
14.1676833871206149
 20
26.4227651543686548
 11
14.1676833871206149
 21
26.2977651543686548
 72
     1
 10
14.1676833871206149
 20
26.2977651543686548
 11
14.1676833871206149
 21
26.1727651543686548
 72
     1
 10
14.1676833871206149
 20
26.1727651543686548
 11
14.1676833871206149
 21
26.0894318210353227
 72
     1
 10
14.1676833871206149
 20
26.0894318210353227
 11
14.0010167204539488
 21
26.0894318210353227
 97
        6
330
167
330
168
330
169
330
16A
330
16B
330
16C
 92
        1
 93
        6
 72
     1
 10
16.8343500537872828
 20
26.0894318210353227
 11
16.8343500537872828
 21
26.4227651543686548
 72
     1
 10
16.8343500537872828
 20
26.4227651543686548
 11
16.6676833871206149
 21
26.4227651543686548
 72
     1
 10
16.6676833871206149
 20
26.4227651543686548
 11
16.6676833871206149
 21
26.2977651543686548
 72
     1
 10
16.6676833871206149
 20
26.2977651543686548
 11
16.6676833871206149
 21
26.1727651543686548
 72
     1
 10
16.6676833871206149
 20
26.1727651543686548
 11
16.6676833871206149
 21
26.0894318210353227
 72
     1
 10
16.6676833871206149
 20
26.0894318210353227
 11
16.8343500537872828
 21
26.0894318210353227
 97
        5
330
16E
330
16F
330
170
330
171
330
172
 75
     0
 76
     1
 98
        0
  0
LINE
  5
16E
102
{ACAD_REACTORS
330
16D
102
}
100
AcDbEntity
  8
BUILDING_ENVELOPE
  6
CONTINUOUS
 62
     7
100
AcDbLine
 10
16.83435
 20
26.089432
 30
0.0
 11
16.83435
 21
26.422765
 31
0.0
  0
LINE
  5
16F
102
{ACAD_REACTORS
330
16D
102
}
100
AcDbEntity
  8
BUILDING_ENVELOPE
  6
CONTINUOUS
 62
     7
100
AcDbLine
 10
16.83435
 20
26.422765
 30
0.0
 11
16.667683
 21
26.422765
 31
0.0
  0
LINE
  5
170
102
{ACAD_REACTORS
330
16D
102
}
100
AcDbEntity
  8
BUILDING_ENVELOPE
  6
CONTINUOUS
 62
     7
100
AcDbLine
 10
16.667683
 20
26.422765
 30
0.0
 11
16.667683
 21
26.297765
 31
0.0
  0
LINE
  5
171
102
{ACAD_REACTORS
330
16D
102
}
100
AcDbEntity
  8
BUILDING_ENVELOPE
  6
CONTINUOUS
 62
     7
100
AcDbLine
 10
16.667683
 20
26.172765
 30
0.0
 11
16.667683
 21
26.089432
 31
0.0
  0
LINE
  5
172
102
{ACAD_REACTORS
330
16D
102
}
100
AcDbEntity
  8
BUILDING_ENVELOPE
  6
CONTINUOUS
 62
     7
100
AcDbLine
 10
16.667683
 20
26.089432
 30
0.0
 11
16.83435
 21
26.089432
 31
0.0
  0
LINE
  5
173
102
{ACAD_REACTORS
330
176
102
}
100
AcDbEntity
  8
BUILDING_ENVELOPE
  6
CONTINUOUS
 62
     7
100
AcDbLine
 10
14.167683
 20
26.297765
 30
0.0
 11
14.20935
 21
26.297765
 31
0.0
  0
LINE
  5
174
102
{ACAD_REACTORS
330
176
102
}
100
AcDbEntity
  8
BUILDING_ENVELOPE
  6
CONTINUOUS
 62
     7
100
AcDbLine
 10
14.20935
 20
26.297765
 30
0.0
 11
14.20935
 21
26.172765
 31
0.0
  0
LINE
  5
175
102
{ACAD_REACTORS
330
176
102
}
100
AcDbEntity
  8
BUILDING_ENVELOPE
  6
CONTINUOUS
 62
     7
100
AcDbLine
 10
14.20935
 20
26.172765
 30
0.0
 11
14.167683
 21
26.172765
 31
0.0
  0
HATCH
  5
176
102
{ACAD_REACTORS
330
166
102
}
100
AcDbEntity
  8
BUILDING_ENVELOPE
 62
     7
100
AcDbHatch
 10
0.0
 20
0.0
 30
0.0
210
0.0
220
0.0
230
1.0
  2
SOLID
 70
     1
 71
     1
 91
        2
 92
        1
 93
        4
 72
     1
 10
14.1676833871206149
 20
26.2977651543686548
 11
14.2093500537872828
 21
26.2977651543686548
 72
     1
 10
14.2093500537872828
 20
26.2977651543686548
 11
14.2093500537872828
 21
26.1727651543686548
 72
     1
 10
14.2093500537872828
 20
26.1727651543686548
 11
14.1676833871206149
 21
26.1727651543686548
 72
     1
 10
14.1676833871206149
 20
26.1727651543686548
 11
14.1676833871206149
 21
26.2977651543686548
 97
        3
330
173
330
174
330
175
 92
        1
 93
        4
 72
     1
 10
16.6676833871206149
 20
26.2977651543686548
 11
16.6260167204539471
 21
26.2977651543686548
 72
     1
 10
16.6260167204539471
 20
26.2977651543686548
 11
16.6260167204539471
 21
26.1727651543686548
 72
     1
 10
16.6260167204539471
 20
26.1727651543686548
 11
16.6676833871206149
 21
26.1727651543686548
 72
     1
 10
16.6676833871206149
 20
26.1727651543686548
 11
16.6676833871206149
 21
26.2977651543686548
 97
        3
330
177
330
178
330
179
 75
     0
 76
     1
 98
        0
  0
LINE
  5
177
102
{ACAD_REACTORS
330
176
102
}
100
AcDbEntity
  8
BUILDING_ENVELOPE
  6
CONTINUOUS
 62
     7
100
AcDbLine
 10
16.667683
 20
26.297765
 30
0.0
 11
16.626017
 21
26.297765
 31
0.0
  0
LINE
  5
178
102
{ACAD_REACTORS
330
176
102
}
100
AcDbEntity
  8
BUILDING_ENVELOPE
  6
CONTINUOUS
 62
     7
100
AcDbLine
 10
16.626017
 20
26.297765
 30
0.0
 11
16.626017
 21
26.172765
 31
0.0
  0
LINE
  5
179
102
{ACAD_REACTORS
330
176
102
}
100
AcDbEntity
  8
BUILDING_ENVELOPE
  6
CONTINUOUS
 62
     7
100
AcDbLine
 10
16.626017
 20
26.172765
 30
0.0
 11
16.667683
 21
26.172765
 31
0.0
  0
LINE
  5
17A
102
{ACAD_REACTORS
330
166
102
}
100
AcDbEntity
  8
BUILDING_ENVELOPE
  6
CONTINUOUS
 62
     7
100
AcDbLine
 10
14.001017
 20
26.089432
 30
0.0
 11
14.001017
 21
26.422765
 31
0.0
  0
LINE
  5
17B
102
{ACAD_REACTORS
330
166
102
}
100
AcDbEntity
  8
BUILDING_ENVELOPE
  6
CONTINUOUS
 62
     7
100
AcDbLine
 10
16.83435
 20
26.089432
 30
0.0
 11
16.83435
 21
26.422765
 31
0.0
  0
ARC
  5
17C
102
{ACAD_REACTORS
330
166
102
}
100
AcDbEntity
  8
BUILDING_ENVELOPE
  6
CONTINUOUS
 62
     7
100
AcDbCircle
 10
14.167683
 20
26.422765
 30
0.0
 40
2.5
100
AcDbArc
 50
0.0
 51
90.0
  0
LWPOLYLINE
  5
17D
102
{ACAD_REACTORS
330
17E
102
}
100
AcDbEntity
  8
BUILDING_ENVELOPE
  6
CONTINUOUS
 62
     7
100
AcDbPolyline
 90
        4
 70
     1
 10
14.292683
 20
28.922765
 10
14.292683
 20
26.422765
 10
14.167683
 20
26.422765
 10
14.167683
 20
28.922765
  0
HATCH
  5
17E
102
{ACAD_REACTORS
330
166
102
}
100
AcDbEntity
  8
BUILDING_ENVELOPE
 62
     7
100
AcDbHatch
 10
0.0
 20
0.0
 30
0.0
210
0.0
220
0.0
230
1.0
  2
SOLID
 70
     1
 71
     1
 91
        1
 92
        3
 72
     0
 73
     1
 93
        4
 10
14.2926833871206149
 20
28.9227651543686548
 10
14.2926833871206149
 20
26.4227651543686548
 10
14.1676833871206149
 20
26.4227651543686548
 10
14.1676833871206149
 20
28.9227651543686548
 97
        1
330
17D
 75
     0
 76
     1
 98
        0
  0
LWPOLYLINE
  5
180
102
{ACAD_REACTORS
330
182
102
}
100
AcDbEntity
  8
BUILDING_ENVELOPE
  6
CONTINUOUS
 62
     7
100
AcDbPolyline
 90
        4
 70
     1
 10
13.730561
 20
21.756098
 10
13.730561
 20
25.83062
 10
13.381228
 20
25.83062
 10
13.381228
 20
21.756098
  0
LWPOLYLINE
  5
181
102
{ACAD_REACTORS
330
182
102
}
100
AcDbEntity
  8
BUILDING_ENVELOPE
  6
CONTINUOUS
 62
     7
100
AcDbPolyline
 90
        4
 70
     1
 10
13.722561
 20
25.83062
 10
13.389228
 20
25.83062
 10
13.389228
 20
25.663953
 10
13.722561
 20
25.663953
  0
HATCH
  5
182
102
{ACAD_REACTORS
330
17F
102
}
100
AcDbEntity
  8
BUILDING_ENVELOPE
 62
     7
100
AcDbHatch
 10
0.0
 20
0.0
 30
0.0
210
0.0
220
0.0
230
1.0
  2
SOLID
 70
     1
 71
     1
 91
        2
 92
        3
 72
     0
 73
     1
 93
        4
 10
13.722561374909457
 20
25.8306196044445109
 10
13.3892280415761249
 20
25.8306196044445109
 10
13.3892280415761249
 20
25.663952937777843
 10
13.722561374909457
 20
25.663952937777843
 97
        2
330
180
330
181
 92
        3
 72
     0
 73
     1
 93
        4
 10
13.722561374909457
 20
21.7560983077978491
 10
13.3892280415761249
 20
21.7560983077978491
 10
13.3892280415761249
 20
21.922764974464517
 10
13.722561374909457
 20
21.922764974464517
 97
        1
330
183
 75
     0
 76
     1
 98
        0
  0
LWPOLYLINE
  5
183
102
{ACAD_REACTORS
330
182
102
}
100
AcDbEntity
  8
BUILDING_ENVELOPE
  6
CONTINUOUS
 62
     7
100
AcDbPolyline
 90
        4
 70
     1
 10
13.722561
 20
21.756098
 10
13.389228
 20
21.756098
 10
13.389228
 20
21.922765
 10
13.722561
 20
21.922765
  0
LINE
  5
184
102
{ACAD_REACTORS
330
17F
102
}
100
AcDbEntity
  8
BUILDING_ENVELOPE
  6
CONTINUOUS
 62
     7
100
AcDbLine
 10
13.722561
 20
25.83062
 30
0.0
 11
13.389228
 21
25.83062
 31
0.0
  0
LINE
  5
185
102
{ACAD_REACTORS
330
17F
102
}
100
AcDbEntity
  8
BUILDING_ENVELOPE
  6
CONTINUOUS
 62
     7
100
AcDbLine
 10
13.722561
 20
21.756098
 30
0.0
 11
13.389228
 21
21.756098
 31
0.0
  0
LWPOLYLINE
  5
187
102
{ACAD_REACTORS
330
188
102
}
100
AcDbEntity
  8
BUILDING_ENVELOPE
  6
CONTINUOUS
 62
     7
100
AcDbPolyline
 90
        4
 70
     1
 10
2.625
 20
14.422764
 10
13.389228
 20
14.422764
 10
13.389228
 20
14.089431
 10
2.625
 20
14.089431
  0
HATCH
  5
188
102
{ACAD_REACTORS
330
186
102
}
100
AcDbEntity
  8
BUILDING_ENVELOPE
 62
     7
100
AcDbHatch
 10
0.0
 20
0.0
 30
0.0
210
0.0
220
0.0
230
1.0
  2
SOLID
 70
     1
 71
     1
 91
        1
 92
        3
 72
     0
 73
     1
 93
        4
 10
2.6250000146891939
 20
14.4227644780770312
 10
13.3892280562653205
 20
14.4227644780770312
 10
13.3892280415761213
 20
14.0894311447436991
 10
2.6249999999999973
 20
14.0894311447436991
 97
        1
330
187
 75
     0
 76
     1
 98
        0
  0
LWPOLYLINE
  5
189
102
{ACAD_REACTORS
330
18A
102
}
100
AcDbEntity
  8
BUILDING_ENVELOPE
  6
CONTINUOUS
 62
     7
100
AcDbPolyline
 90
        4
 70
     1
 10
2.625
 20
14.089431
 10
2.625
 20
14.422764
 10
2.591667
 20
14.422764
 10
2.591667
 20
14.089431
  0
HATCH
  5
18A
102
{ACAD_REACTORS
330
186
102
}
100
AcDbEntity
  8
BUILDING_ENVELOPE
 62
     7
100
AcDbHatch
 10
0.0
 20
0.0
 30
0.0
210
0.0
220
0.0
230
1.0
  2
SOLID
 70
     1
 71
     1
 91
        1
 92
        3
 72
     0
 73
     1
 93
        4
 10
2.6250000073445956
 20
14.0894311447436991
 10
2.6250000073445956
 20
14.4227644780770312
 10
2.5916666740112619
 20
14.4227644780770312
 10
2.5916666740112619
 20
14.0894311447436991
 97
        1
330
189
 75
     0
 76
     1
 98
        0
  0
LWPOLYLINE
  5
18B
102
{ACAD_REACTORS
330
18C
102
}
100
AcDbEntity
  8
BUILDING_ENVELOPE
  6
CONTINUOUS
 62
     7
100
AcDbPolyline
 90
        4
 70
     1
 10
13.389228
 20
14.422764
 10
13.389228
 20
14.089431
 10
13.422561
 20
14.089431
 10
13.422561
 20
14.422764
  0
HATCH
  5
18C
102
{ACAD_REACTORS
330
186
102
}
100
AcDbEntity
  8
BUILDING_ENVELOPE
 62
     7
100
AcDbHatch
 10
0.0
 20
0.0
 30
0.0
210
0.0
220
0.0
230
1.0
  2
SOLID
 70
     1
 71
     1
 91
        1
 92
        3
 72
     0
 73
     1
 93
        4
 10
13.3892280489207227
 20
14.4227644780770312
 10
13.3892280489207227
 20
14.0894311447436991
 10
13.4225613822540559
 20
14.0894311447436991
 10
13.4225613822540559
 20
14.4227644780770312
 97
        1
330
18B
 75
     0
 76
     1
 98
        0
  0
LINE
  5
18D
102
{ACAD_REACTORS
330
186
102
}
100
AcDbEntity
  8
BUILDING_ENVELOPE
  6
CONTINUOUS
 62
     7
100
AcDbLine
 10
2.625
 20
14.422764
 30
0.0
 11
13.389228
 21
14.422764
 31
0.0
  0
LINE
  5
18E
102
{ACAD_REACTORS
330
186
102
}
100
AcDbEntity
  8
BUILDING_ENVELOPE
  6
CONTINUOUS
 62
     7
100
AcDbLine
 10
2.625
 20
14.089431
 30
0.0
 11
13.389228
 21
14.089431
 31
0.0
  0
LWPOLYLINE
  5
190
102
{ACAD_REACTORS
330
196
102
}
100
AcDbEntity
  8
BUILDING_ENVELOPE
  6
CONTINUOUS
 62
     7
100
AcDbPolyline
 90
        4
 70
     1
 10
2.283667
 20
42.592182
 10
2.283667
 20
45.425516
 10
2.633
 20
45.425516
 10
2.633
 20
42.592182
  0
LINE
  5
191
102
{ACAD_REACTORS
330
196
102
}
100
AcDbEntity
  8
BUILDING_ENVELOPE
  6
CONTINUOUS
 62
     7
100
AcDbLine
 10
2.291667
 20
45.425516
 30
0.0
 11
2.625
 21
45.425516
 31
0.0
  0
LINE
  5
192
102
{ACAD_REACTORS
330
196
102
}
100
AcDbEntity
  8
BUILDING_ENVELOPE
  6
CONTINUOUS
 62
     7
100
AcDbLine
 10
2.625
 20
45.425516
 30
0.0
 11
2.625
 21
45.258849
 31
0.0
  0
LINE
  5
193
102
{ACAD_REACTORS
330
196
102
}
100
AcDbEntity
  8
BUILDING_ENVELOPE
  6
CONTINUOUS
 62
     7
100
AcDbLine
 10
2.625
 20
45.258849
 30
0.0
 11
2.5
 21
45.258849
 31
0.0
  0
LINE
  5
194
102
{ACAD_REACTORS
330
196
102
}
100
AcDbEntity
  8
BUILDING_ENVELOPE
  6
CONTINUOUS
 62
     7
100
AcDbLine
 10
2.375
 20
45.258849
 30
0.0
 11
2.291667
 21
45.258849
 31
0.0
  0
LINE
  5
195
102
{ACAD_REACTORS
330
196
102
}
100
AcDbEntity
  8
BUILDING_ENVELOPE
  6
CONTINUOUS
 62
     7
100
AcDbLine
 10
2.291667
 20
45.258849
 30
0.0
 11
2.291667
 21
45.425516
 31
0.0
  0
HATCH
  5
196
102
{ACAD_REACTORS
330
18F
102
}
100
AcDbEntity
  8
BUILDING_ENVELOPE
 62
     7
100
AcDbHatch
 10
0.0
 20
0.0
 30
0.0
210
0.0
220
0.0
230
1.0
  2
SOLID
 70
     1
 71
     1
 91
        2
 92
        1
 93
        6
 72
     1
 10
2.2916666666666665
 20
45.4255156258172761
 11
2.625
 21
45.4255156258172761
 72
     1
 10
2.625
 20
45.4255156258172761
 11
2.625
 21
45.2588489591506118
 72
     1
 10
2.625
 20
45.2588489591506118
 11
2.5
 21
45.2588489591506118
 72
     1
 10
2.5
 20
45.2588489591506118
 11
2.375
 21
45.2588489591506118
 72
     1
 10
2.375
 20
45.2588489591506118
 11
2.2916666666666665
 21
45.2588489591506118
 72
     1
 10
2.2916666666666665
 20
45.2588489591506118
 11
2.2916666666666665
 21
45.4255156258172761
 97
        6
330
190
330
191
330
192
330
193
330
194
330
195
 92
        1
 93
        6
 72
     1
 10
2.2916666666666665
 20
42.5921822924839404
 11
2.625
 21
42.5921822924839404
 72
     1
 10
2.625
 20
42.5921822924839404
 11
2.625
 21
42.7588489591506118
 72
     1
 10
2.625
 20
42.7588489591506118
 11
2.5
 21
42.7588489591506118
 72
     1
 10
2.5
 20
42.7588489591506118
 11
2.375
 21
42.7588489591506118
 72
     1
 10
2.375
 20
42.7588489591506118
 11
2.2916666666666665
 21
42.7588489591506118
 72
     1
 10
2.2916666666666665
 20
42.7588489591506118
 11
2.2916666666666665
 21
42.5921822924839404
 97
        5
330
197
330
198
330
199
330
19A
330
19B
 75
     0
 76
     1
 98
        0
  0
LINE
  5
197
102
{ACAD_REACTORS
330
196
102
}
100
AcDbEntity
  8
BUILDING_ENVELOPE
  6
CONTINUOUS
 62
     7
100
AcDbLine
 10
2.291667
 20
42.592182
 30
0.0
 11
2.625
 21
42.592182
 31
0.0
  0
LINE
  5
198
102
{ACAD_REACTORS
330
196
102
}
100
AcDbEntity
  8
BUILDING_ENVELOPE
  6
CONTINUOUS
 62
     7
100
AcDbLine
 10
2.625
 20
42.592182
 30
0.0
 11
2.625
 21
42.758849
 31
0.0
  0
LINE
  5
199
102
{ACAD_REACTORS
330
196
102
}
100
AcDbEntity
  8
BUILDING_ENVELOPE
  6
CONTINUOUS
 62
     7
100
AcDbLine
 10
2.625
 20
42.758849
 30
0.0
 11
2.5
 21
42.758849
 31
0.0
  0
LINE
  5
19A
102
{ACAD_REACTORS
330
196
102
}
100
AcDbEntity
  8
BUILDING_ENVELOPE
  6
CONTINUOUS
 62
     7
100
AcDbLine
 10
2.375
 20
42.758849
 30
0.0
 11
2.291667
 21
42.758849
 31
0.0
  0
LINE
  5
19B
102
{ACAD_REACTORS
330
196
102
}
100
AcDbEntity
  8
BUILDING_ENVELOPE
  6
CONTINUOUS
 62
     7
100
AcDbLine
 10
2.291667
 20
42.758849
 30
0.0
 11
2.291667
 21
42.592182
 31
0.0
  0
LINE
  5
19C
102
{ACAD_REACTORS
330
19F
102
}
100
AcDbEntity
  8
BUILDING_ENVELOPE
  6
CONTINUOUS
 62
     7
100
AcDbLine
 10
2.5
 20
45.258849
 30
0.0
 11
2.5
 21
45.217182
 31
0.0
  0
LINE
  5
19D
102
{ACAD_REACTORS
330
19F
102
}
100
AcDbEntity
  8
BUILDING_ENVELOPE
  6
CONTINUOUS
 62
     7
100
AcDbLine
 10
2.5
 20
45.217182
 30
0.0
 11
2.375
 21
45.217182
 31
0.0
  0
LINE
  5
19E
102
{ACAD_REACTORS
330
19F
102
}
100
AcDbEntity
  8
BUILDING_ENVELOPE
  6
CONTINUOUS
 62
     7
100
AcDbLine
 10
2.375
 20
45.217182
 30
0.0
 11
2.375
 21
45.258849
 31
0.0
  0
HATCH
  5
19F
102
{ACAD_REACTORS
330
18F
102
}
100
AcDbEntity
  8
BUILDING_ENVELOPE
 62
     7
100
AcDbHatch
 10
0.0
 20
0.0
 30
0.0
210
0.0
220
0.0
230
1.0
  2
SOLID
 70
     1
 71
     1
 91
        2
 92
        1
 93
        4
 72
     1
 10
2.5
 20
45.2588489591506118
 11
2.5
 21
45.2171822924839404
 72
     1
 10
2.5
 20
45.2171822924839404
 11
2.375
 21
45.2171822924839404
 72
     1
 10
2.375
 20
45.2171822924839404
 11
2.375
 21
45.2588489591506118
 72
     1
 10
2.375
 20
45.2588489591506118
 11
2.5
 21
45.2588489591506118
 97
        3
330
19C
330
19D
330
19E
 92
        1
 93
        4
 72
     1
 10
2.5
 20
42.7588489591506118
 11
2.5
 21
42.8005156258172761
 72
     1
 10
2.5
 20
42.8005156258172761
 11
2.375
 21
42.8005156258172761
 72
     1
 10
2.375
 20
42.8005156258172761
 11
2.375
 21
42.7588489591506118
 72
     1
 10
2.375
 20
42.7588489591506118
 11
2.5
 21
42.7588489591506118
 97
        3
330
1A0
330
1A1
330
1A2
 75
     0
 76
     1
 98
        0
  0
LINE
  5
1A0
102
{ACAD_REACTORS
330
19F
102
}
100
AcDbEntity
  8
BUILDING_ENVELOPE
  6
CONTINUOUS
 62
     7
100
AcDbLine
 10
2.5
 20
42.758849
 30
0.0
 11
2.5
 21
42.800516
 31
0.0
  0
LINE
  5
1A1
102
{ACAD_REACTORS
330
19F
102
}
100
AcDbEntity
  8
BUILDING_ENVELOPE
  6
CONTINUOUS
 62
     7
100
AcDbLine
 10
2.5
 20
42.800516
 30
0.0
 11
2.375
 21
42.800516
 31
0.0
  0
LINE
  5
1A2
102
{ACAD_REACTORS
330
19F
102
}
100
AcDbEntity
  8
BUILDING_ENVELOPE
  6
CONTINUOUS
 62
     7
100
AcDbLine
 10
2.375
 20
42.800516
 30
0.0
 11
2.375
 21
42.758849
 31
0.0
  0
LINE
  5
1A3
102
{ACAD_REACTORS
330
18F
102
}
100
AcDbEntity
  8
BUILDING_ENVELOPE
  6
CONTINUOUS
 62
     7
100
AcDbLine
 10
2.291667
 20
45.425516
 30
0.0
 11
2.625
 21
45.425516
 31
0.0
  0
LINE
  5
1A4
102
{ACAD_REACTORS
330
18F
102
}
100
AcDbEntity
  8
BUILDING_ENVELOPE
  6
CONTINUOUS
 62
     7
100
AcDbLine
 10
2.291667
 20
42.592182
 30
0.0
 11
2.625
 21
42.592182
 31
0.0
  0
ARC
  5
1A5
102
{ACAD_REACTORS
330
18F
102
}
100
AcDbEntity
  8
BUILDING_ENVELOPE
  6
CONTINUOUS
 62
     7
100
AcDbCircle
 10
2.625
 20
45.258849
 30
0.0
 40
2.5
100
AcDbArc
 50
270.0
 51
0.0
  0
LWPOLYLINE
  5
1A6
102
{ACAD_REACTORS
330
1A7
102
}
100
AcDbEntity
  8
BUILDING_ENVELOPE
  6
CONTINUOUS
 62
     7
100
AcDbPolyline
 90
        4
 70
     1
 10
5.125
 20
45.133849
 10
2.625
 20
45.133849
 10
2.625
 20
45.258849
 10
5.125
 20
45.258849
  0
HATCH
  5
1A7
102
{ACAD_REACTORS
330
18F
102
}
100
AcDbEntity
  8
BUILDING_ENVELOPE
 62
     7
100
AcDbHatch
 10
0.0
 20
0.0
 30
0.0
210
0.0
220
0.0
230
1.0
  2
SOLID
 70
     1
 71
     1
 91
        1
 92
        3
 72
     0
 73
     1
 93
        4
 10
5.125
 20
45.1338489591506118
 10
2.625
 20
45.1338489591506118
 10
2.625
 20
45.2588489591506118
 10
5.125
 20
45.2588489591506118
 97
        1
330
1A6
 75
     0
 76
     1
 98
        0
  0
LWPOLYLINE
  5
1A9
102
{ACAD_REACTORS
330
1AF
102
}
100
AcDbEntity
  8
BUILDING_ENVELOPE
  6
CONTINUOUS
 62
     7
100
AcDbPolyline
 90
        4
 70
     1
 10
6.438008
 20
14.081431
 10
3.604675
 20
14.081431
 10
3.604675
 20
14.430764
 10
6.438008
 20
14.430764
  0
LINE
  5
1AA
102
{ACAD_REACTORS
330
1AF
102
}
100
AcDbEntity
  8
BUILDING_ENVELOPE
  6
CONTINUOUS
 62
     7
100
AcDbLine
 10
3.604675
 20
14.089431
 30
0.0
 11
3.604675
 21
14.422764
 31
0.0
  0
LINE
  5
1AB
102
{ACAD_REACTORS
330
1AF
102
}
100
AcDbEntity
  8
BUILDING_ENVELOPE
  6
CONTINUOUS
 62
     7
100
AcDbLine
 10
3.604675
 20
14.422764
 30
0.0
 11
3.771342
 21
14.422764
 31
0.0
  0
LINE
  5
1AC
102
{ACAD_REACTORS
330
1AF
102
}
100
AcDbEntity
  8
BUILDING_ENVELOPE
  6
CONTINUOUS
 62
     7
100
AcDbLine
 10
3.771342
 20
14.422764
 30
0.0
 11
3.771342
 21
14.297764
 31
0.0
  0
LINE
  5
1AD
102
{ACAD_REACTORS
330
1AF
102
}
100
AcDbEntity
  8
BUILDING_ENVELOPE
  6
CONTINUOUS
 62
     7
100
AcDbLine
 10
3.771342
 20
14.172764
 30
0.0
 11
3.771342
 21
14.089431
 31
0.0
  0
LINE
  5
1AE
102
{ACAD_REACTORS
330
1AF
102
}
100
AcDbEntity
  8
BUILDING_ENVELOPE
  6
CONTINUOUS
 62
     7
100
AcDbLine
 10
3.771342
 20
14.089431
 30
0.0
 11
3.604675
 21
14.089431
 31
0.0
  0
HATCH
  5
1AF
102
{ACAD_REACTORS
330
1A8
102
}
100
AcDbEntity
  8
BUILDING_ENVELOPE
 62
     7
100
AcDbHatch
 10
0.0
 20
0.0
 30
0.0
210
0.0
220
0.0
230
1.0
  2
SOLID
 70
     1
 71
     1
 91
        2
 92
        1
 93
        6
 72
     1
 10
3.6046749206006887
 20
14.0894310058233163
 11
3.6046749206006887
 21
14.4227643391566502
 72
     1
 10
3.6046749206006887
 20
14.4227643391566502
 11
3.7713415872673552
 21
14.4227643391566502
 72
     1
 10
3.7713415872673552
 20
14.4227643391566502
 11
3.7713415872673552
 21
14.2977643391566502
 72
     1
 10
3.7713415872673552
 20
14.2977643391566502
 11
3.7713415872673552
 21
14.1727643391566502
 72
     1
 10
3.7713415872673552
 20
14.1727643391566502
 11
3.7713415872673552
 21
14.0894310058233163
 72
     1
 10
3.7713415872673552
 20
14.0894310058233163
 11
3.6046749206006887
 21
14.0894310058233163
 97
        6
330
1A9
330
1AA
330
1AB
330
1AC
330
1AD
330
1AE
 92
        1
 93
        6
 72
     1
 10
6.4380082539340222
 20
14.0894310058233163
 11
6.4380082539340222
 21
14.4227643391566502
 72
     1
 10
6.4380082539340222
 20
14.4227643391566502
 11
6.2713415872673552
 21
14.4227643391566502
 72
     1
 10
6.2713415872673552
 20
14.4227643391566502
 11
6.2713415872673552
 21
14.2977643391566502
 72
     1
 10
6.2713415872673552
 20
14.2977643391566502
 11
6.2713415872673552
 21
14.1727643391566502
 72
     1
 10
6.2713415872673552
 20
14.1727643391566502
 11
6.2713415872673552
 21
14.0894310058233163
 72
     1
 10
6.2713415872673552
 20
14.0894310058233163
 11
6.4380082539340222
 21
14.0894310058233163
 97
        5
330
1B0
330
1B1
330
1B2
330
1B3
330
1B4
 75
     0
 76
     1
 98
        0
  0
LINE
  5
1B0
102
{ACAD_REACTORS
330
1AF
102
}
100
AcDbEntity
  8
BUILDING_ENVELOPE
  6
CONTINUOUS
 62
     7
100
AcDbLine
 10
6.438008
 20
14.089431
 30
0.0
 11
6.438008
 21
14.422764
 31
0.0
  0
LINE
  5
1B1
102
{ACAD_REACTORS
330
1AF
102
}
100
AcDbEntity
  8
BUILDING_ENVELOPE
  6
CONTINUOUS
 62
     7
100
AcDbLine
 10
6.438008
 20
14.422764
 30
0.0
 11
6.271342
 21
14.422764
 31
0.0
  0
LINE
  5
1B2
102
{ACAD_REACTORS
330
1AF
102
}
100
AcDbEntity
  8
BUILDING_ENVELOPE
  6
CONTINUOUS
 62
     7
100
AcDbLine
 10
6.271342
 20
14.422764
 30
0.0
 11
6.271342
 21
14.297764
 31
0.0
  0
LINE
  5
1B3
102
{ACAD_REACTORS
330
1AF
102
}
100
AcDbEntity
  8
BUILDING_ENVELOPE
  6
CONTINUOUS
 62
     7
100
AcDbLine
 10
6.271342
 20
14.172764
 30
0.0
 11
6.271342
 21
14.089431
 31
0.0
  0
LINE
  5
1B4
102
{ACAD_REACTORS
330
1AF
102
}
100
AcDbEntity
  8
BUILDING_ENVELOPE
  6
CONTINUOUS
 62
     7
100
AcDbLine
 10
6.271342
 20
14.089431
 30
0.0
 11
6.438008
 21
14.089431
 31
0.0
  0
LINE
  5
1B5
102
{ACAD_REACTORS
330
1B8
102
}
100
AcDbEntity
  8
BUILDING_ENVELOPE
  6
CONTINUOUS
 62
     7
100
AcDbLine
 10
3.771342
 20
14.297764
 30
0.0
 11
3.813008
 21
14.297764
 31
0.0
  0
LINE
  5
1B6
102
{ACAD_REACTORS
330
1B8
102
}
100
AcDbEntity
  8
BUILDING_ENVELOPE
  6
CONTINUOUS
 62
     7
100
AcDbLine
 10
3.813008
 20
14.297764
 30
0.0
 11
3.813008
 21
14.172764
 31
0.0
  0
LINE
  5
1B7
102
{ACAD_REACTORS
330
1B8
102
}
100
AcDbEntity
  8
BUILDING_ENVELOPE
  6
CONTINUOUS
 62
     7
100
AcDbLine
 10
3.813008
 20
14.172764
 30
0.0
 11
3.771342
 21
14.172764
 31
0.0
  0
HATCH
  5
1B8
102
{ACAD_REACTORS
330
1A8
102
}
100
AcDbEntity
  8
BUILDING_ENVELOPE
 62
     7
100
AcDbHatch
 10
0.0
 20
0.0
 30
0.0
210
0.0
220
0.0
230
1.0
  2
SOLID
 70
     1
 71
     1
 91
        2
 92
        1
 93
        4
 72
     1
 10
3.7713415872673552
 20
14.2977643391566502
 11
3.8130082539340222
 21
14.2977643391566502
 72
     1
 10
3.8130082539340222
 20
14.2977643391566502
 11
3.8130082539340222
 21
14.1727643391566502
 72
     1
 10
3.8130082539340222
 20
14.1727643391566502
 11
3.7713415872673552
 21
14.1727643391566502
 72
     1
 10
3.7713415872673552
 20
14.1727643391566502
 11
3.7713415872673552
 21
14.2977643391566502
 97
        3
330
1B5
330
1B6
330
1B7
 92
        1
 93
        4
 72
     1
 10
6.2713415872673552
 20
14.2977643391566502
 11
6.2296749206006883
 21
14.2977643391566502
 72
     1
 10
6.2296749206006883
 20
14.2977643391566502
 11
6.2296749206006883
 21
14.1727643391566502
 72
     1
 10
6.2296749206006883
 20
14.1727643391566502
 11
6.2713415872673552
 21
14.1727643391566502
 72
     1
 10
6.2713415872673552
 20
14.1727643391566502
 11
6.2713415872673552
 21
14.2977643391566502
 97
        3
330
1B9
330
1BA
330
1BB
 75
     0
 76
     1
 98
        0
  0
LINE
  5
1B9
102
{ACAD_REACTORS
330
1B8
102
}
100
AcDbEntity
  8
BUILDING_ENVELOPE
  6
CONTINUOUS
 62
     7
100
AcDbLine
 10
6.271342
 20
14.297764
 30
0.0
 11
6.229675
 21
14.297764
 31
0.0
  0
LINE
  5
1BA
102
{ACAD_REACTORS
330
1B8
102
}
100
AcDbEntity
  8
BUILDING_ENVELOPE
  6
CONTINUOUS
 62
     7
100
AcDbLine
 10
6.229675
 20
14.297764
 30
0.0
 11
6.229675
 21
14.172764
 31
0.0
  0
LINE
  5
1BB
102
{ACAD_REACTORS
330
1B8
102
}
100
AcDbEntity
  8
BUILDING_ENVELOPE
  6
CONTINUOUS
 62
     7
100
AcDbLine
 10
6.229675
 20
14.172764
 30
0.0
 11
6.271342
 21
14.172764
 31
0.0
  0
LINE
  5
1BC
102
{ACAD_REACTORS
330
1A8
102
}
100
AcDbEntity
  8
BUILDING_ENVELOPE
  6
CONTINUOUS
 62
     7
100
AcDbLine
 10
3.604675
 20
14.089431
 30
0.0
 11
3.604675
 21
14.422764
 31
0.0
  0
LINE
  5
1BD
102
{ACAD_REACTORS
330
1A8
102
}
100
AcDbEntity
  8
BUILDING_ENVELOPE
  6
CONTINUOUS
 62
     7
100
AcDbLine
 10
6.438008
 20
14.089431
 30
0.0
 11
6.438008
 21
14.422764
 31
0.0
  0
ARC
  5
1BE
102
{ACAD_REACTORS
330
1A8
102
}
100
AcDbEntity
  8
BUILDING_ENVELOPE
  6
CONTINUOUS
 62
     7
100
AcDbCircle
 10
3.771342
 20
14.422764
 30
0.0
 40
2.5
100
AcDbArc
 50
0.0
 51
90.0
  0
LWPOLYLINE
  5
1BF
102
{ACAD_REACTORS
330
1C0
102
}
100
AcDbEntity
  8
BUILDING_ENVELOPE
  6
CONTINUOUS
 62
     7
100
AcDbPolyline
 90
        4
 70
     1
 10
3.896342
 20
16.922764
 10
3.896342
 20
14.422764
 10
3.771342
 20
14.422764
 10
3.771342
 20
16.922764
  0
HATCH
  5
1C0
102
{ACAD_REACTORS
330
1A8
102
}
100
AcDbEntity
  8
BUILDING_ENVELOPE
 62
     7
100
AcDbHatch
 10
0.0
 20
0.0
 30
0.0
210
0.0
220
0.0
230
1.0
  2
SOLID
 70
     1
 71
     1
 91
        1
 92
        3
 72
     0
 73
     1
 93
        4
 10
3.8963415872673552
 20
16.9227643391566502
 10
3.8963415872673552
 20
14.4227643391566502
 10
3.7713415872673552
 20
14.4227643391566502
 10
3.7713415872673552
 20
16.9227643391566502
 97
        1
330
1BF
 75
     0
 76
     1
 98
        0
  0
LWPOLYLINE
  5
1C3
102
{ACAD_REACTORS
330
1C4
102
}
100
AcDbEntity
  8
LANDING
  6
CONTINUOUS
 62
     7
100
AcDbPolyline
 90
        4
 70
     1
 10
25.300571
 20
1.34833
 10
25.300571
 20
9.073235
 10
22.342694
 20
9.073235
 10
22.342694
 20
1.34833
  0
HATCH
  5
1C4
102
{ACAD_REACTORS
330
1C1
102
}
100
AcDbEntity
  8
LANDING
 62
   134
100
AcDbHatch
 10
0.0
 20
0.0
 30
0.0
210
0.0
220
0.0
230
1.0
  2
SOLID
 70
     1
 71
     1
 91
        1
 92
        3
 72
     0
 73
     1
 93
        4
 10
25.3005706773527308
 20
1.348330135538425
 10
25.3005706773527308
 20
9.0732349816227114
 10
22.3426939004042744
 20
9.0732349816227114
 10
22.3426939004042744
 20
1.348330135538425
 97
        1
330
1C3
 75
     0
 76
     1
 98
        0
  0
LWPOLYLINE
  5
1C5
102
{ACAD_REACTORS
330
1C6
102
}
100
AcDbEntity
  8
BUILDING_ENVELOPE
  6
CONTINUOUS
 62
     9
100
AcDbPolyline
 90
        4
 70
     1
 10
13.649797
 20
9.073061
 10
14.530484
 20
9.073061
 10
14.530484
 20
1.433204
 10
13.649797
 20
1.433204
  0
HATCH
  5
1C6
102
{ACAD_REACTORS
330
1C1
102
}
100
AcDbEntity
  8
BUILDING_ENVELOPE
 62
   134
100
AcDbHatch
 10
0.0
 20
0.0
 30
0.0
210
0.0
220
0.0
230
1.0
  2
SOLID
 70
     1
 71
     1
 91
       33
 92
        3
 72
     0
 73
     1
 93
        4
 10
13.6497971618440666
 20
9.0730605703335225
 10
14.5304836890692588
 20
9.0730605703335225
 10
14.5304836890692588
 20
1.4332041200701582
 10
13.6497971618440666
 20
1.4332041200701582
 97
        1
330
1C5
 92
        3
 72
     0
 73
     1
 93
        4
 10
14.5304836890692588
 20
9.0730605703335225
 10
15.4111702162944511
 20
9.0730605703335225
 10
15.4111702162944511
 20
1.4332041200701582
 10
14.5304836890692588
 20
1.4332041200701582
 97
        1
330
1C7
 92
        3
 72
     0
 73
     1
 93
        4
 10
15.4111702162944511
 20
9.0730605703335225
 10
16.2918567435196451
 20
9.0730605703335225
 10
16.2918567435196451
 20
1.4332041200701582
 10
15.4111702162944511
 20
1.4332041200701582
 97
        1
330
1C8
 92
        3
 72
     0
 73
     1
 93
        4
 10
16.2918567435196451
 20
9.0730605703335225
 10
17.1725432707448356
 20
9.0730605703335225
 10
17.1725432707448356
 20
1.4332041200701582
 10
16.2918567435196451
 20
1.4332041200701582
 97
        1
330
1C9
 92
        3
 72
     0
 73
     1
 93
        4
 10
17.1725432707448356
 20
9.0730605703335225
 10
18.053229797970026
 20
9.0730605703335225
 10
18.053229797970026
 20
1.4332041200701582
 10
17.1725432707448356
 20
1.4332041200701582
 97
        1
330
1CA
 92
        3
 72
     0
 73
     1
 93
        4
 10
18.053229797970026
 20
9.0730605703335225
 10
18.9339163251952201
 20
9.0730605703335225
 10
18.9339163251952201
 20
1.4332041200701582
 10
18.053229797970026
 20
1.4332041200701582
 97
        1
330
1CB
 92
        3
 72
     0
 73
     1
 93
        4
 10
18.9339163251952201
 20
9.0730605703335225
 10
19.8146028524204141
 20
9.0730605703335225
 10
19.8146028524204141
 20
1.4332041200701582
 10
18.9339163251952201
 20
1.4332041200701582
 97
        1
330
1CC
 92
        3
 72
     0
 73
     1
 93
        4
 10
19.8146028524204141
 20
9.0730605703335225
 10
20.6952893796456046
 20
9.0730605703335225
 10
20.6952893796456046
 20
1.4332041200701582
 10
19.8146028524204141
 20
1.4332041200701582
 97
        1
330
1CD
 92
        3
 72
     0
 73
     1
 93
        4
 10
20.6952893796456046
 20
9.0730605703335225
 10
21.5759759068707986
 20
9.0730605703335225
 10
21.5759759068707986
 20
1.4332041200701582
 10
20.6952893796456046
 20
1.4332041200701582
 97
        1
330
1CE
 92
        3
 72
     0
 73
     1
 93
        4
 10
21.5759759068707986
 20
9.0730605703335225
 10
22.4566624340959926
 20
9.0730605703335225
 10
22.4566624340959926
 20
1.4332041200701582
 10
21.5759759068707986
 20
1.4332041200701582
 97
        1
330
1CF
 92
        0
 93
        0
 97
        0
 92
        0
 93
        0
 97
        0
 92
        0
 93
        0
 97
        0
 92
        0
 93
        0
 97
        0
 92
        0
 93
        0
 97
        0
 92
        0
 93
        0
 97
        0
 92
        0
 93
        0
 97
        0
 92
        0
 93
        0
 97
        0
 92
        0
 93
        0
 97
        0
 92
        0
 93
        0
 97
        0
 92
        0
 93
        0
 97
        0
 92
        0
 93
        0
 97
        0
 92
        0
 93
        0
 97
        0
 92
        0
 93
        0
 97
        0
 92
        0
 93
        0
 97
        0
 92
        0
 93
        0
 97
        0
 92
        0
 93
        0
 97
        0
 92
        0
 93
        0
 97
        0
 92
        0
 93
        0
 97
        0
 92
        0
 93
        0
 97
        0
 92
        0
 93
        0
 97
        0
 92
        0
 93
        0
 97
        0
 92
        0
 93
        0
 97
        0
 75
     0
 76
     1
 98
        0
  0
LWPOLYLINE
  5
1C7
102
{ACAD_REACTORS
330
1C6
102
}
100
AcDbEntity
  8
BUILDING_ENVELOPE
  6
CONTINUOUS
 62
     9
100
AcDbPolyline
 90
        4
 70
     1
 10
14.530484
 20
9.073061
 10
15.41117
 20
9.073061
 10
15.41117
 20
1.433204
 10
14.530484
 20
1.433204
  0
LWPOLYLINE
  5
1C8
102
{ACAD_REACTORS
330
1C6
102
}
100
AcDbEntity
  8
BUILDING_ENVELOPE
  6
CONTINUOUS
 62
     9
100
AcDbPolyline
 90
        4
 70
     1
 10
15.41117
 20
9.073061
 10
16.291857
 20
9.073061
 10
16.291857
 20
1.433204
 10
15.41117
 20
1.433204
  0
LWPOLYLINE
  5
1C9
102
{ACAD_REACTORS
330
1C6
102
}
100
AcDbEntity
  8
BUILDING_ENVELOPE
  6
CONTINUOUS
 62
     9
100
AcDbPolyline
 90
        4
 70
     1
 10
16.291857
 20
9.073061
 10
17.172543
 20
9.073061
 10
17.172543
 20
1.433204
 10
16.291857
 20
1.433204
  0
LWPOLYLINE
  5
1CA
102
{ACAD_REACTORS
330
1C6
102
}
100
AcDbEntity
  8
BUILDING_ENVELOPE
  6
CONTINUOUS
 62
     9
100
AcDbPolyline
 90
        4
 70
     1
 10
17.172543
 20
9.073061
 10
18.05323
 20
9.073061
 10
18.05323
 20
1.433204
 10
17.172543
 20
1.433204
  0
LWPOLYLINE
  5
1CB
102
{ACAD_REACTORS
330
1C6
102
}
100
AcDbEntity
  8
BUILDING_ENVELOPE
  6
CONTINUOUS
 62
     9
100
AcDbPolyline
 90
        4
 70
     1
 10
18.05323
 20
9.073061
 10
18.933916
 20
9.073061
 10
18.933916
 20
1.433204
 10
18.05323
 20
1.433204
  0
LWPOLYLINE
  5
1CC
102
{ACAD_REACTORS
330
1C6
102
}
100
AcDbEntity
  8
BUILDING_ENVELOPE
  6
CONTINUOUS
 62
     9
100
AcDbPolyline
 90
        4
 70
     1
 10
18.933916
 20
9.073061
 10
19.814603
 20
9.073061
 10
19.814603
 20
1.433204
 10
18.933916
 20
1.433204
  0
LWPOLYLINE
  5
1CD
102
{ACAD_REACTORS
330
1C6
102
}
100
AcDbEntity
  8
BUILDING_ENVELOPE
  6
CONTINUOUS
 62
     9
100
AcDbPolyline
 90
        4
 70
     1
 10
19.814603
 20
9.073061
 10
20.695289
 20
9.073061
 10
20.695289
 20
1.433204
 10
19.814603
 20
1.433204
  0
LWPOLYLINE
  5
1CE
102
{ACAD_REACTORS
330
1C6
102
}
100
AcDbEntity
  8
BUILDING_ENVELOPE
  6
CONTINUOUS
 62
     9
100
AcDbPolyline
 90
        4
 70
     1
 10
20.695289
 20
9.073061
 10
21.575976
 20
9.073061
 10
21.575976
 20
1.433204
 10
20.695289
 20
1.433204
  0
LWPOLYLINE
  5
1CF
102
{ACAD_REACTORS
330
1C6
102
}
100
AcDbEntity
  8
BUILDING_ENVELOPE
  6
CONTINUOUS
 62
     9
100
AcDbPolyline
 90
        4
 70
     1
 10
21.575976
 20
9.073061
 10
22.456662
 20
9.073061
 10
22.456662
 20
1.433204
 10
21.575976
 20
1.433204
  0
MTEXT
  5
1D0
100
AcDbEntity
  8
BUILDING_ENVELOPE
100
AcDbMText
 10
13.273164
 20
5.253132
 30
0.0
 40
0.500004
 41
0.753267
 71
     5
 72
     5
  1
\C7;\fCalibri|b0|i0|;\H0.50000381469727;U\PP
  0
CIRCLE
  5
1D2
102
{ACAD_REACTORS
330
1D3
102
}
100
AcDbEntity
  8
STAIR
  6
CONTINUOUS
 62
     7
100
AcDbCircle
 10
13.649797
 20
5.253132
 30
0.0
 40
0.086804
  0
HATCH
  5
1D3
102
{ACAD_REACTORS
330
1C1
102
}
100
AcDbEntity
  8
STAIR
 62
   134
100
AcDbHatch
 10
0.0
 20
0.0
 30
0.0
210
0.0
220
0.0
230
1.0
  2
SOLID
 70
     1
 71
     1
 91
        1
 92
        1
 93
        1
 72
     2
 10
13.6497971618440666
 20
5.2531323452018404
 40
0.0868041666666667
 50
0.0
 51
360.0
 73
     1
 97
        1
330
1D2
 75
     0
 76
     1
 98
        0
  0
LINE
  5
1D4
102
{ACAD_REACTORS
330
1C1
102
}
100
AcDbEntity
  8
STAIR
  6
CONTINUOUS
 62
     7
100
AcDbLine
 10
13.649797
 20
5.253132
 30
0.0
 11
15.957997
 21
5.253132
 31
0.0
  0
LWPOLYLINE
  5
1D5
102
{ACAD_REACTORS
330
1D6
102
}
100
AcDbEntity
  8
STAIR
  6
CONTINUOUS
 62
     7
100
AcDbPolyline
 90
        3
 70
     1
 10
15.745085
 20
5.125657
 10
15.745085
 20
5.380607
 10
16.17091
 20
5.250398
  0
HATCH
  5
1D6
102
{ACAD_REACTORS
330
1C1
102
}
100
AcDbEntity
  8
STAIR
 62
   134
100
AcDbHatch
 10
0.0
 20
0.0
 30
0.0
210
0.0
220
0.0
230
1.0
  2
SOLID
 70
     1
 71
     1
 91
        1
 92
        3
 72
     0
 73
     1
 93
        3
 10
15.7450846618440679
 20
5.1256573452018408
 10
15.7450846618440679
 20
5.3806073452018399
 10
16.1709096618440675
 20
5.2503979478576115
 97
        1
330
1D5
 75
     0
 76
     1
 98
        0
  0
LWPOLYLINE
  5
1D8
102
{ACAD_REACTORS
330
1D9
102
}
100
AcDbEntity
  8
SPACE
  6
CONTINUOUS
100
AcDbPolyline
 90
        4
 70
     1
 10
2.291667
 20
14.089431
 10
2.291667
 20
46.088042
 10
0.690278
 20
46.088042
 10
0.690278
 20
14.089431
  0
HATCH
  5
1D9
102
{ACAD_REACTORS
330
1D7
102
}
100
AcDbEntity
  8
SPACE
 62
    54
100
AcDbHatch
 10
0.0
 20
0.0
 30
0.0
210
0.0
220
0.0
230
1.0
  2
SOLID
 70
     1
 71
     1
 91
        1
 92
        3
 72
     0
 73
     1
 93
        4
 10
2.2916666666666634
 20
14.0894313892650942
 10
2.2916666666666634
 20
46.0880419966442574
 10
0.6902776698352133
 20
46.0880419966442574
 10
0.6902776698352133
 20
14.0894313892650942
 97
        1
330
1D8
 75
     0
 76
     1
 98
        0
  0
MTEXT
  5
1DA
100
AcDbEntity
  8
SPACE
100
AcDbMText
 10
2.291667
 20
42.733215
 30
0.0
 40
0.500004
 41
2.946903
 71
     5
 72
     5
  1
\C7;\fCalibri|b0|i0|;\H0.50000381469727;Passage\P51 sq. ft.\P\P
  0
LWPOLYLINE
  5
1DC
102
{ACAD_REACTORS
330
1DB
102
}
100
AcDbEntity
  8
BUILDING_ENVELOPE
  6
CONTINUOUS
 62
     7
100
AcDbPolyline
 90
        4
 70
     1
 10
1.119469
 20
1.080042
 10
11.815278
 20
1.080042
 10
11.815278
 20
1.429375
 10
1.119469
 20
1.429375
  0
LINE
  5
1DD
102
{ACAD_REACTORS
330
1DB
102
}
100
AcDbEntity
  8
BUILDING_ENVELOPE
  6
CONTINUOUS
 62
     7
100
AcDbLine
 10
1.119469
 20
1.088042
 30
0.0
 11
1.119469
 21
1.421375
 31
0.0
  0
LINE
  5
1DE
102
{ACAD_REACTORS
330
1DB
102
}
100
AcDbEntity
  8
BUILDING_ENVELOPE
  6
CONTINUOUS
 62
     7
100
AcDbLine
 10
1.119469
 20
1.421375
 30
0.0
 11
1.286136
 21
1.421375
 31
0.0
  0
LINE
  5
1DF
102
{ACAD_REACTORS
330
1DB
102
}
100
AcDbEntity
  8
BUILDING_ENVELOPE
  6
CONTINUOUS
 62
     7
100
AcDbLine
 10
1.286136
 20
1.421375
 30
0.0
 11
1.286136
 21
1.338042
 31
0.0
  0
LINE
  5
1E0
102
{ACAD_REACTORS
330
1DB
102
}
100
AcDbEntity
  8
BUILDING_ENVELOPE
  6
CONTINUOUS
 62
     7
100
AcDbLine
 10
1.286136
 20
1.171375
 30
0.0
 11
1.286136
 21
1.088042
 31
0.0
  0
LINE
  5
1E1
102
{ACAD_REACTORS
330
1DB
102
}
100
AcDbEntity
  8
BUILDING_ENVELOPE
  6
CONTINUOUS
 62
     7
100
AcDbLine
 10
1.286136
 20
1.088042
 30
0.0
 11
1.119469
 21
1.088042
 31
0.0
  0
LINE
  5
1E2
102
{ACAD_REACTORS
330
1DB
102
}
100
AcDbEntity
  8
BUILDING_ENVELOPE
  6
CONTINUOUS
 62
     7
100
AcDbLine
 10
11.815278
 20
1.088042
 30
0.0
 11
11.815278
 21
1.421375
 31
0.0
  0
LINE
  5
1E3
102
{ACAD_REACTORS
330
1DB
102
}
100
AcDbEntity
  8
BUILDING_ENVELOPE
  6
CONTINUOUS
 62
     7
100
AcDbLine
 10
11.815278
 20
1.421375
 30
0.0
 11
11.648611
 21
1.421375
 31
0.0
  0
LINE
  5
1E4
102
{ACAD_REACTORS
330
1DB
102
}
100
AcDbEntity
  8
BUILDING_ENVELOPE
  6
CONTINUOUS
 62
     7
100
AcDbLine
 10
11.648611
 20
1.421375
 30
0.0
 11
11.648611
 21
1.338042
 31
0.0
  0
LINE
  5
1E5
102
{ACAD_REACTORS
330
1DB
102
}
100
AcDbEntity
  8
BUILDING_ENVELOPE
  6
CONTINUOUS
 62
     7
100
AcDbLine
 10
11.648611
 20
1.171375
 30
0.0
 11
11.648611
 21
1.088042
 31
0.0
  0
LINE
  5
1E6
102
{ACAD_REACTORS
330
1DB
102
}
100
AcDbEntity
  8
BUILDING_ENVELOPE
  6
CONTINUOUS
 62
     7
100
AcDbLine
 10
11.648611
 20
1.088042
 30
0.0
 11
11.815278
 21
1.088042
 31
0.0
  0
LWPOLYLINE
  5
1E7
102
{ACAD_REACTORS
330
1DB
102
}
100
AcDbEntity
  8
BUILDING_ENVELOPE
  6
CONTINUOUS
 62
     7
100
AcDbPolyline
 90
        4
 70
     1
 10
1.286136
 20
1.421375
 10
1.452803
 20
1.421375
 10
1.452803
 20
1.254709
 10
1.286136
 20
1.254709
  0
LWPOLYLINE
  5
1E8
102
{ACAD_REACTORS
330
1DB
102
}
100
AcDbEntity
  8
BUILDING_ENVELOPE
  6
CONTINUOUS
 62
     7
100
AcDbPolyline
 90
        4
 70
     1
 10
11.648611
 20
1.421375
 10
11.481944
 20
1.421375
 10
11.481944
 20
1.254709
 10
11.648611
 20
1.254709
  0
LINE
  5
1E9
102
{ACAD_REACTORS
330
1DB
102
}
100
AcDbEntity
  8
BUILDING_ENVELOPE
  6
CONTINUOUS
 62
     7
100
AcDbLine
 10
1.452803
 20
1.338042
 30
0.0
 11
11.481944
 21
1.338042
 31
0.0
  0
LINE
  5
1EA
102
{ACAD_REACTORS
330
1DB
102
}
100
AcDbEntity
  8
BUILDING_ENVELOPE
  6
CONTINUOUS
 62
     7
100
AcDbLine
 10
1.119469
 20
1.088042
 30
0.0
 11
1.119469
 21
1.421375
 31
0.0
  0
LINE
  5
1EB
102
{ACAD_REACTORS
330
1DB
102
}
100
AcDbEntity
  8
BUILDING_ENVELOPE
  6
CONTINUOUS
 62
     7
100
AcDbLine
 10
11.815278
 20
1.088042
 30
0.0
 11
11.815278
 21
1.421375
 31
0.0
  0
LWPOLYLINE
  5
1EC
102
{ACAD_REACTORS
330
1DB
102
}
100
AcDbEntity
  8
BUILDING_ENVELOPE
  6
CONTINUOUS
 62
     7
100
AcDbPolyline
 90
        4
 70
     1
 10
1.286136
 20
1.254709
 10
1.369469
 20
1.254709
 10
1.369469
 20
1.171375
 10
1.286136
 20
1.171375
  0
LWPOLYLINE
  5
1ED
102
{ACAD_REACTORS
330
1DB
102
}
100
AcDbEntity
  8
BUILDING_ENVELOPE
  6
CONTINUOUS
 62
     7
100
AcDbPolyline
 90
        4
 70
     1
 10
11.648611
 20
1.254709
 10
11.565278
 20
1.254709
 10
11.565278
 20
1.171375
 10
11.648611
 20
1.171375
  0
ENDSEC
  0
SECTION
  2
OBJECTS
  0
DICTIONARY
  5
C
100
AcDbDictionary
  3
ACAD_GROUP
350
D
  3
ACAD_MLINESTYLE
350
1B
  3
ACAD_SCALELIST
350
2C
  3
ACAD_VISUALSTYLE
350
51
  3
ACAD_MATERIAL
350
6A
  3
ACAD_TABLESTYLE
350
6E
  3
ACAD_MLEADERSTYLE
350
70
  0
DICTIONARY
  5
D
102
{ACAD_REACTORS
330
C
102
}
100
AcDbDictionary
  3
VISIOGROUP_0
350
74
  3
VISIOGROUP_1
350
7C
  3
VISIOGROUP_2
350
80
  3
VISIOGROUP_3
350
84
  3
VISIOGROUP_4
350
8B
  3
VISIOGROUP_5
350
92
  3
VISIOGROUP_6
350
99
  3
VISIOGROUP_7
350
A0
  3
VISIOGROUP_8
350
AD
  3
VISIOGROUP_9
350
B4
  3
VISIOGROUP_10
350
BA
  3
VISIOGROUP_11
350
BF
  3
VISIOGROUP_12
350
C4
  3
VISIOGROUP_13
350
C9
  3
VISIOGROUP_14
350
D0
  3
VISIOGROUP_15
350
D9
  3
VISIOGROUP_16
350
E2
  3
VISIOGROUP_17
350
E9
  3
VISIOGROUP_18
350
F0
  3
VISIOGROUP_19
350
F9
  3
VISIOGROUP_20
350
102
  3
VISIOGROUP_21
350
10B
  3
VISIOGROUP_22
350
114
  3
VISIOGROUP_23
350
12D
  3
VISIOGROUP_24
350
146
  3
VISIOGROUP_25
350
15F
  3
VISIOGROUP_26
350
166
  3
VISIOGROUP_27
350
17F
  3
VISIOGROUP_28
350
186
  3
VISIOGROUP_29
350
18F
  3
VISIOGROUP_30
350
1A8
  3
VISIOGROUP_31
350
1C1
  3
VISIOGROUP_32
350
1D7
  3
VISIOGROUP_33
350
1DB
  0
DICTIONARY
  5
1B
102
{ACAD_REACTORS
330
C
102
}
100
AcDbDictionary
  3
STANDARD
350
1C
  0
MLINESTYLE
  5
1C
102
{ACAD_REACTORS
330
1B
102
}
100
AcDbMlineStyle
  2
STANDARD
 70
     0
  3

 62
   256
 51
90.0
 52
90.0
 71
     2
 49
0.5
 62
   256
  6
BYLAYER
 49
-0.5
 62
   256
  6
BYLAYER
  0
DICTIONARY
  5
29
102
{ACAD_REACTORS
330
C
102
}
100
AcDbDictionary
  0
DICTIONARY
  5
2C
102
{ACAD_REACTORS
330
C
102
}
100
AcDbDictionary
  3
A0
350
2D
  3
A1
350
2E
  3
A2
350
2F
  3
A3
350
30
  3
A4
350
31
  3
A5
350
32
  3
A6
350
33
  3
A7
350
34
  3
A8
350
35
  3
A9
350
36
  3
B0
350
37
  3
B1
350
38
  3
B2
350
39
  3
B3
350
3A
  3
B4
350
3B
  3
B5
350
3C
  3
B6
350
3D
  3
B7
350
3E
  3
B8
350
3F
  3
B9
350
40
  3
C0
350
41
  3
C1
350
42
  3
C2
350
43
  3
C3
350
44
  3
C4
350
45
  3
C5
350
46
  3
C6
350
47
  3
C7
350
48
  3
C8
350
49
  3
C9
350
4A
  3
D0
350
4B
  3
D1
350
4C
  3
D2
350
4D
  0
DICTIONARY
  5
4E
102
{ACAD_REACTORS
330
C
102
}
100
AcDbDictionary
  3
MODEL
350
4F
  3
LAYOUT1
350
50
  0
DICTIONARY
  5
51
102
{ACAD_REACTORS
330
C
102
}
100
AcDbDictionary
  3
FLAT
350
52
  3
FLATWITHEDGES
350
53
  3
GOURAUD
350
54
  3
GOURAUDWITHEDGES
350
55
  3
2DWIREFRAME
350
56
  3
WIREFRAME
350
57
  3
HIDDEN
350
58
  3
BASIC
350
59
  3
REALISTIC
350
5A
  3
CONCEPTUAL
350
5B
  3
DIM
350
5C
  3
BRIGHTEN
350
5D
  3
THICKEN
350
5E
  3
LINEPATTERN
350
5F
  3
FACEPATTERN
350
60
  3
COLORCHANGE
350
61
  3
JITTEROFF
350
62
  3
OVERHANGOFF
350
63
  3
EDGECOLOROFF
350
64
  3
SHADES OF GRAY
350
65
  3
SKETCHY
350
66
  3
X-RAY
350
67
  3
SHADED WITH EDGES
350
68
  3
SHADED
350
69
  0
DICTIONARY
  5
6A
102
{ACAD_REACTORS
330
C
102
}
100
AcDbDictionary
  3
BYLAYER
350
6B
  3
BYBLOCK
350
6C
  3
GLOBAL
350
6D
  0
DICTIONARY
  5
6E
102
{ACAD_REACTORS
330
C
102
}
100
AcDbDictionary
  3
STANDARD
350
6F
  0
DICTIONARY
  5
70
102
{ACAD_REACTORS
330
C
102
}
100
AcDbDictionary
  3
STANDARD
350
71
  0
GROUP
  5
74
102
{ACAD_REACTORS
330
D
102
}
100
AcDbGroup
300
Group created by Visio.
 70
     0
 71
     1
340
76
340
77
340
78
340
79
340
7A
  0
GROUP
  5
7C
102
{ACAD_REACTORS
330
D
102
}
100
AcDbGroup
300
Group created by Visio.
 70
     0
 71
     1
340
7D
340
7E
  0
GROUP
  5
80
102
{ACAD_REACTORS
330
D
102
}
100
AcDbGroup
300
Group created by Visio.
 70
     0
 71
     1
340
81
340
82
  0
GROUP
  5
84
102
{ACAD_REACTORS
330
D
102
}
100
AcDbGroup
300
Group created by Visio.
 70
     0
 71
     1
340
85
340
86
340
87
340
88
340
89
  0
GROUP
  5
8B
102
{ACAD_REACTORS
330
D
102
}
100
AcDbGroup
300
Group created by Visio.
 70
     0
 71
     1
340
8C
340
8D
340
8E
340
8F
340
90
  0
GROUP
  5
92
102
{ACAD_REACTORS
330
D
102
}
100
AcDbGroup
300
Group created by Visio.
 70
     0
 71
     1
340
93
340
94
340
95
340
96
340
97
  0
GROUP
  5
99
102
{ACAD_REACTORS
330
D
102
}
100
AcDbGroup
300
Group created by Visio.
 70
     0
 71
     1
340
9A
340
9B
340
9C
340
9D
340
9E
  0
GROUP
  5
A0
102
{ACAD_REACTORS
330
D
102
}
100
AcDbGroup
300
Group created by Visio.
 70
     0
 71
     1
340
A1
340
A2
340
A3
340
A4
340
A5
340
A6
340
A7
340
A8
340
A9
340
AA
340
AB
  0
GROUP
  5
AD
102
{ACAD_REACTORS
330
D
102
}
100
AcDbGroup
300
Group created by Visio.
 70
     0
 71
     1
340
AE
340
AF
340
B0
340
B1
340
B2
  0
GROUP
  5
B4
102
{ACAD_REACTORS
330
D
102
}
100
AcDbGroup
300
Group created by Visio.
 70
     0
 71
     1
340
B6
340
B7
340
B8
340
B9
  0
GROUP
  5
BA
102
{ACAD_REACTORS
330
D
102
}
100
AcDbGroup
300
Group created by Visio.
 70
     0
 71
     1
340
BB
340
BC
340
BD
340
BE
  0
GROUP
  5
BF
102
{ACAD_REACTORS
330
D
102
}
100
AcDbGroup
300
Group created by Visio.
 70
     0
 71
     1
340
C0
340
C1
340
C2
340
C3
  0
GROUP
  5
C4
102
{ACAD_REACTORS
330
D
102
}
100
AcDbGroup
300
Group created by Visio.
 70
     0
 71
     1
340
C5
340
C6
340
C7
340
C8
  0
GROUP
  5
C9
102
{ACAD_REACTORS
330
D
102
}
100
AcDbGroup
300
Group created by Visio.
 70
     0
 71
     1
340
CA
340
CB
340
CC
340
CD
340
CE
340
CF
  0
GROUP
  5
D0
102
{ACAD_REACTORS
330
D
102
}
100
AcDbGroup
300
Group created by Visio.
 70
     0
 71
     1
340
D1
340
D2
340
D3
340
D4
340
D5
340
D6
340
D7
340
D8
  0
GROUP
  5
D9
102
{ACAD_REACTORS
330
D
102
}
100
AcDbGroup
300
Group created by Visio.
 70
     0
 71
     1
340
DA
340
DB
340
DC
340
DD
340
DE
340
DF
340
E0
340
E1
  0
GROUP
  5
E2
102
{ACAD_REACTORS
330
D
102
}
100
AcDbGroup
300
Group created by Visio.
 70
     0
 71
     1
340
E3
340
E4
340
E5
340
E6
340
E7
340
E8
  0
GROUP
  5
E9
102
{ACAD_REACTORS
330
D
102
}
100
AcDbGroup
300
Group created by Visio.
 70
     0
 71
     1
340
EA
340
EB
340
EC
340
ED
340
EE
340
EF
  0
GROUP
  5
F0
102
{ACAD_REACTORS
330
D
102
}
100
AcDbGroup
300
Group created by Visio.
 70
     0
 71
     1
340
F1
340
F2
340
F3
340
F4
340
F5
340
F6
340
F7
340
F8
  0
GROUP
  5
F9
102
{ACAD_REACTORS
330
D
102
}
100
AcDbGroup
300
Group created by Visio.
 70
     0
 71
     1
340
FA
340
FB
340
FC
340
FD
340
FE
340
FF
340
100
340
101
  0
GROUP
  5
102
102
{ACAD_REACTORS
330
D
102
}
100
AcDbGroup
300
Group created by Visio.
 70
     0
 71
     1
340
103
340
104
340
105
340
106
340
107
340
108
340
109
340
10A
  0
GROUP
  5
10B
102
{ACAD_REACTORS
330
D
102
}
100
AcDbGroup
300
Group created by Visio.
 70
     0
 71
     1
340
10C
340
10D
340
10E
340
10F
340
110
340
111
340
112
340
113
  0
GROUP
  5
114
102
{ACAD_REACTORS
330
D
102
}
100
AcDbGroup
300
Group created by Visio.
 70
     0
 71
     1
340
115
340
116
340
117
340
118
340
119
340
11A
340
11C
340
11D
340
11E
340
11F
340
120
340
11B
340
121
340
122
340
123
340
125
340
126
340
127
340
124
340
128
340
129
340
12A
340
12B
340
12C
  0
GROUP
  5
12D
102
{ACAD_REACTORS
330
D
102
}
100
AcDbGroup
300
Group created by Visio.
 70
     0
 71
     1
340
12E
340
12F
340
130
340
131
340
132
340
133
340
135
340
136
340
137
340
138
340
139
340
134
340
13A
340
13B
340
13C
340
13E
340
13F
340
140
340
13D
340
141
340
142
340
143
340
144
340
145
  0
GROUP
  5
146
102
{ACAD_REACTORS
330
D
102
}
100
AcDbGroup
300
Group created by Visio.
 70
     0
 71
     1
340
147
340
148
340
149
340
14A
340
14B
340
14C
340
14E
340
14F
340
150
340
151
340
152
340
14D
340
153
340
154
340
155
340
157
340
158
340
159
340
156
340
15A
340
15B
340
15C
340
15D
340
15E
  0
GROUP
  5
15F
102
{ACAD_REACTORS
330
D
102
}
100
AcDbGroup
300
Group created by Visio.
 70
     0
 71
     1
340
160
340
161
340
163
340
162
340
164
340
165
  0
GROUP
  5
166
102
{ACAD_REACTORS
330
D
102
}
100
AcDbGroup
300
Group created by Visio.
 70
     0
 71
     1
340
167
340
168
340
169
340
16A
340
16B
340
16C
340
16E
340
16F
340
170
340
171
340
172
340
16D
340
173
340
174
340
175
340
177
340
178
340
179
340
176
340
17A
340
17B
340
17C
340
17D
340
17E
  0
GROUP
  5
17F
102
{ACAD_REACTORS
330
D
102
}
100
AcDbGroup
300
Group created by Visio.
 70
     0
 71
     1
340
180
340
181
340
183
340
182
340
184
340
185
  0
GROUP
  5
186
102
{ACAD_REACTORS
330
D
102
}
100
AcDbGroup
300
Group created by Visio.
 70
     0
 71
     1
340
187
340
188
340
189
340
18A
340
18B
340
18C
340
18D
340
18E
  0
GROUP
  5
18F
102
{ACAD_REACTORS
330
D
102
}
100
AcDbGroup
300
Group created by Visio.
 70
     0
 71
     1
340
190
340
191
340
192
340
193
340
194
340
195
340
197
340
198
340
199
340
19A
340
19B
340
196
340
19C
340
19D
340
19E
340
1A0
340
1A1
340
1A2
340
19F
340
1A3
340
1A4
340
1A5
340
1A6
340
1A7
  0
GROUP
  5
1A8
102
{ACAD_REACTORS
330
D
102
}
100
AcDbGroup
300
Group created by Visio.
 70
     0
 71
     1
340
1A9
340
1AA
340
1AB
340
1AC
340
1AD
340
1AE
340
1B0
340
1B1
340
1B2
340
1B3
340
1B4
340
1AF
340
1B5
340
1B6
340
1B7
340
1B9
340
1BA
340
1BB
340
1B8
340
1BC
340
1BD
340
1BE
340
1BF
340
1C0
  0
GROUP
  5
1C1
102
{ACAD_REACTORS
330
D
102
}
100
AcDbGroup
300
Group created by Visio.
 70
     0
 71
     1
340
1C3
340
1C4
340
1C5
340
1C7
340
1C8
340
1C9
340
1CA
340
1CB
340
1CC
340
1CD
340
1CE
340
1CF
340
1C6
340
1D2
340
1D3
340
1D4
340
1D5
340
1D6
  0
GROUP
  5
1D7
102
{ACAD_REACTORS
330
D
102
}
100
AcDbGroup
300
Group created by Visio.
 70
     0
 71
     1
340
1D8
340
1D9
  0
GROUP
  5
1DB
102
{ACAD_REACTORS
330
D
102
}
100
AcDbGroup
300
Group created by Visio.
 70
     0
 71
     1
340
1DC
340
1DD
340
1DE
340
1DF
340
1E0
340
1E1
340
1E2
340
1E3
340
1E4
340
1E5
340
1E6
340
1E7
340
1E8
340
1E9
340
1EA
340
1EB
340
1EC
340
1ED
  0
ENDSEC
  0
EOF
