  0
SECTION
  2
HEADER
  9
$ACADVER
  1
AC1014
  9
$ACADMAINTVER
 70
     0
  9
$DWGCODEPAGE
  3
ANSI_1252
  9
$INSBASE
 10
0.0
 20
0.0
 30
0.0
  9
$EXTMIN
 10
0.0
 20
0.0
 30
0.0
  9
$EXTMAX
 10
27.508533
 20
47.7752
 30
0.0
  9
$LIMMIN
 10
0.0
 20
0.0
  9
$LIMMAX
 10
12.0
 20
9.0
  9
$ORTHOMODE
 70
     0
  9
$REGENMODE
 70
     1
  9
$FILLMODE
 70
     0
  9
$QTEXTMODE
 70
     0
  9
$MIRRTEXT
 70
     1
  9
$DRAGMODE
 70
     2
  9
$LTSCALE
 40
1.0
  9
$OSMODE
 70
    37
  9
$ATTMODE
 70
     1
  9
$TEXTSIZE
 40
0.2
  9
$TRACEWID
 40
0.05
  9
$TEXTSTYLE
  7
STANDARD
  9
$CLAYER
  8
0
  9
$CELTYPE
  6
BYLAYER
  9
$CECOLOR
 62
   256
  9
$CELTSCALE
 40
1.0
  9
$DELOBJ
 70
     1
  9
$DISPSILH
 70
     0
  9
$DIMSCALE
 40
1.0
  9
$DIMASZ
 40
0.18
  9
$DIMEXO
 40
0.0625
  9
$DIMDLI
 40
0.38
  9
$DIMRND
 40
0.0
  9
$DIMDLE
 40
0.0
  9
$DIMEXE
 40
0.18
  9
$DIMTP
 40
0.0
  9
$DIMTM
 40
0.0
  9
$DIMTXT
 40
0.18
  9
$DIMCEN
 40
0.09
  9
$DIMTSZ
 40
0.0
  9
$DIMTOL
 70
     0
  9
$DIMLIM
 70
     0
  9
$DIMTIH
 70
     0
  9
$DIMTOH
 70
     0
  9
$DIMSE1
 70
     0
  9
$DIMSE2
 70
     0
  9
$DIMTAD
 70
     1
  9
$DIMZIN
 70
     0
  9
$DIMBLK
  1

  9
$DIMASO
 70
     1
  9
$DIMSHO
 70
     1
  9
$DIMPOST
  1

  9
$DIMAPOST
  1

  9
$DIMALT
 70
     0
  9
$DIMALTD
 70
     2
  9
$DIMALTF
 40
25.4
  9
$DIMLFAC
 40
1.0
  9
$DIMTOFL
 70
     0
  9
$DIMTVP
 40
0.0
  9
$DIMTIX
 70
     0
  9
$DIMSOXD
 70
     0
  9
$DIMSAH
 70
     0
  9
$DIMBLK1
  1

  9
$DIMBLK2
  1

  9
$DIMSTYLE
  2
STANDARD
  9
$DIMCLRD
 70
     0
  9
$DIMCLRE
 70
     0
  9
$DIMCLRT
 70
     0
  9
$DIMTFAC
 40
1.0
  9
$DIMGAP
 40
0.09
  9
$DIMJUST
 70
     0
  9
$DIMSD1
 70
     0
  9
$DIMSD2
 70
     0
  9
$DIMTOLJ
 70
     1
  9
$DIMTZIN
 70
     0
  9
$DIMALTZ
 70
     0
  9
$DIMALTTZ
 70
     0
  9
$DIMFIT
 70
     5
  9
$DIMUPT
 70
     0
  9
$DIMUNIT
 70
     2
  9
$DIMDEC
 70
     2
  9
$DIMTDEC
 70
     4
  9
$DIMALTU
 70
     2
  9
$DIMALTTD
 70
     2
  9
$DIMTXSTY
  7
STANDARD
  9
$DIMAUNIT
 70
     0
  9
$LUNITS
 70
     2
  9
$LUPREC
 70
     4
  9
$SKETCHINC
 40
0.1
  9
$FILLETRAD
 40
0.5
  9
$AUNITS
 70
     0
  9
$AUPREC
 70
     0
  9
$MENU
  1
.
  9
$ELEVATION
 40
0.0
  9
$PELEVATION
 40
0.0
  9
$THICKNESS
 40
0.0
  9
$LIMCHECK
 70
     0
  9
$BLIPMODE
 70
     0
  9
$CHAMFERA
 40
0.5
  9
$CHAMFERB
 40
0.5
  9
$CHAMFERC
 40
1.0
  9
$CHAMFERD
 40
0.0
  9
$SKPOLY
 70
     0
  9
$TDCREATE
 40
2450772.666465926
  9
$TDUPDATE
 40
2460687.931527766
  9
$TDINDWG
 40
0.0011564931
  9
$TDUSRTIMER
 40
0.0011564931
  9
$USRTIMER
 70
     1
  9
$ANGBASE
 50
0.0
  9
$ANGDIR
 70
     0
  9
$PDMODE
 70
     0
  9
$PDSIZE
 40
0.0
  9
$PLINEWID
 40
0.0
  9
$COORDS
 70
     1
  9
$SPLFRAME
 70
     0
  9
$SPLINETYPE
 70
     6
  9
$SPLINESEGS
 70
     8
  9
$ATTDIA
 70
     0
  9
$ATTREQ
 70
     1
  9
$HANDLING
 70
     1
  9
$HANDSEED
  5
316
  9
$SURFTAB1
 70
     6
  9
$SURFTAB2
 70
     6
  9
$SURFTYPE
 70
     6
  9
$SURFU
 70
     6
  9
$SURFV
 70
     6
  9
$UCSNAME
  2

  9
$UCSORG
 10
0.0
 20
0.0
 30
0.0
  9
$UCSXDIR
 10
1.0
 20
0.0
 30
0.0
  9
$UCSYDIR
 10
0.0
 20
1.0
 30
0.0
  9
$PUCSNAME
  2

  9
$PUCSORG
 10
0.0
 20
0.0
 30
0.0
  9
$PUCSXDIR
 10
1.0
 20
0.0
 30
0.0
  9
$PUCSYDIR
 10
0.0
 20
1.0
 30
0.0
  9
$USERI1
 70
     0
  9
$USERI2
 70
     0
  9
$USERI3
 70
     0
  9
$USERI4
 70
     0
  9
$USERI5
 70
     0
  9
$USERR1
 40
0.0
  9
$USERR2
 40
0.0
  9
$USERR3
 40
0.0
  9
$USERR4
 40
0.0
  9
$USERR5
 40
0.0
  9
$WORLDVIEW
 70
     1
  9
$SHADEDGE
 70
     3
  9
$SHADEDIF
 70
    70
  9
$TILEMODE
 70
     1
  9
$MAXACTVP
 70
    48
  9
$PINSBASE
 10
0.0
 20
0.0
 30
0.0
  9
$PLIMCHECK
 70
     0
  9
$PEXTMIN
 10
0.0
 20
0.0
 30
0.0
  9
$PEXTMAX
 10
0.0
 20
0.0
 30
0.0
  9
$PLIMMIN
 10
0.0
 20
0.0
  9
$PLIMMAX
 10
12.0
 20
9.0
  9
$UNITMODE
 70
     0
  9
$VISRETAIN
 70
     1
  9
$PLINEGEN
 70
     0
  9
$PSLTSCALE
 70
     1
  9
$TREEDEPTH
 70
  3020
  9
$PICKSTYLE
 70
     1
  9
$CMLSTYLE
  2
STANDARD
  9
$CMLJUST
 70
     0
  9
$CMLSCALE
 40
1.0
  9
$PROXYGRAPHICS
 70
     1
  9
$MEASUREMENT
 70
     0
  0
ENDSEC
  0
SECTION
  2
CLASSES
  0
CLASS
  1
LWPOLYLINE
  2
AcDbPolyline
  3
ObjectDBX Classes
 90
       20
280
     0
281
     1
  0
CLASS
  1
IMAGE
  2
AcDbRasterImage
  3
ISM
 90
       21
280
     0
281
     1
  0
CLASS
  1
OLE2FRAME
  2
AcDbOle2Frame
  3
ObjectDBX Classes
 90
       21
280
     0
281
     1
  0
CLASS
  1
HATCH
  2
AcDbHatch
  3
ObjectDBX Classes
 90
       20
280
     0
281
     1
  0
CLASS
  1
DICTIONARYVAR
  2
AcDbDictionaryVar
  3
ObjectDBX Classes
 90
       20
280
     0
281
     0
  0
CLASS
  1
RASTERVARIABLES
  2
AcDbRasterVariables
  3
ISM
 90
       21
280
     0
281
     0
  0
CLASS
  1
IMAGEDEF
  2
AcDbRasterImageDef
  3
ISM
 90
       21
280
     0
281
     0
  0
CLASS
  1
IMAGEDEF_REACTOR
  2
AcDbRasterImageDefReactor
  3
ISM
 90
       21
280
     0
281
     0
  0
CLASS
  1
IDBUFFER
  2
AcDbIdBuffer
  3
ObjectDBX Classes
 90
       20
280
     0
281
     0
  0
CLASS
  1
SPATIAL_FILTER
  2
AcDbSpatialFilter
  3
ObjectDBX Classes
 90
       20
280
     0
281
     0
  0
CLASS
  1
XRECORD
  2
AcDbXrecord
  3
ObjectDBX Classes
 90
       21
280
     0
281
     0
  0
CLASS
  1
ACDBDICTIONARYWDFLT
  2
AcDbDictionaryWithDefault
  3
ObjectDBX Classes
 90
       22
280
     0
281
     0
  0
CLASS
  1
SCALE
  2
AcDbScale
  3
ObjectDBX Classes
 90
       27
280
     0
281
     0
  0
CLASS
  1
VISUALSTYLE
  2
AcDbVisualStyle
  3
ObjectDBX Classes
 90
       26
280
     0
281
     0
  0
CLASS
  1
MATERIAL
  2
AcDbMaterial
  3
ObjectDBX Classes
 90
       23
280
     0
281
     0
  0
CLASS
  1
TABLESTYLE
  2
AcDbTableStyle
  3
ObjectDBX Classes
 90
       25
280
     0
281
     0
  0
CLASS
  1
MLEADERSTYLE
  2
AcDbMLeaderStyle
  3
ACDB_MLEADERSTYLE_CLASS
 90
       27
280
     0
281
     0
  0
CLASS
  1
SORTENTSTABLE
  2
AcDbSortentsTable
  3
"AutoCAD"
 90
        0
280
     0
281
     0
  0
CLASS
  1
LAYER_INDEX
  2
AcDbLayerIndex
  3
"Acad"
 90
        0
280
     0
281
     0
  0
CLASS
  1
SPATIAL_INDEX
  2
AcDbSpatialIndex
  3
"Acad"
 90
        0
280
     0
281
     0
  0
CLASS
  1
OBJECT_PTR
  2
CAseDLPNTableRecord
  3
"ASE-LPNTableRecord"
 90
        1
280
     0
281
     0
  0
CLASS
  1
LAYOUT
  2
AcDbLayout
  3
"AutoCAD 2000"
 90
        1
280
     0
281
     0
  0
CLASS
  1
PLOTSETTINGS
  2
AcDbPlotsettings
  3
"AutoCAD 2000"
 90
        1
280
     0
281
     0
  0
CLASS
  1
ACDBPLACEHOLDER
  2
AcDbPlaceholder
  3
"AutoCAD 2000"
 90
        1
280
     0
281
     0
  0
CLASS
  1
VBA_PROJECT
  2
AcDbVbaProject
  3
"AutoCAD 2000"
 90
        1
280
     0
281
     0
  0
CLASS
  1
WIPEOUT
  2
AcDbWipeout
  3
"AutoCAD 2000"
 90
        1
280
     0
281
     1
  0
CLASS
  1
WIPEOUTVARIABLES
  2
AcDbWipeoutVariables
  3
"AutoCAD 2000"
 90
        1
280
     0
281
     0
  0
CLASS
  1
RTEXT
  2
RText
  3
RText|AutoCAD Express Tool|expresstools@autodesk.com
 90
        1
280
     0
281
     1
  0
CLASS
  1
ARCALIGNEDTEXT
  2
AcDbArcAlignedText
  3
RText|AutoCAD Express Tool|expresstools@autodesk.com
 90
        1
280
     0
281
     1
  0
ENDSEC
  0
SECTION
  2
TABLES
  0
TABLE
  2
VPORT
  5
8
100
AcDbSymbolTable
 70
     1
  0
VPORT
  5
25
100
AcDbSymbolTableRecord
100
AcDbViewportTableRecord
  2
*ACTIVE
 70
     0
 10
0.0
 20
0.0
 11
1.0
 21
1.0
 12
13.754267
 22
23.8876
 13
0.0
 23
0.0
 14
0.5
 24
0.5
 15
0.5
 25
0.5
 16
0.0
 26
0.0
 36
1.0
 17
0.0
 27
0.0
 37
0.0
 40
47.7752
 41
0.575791
 42
50.0
 43
0.0
 44
0.0
 50
0.0
 51
0.0
 71
     0
 72
   100
 73
     1
 74
     1
 75
     0
 76
     0
 77
     0
 78
     0
  0
ENDTAB
  0
TABLE
  2
LTYPE
  5
5
100
AcDbSymbolTable
 70
     3
  0
LTYPE
  5
12
100
AcDbSymbolTableRecord
100
AcDbLinetypeTableRecord
  2
BYBLOCK
 70
     0
  3

 72
    65
 73
     0
 40
0.0
  0
LTYPE
  5
13
100
AcDbSymbolTableRecord
100
AcDbLinetypeTableRecord
  2
BYLAYER
 70
     0
  3

 72
    65
 73
     0
 40
0.0
  0
LTYPE
  5
14
100
AcDbSymbolTableRecord
100
AcDbLinetypeTableRecord
  2
CONTINUOUS
 70
     0
  3
Solid line
 72
    65
 73
     0
 40
0.0
  0
ENDTAB
  0
TABLE
  2
LAYER
  5
2
100
AcDbSymbolTable
 70
     5
  0
LAYER
  5
E
100
AcDbSymbolTableRecord
100
AcDbLayerTableRecord
  2
0
 70
     0
 62
     7
  6
CONTINUOUS
  0
LAYER
  5
75
100
AcDbSymbolTableRecord
100
AcDbLayerTableRecord
  2
SPACE
 70
     0
 62
     7
  6
CONTINUOUS
  0
LAYER
  5
AF
100
AcDbSymbolTableRecord
100
AcDbLayerTableRecord
  2
BUILDING_ENVELOPE
 70
     0
 62
     7
  6
CONTINUOUS
  0
LAYER
  5
1E3
100
AcDbSymbolTableRecord
100
AcDbLayerTableRecord
  2
STAIR
 70
     0
 62
     7
  6
CONTINUOUS
  0
LAYER
  5
218
100
AcDbSymbolTableRecord
100
AcDbLayerTableRecord
  2
WALL
 70
     0
 62
     7
  6
CONTINUOUS
  0
ENDTAB
  0
TABLE
  2
STYLE
  5
3
100
AcDbSymbolTable
 70
     1
  0
STYLE
  5
F
100
AcDbSymbolTableRecord
100
AcDbTextStyleTableRecord
  2
STANDARD
 70
     0
 40
0.0
 41
1.0
 50
0.0
 71
     0
 42
0.2
  3
txt.shx
  4

  0
ENDTAB
  0
TABLE
  2
VIEW
  5
6
100
AcDbSymbolTable
 70
     0
  0
ENDTAB
  0
TABLE
  2
UCS
  5
7
100
AcDbSymbolTable
 70
     0
  0
ENDTAB
  0
TABLE
  2
APPID
  5
9
100
AcDbSymbolTable
 70
     1
  0
APPID
  5
10
100
AcDbSymbolTableRecord
100
AcDbRegAppTableRecord
  2
ACAD
 70
     0
  0
ENDTAB
  0
TABLE
  2
DIMSTYLE
  5
A
100
AcDbSymbolTable
 70
     1
  0
DIMSTYLE
105
1D
100
AcDbSymbolTableRecord
100
AcDbDimStyleTableRecord
  2
STANDARD
 70
     0
  3

  4

  5

  6

  7

 40
1.0
 41
0.18
 42
0.0625
 43
0.38
 44
0.18
 45
0.0
 46
0.0
 47
0.0
 48
0.0
 71
     0
 72
     0
 73
     1
 74
     1
 75
     0
 76
     0
 77
     0
 78
     0
140
0.18
141
0.09
142
0.0
143
25.4
144
1.0
145
0.0
146
1.0
147
0.09
170
     0
171
     2
172
     0
173
     0
174
     0
175
     0
176
     0
177
     0
178
     0
270
     2
271
     4
272
     4
273
     2
274
     2
275
     0
280
     0
281
     0
282
     0
283
     1
284
     0
285
     0
286
     0
287
     3
288
     0
340
F
  0
ENDTAB
  0
TABLE
  2
BLOCK_RECORD
  5
1
100
AcDbSymbolTable
 70
    13
  0
BLOCK_RECORD
  5
18
100
AcDbSymbolTableRecord
100
AcDbBlockTableRecord
  2
*MODEL_SPACE
  0
BLOCK_RECORD
  5
15
100
AcDbSymbolTableRecord
100
AcDbBlockTableRecord
  2
*PAPER_SPACE
  0
BLOCK_RECORD
  5
1FB
100
AcDbSymbolTableRecord
100
AcDbBlockTableRecord
  2
NONE_
  0
BLOCK_RECORD
  5
1FE
100
AcDbSymbolTableRecord
100
AcDbBlockTableRecord
  2
WALL
  0
BLOCK_RECORD
  5
205
100
AcDbSymbolTableRecord
100
AcDbBlockTableRecord
  2
SPACE
  0
BLOCK_RECORD
  5
21D
100
AcDbSymbolTableRecord
100
AcDbBlockTableRecord
  2
CORNER_LANDING
  0
BLOCK_RECORD
  5
223
100
AcDbSymbolTableRecord
100
AcDbBlockTableRecord
  2
STRAIGHT_STAIRCASE
  0
BLOCK_RECORD
  5
24A
100
AcDbSymbolTableRecord
100
AcDbBlockTableRecord
  2
DOOR
  0
BLOCK_RECORD
  5
262
100
AcDbSymbolTableRecord
100
AcDbBlockTableRecord
  2
OPENING
  0
BLOCK_RECORD
  5
27E
100
AcDbSymbolTableRecord
100
AcDbBlockTableRecord
  2
CASEMENT
  0
BLOCK_RECORD
  5
2A8
100
AcDbSymbolTableRecord
100
AcDbBlockTableRecord
  2
WINDOW
  0
BLOCK_RECORD
  5
2D0
100
AcDbSymbolTableRecord
100
AcDbBlockTableRecord
  2
SCISSOR_STAIRCASE
  0
BLOCK_RECORD
  5
2FE
100
AcDbSymbolTableRecord
100
AcDbBlockTableRecord
  2
CORNER_LANDING_23
  0
BLOCK_RECORD
  5
304
100
AcDbSymbolTableRecord
100
AcDbBlockTableRecord
  2
RAMP
  0
BLOCK_RECORD
  5
312
100
AcDbSymbolTableRecord
100
AcDbBlockTableRecord
  2
DYNAMIC_CONNECTOR
  0
ENDTAB
  0
ENDSEC
  0
SECTION
  2
BLOCKS
  0
BLOCK
  5
19
100
AcDbEntity
  8
0
100
AcDbBlockBegin
  2
*MODEL_SPACE
 70
     0
 10
0.0
 20
0.0
 30
0.0
  3
*MODEL_SPACE
  1

  0
ENDBLK
  5
1A
100
AcDbEntity
  8
0
100
AcDbBlockEnd
  0
BLOCK
  5
16
100
AcDbEntity
 67
     1
  8
0
100
AcDbBlockBegin
  2
*PAPER_SPACE
 70
     0
 10
0.0
 20
0.0
 30
0.0
  3
*PAPER_SPACE
  1

  0
ENDBLK
  5
17
100
AcDbEntity
 67
     1
  8
0
100
AcDbBlockEnd
  0
BLOCK
  5
1FC
100
AcDbEntity
  8
0
100
AcDbBlockBegin
  2
NONE_
 70
     0
 10
0.0
 20
0.0
 30
0.0
  3
NONE_
  1

  0
ENDBLK
  5
1FD
100
AcDbEntity
  8
0
100
AcDbBlockEnd
  0
BLOCK
  5
1FF
100
AcDbEntity
  8
0
100
AcDbBlockBegin
  2
WALL
 70
     0
 10
0.0
 20
0.0
 30
0.0
  3
WALL
  1

  0
LWPOLYLINE
  5
200
102
{ACAD_REACTORS
330
201
102
}
100
AcDbEntity
  8
BUILDING_ENVELOPE
  6
CONTINUOUS
 62
     7
100
AcDbPolyline
 90
        6
 70
     1
 10
1.0
 20
5.333333
 10
9.0
 20
5.333333
 10
9.0
 20
5.166667
 10
9.0
 20
5.0
 10
1.0
 20
5.0
 10
1.0
 20
5.166667
  0
HATCH
  5
201
100
AcDbEntity
  8
BUILDING_ENVELOPE
 62
   253
100
AcDbHatch
 10
0.0
 20
0.0
 30
0.0
210
0.0
220
0.0
230
1.0
  2
SOLID
 70
     1
 71
     1
 91
        1
 92
        3
 72
     0
 73
     1
 93
        6
 10
1.0
 20
5.333333333333333
 10
9.0
 20
5.333333333333333
 10
9.0
 20
5.1666666666666661
 10
9.0
 20
5.0
 10
1.0
 20
5.0
 10
1.0
 20
5.1666666666666661
 97
        1
330
200
 75
     0
 76
     1
 98
        0
  0
LWPOLYLINE
  5
202
100
AcDbEntity
  8
BUILDING_ENVELOPE
  6
CONTINUOUS
 62
     7
100
AcDbPolyline
 90
        4
 70
     0
 10
1.0
 20
5.166667
 10
1.0
 20
5.333333
 10
9.0
 20
5.333333
 10
9.0
 20
5.166667
  0
LWPOLYLINE
  5
203
100
AcDbEntity
  8
BUILDING_ENVELOPE
  6
CONTINUOUS
 62
     7
100
AcDbPolyline
 90
        4
 70
     0
 10
1.0
 20
5.166667
 10
1.0
 20
5.0
 10
9.0
 20
5.0
 10
9.0
 20
5.166667
  0
ENDBLK
  5
204
100
AcDbEntity
  8
0
100
AcDbBlockEnd
  0
BLOCK
  5
206
100
AcDbEntity
  8
0
100
AcDbBlockBegin
  2
SPACE
 70
     2
 10
0.0
 20
0.0
 30
0.0
  3
SPACE
  1

  0
ATTDEF
  5
207
100
AcDbEntity
  8
0
100
AcDbText
 10
5.0
 20
5.0
 30
0.0
 40
0.2
  1

100
AcDbAttributeDefinition
  3
Name
  2
NAME
 70
     0
  0
ATTDEF
  5
208
100
AcDbEntity
  8
0
100
AcDbText
 10
5.0
 20
5.0
 30
0.0
 40
0.2
  1

100
AcDbAttributeDefinition
  3
Space ID
  2
LOCATIONID
 70
     0
  0
ATTDEF
  5
209
100
AcDbEntity
  8
0
100
AcDbText
 10
5.0
 20
5.0
 30
0.0
 40
0.2
  1

100
AcDbAttributeDefinition
  3
Department
  2
DEPARTMENT
 70
     0
  0
ATTDEF
  5
20A
100
AcDbEntity
  8
0
100
AcDbText
 10
5.0
 20
5.0
 30
0.0
 40
0.2
  1
Office
100
AcDbAttributeDefinition
  3
Space use
  2
USE
 70
     0
  0
ATTDEF
  5
20B
100
AcDbEntity
  8
0
100
AcDbText
 10
5.0
 20
5.0
 30
0.0
 40
0.2
  1

100
AcDbAttributeDefinition
  3
Phone number
  2
PHONENUMBER
 70
     0
  0
ATTDEF
  5
20C
100
AcDbEntity
  8
0
100
AcDbText
 10
5.0
 20
5.0
 30
0.0
 40
0.2
  1
0
100
AcDbAttributeDefinition
  3
Occupancy
  2
OCCUPANTCOUNT
 70
     0
  0
ATTDEF
  5
20D
100
AcDbEntity
  8
0
100
AcDbText
 10
5.0
 20
5.0
 30
0.0
 40
0.2
  1
0
100
AcDbAttributeDefinition
  3
Capacity
  2
OCCUPANTCAPACITY
 70
     0
  0
ATTDEF
  5
20E
100
AcDbEntity
  8
0
100
AcDbText
 10
5.0
 20
5.0
 30
0.0
 40
0.2
  1

100
AcDbAttributeDefinition
  3
ID
  2
ID
 70
     0
  0
ATTDEF
  5
20F
100
AcDbEntity
  8
0
100
AcDbText
 10
5.0
 20
5.0
 30
0.0
 40
0.2
  1

100
AcDbAttributeDefinition
  3
Belongs to
  2
BELONGSTO
 70
     0
  0
ATTDEF
  5
210
100
AcDbEntity
  8
0
100
AcDbText
 10
5.0
 20
5.0
 30
0.0
 40
0.2
  1

100
AcDbAttributeDefinition
  3
Modified
  2
MODIFY
 70
     0
  0
ATTDEF
  5
211
100
AcDbEntity
  8
0
100
AcDbText
 10
5.0
 20
5.0
 30
0.0
 40
0.2
  1
Location
100
AcDbAttributeDefinition
  3
Shape class
  2
SHAPECLASS
 70
     0
  0
ATTDEF
  5
212
100
AcDbEntity
  8
0
100
AcDbText
 10
5.0
 20
5.0
 30
0.0
 40
0.2
  1
Space
100
AcDbAttributeDefinition
  3
Shape type
  2
SHAPETYPE
 70
     0
  0
ATTDEF
  5
213
100
AcDbEntity
  8
0
100
AcDbText
 10
5.0
 20
5.0
 30
0.0
 40
0.2
  1

100
AcDbAttributeDefinition
  3
Subshape type
  2
SUBSHAPETYPE
 70
     0
  0
ATTDEF
  5
214
100
AcDbEntity
  8
0
100
AcDbText
 10
5.0
 20
5.0
 30
0.0
 40
0.2
  1
0
100
AcDbAttributeDefinition
  3
Space height
  2
SPACEHEIGHT
 70
     0
  0
ATTDEF
  5
215
100
AcDbEntity
  8
0
100
AcDbText
 10
5.0
 20
5.0
 30
0.0
 40
0.2
  1
0
100
AcDbAttributeDefinition
  3
Zones
  2
ZONES
 70
     0
  0
ATTDEF
  5
216
100
AcDbEntity
  8
0
100
AcDbText
 10
5.0
 20
5.0
 30
0.0
 40
0.2
  1
100FT^ 2
100
AcDbAttributeDefinition
  3
Calculated area
  2
VISAREA
 70
     0
  0
ATTDEF
  5
217
100
AcDbEntity
  8
0
100
AcDbText
 10
5.0
 20
5.0
 30
0.0
 40
0.2
  1
0
100
AcDbAttributeDefinition
  3
Base elevation
  2
BASEELEVATION
 70
     0
  0
LWPOLYLINE
  5
219
102
{ACAD_REACTORS
330
21A
102
}
100
AcDbEntity
  8
WALL
  6
CONTINUOUS
100
AcDbPolyline
 90
        4
 70
     1
 10
0.0
 20
0.0
 10
10.0
 20
0.0
 10
10.0
 20
10.0
 10
0.0
 20
10.0
  0
HATCH
  5
21A
100
AcDbEntity
  8
WALL
 62
    94
100
AcDbHatch
 10
0.0
 20
0.0
 30
0.0
210
0.0
220
0.0
230
1.0
  2
ANSI31
 70
     0
 71
     1
 91
        1
 92
        2
 72
     0
 73
     1
 93
        4
 10
0.0
 20
0.0
 10
10.0
 20
0.0
 10
10.0
 20
10.0
 10
0.0
 20
10.0
 97
        1
330
219
 75
     0
 76
     1
 52
0.0
 41
0.083333
 77
     0
 78
     1
 53
45.0
 43
0.0
 44
0.0
 45
-0.0073333333333333
 46
0.0073333333333333
 79
     0
 98
        0
  0
MTEXT
  5
21B
100
AcDbEntity
  8
WALL
100
AcDbMText
 10
5.0
 20
4.948732
 30
0.0
 40
0.500004
 41
4.420539
 71
     5
 72
     5
  1
\C7;\fCalibri|b0|i0|;\H0.50000381469727;Office\P\P\P
  0
ENDBLK
  5
21C
100
AcDbEntity
  8
0
100
AcDbBlockEnd
  0
BLOCK
  5
21E
100
AcDbEntity
  8
0
100
AcDbBlockBegin
  2
CORNER_LANDING
 70
     0
 10
0.0
 20
0.0
 30
0.0
  3
CORNER_LANDING
  1

  0
LWPOLYLINE
  5
21F
100
AcDbEntity
  8
WALL
  6
CONTINUOUS
 62
     7
100
AcDbPolyline
 90
        4
 70
     1
 10
-1.332899
 20
-1.321759
 10
1.660475
 20
-1.321759
 10
1.660475
 20
1.671615
 10
-1.332899
 20
1.671615
  0
LINE
  5
220
100
AcDbEntity
  8
WALL
  6
CONTINUOUS
 62
     9
100
AcDbLine
 10
-1.332899
 20
-1.321759
 30
0.0
 11
0.156724
 21
1.671615
 31
0.0
  0
LINE
  5
221
100
AcDbEntity
  8
WALL
  6
CONTINUOUS
 62
     9
100
AcDbLine
 10
-1.332899
 20
-1.321759
 30
0.0
 11
1.660475
 21
0.169061
 31
0.0
  0
ENDBLK
  5
222
100
AcDbEntity
  8
0
100
AcDbBlockEnd
  0
BLOCK
  5
224
100
AcDbEntity
  8
0
100
AcDbBlockBegin
  2
STRAIGHT_STAIRCASE
 70
     0
 10
0.0
 20
0.0
 30
0.0
  3
STRAIGHT_STAIRCASE
  1

  0
LWPOLYLINE
  5
225
100
AcDbEntity
  8
BUILDING_ENVELOPE
  6
CONTINUOUS
 62
     9
100
AcDbPolyline
 90
        4
 70
     1
 10
-3.501199
 20
1.758333
 10
-2.630829
 20
1.758333
 10
-2.630829
 20
-1.241667
 10
-3.501199
 20
-1.241667
  0
LWPOLYLINE
  5
226
100
AcDbEntity
  8
BUILDING_ENVELOPE
  6
CONTINUOUS
 62
     9
100
AcDbPolyline
 90
        4
 70
     1
 10
-2.630829
 20
1.758333
 10
-1.760459
 20
1.758333
 10
-1.760459
 20
-1.241667
 10
-2.630829
 20
-1.241667
  0
LWPOLYLINE
  5
227
100
AcDbEntity
  8
BUILDING_ENVELOPE
  6
CONTINUOUS
 62
     9
100
AcDbPolyline
 90
        4
 70
     1
 10
-1.760459
 20
1.758333
 10
-0.890088
 20
1.758333
 10
-0.890088
 20
-1.241667
 10
-1.760459
 20
-1.241667
  0
LWPOLYLINE
  5
228
100
AcDbEntity
  8
BUILDING_ENVELOPE
  6
CONTINUOUS
 62
     9
100
AcDbPolyline
 90
        4
 70
     1
 10
-0.890088
 20
1.758333
 10
-0.019718
 20
1.758333
 10
-0.019718
 20
-1.241667
 10
-0.890088
 20
-1.241667
  0
LWPOLYLINE
  5
229
100
AcDbEntity
  8
BUILDING_ENVELOPE
  6
CONTINUOUS
 62
     9
100
AcDbPolyline
 90
        4
 70
     1
 10
-0.019718
 20
1.758333
 10
0.850653
 20
1.758333
 10
0.850653
 20
-1.241667
 10
-0.019718
 20
-1.241667
  0
LWPOLYLINE
  5
22A
100
AcDbEntity
  8
BUILDING_ENVELOPE
  6
CONTINUOUS
 62
     9
100
AcDbPolyline
 90
        4
 70
     1
 10
0.850653
 20
1.758333
 10
1.721023
 20
1.758333
 10
1.721023
 20
-1.241667
 10
0.850653
 20
-1.241667
  0
LWPOLYLINE
  5
22B
100
AcDbEntity
  8
BUILDING_ENVELOPE
  6
CONTINUOUS
 62
     9
100
AcDbPolyline
 90
        4
 70
     1
 10
1.721023
 20
1.758333
 10
2.591393
 20
1.758333
 10
2.591393
 20
-1.241667
 10
1.721023
 20
-1.241667
  0
LWPOLYLINE
  5
22C
100
AcDbEntity
  8
BUILDING_ENVELOPE
  6
CONTINUOUS
 62
     9
100
AcDbPolyline
 90
        4
 70
     1
 10
2.591393
 20
1.758333
 10
3.461764
 20
1.758333
 10
3.461764
 20
-1.241667
 10
2.591393
 20
-1.241667
  0
LWPOLYLINE
  5
22D
100
AcDbEntity
  8
BUILDING_ENVELOPE
  6
CONTINUOUS
 62
     9
100
AcDbPolyline
 90
        4
 70
     1
 10
3.461764
 20
1.758333
 10
4.332134
 20
1.758333
 10
4.332134
 20
-1.241667
 10
3.461764
 20
-1.241667
  0
MTEXT
  5
22E
100
AcDbEntity
  8
BUILDING_ENVELOPE
100
AcDbMText
 10
-3.877833
 20
0.258333
 30
0.0
 40
0.333332
 41
0.753267
 71
     5
 72
     5
  1
\C7;\fCalibri|b0|i0|;\H0.33333206176758;UP
  0
CIRCLE
  5
22F
102
{ACAD_REACTORS
330
230
102
}
100
AcDbEntity
  8
WALL
  6
CONTINUOUS
 62
     7
100
AcDbCircle
 10
-3.501199
 20
0.258333
 30
0.0
 40
0.086804
  0
HATCH
  5
230
100
AcDbEntity
  8
WALL
 62
     7
100
AcDbHatch
 10
0.0
 20
0.0
 30
0.0
210
0.0
220
0.0
230
1.0
  2
SOLID
 70
     1
 71
     1
 91
        1
 92
        1
 93
        1
 72
     2
 10
-3.5011993055309873
 20
0.2583333333333307
 40
0.0868041666666667
 50
0.0
 51
360.0
 73
     1
 97
        1
330
22F
 75
     0
 76
     1
 98
        0
  0
LINE
  5
231
100
AcDbEntity
  8
WALL
  6
CONTINUOUS
 62
     7
100
AcDbLine
 10
-3.501199
 20
0.258333
 30
0.0
 11
-1.192999
 21
0.258333
 31
0.0
  0
LWPOLYLINE
  5
232
102
{ACAD_REACTORS
330
233
102
}
100
AcDbEntity
  8
WALL
  6
CONTINUOUS
 62
     7
100
AcDbPolyline
 90
        3
 70
     1
 10
-1.405912
 20
0.130858
 10
-1.405912
 20
0.385808
 10
-0.980087
 20
0.255599
  0
HATCH
  5
233
100
AcDbEntity
  8
WALL
 62
     7
100
AcDbHatch
 10
0.0
 20
0.0
 30
0.0
210
0.0
220
0.0
230
1.0
  2
SOLID
 70
     1
 71
     1
 91
        1
 92
        3
 72
     0
 73
     1
 93
        3
 10
-1.4059118055309874
 20
0.1308583333333307
 10
-1.4059118055309874
 20
0.3858083333333307
 10
-0.9800868055309874
 20
0.2555989359891018
 97
        1
330
232
 75
     0
 76
     1
 98
        0
  0
LINE
  5
234
102
{ACAD_REACTORS
330
239
102
}
100
AcDbEntity
  8
BUILDING_ENVELOPE
  6
CONTINUOUS
 62
     7
100
AcDbLine
 10
0.415467
 20
-1.058333
 30
0.0
 11
4.526181
 21
-1.058333
 31
0.0
  0
ARC
  5
235
102
{ACAD_REACTORS
330
239
102
}
100
AcDbEntity
  8
BUILDING_ENVELOPE
  6
CONTINUOUS
 62
     7
100
AcDbCircle
 10
4.29196
 20
-1.404611
 30
0.0
 40
0.418052
100
AcDbArc
 50
357.204441
 51
55.925661
  0
LINE
  5
236
102
{ACAD_REACTORS
330
239
102
}
100
AcDbEntity
  8
BUILDING_ENVELOPE
  6
CONTINUOUS
 62
     7
100
AcDbLine
 10
4.709514
 20
-1.425
 30
0.0
 11
4.892848
 21
-1.425
 31
0.0
  0
ARC
  5
237
102
{ACAD_REACTORS
330
239
102
}
100
AcDbEntity
  8
BUILDING_ENVELOPE
  6
CONTINUOUS
 62
     7
100
AcDbCircle
 10
4.331043
 20
-1.402314
 30
0.0
 40
0.562262
100
AcDbArc
 50
357.687613
 51
69.692522
  0
LINE
  5
238
102
{ACAD_REACTORS
330
239
102
}
100
AcDbEntity
  8
BUILDING_ENVELOPE
  6
CONTINUOUS
 62
     7
100
AcDbLine
 10
4.526181
 20
-0.875
 30
0.0
 11
0.415467
 21
-0.875
 31
0.0
  0
HATCH
  5
239
100
AcDbEntity
  8
BUILDING_ENVELOPE
 62
   254
100
AcDbHatch
 10
0.0
 20
0.0
 30
0.0
210
0.0
220
0.0
230
1.0
  2
SOLID
 70
     1
 71
     1
 91
        4
 92
        1
 93
        6
 72
     1
 10
0.4154673611356792
 20
-1.0583333333333358
 11
4.5261810369690121
 21
-1.0583333333333358
 72
     2
 10
4.2919598054193502
 20
-1.4046106157748337
 40
0.4180520800614547
 50
357.204441
 51
55.925661
 73
     1
 72
     1
 10
4.7095143703023448
 20
-1.4250000000000025
 11
4.8928477036356783
 21
-1.4250000000000025
 72
     2
 10
4.3310434353510541
 20
-1.4023139566341953
 40
0.5622621207465568
 50
357.687613
 51
69.692522
 73
     1
 72
     1
 10
4.5261810369690121
 20
-0.8750000000000029
 11
0.4154673611356792
 21
-0.8750000000000024
 72
     1
 10
0.4154673611356792
 20
-0.8750000000000024
 11
0.4154673611356792
 21
-1.0583333333333358
 97
        5
330
234
330
235
330
236
330
237
330
238
 92
        1
 93
        6
 72
     1
 10
0.4154673611356792
 20
1.5749999999999971
 11
4.5261810369690121
 21
1.5749999999999971
 72
     2
 10
4.5261840383023308
 20
1.7583303320000119
 40
0.1833303320245822
 50
269.999062
 51
0.000938
 73
     1
 72
     1
 10
4.7095143703023457
 20
1.7583333333333306
 11
4.8928477036356783
 21
1.7583333333333306
 72
     2
 10
4.5261870396356496
 20
1.7583273306666913
 40
0.3666606640491629
 50
269.999062
 51
0.000938
 73
     1
 72
     1
 10
4.5261810369690121
 20
1.3916666666666639
 11
0.4154673611356792
 21
1.3916666666666642
 72
     1
 10
0.4154673611356792
 20
1.3916666666666642
 11
0.4154673611356792
 21
1.5749999999999971
 97
        5
330
23A
330
23B
330
23C
330
23D
330
23E
 92
        1
 93
        6
 72
     1
 10
-4.6678659721976539
 20
-1.2416666666666691
 11
-4.4845326388643203
 21
-1.2416666666666691
 72
     2
 10
-4.3012023068643064
 20
-1.2416636653333502
 40
0.1833303320245819
 50
89.999062
 51
180.000938
 73
     1
 72
     1
 10
-4.3011993055309841
 20
-1.0583333333333358
 11
0.4154673611356792
 21
-1.0583333333333358
 72
     1
 10
0.4154673611356792
 20
-1.0583333333333358
 11
0.4154673611356792
 21
-0.8750000000000024
 72
     1
 10
0.4154673611356792
 20
-0.8750000000000024
 11
-4.3011993055309876
 21
-0.8750000000000024
 72
     2
 10
-4.3012053081976251
 20
-1.2416606640000305
 40
0.3666606640491635
 50
89.999062
 51
180.000938
 73
     1
 97
        5
330
23F
330
240
330
241
330
242
330
243
 92
        1
 93
        6
 72
     1
 10
-4.7511993055309869
 20
1.7583333333333306
 11
-4.5678659721976533
 21
1.7583333333333306
 72
     2
 10
-4.3845356401976394
 20
1.7583303320000114
 40
0.183330332024582
 50
179.999062
 51
270.000938
 73
     1
 72
     1
 10
-4.384532638864318
 20
1.5749999999999971
 11
0.4154673611356792
 21
1.5749999999999971
 72
     1
 10
0.4154673611356792
 20
1.5749999999999971
 11
0.4154673611356792
 21
1.3916666666666642
 72
     1
 10
0.4154673611356792
 20
1.3916666666666642
 11
-4.3845326388643207
 21
1.3916666666666642
 72
     2
 10
-4.3845386415309591
 20
1.758327330666692
 40
0.3666606640491635
 50
179.999062
 51
270.000938
 73
     1
 97
        5
330
244
330
245
330
246
330
247
330
248
 75
     0
 76
     1
 98
        0
  0
LINE
  5
23A
102
{ACAD_REACTORS
330
239
102
}
100
AcDbEntity
  8
BUILDING_ENVELOPE
  6
CONTINUOUS
 62
     7
100
AcDbLine
 10
0.415467
 20
1.575
 30
0.0
 11
4.526181
 21
1.575
 31
0.0
  0
ARC
  5
23B
102
{ACAD_REACTORS
330
239
102
}
100
AcDbEntity
  8
BUILDING_ENVELOPE
  6
CONTINUOUS
 62
     7
100
AcDbCircle
 10
4.526184
 20
1.75833
 30
0.0
 40
0.18333
100
AcDbArc
 50
269.999062
 51
0.0
  0
LINE
  5
23C
102
{ACAD_REACTORS
330
239
102
}
100
AcDbEntity
  8
BUILDING_ENVELOPE
  6
CONTINUOUS
 62
     7
100
AcDbLine
 10
4.709514
 20
1.758333
 30
0.0
 11
4.892848
 21
1.758333
 31
0.0
  0
ARC
  5
23D
102
{ACAD_REACTORS
330
239
102
}
100
AcDbEntity
  8
BUILDING_ENVELOPE
  6
CONTINUOUS
 62
     7
100
AcDbCircle
 10
4.526187
 20
1.758327
 30
0.0
 40
0.366661
100
AcDbArc
 50
269.999062
 51
0.0
  0
LINE
  5
23E
102
{ACAD_REACTORS
330
239
102
}
100
AcDbEntity
  8
BUILDING_ENVELOPE
  6
CONTINUOUS
 62
     7
100
AcDbLine
 10
4.526181
 20
1.391667
 30
0.0
 11
0.415467
 21
1.391667
 31
0.0
  0
LINE
  5
23F
102
{ACAD_REACTORS
330
239
102
}
100
AcDbEntity
  8
BUILDING_ENVELOPE
  6
CONTINUOUS
 62
     7
100
AcDbLine
 10
-4.667866
 20
-1.241667
 30
0.0
 11
-4.484533
 21
-1.241667
 31
0.0
  0
ARC
  5
240
102
{ACAD_REACTORS
330
239
102
}
100
AcDbEntity
  8
BUILDING_ENVELOPE
  6
CONTINUOUS
 62
     7
100
AcDbCircle
 10
-4.301202
 20
-1.241664
 30
0.0
 40
0.18333
100
AcDbArc
 50
89.999062
 51
180.000938
  0
LINE
  5
241
102
{ACAD_REACTORS
330
239
102
}
100
AcDbEntity
  8
BUILDING_ENVELOPE
  6
CONTINUOUS
 62
     7
100
AcDbLine
 10
-4.301199
 20
-1.058333
 30
0.0
 11
0.415467
 21
-1.058333
 31
0.0
  0
LINE
  5
242
102
{ACAD_REACTORS
330
239
102
}
100
AcDbEntity
  8
BUILDING_ENVELOPE
  6
CONTINUOUS
 62
     7
100
AcDbLine
 10
0.415467
 20
-0.875
 30
0.0
 11
-4.301199
 21
-0.875
 31
0.0
  0
ARC
  5
243
102
{ACAD_REACTORS
330
239
102
}
100
AcDbEntity
  8
BUILDING_ENVELOPE
  6
CONTINUOUS
 62
     7
100
AcDbCircle
 10
-4.301205
 20
-1.241661
 30
0.0
 40
0.366661
100
AcDbArc
 50
89.999062
 51
180.000938
  0
LINE
  5
244
102
{ACAD_REACTORS
330
239
102
}
100
AcDbEntity
  8
BUILDING_ENVELOPE
  6
CONTINUOUS
 62
     7
100
AcDbLine
 10
-4.751199
 20
1.758333
 30
0.0
 11
-4.567866
 21
1.758333
 31
0.0
  0
ARC
  5
245
102
{ACAD_REACTORS
330
239
102
}
100
AcDbEntity
  8
BUILDING_ENVELOPE
  6
CONTINUOUS
 62
     7
100
AcDbCircle
 10
-4.384536
 20
1.75833
 30
0.0
 40
0.18333
100
AcDbArc
 50
179.999062
 51
270.000938
  0
LINE
  5
246
102
{ACAD_REACTORS
330
239
102
}
100
AcDbEntity
  8
BUILDING_ENVELOPE
  6
CONTINUOUS
 62
     7
100
AcDbLine
 10
-4.384533
 20
1.575
 30
0.0
 11
0.415467
 21
1.575
 31
0.0
  0
LINE
  5
247
102
{ACAD_REACTORS
330
239
102
}
100
AcDbEntity
  8
BUILDING_ENVELOPE
  6
CONTINUOUS
 62
     7
100
AcDbLine
 10
0.415467
 20
1.391667
 30
0.0
 11
-4.384533
 21
1.391667
 31
0.0
  0
ARC
  5
248
102
{ACAD_REACTORS
330
239
102
}
100
AcDbEntity
  8
BUILDING_ENVELOPE
  6
CONTINUOUS
 62
     7
100
AcDbCircle
 10
-4.384539
 20
1.758327
 30
0.0
 40
0.366661
100
AcDbArc
 50
179.999062
 51
270.000938
  0
ENDBLK
  5
249
100
AcDbEntity
  8
0
100
AcDbBlockEnd
  0
BLOCK
  5
24B
100
AcDbEntity
  8
0
100
AcDbBlockBegin
  2
DOOR
 70
     0
 10
0.0
 20
0.0
 30
0.0
  3
DOOR
  1

  0
LWPOLYLINE
  5
24C
102
{ACAD_REACTORS
330
2F4
102
}
100
AcDbEntity
  8
BUILDING_ENVELOPE
  6
CONTINUOUS
 62
     7
100
AcDbPolyline
 90
        4
 70
     1
 10
3.583333
 20
4.734
 10
6.416667
 20
4.734
 10
6.416667
 20
5.266
 10
3.583333
 20
5.266
  0
LINE
  5
24D
102
{ACAD_REACTORS
330
2F4
102
}
100
AcDbEntity
  8
BUILDING_ENVELOPE
  6
CONTINUOUS
 62
     7
100
AcDbLine
 10
6.416667
 20
4.75
 30
0.0
 11
6.416667
 21
5.25
 31
0.0
  0
LINE
  5
24E
102
{ACAD_REACTORS
330
2F4
102
}
100
AcDbEntity
  8
BUILDING_ENVELOPE
  6
CONTINUOUS
 62
     7
100
AcDbLine
 10
6.416667
 20
5.25
 30
0.0
 11
6.25
 21
5.25
 31
0.0
  0
LINE
  5
24F
102
{ACAD_REACTORS
330
2F4
102
}
100
AcDbEntity
  8
BUILDING_ENVELOPE
  6
CONTINUOUS
 62
     7
100
AcDbLine
 10
6.25
 20
5.25
 30
0.0
 11
6.25
 21
5.083333
 31
0.0
  0
LINE
  5
250
102
{ACAD_REACTORS
330
2F4
102
}
100
AcDbEntity
  8
BUILDING_ENVELOPE
  6
CONTINUOUS
 62
     7
100
AcDbLine
 10
6.25
 20
4.958333
 30
0.0
 11
6.25
 21
4.75
 31
0.0
  0
LINE
  5
251
102
{ACAD_REACTORS
330
2F4
102
}
100
AcDbEntity
  8
BUILDING_ENVELOPE
  6
CONTINUOUS
 62
     7
100
AcDbLine
 10
6.25
 20
4.75
 30
0.0
 11
6.416667
 21
4.75
 31
0.0
  0
LINE
  5
252
102
{ACAD_REACTORS
330
2F4
102
}
100
AcDbEntity
  8
BUILDING_ENVELOPE
  6
CONTINUOUS
 62
     7
100
AcDbLine
 10
3.583333
 20
4.75
 30
0.0
 11
3.583333
 21
5.25
 31
0.0
  0
LINE
  5
253
102
{ACAD_REACTORS
330
2F4
102
}
100
AcDbEntity
  8
BUILDING_ENVELOPE
  6
CONTINUOUS
 62
     7
100
AcDbLine
 10
3.583333
 20
5.25
 30
0.0
 11
3.75
 21
5.25
 31
0.0
  0
LINE
  5
254
102
{ACAD_REACTORS
330
2F4
102
}
100
AcDbEntity
  8
BUILDING_ENVELOPE
  6
CONTINUOUS
 62
     7
100
AcDbLine
 10
3.75
 20
5.25
 30
0.0
 11
3.75
 21
5.083333
 31
0.0
  0
LINE
  5
255
102
{ACAD_REACTORS
330
2F4
102
}
100
AcDbEntity
  8
BUILDING_ENVELOPE
  6
CONTINUOUS
 62
     7
100
AcDbLine
 10
3.75
 20
4.958333
 30
0.0
 11
3.75
 21
4.75
 31
0.0
  0
LINE
  5
256
102
{ACAD_REACTORS
330
2F4
102
}
100
AcDbEntity
  8
BUILDING_ENVELOPE
  6
CONTINUOUS
 62
     7
100
AcDbLine
 10
3.75
 20
4.75
 30
0.0
 11
3.583333
 21
4.75
 31
0.0
  0
LINE
  5
257
102
{ACAD_REACTORS
330
2F4
102
}
100
AcDbEntity
  8
BUILDING_ENVELOPE
  6
CONTINUOUS
 62
     7
100
AcDbLine
 10
6.25
 20
5.083333
 30
0.0
 11
6.208333
 21
5.083333
 31
0.0
  0
LINE
  5
258
102
{ACAD_REACTORS
330
2F4
102
}
100
AcDbEntity
  8
BUILDING_ENVELOPE
  6
CONTINUOUS
 62
     7
100
AcDbLine
 10
6.208333
 20
5.083333
 30
0.0
 11
6.208333
 21
4.958333
 31
0.0
  0
LINE
  5
259
102
{ACAD_REACTORS
330
2F4
102
}
100
AcDbEntity
  8
BUILDING_ENVELOPE
  6
CONTINUOUS
 62
     7
100
AcDbLine
 10
6.208333
 20
4.958333
 30
0.0
 11
6.25
 21
4.958333
 31
0.0
  0
LINE
  5
25A
102
{ACAD_REACTORS
330
2F4
102
}
100
AcDbEntity
  8
BUILDING_ENVELOPE
  6
CONTINUOUS
 62
     7
100
AcDbLine
 10
3.75
 20
5.083333
 30
0.0
 11
3.791667
 21
5.083333
 31
0.0
  0
LINE
  5
25B
102
{ACAD_REACTORS
330
2F4
102
}
100
AcDbEntity
  8
BUILDING_ENVELOPE
  6
CONTINUOUS
 62
     7
100
AcDbLine
 10
3.791667
 20
5.083333
 30
0.0
 11
3.791667
 21
4.958333
 31
0.0
  0
LINE
  5
25C
102
{ACAD_REACTORS
330
2F4
102
}
100
AcDbEntity
  8
BUILDING_ENVELOPE
  6
CONTINUOUS
 62
     7
100
AcDbLine
 10
3.791667
 20
4.958333
 30
0.0
 11
3.75
 21
4.958333
 31
0.0
  0
LINE
  5
25D
100
AcDbEntity
  8
BUILDING_ENVELOPE
  6
CONTINUOUS
 62
     7
100
AcDbLine
 10
6.416667
 20
4.75
 30
0.0
 11
6.416667
 21
5.25
 31
0.0
  0
LINE
  5
25E
100
AcDbEntity
  8
BUILDING_ENVELOPE
  6
CONTINUOUS
 62
     7
100
AcDbLine
 10
3.583333
 20
4.75
 30
0.0
 11
3.583333
 21
5.25
 31
0.0
  0
ARC
  5
25F
100
AcDbEntity
  8
BUILDING_ENVELOPE
  6
CONTINUOUS
 62
     7
100
AcDbCircle
 10
6.25
 20
5.25
 30
0.0
 40
2.5
100
AcDbArc
 50
90.0
 51
180.0
  0
LWPOLYLINE
  5
260
102
{ACAD_REACTORS
330
2F4
102
}
100
AcDbEntity
  8
BUILDING_ENVELOPE
  6
CONTINUOUS
 62
     7
100
AcDbPolyline
 90
        4
 70
     1
 10
6.083333
 20
7.75
 10
6.083333
 20
5.25
 10
6.25
 20
5.25
 10
6.25
 20
7.75
  0
ENDBLK
  5
261
100
AcDbEntity
  8
0
100
AcDbBlockEnd
  0
BLOCK
  5
263
100
AcDbEntity
  8
0
100
AcDbBlockBegin
  2
OPENING
 70
     2
 10
0.0
 20
0.0
 30
0.0
  3
OPENING
  1

  0
ATTDEF
  5
264
100
AcDbEntity
  8
0
100
AcDbText
 10
5.0
 20
5.0
 30
0.0
 40
0.2
  1
80
100
AcDbAttributeDefinition
  3
Opening height
  2
VISDOORHEIGHT
 70
     0
  0
ATTDEF
  5
265
100
AcDbEntity
  8
0
100
AcDbText
 10
5.0
 20
5.0
 30
0.0
 40
0.2
  1
0
100
AcDbAttributeDefinition
  3
Reference Line Offset
  2
REFLN
 70
     0
  0
ATTDEF
  5
266
100
AcDbEntity
  8
0
100
AcDbText
 10
5.0
 20
5.0
 30
0.0
 40
0.2
  1
30
100
AcDbAttributeDefinition
  3
Opening width
  2
SUBTYPE
 70
     0
  0
ATTDEF
  5
267
100
AcDbEntity
  8
0
100
AcDbText
 10
5.0
 20
5.0
 30
0.0
 40
0.2
  1
2
100
AcDbAttributeDefinition
  3
Door frame width
  2
SUBVISDOORFRAMEWIDTH
 70
     0
  0
ATTDEF
  5
268
100
AcDbEntity
  8
0
100
AcDbText
 10
5.0
 20
5.0
 30
0.0
 40
0.2
  1
4
100
AcDbAttributeDefinition
  3
Door frame depth
  2
SUBVISDOORFRAMEDEPTH
 70
     0
  0
ATTDEF
  5
269
100
AcDbEntity
  8
0
100
AcDbText
 10
5.0
 20
5.0
 30
0.0
 40
0.2
  1
0.5
100
AcDbAttributeDefinition
  3
Door stop width
  2
SUBVISDOORSTOPWIDTH
 70
     0
  0
ATTDEF
  5
26A
100
AcDbEntity
  8
0
100
AcDbText
 10
5.0
 20
5.0
 30
0.0
 40
0.2
  1
1.5
100
AcDbAttributeDefinition
  3
Door stop depth
  2
SUBVISDOORSTOPDEPTH
 70
     0
  0
ATTDEF
  5
26B
100
AcDbEntity
  8
0
100
AcDbText
 10
5.0
 20
5.0
 30
0.0
 40
0.2
  1
2
100
AcDbAttributeDefinition
  3
Door threshold depth inside
  2
SUBVISDOORTHRESDEPTHIN
 70
     0
  0
ATTDEF
  5
26C
100
AcDbEntity
  8
0
100
AcDbText
 10
5.0
 20
5.0
 30
0.0
 40
0.2
  1
2
100
AcDbAttributeDefinition
  3
Door threshold width inside
  2
SUBVISDOORTHRESWIDTHIN
 70
     0
  0
ATTDEF
  5
26D
100
AcDbEntity
  8
0
100
AcDbText
 10
5.0
 20
5.0
 30
0.0
 40
0.2
  1
2
100
AcDbAttributeDefinition
  3
Door threshold depth outside
  2
SUBVISDOORTHRESDEPTHOUT
 70
     0
  0
ATTDEF
  5
26E
100
AcDbEntity
  8
0
100
AcDbText
 10
5.0
 20
5.0
 30
0.0
 40
0.2
  1
2
100
AcDbAttributeDefinition
  3
Door threshold width outside
  2
SUBVISDOORTHRESWIDTHOUT
 70
     0
  0
ATTDEF
  5
26F
100
AcDbEntity
  8
0
100
AcDbText
 10
5.0
 20
5.0
 30
0.0
 40
0.2
  1
2
100
AcDbAttributeDefinition
  3
Door panel thickness
  2
SUBVISDOORPANELTHICKNESS
 70
     0
  0
ATTDEF
  5
270
100
AcDbEntity
  8
0
100
AcDbText
 10
5.0
 20
5.0
 30
0.0
 40
0.2
  1
15
100
AcDbAttributeDefinition
  3
Door leaf width
  2
VISDOORLEAF
 70
     0
  0
ATTDEF
  5
271
100
AcDbEntity
  8
0
100
AcDbText
 10
5.0
 20
5.0
 30
0.0
 40
0.2
  1
12
100
AcDbAttributeDefinition
  3
Door spring height
  2
VISDOORSPRING
 70
     0
  0
ATTDEF
  5
272
100
AcDbEntity
  8
0
100
AcDbText
 10
5.0
 20
5.0
 30
0.0
 40
0.2
  1
6
100
AcDbAttributeDefinition
  3
Door along wall offset
  2
VISDOORALONGWALLOFFSET
 70
     0
  0
ATTDEF
  5
273
100
AcDbEntity
  8
0
100
AcDbText
 10
5.0
 20
5.0
 30
0.0
 40
0.2
  1
Building Component
100
AcDbAttributeDefinition
  3
Shape class
  2
SHAPECLASS
 70
     0
  0
ATTDEF
  5
274
100
AcDbEntity
  8
0
100
AcDbText
 10
5.0
 20
5.0
 30
0.0
 40
0.2
  1
Opening Element
100
AcDbAttributeDefinition
  3
Shape type
  2
SHAPETYPE
 70
     0
  0
ATTDEF
  5
275
100
AcDbEntity
  8
0
100
AcDbText
 10
5.0
 20
5.0
 30
0.0
 40
0.2
  1

100
AcDbAttributeDefinition
  3
Subshape type
  2
SUBSHAPETYPE
 70
     0
  0
ATTDEF
  5
276
100
AcDbEntity
  8
0
100
AcDbText
 10
5.0
 20
5.0
 30
0.0
 40
0.2
  1
0
100
AcDbAttributeDefinition
  3
Opening number
  2
OPENNUMBER
 70
     0
  0
ATTDEF
  5
277
100
AcDbEntity
  8
0
100
AcDbText
 10
5.0
 20
5.0
 30
0.0
 40
0.2
  1
80
100
AcDbAttributeDefinition
  3
Header height
  2
OPENINGHEADERHEIGHT
 70
     0
  0
LWPOLYLINE
  5
278
102
{ACAD_REACTORS
330
2F4
102
}
100
AcDbEntity
  8
WALL
  6
CONTINUOUS
 62
     7
100
AcDbPolyline
 90
        4
 70
     1
 10
3.583333
 20
4.734
 10
6.416667
 20
4.734
 10
6.416667
 20
5.266
 10
3.583333
 20
5.266
  0
LWPOLYLINE
  5
279
102
{ACAD_REACTORS
330
2F4
102
}
100
AcDbEntity
  8
WALL
  6
CONTINUOUS
 62
     7
100
AcDbPolyline
 90
        4
 70
     1
 10
6.416667
 20
4.75
 10
6.416667
 20
5.25
 10
6.25
 20
5.25
 10
6.25
 20
4.75
  0
LWPOLYLINE
  5
27A
102
{ACAD_REACTORS
330
2F4
102
}
100
AcDbEntity
  8
WALL
  6
CONTINUOUS
 62
     7
100
AcDbPolyline
 90
        4
 70
     1
 10
3.583333
 20
4.75
 10
3.583333
 20
5.25
 10
3.75
 20
5.25
 10
3.75
 20
4.75
  0
LINE
  5
27B
100
AcDbEntity
  8
WALL
  6
CONTINUOUS
 62
     7
100
AcDbLine
 10
6.416667
 20
4.75
 30
0.0
 11
6.416667
 21
5.25
 31
0.0
  0
LINE
  5
27C
100
AcDbEntity
  8
WALL
  6
CONTINUOUS
 62
     7
100
AcDbLine
 10
3.583333
 20
4.75
 30
0.0
 11
3.583333
 21
5.25
 31
0.0
  0
ENDBLK
  5
27D
100
AcDbEntity
  8
0
100
AcDbBlockEnd
  0
BLOCK
  5
27F
100
AcDbEntity
  8
0
100
AcDbBlockBegin
  2
CASEMENT
 70
     2
 10
0.0
 20
0.0
 30
0.0
  3
CASEMENT
  1

  0
ATTDEF
  5
280
100
AcDbEntity
  8
0
100
AcDbText
 10
5.0
 20
5.0
 30
0.0
 40
0.2
  1
60
100
AcDbAttributeDefinition
  3
Window height
  2
VISWNDWHEIGHT
 70
     0
  0
ATTDEF
  5
281
100
AcDbEntity
  8
0
100
AcDbText
 10
5.0
 20
5.0
 30
0.0
 40
0.2
  1
0
100
AcDbAttributeDefinition
  3
Reference Line Offset
  2
REFLN
 70
     0
  0
ATTDEF
  5
282
100
AcDbEntity
  8
0
100
AcDbText
 10
5.0
 20
5.0
 30
0.0
 40
0.2
  1
30
100
AcDbAttributeDefinition
  3
Window width
  2
SUBTYPE
 70
     0
  0
ATTDEF
  5
283
100
AcDbEntity
  8
0
100
AcDbText
 10
5.0
 20
5.0
 30
0.0
 40
0.2
  1
2
100
AcDbAttributeDefinition
  3
Window frame depth
  2
SUBVISWNDWFRAMEDEPTH
 70
     0
  0
ATTDEF
  5
284
100
AcDbEntity
  8
0
100
AcDbText
 10
5.0
 20
5.0
 30
0.0
 40
0.2
  1
4
100
AcDbAttributeDefinition
  3
Window frame width
  2
SUBVISWNDWFRAMEWIDTH
 70
     0
  0
ATTDEF
  5
285
100
AcDbEntity
  8
0
100
AcDbText
 10
5.0
 20
5.0
 30
0.0
 40
0.2
  1
2.5
100
AcDbAttributeDefinition
  3
Window sash depth
  2
SUBVISWNDWSASHDEPTH
 70
     0
  0
ATTDEF
  5
286
100
AcDbEntity
  8
0
100
AcDbText
 10
5.0
 20
5.0
 30
0.0
 40
0.2
  1
1
100
AcDbAttributeDefinition
  3
Window sash width
  2
SUBVISWNDWSASHWIDTH
 70
     0
  0
ATTDEF
  5
287
100
AcDbEntity
  8
0
100
AcDbText
 10
5.0
 20
5.0
 30
0.0
 40
0.2
  1
2
100
AcDbAttributeDefinition
  3
Window sill depth inside
  2
SUBVISWNDWSILLDEPTHIN
 70
     0
  0
ATTDEF
  5
288
100
AcDbEntity
  8
0
100
AcDbText
 10
5.0
 20
5.0
 30
0.0
 40
0.2
  1
2
100
AcDbAttributeDefinition
  3
Window sill width inside
  2
SUBVISWNDWSILLWIDTHIN
 70
     0
  0
ATTDEF
  5
289
100
AcDbEntity
  8
0
100
AcDbText
 10
5.0
 20
5.0
 30
0.0
 40
0.2
  1
2
100
AcDbAttributeDefinition
  3
Window sill depth outside
  2
SUBVISWNDWSILLDEPTHOUT
 70
     0
  0
ATTDEF
  5
28A
100
AcDbEntity
  8
0
100
AcDbText
 10
5.0
 20
5.0
 30
0.0
 40
0.2
  1
2
100
AcDbAttributeDefinition
  3
Window sill width outside
  2
SUBVISWNDWSILLWIDTHOUT
 70
     0
  0
ATTDEF
  5
28B
100
AcDbEntity
  8
0
100
AcDbText
 10
5.0
 20
5.0
 30
0.0
 40
0.2
  1
80
100
AcDbAttributeDefinition
  3
Window header height
  2
VISWNDWHEADERHEIGHT
 70
     0
  0
ATTDEF
  5
28C
100
AcDbEntity
  8
0
100
AcDbText
 10
5.0
 20
5.0
 30
0.0
 40
0.2
  1
6
100
AcDbAttributeDefinition
  3
Window along wall offset
  2
VISWNDWALONGWALLOFFSET
 70
     0
  0
ATTDEF
  5
28D
100
AcDbEntity
  8
0
100
AcDbText
 10
5.0
 20
5.0
 30
0.0
 40
0.2
  1
15
100
AcDbAttributeDefinition
  3
Window operator size
  2
VISWNDWOPERATOR
 70
     0
  0
ATTDEF
  5
28E
100
AcDbEntity
  8
0
100
AcDbText
 10
5.0
 20
5.0
 30
0.0
 40
0.2
  1
12
100
AcDbAttributeDefinition
  3
Window spring height
  2
VISWNDWSPRING
 70
     0
  0
ATTDEF
  5
28F
100
AcDbEntity
  8
0
100
AcDbText
 10
5.0
 20
5.0
 30
0.0
 40
0.2
  1
Center
100
AcDbAttributeDefinition
  3
Window within wall offset
  2
VISJUSTIFICATION
 70
     0
  0
ATTDEF
  5
290
100
AcDbEntity
  8
0
100
AcDbText
 10
5.0
 20
5.0
 30
0.0
 40
0.2
  1
Building Component
100
AcDbAttributeDefinition
  3
Shape class
  2
SHAPECLASS
 70
     0
  0
ATTDEF
  5
291
100
AcDbEntity
  8
0
100
AcDbText
 10
5.0
 20
5.0
 30
0.0
 40
0.2
  1
Window
100
AcDbAttributeDefinition
  3
Shape type
  2
SHAPETYPE
 70
     0
  0
ATTDEF
  5
292
100
AcDbEntity
  8
0
100
AcDbText
 10
5.0
 20
5.0
 30
0.0
 40
0.2
  1
Casement
100
AcDbAttributeDefinition
  3
Window type
  2
SUBSHAPETYPE
 70
     0
  0
ATTDEF
  5
293
100
AcDbEntity
  8
0
100
AcDbText
 10
5.0
 20
5.0
 30
0.0
 40
0.2
  1
0
100
AcDbAttributeDefinition
  3
Fire rating
  2
FIRERATING
 70
     0
  0
ATTDEF
  5
294
100
AcDbEntity
  8
0
100
AcDbText
 10
5.0
 20
5.0
 30
0.0
 40
0.2
  1
0
100
AcDbAttributeDefinition
  3
Window number
  2
WNDWNUMBER
 70
     0
  0
LWPOLYLINE
  5
295
102
{ACAD_REACTORS
330
2F4
102
}
100
AcDbEntity
  8
BUILDING_ENVELOPE
  6
CONTINUOUS
 62
     7
100
AcDbPolyline
 90
        4
 70
     1
 10
3.75
 20
4.734
 10
6.25
 20
4.734
 10
6.25
 20
5.266
 10
3.75
 20
5.266
  0
LINE
  5
296
102
{ACAD_REACTORS
330
2F4
102
}
100
AcDbEntity
  8
BUILDING_ENVELOPE
  6
CONTINUOUS
 62
     7
100
AcDbLine
 10
3.75
 20
4.75
 30
0.0
 11
3.75
 21
5.25
 31
0.0
  0
LINE
  5
297
102
{ACAD_REACTORS
330
2F4
102
}
100
AcDbEntity
  8
BUILDING_ENVELOPE
  6
CONTINUOUS
 62
     7
100
AcDbLine
 10
3.75
 20
5.25
 30
0.0
 11
4.083333
 21
5.25
 31
0.0
  0
LINE
  5
298
102
{ACAD_REACTORS
330
2F4
102
}
100
AcDbEntity
  8
BUILDING_ENVELOPE
  6
CONTINUOUS
 62
     7
100
AcDbLine
 10
4.083333
 20
5.25
 30
0.0
 11
4.083333
 21
5.104167
 31
0.0
  0
LINE
  5
299
102
{ACAD_REACTORS
330
2F4
102
}
100
AcDbEntity
  8
BUILDING_ENVELOPE
  6
CONTINUOUS
 62
     7
100
AcDbLine
 10
4.083333
 20
4.895833
 30
0.0
 11
4.083333
 21
4.75
 31
0.0
  0
LINE
  5
29A
102
{ACAD_REACTORS
330
2F4
102
}
100
AcDbEntity
  8
BUILDING_ENVELOPE
  6
CONTINUOUS
 62
     7
100
AcDbLine
 10
4.083333
 20
4.75
 30
0.0
 11
3.75
 21
4.75
 31
0.0
  0
LINE
  5
29B
102
{ACAD_REACTORS
330
2F4
102
}
100
AcDbEntity
  8
BUILDING_ENVELOPE
  6
CONTINUOUS
 62
     7
100
AcDbLine
 10
6.25
 20
4.75
 30
0.0
 11
6.25
 21
5.25
 31
0.0
  0
LINE
  5
29C
102
{ACAD_REACTORS
330
2F4
102
}
100
AcDbEntity
  8
BUILDING_ENVELOPE
  6
CONTINUOUS
 62
     7
100
AcDbLine
 10
6.25
 20
5.25
 30
0.0
 11
5.916667
 21
5.25
 31
0.0
  0
LINE
  5
29D
102
{ACAD_REACTORS
330
2F4
102
}
100
AcDbEntity
  8
BUILDING_ENVELOPE
  6
CONTINUOUS
 62
     7
100
AcDbLine
 10
5.916667
 20
5.25
 30
0.0
 11
5.916667
 21
5.104167
 31
0.0
  0
LINE
  5
29E
102
{ACAD_REACTORS
330
2F4
102
}
100
AcDbEntity
  8
BUILDING_ENVELOPE
  6
CONTINUOUS
 62
     7
100
AcDbLine
 10
5.916667
 20
4.895833
 30
0.0
 11
5.916667
 21
4.75
 31
0.0
  0
LINE
  5
29F
102
{ACAD_REACTORS
330
2F4
102
}
100
AcDbEntity
  8
BUILDING_ENVELOPE
  6
CONTINUOUS
 62
     7
100
AcDbLine
 10
5.916667
 20
4.75
 30
0.0
 11
6.25
 21
4.75
 31
0.0
  0
LWPOLYLINE
  5
2A0
102
{ACAD_REACTORS
330
2F4
102
}
100
AcDbEntity
  8
BUILDING_ENVELOPE
  6
CONTINUOUS
 62
     7
100
AcDbPolyline
 90
        4
 70
     1
 10
4.083333
 20
5.208333
 10
4.166667
 20
5.208333
 10
4.166667
 20
5.0
 10
4.083333
 20
5.0
  0
LWPOLYLINE
  5
2A1
102
{ACAD_REACTORS
330
2F4
102
}
100
AcDbEntity
  8
BUILDING_ENVELOPE
  6
CONTINUOUS
 62
     7
100
AcDbPolyline
 90
        4
 70
     1
 10
5.916667
 20
5.208333
 10
5.833333
 20
5.208333
 10
5.833333
 20
5.0
 10
5.916667
 20
5.0
  0
LINE
  5
2A2
100
AcDbEntity
  8
BUILDING_ENVELOPE
  6
CONTINUOUS
 62
     7
100
AcDbLine
 10
4.166667
 20
5.104167
 30
0.0
 11
5.833333
 21
5.104167
 31
0.0
  0
LINE
  5
2A3
100
AcDbEntity
  8
BUILDING_ENVELOPE
  6
CONTINUOUS
 62
     7
100
AcDbLine
 10
3.75
 20
4.75
 30
0.0
 11
3.75
 21
5.25
 31
0.0
  0
LINE
  5
2A4
100
AcDbEntity
  8
BUILDING_ENVELOPE
  6
CONTINUOUS
 62
     7
100
AcDbLine
 10
6.25
 20
4.75
 30
0.0
 11
6.25
 21
5.25
 31
0.0
  0
LWPOLYLINE
  5
2A5
102
{ACAD_REACTORS
330
2F4
102
}
100
AcDbEntity
  8
BUILDING_ENVELOPE
  6
CONTINUOUS
 62
     7
100
AcDbPolyline
 90
        4
 70
     1
 10
4.083333
 20
5.0
 10
4.125
 20
5.0
 10
4.125
 20
4.895833
 10
4.083333
 20
4.895833
  0
LWPOLYLINE
  5
2A6
102
{ACAD_REACTORS
330
2F4
102
}
100
AcDbEntity
  8
BUILDING_ENVELOPE
  6
CONTINUOUS
 62
     7
100
AcDbPolyline
 90
        4
 70
     1
 10
5.916667
 20
5.0
 10
5.875
 20
5.0
 10
5.875
 20
4.895833
 10
5.916667
 20
4.895833
  0
ENDBLK
  5
2A7
100
AcDbEntity
  8
0
100
AcDbBlockEnd
  0
BLOCK
  5
2A9
100
AcDbEntity
  8
0
100
AcDbBlockBegin
  2
WINDOW
 70
     2
 10
0.0
 20
0.0
 30
0.0
  3
WINDOW
  1

  0
ATTDEF
  5
2AA
100
AcDbEntity
  8
0
100
AcDbText
 10
5.0
 20
5.0
 30
0.0
 40
0.2
  1
60
100
AcDbAttributeDefinition
  3
Window height
  2
VISWNDWHEIGHT
 70
     0
  0
ATTDEF
  5
2AB
100
AcDbEntity
  8
0
100
AcDbText
 10
5.0
 20
5.0
 30
0.0
 40
0.2
  1
0
100
AcDbAttributeDefinition
  3
Reference Line Offset
  2
REFLN
 70
     0
  0
ATTDEF
  5
2AC
100
AcDbEntity
  8
0
100
AcDbText
 10
5.0
 20
5.0
 30
0.0
 40
0.2
  1
30
100
AcDbAttributeDefinition
  3
Window width
  2
SUBTYPE
 70
     0
  0
ATTDEF
  5
2AD
100
AcDbEntity
  8
0
100
AcDbText
 10
5.0
 20
5.0
 30
0.0
 40
0.2
  1
2
100
AcDbAttributeDefinition
  3
Window frame depth
  2
SUBVISWNDWFRAMEDEPTH
 70
     0
  0
ATTDEF
  5
2AE
100
AcDbEntity
  8
0
100
AcDbText
 10
5.0
 20
5.0
 30
0.0
 40
0.2
  1
4
100
AcDbAttributeDefinition
  3
Window frame width
  2
SUBVISWNDWFRAMEWIDTH
 70
     0
  0
ATTDEF
  5
2AF
100
AcDbEntity
  8
0
100
AcDbText
 10
5.0
 20
5.0
 30
0.0
 40
0.2
  1
2.5
100
AcDbAttributeDefinition
  3
Window sash depth
  2
SUBVISWNDWSASHDEPTH
 70
     0
  0
ATTDEF
  5
2B0
100
AcDbEntity
  8
0
100
AcDbText
 10
5.0
 20
5.0
 30
0.0
 40
0.2
  1
1
100
AcDbAttributeDefinition
  3
Window sash width
  2
SUBVISWNDWSASHWIDTH
 70
     0
  0
ATTDEF
  5
2B1
100
AcDbEntity
  8
0
100
AcDbText
 10
5.0
 20
5.0
 30
0.0
 40
0.2
  1
2
100
AcDbAttributeDefinition
  3
Window sill depth inside
  2
SUBVISWNDWSILLDEPTHIN
 70
     0
  0
ATTDEF
  5
2B2
100
AcDbEntity
  8
0
100
AcDbText
 10
5.0
 20
5.0
 30
0.0
 40
0.2
  1
2
100
AcDbAttributeDefinition
  3
Window sill width inside
  2
SUBVISWNDWSILLWIDTHIN
 70
     0
  0
ATTDEF
  5
2B3
100
AcDbEntity
  8
0
100
AcDbText
 10
5.0
 20
5.0
 30
0.0
 40
0.2
  1
2
100
AcDbAttributeDefinition
  3
Window sill depth outside
  2
SUBVISWNDWSILLDEPTHOUT
 70
     0
  0
ATTDEF
  5
2B4
100
AcDbEntity
  8
0
100
AcDbText
 10
5.0
 20
5.0
 30
0.0
 40
0.2
  1
2
100
AcDbAttributeDefinition
  3
Window sill width outside
  2
SUBVISWNDWSILLWIDTHOUT
 70
     0
  0
ATTDEF
  5
2B5
100
AcDbEntity
  8
0
100
AcDbText
 10
5.0
 20
5.0
 30
0.0
 40
0.2
  1
80
100
AcDbAttributeDefinition
  3
Window header height
  2
VISWNDWHEADERHEIGHT
 70
     0
  0
ATTDEF
  5
2B6
100
AcDbEntity
  8
0
100
AcDbText
 10
5.0
 20
5.0
 30
0.0
 40
0.2
  1
6
100
AcDbAttributeDefinition
  3
Window along wall offset
  2
VISWNDWALONGWALLOFFSET
 70
     0
  0
ATTDEF
  5
2B7
100
AcDbEntity
  8
0
100
AcDbText
 10
5.0
 20
5.0
 30
0.0
 40
0.2
  1
15
100
AcDbAttributeDefinition
  3
Window operator size
  2
VISWNDWOPERATOR
 70
     0
  0
ATTDEF
  5
2B8
100
AcDbEntity
  8
0
100
AcDbText
 10
5.0
 20
5.0
 30
0.0
 40
0.2
  1
12
100
AcDbAttributeDefinition
  3
Window spring height
  2
VISWNDWSPRING
 70
     0
  0
ATTDEF
  5
2B9
100
AcDbEntity
  8
0
100
AcDbText
 10
5.0
 20
5.0
 30
0.0
 40
0.2
  1
Center
100
AcDbAttributeDefinition
  3
Window within wall offset
  2
VISJUSTIFICATION
 70
     0
  0
ATTDEF
  5
2BA
100
AcDbEntity
  8
0
100
AcDbText
 10
5.0
 20
5.0
 30
0.0
 40
0.2
  1
Building Component
100
AcDbAttributeDefinition
  3
Shape class
  2
SHAPECLASS
 70
     0
  0
ATTDEF
  5
2BB
100
AcDbEntity
  8
0
100
AcDbText
 10
5.0
 20
5.0
 30
0.0
 40
0.2
  1
Window
100
AcDbAttributeDefinition
  3
Shape type
  2
SHAPETYPE
 70
     0
  0
ATTDEF
  5
2BC
100
AcDbEntity
  8
0
100
AcDbText
 10
5.0
 20
5.0
 30
0.0
 40
0.2
  1
Picture
100
AcDbAttributeDefinition
  3
Window type
  2
SUBSHAPETYPE
 70
     0
  0
ATTDEF
  5
2BD
100
AcDbEntity
  8
0
100
AcDbText
 10
5.0
 20
5.0
 30
0.0
 40
0.2
  1
0
100
AcDbAttributeDefinition
  3
Fire rating
  2
FIRERATING
 70
     0
  0
ATTDEF
  5
2BE
100
AcDbEntity
  8
0
100
AcDbText
 10
5.0
 20
5.0
 30
0.0
 40
0.2
  1
0
100
AcDbAttributeDefinition
  3
Window number
  2
WNDWNUMBER
 70
     0
  0
LWPOLYLINE
  5
2BF
102
{ACAD_REACTORS
330
2F4
102
}
100
AcDbEntity
  8
BUILDING_ENVELOPE
  6
CONTINUOUS
 62
     7
100
AcDbPolyline
 90
        4
 70
     1
 10
3.75
 20
4.734
 10
6.25
 20
4.734
 10
6.25
 20
5.266
 10
3.75
 20
5.266
  0
LINE
  5
2C0
102
{ACAD_REACTORS
330
2F4
102
}
100
AcDbEntity
  8
BUILDING_ENVELOPE
  6
CONTINUOUS
 62
     7
100
AcDbLine
 10
3.75
 20
4.75
 30
0.0
 11
3.75
 21
5.25
 31
0.0
  0
LINE
  5
2C1
102
{ACAD_REACTORS
330
2F4
102
}
100
AcDbEntity
  8
BUILDING_ENVELOPE
  6
CONTINUOUS
 62
     7
100
AcDbLine
 10
3.75
 20
5.25
 30
0.0
 11
4.083333
 21
5.25
 31
0.0
  0
LINE
  5
2C2
102
{ACAD_REACTORS
330
2F4
102
}
100
AcDbEntity
  8
BUILDING_ENVELOPE
  6
CONTINUOUS
 62
     7
100
AcDbLine
 10
4.083333
 20
5.25
 30
0.0
 11
4.083333
 21
5.104167
 31
0.0
  0
LINE
  5
2C3
102
{ACAD_REACTORS
330
2F4
102
}
100
AcDbEntity
  8
BUILDING_ENVELOPE
  6
CONTINUOUS
 62
     7
100
AcDbLine
 10
4.083333
 20
4.895833
 30
0.0
 11
4.083333
 21
4.75
 31
0.0
  0
LINE
  5
2C4
102
{ACAD_REACTORS
330
2F4
102
}
100
AcDbEntity
  8
BUILDING_ENVELOPE
  6
CONTINUOUS
 62
     7
100
AcDbLine
 10
4.083333
 20
4.75
 30
0.0
 11
3.75
 21
4.75
 31
0.0
  0
LINE
  5
2C5
102
{ACAD_REACTORS
330
2F4
102
}
100
AcDbEntity
  8
BUILDING_ENVELOPE
  6
CONTINUOUS
 62
     7
100
AcDbLine
 10
6.25
 20
4.75
 30
0.0
 11
6.25
 21
5.25
 31
0.0
  0
LINE
  5
2C6
102
{ACAD_REACTORS
330
2F4
102
}
100
AcDbEntity
  8
BUILDING_ENVELOPE
  6
CONTINUOUS
 62
     7
100
AcDbLine
 10
6.25
 20
5.25
 30
0.0
 11
5.916667
 21
5.25
 31
0.0
  0
LINE
  5
2C7
102
{ACAD_REACTORS
330
2F4
102
}
100
AcDbEntity
  8
BUILDING_ENVELOPE
  6
CONTINUOUS
 62
     7
100
AcDbLine
 10
5.916667
 20
5.25
 30
0.0
 11
5.916667
 21
5.104167
 31
0.0
  0
LINE
  5
2C8
102
{ACAD_REACTORS
330
2F4
102
}
100
AcDbEntity
  8
BUILDING_ENVELOPE
  6
CONTINUOUS
 62
     7
100
AcDbLine
 10
5.916667
 20
4.895833
 30
0.0
 11
5.916667
 21
4.75
 31
0.0
  0
LINE
  5
2C9
102
{ACAD_REACTORS
330
2F4
102
}
100
AcDbEntity
  8
BUILDING_ENVELOPE
  6
CONTINUOUS
 62
     7
100
AcDbLine
 10
5.916667
 20
4.75
 30
0.0
 11
6.25
 21
4.75
 31
0.0
  0
LWPOLYLINE
  5
2CA
102
{ACAD_REACTORS
330
2F4
102
}
100
AcDbEntity
  8
BUILDING_ENVELOPE
  6
CONTINUOUS
 62
     7
100
AcDbPolyline
 90
        4
 70
     1
 10
4.083333
 20
5.104167
 10
4.166667
 20
5.104167
 10
4.166667
 20
4.895833
 10
4.083333
 20
4.895833
  0
LWPOLYLINE
  5
2CB
102
{ACAD_REACTORS
330
2F4
102
}
100
AcDbEntity
  8
BUILDING_ENVELOPE
  6
CONTINUOUS
 62
     7
100
AcDbPolyline
 90
        4
 70
     1
 10
5.916667
 20
5.104167
 10
5.833333
 20
5.104167
 10
5.833333
 20
4.895833
 10
5.916667
 20
4.895833
  0
LINE
  5
2CC
100
AcDbEntity
  8
BUILDING_ENVELOPE
  6
CONTINUOUS
 62
     7
100
AcDbLine
 10
4.166667
 20
5.0
 30
0.0
 11
5.833333
 21
5.0
 31
0.0
  0
LINE
  5
2CD
100
AcDbEntity
  8
BUILDING_ENVELOPE
  6
CONTINUOUS
 62
     7
100
AcDbLine
 10
3.75
 20
4.75
 30
0.0
 11
3.75
 21
5.25
 31
0.0
  0
LINE
  5
2CE
100
AcDbEntity
  8
BUILDING_ENVELOPE
  6
CONTINUOUS
 62
     7
100
AcDbLine
 10
6.25
 20
4.75
 30
0.0
 11
6.25
 21
5.25
 31
0.0
  0
ENDBLK
  5
2CF
100
AcDbEntity
  8
0
100
AcDbBlockEnd
  0
BLOCK
  5
2D1
100
AcDbEntity
  8
0
100
AcDbBlockBegin
  2
SCISSOR_STAIRCASE
 70
     2
 10
0.0
 20
0.0
 30
0.0
  3
SCISSOR_STAIRCASE
  1

  0
ATTDEF
  5
2D2
100
AcDbEntity
  8
0
100
AcDbText
 10
-2.833333
 20
-1.573371
 30
0.0
 40
0.2
  1
72
100
AcDbAttributeDefinition
  3
Stair flight run
  2
FLIGHTRUN
 70
     0
  0
ATTDEF
  5
2D3
100
AcDbEntity
  8
0
100
AcDbText
 10
-2.833333
 20
-1.573371
 30
0.0
 40
0.2
  1
36
100
AcDbAttributeDefinition
  3
Stair flight width
  2
WIDTH
 70
     0
  0
ATTDEF
  5
2D4
100
AcDbEntity
  8
0
100
AcDbText
 10
-2.833333
 20
-1.573371
 30
0.0
 40
0.2
  1
6
100
AcDbAttributeDefinition
  3
Flight separation
  2
STAIRSEPARATION
 70
     0
  0
ATTDEF
  5
2D5
100
AcDbEntity
  8
0
100
AcDbText
 10
-2.833333
 20
-1.573371
 30
0.0
 40
0.2
  1
7
100
AcDbAttributeDefinition
  3
Number of treads per flight (Maximum of 7)
  2
TREADNUMBER
 70
     0
  0
ATTDEF
  5
2D6
100
AcDbEntity
  8
0
100
AcDbText
 10
-2.833333
 20
-1.573371
 30
0.0
 40
0.2
  1
Building Component
100
AcDbAttributeDefinition
  3
Shape class
  2
SHAPECLASS
 70
     0
  0
ATTDEF
  5
2D7
100
AcDbEntity
  8
0
100
AcDbText
 10
-2.833333
 20
-1.573371
 30
0.0
 40
0.2
  1
Stair
100
AcDbAttributeDefinition
  3
Shape type
  2
SHAPETYPE
 70
     0
  0
ATTDEF
  5
2D8
100
AcDbEntity
  8
0
100
AcDbText
 10
-2.833333
 20
-1.573371
 30
0.0
 40
0.2
  1

100
AcDbAttributeDefinition
  3
Subshape type
  2
SUBSHAPETYPE
 70
     0
  0
ATTDEF
  5
2D9
100
AcDbEntity
  8
0
100
AcDbText
 10
-2.833333
 20
-1.573371
 30
0.0
 40
0.2
  1
0
100
AcDbAttributeDefinition
  3
Fire rating
  2
FIRERATING
 70
     0
  0
ATTDEF
  5
2DA
100
AcDbEntity
  8
0
100
AcDbText
 10
-2.833333
 20
-1.573371
 30
0.0
 40
0.2
  1
0
100
AcDbAttributeDefinition
  3
Exit stair
  2
EXITSTAIR
 70
     0
  0
ATTDEF
  5
2DB
100
AcDbEntity
  8
0
100
AcDbText
 10
-2.833333
 20
-1.573371
 30
0.0
 40
0.2
  1
1
100
AcDbAttributeDefinition
  3
Hide break
  2
HIDEBREAK
 70
     0
  0
ATTDEF
  5
2DC
100
AcDbEntity
  8
0
100
AcDbText
 10
-2.833333
 20
-1.573371
 30
0.0
 40
0.2
  1
0
100
AcDbAttributeDefinition
  3
Hide segment
  2
HIDESEGMENT
 70
     0
  0
ATTDEF
  5
2DD
100
AcDbEntity
  8
0
100
AcDbText
 10
-2.833333
 20
-1.573371
 30
0.0
 40
0.2
  1
0
100
AcDbAttributeDefinition
  3
Stagger stair flight
  2
STAGGERSTEP
 70
     0
  0
ATTDEF
  5
2DE
100
AcDbEntity
  8
0
100
AcDbText
 10
-2.833333
 20
-1.573371
 30
0.0
 40
0.2
  1
UP
100
AcDbAttributeDefinition
  3
Stair Dir
  2
STAIRDIR
 70
     0
  0
ATTDEF
  5
2DF
100
AcDbEntity
  8
0
100
AcDbText
 10
-2.833333
 20
-1.573371
 30
0.0
 40
0.2
  1
DN
100
AcDbAttributeDefinition
  3
Stair Dir Reverse
  2
STAIRDIRREVERSE
 70
     0
  0
ATTDEF
  5
2E0
100
AcDbEntity
  8
0
100
AcDbText
 10
-2.833333
 20
-1.573371
 30
0.0
 40
0.2
  1
0
100
AcDbAttributeDefinition
  3
Hide Upper handrails
  2
HIDEUPPERRAIL
 70
     0
  0
ATTDEF
  5
2E1
100
AcDbEntity
  8
0
100
AcDbText
 10
-2.833333
 20
-1.573371
 30
0.0
 40
0.2
  1
0
100
AcDbAttributeDefinition
  3
Hide Lower handrails
  2
HIDELOWERRAIL
 70
     0
  0
ATTDEF
  5
2E2
100
AcDbEntity
  8
0
100
AcDbText
 10
-2.833333
 20
-1.573371
 30
0.0
 40
0.2
  1
1
100
AcDbAttributeDefinition
  3
Hide Ramp
  2
HIDERAMP
 70
     0
  0
ATTDEF
  5
2E3
100
AcDbEntity
  8
0
100
AcDbText
 10
-2.833333
 20
-1.573371
 30
0.0
 40
0.2
  1
20
100
AcDbAttributeDefinition
  3
Rise
  2
SUBTYPE2
 70
     0
  0
LWPOLYLINE
  5
2E4
100
AcDbEntity
  8
BUILDING_ENVELOPE
  6
CONTINUOUS
 62
     9
100
AcDbPolyline
 90
        4
 70
     1
 10
-2.833333
 20
-0.073371
 10
-1.97619
 20
-0.073371
 10
-1.97619
 20
-3.073371
 10
-2.833333
 20
-3.073371
  0
LWPOLYLINE
  5
2E5
100
AcDbEntity
  8
BUILDING_ENVELOPE
  6
CONTINUOUS
 62
     9
100
AcDbPolyline
 90
        4
 70
     1
 10
-1.97619
 20
-0.073371
 10
-1.119048
 20
-0.073371
 10
-1.119048
 20
-3.073371
 10
-1.97619
 20
-3.073371
  0
LWPOLYLINE
  5
2E6
100
AcDbEntity
  8
BUILDING_ENVELOPE
  6
CONTINUOUS
 62
     9
100
AcDbPolyline
 90
        4
 70
     1
 10
-1.119048
 20
-0.073371
 10
-0.261905
 20
-0.073371
 10
-0.261905
 20
-3.073371
 10
-1.119048
 20
-3.073371
  0
LWPOLYLINE
  5
2E7
100
AcDbEntity
  8
BUILDING_ENVELOPE
  6
CONTINUOUS
 62
     9
100
AcDbPolyline
 90
        4
 70
     1
 10
-0.261905
 20
-0.073371
 10
0.595238
 20
-0.073371
 10
0.595238
 20
-3.073371
 10
-0.261905
 20
-3.073371
  0
LWPOLYLINE
  5
2E8
100
AcDbEntity
  8
BUILDING_ENVELOPE
  6
CONTINUOUS
 62
     9
100
AcDbPolyline
 90
        4
 70
     1
 10
0.595238
 20
-0.073371
 10
1.452381
 20
-0.073371
 10
1.452381
 20
-3.073371
 10
0.595238
 20
-3.073371
  0
LWPOLYLINE
  5
2E9
100
AcDbEntity
  8
BUILDING_ENVELOPE
  6
CONTINUOUS
 62
     9
100
AcDbPolyline
 90
        4
 70
     1
 10
1.452381
 20
-0.073371
 10
2.309524
 20
-0.073371
 10
2.309524
 20
-3.073371
 10
1.452381
 20
-3.073371
  0
LWPOLYLINE
  5
2EA
100
AcDbEntity
  8
BUILDING_ENVELOPE
  6
CONTINUOUS
 62
     9
100
AcDbPolyline
 90
        4
 70
     1
 10
2.309524
 20
-0.073371
 10
3.166667
 20
-0.073371
 10
3.166667
 20
-3.073371
 10
2.309524
 20
-3.073371
  0
LWPOLYLINE
  5
2EB
100
AcDbEntity
  8
BUILDING_ENVELOPE
  6
CONTINUOUS
 62
     9
100
AcDbPolyline
 90
        4
 70
     1
 10
3.166667
 20
0.426629
 10
2.309524
 20
0.426629
 10
2.309524
 20
3.426629
 10
3.166667
 20
3.426629
  0
LWPOLYLINE
  5
2EC
100
AcDbEntity
  8
BUILDING_ENVELOPE
  6
CONTINUOUS
 62
     9
100
AcDbPolyline
 90
        4
 70
     1
 10
2.309524
 20
0.426629
 10
1.452381
 20
0.426629
 10
1.452381
 20
3.426629
 10
2.309524
 20
3.426629
  0
LWPOLYLINE
  5
2ED
100
AcDbEntity
  8
BUILDING_ENVELOPE
  6
CONTINUOUS
 62
     9
100
AcDbPolyline
 90
        4
 70
     1
 10
1.452381
 20
0.426629
 10
0.595238
 20
0.426629
 10
0.595238
 20
3.426629
 10
1.452381
 20
3.426629
  0
LWPOLYLINE
  5
2EE
100
AcDbEntity
  8
BUILDING_ENVELOPE
  6
CONTINUOUS
 62
     9
100
AcDbPolyline
 90
        4
 70
     1
 10
0.595238
 20
0.426629
 10
-0.261905
 20
0.426629
 10
-0.261905
 20
3.426629
 10
0.595238
 20
3.426629
  0
LWPOLYLINE
  5
2EF
100
AcDbEntity
  8
BUILDING_ENVELOPE
  6
CONTINUOUS
 62
     9
100
AcDbPolyline
 90
        4
 70
     1
 10
-0.261905
 20
0.426629
 10
-1.119048
 20
0.426629
 10
-1.119048
 20
3.426629
 10
-0.261905
 20
3.426629
  0
LWPOLYLINE
  5
2F0
100
AcDbEntity
  8
BUILDING_ENVELOPE
  6
CONTINUOUS
 62
     9
100
AcDbPolyline
 90
        4
 70
     1
 10
-1.119048
 20
0.426629
 10
-1.97619
 20
0.426629
 10
-1.97619
 20
3.426629
 10
-1.119048
 20
3.426629
  0
LWPOLYLINE
  5
2F1
100
AcDbEntity
  8
BUILDING_ENVELOPE
  6
CONTINUOUS
 62
     9
100
AcDbPolyline
 90
        4
 70
     1
 10
-1.97619
 20
0.426629
 10
-2.833333
 20
0.426629
 10
-2.833333
 20
3.426629
 10
-1.97619
 20
3.426629
  0
MTEXT
  5
2F2
100
AcDbEntity
  8
WALL
100
AcDbMText
 10
-3.443283
 20
-1.585846
 30
0.0
 40
0.333332
 41
1.3339
 71
     5
 72
     5
  1
\C7;\fCalibri|b0|i0|;\H0.33333206176758;UP
  0
CIRCLE
  5
2F3
102
{ACAD_REACTORS
330
2F4
102
}
100
AcDbEntity
  8
WALL
  6
CONTINUOUS
 62
     7
100
AcDbCircle
 10
-2.856433
 20
-1.515846
 30
0.0
 40
0.086804
  0
HATCH
  5
2F4
100
AcDbEntity
  8
WALL
 62
     7
100
AcDbHatch
 10
0.0
 20
0.0
 30
0.0
210
0.0
220
0.0
230
1.0
  2
SOLID
 70
     1
 71
     1
 91
        1
 92
        1
 93
        1
 72
     2
 10
-2.8564333333333338
 20
-1.5158458333333327
 40
0.0868041666666667
 50
0.0
 51
360.0
 73
     1
 97
       50
330
24C
330
24D
330
24E
330
24F
330
250
330
251
330
252
330
253
330
254
330
255
330
256
330
257
330
258
330
259
330
25A
330
25B
330
25C
330
260
330
278
330
279
330
27A
330
295
330
296
330
297
330
298
330
299
330
29A
330
29B
330
29C
330
29D
330
29E
330
29F
330
2A0
330
2A1
330
2A5
330
2A6
330
2BF
330
2C0
330
2C1
330
2C2
330
2C3
330
2C4
330
2C5
330
2C6
330
2C7
330
2C8
330
2C9
330
2CA
330
2CB
330
2F3
 75
     0
 76
     1
 98
        0
  0
LWPOLYLINE
  5
2F5
100
AcDbEntity
  8
WALL
  6
CONTINUOUS
 62
     7
100
AcDbPolyline
 90
        4
 70
     0
 10
-2.856433
 20
-1.515846
 10
4.143567
 20
-1.515846
 10
4.143567
 20
1.984154
 10
1.268785
 20
1.984154
  0
LWPOLYLINE
  5
2F6
102
{ACAD_REACTORS
330
2F7
102
}
100
AcDbEntity
  8
WALL
  6
CONTINUOUS
 62
     7
100
AcDbPolyline
 90
        3
 70
     1
 10
1.036778
 20
1.981426
 10
1.462603
 20
2.111629
 10
1.462603
 20
1.856679
  0
HATCH
  5
2F7
100
AcDbEntity
  8
WALL
 62
     7
100
AcDbHatch
 10
0.0
 20
0.0
 30
0.0
210
0.0
220
0.0
230
1.0
  2
SOLID
 70
     1
 71
     1
 91
        1
 92
        3
 72
     0
 73
     1
 93
        3
 10
1.0367781666666667
 20
1.9814262016666673
 10
1.4626031666666663
 20
2.1116291666666678
 10
1.4626031666666663
 20
1.8566791666666673
 97
        1
330
2F6
 75
     0
 76
     1
 98
        0
  0
LWPOLYLINE
  5
2F8
102
{ACAD_REACTORS
330
2F9
102
}
100
AcDbEntity
  8
BUILDING_ENVELOPE
  6
CONTINUOUS
 62
     7
100
AcDbPolyline
 90
        8
 70
     1
 10
-4.0
 20
-3.073371
 10
-3.833333
 20
-3.073371
 42
-0.414223
 10
-3.666667
 20
-2.906704
 10
4.75
 20
-2.906704
 42
-0.414223
 10
4.916667
 20
-3.073371
 10
5.083333
 20
-3.073371
 42
0.414223
 10
4.75
 20
-2.740037
 10
-3.666667
 20
-2.740037
 42
0.414223
  0
HATCH
  5
2F9
100
AcDbEntity
  8
BUILDING_ENVELOPE
 62
   254
100
AcDbHatch
 10
0.0
 20
0.0
 30
0.0
210
0.0
220
0.0
230
1.0
  2
SOLID
 70
     1
 71
     1
 91
        6
 92
        3
 72
     1
 73
     1
 93
        8
 10
-4.0
 20
-3.0733708333333327
 42
0.0
 10
-3.8333333333333335
 20
-3.0733708333333332
 42
-0.4142231524190836
 10
-3.6666666666666643
 20
-2.9067041666666662
 42
0.0
 10
4.7499999999999991
 20
-2.9067041666666662
 42
-0.4142231524190801
 10
4.9166666666666661
 20
-3.0733708333333327
 42
0.0
 10
5.083333333333333
 20
-3.0733708333333327
 42
0.414223152419079
 10
4.75
 20
-2.7400374999999997
 42
0.0
 10
-3.6666666666666665
 20
-2.7400374999999997
 42
0.4142231524190836
 97
        1
330
2F8
 92
        3
 72
     1
 73
     1
 93
        8
 10
-4.75
 20
3.4266291666666668
 42
0.0
 10
-4.583333333333333
 20
3.4266291666666668
 42
0.4142231524190843
 10
-4.4166666666666643
 20
3.2599625000000003
 42
0.0
 10
3.9999999999999996
 20
3.2599624999999999
 42
0.4142231524190806
 10
4.1666666666666661
 20
3.4266291666666668
 42
0.0
 10
4.333333333333333
 20
3.4266291666666668
 42
-0.4142231524190786
 10
4.0
 20
3.0932958333333334
 42
0.0
 10
-4.4166666666666661
 20
3.0932958333333342
 42
-0.4142231524190833
 97
        1
330
2FA
 92
        3
 72
     1
 73
     1
 93
        8
 10
-3.1666666666666665
 20
-0.2400374999999997
 42
0.0
 10
3.5
 20
-0.2400374999999994
 42
0.4142231524190796
 10
3.6666666666666665
 20
-0.073370833333333
 42
0.0
 10
3.666666666666667
 20
0.4266291666666669
 42
0.4142231524190796
 10
3.5
 20
0.5932958333333336
 42
0.0
 10
-3.1666666666666665
 20
0.5932958333333334
 42
0.4142231524190833
 10
-3.333333333333333
 20
0.4266291666666646
 42
0.0
 10
-3.3333333333333335
 20
-0.073370833333333
 42
0.4142231524190833
 97
        1
330
2FB
 92
        3
 72
     1
 73
     1
 93
        8
 10
-3.1666666666666665
 20
-0.4067041666666663
 42
0.0
 10
3.5
 20
-0.4067041666666664
 42
0.4142231524190791
 10
3.833333333333333
 20
-0.073370833333333
 42
0.0
 10
3.833333333333333
 20
0.4266291666666669
 42
0.4142231524190791
 10
3.5
 20
0.7599625000000003
 42
0.0
 10
-3.1666666666666665
 20
0.7599625000000003
 42
0.4142231524190837
 10
-3.5
 20
0.4266291666666622
 42
0.0
 10
-3.5
 20
-0.073370833333333
 42
0.4142231524190838
 97
        1
330
2FC
 92
        0
 93
        0
 97
        0
 92
        0
 93
        0
 97
        0
 75
     0
 76
     1
 98
        0
  0
LWPOLYLINE
  5
2FA
102
{ACAD_REACTORS
330
2F9
102
}
100
AcDbEntity
  8
BUILDING_ENVELOPE
  6
CONTINUOUS
 62
     7
100
AcDbPolyline
 90
        8
 70
     1
 10
-4.75
 20
3.426629
 10
-4.583333
 20
3.426629
 42
0.414223
 10
-4.416667
 20
3.259963
 10
4.0
 20
3.259962
 42
0.414223
 10
4.166667
 20
3.426629
 10
4.333333
 20
3.426629
 42
-0.414223
 10
4.0
 20
3.093296
 10
-4.416667
 20
3.093296
 42
-0.414223
  0
LWPOLYLINE
  5
2FB
102
{ACAD_REACTORS
330
2F9
102
}
100
AcDbEntity
  8
BUILDING_ENVELOPE
  6
CONTINUOUS
 62
     7
100
AcDbPolyline
 90
        8
 70
     1
 10
-3.166667
 20
-0.240037
 10
3.5
 20
-0.240037
 42
0.414223
 10
3.666667
 20
-0.073371
 10
3.666667
 20
0.426629
 42
0.414223
 10
3.5
 20
0.593296
 10
-3.166667
 20
0.593296
 42
0.414223
 10
-3.333333
 20
0.426629
 10
-3.333333
 20
-0.073371
 42
0.414223
  0
LWPOLYLINE
  5
2FC
102
{ACAD_REACTORS
330
2F9
102
}
100
AcDbEntity
  8
BUILDING_ENVELOPE
  6
CONTINUOUS
 62
     7
100
AcDbPolyline
 90
        8
 70
     1
 10
-3.166667
 20
-0.406704
 10
3.5
 20
-0.406704
 42
0.414223
 10
3.833333
 20
-0.073371
 10
3.833333
 20
0.426629
 42
0.414223
 10
3.5
 20
0.759963
 10
-3.166667
 20
0.759963
 42
0.414223
 10
-3.5
 20
0.426629
 10
-3.5
 20
-0.073371
 42
0.414223
  0
ENDBLK
  5
2FD
100
AcDbEntity
  8
0
100
AcDbBlockEnd
  0
BLOCK
  5
2FF
100
AcDbEntity
  8
0
100
AcDbBlockBegin
  2
CORNER_LANDING_23
 70
     0
 10
0.0
 20
0.0
 30
0.0
  3
CORNER_LANDING_23
  1

  0
LINE
  5
300
100
AcDbEntity
  8
BUILDING_ENVELOPE
  6
CONTINUOUS
 62
     7
100
AcDbLine
 10
8.5
 20
8.5
 30
0.0
 11
11.5
 21
10.0
 31
0.0
  0
LINE
  5
301
100
AcDbEntity
  8
BUILDING_ENVELOPE
  6
CONTINUOUS
 62
     7
100
AcDbLine
 10
8.5
 20
8.5
 30
0.0
 11
10.0
 21
11.5
 31
0.0
  0
LWPOLYLINE
  5
302
100
AcDbEntity
  8
BUILDING_ENVELOPE
  6
CONTINUOUS
 62
     7
100
AcDbPolyline
 90
        4
 70
     1
 10
8.5
 20
8.5
 10
8.5
 20
11.5
 10
11.5
 20
11.5
 10
11.5
 20
8.5
  0
ENDBLK
  5
303
100
AcDbEntity
  8
0
100
AcDbBlockEnd
  0
BLOCK
  5
305
100
AcDbEntity
  8
0
100
AcDbBlockBegin
  2
RAMP
 70
     2
 10
0.0
 20
0.0
 30
0.0
  3
RAMP
  1

  0
ATTDEF
  5
306
100
AcDbEntity
  8
0
100
AcDbText
 10
10.0
 20
10.0
 30
0.0
 40
0.2
  1
1:12
100
AcDbAttributeDefinition
  3
Slope
  2
SUBTYPE
 70
     0
  0
ATTDEF
  5
307
100
AcDbEntity
  8
0
100
AcDbText
 10
10.0
 20
10.0
 30
0.0
 40
0.2
  1
20
100
AcDbAttributeDefinition
  3
Rise
  2
SUBTYPE2
 70
     0
  0
ATTDEF
  5
308
100
AcDbEntity
  8
0
100
AcDbText
 10
10.0
 20
10.0
 30
0.0
 40
0.2
  1
Building Component
100
AcDbAttributeDefinition
  3
Shape class
  2
SHAPECLASS
 70
     0
  0
ATTDEF
  5
309
100
AcDbEntity
  8
0
100
AcDbText
 10
10.0
 20
10.0
 30
0.0
 40
0.2
  1
Ramp
100
AcDbAttributeDefinition
  3
Shape type
  2
SHAPETYPE
 70
     0
  0
ATTDEF
  5
30A
100
AcDbEntity
  8
0
100
AcDbText
 10
10.0
 20
10.0
 30
0.0
 40
0.2
  1

100
AcDbAttributeDefinition
  3
Subshape type
  2
SUBSHAPETYPE
 70
     0
  0
ATTDEF
  5
30B
100
AcDbEntity
  8
0
100
AcDbText
 10
10.0
 20
10.0
 30
0.0
 40
0.2
  1
40
100
AcDbAttributeDefinition
  3
Ramp width
  2
WIDTH
 70
     0
  0
ATTDEF
  5
30C
100
AcDbEntity
  8
0
100
AcDbText
 10
10.0
 20
10.0
 30
0.0
 40
0.2
  1
240
100
AcDbAttributeDefinition
  3
Run length
  2
LENGTH
 70
     0
  0
ATTDEF
  5
30D
100
AcDbEntity
  8
0
100
AcDbText
 10
10.0
 20
10.0
 30
0.0
 40
0.2
  1
0
100
AcDbAttributeDefinition
  3
Hide dimensions
  2
HIDEDIMS
 70
     0
  0
LWPOLYLINE
  5
30E
100
AcDbEntity
  8
BUILDING_ENVELOPE
  6
CONTINUOUS
 62
     7
100
AcDbPolyline
 90
        4
 70
     1
 10
0.0
 20
8.333333
 10
20.0
 20
8.333333
 10
20.0
 20
11.666667
 10
0.0
 20
11.666667
  0
LWPOLYLINE
  5
30F
100
AcDbEntity
  8
BUILDING_ENVELOPE
  6
CONTINUOUS
 62
     7
100
AcDbPolyline
 90
       12
 70
     1
 10
-1.0
 20
11.5
 10
0.0
 20
11.5
 10
0.0
 20
11.666667
 10
0.083333
 20
11.666667
 10
0.083333
 20
11.5
 10
19.916667
 20
11.5
 10
19.916667
 20
11.666667
 10
20.0
 20
11.666667
 10
20.0
 20
11.5
 10
21.0
 20
11.5
 10
21.0
 20
11.416667
 10
-1.0
 20
11.416667
  0
MTEXT
  5
310
100
AcDbEntity
  8
BUILDING_ENVELOPE
100
AcDbMText
 10
10.0
 20
10.0
 30
0.0
 40
0.333332
 41
7.379737
 71
     5
 72
     5
  1
\C7;\fCalibri|b0|i0|;\H0.33333206176758;20" Rise:  20' Run
  0
ENDBLK
  5
311
100
AcDbEntity
  8
0
100
AcDbBlockEnd
  0
BLOCK
  5
313
100
AcDbEntity
  8
0
100
AcDbBlockBegin
  2
DYNAMIC_CONNECTOR
 70
     0
 10
0.0
 20
0.0
 30
0.0
  3
DYNAMIC_CONNECTOR
  1

  0
LWPOLYLINE
  5
314
100
AcDbEntity
  8
BUILDING_ENVELOPE
  6
CONTINUOUS
100
AcDbPolyline
 90
        3
 70
     0
 10
0.083333
 20
0.166667
 10
0.083333
 20
0.083333
 10
0.166667
 20
0.083333
  0
ENDBLK
  5
315
100
AcDbEntity
  8
0
100
AcDbBlockEnd
  0
ENDSEC
  0
SECTION
  2
ENTITIES
  0
LWPOLYLINE
  5
76
102
{ACAD_REACTORS
330
77
102
}
100
AcDbEntity
  8
SPACE
  6
CONTINUOUS
100
AcDbPolyline
 90
        6
 70
     1
 10
13.958292
 20
31.102266
 10
9.013803
 20
31.102266
 10
9.013803
 20
40.168055
 10
0.356904
 20
40.168055
 10
0.356904
 20
27.918056
 10
13.958292
 20
27.918056
  0
HATCH
  5
77
102
{ACAD_REACTORS
330
74
102
}
100
AcDbEntity
  8
SPACE
 62
    40
100
AcDbHatch
 10
0.0
 20
0.0
 30
0.0
210
0.0
220
0.0
230
1.0
  2
SOLID
 70
     1
 71
     1
 91
        1
 92
        3
 72
     0
 73
     1
 93
        6
 10
13.9582921923056933
 20
31.1022655434018027
 10
9.0138027132407128
 20
31.1022655434018027
 10
9.0138027132407128
 20
40.1680548642201316
 10
0.356903559372886
 20
40.1680548642200108
 10
0.356903559372886
 20
27.9180555555555827
 10
13.9582921953341774
 20
27.9180555555555827
 97
        1
330
76
 75
     0
 76
     1
 98
        0
  0
MTEXT
  5
78
100
AcDbEntity
  8
SPACE
100
AcDbMText
 10
4.291626
 20
34.892421
 30
0.0
 40
0.500004
 41
3.284793
 71
     5
 72
     5
  1
\C7;\fCalibri|b0|i0|;\H0.50000381469727;Kitchen\P122 sq. ft.\P\P
  0
LINE
  5
7A
102
{ACAD_REACTORS
330
7E
102
}
100
AcDbEntity
  8
SPACE
  6
CONTINUOUS
100
AcDbLine
 10
13.958292
 20
11.86981
 30
0.0
 11
13.958292
 21
27.584722
 31
0.0
  0
LINE
  5
7B
102
{ACAD_REACTORS
330
7E
102
}
100
AcDbEntity
  8
SPACE
  6
CONTINUOUS
100
AcDbLine
 10
13.958292
 20
27.584722
 30
0.0
 11
0.356904
 21
27.584722
 31
0.0
  0
LINE
  5
7C
102
{ACAD_REACTORS
330
7E
102
}
100
AcDbEntity
  8
SPACE
  6
CONTINUOUS
100
AcDbLine
 10
0.356904
 20
27.584722
 30
0.0
 11
0.356904
 21
11.86981
 31
0.0
  0
LINE
  5
7D
102
{ACAD_REACTORS
330
7E
102
}
100
AcDbEntity
  8
SPACE
  6
CONTINUOUS
100
AcDbLine
 10
0.356904
 20
11.86981
 30
0.0
 11
13.958292
 21
11.86981
 31
0.0
  0
HATCH
  5
7E
102
{ACAD_REACTORS
330
79
102
}
100
AcDbEntity
  8
SPACE
 62
     2
100
AcDbHatch
 10
0.0
 20
0.0
 30
0.0
210
0.0
220
0.0
230
1.0
  2
SOLID
 70
     1
 71
     1
 91
        1
 92
        1
 93
        5
 72
     1
 10
13.9582921953341774
 20
11.8698097329660186
 11
13.9582921953341774
 21
27.584722222222247
 72
     1
 10
13.9582921953341774
 20
27.584722222222247
 11
0.356903559372886
 21
27.584722222222247
 72
     1
 10
0.356903559372886
 20
27.584722222222247
 11
0.356903559372886
 21
11.8698097329660186
 72
     1
 10
0.356903559372886
 20
11.8698097329660186
 11
13.9582918548643526
 21
11.8698097329660186
 72
     1
 10
13.9582918548643526
 20
11.8698097329660186
 11
13.9582921953341774
 21
11.8698097329660186
 97
        4
330
7A
330
7B
330
7C
330
7D
 75
     0
 76
     1
 98
        0
  0
MTEXT
  5
7F
100
AcDbEntity
  8
SPACE
100
AcDbMText
 10
7.157598
 20
22.38036
 30
0.0
 40
0.500004
 41
3.284793
 71
     5
 72
     5
  1
\C7;\fCalibri|b0|i0|;\H0.50000381469727;Lounge\P214 sq. ft.\P\P
  0
LWPOLYLINE
  5
81
102
{ACAD_REACTORS
330
82
102
}
100
AcDbEntity
  8
SPACE
  6
CONTINUOUS
100
AcDbPolyline
 90
        4
 70
     1
 10
21.988994
 20
27.584722
 10
21.988994
 20
23.027704
 10
25.023571
 20
23.027704
 10
25.02357
 20
27.584722
  0
HATCH
  5
82
102
{ACAD_REACTORS
330
80
102
}
100
AcDbEntity
  8
SPACE
 62
     4
100
AcDbHatch
 10
0.0
 20
0.0
 30
0.0
210
0.0
220
0.0
230
1.0
  2
SOLID
 70
     1
 71
     1
 91
        1
 92
        3
 72
     0
 73
     1
 93
        4
 10
21.9889938199283392
 20
27.5847222438034265
 10
21.9889938199283392
 20
23.0277042816655566
 10
25.0235705665092993
 20
23.0277042816655566
 10
25.0235702260395598
 20
27.5847222222222541
 97
        1
330
81
 75
     0
 76
     1
 98
        0
  0
MTEXT
  5
83
100
AcDbEntity
  8
SPACE
100
AcDbMText
 10
23.506282
 20
25.169834
 30
0.0
 40
0.500004
 41
3.809253
 71
     5
 72
     5
  1
\C7;\fCalibri|b0|i0|;\H0.50000381469727;Open Space\P14 sq. ft.\P\P
  0
LWPOLYLINE
  5
85
102
{ACAD_REACTORS
330
86
102
}
100
AcDbEntity
  8
SPACE
  6
CONTINUOUS
100
AcDbPolyline
 90
        4
 70
     1
 10
14.371479
 20
0.298246
 10
25.042532
 20
0.298246
 10
25.042532
 20
4.039434
 10
14.371479
 20
4.039434
  0
HATCH
  5
86
102
{ACAD_REACTORS
330
84
102
}
100
AcDbEntity
  8
SPACE
 62
   111
100
AcDbHatch
 10
0.0
 20
0.0
 30
0.0
210
0.0
220
0.0
230
1.0
  2
SOLID
 70
     1
 71
     1
 91
        1
 92
        3
 72
     0
 73
     1
 93
        4
 10
14.3714788693216633
 20
0.2982456118164025
 10
25.0425317551594517
 20
0.2982456118164025
 10
25.0425317551594517
 20
4.0394335751297294
 10
14.3714788693216633
 20
4.0394335751297294
 97
        1
330
85
 75
     0
 76
     1
 98
        0
  0
MTEXT
  5
87
100
AcDbEntity
  8
SPACE
100
AcDbMText
 10
19.707005
 20
1.828502
 30
0.0
 40
0.500004
 41
2.946903
 71
     5
 72
     5
  1
\C7;\fCalibri|b0|i0|;\H0.50000381469727;Lawn\P40 sq. ft.\P\P
  0
LINE
  5
89
102
{ACAD_REACTORS
330
8D
102
}
100
AcDbEntity
  8
SPACE
  6
CONTINUOUS
100
AcDbLine
 10
25.023571
 20
16.299634
 30
0.0
 11
14.291626
 21
16.299634
 31
0.0
  0
LINE
  5
8A
102
{ACAD_REACTORS
330
8D
102
}
100
AcDbEntity
  8
SPACE
  6
CONTINUOUS
100
AcDbLine
 10
14.291626
 20
16.299634
 30
0.0
 11
14.291626
 21
4.318133
 31
0.0
  0
LINE
  5
8B
102
{ACAD_REACTORS
330
8D
102
}
100
AcDbEntity
  8
SPACE
  6
CONTINUOUS
100
AcDbLine
 10
14.291626
 20
4.318133
 30
0.0
 11
25.023571
 21
4.318133
 31
0.0
  0
LINE
  5
8C
102
{ACAD_REACTORS
330
8D
102
}
100
AcDbEntity
  8
SPACE
  6
CONTINUOUS
100
AcDbLine
 10
25.023571
 20
4.318133
 30
0.0
 11
25.02357
 21
16.299634
 31
0.0
  0
HATCH
  5
8D
102
{ACAD_REACTORS
330
88
102
}
100
AcDbEntity
  8
SPACE
 62
    10
100
AcDbHatch
 10
0.0
 20
0.0
 30
0.0
210
0.0
220
0.0
230
1.0
  2
SOLID
 70
     1
 71
     1
 91
        1
 92
        1
 93
        5
 72
     1
 10
25.0235705665093064
 20
16.2996342140539845
 11
14.2916255286675096
 21
16.2996342140539845
 72
     1
 10
14.2916255286675096
 20
16.2996342140539845
 11
14.2916255286675096
 21
4.3181327835020689
 72
     1
 10
14.2916255286675096
 20
4.3181327835020689
 11
25.0235705665093064
 21
4.3181327835020689
 72
     1
 10
25.0235705665093064
 20
4.3181327835020689
 11
25.0235702260395279
 21
16.2996342140539845
 72
     1
 10
25.0235702260395279
 20
16.2996342140539845
 11
25.0235705665093064
 21
16.2996342140539845
 97
        4
330
89
330
8A
330
8B
330
8C
 75
     0
 76
     1
 98
        0
  0
MTEXT
  5
8E
100
AcDbEntity
  8
SPACE
100
AcDbMText
 10
19.657598
 20
12.028625
 30
0.0
 40
0.500004
 41
3.284793
 71
     5
 72
     5
  1
\C7;\fCalibri|b0|i0|;\H0.50000381469727;Bedroom\P129 sq. ft.\P\P
  0
LWPOLYLINE
  5
90
102
{ACAD_REACTORS
330
91
102
}
100
AcDbEntity
  8
SPACE
  6
CONTINUOUS
100
AcDbPolyline
 90
        4
 70
     1
 10
21.65566
 20
27.584722
 10
14.291626
 20
27.584722
 10
14.291626
 20
23.027704
 10
21.65566
 20
23.027704
  0
HATCH
  5
91
102
{ACAD_REACTORS
330
8F
102
}
100
AcDbEntity
  8
SPACE
 62
     5
100
AcDbHatch
 10
0.0
 20
0.0
 30
0.0
210
0.0
220
0.0
230
1.0
  2
SOLID
 70
     1
 71
     1
 91
        1
 92
        3
 72
     0
 73
     1
 93
        4
 10
21.6556604865947016
 20
27.5847222222222186
 10
14.2916257815951084
 20
27.5847222222222186
 10
14.2916257815951084
 20
23.0277042816655566
 10
21.6556604865947016
 20
23.0277042816655566
 97
        1
330
90
 75
     0
 76
     1
 98
        0
  0
MTEXT
  5
92
100
AcDbEntity
  8
SPACE
100
AcDbMText
 10
17.973643
 20
25.169834
 30
0.0
 40
0.500004
 41
3.319019
 71
     5
 72
     5
  1
\C7;\fCalibri|b0|i0|;\H0.50000381469727;Bathroom\P34 sq. ft.\P\P
  0
LWPOLYLINE
  5
94
102
{ACAD_REACTORS
330
95
102
}
100
AcDbEntity
  8
SPACE
  6
CONTINUOUS
100
AcDbPolyline
 90
        4
 70
     1
 10
13.958292
 20
31.435599
 10
13.958292
 20
36.668055
 10
9.347136
 20
36.668055
 10
9.347136
 20
31.435599
  0
HATCH
  5
95
102
{ACAD_REACTORS
330
93
102
}
100
AcDbEntity
  8
SPACE
 62
    11
100
AcDbHatch
 10
0.0
 20
0.0
 30
0.0
210
0.0
220
0.0
230
1.0
  2
SOLID
 70
     1
 71
     1
 91
        1
 92
        3
 72
     0
 73
     1
 93
        4
 10
13.9582921953341845
 20
31.4355988767351278
 10
13.9582921953341845
 20
36.6680549232365962
 10
9.3471360465741
 20
36.6680549232365962
 10
9.3471360465741
 20
31.4355988767351278
 97
        1
330
94
 75
     0
 76
     1
 98
        0
  0
MTEXT
  5
96
100
AcDbEntity
  8
SPACE
100
AcDbMText
 10
11.652714
 20
34.084307
 30
0.0
 40
0.500004
 41
4.328113
 71
     5
 72
     5
  1
\C7;\fCalibri|b0|i0|;\H0.50000381469727;Dressing Area\P24 sq. ft.\P\P
  0
LWPOLYLINE
  5
98
102
{ACAD_REACTORS
330
99
102
}
100
AcDbEntity
  8
SPACE
  6
CONTINUOUS
100
AcDbPolyline
 90
        4
 70
     1
 10
14.291626
 20
27.918056
 10
25.02357
 20
27.918056
 10
25.02357
 20
45.166667
 10
14.291626
 20
45.166667
  0
HATCH
  5
99
102
{ACAD_REACTORS
330
97
102
}
100
AcDbEntity
  8
SPACE
 62
    10
100
AcDbHatch
 10
0.0
 20
0.0
 30
0.0
210
0.0
220
0.0
230
1.0
  2
SOLID
 70
     1
 71
     1
 91
        1
 92
        3
 72
     0
 73
     1
 93
        4
 10
14.291625781595112
 20
27.9180555555555543
 10
25.0235702260398511
 20
27.9180555555555543
 10
25.0235702260398511
 20
45.1666666666667993
 10
14.291625781595112
 20
45.1666666666666288
 97
        1
330
98
 75
     0
 76
     1
 98
        0
  0
MTEXT
  5
9A
100
AcDbEntity
  8
SPACE
100
AcDbMText
 10
19.657598
 20
39.57888
 30
0.0
 40
0.500004
 41
3.284793
 71
     5
 72
     5
  1
\C7;\fCalibri|b0|i0|;\H0.50000381469727;Bedroom\P185 sq. ft.\P\P
  0
LWPOLYLINE
  5
9C
102
{ACAD_REACTORS
330
9D
102
}
100
AcDbEntity
  8
SPACE
  6
CONTINUOUS
100
AcDbPolyline
 90
        4
 70
     1
 10
9.013803
 20
40.501388
 10
9.013803
 20
45.166667
 10
0.356904
 20
45.166667
 10
0.356904
 20
40.501388
  0
HATCH
  5
9D
102
{ACAD_REACTORS
330
9B
102
}
100
AcDbEntity
  8
SPACE
 62
   254
100
AcDbHatch
 10
0.0
 20
0.0
 30
0.0
210
0.0
220
0.0
230
1.0
  2
SOLID
 70
     1
 71
     1
 91
        1
 92
        3
 72
     0
 73
     1
 93
        4
 10
9.0138027132407608
 20
40.5013881975533678
 10
9.0138027132407608
 20
45.1666665342058309
 10
0.356903559372886
 20
45.1666666666666643
 10
0.356903559372886
 20
40.5013881975533678
 97
        1
330
9C
 75
     0
 76
     1
 98
        0
  0
MTEXT
  5
9E
100
AcDbEntity
  8
SPACE
100
AcDbMText
 10
4.685353
 20
42.724713
 30
0.0
 40
0.500004
 41
2.946903
 71
     5
 72
     5
  1
\C7;\fCalibri|b0|i0|;\H0.50000381469727;Laundry\P40 sq. ft.\P\P
  0
LWPOLYLINE
  5
A0
102
{ACAD_REACTORS
330
A1
102
}
100
AcDbEntity
  8
SPACE
  6
CONTINUOUS
100
AcDbPolyline
 90
        4
 70
     1
 10
13.958292
 20
37.001388
 10
13.958292
 20
45.166666
 10
9.347136
 20
45.166667
 10
9.347136
 20
37.001388
  0
HATCH
  5
A1
102
{ACAD_REACTORS
330
9F
102
}
100
AcDbEntity
  8
SPACE
 62
     5
100
AcDbHatch
 10
0.0
 20
0.0
 30
0.0
210
0.0
220
0.0
230
1.0
  2
SOLID
 70
     1
 71
     1
 91
        1
 92
        3
 72
     0
 73
     1
 93
        4
 10
13.9582921953341845
 20
37.0013882565699248
 10
13.9582921953341845
 20
45.1666664138731591
 10
9.3471360465741
 20
45.1666666666666643
 10
9.3471360465741
 20
37.0013882565699248
 97
        1
330
A0
 75
     0
 76
     1
 98
        0
  0
MTEXT
  5
A2
100
AcDbEntity
  8
SPACE
100
AcDbMText
 10
11.652714
 20
41.849713
 30
0.0
 40
0.500004
 41
3.319019
 71
     5
 72
     5
  1
\C7;\fCalibri|b0|i0|;\H0.50000381469727;Bathroom\P38 sq. ft.\P\P
  0
LWPOLYLINE
  5
A4
102
{ACAD_REACTORS
330
A5
102
}
100
AcDbEntity
  8
SPACE
  6
CONTINUOUS
100
AcDbPolyline
 90
        6
 70
     1
 10
14.371479
 20
3.984799
 10
13.958292
 20
3.984799
 10
13.958292
 20
11.536476
 10
0.356904
 20
11.536476
 10
0.356904
 20
0.5
 10
14.371479
 20
0.5
  0
HATCH
  5
A5
102
{ACAD_REACTORS
330
A3
102
}
100
AcDbEntity
  8
SPACE
 62
    22
100
AcDbHatch
 10
0.0
 20
0.0
 30
0.0
210
0.0
220
0.0
230
1.0
  2
SOLID
 70
     1
 71
     1
 91
        1
 92
        3
 72
     0
 73
     1
 93
        6
 10
14.3714788693216562
 20
3.9847994501687598
 10
13.9582921953341419
 20
3.9847994501687598
 10
13.9582921953341419
 20
11.5364763996328268
 10
0.3569035593728813
 20
11.5364763996327149
 10
0.3569035593728813
 20
0.4999999999999526
 10
14.3714788693216562
 20
0.4999999999999526
 97
        1
330
A4
 75
     0
 76
     1
 98
        0
  0
MTEXT
  5
A6
100
AcDbEntity
  8
SPACE
100
AcDbMText
 10
7.364191
 20
7.501723
 30
0.0
 40
0.500004
 41
3.284793
 71
     5
 72
     5
  1
\C7;\fCalibri|b0|i0|;\H0.50000381469727;Garage\P152 sq. ft.\P\P
  0
LINE
  5
A8
102
{ACAD_REACTORS
330
AC
102
}
100
AcDbEntity
  8
SPACE
  6
CONTINUOUS
100
AcDbLine
 10
25.02357
 20
16.632968
 30
0.0
 11
25.02357
 21
22.694371
 31
0.0
  0
LINE
  5
A9
102
{ACAD_REACTORS
330
AC
102
}
100
AcDbEntity
  8
SPACE
  6
CONTINUOUS
100
AcDbLine
 10
25.02357
 20
22.694371
 30
0.0
 11
14.291626
 21
22.694371
 31
0.0
  0
LINE
  5
AA
102
{ACAD_REACTORS
330
AC
102
}
100
AcDbEntity
  8
SPACE
  6
CONTINUOUS
100
AcDbLine
 10
14.291626
 20
22.694371
 30
0.0
 11
14.291626
 21
16.632968
 31
0.0
  0
LINE
  5
AB
102
{ACAD_REACTORS
330
AC
102
}
100
AcDbEntity
  8
SPACE
  6
CONTINUOUS
100
AcDbLine
 10
14.291626
 20
16.632968
 30
0.0
 11
25.023571
 21
16.632968
 31
0.0
  0
HATCH
  5
AC
102
{ACAD_REACTORS
330
A7
102
}
100
AcDbEntity
  8
SPACE
 62
     6
100
AcDbHatch
 10
0.0
 20
0.0
 30
0.0
210
0.0
220
0.0
230
1.0
  2
SOLID
 70
     1
 71
     1
 91
        1
 92
        1
 93
        5
 72
     1
 10
25.0235702260395279
 20
16.6329675473873522
 11
25.0235702260395279
 21
22.694370948332228
 72
     1
 10
25.0235702260395279
 20
22.694370948332228
 11
14.2916255286675096
 21
22.694370948332228
 72
     1
 10
14.2916255286675096
 20
22.694370948332228
 11
14.2916255286675096
 21
16.6329675473873522
 72
     1
 10
14.2916255286675096
 20
16.6329675473873522
 11
25.0235705665093064
 21
16.6329675473873522
 72
     1
 10
25.0235705665093064
 20
16.6329675473873522
 11
25.0235702260395279
 21
16.6329675473873522
 97
        4
330
A8
330
A9
330
AA
330
AB
 75
     0
 76
     1
 98
        0
  0
MTEXT
  5
AD
100
AcDbEntity
  8
SPACE
100
AcDbMText
 10
19.657598
 20
19.903386
 30
0.0
 40
0.500004
 41
2.946903
 71
     5
 72
     5
  1
\C7;\fCalibri|b0|i0|;\H0.50000381469727;Lobby\P65 sq. ft.\P\P
  0
LWPOLYLINE
  5
B0
102
{ACAD_REACTORS
330
B1
102
}
100
AcDbEntity
  8
BUILDING_ENVELOPE
  6
CONTINUOUS
 62
     7
100
AcDbPolyline
 90
        4
 70
     1
 10
0.356904
 20
45.166667
 10
0.356904
 20
0.5
 10
0.02357
 20
0.166667
 10
0.02357
 20
45.5
  0
HATCH
  5
B1
102
{ACAD_REACTORS
330
AE
102
}
100
AcDbEntity
  8
BUILDING_ENVELOPE
 62
     7
100
AcDbHatch
 10
0.0
 20
0.0
 30
0.0
210
0.0
220
0.0
230
1.0
  2
SOLID
 70
     1
 71
     1
 91
        1
 92
        3
 72
     0
 73
     1
 93
        4
 10
0.3569035593728856
 20
45.1666666666666643
 10
0.3569035593728856
 20
0.5
 10
0.0235702260395523
 20
0.1666666666666667
 10
0.0235702260395523
 20
45.5
 97
        1
330
B0
 75
     0
 76
     1
 98
        0
  0
LINE
  5
B2
102
{ACAD_REACTORS
330
AE
102
}
100
AcDbEntity
  8
BUILDING_ENVELOPE
  6
CONTINUOUS
 62
     7
100
AcDbLine
 10
0.356904
 20
45.166667
 30
0.0
 11
0.356904
 21
0.5
 31
0.0
  0
LINE
  5
B3
102
{ACAD_REACTORS
330
AE
102
}
100
AcDbEntity
  8
BUILDING_ENVELOPE
  6
CONTINUOUS
 62
     7
100
AcDbLine
 10
0.02357
 20
45.5
 30
0.0
 11
0.02357
 21
0.166667
 31
0.0
  0
LWPOLYLINE
  5
B5
102
{ACAD_REACTORS
330
B6
102
}
100
AcDbEntity
  8
BUILDING_ENVELOPE
  6
CONTINUOUS
 62
     7
100
AcDbPolyline
 90
        4
 70
     1
 10
25.356904
 20
45.5
 10
25.356904
 20
0.166667
 10
25.02357
 20
0.5
 10
25.02357
 20
45.166667
  0
HATCH
  5
B6
102
{ACAD_REACTORS
330
B4
102
}
100
AcDbEntity
  8
BUILDING_ENVELOPE
 62
     7
100
AcDbHatch
 10
0.0
 20
0.0
 30
0.0
210
0.0
220
0.0
230
1.0
  2
SOLID
 70
     1
 71
     1
 91
        1
 92
        3
 72
     0
 73
     1
 93
        4
 10
25.3569035593728813
 20
45.5000000000000355
 10
25.3569035593728813
 20
0.1666666666667045
 10
25.0235702260395456
 20
0.5000000000000379
 10
25.0235702260395456
 20
45.1666666666666998
 97
        1
330
B5
 75
     0
 76
     1
 98
        0
  0
LINE
  5
B7
102
{ACAD_REACTORS
330
B4
102
}
100
AcDbEntity
  8
BUILDING_ENVELOPE
  6
CONTINUOUS
 62
     7
100
AcDbLine
 10
25.356904
 20
45.5
 30
0.0
 11
25.356904
 21
0.166667
 31
0.0
  0
LINE
  5
B8
102
{ACAD_REACTORS
330
B4
102
}
100
AcDbEntity
  8
BUILDING_ENVELOPE
  6
CONTINUOUS
 62
     7
100
AcDbLine
 10
25.02357
 20
45.166667
 30
0.0
 11
25.02357
 21
0.5
 31
0.0
  0
LWPOLYLINE
  5
BA
102
{ACAD_REACTORS
330
BB
102
}
100
AcDbEntity
  8
BUILDING_ENVELOPE
  6
CONTINUOUS
 62
     7
100
AcDbPolyline
 90
        4
 70
     1
 10
0.02357
 20
45.5
 10
25.356904
 20
45.5
 10
25.02357
 20
45.166667
 10
0.356904
 20
45.166667
  0
HATCH
  5
BB
102
{ACAD_REACTORS
330
B9
102
}
100
AcDbEntity
  8
BUILDING_ENVELOPE
 62
     7
100
AcDbHatch
 10
0.0
 20
0.0
 30
0.0
210
0.0
220
0.0
230
1.0
  2
SOLID
 70
     1
 71
     1
 91
        1
 92
        3
 72
     0
 73
     1
 93
        4
 10
0.0235702260395479
 20
45.5
 10
25.3569035593728813
 20
45.5
 10
25.0235702260395456
 20
45.1666666666666643
 10
0.3569035593728836
 20
45.1666666666666643
 97
        1
330
BA
 75
     0
 76
     1
 98
        0
  0
LINE
  5
BC
102
{ACAD_REACTORS
330
B9
102
}
100
AcDbEntity
  8
BUILDING_ENVELOPE
  6
CONTINUOUS
 62
     7
100
AcDbLine
 10
0.02357
 20
45.5
 30
0.0
 11
25.356904
 21
45.5
 31
0.0
  0
LINE
  5
BD
102
{ACAD_REACTORS
330
B9
102
}
100
AcDbEntity
  8
BUILDING_ENVELOPE
  6
CONTINUOUS
 62
     7
100
AcDbLine
 10
0.356904
 20
45.166667
 30
0.0
 11
25.02357
 21
45.166667
 31
0.0
  0
LWPOLYLINE
  5
BF
102
{ACAD_REACTORS
330
C0
102
}
100
AcDbEntity
  8
BUILDING_ENVELOPE
  6
CONTINUOUS
 62
     7
100
AcDbPolyline
 90
        4
 70
     1
 10
0.356904
 20
0.5
 10
25.02357
 20
0.5
 10
25.356904
 20
0.166667
 10
0.02357
 20
0.166667
  0
HATCH
  5
C0
102
{ACAD_REACTORS
330
BE
102
}
100
AcDbEntity
  8
BUILDING_ENVELOPE
 62
     7
100
AcDbHatch
 10
0.0
 20
0.0
 30
0.0
210
0.0
220
0.0
230
1.0
  2
SOLID
 70
     1
 71
     1
 91
        1
 92
        3
 72
     0
 73
     1
 93
        4
 10
0.356903559372879
 20
0.5
 10
25.0235702260395456
 20
0.5
 10
25.3569035593728813
 20
0.1666666666666667
 10
0.0235702260395504
 20
0.1666666666666667
 97
        1
330
BF
 75
     0
 76
     1
 98
        0
  0
LINE
  5
C1
102
{ACAD_REACTORS
330
BE
102
}
100
AcDbEntity
  8
BUILDING_ENVELOPE
  6
CONTINUOUS
 62
     7
100
AcDbLine
 10
0.356904
 20
0.5
 30
0.0
 11
25.02357
 21
0.5
 31
0.0
  0
LINE
  5
C2
102
{ACAD_REACTORS
330
BE
102
}
100
AcDbEntity
  8
BUILDING_ENVELOPE
  6
CONTINUOUS
 62
     7
100
AcDbLine
 10
0.02357
 20
0.166667
 30
0.0
 11
25.356904
 21
0.166667
 31
0.0
  0
LWPOLYLINE
  5
C4
102
{ACAD_REACTORS
330
C5
102
}
100
AcDbEntity
  8
BUILDING_ENVELOPE
  6
CONTINUOUS
 62
     7
100
AcDbPolyline
 90
        4
 70
     1
 10
0.356904
 20
27.918056
 10
25.02357
 20
27.918056
 10
25.02357
 20
27.584722
 10
0.356904
 20
27.584722
  0
HATCH
  5
C5
102
{ACAD_REACTORS
330
C3
102
}
100
AcDbEntity
  8
BUILDING_ENVELOPE
 62
     7
100
AcDbHatch
 10
0.0
 20
0.0
 30
0.0
210
0.0
220
0.0
230
1.0
  2
SOLID
 70
     1
 71
     1
 91
        1
 92
        3
 72
     0
 73
     1
 93
        4
 10
0.35690355937288
 20
27.9180555555555827
 10
25.0235702260395456
 20
27.9180555555555827
 10
25.0235702260395456
 20
27.584722222222247
 10
0.3569035593728836
 20
27.584722222222247
 97
        1
330
C4
 75
     0
 76
     1
 98
        0
  0
LWPOLYLINE
  5
C6
102
{ACAD_REACTORS
330
C7
102
}
100
AcDbEntity
  8
BUILDING_ENVELOPE
  6
CONTINUOUS
 62
     7
100
AcDbPolyline
 90
        4
 70
     1
 10
0.356904
 20
27.584722
 10
0.356904
 20
27.918056
 10
0.32357
 20
27.918056
 10
0.32357
 20
27.584722
  0
HATCH
  5
C7
102
{ACAD_REACTORS
330
C3
102
}
100
AcDbEntity
  8
BUILDING_ENVELOPE
 62
     7
100
AcDbHatch
 10
0.0
 20
0.0
 30
0.0
210
0.0
220
0.0
230
1.0
  2
SOLID
 70
     1
 71
     1
 91
        1
 92
        3
 72
     0
 73
     1
 93
        4
 10
0.3569035593728818
 20
27.584722222222247
 10
0.3569035593728818
 20
27.9180555555555827
 10
0.3235702260395484
 20
27.9180555555555827
 10
0.3235702260395484
 20
27.584722222222247
 97
        1
330
C6
 75
     0
 76
     1
 98
        0
  0
LWPOLYLINE
  5
C8
102
{ACAD_REACTORS
330
C9
102
}
100
AcDbEntity
  8
BUILDING_ENVELOPE
  6
CONTINUOUS
 62
     7
100
AcDbPolyline
 90
        4
 70
     1
 10
25.02357
 20
27.918056
 10
25.02357
 20
27.584722
 10
25.056904
 20
27.584722
 10
25.056904
 20
27.918056
  0
HATCH
  5
C9
102
{ACAD_REACTORS
330
C3
102
}
100
AcDbEntity
  8
BUILDING_ENVELOPE
 62
     7
100
AcDbHatch
 10
0.0
 20
0.0
 30
0.0
210
0.0
220
0.0
230
1.0
  2
SOLID
 70
     1
 71
     1
 91
        1
 92
        3
 72
     0
 73
     1
 93
        4
 10
25.0235702260395456
 20
27.9180555555555827
 10
25.0235702260395456
 20
27.584722222222247
 10
25.0569035593728771
 20
27.584722222222247
 10
25.0569035593728771
 20
27.9180555555555827
 97
        1
330
C8
 75
     0
 76
     1
 98
        0
  0
LINE
  5
CA
102
{ACAD_REACTORS
330
C3
102
}
100
AcDbEntity
  8
BUILDING_ENVELOPE
  6
CONTINUOUS
 62
     7
100
AcDbLine
 10
0.356904
 20
27.918056
 30
0.0
 11
25.02357
 21
27.918056
 31
0.0
  0
LINE
  5
CB
102
{ACAD_REACTORS
330
C3
102
}
100
AcDbEntity
  8
BUILDING_ENVELOPE
  6
CONTINUOUS
 62
     7
100
AcDbLine
 10
0.356904
 20
27.584722
 30
0.0
 11
25.02357
 21
27.584722
 31
0.0
  0
LWPOLYLINE
  5
CD
102
{ACAD_REACTORS
330
CE
102
}
100
AcDbEntity
  8
BUILDING_ENVELOPE
  6
CONTINUOUS
 62
     7
100
AcDbPolyline
 90
        4
 70
     1
 10
14.291626
 20
4.318133
 10
25.02357
 20
4.318133
 10
25.02357
 20
3.984799
 10
13.958292
 20
3.984799
  0
HATCH
  5
CE
102
{ACAD_REACTORS
330
CC
102
}
100
AcDbEntity
  8
BUILDING_ENVELOPE
 62
     7
100
AcDbHatch
 10
0.0
 20
0.0
 30
0.0
210
0.0
220
0.0
230
1.0
  2
SOLID
 70
     1
 71
     1
 91
        1
 92
        3
 72
     0
 73
     1
 93
        4
 10
14.291625528667506
 20
4.3181327835020884
 10
25.0235702260395456
 20
4.3181327835020884
 10
25.0235702260395563
 20
3.9847994501687554
 10
13.9582921953341756
 20
3.9847994501687554
 97
        1
330
CD
 75
     0
 76
     1
 98
        0
  0
LWPOLYLINE
  5
CF
102
{ACAD_REACTORS
330
D0
102
}
100
AcDbEntity
  8
BUILDING_ENVELOPE
  6
CONTINUOUS
 62
     7
100
AcDbPolyline
 90
        4
 70
     1
 10
25.02357
 20
4.318133
 10
25.02357
 20
3.984799
 10
25.056904
 20
3.984799
 10
25.056904
 20
4.318133
  0
HATCH
  5
D0
102
{ACAD_REACTORS
330
CC
102
}
100
AcDbEntity
  8
BUILDING_ENVELOPE
 62
     7
100
AcDbHatch
 10
0.0
 20
0.0
 30
0.0
210
0.0
220
0.0
230
1.0
  2
SOLID
 70
     1
 71
     1
 91
        1
 92
        3
 72
     0
 73
     1
 93
        4
 10
25.0235702260395563
 20
4.3181327835020884
 10
25.0235702260395563
 20
3.9847994501687554
 10
25.0569035593728913
 20
3.9847994501687554
 10
25.0569035593728913
 20
4.3181327835020884
 97
        1
330
CF
 75
     0
 76
     1
 98
        0
  0
LINE
  5
D1
102
{ACAD_REACTORS
330
CC
102
}
100
AcDbEntity
  8
BUILDING_ENVELOPE
  6
CONTINUOUS
 62
     7
100
AcDbLine
 10
14.291626
 20
4.318133
 30
0.0
 11
25.02357
 21
4.318133
 31
0.0
  0
LINE
  5
D2
102
{ACAD_REACTORS
330
CC
102
}
100
AcDbEntity
  8
BUILDING_ENVELOPE
  6
CONTINUOUS
 62
     7
100
AcDbLine
 10
13.958292
 20
3.984799
 30
0.0
 11
25.02357
 21
3.984799
 31
0.0
  0
LWPOLYLINE
  5
D4
102
{ACAD_REACTORS
330
D5
102
}
100
AcDbEntity
  8
BUILDING_ENVELOPE
  6
CONTINUOUS
 62
     7
100
AcDbPolyline
 90
        4
 70
     1
 10
13.958292
 20
3.984799
 10
13.958292
 20
45.166667
 10
14.291626
 20
45.166667
 10
14.291626
 20
4.318133
  0
HATCH
  5
D5
102
{ACAD_REACTORS
330
D3
102
}
100
AcDbEntity
  8
BUILDING_ENVELOPE
 62
     7
100
AcDbHatch
 10
0.0
 20
0.0
 30
0.0
210
0.0
220
0.0
230
1.0
  2
SOLID
 70
     1
 71
     1
 91
        1
 92
        3
 72
     0
 73
     1
 93
        4
 10
13.9582921953341739
 20
3.9847994501687367
 10
13.9582921953341739
 20
45.1666666666666714
 10
14.291625528667506
 20
45.1666666666666714
 10
14.291625528667506
 20
4.3181327835020724
 97
        1
330
D4
 75
     0
 76
     1
 98
        0
  0
LWPOLYLINE
  5
D6
102
{ACAD_REACTORS
330
D7
102
}
100
AcDbEntity
  8
BUILDING_ENVELOPE
  6
CONTINUOUS
 62
     7
100
AcDbPolyline
 90
        4
 70
     1
 10
13.958292
 20
45.166667
 10
14.291626
 20
45.166667
 10
14.291626
 20
45.2
 10
13.958292
 20
45.2
  0
HATCH
  5
D7
102
{ACAD_REACTORS
330
D3
102
}
100
AcDbEntity
  8
BUILDING_ENVELOPE
 62
     7
100
AcDbHatch
 10
0.0
 20
0.0
 30
0.0
210
0.0
220
0.0
230
1.0
  2
SOLID
 70
     1
 71
     1
 91
        1
 92
        3
 72
     0
 73
     1
 93
        4
 10
13.9582921953341739
 20
45.1666666666666714
 10
14.291625528667506
 20
45.1666666666666714
 10
14.291625528667506
 20
45.2000000000000028
 10
13.9582921953341739
 20
45.2000000000000028
 97
        1
330
D6
 75
     0
 76
     1
 98
        0
  0
LINE
  5
D8
102
{ACAD_REACTORS
330
D3
102
}
100
AcDbEntity
  8
BUILDING_ENVELOPE
  6
CONTINUOUS
 62
     7
100
AcDbLine
 10
13.958292
 20
3.984799
 30
0.0
 11
13.958292
 21
45.166667
 31
0.0
  0
LINE
  5
D9
102
{ACAD_REACTORS
330
D3
102
}
100
AcDbEntity
  8
BUILDING_ENVELOPE
  6
CONTINUOUS
 62
     7
100
AcDbLine
 10
14.291626
 20
4.318133
 30
0.0
 11
14.291626
 21
45.166667
 31
0.0
  0
LWPOLYLINE
  5
DB
102
{ACAD_REACTORS
330
DC
102
}
100
AcDbEntity
  8
BUILDING_ENVELOPE
  6
CONTINUOUS
 62
     7
100
AcDbPolyline
 90
        4
 70
     1
 10
9.013803
 20
31.102266
 10
9.013803
 20
45.166667
 10
9.347136
 20
45.166667
 10
9.347136
 20
31.435599
  0
HATCH
  5
DC
102
{ACAD_REACTORS
330
DA
102
}
100
AcDbEntity
  8
BUILDING_ENVELOPE
 62
     7
100
AcDbHatch
 10
0.0
 20
0.0
 30
0.0
210
0.0
220
0.0
230
1.0
  2
SOLID
 70
     1
 71
     1
 91
        1
 92
        3
 72
     0
 73
     1
 93
        4
 10
9.0138027132407661
 20
31.1022655434017921
 10
9.0138027132407661
 20
45.166666666666643
 10
9.3471360465741
 20
45.1666666666666643
 10
9.3471360465741
 20
31.4355988767351278
 97
        1
330
DB
 75
     0
 76
     1
 98
        0
  0
LWPOLYLINE
  5
DD
102
{ACAD_REACTORS
330
DE
102
}
100
AcDbEntity
  8
BUILDING_ENVELOPE
  6
CONTINUOUS
 62
     7
100
AcDbPolyline
 90
        4
 70
     1
 10
9.013803
 20
45.166667
 10
9.347136
 20
45.166667
 10
9.347136
 20
45.2
 10
9.013803
 20
45.2
  0
HATCH
  5
DE
102
{ACAD_REACTORS
330
DA
102
}
100
AcDbEntity
  8
BUILDING_ENVELOPE
 62
     7
100
AcDbHatch
 10
0.0
 20
0.0
 30
0.0
210
0.0
220
0.0
230
1.0
  2
SOLID
 70
     1
 71
     1
 91
        1
 92
        3
 72
     0
 73
     1
 93
        4
 10
9.0138027132407661
 20
45.1666666666666643
 10
9.3471360465741
 20
45.1666666666666643
 10
9.3471360465741
 20
45.1999999999999957
 10
9.0138027132407661
 20
45.1999999999999957
 97
        1
330
DD
 75
     0
 76
     1
 98
        0
  0
LINE
  5
DF
102
{ACAD_REACTORS
330
DA
102
}
100
AcDbEntity
  8
BUILDING_ENVELOPE
  6
CONTINUOUS
 62
     7
100
AcDbLine
 10
9.013803
 20
31.102266
 30
0.0
 11
9.013803
 21
45.166667
 31
0.0
  0
LINE
  5
E0
102
{ACAD_REACTORS
330
DA
102
}
100
AcDbEntity
  8
BUILDING_ENVELOPE
  6
CONTINUOUS
 62
     7
100
AcDbLine
 10
9.347136
 20
31.435599
 30
0.0
 11
9.347136
 21
45.166667
 31
0.0
  0
LWPOLYLINE
  5
E2
102
{ACAD_REACTORS
330
E3
102
}
100
AcDbEntity
  8
BUILDING_ENVELOPE
  6
CONTINUOUS
 62
     7
100
AcDbPolyline
 90
        4
 70
     1
 10
14.291626
 20
23.027704
 10
25.02357
 20
23.027704
 10
25.02357
 20
22.694371
 10
14.291626
 20
22.694371
  0
HATCH
  5
E3
102
{ACAD_REACTORS
330
E1
102
}
100
AcDbEntity
  8
BUILDING_ENVELOPE
 62
     7
100
AcDbHatch
 10
0.0
 20
0.0
 30
0.0
210
0.0
220
0.0
230
1.0
  2
SOLID
 70
     1
 71
     1
 91
        1
 92
        3
 72
     0
 73
     1
 93
        4
 10
14.2916255286675113
 20
23.0277042816655566
 10
25.0235702260395527
 20
23.0277042816655566
 10
25.0235702260395527
 20
22.6943709483322245
 10
14.2916255286675113
 20
22.6943709483322245
 97
        1
330
E2
 75
     0
 76
     1
 98
        0
  0
LWPOLYLINE
  5
E4
102
{ACAD_REACTORS
330
E5
102
}
100
AcDbEntity
  8
BUILDING_ENVELOPE
  6
CONTINUOUS
 62
     7
100
AcDbPolyline
 90
        4
 70
     1
 10
14.291626
 20
22.694371
 10
14.291626
 20
23.027704
 10
14.258292
 20
23.027704
 10
14.258292
 20
22.694371
  0
HATCH
  5
E5
102
{ACAD_REACTORS
330
E1
102
}
100
AcDbEntity
  8
BUILDING_ENVELOPE
 62
     7
100
AcDbHatch
 10
0.0
 20
0.0
 30
0.0
210
0.0
220
0.0
230
1.0
  2
SOLID
 70
     1
 71
     1
 91
        1
 92
        3
 72
     0
 73
     1
 93
        4
 10
14.2916255286675113
 20
22.6943709483322245
 10
14.2916255286675113
 20
23.0277042816655566
 10
14.2582921953341781
 20
23.0277042816655566
 10
14.2582921953341781
 20
22.6943709483322245
 97
        1
330
E4
 75
     0
 76
     1
 98
        0
  0
LWPOLYLINE
  5
E6
102
{ACAD_REACTORS
330
E7
102
}
100
AcDbEntity
  8
BUILDING_ENVELOPE
  6
CONTINUOUS
 62
     7
100
AcDbPolyline
 90
        4
 70
     1
 10
25.02357
 20
23.027704
 10
25.02357
 20
22.694371
 10
25.056904
 20
22.694371
 10
25.056904
 20
23.027704
  0
HATCH
  5
E7
102
{ACAD_REACTORS
330
E1
102
}
100
AcDbEntity
  8
BUILDING_ENVELOPE
 62
     7
100
AcDbHatch
 10
0.0
 20
0.0
 30
0.0
210
0.0
220
0.0
230
1.0
  2
SOLID
 70
     1
 71
     1
 91
        1
 92
        3
 72
     0
 73
     1
 93
        4
 10
25.0235702260395527
 20
23.0277042816655566
 10
25.0235702260395527
 20
22.6943709483322245
 10
25.0569035593728877
 20
22.6943709483322245
 10
25.0569035593728877
 20
23.0277042816655566
 97
        1
330
E6
 75
     0
 76
     1
 98
        0
  0
LINE
  5
E8
102
{ACAD_REACTORS
330
E1
102
}
100
AcDbEntity
  8
BUILDING_ENVELOPE
  6
CONTINUOUS
 62
     7
100
AcDbLine
 10
14.291626
 20
23.027704
 30
0.0
 11
25.02357
 21
23.027704
 31
0.0
  0
LINE
  5
E9
102
{ACAD_REACTORS
330
E1
102
}
100
AcDbEntity
  8
BUILDING_ENVELOPE
  6
CONTINUOUS
 62
     7
100
AcDbLine
 10
14.291626
 20
22.694371
 30
0.0
 11
25.02357
 21
22.694371
 31
0.0
  0
LWPOLYLINE
  5
EB
102
{ACAD_REACTORS
330
EC
102
}
100
AcDbEntity
  8
BUILDING_ENVELOPE
  6
CONTINUOUS
 62
     7
100
AcDbPolyline
 90
        4
 70
     1
 10
14.291626
 20
16.632968
 10
25.02357
 20
16.632968
 10
25.02357
 20
16.299634
 10
14.291626
 20
16.299634
  0
HATCH
  5
EC
102
{ACAD_REACTORS
330
EA
102
}
100
AcDbEntity
  8
BUILDING_ENVELOPE
 62
     7
100
AcDbHatch
 10
0.0
 20
0.0
 30
0.0
210
0.0
220
0.0
230
1.0
  2
SOLID
 70
     1
 71
     1
 91
        1
 92
        3
 72
     0
 73
     1
 93
        4
 10
14.2916255286675113
 20
16.6329675473873486
 10
25.0235702260395527
 20
16.6329675473873486
 10
25.0235702260395527
 20
16.2996342140540165
 10
14.2916255286675113
 20
16.2996342140540165
 97
        1
330
EB
 75
     0
 76
     1
 98
        0
  0
LWPOLYLINE
  5
ED
102
{ACAD_REACTORS
330
EE
102
}
100
AcDbEntity
  8
BUILDING_ENVELOPE
  6
CONTINUOUS
 62
     7
100
AcDbPolyline
 90
        4
 70
     1
 10
14.291626
 20
16.299634
 10
14.291626
 20
16.632968
 10
14.258292
 20
16.632968
 10
14.258292
 20
16.299634
  0
HATCH
  5
EE
102
{ACAD_REACTORS
330
EA
102
}
100
AcDbEntity
  8
BUILDING_ENVELOPE
 62
     7
100
AcDbHatch
 10
0.0
 20
0.0
 30
0.0
210
0.0
220
0.0
230
1.0
  2
SOLID
 70
     1
 71
     1
 91
        1
 92
        3
 72
     0
 73
     1
 93
        4
 10
14.2916255286675113
 20
16.2996342140540165
 10
14.2916255286675113
 20
16.6329675473873486
 10
14.2582921953341781
 20
16.6329675473873486
 10
14.2582921953341781
 20
16.2996342140540165
 97
        1
330
ED
 75
     0
 76
     1
 98
        0
  0
LWPOLYLINE
  5
EF
102
{ACAD_REACTORS
330
F0
102
}
100
AcDbEntity
  8
BUILDING_ENVELOPE
  6
CONTINUOUS
 62
     7
100
AcDbPolyline
 90
        4
 70
     1
 10
25.02357
 20
16.632968
 10
25.02357
 20
16.299634
 10
25.056904
 20
16.299634
 10
25.056904
 20
16.632968
  0
HATCH
  5
F0
102
{ACAD_REACTORS
330
EA
102
}
100
AcDbEntity
  8
BUILDING_ENVELOPE
 62
     7
100
AcDbHatch
 10
0.0
 20
0.0
 30
0.0
210
0.0
220
0.0
230
1.0
  2
SOLID
 70
     1
 71
     1
 91
        1
 92
        3
 72
     0
 73
     1
 93
        4
 10
25.0235702260395527
 20
16.6329675473873486
 10
25.0235702260395527
 20
16.2996342140540165
 10
25.0569035593728877
 20
16.2996342140540165
 10
25.0569035593728877
 20
16.6329675473873486
 97
        1
330
EF
 75
     0
 76
     1
 98
        0
  0
LINE
  5
F1
102
{ACAD_REACTORS
330
EA
102
}
100
AcDbEntity
  8
BUILDING_ENVELOPE
  6
CONTINUOUS
 62
     7
100
AcDbLine
 10
14.291626
 20
16.632968
 30
0.0
 11
25.02357
 21
16.632968
 31
0.0
  0
LINE
  5
F2
102
{ACAD_REACTORS
330
EA
102
}
100
AcDbEntity
  8
BUILDING_ENVELOPE
  6
CONTINUOUS
 62
     7
100
AcDbLine
 10
14.291626
 20
16.299634
 30
0.0
 11
25.02357
 21
16.299634
 31
0.0
  0
LWPOLYLINE
  5
F4
102
{ACAD_REACTORS
330
F5
102
}
100
AcDbEntity
  8
BUILDING_ENVELOPE
  6
CONTINUOUS
 62
     7
100
AcDbPolyline
 90
        4
 70
     1
 10
0.356904
 20
40.501388
 10
9.013803
 20
40.501388
 10
9.013803
 20
40.168055
 10
0.356904
 20
40.168055
  0
HATCH
  5
F5
102
{ACAD_REACTORS
330
F3
102
}
100
AcDbEntity
  8
BUILDING_ENVELOPE
 62
     7
100
AcDbHatch
 10
0.0
 20
0.0
 30
0.0
210
0.0
220
0.0
230
1.0
  2
SOLID
 70
     1
 71
     1
 91
        1
 92
        3
 72
     0
 73
     1
 93
        4
 10
0.3569035593728792
 20
40.5013881975534105
 10
9.013802713240759
 20
40.5013881975534105
 10
9.0138027132407679
 20
40.1680548642200819
 10
0.3569035593728854
 20
40.1680548642200819
 97
        1
330
F4
 75
     0
 76
     1
 98
        0
  0
LWPOLYLINE
  5
F6
102
{ACAD_REACTORS
330
F7
102
}
100
AcDbEntity
  8
BUILDING_ENVELOPE
  6
CONTINUOUS
 62
     7
100
AcDbPolyline
 90
        4
 70
     1
 10
0.356904
 20
40.168055
 10
0.356904
 20
40.501388
 10
0.32357
 20
40.501388
 10
0.32357
 20
40.168055
  0
HATCH
  5
F7
102
{ACAD_REACTORS
330
F3
102
}
100
AcDbEntity
  8
BUILDING_ENVELOPE
 62
     7
100
AcDbHatch
 10
0.0
 20
0.0
 30
0.0
210
0.0
220
0.0
230
1.0
  2
SOLID
 70
     1
 71
     1
 91
        1
 92
        3
 72
     0
 73
     1
 93
        4
 10
0.3569035593728823
 20
40.1680548642200819
 10
0.3569035593728823
 20
40.5013881975534105
 10
0.323570226039549
 20
40.5013881975534105
 10
0.323570226039549
 20
40.1680548642200819
 97
        1
330
F6
 75
     0
 76
     1
 98
        0
  0
LWPOLYLINE
  5
F8
102
{ACAD_REACTORS
330
F9
102
}
100
AcDbEntity
  8
BUILDING_ENVELOPE
  6
CONTINUOUS
 62
     7
100
AcDbPolyline
 90
        4
 70
     1
 10
9.013803
 20
40.501388
 10
9.013803
 20
40.168055
 10
9.047136
 20
40.168055
 10
9.047136
 20
40.501388
  0
HATCH
  5
F9
102
{ACAD_REACTORS
330
F3
102
}
100
AcDbEntity
  8
BUILDING_ENVELOPE
 62
     7
100
AcDbHatch
 10
0.0
 20
0.0
 30
0.0
210
0.0
220
0.0
230
1.0
  2
SOLID
 70
     1
 71
     1
 91
        1
 92
        3
 72
     0
 73
     1
 93
        4
 10
9.013802713240759
 20
40.5013881975534105
 10
9.013802713240759
 20
40.1680548642200819
 10
9.0471360465740922
 20
40.1680548642200819
 10
9.0471360465740922
 20
40.5013881975534105
 97
        1
330
F8
 75
     0
 76
     1
 98
        0
  0
LINE
  5
FA
102
{ACAD_REACTORS
330
F3
102
}
100
AcDbEntity
  8
BUILDING_ENVELOPE
  6
CONTINUOUS
 62
     7
100
AcDbLine
 10
0.356904
 20
40.501388
 30
0.0
 11
9.013803
 21
40.501388
 31
0.0
  0
LINE
  5
FB
102
{ACAD_REACTORS
330
F3
102
}
100
AcDbEntity
  8
BUILDING_ENVELOPE
  6
CONTINUOUS
 62
     7
100
AcDbLine
 10
0.356904
 20
40.168055
 30
0.0
 11
9.013803
 21
40.168055
 31
0.0
  0
LWPOLYLINE
  5
FD
102
{ACAD_REACTORS
330
FE
102
}
100
AcDbEntity
  8
BUILDING_ENVELOPE
  6
CONTINUOUS
 62
     7
100
AcDbPolyline
 90
        4
 70
     1
 10
9.347136
 20
37.001388
 10
13.958292
 20
37.001388
 10
13.958292
 20
36.668055
 10
9.347136
 20
36.668055
  0
HATCH
  5
FE
102
{ACAD_REACTORS
330
FC
102
}
100
AcDbEntity
  8
BUILDING_ENVELOPE
 62
     7
100
AcDbHatch
 10
0.0
 20
0.0
 30
0.0
210
0.0
220
0.0
230
1.0
  2
SOLID
 70
     1
 71
     1
 91
        1
 92
        3
 72
     0
 73
     1
 93
        4
 10
9.3471360465740965
 20
37.0013882565699248
 10
13.9582921953341774
 20
37.0013882565699248
 10
13.958292195334181
 20
36.6680549232365891
 10
9.3471360465741
 20
36.6680549232365891
 97
        1
330
FD
 75
     0
 76
     1
 98
        0
  0
LWPOLYLINE
  5
FF
102
{ACAD_REACTORS
330
100
102
}
100
AcDbEntity
  8
BUILDING_ENVELOPE
  6
CONTINUOUS
 62
     7
100
AcDbPolyline
 90
        4
 70
     1
 10
9.347136
 20
36.668055
 10
9.347136
 20
37.001388
 10
9.313803
 20
37.001388
 10
9.313803
 20
36.668055
  0
HATCH
  5
100
102
{ACAD_REACTORS
330
FC
102
}
100
AcDbEntity
  8
BUILDING_ENVELOPE
 62
     7
100
AcDbHatch
 10
0.0
 20
0.0
 30
0.0
210
0.0
220
0.0
230
1.0
  2
SOLID
 70
     1
 71
     1
 91
        1
 92
        3
 72
     0
 73
     1
 93
        4
 10
9.3471360465740982
 20
36.6680549232365891
 10
9.3471360465740982
 20
37.0013882565699248
 10
9.313802713240765
 20
37.0013882565699248
 10
9.313802713240765
 20
36.6680549232365891
 97
        1
330
FF
 75
     0
 76
     1
 98
        0
  0
LWPOLYLINE
  5
101
102
{ACAD_REACTORS
330
102
102
}
100
AcDbEntity
  8
BUILDING_ENVELOPE
  6
CONTINUOUS
 62
     7
100
AcDbPolyline
 90
        4
 70
     1
 10
13.958292
 20
37.001388
 10
13.958292
 20
36.668055
 10
13.991626
 20
36.668055
 10
13.991626
 20
37.001388
  0
HATCH
  5
102
102
{ACAD_REACTORS
330
FC
102
}
100
AcDbEntity
  8
BUILDING_ENVELOPE
 62
     7
100
AcDbHatch
 10
0.0
 20
0.0
 30
0.0
210
0.0
220
0.0
230
1.0
  2
SOLID
 70
     1
 71
     1
 91
        1
 92
        3
 72
     0
 73
     1
 93
        4
 10
13.958292195334181
 20
37.0013882565699248
 10
13.958292195334181
 20
36.6680549232365891
 10
13.9916255286675124
 20
36.6680549232365891
 10
13.9916255286675124
 20
37.0013882565699248
 97
        1
330
101
 75
     0
 76
     1
 98
        0
  0
LINE
  5
103
102
{ACAD_REACTORS
330
FC
102
}
100
AcDbEntity
  8
BUILDING_ENVELOPE
  6
CONTINUOUS
 62
     7
100
AcDbLine
 10
9.347136
 20
37.001388
 30
0.0
 11
13.958292
 21
37.001388
 31
0.0
  0
LINE
  5
104
102
{ACAD_REACTORS
330
FC
102
}
100
AcDbEntity
  8
BUILDING_ENVELOPE
  6
CONTINUOUS
 62
     7
100
AcDbLine
 10
9.347136
 20
36.668055
 30
0.0
 11
13.958292
 21
36.668055
 31
0.0
  0
LWPOLYLINE
  5
106
102
{ACAD_REACTORS
330
107
102
}
100
AcDbEntity
  8
BUILDING_ENVELOPE
  6
CONTINUOUS
 62
     7
100
AcDbPolyline
 90
        4
 70
     1
 10
9.347136
 20
31.435599
 10
13.958292
 20
31.435599
 10
13.958292
 20
31.102266
 10
9.013803
 20
31.102266
  0
HATCH
  5
107
102
{ACAD_REACTORS
330
105
102
}
100
AcDbEntity
  8
BUILDING_ENVELOPE
 62
     7
100
AcDbHatch
 10
0.0
 20
0.0
 30
0.0
210
0.0
220
0.0
230
1.0
  2
SOLID
 70
     1
 71
     1
 91
        1
 92
        3
 72
     0
 73
     1
 93
        4
 10
9.3471360465740982
 20
31.4355988767351207
 10
13.958292195334181
 20
31.4355988767351207
 10
13.958292195334181
 20
31.1022655434017885
 10
9.0138027132407679
 20
31.1022655434017885
 97
        1
330
106
 75
     0
 76
     1
 98
        0
  0
LWPOLYLINE
  5
108
102
{ACAD_REACTORS
330
109
102
}
100
AcDbEntity
  8
BUILDING_ENVELOPE
  6
CONTINUOUS
 62
     7
100
AcDbPolyline
 90
        4
 70
     1
 10
13.958292
 20
31.435599
 10
13.958292
 20
31.102266
 10
13.991626
 20
31.102266
 10
13.991626
 20
31.435599
  0
HATCH
  5
109
102
{ACAD_REACTORS
330
105
102
}
100
AcDbEntity
  8
BUILDING_ENVELOPE
 62
     7
100
AcDbHatch
 10
0.0
 20
0.0
 30
0.0
210
0.0
220
0.0
230
1.0
  2
SOLID
 70
     1
 71
     1
 91
        1
 92
        3
 72
     0
 73
     1
 93
        4
 10
13.958292195334181
 20
31.4355988767351207
 10
13.958292195334181
 20
31.1022655434017885
 10
13.9916255286675142
 20
31.1022655434017885
 10
13.9916255286675142
 20
31.4355988767351207
 97
        1
330
108
 75
     0
 76
     1
 98
        0
  0
LINE
  5
10A
102
{ACAD_REACTORS
330
105
102
}
100
AcDbEntity
  8
BUILDING_ENVELOPE
  6
CONTINUOUS
 62
     7
100
AcDbLine
 10
9.347136
 20
31.435599
 30
0.0
 11
13.958292
 21
31.435599
 31
0.0
  0
LINE
  5
10B
102
{ACAD_REACTORS
330
105
102
}
100
AcDbEntity
  8
BUILDING_ENVELOPE
  6
CONTINUOUS
 62
     7
100
AcDbLine
 10
9.013803
 20
31.102266
 30
0.0
 11
13.958292
 21
31.102266
 31
0.0
  0
LWPOLYLINE
  5
10D
102
{ACAD_REACTORS
330
10E
102
}
100
AcDbEntity
  8
BUILDING_ENVELOPE
  6
CONTINUOUS
 62
     7
100
AcDbPolyline
 90
        4
 70
     1
 10
21.65566
 20
23.027704
 10
21.65566
 20
27.584722
 10
21.988994
 20
27.584722
 10
21.988994
 20
23.027704
  0
HATCH
  5
10E
102
{ACAD_REACTORS
330
10C
102
}
100
AcDbEntity
  8
BUILDING_ENVELOPE
 62
     7
100
AcDbHatch
 10
0.0
 20
0.0
 30
0.0
210
0.0
220
0.0
230
1.0
  2
SOLID
 70
     1
 71
     1
 91
        1
 92
        3
 72
     0
 73
     1
 93
        4
 10
21.6556604865950106
 20
23.0277042816655531
 10
21.6556604865950106
 20
27.5847222222222683
 10
21.9889938199283428
 20
27.5847222222222719
 10
21.9889938199283428
 20
23.0277042816655566
 97
        1
330
10D
 75
     0
 76
     1
 98
        0
  0
LWPOLYLINE
  5
10F
102
{ACAD_REACTORS
330
110
102
}
100
AcDbEntity
  8
BUILDING_ENVELOPE
  6
CONTINUOUS
 62
     7
100
AcDbPolyline
 90
        4
 70
     1
 10
21.988994
 20
23.027704
 10
21.65566
 20
23.027704
 10
21.65566
 20
22.994371
 10
21.988994
 20
22.994371
  0
HATCH
  5
110
102
{ACAD_REACTORS
330
10C
102
}
100
AcDbEntity
  8
BUILDING_ENVELOPE
 62
     7
100
AcDbHatch
 10
0.0
 20
0.0
 30
0.0
210
0.0
220
0.0
230
1.0
  2
SOLID
 70
     1
 71
     1
 91
        1
 92
        3
 72
     0
 73
     1
 93
        4
 10
21.9889938199283428
 20
23.0277042816655566
 10
21.6556604865950106
 20
23.0277042816655566
 10
21.6556604865950106
 20
22.9943709483322216
 10
21.9889938199283428
 20
22.9943709483322216
 97
        1
330
10F
 75
     0
 76
     1
 98
        0
  0
LWPOLYLINE
  5
111
102
{ACAD_REACTORS
330
112
102
}
100
AcDbEntity
  8
BUILDING_ENVELOPE
  6
CONTINUOUS
 62
     7
100
AcDbPolyline
 90
        4
 70
     1
 10
21.65566
 20
27.584722
 10
21.988994
 20
27.584722
 10
21.988994
 20
27.618056
 10
21.65566
 20
27.618056
  0
HATCH
  5
112
102
{ACAD_REACTORS
330
10C
102
}
100
AcDbEntity
  8
BUILDING_ENVELOPE
 62
     7
100
AcDbHatch
 10
0.0
 20
0.0
 30
0.0
210
0.0
220
0.0
230
1.0
  2
SOLID
 70
     1
 71
     1
 91
        1
 92
        3
 72
     0
 73
     1
 93
        4
 10
21.6556604865950106
 20
27.5847222222222683
 10
21.9889938199283428
 20
27.5847222222222683
 10
21.9889938199283428
 20
27.6180555555556033
 10
21.6556604865950106
 20
27.6180555555556033
 97
        1
330
111
 75
     0
 76
     1
 98
        0
  0
LINE
  5
113
102
{ACAD_REACTORS
330
10C
102
}
100
AcDbEntity
  8
BUILDING_ENVELOPE
  6
CONTINUOUS
 62
     7
100
AcDbLine
 10
21.65566
 20
23.027704
 30
0.0
 11
21.65566
 21
27.584722
 31
0.0
  0
LINE
  5
114
102
{ACAD_REACTORS
330
10C
102
}
100
AcDbEntity
  8
BUILDING_ENVELOPE
  6
CONTINUOUS
 62
     7
100
AcDbLine
 10
21.988994
 20
23.027704
 30
0.0
 11
21.988994
 21
27.584722
 31
0.0
  0
LWPOLYLINE
  5
116
102
{ACAD_REACTORS
330
11C
102
}
100
AcDbEntity
  8
BUILDING_ENVELOPE
  6
CONTINUOUS
 62
     7
100
AcDbPolyline
 90
        4
 70
     1
 10
17.366187
 20
22.686371
 10
14.532854
 20
22.686371
 10
14.532854
 20
23.035704
 10
17.366187
 20
23.035704
  0
LINE
  5
117
102
{ACAD_REACTORS
330
11C
102
}
100
AcDbEntity
  8
BUILDING_ENVELOPE
  6
CONTINUOUS
 62
     7
100
AcDbLine
 10
14.532854
 20
22.694371
 30
0.0
 11
14.532854
 21
23.027704
 31
0.0
  0
LINE
  5
118
102
{ACAD_REACTORS
330
11C
102
}
100
AcDbEntity
  8
BUILDING_ENVELOPE
  6
CONTINUOUS
 62
     7
100
AcDbLine
 10
14.532854
 20
23.027704
 30
0.0
 11
14.69952
 21
23.027704
 31
0.0
  0
LINE
  5
119
102
{ACAD_REACTORS
330
11C
102
}
100
AcDbEntity
  8
BUILDING_ENVELOPE
  6
CONTINUOUS
 62
     7
100
AcDbLine
 10
14.69952
 20
23.027704
 30
0.0
 11
14.69952
 21
22.902704
 31
0.0
  0
LINE
  5
11A
102
{ACAD_REACTORS
330
11C
102
}
100
AcDbEntity
  8
BUILDING_ENVELOPE
  6
CONTINUOUS
 62
     7
100
AcDbLine
 10
14.69952
 20
22.777704
 30
0.0
 11
14.69952
 21
22.694371
 31
0.0
  0
LINE
  5
11B
102
{ACAD_REACTORS
330
11C
102
}
100
AcDbEntity
  8
BUILDING_ENVELOPE
  6
CONTINUOUS
 62
     7
100
AcDbLine
 10
14.69952
 20
22.694371
 30
0.0
 11
14.532854
 21
22.694371
 31
0.0
  0
HATCH
  5
11C
102
{ACAD_REACTORS
330
115
102
}
100
AcDbEntity
  8
BUILDING_ENVELOPE
 62
     7
100
AcDbHatch
 10
0.0
 20
0.0
 30
0.0
210
0.0
220
0.0
230
1.0
  2
SOLID
 70
     1
 71
     1
 91
        2
 92
        1
 93
        6
 72
     1
 10
14.5328535919650506
 20
22.6943709483322245
 11
14.5328535919650506
 21
23.0277042816655566
 72
     1
 10
14.5328535919650506
 20
23.0277042816655566
 11
14.6995202586317166
 21
23.0277042816655566
 72
     1
 10
14.6995202586317166
 20
23.0277042816655566
 11
14.6995202586317166
 21
22.9027042816655566
 72
     1
 10
14.6995202586317166
 20
22.9027042816655566
 11
14.6995202586317166
 21
22.7777042816655566
 72
     1
 10
14.6995202586317166
 20
22.7777042816655566
 11
14.6995202586317166
 21
22.6943709483322245
 72
     1
 10
14.6995202586317166
 20
22.6943709483322245
 11
14.5328535919650506
 21
22.6943709483322245
 97
        6
330
116
330
117
330
118
330
119
330
11A
330
11B
 92
        1
 93
        6
 72
     1
 10
17.3661869252983827
 20
22.6943709483322245
 11
17.3661869252983827
 21
23.0277042816655566
 72
     1
 10
17.3661869252983827
 20
23.0277042816655566
 11
17.1995202586317149
 21
23.0277042816655566
 72
     1
 10
17.1995202586317149
 20
23.0277042816655566
 11
17.1995202586317149
 21
22.9027042816655566
 72
     1
 10
17.1995202586317149
 20
22.9027042816655566
 11
17.1995202586317149
 21
22.7777042816655566
 72
     1
 10
17.1995202586317149
 20
22.7777042816655566
 11
17.1995202586317149
 21
22.6943709483322245
 72
     1
 10
17.1995202586317149
 20
22.6943709483322245
 11
17.3661869252983827
 21
22.6943709483322245
 97
        5
330
11D
330
11E
330
11F
330
120
330
121
 75
     0
 76
     1
 98
        0
  0
LINE
  5
11D
102
{ACAD_REACTORS
330
11C
102
}
100
AcDbEntity
  8
BUILDING_ENVELOPE
  6
CONTINUOUS
 62
     7
100
AcDbLine
 10
17.366187
 20
22.694371
 30
0.0
 11
17.366187
 21
23.027704
 31
0.0
  0
LINE
  5
11E
102
{ACAD_REACTORS
330
11C
102
}
100
AcDbEntity
  8
BUILDING_ENVELOPE
  6
CONTINUOUS
 62
     7
100
AcDbLine
 10
17.366187
 20
23.027704
 30
0.0
 11
17.19952
 21
23.027704
 31
0.0
  0
LINE
  5
11F
102
{ACAD_REACTORS
330
11C
102
}
100
AcDbEntity
  8
BUILDING_ENVELOPE
  6
CONTINUOUS
 62
     7
100
AcDbLine
 10
17.19952
 20
23.027704
 30
0.0
 11
17.19952
 21
22.902704
 31
0.0
  0
LINE
  5
120
102
{ACAD_REACTORS
330
11C
102
}
100
AcDbEntity
  8
BUILDING_ENVELOPE
  6
CONTINUOUS
 62
     7
100
AcDbLine
 10
17.19952
 20
22.777704
 30
0.0
 11
17.19952
 21
22.694371
 31
0.0
  0
LINE
  5
121
102
{ACAD_REACTORS
330
11C
102
}
100
AcDbEntity
  8
BUILDING_ENVELOPE
  6
CONTINUOUS
 62
     7
100
AcDbLine
 10
17.19952
 20
22.694371
 30
0.0
 11
17.366187
 21
22.694371
 31
0.0
  0
LINE
  5
122
102
{ACAD_REACTORS
330
125
102
}
100
AcDbEntity
  8
BUILDING_ENVELOPE
  6
CONTINUOUS
 62
     7
100
AcDbLine
 10
14.69952
 20
22.902704
 30
0.0
 11
14.741187
 21
22.902704
 31
0.0
  0
LINE
  5
123
102
{ACAD_REACTORS
330
125
102
}
100
AcDbEntity
  8
BUILDING_ENVELOPE
  6
CONTINUOUS
 62
     7
100
AcDbLine
 10
14.741187
 20
22.902704
 30
0.0
 11
14.741187
 21
22.777704
 31
0.0
  0
LINE
  5
124
102
{ACAD_REACTORS
330
125
102
}
100
AcDbEntity
  8
BUILDING_ENVELOPE
  6
CONTINUOUS
 62
     7
100
AcDbLine
 10
14.741187
 20
22.777704
 30
0.0
 11
14.69952
 21
22.777704
 31
0.0
  0
HATCH
  5
125
102
{ACAD_REACTORS
330
115
102
}
100
AcDbEntity
  8
BUILDING_ENVELOPE
 62
     7
100
AcDbHatch
 10
0.0
 20
0.0
 30
0.0
210
0.0
220
0.0
230
1.0
  2
SOLID
 70
     1
 71
     1
 91
        2
 92
        1
 93
        4
 72
     1
 10
14.6995202586317166
 20
22.9027042816655566
 11
14.7411869252983827
 21
22.9027042816655566
 72
     1
 10
14.7411869252983827
 20
22.9027042816655566
 11
14.7411869252983827
 21
22.7777042816655566
 72
     1
 10
14.7411869252983827
 20
22.7777042816655566
 11
14.6995202586317166
 21
22.7777042816655566
 72
     1
 10
14.6995202586317166
 20
22.7777042816655566
 11
14.6995202586317166
 21
22.9027042816655566
 97
        3
330
122
330
123
330
124
 92
        1
 93
        4
 72
     1
 10
17.1995202586317149
 20
22.9027042816655566
 11
17.1578535919650506
 21
22.9027042816655566
 72
     1
 10
17.1578535919650506
 20
22.9027042816655566
 11
17.1578535919650506
 21
22.7777042816655566
 72
     1
 10
17.1578535919650506
 20
22.7777042816655566
 11
17.1995202586317149
 21
22.7777042816655566
 72
     1
 10
17.1995202586317149
 20
22.7777042816655566
 11
17.1995202586317149
 21
22.9027042816655566
 97
        3
330
126
330
127
330
128
 75
     0
 76
     1
 98
        0
  0
LINE
  5
126
102
{ACAD_REACTORS
330
125
102
}
100
AcDbEntity
  8
BUILDING_ENVELOPE
  6
CONTINUOUS
 62
     7
100
AcDbLine
 10
17.19952
 20
22.902704
 30
0.0
 11
17.157854
 21
22.902704
 31
0.0
  0
LINE
  5
127
102
{ACAD_REACTORS
330
125
102
}
100
AcDbEntity
  8
BUILDING_ENVELOPE
  6
CONTINUOUS
 62
     7
100
AcDbLine
 10
17.157854
 20
22.902704
 30
0.0
 11
17.157854
 21
22.777704
 31
0.0
  0
LINE
  5
128
102
{ACAD_REACTORS
330
125
102
}
100
AcDbEntity
  8
BUILDING_ENVELOPE
  6
CONTINUOUS
 62
     7
100
AcDbLine
 10
17.157854
 20
22.777704
 30
0.0
 11
17.19952
 21
22.777704
 31
0.0
  0
LINE
  5
129
102
{ACAD_REACTORS
330
115
102
}
100
AcDbEntity
  8
BUILDING_ENVELOPE
  6
CONTINUOUS
 62
     7
100
AcDbLine
 10
14.532854
 20
22.694371
 30
0.0
 11
14.532854
 21
23.027704
 31
0.0
  0
LINE
  5
12A
102
{ACAD_REACTORS
330
115
102
}
100
AcDbEntity
  8
BUILDING_ENVELOPE
  6
CONTINUOUS
 62
     7
100
AcDbLine
 10
17.366187
 20
22.694371
 30
0.0
 11
17.366187
 21
23.027704
 31
0.0
  0
ARC
  5
12B
102
{ACAD_REACTORS
330
115
102
}
100
AcDbEntity
  8
BUILDING_ENVELOPE
  6
CONTINUOUS
 62
     7
100
AcDbCircle
 10
14.69952
 20
23.027704
 30
0.0
 40
2.5
100
AcDbArc
 50
0.0
 51
90.0
  0
LWPOLYLINE
  5
12C
102
{ACAD_REACTORS
330
12D
102
}
100
AcDbEntity
  8
BUILDING_ENVELOPE
  6
CONTINUOUS
 62
     7
100
AcDbPolyline
 90
        4
 70
     1
 10
14.82452
 20
25.527704
 10
14.82452
 20
23.027704
 10
14.69952
 20
23.027704
 10
14.69952
 20
25.527704
  0
HATCH
  5
12D
102
{ACAD_REACTORS
330
115
102
}
100
AcDbEntity
  8
BUILDING_ENVELOPE
 62
     7
100
AcDbHatch
 10
0.0
 20
0.0
 30
0.0
210
0.0
220
0.0
230
1.0
  2
SOLID
 70
     1
 71
     1
 91
        1
 92
        3
 72
     0
 73
     1
 93
        4
 10
14.8245202586317166
 20
25.5277042816655566
 10
14.8245202586317166
 20
23.0277042816655566
 10
14.6995202586317166
 20
23.0277042816655566
 10
14.6995202586317166
 20
25.5277042816655566
 97
        1
330
12C
 75
     0
 76
     1
 98
        0
  0
LWPOLYLINE
  5
12F
102
{ACAD_REACTORS
330
135
102
}
100
AcDbEntity
  8
BUILDING_ENVELOPE
  6
CONTINUOUS
 62
     7
100
AcDbPolyline
 90
        4
 70
     1
 10
6.791626
 20
0.158667
 10
12.577042
 20
0.158667
 10
12.577042
 20
0.508
 10
6.791626
 20
0.508
  0
LINE
  5
130
102
{ACAD_REACTORS
330
135
102
}
100
AcDbEntity
  8
BUILDING_ENVELOPE
  6
CONTINUOUS
 62
     7
100
AcDbLine
 10
6.791626
 20
0.166667
 30
0.0
 11
6.791626
 21
0.5
 31
0.0
  0
LINE
  5
131
102
{ACAD_REACTORS
330
135
102
}
100
AcDbEntity
  8
BUILDING_ENVELOPE
  6
CONTINUOUS
 62
     7
100
AcDbLine
 10
6.791626
 20
0.5
 30
0.0
 11
6.958292
 21
0.5
 31
0.0
  0
LINE
  5
132
102
{ACAD_REACTORS
330
135
102
}
100
AcDbEntity
  8
BUILDING_ENVELOPE
  6
CONTINUOUS
 62
     7
100
AcDbLine
 10
6.958292
 20
0.5
 30
0.0
 11
6.958292
 21
0.416667
 31
0.0
  0
LINE
  5
133
102
{ACAD_REACTORS
330
135
102
}
100
AcDbEntity
  8
BUILDING_ENVELOPE
  6
CONTINUOUS
 62
     7
100
AcDbLine
 10
6.958292
 20
0.25
 30
0.0
 11
6.958292
 21
0.166667
 31
0.0
  0
LINE
  5
134
102
{ACAD_REACTORS
330
135
102
}
100
AcDbEntity
  8
BUILDING_ENVELOPE
  6
CONTINUOUS
 62
     7
100
AcDbLine
 10
6.958292
 20
0.166667
 30
0.0
 11
6.791626
 21
0.166667
 31
0.0
  0
HATCH
  5
135
102
{ACAD_REACTORS
330
12E
102
}
100
AcDbEntity
  8
BUILDING_ENVELOPE
 62
     7
100
AcDbHatch
 10
0.0
 20
0.0
 30
0.0
210
0.0
220
0.0
230
1.0
  2
SOLID
 70
     1
 71
     1
 91
        2
 92
        1
 93
        6
 72
     1
 10
6.791625612976703
 20
0.1666666666666558
 11
6.791625612976703
 21
0.4999999999999892
 72
     1
 10
6.791625612976703
 20
0.4999999999999892
 11
6.9582922796433699
 21
0.4999999999999892
 72
     1
 10
6.9582922796433699
 20
0.4999999999999892
 11
6.9582922796433699
 21
0.4166666666666559
 72
     1
 10
6.9582922796433699
 20
0.4166666666666559
 11
6.9582922796433699
 21
0.2499999999999891
 72
     1
 10
6.9582922796433699
 20
0.2499999999999891
 11
6.9582922796433699
 21
0.1666666666666558
 72
     1
 10
6.9582922796433699
 20
0.1666666666666558
 11
6.791625612976703
 21
0.1666666666666558
 97
        6
330
12F
330
130
330
131
330
132
330
133
330
134
 92
        1
 93
        6
 72
     1
 10
12.5770422921578984
 20
0.1666666666666558
 11
12.5770422921578984
 21
0.4999999999999892
 72
     1
 10
12.5770422921578984
 20
0.4999999999999892
 11
12.4103756254912305
 21
0.4999999999999892
 72
     1
 10
12.4103756254912305
 20
0.4999999999999892
 11
12.4103756254912305
 21
0.4166666666666559
 72
     1
 10
12.4103756254912305
 20
0.4166666666666559
 11
12.4103756254912305
 21
0.2499999999999891
 72
     1
 10
12.4103756254912305
 20
0.2499999999999891
 11
12.4103756254912305
 21
0.1666666666666558
 72
     1
 10
12.4103756254912305
 20
0.1666666666666558
 11
12.5770422921578984
 21
0.1666666666666558
 97
        5
330
136
330
137
330
138
330
139
330
13A
 75
     0
 76
     1
 98
        0
  0
LINE
  5
136
102
{ACAD_REACTORS
330
135
102
}
100
AcDbEntity
  8
BUILDING_ENVELOPE
  6
CONTINUOUS
 62
     7
100
AcDbLine
 10
12.577042
 20
0.166667
 30
0.0
 11
12.577042
 21
0.5
 31
0.0
  0
LINE
  5
137
102
{ACAD_REACTORS
330
135
102
}
100
AcDbEntity
  8
BUILDING_ENVELOPE
  6
CONTINUOUS
 62
     7
100
AcDbLine
 10
12.577042
 20
0.5
 30
0.0
 11
12.410376
 21
0.5
 31
0.0
  0
LINE
  5
138
102
{ACAD_REACTORS
330
135
102
}
100
AcDbEntity
  8
BUILDING_ENVELOPE
  6
CONTINUOUS
 62
     7
100
AcDbLine
 10
12.410376
 20
0.5
 30
0.0
 11
12.410376
 21
0.416667
 31
0.0
  0
LINE
  5
139
102
{ACAD_REACTORS
330
135
102
}
100
AcDbEntity
  8
BUILDING_ENVELOPE
  6
CONTINUOUS
 62
     7
100
AcDbLine
 10
12.410376
 20
0.25
 30
0.0
 11
12.410376
 21
0.166667
 31
0.0
  0
LINE
  5
13A
102
{ACAD_REACTORS
330
135
102
}
100
AcDbEntity
  8
BUILDING_ENVELOPE
  6
CONTINUOUS
 62
     7
100
AcDbLine
 10
12.410376
 20
0.166667
 30
0.0
 11
12.577042
 21
0.166667
 31
0.0
  0
LWPOLYLINE
  5
13B
102
{ACAD_REACTORS
330
13C
102
}
100
AcDbEntity
  8
BUILDING_ENVELOPE
  6
CONTINUOUS
 62
     7
100
AcDbPolyline
 90
        4
 70
     1
 10
6.958292
 20
0.416667
 10
7.124959
 20
0.416667
 10
7.124959
 20
0.25
 10
6.958292
 20
0.25
  0
HATCH
  5
13C
102
{ACAD_REACTORS
330
12E
102
}
100
AcDbEntity
  8
BUILDING_ENVELOPE
 62
     7
100
AcDbHatch
 10
0.0
 20
0.0
 30
0.0
210
0.0
220
0.0
230
1.0
  2
SOLID
 70
     1
 71
     1
 91
        2
 92
        3
 72
     0
 73
     1
 93
        4
 10
6.9582922796433699
 20
0.4166666666666559
 10
7.124958946310036
 20
0.4166666666666559
 10
7.124958946310036
 20
0.2499999999999891
 10
6.9582922796433699
 20
0.2499999999999891
 97
        1
330
13B
 92
        3
 72
     0
 73
     1
 93
        4
 10
12.4103756254912305
 20
0.4166666666666559
 10
12.2437089588245644
 20
0.4166666666666559
 10
12.2437089588245644
 20
0.2499999999999891
 10
12.4103756254912305
 20
0.2499999999999891
 97
        1
330
13D
 75
     0
 76
     1
 98
        0
  0
LWPOLYLINE
  5
13D
102
{ACAD_REACTORS
330
13C
102
}
100
AcDbEntity
  8
BUILDING_ENVELOPE
  6
CONTINUOUS
 62
     7
100
AcDbPolyline
 90
        4
 70
     1
 10
12.410376
 20
0.416667
 10
12.243709
 20
0.416667
 10
12.243709
 20
0.25
 10
12.410376
 20
0.25
  0
LINE
  5
13E
102
{ACAD_REACTORS
330
12E
102
}
100
AcDbEntity
  8
BUILDING_ENVELOPE
  6
CONTINUOUS
 62
     7
100
AcDbLine
 10
7.124959
 20
0.333333
 30
0.0
 11
12.243709
 21
0.333333
 31
0.0
  0
LINE
  5
13F
102
{ACAD_REACTORS
330
12E
102
}
100
AcDbEntity
  8
BUILDING_ENVELOPE
  6
CONTINUOUS
 62
     7
100
AcDbLine
 10
6.791626
 20
0.166667
 30
0.0
 11
6.791626
 21
0.5
 31
0.0
  0
LINE
  5
140
102
{ACAD_REACTORS
330
12E
102
}
100
AcDbEntity
  8
BUILDING_ENVELOPE
  6
CONTINUOUS
 62
     7
100
AcDbLine
 10
12.577042
 20
0.166667
 30
0.0
 11
12.577042
 21
0.5
 31
0.0
  0
LWPOLYLINE
  5
142
102
{ACAD_REACTORS
330
148
102
}
100
AcDbEntity
  8
BUILDING_ENVELOPE
  6
CONTINUOUS
 62
     7
100
AcDbPolyline
 90
        4
 70
     1
 10
17.708292
 20
16.640968
 10
14.874959
 20
16.640968
 10
14.874959
 20
16.291634
 10
17.708292
 20
16.291634
  0
LINE
  5
143
102
{ACAD_REACTORS
330
148
102
}
100
AcDbEntity
  8
BUILDING_ENVELOPE
  6
CONTINUOUS
 62
     7
100
AcDbLine
 10
14.874959
 20
16.632968
 30
0.0
 11
14.874959
 21
16.299634
 31
0.0
  0
LINE
  5
144
102
{ACAD_REACTORS
330
148
102
}
100
AcDbEntity
  8
BUILDING_ENVELOPE
  6
CONTINUOUS
 62
     7
100
AcDbLine
 10
14.874959
 20
16.299634
 30
0.0
 11
15.041625
 21
16.299634
 31
0.0
  0
LINE
  5
145
102
{ACAD_REACTORS
330
148
102
}
100
AcDbEntity
  8
BUILDING_ENVELOPE
  6
CONTINUOUS
 62
     7
100
AcDbLine
 10
15.041625
 20
16.299634
 30
0.0
 11
15.041625
 21
16.424634
 31
0.0
  0
LINE
  5
146
102
{ACAD_REACTORS
330
148
102
}
100
AcDbEntity
  8
BUILDING_ENVELOPE
  6
CONTINUOUS
 62
     7
100
AcDbLine
 10
15.041625
 20
16.549634
 30
0.0
 11
15.041625
 21
16.632968
 31
0.0
  0
LINE
  5
147
102
{ACAD_REACTORS
330
148
102
}
100
AcDbEntity
  8
BUILDING_ENVELOPE
  6
CONTINUOUS
 62
     7
100
AcDbLine
 10
15.041625
 20
16.632968
 30
0.0
 11
14.874959
 21
16.632968
 31
0.0
  0
HATCH
  5
148
102
{ACAD_REACTORS
330
141
102
}
100
AcDbEntity
  8
BUILDING_ENVELOPE
 62
     7
100
AcDbHatch
 10
0.0
 20
0.0
 30
0.0
210
0.0
220
0.0
230
1.0
  2
SOLID
 70
     1
 71
     1
 91
        2
 92
        1
 93
        6
 72
     1
 10
14.8749588282771832
 20
16.6329675473873593
 11
14.8749588282771832
 21
16.2996342140540236
 72
     1
 10
14.8749588282771832
 20
16.2996342140540236
 11
15.041625494943851
 21
16.2996342140540236
 72
     1
 10
15.041625494943851
 20
16.2996342140540236
 11
15.041625494943851
 21
16.4246342140540236
 72
     1
 10
15.041625494943851
 20
16.4246342140540236
 11
15.041625494943851
 21
16.5496342140540236
 72
     1
 10
15.041625494943851
 20
16.5496342140540236
 11
15.041625494943851
 21
16.6329675473873593
 72
     1
 10
15.041625494943851
 20
16.6329675473873593
 11
14.8749588282771832
 21
16.6329675473873593
 97
        6
330
142
330
143
330
144
330
145
330
146
330
147
 92
        1
 93
        6
 72
     1
 10
17.7082921616105153
 20
16.6329675473873593
 11
17.7082921616105153
 21
16.2996342140540236
 72
     1
 10
17.7082921616105153
 20
16.2996342140540236
 11
17.541625494943851
 21
16.2996342140540236
 72
     1
 10
17.541625494943851
 20
16.2996342140540236
 11
17.541625494943851
 21
16.4246342140540236
 72
     1
 10
17.541625494943851
 20
16.4246342140540236
 11
17.541625494943851
 21
16.5496342140540236
 72
     1
 10
17.541625494943851
 20
16.5496342140540236
 11
17.541625494943851
 21
16.6329675473873593
 72
     1
 10
17.541625494943851
 20
16.6329675473873593
 11
17.7082921616105153
 21
16.6329675473873593
 97
        5
330
149
330
14A
330
14B
330
14C
330
14D
 75
     0
 76
     1
 98
        0
  0
LINE
  5
149
102
{ACAD_REACTORS
330
148
102
}
100
AcDbEntity
  8
BUILDING_ENVELOPE
  6
CONTINUOUS
 62
     7
100
AcDbLine
 10
17.708292
 20
16.632968
 30
0.0
 11
17.708292
 21
16.299634
 31
0.0
  0
LINE
  5
14A
102
{ACAD_REACTORS
330
148
102
}
100
AcDbEntity
  8
BUILDING_ENVELOPE
  6
CONTINUOUS
 62
     7
100
AcDbLine
 10
17.708292
 20
16.299634
 30
0.0
 11
17.541625
 21
16.299634
 31
0.0
  0
LINE
  5
14B
102
{ACAD_REACTORS
330
148
102
}
100
AcDbEntity
  8
BUILDING_ENVELOPE
  6
CONTINUOUS
 62
     7
100
AcDbLine
 10
17.541625
 20
16.299634
 30
0.0
 11
17.541625
 21
16.424634
 31
0.0
  0
LINE
  5
14C
102
{ACAD_REACTORS
330
148
102
}
100
AcDbEntity
  8
BUILDING_ENVELOPE
  6
CONTINUOUS
 62
     7
100
AcDbLine
 10
17.541625
 20
16.549634
 30
0.0
 11
17.541625
 21
16.632968
 31
0.0
  0
LINE
  5
14D
102
{ACAD_REACTORS
330
148
102
}
100
AcDbEntity
  8
BUILDING_ENVELOPE
  6
CONTINUOUS
 62
     7
100
AcDbLine
 10
17.541625
 20
16.632968
 30
0.0
 11
17.708292
 21
16.632968
 31
0.0
  0
LINE
  5
14E
102
{ACAD_REACTORS
330
151
102
}
100
AcDbEntity
  8
BUILDING_ENVELOPE
  6
CONTINUOUS
 62
     7
100
AcDbLine
 10
15.041625
 20
16.424634
 30
0.0
 11
15.083292
 21
16.424634
 31
0.0
  0
LINE
  5
14F
102
{ACAD_REACTORS
330
151
102
}
100
AcDbEntity
  8
BUILDING_ENVELOPE
  6
CONTINUOUS
 62
     7
100
AcDbLine
 10
15.083292
 20
16.424634
 30
0.0
 11
15.083292
 21
16.549634
 31
0.0
  0
LINE
  5
150
102
{ACAD_REACTORS
330
151
102
}
100
AcDbEntity
  8
BUILDING_ENVELOPE
  6
CONTINUOUS
 62
     7
100
AcDbLine
 10
15.083292
 20
16.549634
 30
0.0
 11
15.041625
 21
16.549634
 31
0.0
  0
HATCH
  5
151
102
{ACAD_REACTORS
330
141
102
}
100
AcDbEntity
  8
BUILDING_ENVELOPE
 62
     7
100
AcDbHatch
 10
0.0
 20
0.0
 30
0.0
210
0.0
220
0.0
230
1.0
  2
SOLID
 70
     1
 71
     1
 91
        2
 92
        1
 93
        4
 72
     1
 10
15.041625494943851
 20
16.4246342140540236
 11
15.0832921616105171
 21
16.4246342140540236
 72
     1
 10
15.0832921616105171
 20
16.4246342140540236
 11
15.0832921616105171
 21
16.5496342140540236
 72
     1
 10
15.0832921616105171
 20
16.5496342140540236
 11
15.041625494943851
 21
16.5496342140540236
 72
     1
 10
15.041625494943851
 20
16.5496342140540236
 11
15.041625494943851
 21
16.4246342140540236
 97
        3
330
14E
330
14F
330
150
 92
        1
 93
        4
 72
     1
 10
17.541625494943851
 20
16.4246342140540236
 11
17.4999588282771832
 21
16.4246342140540236
 72
     1
 10
17.4999588282771832
 20
16.4246342140540236
 11
17.4999588282771832
 21
16.5496342140540236
 72
     1
 10
17.4999588282771832
 20
16.5496342140540236
 11
17.541625494943851
 21
16.5496342140540236
 72
     1
 10
17.541625494943851
 20
16.5496342140540236
 11
17.541625494943851
 21
16.4246342140540236
 97
        3
330
152
330
153
330
154
 75
     0
 76
     1
 98
        0
  0
LINE
  5
152
102
{ACAD_REACTORS
330
151
102
}
100
AcDbEntity
  8
BUILDING_ENVELOPE
  6
CONTINUOUS
 62
     7
100
AcDbLine
 10
17.541625
 20
16.424634
 30
0.0
 11
17.499959
 21
16.424634
 31
0.0
  0
LINE
  5
153
102
{ACAD_REACTORS
330
151
102
}
100
AcDbEntity
  8
BUILDING_ENVELOPE
  6
CONTINUOUS
 62
     7
100
AcDbLine
 10
17.499959
 20
16.424634
 30
0.0
 11
17.499959
 21
16.549634
 31
0.0
  0
LINE
  5
154
102
{ACAD_REACTORS
330
151
102
}
100
AcDbEntity
  8
BUILDING_ENVELOPE
  6
CONTINUOUS
 62
     7
100
AcDbLine
 10
17.499959
 20
16.549634
 30
0.0
 11
17.541625
 21
16.549634
 31
0.0
  0
LINE
  5
155
102
{ACAD_REACTORS
330
141
102
}
100
AcDbEntity
  8
BUILDING_ENVELOPE
  6
CONTINUOUS
 62
     7
100
AcDbLine
 10
14.874959
 20
16.632968
 30
0.0
 11
14.874959
 21
16.299634
 31
0.0
  0
LINE
  5
156
102
{ACAD_REACTORS
330
141
102
}
100
AcDbEntity
  8
BUILDING_ENVELOPE
  6
CONTINUOUS
 62
     7
100
AcDbLine
 10
17.708292
 20
16.632968
 30
0.0
 11
17.708292
 21
16.299634
 31
0.0
  0
ARC
  5
157
102
{ACAD_REACTORS
330
141
102
}
100
AcDbEntity
  8
BUILDING_ENVELOPE
  6
CONTINUOUS
 62
     7
100
AcDbCircle
 10
15.041625
 20
16.299634
 30
0.0
 40
2.5
100
AcDbArc
 50
270.0
 51
0.0
  0
LWPOLYLINE
  5
158
102
{ACAD_REACTORS
330
159
102
}
100
AcDbEntity
  8
BUILDING_ENVELOPE
  6
CONTINUOUS
 62
     7
100
AcDbPolyline
 90
        4
 70
     1
 10
15.166625
 20
13.799634
 10
15.166625
 20
16.299634
 10
15.041625
 20
16.299634
 10
15.041625
 20
13.799634
  0
HATCH
  5
159
102
{ACAD_REACTORS
330
141
102
}
100
AcDbEntity
  8
BUILDING_ENVELOPE
 62
     7
100
AcDbHatch
 10
0.0
 20
0.0
 30
0.0
210
0.0
220
0.0
230
1.0
  2
SOLID
 70
     1
 71
     1
 91
        1
 92
        3
 72
     0
 73
     1
 93
        4
 10
15.166625494943851
 20
13.7996342140540253
 10
15.166625494943851
 20
16.2996342140540236
 10
15.041625494943851
 20
16.2996342140540236
 10
15.041625494943851
 20
13.7996342140540253
 97
        1
330
158
 75
     0
 76
     1
 98
        0
  0
LWPOLYLINE
  5
15B
102
{ACAD_REACTORS
330
161
102
}
100
AcDbEntity
  8
BUILDING_ENVELOPE
  6
CONTINUOUS
 62
     7
100
AcDbPolyline
 90
        4
 70
     1
 10
13.950292
 20
30.834722
 10
13.950292
 20
28.001388
 10
14.299626
 20
28.001388
 10
14.299626
 20
30.834722
  0
LINE
  5
15C
102
{ACAD_REACTORS
330
161
102
}
100
AcDbEntity
  8
BUILDING_ENVELOPE
  6
CONTINUOUS
 62
     7
100
AcDbLine
 10
13.958292
 20
28.001388
 30
0.0
 11
14.291626
 21
28.001388
 31
0.0
  0
LINE
  5
15D
102
{ACAD_REACTORS
330
161
102
}
100
AcDbEntity
  8
BUILDING_ENVELOPE
  6
CONTINUOUS
 62
     7
100
AcDbLine
 10
14.291626
 20
28.001388
 30
0.0
 11
14.291626
 21
28.168055
 31
0.0
  0
LINE
  5
15E
102
{ACAD_REACTORS
330
161
102
}
100
AcDbEntity
  8
BUILDING_ENVELOPE
  6
CONTINUOUS
 62
     7
100
AcDbLine
 10
14.291626
 20
28.168055
 30
0.0
 11
14.166626
 21
28.168055
 31
0.0
  0
LINE
  5
15F
102
{ACAD_REACTORS
330
161
102
}
100
AcDbEntity
  8
BUILDING_ENVELOPE
  6
CONTINUOUS
 62
     7
100
AcDbLine
 10
14.041626
 20
28.168055
 30
0.0
 11
13.958292
 21
28.168055
 31
0.0
  0
LINE
  5
160
102
{ACAD_REACTORS
330
161
102
}
100
AcDbEntity
  8
BUILDING_ENVELOPE
  6
CONTINUOUS
 62
     7
100
AcDbLine
 10
13.958292
 20
28.168055
 30
0.0
 11
13.958292
 21
28.001388
 31
0.0
  0
HATCH
  5
161
102
{ACAD_REACTORS
330
15A
102
}
100
AcDbEntity
  8
BUILDING_ENVELOPE
 62
     7
100
AcDbHatch
 10
0.0
 20
0.0
 30
0.0
210
0.0
220
0.0
230
1.0
  2
SOLID
 70
     1
 71
     1
 91
        2
 92
        1
 93
        6
 72
     1
 10
13.9582921953341739
 20
28.0013883830337313
 11
14.291625528667506
 21
28.0013883830337313
 72
     1
 10
14.291625528667506
 20
28.0013883830337313
 11
14.291625528667506
 21
28.1680550497003992
 72
     1
 10
14.291625528667506
 20
28.1680550497003992
 11
14.166625528667506
 21
28.1680550497003992
 72
     1
 10
14.166625528667506
 20
28.1680550497003992
 11
14.041625528667506
 21
28.1680550497003992
 72
     1
 10
14.041625528667506
 20
28.1680550497003992
 11
13.9582921953341739
 21
28.1680550497003992
 72
     1
 10
13.9582921953341739
 20
28.1680550497003992
 11
13.9582921953341739
 21
28.0013883830337313
 97
        6
330
15B
330
15C
330
15D
330
15E
330
15F
330
160
 92
        1
 93
        6
 72
     1
 10
13.9582921953341739
 20
30.8347217163670635
 11
14.291625528667506
 21
30.8347217163670635
 72
     1
 10
14.291625528667506
 20
30.8347217163670635
 11
14.291625528667506
 21
30.6680550497003992
 72
     1
 10
14.291625528667506
 20
30.6680550497003992
 11
14.166625528667506
 21
30.6680550497003992
 72
     1
 10
14.166625528667506
 20
30.6680550497003992
 11
14.041625528667506
 21
30.6680550497003992
 72
     1
 10
14.041625528667506
 20
30.6680550497003992
 11
13.9582921953341739
 21
30.6680550497003992
 72
     1
 10
13.9582921953341739
 20
30.6680550497003992
 11
13.9582921953341739
 21
30.8347217163670635
 97
        5
330
162
330
163
330
164
330
165
330
166
 75
     0
 76
     1
 98
        0
  0
LINE
  5
162
102
{ACAD_REACTORS
330
161
102
}
100
AcDbEntity
  8
BUILDING_ENVELOPE
  6
CONTINUOUS
 62
     7
100
AcDbLine
 10
13.958292
 20
30.834722
 30
0.0
 11
14.291626
 21
30.834722
 31
0.0
  0
LINE
  5
163
102
{ACAD_REACTORS
330
161
102
}
100
AcDbEntity
  8
BUILDING_ENVELOPE
  6
CONTINUOUS
 62
     7
100
AcDbLine
 10
14.291626
 20
30.834722
 30
0.0
 11
14.291626
 21
30.668055
 31
0.0
  0
LINE
  5
164
102
{ACAD_REACTORS
330
161
102
}
100
AcDbEntity
  8
BUILDING_ENVELOPE
  6
CONTINUOUS
 62
     7
100
AcDbLine
 10
14.291626
 20
30.668055
 30
0.0
 11
14.166626
 21
30.668055
 31
0.0
  0
LINE
  5
165
102
{ACAD_REACTORS
330
161
102
}
100
AcDbEntity
  8
BUILDING_ENVELOPE
  6
CONTINUOUS
 62
     7
100
AcDbLine
 10
14.041626
 20
30.668055
 30
0.0
 11
13.958292
 21
30.668055
 31
0.0
  0
LINE
  5
166
102
{ACAD_REACTORS
330
161
102
}
100
AcDbEntity
  8
BUILDING_ENVELOPE
  6
CONTINUOUS
 62
     7
100
AcDbLine
 10
13.958292
 20
30.668055
 30
0.0
 11
13.958292
 21
30.834722
 31
0.0
  0
LINE
  5
167
102
{ACAD_REACTORS
330
16A
102
}
100
AcDbEntity
  8
BUILDING_ENVELOPE
  6
CONTINUOUS
 62
     7
100
AcDbLine
 10
14.166626
 20
28.168055
 30
0.0
 11
14.166626
 21
28.209722
 31
0.0
  0
LINE
  5
168
102
{ACAD_REACTORS
330
16A
102
}
100
AcDbEntity
  8
BUILDING_ENVELOPE
  6
CONTINUOUS
 62
     7
100
AcDbLine
 10
14.166626
 20
28.209722
 30
0.0
 11
14.041626
 21
28.209722
 31
0.0
  0
LINE
  5
169
102
{ACAD_REACTORS
330
16A
102
}
100
AcDbEntity
  8
BUILDING_ENVELOPE
  6
CONTINUOUS
 62
     7
100
AcDbLine
 10
14.041626
 20
28.209722
 30
0.0
 11
14.041626
 21
28.168055
 31
0.0
  0
HATCH
  5
16A
102
{ACAD_REACTORS
330
15A
102
}
100
AcDbEntity
  8
BUILDING_ENVELOPE
 62
     7
100
AcDbHatch
 10
0.0
 20
0.0
 30
0.0
210
0.0
220
0.0
230
1.0
  2
SOLID
 70
     1
 71
     1
 91
        2
 92
        1
 93
        4
 72
     1
 10
14.166625528667506
 20
28.1680550497003992
 11
14.166625528667506
 21
28.2097217163670635
 72
     1
 10
14.166625528667506
 20
28.2097217163670635
 11
14.041625528667506
 21
28.2097217163670635
 72
     1
 10
14.041625528667506
 20
28.2097217163670635
 11
14.041625528667506
 21
28.1680550497003992
 72
     1
 10
14.041625528667506
 20
28.1680550497003992
 11
14.166625528667506
 21
28.1680550497003992
 97
        3
330
167
330
168
330
169
 92
        1
 93
        4
 72
     1
 10
14.166625528667506
 20
30.6680550497003992
 11
14.166625528667506
 21
30.6263883830337313
 72
     1
 10
14.166625528667506
 20
30.6263883830337313
 11
14.041625528667506
 21
30.6263883830337313
 72
     1
 10
14.041625528667506
 20
30.6263883830337313
 11
14.041625528667506
 21
30.6680550497003992
 72
     1
 10
14.041625528667506
 20
30.6680550497003992
 11
14.166625528667506
 21
30.6680550497003992
 97
        3
330
16B
330
16C
330
16D
 75
     0
 76
     1
 98
        0
  0
LINE
  5
16B
102
{ACAD_REACTORS
330
16A
102
}
100
AcDbEntity
  8
BUILDING_ENVELOPE
  6
CONTINUOUS
 62
     7
100
AcDbLine
 10
14.166626
 20
30.668055
 30
0.0
 11
14.166626
 21
30.626388
 31
0.0
  0
LINE
  5
16C
102
{ACAD_REACTORS
330
16A
102
}
100
AcDbEntity
  8
BUILDING_ENVELOPE
  6
CONTINUOUS
 62
     7
100
AcDbLine
 10
14.166626
 20
30.626388
 30
0.0
 11
14.041626
 21
30.626388
 31
0.0
  0
LINE
  5
16D
102
{ACAD_REACTORS
330
16A
102
}
100
AcDbEntity
  8
BUILDING_ENVELOPE
  6
CONTINUOUS
 62
     7
100
AcDbLine
 10
14.041626
 20
30.626388
 30
0.0
 11
14.041626
 21
30.668055
 31
0.0
  0
LINE
  5
16E
102
{ACAD_REACTORS
330
15A
102
}
100
AcDbEntity
  8
BUILDING_ENVELOPE
  6
CONTINUOUS
 62
     7
100
AcDbLine
 10
13.958292
 20
28.001388
 30
0.0
 11
14.291626
 21
28.001388
 31
0.0
  0
LINE
  5
16F
102
{ACAD_REACTORS
330
15A
102
}
100
AcDbEntity
  8
BUILDING_ENVELOPE
  6
CONTINUOUS
 62
     7
100
AcDbLine
 10
13.958292
 20
30.834722
 30
0.0
 11
14.291626
 21
30.834722
 31
0.0
  0
ARC
  5
170
102
{ACAD_REACTORS
330
15A
102
}
100
AcDbEntity
  8
BUILDING_ENVELOPE
  6
CONTINUOUS
 62
     7
100
AcDbCircle
 10
14.291626
 20
28.168055
 30
0.0
 40
2.5
100
AcDbArc
 50
0.0
 51
90.0
  0
LWPOLYLINE
  5
171
102
{ACAD_REACTORS
330
172
102
}
100
AcDbEntity
  8
BUILDING_ENVELOPE
  6
CONTINUOUS
 62
     7
100
AcDbPolyline
 90
        4
 70
     1
 10
16.791626
 20
28.293055
 10
14.291626
 20
28.293055
 10
14.291626
 20
28.168055
 10
16.791626
 20
28.168055
  0
HATCH
  5
172
102
{ACAD_REACTORS
330
15A
102
}
100
AcDbEntity
  8
BUILDING_ENVELOPE
 62
     7
100
AcDbHatch
 10
0.0
 20
0.0
 30
0.0
210
0.0
220
0.0
230
1.0
  2
SOLID
 70
     1
 71
     1
 91
        1
 92
        3
 72
     0
 73
     1
 93
        4
 10
16.791625528667506
 20
28.2930550497003992
 10
14.291625528667506
 20
28.2930550497003992
 10
14.291625528667506
 20
28.1680550497003992
 10
16.791625528667506
 20
28.1680550497003992
 97
        1
330
171
 75
     0
 76
     1
 98
        0
  0
LWPOLYLINE
  5
174
102
{ACAD_REACTORS
330
176
102
}
100
AcDbEntity
  8
BUILDING_ENVELOPE
  6
CONTINUOUS
 62
     7
100
AcDbPolyline
 90
        4
 70
     1
 10
9.322327
 20
27.576722
 10
13.15566
 20
27.576722
 10
13.15566
 20
27.926056
 10
9.322327
 20
27.926056
  0
LWPOLYLINE
  5
175
102
{ACAD_REACTORS
330
176
102
}
100
AcDbEntity
  8
BUILDING_ENVELOPE
  6
CONTINUOUS
 62
     7
100
AcDbPolyline
 90
        4
 70
     1
 10
13.15566
 20
27.584722
 10
13.15566
 20
27.918056
 10
12.988994
 20
27.918056
 10
12.988994
 20
27.584722
  0
HATCH
  5
176
102
{ACAD_REACTORS
330
173
102
}
100
AcDbEntity
  8
BUILDING_ENVELOPE
 62
     7
100
AcDbHatch
 10
0.0
 20
0.0
 30
0.0
210
0.0
220
0.0
230
1.0
  2
SOLID
 70
     1
 71
     1
 91
        2
 92
        3
 72
     0
 73
     1
 93
        4
 10
13.1556604444403664
 20
27.5847222222222399
 10
13.1556604444403664
 20
27.9180555555555721
 10
12.9889937777737003
 20
27.9180555555555721
 10
12.9889937777737003
 20
27.5847222222222399
 97
        2
330
174
330
175
 92
        3
 72
     0
 73
     1
 93
        4
 10
9.3223273640347362
 20
27.5847222222222399
 10
9.3223273640347362
 20
27.9180555555555721
 10
9.4889940307014022
 20
27.9180555555555721
 10
9.4889940307014022
 20
27.5847222222222399
 97
        1
330
177
 75
     0
 76
     1
 98
        0
  0
LWPOLYLINE
  5
177
102
{ACAD_REACTORS
330
176
102
}
100
AcDbEntity
  8
BUILDING_ENVELOPE
  6
CONTINUOUS
 62
     7
100
AcDbPolyline
 90
        4
 70
     1
 10
9.322327
 20
27.584722
 10
9.322327
 20
27.918056
 10
9.488994
 20
27.918056
 10
9.488994
 20
27.584722
  0
LINE
  5
178
102
{ACAD_REACTORS
330
173
102
}
100
AcDbEntity
  8
BUILDING_ENVELOPE
  6
CONTINUOUS
 62
     7
100
AcDbLine
 10
13.15566
 20
27.584722
 30
0.0
 11
13.15566
 21
27.918056
 31
0.0
  0
LINE
  5
179
102
{ACAD_REACTORS
330
173
102
}
100
AcDbEntity
  8
BUILDING_ENVELOPE
  6
CONTINUOUS
 62
     7
100
AcDbLine
 10
9.322327
 20
27.584722
 30
0.0
 11
9.322327
 21
27.918056
 31
0.0
  0
LWPOLYLINE
  5
17B
102
{ACAD_REACTORS
330
181
102
}
100
AcDbEntity
  8
BUILDING_ENVELOPE
  6
CONTINUOUS
 62
     7
100
AcDbPolyline
 90
        4
 70
     1
 10
11.063554
 20
36.660055
 10
13.896888
 20
36.660055
 10
13.896888
 20
37.009388
 10
11.063554
 20
37.009388
  0
LINE
  5
17C
102
{ACAD_REACTORS
330
181
102
}
100
AcDbEntity
  8
BUILDING_ENVELOPE
  6
CONTINUOUS
 62
     7
100
AcDbLine
 10
13.896888
 20
36.668055
 30
0.0
 11
13.896888
 21
37.001388
 31
0.0
  0
LINE
  5
17D
102
{ACAD_REACTORS
330
181
102
}
100
AcDbEntity
  8
BUILDING_ENVELOPE
  6
CONTINUOUS
 62
     7
100
AcDbLine
 10
13.896888
 20
37.001388
 30
0.0
 11
13.730221
 21
37.001388
 31
0.0
  0
LINE
  5
17E
102
{ACAD_REACTORS
330
181
102
}
100
AcDbEntity
  8
BUILDING_ENVELOPE
  6
CONTINUOUS
 62
     7
100
AcDbLine
 10
13.730221
 20
37.001388
 30
0.0
 11
13.730221
 21
36.876388
 31
0.0
  0
LINE
  5
17F
102
{ACAD_REACTORS
330
181
102
}
100
AcDbEntity
  8
BUILDING_ENVELOPE
  6
CONTINUOUS
 62
     7
100
AcDbLine
 10
13.730221
 20
36.751388
 30
0.0
 11
13.730221
 21
36.668055
 31
0.0
  0
LINE
  5
180
102
{ACAD_REACTORS
330
181
102
}
100
AcDbEntity
  8
BUILDING_ENVELOPE
  6
CONTINUOUS
 62
     7
100
AcDbLine
 10
13.730221
 20
36.668055
 30
0.0
 11
13.896888
 21
36.668055
 31
0.0
  0
HATCH
  5
181
102
{ACAD_REACTORS
330
17A
102
}
100
AcDbEntity
  8
BUILDING_ENVELOPE
 62
     7
100
AcDbHatch
 10
0.0
 20
0.0
 30
0.0
210
0.0
220
0.0
230
1.0
  2
SOLID
 70
     1
 71
     1
 91
        2
 92
        1
 93
        6
 72
     1
 10
13.8968875369701728
 20
36.668054923236582
 11
13.8968875369701728
 21
37.0013882565699106
 72
     1
 10
13.8968875369701728
 20
37.0013882565699106
 11
13.7302208703035067
 21
37.0013882565699106
 72
     1
 10
13.7302208703035067
 20
37.0013882565699106
 11
13.7302208703035067
 21
36.8763882565699106
 72
     1
 10
13.7302208703035067
 20
36.8763882565699106
 11
13.7302208703035067
 21
36.7513882565699106
 72
     1
 10
13.7302208703035067
 20
36.7513882565699106
 11
13.7302208703035067
 21
36.668054923236582
 72
     1
 10
13.7302208703035067
 20
36.668054923236582
 11
13.8968875369701728
 21
36.668054923236582
 97
        6
330
17B
330
17C
330
17D
330
17E
330
17F
330
180
 92
        1
 93
        6
 72
     1
 10
11.0635542036368406
 20
36.668054923236582
 11
11.0635542036368406
 21
37.0013882565699106
 72
     1
 10
11.0635542036368406
 20
37.0013882565699106
 11
11.2302208703035067
 21
37.0013882565699106
 72
     1
 10
11.2302208703035067
 20
37.0013882565699106
 11
11.2302208703035067
 21
36.8763882565699106
 72
     1
 10
11.2302208703035067
 20
36.8763882565699106
 11
11.2302208703035067
 21
36.7513882565699106
 72
     1
 10
11.2302208703035067
 20
36.7513882565699106
 11
11.2302208703035067
 21
36.668054923236582
 72
     1
 10
11.2302208703035067
 20
36.668054923236582
 11
11.0635542036368406
 21
36.668054923236582
 97
        5
330
182
330
183
330
184
330
185
330
186
 75
     0
 76
     1
 98
        0
  0
LINE
  5
182
102
{ACAD_REACTORS
330
181
102
}
100
AcDbEntity
  8
BUILDING_ENVELOPE
  6
CONTINUOUS
 62
     7
100
AcDbLine
 10
11.063554
 20
36.668055
 30
0.0
 11
11.063554
 21
37.001388
 31
0.0
  0
LINE
  5
183
102
{ACAD_REACTORS
330
181
102
}
100
AcDbEntity
  8
BUILDING_ENVELOPE
  6
CONTINUOUS
 62
     7
100
AcDbLine
 10
11.063554
 20
37.001388
 30
0.0
 11
11.230221
 21
37.001388
 31
0.0
  0
LINE
  5
184
102
{ACAD_REACTORS
330
181
102
}
100
AcDbEntity
  8
BUILDING_ENVELOPE
  6
CONTINUOUS
 62
     7
100
AcDbLine
 10
11.230221
 20
37.001388
 30
0.0
 11
11.230221
 21
36.876388
 31
0.0
  0
LINE
  5
185
102
{ACAD_REACTORS
330
181
102
}
100
AcDbEntity
  8
BUILDING_ENVELOPE
  6
CONTINUOUS
 62
     7
100
AcDbLine
 10
11.230221
 20
36.751388
 30
0.0
 11
11.230221
 21
36.668055
 31
0.0
  0
LINE
  5
186
102
{ACAD_REACTORS
330
181
102
}
100
AcDbEntity
  8
BUILDING_ENVELOPE
  6
CONTINUOUS
 62
     7
100
AcDbLine
 10
11.230221
 20
36.668055
 30
0.0
 11
11.063554
 21
36.668055
 31
0.0
  0
LINE
  5
187
102
{ACAD_REACTORS
330
18A
102
}
100
AcDbEntity
  8
BUILDING_ENVELOPE
  6
CONTINUOUS
 62
     7
100
AcDbLine
 10
13.730221
 20
36.876388
 30
0.0
 11
13.688554
 21
36.876388
 31
0.0
  0
LINE
  5
188
102
{ACAD_REACTORS
330
18A
102
}
100
AcDbEntity
  8
BUILDING_ENVELOPE
  6
CONTINUOUS
 62
     7
100
AcDbLine
 10
13.688554
 20
36.876388
 30
0.0
 11
13.688554
 21
36.751388
 31
0.0
  0
LINE
  5
189
102
{ACAD_REACTORS
330
18A
102
}
100
AcDbEntity
  8
BUILDING_ENVELOPE
  6
CONTINUOUS
 62
     7
100
AcDbLine
 10
13.688554
 20
36.751388
 30
0.0
 11
13.730221
 21
36.751388
 31
0.0
  0
HATCH
  5
18A
102
{ACAD_REACTORS
330
17A
102
}
100
AcDbEntity
  8
BUILDING_ENVELOPE
 62
     7
100
AcDbHatch
 10
0.0
 20
0.0
 30
0.0
210
0.0
220
0.0
230
1.0
  2
SOLID
 70
     1
 71
     1
 91
        2
 92
        1
 93
        4
 72
     1
 10
13.7302208703035067
 20
36.8763882565699106
 11
13.6885542036368406
 21
36.8763882565699106
 72
     1
 10
13.6885542036368406
 20
36.8763882565699106
 11
13.6885542036368406
 21
36.7513882565699106
 72
     1
 10
13.6885542036368406
 20
36.7513882565699106
 11
13.7302208703035067
 21
36.7513882565699106
 72
     1
 10
13.7302208703035067
 20
36.7513882565699106
 11
13.7302208703035067
 21
36.8763882565699106
 97
        3
330
187
330
188
330
189
 92
        1
 93
        4
 72
     1
 10
11.2302208703035067
 20
36.8763882565699106
 11
11.2718875369701728
 21
36.8763882565699106
 72
     1
 10
11.2718875369701728
 20
36.8763882565699106
 11
11.2718875369701728
 21
36.7513882565699106
 72
     1
 10
11.2718875369701728
 20
36.7513882565699106
 11
11.2302208703035067
 21
36.7513882565699106
 72
     1
 10
11.2302208703035067
 20
36.7513882565699106
 11
11.2302208703035067
 21
36.8763882565699106
 97
        3
330
18B
330
18C
330
18D
 75
     0
 76
     1
 98
        0
  0
LINE
  5
18B
102
{ACAD_REACTORS
330
18A
102
}
100
AcDbEntity
  8
BUILDING_ENVELOPE
  6
CONTINUOUS
 62
     7
100
AcDbLine
 10
11.230221
 20
36.876388
 30
0.0
 11
11.271888
 21
36.876388
 31
0.0
  0
LINE
  5
18C
102
{ACAD_REACTORS
330
18A
102
}
100
AcDbEntity
  8
BUILDING_ENVELOPE
  6
CONTINUOUS
 62
     7
100
AcDbLine
 10
11.271888
 20
36.876388
 30
0.0
 11
11.271888
 21
36.751388
 31
0.0
  0
LINE
  5
18D
102
{ACAD_REACTORS
330
18A
102
}
100
AcDbEntity
  8
BUILDING_ENVELOPE
  6
CONTINUOUS
 62
     7
100
AcDbLine
 10
11.271888
 20
36.751388
 30
0.0
 11
11.230221
 21
36.751388
 31
0.0
  0
LINE
  5
18E
102
{ACAD_REACTORS
330
17A
102
}
100
AcDbEntity
  8
BUILDING_ENVELOPE
  6
CONTINUOUS
 62
     7
100
AcDbLine
 10
13.896888
 20
36.668055
 30
0.0
 11
13.896888
 21
37.001388
 31
0.0
  0
LINE
  5
18F
102
{ACAD_REACTORS
330
17A
102
}
100
AcDbEntity
  8
BUILDING_ENVELOPE
  6
CONTINUOUS
 62
     7
100
AcDbLine
 10
11.063554
 20
36.668055
 30
0.0
 11
11.063554
 21
37.001388
 31
0.0
  0
ARC
  5
190
102
{ACAD_REACTORS
330
17A
102
}
100
AcDbEntity
  8
BUILDING_ENVELOPE
  6
CONTINUOUS
 62
     7
100
AcDbCircle
 10
13.730221
 20
37.001388
 30
0.0
 40
2.5
100
AcDbArc
 50
90.0
 51
180.0
  0
LWPOLYLINE
  5
191
102
{ACAD_REACTORS
330
192
102
}
100
AcDbEntity
  8
BUILDING_ENVELOPE
  6
CONTINUOUS
 62
     7
100
AcDbPolyline
 90
        4
 70
     1
 10
13.605221
 20
39.501388
 10
13.605221
 20
37.001388
 10
13.730221
 20
37.001388
 10
13.730221
 20
39.501388
  0
HATCH
  5
192
102
{ACAD_REACTORS
330
17A
102
}
100
AcDbEntity
  8
BUILDING_ENVELOPE
 62
     7
100
AcDbHatch
 10
0.0
 20
0.0
 30
0.0
210
0.0
220
0.0
230
1.0
  2
SOLID
 70
     1
 71
     1
 91
        1
 92
        3
 72
     0
 73
     1
 93
        4
 10
13.6052208703035067
 20
39.5013882565699106
 10
13.6052208703035067
 20
37.0013882565699106
 10
13.7302208703035067
 20
37.0013882565699106
 10
13.7302208703035067
 20
39.5013882565699106
 97
        1
330
191
 75
     0
 76
     1
 98
        0
  0
LWPOLYLINE
  5
194
102
{ACAD_REACTORS
330
196
102
}
100
AcDbEntity
  8
BUILDING_ENVELOPE
  6
CONTINUOUS
 62
     7
100
AcDbPolyline
 90
        4
 70
     1
 10
14.299626
 20
33.290862
 10
14.299626
 20
36.703143
 10
13.950292
 20
36.703143
 10
13.950292
 20
33.290862
  0
LWPOLYLINE
  5
195
102
{ACAD_REACTORS
330
196
102
}
100
AcDbEntity
  8
BUILDING_ENVELOPE
  6
CONTINUOUS
 62
     7
100
AcDbPolyline
 90
        4
 70
     1
 10
14.291626
 20
36.703143
 10
13.958292
 20
36.703143
 10
13.958292
 20
36.536476
 10
14.291626
 20
36.536476
  0
HATCH
  5
196
102
{ACAD_REACTORS
330
193
102
}
100
AcDbEntity
  8
BUILDING_ENVELOPE
 62
     7
100
AcDbHatch
 10
0.0
 20
0.0
 30
0.0
210
0.0
220
0.0
230
1.0
  2
SOLID
 70
     1
 71
     1
 91
        2
 92
        3
 72
     0
 73
     1
 93
        4
 10
14.291625528667506
 20
36.7031426447531359
 10
13.9582921953341739
 20
36.7031426447531359
 10
13.9582921953341739
 20
36.5364759780864716
 10
14.291625528667506
 20
36.5364759780864716
 97
        2
330
194
330
195
 92
        3
 72
     0
 73
     1
 93
        4
 10
14.291625528667506
 20
33.2908619738373375
 10
13.9582921953341739
 20
33.2908619738373375
 10
13.9582921953341739
 20
33.4575286405040089
 10
14.291625528667506
 20
33.4575286405040089
 97
        1
330
197
 75
     0
 76
     1
 98
        0
  0
LWPOLYLINE
  5
197
102
{ACAD_REACTORS
330
196
102
}
100
AcDbEntity
  8
BUILDING_ENVELOPE
  6
CONTINUOUS
 62
     7
100
AcDbPolyline
 90
        4
 70
     1
 10
14.291626
 20
33.290862
 10
13.958292
 20
33.290862
 10
13.958292
 20
33.457529
 10
14.291626
 20
33.457529
  0
LINE
  5
198
102
{ACAD_REACTORS
330
193
102
}
100
AcDbEntity
  8
BUILDING_ENVELOPE
  6
CONTINUOUS
 62
     7
100
AcDbLine
 10
14.291626
 20
36.703143
 30
0.0
 11
13.958292
 21
36.703143
 31
0.0
  0
LINE
  5
199
102
{ACAD_REACTORS
330
193
102
}
100
AcDbEntity
  8
BUILDING_ENVELOPE
  6
CONTINUOUS
 62
     7
100
AcDbLine
 10
14.291626
 20
33.290862
 30
0.0
 11
13.958292
 21
33.290862
 31
0.0
  0
LWPOLYLINE
  5
19B
102
{ACAD_REACTORS
330
1A1
102
}
100
AcDbEntity
  8
BUILDING_ENVELOPE
  6
CONTINUOUS
 62
     7
100
AcDbPolyline
 90
        4
 70
     1
 10
5.874959
 20
40.160055
 10
8.708292
 20
40.160055
 10
8.708292
 20
40.509388
 10
5.874959
 20
40.509388
  0
LINE
  5
19C
102
{ACAD_REACTORS
330
1A1
102
}
100
AcDbEntity
  8
BUILDING_ENVELOPE
  6
CONTINUOUS
 62
     7
100
AcDbLine
 10
8.708292
 20
40.168055
 30
0.0
 11
8.708292
 21
40.501388
 31
0.0
  0
LINE
  5
19D
102
{ACAD_REACTORS
330
1A1
102
}
100
AcDbEntity
  8
BUILDING_ENVELOPE
  6
CONTINUOUS
 62
     7
100
AcDbLine
 10
8.708292
 20
40.501388
 30
0.0
 11
8.541626
 21
40.501388
 31
0.0
  0
LINE
  5
19E
102
{ACAD_REACTORS
330
1A1
102
}
100
AcDbEntity
  8
BUILDING_ENVELOPE
  6
CONTINUOUS
 62
     7
100
AcDbLine
 10
8.541626
 20
40.501388
 30
0.0
 11
8.541626
 21
40.376388
 31
0.0
  0
LINE
  5
19F
102
{ACAD_REACTORS
330
1A1
102
}
100
AcDbEntity
  8
BUILDING_ENVELOPE
  6
CONTINUOUS
 62
     7
100
AcDbLine
 10
8.541626
 20
40.251388
 30
0.0
 11
8.541626
 21
40.168055
 31
0.0
  0
LINE
  5
1A0
102
{ACAD_REACTORS
330
1A1
102
}
100
AcDbEntity
  8
BUILDING_ENVELOPE
  6
CONTINUOUS
 62
     7
100
AcDbLine
 10
8.541626
 20
40.168055
 30
0.0
 11
8.708292
 21
40.168055
 31
0.0
  0
HATCH
  5
1A1
102
{ACAD_REACTORS
330
19A
102
}
100
AcDbEntity
  8
BUILDING_ENVELOPE
 62
     7
100
AcDbHatch
 10
0.0
 20
0.0
 30
0.0
210
0.0
220
0.0
230
1.0
  2
SOLID
 70
     1
 71
     1
 91
        2
 92
        1
 93
        6
 72
     1
 10
8.7082923133670729
 20
40.1680548642200748
 11
8.7082923133670729
 21
40.5013881975534105
 72
     1
 10
8.7082923133670729
 20
40.5013881975534105
 11
8.5416256467004068
 21
40.5013881975534105
 72
     1
 10
8.5416256467004068
 20
40.5013881975534105
 11
8.5416256467004068
 21
40.3763881975534105
 72
     1
 10
8.5416256467004068
 20
40.3763881975534105
 11
8.5416256467004068
 21
40.2513881975534105
 72
     1
 10
8.5416256467004068
 20
40.2513881975534105
 11
8.5416256467004068
 21
40.1680548642200748
 72
     1
 10
8.5416256467004068
 20
40.1680548642200748
 11
8.7082923133670729
 21
40.1680548642200748
 97
        6
330
19B
330
19C
330
19D
330
19E
330
19F
330
1A0
 92
        1
 93
        6
 72
     1
 10
5.8749589800337398
 20
40.1680548642200748
 11
5.8749589800337398
 21
40.5013881975534105
 72
     1
 10
5.8749589800337398
 20
40.5013881975534105
 11
6.0416256467004068
 21
40.5013881975534105
 72
     1
 10
6.0416256467004068
 20
40.5013881975534105
 11
6.0416256467004068
 21
40.3763881975534105
 72
     1
 10
6.0416256467004068
 20
40.3763881975534105
 11
6.0416256467004068
 21
40.2513881975534105
 72
     1
 10
6.0416256467004068
 20
40.2513881975534105
 11
6.0416256467004068
 21
40.1680548642200748
 72
     1
 10
6.0416256467004068
 20
40.1680548642200748
 11
5.8749589800337398
 21
40.1680548642200748
 97
        5
330
1A2
330
1A3
330
1A4
330
1A5
330
1A6
 75
     0
 76
     1
 98
        0
  0
LINE
  5
1A2
102
{ACAD_REACTORS
330
1A1
102
}
100
AcDbEntity
  8
BUILDING_ENVELOPE
  6
CONTINUOUS
 62
     7
100
AcDbLine
 10
5.874959
 20
40.168055
 30
0.0
 11
5.874959
 21
40.501388
 31
0.0
  0
LINE
  5
1A3
102
{ACAD_REACTORS
330
1A1
102
}
100
AcDbEntity
  8
BUILDING_ENVELOPE
  6
CONTINUOUS
 62
     7
100
AcDbLine
 10
5.874959
 20
40.501388
 30
0.0
 11
6.041626
 21
40.501388
 31
0.0
  0
LINE
  5
1A4
102
{ACAD_REACTORS
330
1A1
102
}
100
AcDbEntity
  8
BUILDING_ENVELOPE
  6
CONTINUOUS
 62
     7
100
AcDbLine
 10
6.041626
 20
40.501388
 30
0.0
 11
6.041626
 21
40.376388
 31
0.0
  0
LINE
  5
1A5
102
{ACAD_REACTORS
330
1A1
102
}
100
AcDbEntity
  8
BUILDING_ENVELOPE
  6
CONTINUOUS
 62
     7
100
AcDbLine
 10
6.041626
 20
40.251388
 30
0.0
 11
6.041626
 21
40.168055
 31
0.0
  0
LINE
  5
1A6
102
{ACAD_REACTORS
330
1A1
102
}
100
AcDbEntity
  8
BUILDING_ENVELOPE
  6
CONTINUOUS
 62
     7
100
AcDbLine
 10
6.041626
 20
40.168055
 30
0.0
 11
5.874959
 21
40.168055
 31
0.0
  0
LINE
  5
1A7
102
{ACAD_REACTORS
330
1AA
102
}
100
AcDbEntity
  8
BUILDING_ENVELOPE
  6
CONTINUOUS
 62
     7
100
AcDbLine
 10
8.541626
 20
40.376388
 30
0.0
 11
8.499959
 21
40.376388
 31
0.0
  0
LINE
  5
1A8
102
{ACAD_REACTORS
330
1AA
102
}
100
AcDbEntity
  8
BUILDING_ENVELOPE
  6
CONTINUOUS
 62
     7
100
AcDbLine
 10
8.499959
 20
40.376388
 30
0.0
 11
8.499959
 21
40.251388
 31
0.0
  0
LINE
  5
1A9
102
{ACAD_REACTORS
330
1AA
102
}
100
AcDbEntity
  8
BUILDING_ENVELOPE
  6
CONTINUOUS
 62
     7
100
AcDbLine
 10
8.499959
 20
40.251388
 30
0.0
 11
8.541626
 21
40.251388
 31
0.0
  0
HATCH
  5
1AA
102
{ACAD_REACTORS
330
19A
102
}
100
AcDbEntity
  8
BUILDING_ENVELOPE
 62
     7
100
AcDbHatch
 10
0.0
 20
0.0
 30
0.0
210
0.0
220
0.0
230
1.0
  2
SOLID
 70
     1
 71
     1
 91
        2
 92
        1
 93
        4
 72
     1
 10
8.5416256467004068
 20
40.3763881975534105
 11
8.499958980033739
 21
40.3763881975534105
 72
     1
 10
8.499958980033739
 20
40.3763881975534105
 11
8.499958980033739
 21
40.2513881975534105
 72
     1
 10
8.499958980033739
 20
40.2513881975534105
 11
8.5416256467004068
 21
40.2513881975534105
 72
     1
 10
8.5416256467004068
 20
40.2513881975534105
 11
8.5416256467004068
 21
40.3763881975534105
 97
        3
330
1A7
330
1A8
330
1A9
 92
        1
 93
        4
 72
     1
 10
6.0416256467004068
 20
40.3763881975534105
 11
6.0832923133670729
 21
40.3763881975534105
 72
     1
 10
6.0832923133670729
 20
40.3763881975534105
 11
6.0832923133670729
 21
40.2513881975534105
 72
     1
 10
6.0832923133670729
 20
40.2513881975534105
 11
6.0416256467004068
 21
40.2513881975534105
 72
     1
 10
6.0416256467004068
 20
40.2513881975534105
 11
6.0416256467004068
 21
40.3763881975534105
 97
        3
330
1AB
330
1AC
330
1AD
 75
     0
 76
     1
 98
        0
  0
LINE
  5
1AB
102
{ACAD_REACTORS
330
1AA
102
}
100
AcDbEntity
  8
BUILDING_ENVELOPE
  6
CONTINUOUS
 62
     7
100
AcDbLine
 10
6.041626
 20
40.376388
 30
0.0
 11
6.083292
 21
40.376388
 31
0.0
  0
LINE
  5
1AC
102
{ACAD_REACTORS
330
1AA
102
}
100
AcDbEntity
  8
BUILDING_ENVELOPE
  6
CONTINUOUS
 62
     7
100
AcDbLine
 10
6.083292
 20
40.376388
 30
0.0
 11
6.083292
 21
40.251388
 31
0.0
  0
LINE
  5
1AD
102
{ACAD_REACTORS
330
1AA
102
}
100
AcDbEntity
  8
BUILDING_ENVELOPE
  6
CONTINUOUS
 62
     7
100
AcDbLine
 10
6.083292
 20
40.251388
 30
0.0
 11
6.041626
 21
40.251388
 31
0.0
  0
LINE
  5
1AE
102
{ACAD_REACTORS
330
19A
102
}
100
AcDbEntity
  8
BUILDING_ENVELOPE
  6
CONTINUOUS
 62
     7
100
AcDbLine
 10
8.708292
 20
40.168055
 30
0.0
 11
8.708292
 21
40.501388
 31
0.0
  0
LINE
  5
1AF
102
{ACAD_REACTORS
330
19A
102
}
100
AcDbEntity
  8
BUILDING_ENVELOPE
  6
CONTINUOUS
 62
     7
100
AcDbLine
 10
5.874959
 20
40.168055
 30
0.0
 11
5.874959
 21
40.501388
 31
0.0
  0
ARC
  5
1B0
102
{ACAD_REACTORS
330
19A
102
}
100
AcDbEntity
  8
BUILDING_ENVELOPE
  6
CONTINUOUS
 62
     7
100
AcDbCircle
 10
8.541626
 20
40.501388
 30
0.0
 40
2.5
100
AcDbArc
 50
90.0
 51
180.0
  0
LWPOLYLINE
  5
1B1
102
{ACAD_REACTORS
330
1B2
102
}
100
AcDbEntity
  8
BUILDING_ENVELOPE
  6
CONTINUOUS
 62
     7
100
AcDbPolyline
 90
        4
 70
     1
 10
8.416626
 20
43.001388
 10
8.416626
 20
40.501388
 10
8.541626
 20
40.501388
 10
8.541626
 20
43.001388
  0
HATCH
  5
1B2
102
{ACAD_REACTORS
330
19A
102
}
100
AcDbEntity
  8
BUILDING_ENVELOPE
 62
     7
100
AcDbHatch
 10
0.0
 20
0.0
 30
0.0
210
0.0
220
0.0
230
1.0
  2
SOLID
 70
     1
 71
     1
 91
        1
 92
        3
 72
     0
 73
     1
 93
        4
 10
8.4166256467004068
 20
43.0013881975534105
 10
8.4166256467004068
 20
40.5013881975534105
 10
8.5416256467004068
 20
40.5013881975534105
 10
8.5416256467004068
 20
43.0013881975534105
 97
        1
330
1B1
 75
     0
 76
     1
 98
        0
  0
LWPOLYLINE
  5
1B4
102
{ACAD_REACTORS
330
1B5
102
}
100
AcDbEntity
  8
BUILDING_ENVELOPE
  6
CONTINUOUS
 62
     7
100
AcDbPolyline
 90
        4
 70
     1
 10
0.356904
 20
11.86981
 10
13.958292
 20
11.86981
 10
13.958292
 20
11.536476
 10
0.356904
 20
11.536476
  0
HATCH
  5
1B5
102
{ACAD_REACTORS
330
1B3
102
}
100
AcDbEntity
  8
BUILDING_ENVELOPE
 62
     7
100
AcDbHatch
 10
0.0
 20
0.0
 30
0.0
210
0.0
220
0.0
230
1.0
  2
SOLID
 70
     1
 71
     1
 91
        1
 92
        3
 72
     0
 73
     1
 93
        4
 10
0.3569035593728802
 20
11.8698097329660985
 10
13.9582921953341774
 20
11.8698097329660985
 10
13.9582921953341774
 20
11.5364763996327646
 10
0.356903559372886
 20
11.5364763996327646
 97
        1
330
1B4
 75
     0
 76
     1
 98
        0
  0
LWPOLYLINE
  5
1B6
102
{ACAD_REACTORS
330
1B7
102
}
100
AcDbEntity
  8
BUILDING_ENVELOPE
  6
CONTINUOUS
 62
     7
100
AcDbPolyline
 90
        4
 70
     1
 10
0.356904
 20
11.536476
 10
0.356904
 20
11.86981
 10
0.32357
 20
11.86981
 10
0.32357
 20
11.536476
  0
HATCH
  5
1B7
102
{ACAD_REACTORS
330
1B3
102
}
100
AcDbEntity
  8
BUILDING_ENVELOPE
 62
     7
100
AcDbHatch
 10
0.0
 20
0.0
 30
0.0
210
0.0
220
0.0
230
1.0
  2
SOLID
 70
     1
 71
     1
 91
        1
 92
        3
 72
     0
 73
     1
 93
        4
 10
0.3569035593728831
 20
11.5364763996327646
 10
0.3569035593728831
 20
11.8698097329660985
 10
0.3235702260395498
 20
11.8698097329660985
 10
0.3235702260395498
 20
11.5364763996327646
 97
        1
330
1B6
 75
     0
 76
     1
 98
        0
  0
LWPOLYLINE
  5
1B8
102
{ACAD_REACTORS
330
1B9
102
}
100
AcDbEntity
  8
BUILDING_ENVELOPE
  6
CONTINUOUS
 62
     7
100
AcDbPolyline
 90
        4
 70
     1
 10
13.958292
 20
11.86981
 10
13.958292
 20
11.536476
 10
13.991626
 20
11.536476
 10
13.991626
 20
11.86981
  0
HATCH
  5
1B9
102
{ACAD_REACTORS
330
1B3
102
}
100
AcDbEntity
  8
BUILDING_ENVELOPE
 62
     7
100
AcDbHatch
 10
0.0
 20
0.0
 30
0.0
210
0.0
220
0.0
230
1.0
  2
SOLID
 70
     1
 71
     1
 91
        1
 92
        3
 72
     0
 73
     1
 93
        4
 10
13.9582921953341774
 20
11.8698097329660985
 10
13.9582921953341774
 20
11.5364763996327646
 10
13.9916255286675124
 20
11.5364763996327646
 10
13.9916255286675124
 20
11.8698097329660985
 97
        1
330
1B8
 75
     0
 76
     1
 98
        0
  0
LINE
  5
1BA
102
{ACAD_REACTORS
330
1B3
102
}
100
AcDbEntity
  8
BUILDING_ENVELOPE
  6
CONTINUOUS
 62
     7
100
AcDbLine
 10
0.356904
 20
11.86981
 30
0.0
 11
13.958292
 21
11.86981
 31
0.0
  0
LINE
  5
1BB
102
{ACAD_REACTORS
330
1B3
102
}
100
AcDbEntity
  8
BUILDING_ENVELOPE
  6
CONTINUOUS
 62
     7
100
AcDbLine
 10
0.356904
 20
11.536476
 30
0.0
 11
13.958292
 21
11.536476
 31
0.0
  0
LWPOLYLINE
  5
1BD
102
{ACAD_REACTORS
330
1C3
102
}
100
AcDbEntity
  8
BUILDING_ENVELOPE
  6
CONTINUOUS
 62
     7
100
AcDbPolyline
 90
        4
 70
     1
 10
9.967064
 20
11.528476
 10
13.800397
 20
11.528476
 10
13.800397
 20
11.87781
 10
9.967064
 20
11.87781
  0
LINE
  5
1BE
102
{ACAD_REACTORS
330
1C3
102
}
100
AcDbEntity
  8
BUILDING_ENVELOPE
  6
CONTINUOUS
 62
     7
100
AcDbLine
 10
13.800397
 20
11.536476
 30
0.0
 11
13.800397
 21
11.86981
 31
0.0
  0
LINE
  5
1BF
102
{ACAD_REACTORS
330
1C3
102
}
100
AcDbEntity
  8
BUILDING_ENVELOPE
  6
CONTINUOUS
 62
     7
100
AcDbLine
 10
13.800397
 20
11.86981
 30
0.0
 11
13.633731
 21
11.86981
 31
0.0
  0
LINE
  5
1C0
102
{ACAD_REACTORS
330
1C3
102
}
100
AcDbEntity
  8
BUILDING_ENVELOPE
  6
CONTINUOUS
 62
     7
100
AcDbLine
 10
13.633731
 20
11.86981
 30
0.0
 11
13.633731
 21
11.74481
 31
0.0
  0
LINE
  5
1C1
102
{ACAD_REACTORS
330
1C3
102
}
100
AcDbEntity
  8
BUILDING_ENVELOPE
  6
CONTINUOUS
 62
     7
100
AcDbLine
 10
13.633731
 20
11.61981
 30
0.0
 11
13.633731
 21
11.536476
 31
0.0
  0
LINE
  5
1C2
102
{ACAD_REACTORS
330
1C3
102
}
100
AcDbEntity
  8
BUILDING_ENVELOPE
  6
CONTINUOUS
 62
     7
100
AcDbLine
 10
13.633731
 20
11.536476
 30
0.0
 11
13.800397
 21
11.536476
 31
0.0
  0
HATCH
  5
1C3
102
{ACAD_REACTORS
330
1BC
102
}
100
AcDbEntity
  8
BUILDING_ENVELOPE
 62
     7
100
AcDbHatch
 10
0.0
 20
0.0
 30
0.0
210
0.0
220
0.0
230
1.0
  2
SOLID
 70
     1
 71
     1
 91
        2
 92
        1
 93
        6
 72
     1
 10
13.8003974695840981
 20
11.5364763996327486
 11
13.8003974695840981
 21
11.8698097329660825
 72
     1
 10
13.8003974695840981
 20
11.8698097329660825
 11
13.6337308029174302
 21
11.8698097329660825
 72
     1
 10
13.6337308029174302
 20
11.8698097329660825
 11
13.6337308029174302
 21
11.7448097329660825
 72
     1
 10
13.6337308029174302
 20
11.7448097329660825
 11
13.6337308029174302
 21
11.6198097329660825
 72
     1
 10
13.6337308029174302
 20
11.6198097329660825
 11
13.6337308029174302
 21
11.5364763996327486
 72
     1
 10
13.6337308029174302
 20
11.5364763996327486
 11
13.8003974695840981
 21
11.5364763996327486
 97
        6
330
1BD
330
1BE
330
1BF
330
1C0
330
1C1
330
1C2
 92
        1
 93
        6
 72
     1
 10
9.9670643891784696
 20
11.5364763996327486
 11
9.9670643891784696
 21
11.8698097329660825
 72
     1
 10
9.9670643891784696
 20
11.8698097329660825
 11
10.1337310558451357
 21
11.8698097329660825
 72
     1
 10
10.1337310558451357
 20
11.8698097329660825
 11
10.1337310558451357
 21
11.7448097329660825
 72
     1
 10
10.1337310558451357
 20
11.7448097329660825
 11
10.1337310558451357
 21
11.6198097329660825
 72
     1
 10
10.1337310558451357
 20
11.6198097329660825
 11
10.1337310558451357
 21
11.5364763996327486
 72
     1
 10
10.1337310558451357
 20
11.5364763996327486
 11
9.9670643891784696
 21
11.5364763996327486
 97
        5
330
1C4
330
1C5
330
1C6
330
1C7
330
1C8
 75
     0
 76
     1
 98
        0
  0
LINE
  5
1C4
102
{ACAD_REACTORS
330
1C3
102
}
100
AcDbEntity
  8
BUILDING_ENVELOPE
  6
CONTINUOUS
 62
     7
100
AcDbLine
 10
9.967064
 20
11.536476
 30
0.0
 11
9.967064
 21
11.86981
 31
0.0
  0
LINE
  5
1C5
102
{ACAD_REACTORS
330
1C3
102
}
100
AcDbEntity
  8
BUILDING_ENVELOPE
  6
CONTINUOUS
 62
     7
100
AcDbLine
 10
9.967064
 20
11.86981
 30
0.0
 11
10.133731
 21
11.86981
 31
0.0
  0
LINE
  5
1C6
102
{ACAD_REACTORS
330
1C3
102
}
100
AcDbEntity
  8
BUILDING_ENVELOPE
  6
CONTINUOUS
 62
     7
100
AcDbLine
 10
10.133731
 20
11.86981
 30
0.0
 11
10.133731
 21
11.74481
 31
0.0
  0
LINE
  5
1C7
102
{ACAD_REACTORS
330
1C3
102
}
100
AcDbEntity
  8
BUILDING_ENVELOPE
  6
CONTINUOUS
 62
     7
100
AcDbLine
 10
10.133731
 20
11.61981
 30
0.0
 11
10.133731
 21
11.536476
 31
0.0
  0
LINE
  5
1C8
102
{ACAD_REACTORS
330
1C3
102
}
100
AcDbEntity
  8
BUILDING_ENVELOPE
  6
CONTINUOUS
 62
     7
100
AcDbLine
 10
10.133731
 20
11.536476
 30
0.0
 11
9.967064
 21
11.536476
 31
0.0
  0
LINE
  5
1C9
102
{ACAD_REACTORS
330
1CC
102
}
100
AcDbEntity
  8
BUILDING_ENVELOPE
  6
CONTINUOUS
 62
     7
100
AcDbLine
 10
13.633731
 20
11.74481
 30
0.0
 11
13.592064
 21
11.74481
 31
0.0
  0
LINE
  5
1CA
102
{ACAD_REACTORS
330
1CC
102
}
100
AcDbEntity
  8
BUILDING_ENVELOPE
  6
CONTINUOUS
 62
     7
100
AcDbLine
 10
13.592064
 20
11.74481
 30
0.0
 11
13.592064
 21
11.61981
 31
0.0
  0
LINE
  5
1CB
102
{ACAD_REACTORS
330
1CC
102
}
100
AcDbEntity
  8
BUILDING_ENVELOPE
  6
CONTINUOUS
 62
     7
100
AcDbLine
 10
13.592064
 20
11.61981
 30
0.0
 11
13.633731
 21
11.61981
 31
0.0
  0
HATCH
  5
1CC
102
{ACAD_REACTORS
330
1BC
102
}
100
AcDbEntity
  8
BUILDING_ENVELOPE
 62
     7
100
AcDbHatch
 10
0.0
 20
0.0
 30
0.0
210
0.0
220
0.0
230
1.0
  2
SOLID
 70
     1
 71
     1
 91
        2
 92
        1
 93
        4
 72
     1
 10
13.6337308029174302
 20
11.7448097329660825
 11
13.5920641362507642
 21
11.7448097329660825
 72
     1
 10
13.5920641362507642
 20
11.7448097329660825
 11
13.5920641362507642
 21
11.6198097329660825
 72
     1
 10
13.5920641362507642
 20
11.6198097329660825
 11
13.6337308029174302
 21
11.6198097329660825
 72
     1
 10
13.6337308029174302
 20
11.6198097329660825
 11
13.6337308029174302
 21
11.7448097329660825
 97
        3
330
1C9
330
1CA
330
1CB
 92
        1
 93
        4
 72
     1
 10
10.1337310558451357
 20
11.7448097329660825
 11
10.1753977225118035
 21
11.7448097329660825
 72
     1
 10
10.1753977225118035
 20
11.7448097329660825
 11
10.1753977225118035
 21
11.6198097329660825
 72
     1
 10
10.1753977225118035
 20
11.6198097329660825
 11
10.1337310558451357
 21
11.6198097329660825
 72
     1
 10
10.1337310558451357
 20
11.6198097329660825
 11
10.1337310558451357
 21
11.7448097329660825
 97
        3
330
1CD
330
1CE
330
1CF
 75
     0
 76
     1
 98
        0
  0
LINE
  5
1CD
102
{ACAD_REACTORS
330
1CC
102
}
100
AcDbEntity
  8
BUILDING_ENVELOPE
  6
CONTINUOUS
 62
     7
100
AcDbLine
 10
10.133731
 20
11.74481
 30
0.0
 11
10.175398
 21
11.74481
 31
0.0
  0
LINE
  5
1CE
102
{ACAD_REACTORS
330
1CC
102
}
100
AcDbEntity
  8
BUILDING_ENVELOPE
  6
CONTINUOUS
 62
     7
100
AcDbLine
 10
10.175398
 20
11.74481
 30
0.0
 11
10.175398
 21
11.61981
 31
0.0
  0
LINE
  5
1CF
102
{ACAD_REACTORS
330
1CC
102
}
100
AcDbEntity
  8
BUILDING_ENVELOPE
  6
CONTINUOUS
 62
     7
100
AcDbLine
 10
10.175398
 20
11.61981
 30
0.0
 11
10.133731
 21
11.61981
 31
0.0
  0
LINE
  5
1D0
102
{ACAD_REACTORS
330
1BC
102
}
100
AcDbEntity
  8
BUILDING_ENVELOPE
  6
CONTINUOUS
 62
     7
100
AcDbLine
 10
13.800397
 20
11.536476
 30
0.0
 11
13.800397
 21
11.86981
 31
0.0
  0
LINE
  5
1D1
102
{ACAD_REACTORS
330
1BC
102
}
100
AcDbEntity
  8
BUILDING_ENVELOPE
  6
CONTINUOUS
 62
     7
100
AcDbLine
 10
9.967064
 20
11.536476
 30
0.0
 11
9.967064
 21
11.86981
 31
0.0
  0
ARC
  5
1D2
102
{ACAD_REACTORS
330
1BC
102
}
100
AcDbEntity
  8
BUILDING_ENVELOPE
  6
CONTINUOUS
 62
     7
100
AcDbCircle
 10
13.633731
 20
11.86981
 30
0.0
 40
3.5
100
AcDbArc
 50
90.0
 51
180.0
  0
LWPOLYLINE
  5
1D3
102
{ACAD_REACTORS
330
1D4
102
}
100
AcDbEntity
  8
BUILDING_ENVELOPE
  6
CONTINUOUS
 62
     7
100
AcDbPolyline
 90
        4
 70
     1
 10
13.508731
 20
15.369809
 10
13.508731
 20
11.86981
 10
13.633731
 20
11.86981
 10
13.633731
 20
15.369809
  0
HATCH
  5
1D4
102
{ACAD_REACTORS
330
1BC
102
}
100
AcDbEntity
  8
BUILDING_ENVELOPE
 62
     7
100
AcDbHatch
 10
0.0
 20
0.0
 30
0.0
210
0.0
220
0.0
230
1.0
  2
SOLID
 70
     1
 71
     1
 91
        1
 92
        3
 72
     0
 73
     1
 93
        4
 10
13.5087308029174302
 20
15.3698094800383771
 10
13.5087308029174302
 20
11.8698097329660825
 10
13.6337308029174302
 20
11.8698097329660825
 10
13.6337308029174302
 20
15.3698094800383771
 97
        1
330
1D3
 75
     0
 76
     1
 98
        0
  0
LWPOLYLINE
  5
1D6
102
{ACAD_REACTORS
330
1D5
102
}
100
AcDbEntity
  8
BUILDING_ENVELOPE
  6
CONTINUOUS
 62
     7
100
AcDbPolyline
 90
        4
 70
     1
 10
14.299626
 20
16.595401
 10
14.299626
 20
20.007681
 10
13.950292
 20
20.007681
 10
13.950292
 20
16.595401
  0
LWPOLYLINE
  5
1D7
102
{ACAD_REACTORS
330
1D5
102
}
100
AcDbEntity
  8
BUILDING_ENVELOPE
  6
CONTINUOUS
 62
     7
100
AcDbPolyline
 90
        4
 70
     1
 10
14.291626
 20
20.007681
 10
13.958292
 20
20.007681
 10
13.958292
 20
19.841015
 10
14.291626
 20
19.841015
  0
LWPOLYLINE
  5
1D8
102
{ACAD_REACTORS
330
1D5
102
}
100
AcDbEntity
  8
BUILDING_ENVELOPE
  6
CONTINUOUS
 62
     7
100
AcDbPolyline
 90
        4
 70
     1
 10
14.291626
 20
16.595401
 10
13.958292
 20
16.595401
 10
13.958292
 20
16.762067
 10
14.291626
 20
16.762067
  0
LINE
  5
1D9
102
{ACAD_REACTORS
330
1D5
102
}
100
AcDbEntity
  8
BUILDING_ENVELOPE
  6
CONTINUOUS
 62
     7
100
AcDbLine
 10
14.291626
 20
20.007681
 30
0.0
 11
13.958292
 21
20.007681
 31
0.0
  0
LINE
  5
1DA
102
{ACAD_REACTORS
330
1D5
102
}
100
AcDbEntity
  8
BUILDING_ENVELOPE
  6
CONTINUOUS
 62
     7
100
AcDbLine
 10
14.291626
 20
16.595401
 30
0.0
 11
13.958292
 21
16.595401
 31
0.0
  0
LWPOLYLINE
  5
1DC
102
{ACAD_REACTORS
330
1DD
102
}
100
AcDbEntity
  8
BUILDING_ENVELOPE
  6
CONTINUOUS
 62
     9
100
AcDbPolyline
 90
        4
 70
     1
 10
22.291625
 20
16.485561
 10
21.341625
 20
16.485561
 10
21.341625
 20
19.564508
 10
22.291625
 20
19.564508
  0
HATCH
  5
1DD
102
{ACAD_REACTORS
330
1DB
102
}
100
AcDbEntity
  8
BUILDING_ENVELOPE
 62
   134
100
AcDbHatch
 10
0.0
 20
0.0
 30
0.0
210
0.0
220
0.0
230
1.0
  2
SOLID
 70
     1
 71
     1
 91
       33
 92
        3
 72
     0
 73
     1
 93
        4
 10
22.2916253937727902
 20
16.48556098738581
 10
21.3416254140070016
 20
16.48556098738581
 10
21.3416254140070016
 20
19.564508324968255
 10
22.2916253937727902
 20
19.564508324968255
 97
        4
330
1D6
330
1D7
330
1D8
330
1DC
 92
        3
 72
     0
 73
     1
 93
        4
 10
21.3416254140070016
 20
16.48556098738581
 10
20.3916254342412131
 20
16.48556098738581
 10
20.3916254342412131
 20
19.564508324968255
 10
21.3416254140070016
 20
19.564508324968255
 97
        1
330
1DE
 92
        3
 72
     0
 73
     1
 93
        4
 10
20.3916254342412131
 20
16.48556098738581
 10
19.4416254544754246
 20
16.48556098738581
 10
19.4416254544754246
 20
19.564508324968255
 10
20.3916254342412131
 20
19.564508324968255
 97
        1
330
1DF
 92
        3
 72
     0
 73
     1
 93
        4
 10
19.4416254544754246
 20
16.48556098738581
 10
18.491625474709636
 20
16.48556098738581
 10
18.491625474709636
 20
19.564508324968255
 10
19.4416254544754246
 20
19.564508324968255
 97
        1
330
1E0
 92
        3
 72
     0
 73
     1
 93
        4
 10
18.491625474709636
 20
16.48556098738581
 10
17.541625494943851
 20
16.48556098738581
 10
17.541625494943851
 20
19.564508324968255
 10
18.491625474709636
 20
19.564508324968255
 97
        1
330
1E1
 92
        0
 93
        0
 97
        0
 92
        0
 93
        0
 97
        0
 92
        0
 93
        0
 97
        0
 92
        0
 93
        0
 97
        0
 92
        0
 93
        0
 97
        0
 92
        0
 93
        0
 97
        0
 92
        0
 93
        0
 97
        0
 92
        0
 93
        0
 97
        0
 92
        0
 93
        0
 97
        0
 92
        0
 93
        0
 97
        0
 92
        0
 93
        0
 97
        0
 92
        0
 93
        0
 97
        0
 92
        0
 93
        0
 97
        0
 92
        0
 93
        0
 97
        0
 92
        0
 93
        0
 97
        0
 92
        0
 93
        0
 97
        0
 92
        0
 93
        0
 97
        0
 92
        0
 93
        0
 97
        0
 92
        0
 93
        0
 97
        0
 92
        0
 93
        0
 97
        0
 92
        0
 93
        0
 97
        0
 92
        0
 93
        0
 97
        0
 92
        0
 93
        0
 97
        0
 92
        0
 93
        0
 97
        0
 92
        0
 93
        0
 97
        0
 92
        0
 93
        0
 97
        0
 92
        0
 93
        0
 97
        0
 92
        0
 93
        0
 97
        0
 75
     0
 76
     1
 98
        0
  0
LWPOLYLINE
  5
1DE
102
{ACAD_REACTORS
330
1DD
102
}
100
AcDbEntity
  8
BUILDING_ENVELOPE
  6
CONTINUOUS
 62
     9
100
AcDbPolyline
 90
        4
 70
     1
 10
21.341625
 20
16.485561
 10
20.391625
 20
16.485561
 10
20.391625
 20
19.564508
 10
21.341625
 20
19.564508
  0
LWPOLYLINE
  5
1DF
102
{ACAD_REACTORS
330
1DD
102
}
100
AcDbEntity
  8
BUILDING_ENVELOPE
  6
CONTINUOUS
 62
     9
100
AcDbPolyline
 90
        4
 70
     1
 10
20.391625
 20
16.485561
 10
19.441625
 20
16.485561
 10
19.441625
 20
19.564508
 10
20.391625
 20
19.564508
  0
LWPOLYLINE
  5
1E0
102
{ACAD_REACTORS
330
1DD
102
}
100
AcDbEntity
  8
BUILDING_ENVELOPE
  6
CONTINUOUS
 62
     9
100
AcDbPolyline
 90
        4
 70
     1
 10
19.441625
 20
16.485561
 10
18.491625
 20
16.485561
 10
18.491625
 20
19.564508
 10
19.441625
 20
19.564508
  0
LWPOLYLINE
  5
1E1
102
{ACAD_REACTORS
330
1DD
102
}
100
AcDbEntity
  8
BUILDING_ENVELOPE
  6
CONTINUOUS
 62
     9
100
AcDbPolyline
 90
        4
 70
     1
 10
18.491625
 20
16.485561
 10
17.541625
 20
16.485561
 10
17.541625
 20
19.564508
 10
18.491625
 20
19.564508
  0
MTEXT
  5
1E2
100
AcDbEntity
  8
BUILDING_ENVELOPE
100
AcDbMText
 10
22.668259
 20
18.025035
 30
0.0
 40
0.333332
 41
0.753267
 71
     5
 72
     5
  1
\C7;\fCalibri|b0|i0|;\H0.33333206176758;UP
  0
CIRCLE
  5
1E4
102
{ACAD_REACTORS
330
1E5
102
}
100
AcDbEntity
  8
STAIR
  6
CONTINUOUS
 62
     7
100
AcDbCircle
 10
22.291625
 20
18.025035
 30
0.0
 40
0.086804
  0
HATCH
  5
1E5
102
{ACAD_REACTORS
330
1DB
102
}
100
AcDbEntity
  8
STAIR
 62
   134
100
AcDbHatch
 10
0.0
 20
0.0
 30
0.0
210
0.0
220
0.0
230
1.0
  2
SOLID
 70
     1
 71
     1
 91
        1
 92
        1
 93
        1
 72
     2
 10
22.2916253937727902
 20
18.0250346561770307
 40
0.0868041666666667
 50
0.0
 51
360.0
 73
     1
 97
        1
330
1E4
 75
     0
 76
     1
 98
        0
  0
LINE
  5
1E6
102
{ACAD_REACTORS
330
1DB
102
}
100
AcDbEntity
  8
STAIR
  6
CONTINUOUS
 62
     7
100
AcDbLine
 10
22.291625
 20
18.025035
 30
0.0
 11
19.983425
 21
18.025035
 31
0.0
  0
LWPOLYLINE
  5
1E7
102
{ACAD_REACTORS
330
1E8
102
}
100
AcDbEntity
  8
STAIR
  6
CONTINUOUS
 62
     7
100
AcDbPolyline
 90
        3
 70
     1
 10
20.196338
 20
18.15251
 10
20.196338
 20
17.89756
 10
19.770513
 20
18.027769
  0
HATCH
  5
1E8
102
{ACAD_REACTORS
330
1DB
102
}
100
AcDbEntity
  8
STAIR
 62
   134
100
AcDbHatch
 10
0.0
 20
0.0
 30
0.0
210
0.0
220
0.0
230
1.0
  2
SOLID
 70
     1
 71
     1
 91
        1
 92
        3
 72
     0
 73
     1
 93
        3
 10
20.1963378937727889
 20
18.1525096561770312
 10
20.1963378937727889
 20
17.8975596561770303
 10
19.7705128937727892
 20
18.0277690535212614
 97
        1
330
1E7
 75
     0
 76
     1
 98
        0
  0
LWPOLYLINE
  5
1E9
102
{ACAD_REACTORS
330
1EA
102
}
100
AcDbEntity
  8
BUILDING_ENVELOPE
  6
CONTINUOUS
 62
     9
100
AcDbPolyline
 90
        4
 70
     1
 10
22.291625
 20
19.584722
 10
21.411508
 20
19.584722
 10
21.411508
 20
22.712252
 10
22.291625
 20
22.712252
  0
HATCH
  5
1EA
102
{ACAD_REACTORS
330
1DB
102
}
100
AcDbEntity
  8
BUILDING_ENVELOPE
 62
   134
100
AcDbHatch
 10
0.0
 20
0.0
 30
0.0
210
0.0
220
0.0
230
1.0
  2
SOLID
 70
     1
 71
     1
 91
       33
 92
        3
 72
     0
 73
     1
 93
        4
 10
22.2916253937727902
 20
19.5847222222221973
 10
21.411508449548851
 20
19.5847222222221973
 10
21.411508449548851
 20
22.7122515787693047
 10
22.2916253937727902
 20
22.7122515787693047
 97
        1
330
1E9
 92
        3
 72
     0
 73
     1
 93
        4
 10
21.411508449548851
 20
19.5847222222221973
 10
20.5313915053249119
 20
19.5847222222221973
 10
20.5313915053249119
 20
22.7122515787693047
 10
21.411508449548851
 20
22.7122515787693047
 97
        1
330
1EB
 92
        3
 72
     0
 73
     1
 93
        4
 10
20.5313915053249119
 20
19.5847222222221973
 10
19.6512745611009692
 20
19.5847222222221973
 10
19.6512745611009692
 20
22.7122515787693047
 10
20.5313915053249119
 20
22.7122515787693047
 97
        1
330
1EC
 92
        3
 72
     0
 73
     1
 93
        4
 10
19.6512745611009692
 20
19.5847222222221973
 10
18.7711576168770335
 20
19.5847222222221973
 10
18.7711576168770335
 20
22.7122515787693047
 10
19.6512745611009692
 20
22.7122515787693047
 97
        1
330
1ED
 92
        3
 72
     0
 73
     1
 93
        4
 10
18.7711576168770335
 20
19.5847222222221973
 10
17.8910406726530944
 20
19.5847222222221973
 10
17.8910406726530944
 20
22.7122515787693047
 10
18.7711576168770335
 20
22.7122515787693047
 97
        1
330
1EE
 92
        3
 72
     0
 73
     1
 93
        4
 10
17.8910406726530944
 20
19.5847222222221973
 10
17.0109237284291552
 20
19.5847222222221973
 10
17.0109237284291552
 20
22.7122515787693047
 10
17.8910406726530944
 20
22.7122515787693047
 97
        1
330
1EF
 92
        3
 72
     0
 73
     1
 93
        4
 10
17.0109237284291552
 20
19.5847222222221973
 10
16.1308067842052125
 20
19.5847222222221973
 10
16.1308067842052125
 20
22.7122515787693047
 10
17.0109237284291552
 20
22.7122515787693047
 97
        1
330
1F0
 92
        3
 72
     0
 73
     1
 93
        4
 10
16.1308067842052125
 20
19.5847222222221973
 10
15.2506898399812769
 20
19.5847222222221973
 10
15.2506898399812769
 20
22.7122515787693047
 10
16.1308067842052125
 20
22.7122515787693047
 97
        1
330
1F1
 92
        3
 72
     0
 73
     1
 93
        4
 10
15.2506898399812769
 20
19.5847222222221973
 10
14.3705728957573378
 20
19.5847222222221973
 10
14.3705728957573378
 20
22.7122515787693047
 10
15.2506898399812769
 20
22.7122515787693047
 97
        1
330
1F2
 92
        0
 93
        0
 97
        0
 92
        0
 93
        0
 97
        0
 92
        0
 93
        0
 97
        0
 92
        0
 93
        0
 97
        0
 92
        0
 93
        0
 97
        0
 92
        0
 93
        0
 97
        0
 92
        0
 93
        0
 97
        0
 92
        0
 93
        0
 97
        0
 92
        0
 93
        0
 97
        0
 92
        0
 93
        0
 97
        0
 92
        0
 93
        0
 97
        0
 92
        0
 93
        0
 97
        0
 92
        0
 93
        0
 97
        0
 92
        0
 93
        0
 97
        0
 92
        0
 93
        0
 97
        0
 92
        0
 93
        0
 97
        0
 92
        0
 93
        0
 97
        0
 92
        0
 93
        0
 97
        0
 92
        0
 93
        0
 97
        0
 92
        0
 93
        0
 97
        0
 92
        0
 93
        0
 97
        0
 92
        0
 93
        0
 97
        0
 92
        0
 93
        0
 97
        0
 92
        0
 93
        0
 97
        0
 75
     0
 76
     1
 98
        0
  0
LWPOLYLINE
  5
1EB
102
{ACAD_REACTORS
330
1EA
102
}
100
AcDbEntity
  8
BUILDING_ENVELOPE
  6
CONTINUOUS
 62
     9
100
AcDbPolyline
 90
        4
 70
     1
 10
21.411508
 20
19.584722
 10
20.531392
 20
19.584722
 10
20.531392
 20
22.712252
 10
21.411508
 20
22.712252
  0
LWPOLYLINE
  5
1EC
102
{ACAD_REACTORS
330
1EA
102
}
100
AcDbEntity
  8
BUILDING_ENVELOPE
  6
CONTINUOUS
 62
     9
100
AcDbPolyline
 90
        4
 70
     1
 10
20.531392
 20
19.584722
 10
19.651275
 20
19.584722
 10
19.651275
 20
22.712252
 10
20.531392
 20
22.712252
  0
LWPOLYLINE
  5
1ED
102
{ACAD_REACTORS
330
1EA
102
}
100
AcDbEntity
  8
BUILDING_ENVELOPE
  6
CONTINUOUS
 62
     9
100
AcDbPolyline
 90
        4
 70
     1
 10
19.651275
 20
19.584722
 10
18.771158
 20
19.584722
 10
18.771158
 20
22.712252
 10
19.651275
 20
22.712252
  0
LWPOLYLINE
  5
1EE
102
{ACAD_REACTORS
330
1EA
102
}
100
AcDbEntity
  8
BUILDING_ENVELOPE
  6
CONTINUOUS
 62
     9
100
AcDbPolyline
 90
        4
 70
     1
 10
18.771158
 20
19.584722
 10
17.891041
 20
19.584722
 10
17.891041
 20
22.712252
 10
18.771158
 20
22.712252
  0
LWPOLYLINE
  5
1EF
102
{ACAD_REACTORS
330
1EA
102
}
100
AcDbEntity
  8
BUILDING_ENVELOPE
  6
CONTINUOUS
 62
     9
100
AcDbPolyline
 90
        4
 70
     1
 10
17.891041
 20
19.584722
 10
17.010924
 20
19.584722
 10
17.010924
 20
22.712252
 10
17.891041
 20
22.712252
  0
LWPOLYLINE
  5
1F0
102
{ACAD_REACTORS
330
1EA
102
}
100
AcDbEntity
  8
BUILDING_ENVELOPE
  6
CONTINUOUS
 62
     9
100
AcDbPolyline
 90
        4
 70
     1
 10
17.010924
 20
19.584722
 10
16.130807
 20
19.584722
 10
16.130807
 20
22.712252
 10
17.010924
 20
22.712252
  0
LWPOLYLINE
  5
1F1
102
{ACAD_REACTORS
330
1EA
102
}
100
AcDbEntity
  8
BUILDING_ENVELOPE
  6
CONTINUOUS
 62
     9
100
AcDbPolyline
 90
        4
 70
     1
 10
16.130807
 20
19.584722
 10
15.25069
 20
19.584722
 10
15.25069
 20
22.712252
 10
16.130807
 20
22.712252
  0
LWPOLYLINE
  5
1F2
102
{ACAD_REACTORS
330
1EA
102
}
100
AcDbEntity
  8
BUILDING_ENVELOPE
  6
CONTINUOUS
 62
     9
100
AcDbPolyline
 90
        4
 70
     1
 10
15.25069
 20
19.584722
 10
14.370573
 20
19.584722
 10
14.370573
 20
22.712252
 10
15.25069
 20
22.712252
  0
MTEXT
  5
1F3
100
AcDbEntity
  8
BUILDING_ENVELOPE
100
AcDbMText
 10
22.668259
 20
21.148487
 30
0.0
 40
0.333332
 41
0.753267
 71
     5
 72
     5
  1
\C7;\fCalibri|b0|i0|;\H0.33333206176758;UP
  0
CIRCLE
  5
1F4
102
{ACAD_REACTORS
330
1F5
102
}
100
AcDbEntity
  8
STAIR
  6
CONTINUOUS
 62
     7
100
AcDbCircle
 10
22.291625
 20
21.148487
 30
0.0
 40
0.086804
  0
HATCH
  5
1F5
102
{ACAD_REACTORS
330
1DB
102
}
100
AcDbEntity
  8
STAIR
 62
   134
100
AcDbHatch
 10
0.0
 20
0.0
 30
0.0
210
0.0
220
0.0
230
1.0
  2
SOLID
 70
     1
 71
     1
 91
        1
 92
        1
 93
        1
 72
     2
 10
22.2916253937727902
 20
21.148486900495751
 40
0.0868041666666667
 50
0.0
 51
360.0
 73
     1
 97
        1
330
1F4
 75
     0
 76
     1
 98
        0
  0
LINE
  5
1F6
102
{ACAD_REACTORS
330
1DB
102
}
100
AcDbEntity
  8
STAIR
  6
CONTINUOUS
 62
     7
100
AcDbLine
 10
22.291625
 20
21.148487
 30
0.0
 11
19.983425
 21
21.148487
 31
0.0
  0
LWPOLYLINE
  5
1F7
102
{ACAD_REACTORS
330
1F8
102
}
100
AcDbEntity
  8
STAIR
  6
CONTINUOUS
 62
     7
100
AcDbPolyline
 90
        3
 70
     1
 10
20.196338
 20
21.275962
 10
20.196338
 20
21.021012
 10
19.770513
 20
21.151221
  0
HATCH
  5
1F8
102
{ACAD_REACTORS
330
1DB
102
}
100
AcDbEntity
  8
STAIR
 62
   134
100
AcDbHatch
 10
0.0
 20
0.0
 30
0.0
210
0.0
220
0.0
230
1.0
  2
SOLID
 70
     1
 71
     1
 91
        1
 92
        3
 72
     0
 73
     1
 93
        3
 10
20.1963378937727889
 20
21.2759619004957514
 10
20.1963378937727889
 20
21.0210119004957505
 10
19.7705128937727892
 20
21.1512212978399816
 97
        1
330
1F7
 75
     0
 76
     1
 98
        0
  0
LWPOLYLINE
  5
1F9
102
{ACAD_REACTORS
330
1FA
102
}
100
AcDbEntity
  8
0
  6
CONTINUOUS
 62
     7
100
AcDbPolyline
 90
        4
 70
     1
 10
22.291626
 20
16.668055
 10
25.041626
 20
16.668055
 10
25.041626
 20
22.668056
 10
22.291626
 20
22.668056
  0
HATCH
  5
1FA
102
{ACAD_REACTORS
330
1DB
102
}
100
AcDbEntity
  8
0
 62
   134
100
AcDbHatch
 10
0.0
 20
0.0
 30
0.0
210
0.0
220
0.0
230
1.0
  2
SOLID
 70
     1
 71
     1
 91
        1
 92
        3
 72
     0
 73
     1
 93
        4
 10
22.2916257815951049
 20
16.6680552604733592
 10
25.0416257815951049
 20
16.6680552604733592
 10
25.0416257815951049
 20
22.6680555555555543
 10
22.2916257815951049
 20
22.6680555555555543
 97
        1
330
1F9
 75
     0
 76
     1
 98
        0
  0
ENDSEC
  0
SECTION
  2
OBJECTS
  0
DICTIONARY
  5
C
100
AcDbDictionary
  3
ACAD_GROUP
350
D
  3
ACAD_MLINESTYLE
350
1B
  3
ACAD_SCALELIST
350
2C
  3
ACAD_VISUALSTYLE
350
51
  3
ACAD_MATERIAL
350
6A
  3
ACAD_TABLESTYLE
350
6E
  3
ACAD_MLEADERSTYLE
350
70
  0
DICTIONARY
  5
D
102
{ACAD_REACTORS
330
C
102
}
100
AcDbDictionary
  3
VISIOGROUP_0
350
74
  3
VISIOGROUP_1
350
79
  3
VISIOGROUP_2
350
80
  3
VISIOGROUP_3
350
84
  3
VISIOGROUP_4
350
88
  3
VISIOGROUP_5
350
8F
  3
VISIOGROUP_6
350
93
  3
VISIOGROUP_7
350
97
  3
VISIOGROUP_8
350
9B
  3
VISIOGROUP_9
350
9F
  3
VISIOGROUP_10
350
A3
  3
VISIOGROUP_11
350
A7
  3
VISIOGROUP_12
350
AE
  3
VISIOGROUP_13
350
B4
  3
VISIOGROUP_14
350
B9
  3
VISIOGROUP_15
350
BE
  3
VISIOGROUP_16
350
C3
  3
VISIOGROUP_17
350
CC
  3
VISIOGROUP_18
350
D3
  3
VISIOGROUP_19
350
DA
  3
VISIOGROUP_20
350
E1
  3
VISIOGROUP_21
350
EA
  3
VISIOGROUP_22
350
F3
  3
VISIOGROUP_23
350
FC
  3
VISIOGROUP_24
350
105
  3
VISIOGROUP_25
350
10C
  3
VISIOGROUP_26
350
115
  3
VISIOGROUP_27
350
12E
  3
VISIOGROUP_28
350
141
  3
VISIOGROUP_29
350
15A
  3
VISIOGROUP_30
350
173
  3
VISIOGROUP_31
350
17A
  3
VISIOGROUP_32
350
193
  3
VISIOGROUP_33
350
19A
  3
VISIOGROUP_34
350
1B3
  3
VISIOGROUP_35
350
1BC
  3
VISIOGROUP_36
350
1D5
  3
VISIOGROUP_37
350
1DB
  0
DICTIONARY
  5
1B
102
{ACAD_REACTORS
330
C
102
}
100
AcDbDictionary
  3
STANDARD
350
1C
  0
MLINESTYLE
  5
1C
102
{ACAD_REACTORS
330
1B
102
}
100
AcDbMlineStyle
  2
STANDARD
 70
     0
  3

 62
   256
 51
90.0
 52
90.0
 71
     2
 49
0.5
 62
   256
  6
BYLAYER
 49
-0.5
 62
   256
  6
BYLAYER
  0
DICTIONARY
  5
29
102
{ACAD_REACTORS
330
C
102
}
100
AcDbDictionary
  0
DICTIONARY
  5
2C
102
{ACAD_REACTORS
330
C
102
}
100
AcDbDictionary
  3
A0
350
2D
  3
A1
350
2E
  3
A2
350
2F
  3
A3
350
30
  3
A4
350
31
  3
A5
350
32
  3
A6
350
33
  3
A7
350
34
  3
A8
350
35
  3
A9
350
36
  3
B0
350
37
  3
B1
350
38
  3
B2
350
39
  3
B3
350
3A
  3
B4
350
3B
  3
B5
350
3C
  3
B6
350
3D
  3
B7
350
3E
  3
B8
350
3F
  3
B9
350
40
  3
C0
350
41
  3
C1
350
42
  3
C2
350
43
  3
C3
350
44
  3
C4
350
45
  3
C5
350
46
  3
C6
350
47
  3
C7
350
48
  3
C8
350
49
  3
C9
350
4A
  3
D0
350
4B
  3
D1
350
4C
  3
D2
350
4D
  0
DICTIONARY
  5
4E
102
{ACAD_REACTORS
330
C
102
}
100
AcDbDictionary
  3
MODEL
350
4F
  3
LAYOUT1
350
50
  0
DICTIONARY
  5
51
102
{ACAD_REACTORS
330
C
102
}
100
AcDbDictionary
  3
FLAT
350
52
  3
FLATWITHEDGES
350
53
  3
GOURAUD
350
54
  3
GOURAUDWITHEDGES
350
55
  3
2DWIREFRAME
350
56
  3
WIREFRAME
350
57
  3
HIDDEN
350
58
  3
BASIC
350
59
  3
REALISTIC
350
5A
  3
CONCEPTUAL
350
5B
  3
DIM
350
5C
  3
BRIGHTEN
350
5D
  3
THICKEN
350
5E
  3
LINEPATTERN
350
5F
  3
FACEPATTERN
350
60
  3
COLORCHANGE
350
61
  3
JITTEROFF
350
62
  3
OVERHANGOFF
350
63
  3
EDGECOLOROFF
350
64
  3
SHADES OF GRAY
350
65
  3
SKETCHY
350
66
  3
X-RAY
350
67
  3
SHADED WITH EDGES
350
68
  3
SHADED
350
69
  0
DICTIONARY
  5
6A
102
{ACAD_REACTORS
330
C
102
}
100
AcDbDictionary
  3
BYLAYER
350
6B
  3
BYBLOCK
350
6C
  3
GLOBAL
350
6D
  0
DICTIONARY
  5
6E
102
{ACAD_REACTORS
330
C
102
}
100
AcDbDictionary
  3
STANDARD
350
6F
  0
DICTIONARY
  5
70
102
{ACAD_REACTORS
330
C
102
}
100
AcDbDictionary
  3
STANDARD
350
71
  0
GROUP
  5
74
102
{ACAD_REACTORS
330
D
102
}
100
AcDbGroup
300
Group created by Visio.
 70
     0
 71
     1
340
76
340
77
  0
GROUP
  5
79
102
{ACAD_REACTORS
330
D
102
}
100
AcDbGroup
300
Group created by Visio.
 70
     0
 71
     1
340
7A
340
7B
340
7C
340
7D
340
7E
  0
GROUP
  5
80
102
{ACAD_REACTORS
330
D
102
}
100
AcDbGroup
300
Group created by Visio.
 70
     0
 71
     1
340
81
340
82
  0
GROUP
  5
84
102
{ACAD_REACTORS
330
D
102
}
100
AcDbGroup
300
Group created by Visio.
 70
     0
 71
     1
340
85
340
86
  0
GROUP
  5
88
102
{ACAD_REACTORS
330
D
102
}
100
AcDbGroup
300
Group created by Visio.
 70
     0
 71
     1
340
89
340
8A
340
8B
340
8C
340
8D
  0
GROUP
  5
8F
102
{ACAD_REACTORS
330
D
102
}
100
AcDbGroup
300
Group created by Visio.
 70
     0
 71
     1
340
90
340
91
  0
GROUP
  5
93
102
{ACAD_REACTORS
330
D
102
}
100
AcDbGroup
300
Group created by Visio.
 70
     0
 71
     1
340
94
340
95
  0
GROUP
  5
97
102
{ACAD_REACTORS
330
D
102
}
100
AcDbGroup
300
Group created by Visio.
 70
     0
 71
     1
340
98
340
99
  0
GROUP
  5
9B
102
{ACAD_REACTORS
330
D
102
}
100
AcDbGroup
300
Group created by Visio.
 70
     0
 71
     1
340
9C
340
9D
  0
GROUP
  5
9F
102
{ACAD_REACTORS
330
D
102
}
100
AcDbGroup
300
Group created by Visio.
 70
     0
 71
     1
340
A0
340
A1
  0
GROUP
  5
A3
102
{ACAD_REACTORS
330
D
102
}
100
AcDbGroup
300
Group created by Visio.
 70
     0
 71
     1
340
A4
340
A5
  0
GROUP
  5
A7
102
{ACAD_REACTORS
330
D
102
}
100
AcDbGroup
300
Group created by Visio.
 70
     0
 71
     1
340
A8
340
A9
340
AA
340
AB
340
AC
  0
GROUP
  5
AE
102
{ACAD_REACTORS
330
D
102
}
100
AcDbGroup
300
Group created by Visio.
 70
     0
 71
     1
340
B0
340
B1
340
B2
340
B3
  0
GROUP
  5
B4
102
{ACAD_REACTORS
330
D
102
}
100
AcDbGroup
300
Group created by Visio.
 70
     0
 71
     1
340
B5
340
B6
340
B7
340
B8
  0
GROUP
  5
B9
102
{ACAD_REACTORS
330
D
102
}
100
AcDbGroup
300
Group created by Visio.
 70
     0
 71
     1
340
BA
340
BB
340
BC
340
BD
  0
GROUP
  5
BE
102
{ACAD_REACTORS
330
D
102
}
100
AcDbGroup
300
Group created by Visio.
 70
     0
 71
     1
340
BF
340
C0
340
C1
340
C2
  0
GROUP
  5
C3
102
{ACAD_REACTORS
330
D
102
}
100
AcDbGroup
300
Group created by Visio.
 70
     0
 71
     1
340
C4
340
C5
340
C6
340
C7
340
C8
340
C9
340
CA
340
CB
  0
GROUP
  5
CC
102
{ACAD_REACTORS
330
D
102
}
100
AcDbGroup
300
Group created by Visio.
 70
     0
 71
     1
340
CD
340
CE
340
CF
340
D0
340
D1
340
D2
  0
GROUP
  5
D3
102
{ACAD_REACTORS
330
D
102
}
100
AcDbGroup
300
Group created by Visio.
 70
     0
 71
     1
340
D4
340
D5
340
D6
340
D7
340
D8
340
D9
  0
GROUP
  5
DA
102
{ACAD_REACTORS
330
D
102
}
100
AcDbGroup
300
Group created by Visio.
 70
     0
 71
     1
340
DB
340
DC
340
DD
340
DE
340
DF
340
E0
  0
GROUP
  5
E1
102
{ACAD_REACTORS
330
D
102
}
100
AcDbGroup
300
Group created by Visio.
 70
     0
 71
     1
340
E2
340
E3
340
E4
340
E5
340
E6
340
E7
340
E8
340
E9
  0
GROUP
  5
EA
102
{ACAD_REACTORS
330
D
102
}
100
AcDbGroup
300
Group created by Visio.
 70
     0
 71
     1
340
EB
340
EC
340
ED
340
EE
340
EF
340
F0
340
F1
340
F2
  0
GROUP
  5
F3
102
{ACAD_REACTORS
330
D
102
}
100
AcDbGroup
300
Group created by Visio.
 70
     0
 71
     1
340
F4
340
F5
340
F6
340
F7
340
F8
340
F9
340
FA
340
FB
  0
GROUP
  5
FC
102
{ACAD_REACTORS
330
D
102
}
100
AcDbGroup
300
Group created by Visio.
 70
     0
 71
     1
340
FD
340
FE
340
FF
340
100
340
101
340
102
340
103
340
104
  0
GROUP
  5
105
102
{ACAD_REACTORS
330
D
102
}
100
AcDbGroup
300
Group created by Visio.
 70
     0
 71
     1
340
106
340
107
340
108
340
109
340
10A
340
10B
  0
GROUP
  5
10C
102
{ACAD_REACTORS
330
D
102
}
100
AcDbGroup
300
Group created by Visio.
 70
     0
 71
     1
340
10D
340
10E
340
10F
340
110
340
111
340
112
340
113
340
114
  0
GROUP
  5
115
102
{ACAD_REACTORS
330
D
102
}
100
AcDbGroup
300
Group created by Visio.
 70
     0
 71
     1
340
116
340
117
340
118
340
119
340
11A
340
11B
340
11D
340
11E
340
11F
340
120
340
121
340
11C
340
122
340
123
340
124
340
126
340
127
340
128
340
125
340
129
340
12A
340
12B
340
12C
340
12D
  0
GROUP
  5
12E
102
{ACAD_REACTORS
330
D
102
}
100
AcDbGroup
300
Group created by Visio.
 70
     0
 71
     1
340
12F
340
130
340
131
340
132
340
133
340
134
340
136
340
137
340
138
340
139
340
13A
340
135
340
13B
340
13D
340
13C
340
13E
340
13F
340
140
  0
GROUP
  5
141
102
{ACAD_REACTORS
330
D
102
}
100
AcDbGroup
300
Group created by Visio.
 70
     0
 71
     1
340
142
340
143
340
144
340
145
340
146
340
147
340
149
340
14A
340
14B
340
14C
340
14D
340
148
340
14E
340
14F
340
150
340
152
340
153
340
154
340
151
340
155
340
156
340
157
340
158
340
159
  0
GROUP
  5
15A
102
{ACAD_REACTORS
330
D
102
}
100
AcDbGroup
300
Group created by Visio.
 70
     0
 71
     1
340
15B
340
15C
340
15D
340
15E
340
15F
340
160
340
162
340
163
340
164
340
165
340
166
340
161
340
167
340
168
340
169
340
16B
340
16C
340
16D
340
16A
340
16E
340
16F
340
170
340
171
340
172
  0
GROUP
  5
173
102
{ACAD_REACTORS
330
D
102
}
100
AcDbGroup
300
Group created by Visio.
 70
     0
 71
     1
340
174
340
175
340
177
340
176
340
178
340
179
  0
GROUP
  5
17A
102
{ACAD_REACTORS
330
D
102
}
100
AcDbGroup
300
Group created by Visio.
 70
     0
 71
     1
340
17B
340
17C
340
17D
340
17E
340
17F
340
180
340
182
340
183
340
184
340
185
340
186
340
181
340
187
340
188
340
189
340
18B
340
18C
340
18D
340
18A
340
18E
340
18F
340
190
340
191
340
192
  0
GROUP
  5
193
102
{ACAD_REACTORS
330
D
102
}
100
AcDbGroup
300
Group created by Visio.
 70
     0
 71
     1
340
194
340
195
340
197
340
196
340
198
340
199
  0
GROUP
  5
19A
102
{ACAD_REACTORS
330
D
102
}
100
AcDbGroup
300
Group created by Visio.
 70
     0
 71
     1
340
19B
340
19C
340
19D
340
19E
340
19F
340
1A0
340
1A2
340
1A3
340
1A4
340
1A5
340
1A6
340
1A1
340
1A7
340
1A8
340
1A9
340
1AB
340
1AC
340
1AD
340
1AA
340
1AE
340
1AF
340
1B0
340
1B1
340
1B2
  0
GROUP
  5
1B3
102
{ACAD_REACTORS
330
D
102
}
100
AcDbGroup
300
Group created by Visio.
 70
     0
 71
     1
340
1B4
340
1B5
340
1B6
340
1B7
340
1B8
340
1B9
340
1BA
340
1BB
  0
GROUP
  5
1BC
102
{ACAD_REACTORS
330
D
102
}
100
AcDbGroup
300
Group created by Visio.
 70
     0
 71
     1
340
1BD
340
1BE
340
1BF
340
1C0
340
1C1
340
1C2
340
1C4
340
1C5
340
1C6
340
1C7
340
1C8
340
1C3
340
1C9
340
1CA
340
1CB
340
1CD
340
1CE
340
1CF
340
1CC
340
1D0
340
1D1
340
1D2
340
1D3
340
1D4
  0
GROUP
  5
1D5
102
{ACAD_REACTORS
330
D
102
}
100
AcDbGroup
300
Group created by Visio.
 70
     0
 71
     1
340
1D6
340
1D7
340
1D8
340
1D9
340
1DA
  0
GROUP
  5
1DB
102
{ACAD_REACTORS
330
D
102
}
100
AcDbGroup
300
Group created by Visio.
 70
     0
 71
     1
340
1DC
340
1DE
340
1DF
340
1E0
340
1E1
340
1DD
340
1E4
340
1E5
340
1E6
340
1E7
340
1E8
340
1E9
340
1EB
340
1EC
340
1ED
340
1EE
340
1EF
340
1F0
340
1F1
340
1F2
340
1EA
340
1F4
340
1F5
340
1F6
340
1F7
340
1F8
340
1F9
340
1FA
  0
ENDSEC
  0
EOF
