  0
SECTION
  2
HEADER
  9
$ACADVER
  1
AC1014
  9
$ACADMAINTVER
 70
     0
  9
$DWGCODEPAGE
  3
ANSI_1252
  9
$INSBASE
 10
0.0
 20
0.0
 30
0.0
  9
$EXTMIN
 10
0.0
 20
0.0
 30
0.0
  9
$EXTMAX
 10
37.508533
 20
67.7752
 30
0.0
  9
$LIMMIN
 10
0.0
 20
0.0
  9
$LIMMAX
 10
12.0
 20
9.0
  9
$ORTHOMODE
 70
     0
  9
$REGENMODE
 70
     1
  9
$FILLMODE
 70
     0
  9
$QTEXTMODE
 70
     0
  9
$MIRRTEXT
 70
     1
  9
$DRAGMODE
 70
     2
  9
$LTSCALE
 40
1.0
  9
$OSMODE
 70
    37
  9
$ATTMODE
 70
     1
  9
$TEXTSIZE
 40
0.2
  9
$TRACEWID
 40
0.05
  9
$TEXTSTYLE
  7
STANDARD
  9
$CLAYER
  8
0
  9
$CELTYPE
  6
BYLAYER
  9
$CECOLOR
 62
   256
  9
$CELTSCALE
 40
1.0
  9
$DELOBJ
 70
     1
  9
$DISPSILH
 70
     0
  9
$DIMSCALE
 40
1.0
  9
$DIMASZ
 40
0.18
  9
$DIMEXO
 40
0.0625
  9
$DIMDLI
 40
0.38
  9
$DIMRND
 40
0.0
  9
$DIMDLE
 40
0.0
  9
$DIMEXE
 40
0.18
  9
$DIMTP
 40
0.0
  9
$DIMTM
 40
0.0
  9
$DIMTXT
 40
0.18
  9
$DIMCEN
 40
0.09
  9
$DIMTSZ
 40
0.0
  9
$DIMTOL
 70
     0
  9
$DIMLIM
 70
     0
  9
$DIMTIH
 70
     0
  9
$DIMTOH
 70
     0
  9
$DIMSE1
 70
     0
  9
$DIMSE2
 70
     0
  9
$DIMTAD
 70
     1
  9
$DIMZIN
 70
     0
  9
$DIMBLK
  1

  9
$DIMASO
 70
     1
  9
$DIMSHO
 70
     1
  9
$DIMPOST
  1

  9
$DIMAPOST
  1

  9
$DIMALT
 70
     0
  9
$DIMALTD
 70
     2
  9
$DIMALTF
 40
25.4
  9
$DIMLFAC
 40
1.0
  9
$DIMTOFL
 70
     0
  9
$DIMTVP
 40
0.0
  9
$DIMTIX
 70
     0
  9
$DIMSOXD
 70
     0
  9
$DIMSAH
 70
     0
  9
$DIMBLK1
  1

  9
$DIMBLK2
  1

  9
$DIMSTYLE
  2
STANDARD
  9
$DIMCLRD
 70
     0
  9
$DIMCLRE
 70
     0
  9
$DIMCLRT
 70
     0
  9
$DIMTFAC
 40
1.0
  9
$DIMGAP
 40
0.09
  9
$DIMJUST
 70
     0
  9
$DIMSD1
 70
     0
  9
$DIMSD2
 70
     0
  9
$DIMTOLJ
 70
     1
  9
$DIMTZIN
 70
     0
  9
$DIMALTZ
 70
     0
  9
$DIMALTTZ
 70
     0
  9
$DIMFIT
 70
     5
  9
$DIMUPT
 70
     0
  9
$DIMUNIT
 70
     2
  9
$DIMDEC
 70
     2
  9
$DIMTDEC
 70
     4
  9
$DIMALTU
 70
     2
  9
$DIMALTTD
 70
     2
  9
$DIMTXSTY
  7
STANDARD
  9
$DIMAUNIT
 70
     0
  9
$LUNITS
 70
     2
  9
$LUPREC
 70
     4
  9
$SKETCHINC
 40
0.1
  9
$FILLETRAD
 40
0.5
  9
$AUNITS
 70
     0
  9
$AUPREC
 70
     0
  9
$MENU
  1
.
  9
$ELEVATION
 40
0.0
  9
$PELEVATION
 40
0.0
  9
$THICKNESS
 40
0.0
  9
$LIMCHECK
 70
     0
  9
$BLIPMODE
 70
     0
  9
$CHAMFERA
 40
0.5
  9
$CHAMFERB
 40
0.5
  9
$CHAMFERC
 40
1.0
  9
$CHAMFERD
 40
0.0
  9
$SKPOLY
 70
     0
  9
$TDCREATE
 40
2450772.666465926
  9
$TDUPDATE
 40
2460690.681145833
  9
$TDINDWG
 40
0.0011564931
  9
$TDUSRTIMER
 40
0.0011564931
  9
$USRTIMER
 70
     1
  9
$ANGBASE
 50
0.0
  9
$ANGDIR
 70
     0
  9
$PDMODE
 70
     0
  9
$PDSIZE
 40
0.0
  9
$PLINEWID
 40
0.0
  9
$COORDS
 70
     1
  9
$SPLFRAME
 70
     0
  9
$SPLINETYPE
 70
     6
  9
$SPLINESEGS
 70
     8
  9
$ATTDIA
 70
     0
  9
$ATTREQ
 70
     1
  9
$HANDLING
 70
     1
  9
$HANDSEED
  5
2E0
  9
$SURFTAB1
 70
     6
  9
$SURFTAB2
 70
     6
  9
$SURFTYPE
 70
     6
  9
$SURFU
 70
     6
  9
$SURFV
 70
     6
  9
$UCSNAME
  2

  9
$UCSORG
 10
0.0
 20
0.0
 30
0.0
  9
$UCSXDIR
 10
1.0
 20
0.0
 30
0.0
  9
$UCSYDIR
 10
0.0
 20
1.0
 30
0.0
  9
$PUCSNAME
  2

  9
$PUCSORG
 10
0.0
 20
0.0
 30
0.0
  9
$PUCSXDIR
 10
1.0
 20
0.0
 30
0.0
  9
$PUCSYDIR
 10
0.0
 20
1.0
 30
0.0
  9
$USERI1
 70
     0
  9
$USERI2
 70
     0
  9
$USERI3
 70
     0
  9
$USERI4
 70
     0
  9
$USERI5
 70
     0
  9
$USERR1
 40
0.0
  9
$USERR2
 40
0.0
  9
$USERR3
 40
0.0
  9
$USERR4
 40
0.0
  9
$USERR5
 40
0.0
  9
$WORLDVIEW
 70
     1
  9
$SHADEDGE
 70
     3
  9
$SHADEDIF
 70
    70
  9
$TILEMODE
 70
     1
  9
$MAXACTVP
 70
    48
  9
$PINSBASE
 10
0.0
 20
0.0
 30
0.0
  9
$PLIMCHECK
 70
     0
  9
$PEXTMIN
 10
0.0
 20
0.0
 30
0.0
  9
$PEXTMAX
 10
0.0
 20
0.0
 30
0.0
  9
$PLIMMIN
 10
0.0
 20
0.0
  9
$PLIMMAX
 10
12.0
 20
9.0
  9
$UNITMODE
 70
     0
  9
$VISRETAIN
 70
     1
  9
$PLINEGEN
 70
     0
  9
$PSLTSCALE
 70
     1
  9
$TREEDEPTH
 70
  3020
  9
$PICKSTYLE
 70
     1
  9
$CMLSTYLE
  2
STANDARD
  9
$CMLJUST
 70
     0
  9
$CMLSCALE
 40
1.0
  9
$PROXYGRAPHICS
 70
     1
  9
$MEASUREMENT
 70
     0
  0
ENDSEC
  0
SECTION
  2
CLASSES
  0
CLASS
  1
LWPOLYLINE
  2
AcDbPolyline
  3
ObjectDBX Classes
 90
       20
280
     0
281
     1
  0
CLASS
  1
IMAGE
  2
AcDbRasterImage
  3
ISM
 90
       21
280
     0
281
     1
  0
CLASS
  1
OLE2FRAME
  2
AcDbOle2Frame
  3
ObjectDBX Classes
 90
       21
280
     0
281
     1
  0
CLASS
  1
HATCH
  2
AcDbHatch
  3
ObjectDBX Classes
 90
       20
280
     0
281
     1
  0
CLASS
  1
DICTIONARYVAR
  2
AcDbDictionaryVar
  3
ObjectDBX Classes
 90
       20
280
     0
281
     0
  0
CLASS
  1
RASTERVARIABLES
  2
AcDbRasterVariables
  3
ISM
 90
       21
280
     0
281
     0
  0
CLASS
  1
IMAGEDEF
  2
AcDbRasterImageDef
  3
ISM
 90
       21
280
     0
281
     0
  0
CLASS
  1
IMAGEDEF_REACTOR
  2
AcDbRasterImageDefReactor
  3
ISM
 90
       21
280
     0
281
     0
  0
CLASS
  1
IDBUFFER
  2
AcDbIdBuffer
  3
ObjectDBX Classes
 90
       20
280
     0
281
     0
  0
CLASS
  1
SPATIAL_FILTER
  2
AcDbSpatialFilter
  3
ObjectDBX Classes
 90
       20
280
     0
281
     0
  0
CLASS
  1
XRECORD
  2
AcDbXrecord
  3
ObjectDBX Classes
 90
       21
280
     0
281
     0
  0
CLASS
  1
ACDBDICTIONARYWDFLT
  2
AcDbDictionaryWithDefault
  3
ObjectDBX Classes
 90
       22
280
     0
281
     0
  0
CLASS
  1
SCALE
  2
AcDbScale
  3
ObjectDBX Classes
 90
       27
280
     0
281
     0
  0
CLASS
  1
VISUALSTYLE
  2
AcDbVisualStyle
  3
ObjectDBX Classes
 90
       26
280
     0
281
     0
  0
CLASS
  1
MATERIAL
  2
AcDbMaterial
  3
ObjectDBX Classes
 90
       23
280
     0
281
     0
  0
CLASS
  1
TABLESTYLE
  2
AcDbTableStyle
  3
ObjectDBX Classes
 90
       25
280
     0
281
     0
  0
CLASS
  1
MLEADERSTYLE
  2
AcDbMLeaderStyle
  3
ACDB_MLEADERSTYLE_CLASS
 90
       27
280
     0
281
     0
  0
CLASS
  1
SORTENTSTABLE
  2
AcDbSortentsTable
  3
"AutoCAD"
 90
        0
280
     0
281
     0
  0
CLASS
  1
LAYER_INDEX
  2
AcDbLayerIndex
  3
"Acad"
 90
        0
280
     0
281
     0
  0
CLASS
  1
SPATIAL_INDEX
  2
AcDbSpatialIndex
  3
"Acad"
 90
        0
280
     0
281
     0
  0
CLASS
  1
OBJECT_PTR
  2
CAseDLPNTableRecord
  3
"ASE-LPNTableRecord"
 90
        1
280
     0
281
     0
  0
CLASS
  1
LAYOUT
  2
AcDbLayout
  3
"AutoCAD 2000"
 90
        1
280
     0
281
     0
  0
CLASS
  1
PLOTSETTINGS
  2
AcDbPlotsettings
  3
"AutoCAD 2000"
 90
        1
280
     0
281
     0
  0
CLASS
  1
ACDBPLACEHOLDER
  2
AcDbPlaceholder
  3
"AutoCAD 2000"
 90
        1
280
     0
281
     0
  0
CLASS
  1
VBA_PROJECT
  2
AcDbVbaProject
  3
"AutoCAD 2000"
 90
        1
280
     0
281
     0
  0
CLASS
  1
WIPEOUT
  2
AcDbWipeout
  3
"AutoCAD 2000"
 90
        1
280
     0
281
     1
  0
CLASS
  1
WIPEOUTVARIABLES
  2
AcDbWipeoutVariables
  3
"AutoCAD 2000"
 90
        1
280
     0
281
     0
  0
CLASS
  1
RTEXT
  2
RText
  3
RText|AutoCAD Express Tool|expresstools@autodesk.com
 90
        1
280
     0
281
     1
  0
CLASS
  1
ARCALIGNEDTEXT
  2
AcDbArcAlignedText
  3
RText|AutoCAD Express Tool|expresstools@autodesk.com
 90
        1
280
     0
281
     1
  0
ENDSEC
  0
SECTION
  2
TABLES
  0
TABLE
  2
VPORT
  5
8
100
AcDbSymbolTable
 70
     1
  0
VPORT
  5
25
100
AcDbSymbolTableRecord
100
AcDbViewportTableRecord
  2
*ACTIVE
 70
     0
 10
0.0
 20
0.0
 11
1.0
 21
1.0
 12
18.754267
 22
33.8876
 13
0.0
 23
0.0
 14
0.5
 24
0.5
 15
0.5
 25
0.5
 16
0.0
 26
0.0
 36
1.0
 17
0.0
 27
0.0
 37
0.0
 40
67.7752
 41
0.553426
 42
50.0
 43
0.0
 44
0.0
 50
0.0
 51
0.0
 71
     0
 72
   100
 73
     1
 74
     1
 75
     0
 76
     0
 77
     0
 78
     0
  0
ENDTAB
  0
TABLE
  2
LTYPE
  5
5
100
AcDbSymbolTable
 70
     3
  0
LTYPE
  5
12
100
AcDbSymbolTableRecord
100
AcDbLinetypeTableRecord
  2
BYBLOCK
 70
     0
  3

 72
    65
 73
     0
 40
0.0
  0
LTYPE
  5
13
100
AcDbSymbolTableRecord
100
AcDbLinetypeTableRecord
  2
BYLAYER
 70
     0
  3

 72
    65
 73
     0
 40
0.0
  0
LTYPE
  5
14
100
AcDbSymbolTableRecord
100
AcDbLinetypeTableRecord
  2
CONTINUOUS
 70
     0
  3
Solid line
 72
    65
 73
     0
 40
0.0
  0
ENDTAB
  0
TABLE
  2
LAYER
  5
2
100
AcDbSymbolTable
 70
     5
  0
LAYER
  5
E
100
AcDbSymbolTableRecord
100
AcDbLayerTableRecord
  2
0
 70
     0
 62
     7
  6
CONTINUOUS
  0
LAYER
  5
75
100
AcDbSymbolTableRecord
100
AcDbLayerTableRecord
  2
BUILDING_ENVELOPE
 70
     0
 62
     7
  6
CONTINUOUS
  0
LAYER
  5
110
100
AcDbSymbolTableRecord
100
AcDbLayerTableRecord
  2
SPACE
 70
     0
 62
     7
  6
CONTINUOUS
  0
LAYER
  5
172
100
AcDbSymbolTableRecord
100
AcDbLayerTableRecord
  2
STAIR
 70
     0
 62
     7
  6
CONTINUOUS
  0
LAYER
  5
293
100
AcDbSymbolTableRecord
100
AcDbLayerTableRecord
  2
WALL
 70
     0
 62
     7
  6
CONTINUOUS
  0
ENDTAB
  0
TABLE
  2
STYLE
  5
3
100
AcDbSymbolTable
 70
     1
  0
STYLE
  5
F
100
AcDbSymbolTableRecord
100
AcDbTextStyleTableRecord
  2
STANDARD
 70
     0
 40
0.0
 41
1.0
 50
0.0
 71
     0
 42
0.2
  3
txt.shx
  4

  0
ENDTAB
  0
TABLE
  2
VIEW
  5
6
100
AcDbSymbolTable
 70
     0
  0
ENDTAB
  0
TABLE
  2
UCS
  5
7
100
AcDbSymbolTable
 70
     0
  0
ENDTAB
  0
TABLE
  2
APPID
  5
9
100
AcDbSymbolTable
 70
     1
  0
APPID
  5
10
100
AcDbSymbolTableRecord
100
AcDbRegAppTableRecord
  2
ACAD
 70
     0
  0
ENDTAB
  0
TABLE
  2
DIMSTYLE
  5
A
100
AcDbSymbolTable
 70
     1
  0
DIMSTYLE
105
1D
100
AcDbSymbolTableRecord
100
AcDbDimStyleTableRecord
  2
STANDARD
 70
     0
  3

  4

  5

  6

  7

 40
1.0
 41
0.18
 42
0.0625
 43
0.38
 44
0.18
 45
0.0
 46
0.0
 47
0.0
 48
0.0
 71
     0
 72
     0
 73
     1
 74
     1
 75
     0
 76
     0
 77
     0
 78
     0
140
0.18
141
0.09
142
0.0
143
25.4
144
1.0
145
0.0
146
1.0
147
0.09
170
     0
171
     2
172
     0
173
     0
174
     0
175
     0
176
     0
177
     0
178
     0
270
     2
271
     4
272
     4
273
     2
274
     2
275
     0
280
     0
281
     0
282
     0
283
     1
284
     0
285
     0
286
     0
287
     3
288
     0
340
F
  0
ENDTAB
  0
TABLE
  2
BLOCK_RECORD
  5
1
100
AcDbSymbolTable
 70
     6
  0
BLOCK_RECORD
  5
18
100
AcDbSymbolTableRecord
100
AcDbBlockTableRecord
  2
*MODEL_SPACE
  0
BLOCK_RECORD
  5
15
100
AcDbSymbolTableRecord
100
AcDbBlockTableRecord
  2
*PAPER_SPACE
  0
BLOCK_RECORD
  5
23E
100
AcDbSymbolTableRecord
100
AcDbBlockTableRecord
  2
NONE_
  0
BLOCK_RECORD
  5
241
100
AcDbSymbolTableRecord
100
AcDbBlockTableRecord
  2
WALL
  0
BLOCK_RECORD
  5
248
100
AcDbSymbolTableRecord
100
AcDbBlockTableRecord
  2
DOOR
  0
BLOCK_RECORD
  5
277
100
AcDbSymbolTableRecord
100
AcDbBlockTableRecord
  2
STRAIGHT_STAIRCASE
  0
BLOCK_RECORD
  5
2AF
100
AcDbSymbolTableRecord
100
AcDbBlockTableRecord
  2
DOUBLE
  0
BLOCK_RECORD
  5
2C9
100
AcDbSymbolTableRecord
100
AcDbBlockTableRecord
  2
SPACE
  0
ENDTAB
  0
ENDSEC
  0
SECTION
  2
BLOCKS
  0
BLOCK
  5
19
100
AcDbEntity
  8
0
100
AcDbBlockBegin
  2
*MODEL_SPACE
 70
     0
 10
0.0
 20
0.0
 30
0.0
  3
*MODEL_SPACE
  1

  0
ENDBLK
  5
1A
100
AcDbEntity
  8
0
100
AcDbBlockEnd
  0
BLOCK
  5
16
100
AcDbEntity
 67
     1
  8
0
100
AcDbBlockBegin
  2
*PAPER_SPACE
 70
     0
 10
0.0
 20
0.0
 30
0.0
  3
*PAPER_SPACE
  1

  0
ENDBLK
  5
17
100
AcDbEntity
 67
     1
  8
0
100
AcDbBlockEnd
  0
BLOCK
  5
23F
100
AcDbEntity
  8
0
100
AcDbBlockBegin
  2
NONE_
 70
     2
 10
0.0
 20
0.0
 30
0.0
  3
NONE_
  1

  0
ENDBLK
  5
240
100
AcDbEntity
  8
0
100
AcDbBlockEnd
  0
BLOCK
  5
242
100
AcDbEntity
  8
0
100
AcDbBlockBegin
  2
WALL
 70
     0
 10
0.0
 20
0.0
 30
0.0
  3
WALL
  1

  0
LWPOLYLINE
  5
243
102
{ACAD_REACTORS
330
244
102
}
100
AcDbEntity
  8
BUILDING_ENVELOPE
  6
CONTINUOUS
 62
     7
100
AcDbPolyline
 90
        6
 70
     1
 10
1.0
 20
5.333333
 10
9.0
 20
5.333333
 10
9.0
 20
5.166667
 10
9.0
 20
5.0
 10
1.0
 20
5.0
 10
1.0
 20
5.166667
  0
HATCH
  5
244
100
AcDbEntity
  8
BUILDING_ENVELOPE
 62
   253
100
AcDbHatch
 10
0.0
 20
0.0
 30
0.0
210
0.0
220
0.0
230
1.0
  2
SOLID
 70
     1
 71
     1
 91
        1
 92
        3
 72
     0
 73
     1
 93
        6
 10
1.0
 20
5.333333333333333
 10
9.0
 20
5.333333333333333
 10
9.0
 20
5.1666666666666661
 10
9.0
 20
5.0
 10
1.0
 20
5.0
 10
1.0
 20
5.1666666666666661
 97
        1
330
243
 75
     0
 76
     1
 98
        0
  0
LWPOLYLINE
  5
245
100
AcDbEntity
  8
BUILDING_ENVELOPE
  6
CONTINUOUS
 62
     7
100
AcDbPolyline
 90
        4
 70
     0
 10
1.0
 20
5.166667
 10
1.0
 20
5.333333
 10
9.0
 20
5.333333
 10
9.0
 20
5.166667
  0
LWPOLYLINE
  5
246
100
AcDbEntity
  8
BUILDING_ENVELOPE
  6
CONTINUOUS
 62
     7
100
AcDbPolyline
 90
        4
 70
     0
 10
1.0
 20
5.166667
 10
1.0
 20
5.0
 10
9.0
 20
5.0
 10
9.0
 20
5.166667
  0
ENDBLK
  5
247
100
AcDbEntity
  8
0
100
AcDbBlockEnd
  0
BLOCK
  5
249
100
AcDbEntity
  8
0
100
AcDbBlockBegin
  2
DOOR
 70
     2
 10
0.0
 20
0.0
 30
0.0
  3
DOOR
  1

  0
ATTDEF
  5
24A
100
AcDbEntity
  8
0
100
AcDbText
 10
5.0
 20
5.0
 30
0.0
 40
0.2
  1
80
100
AcDbAttributeDefinition
  3
Door height
  2
VISDOORHEIGHT
 70
     0
  0
ATTDEF
  5
24B
100
AcDbEntity
  8
0
100
AcDbText
 10
5.0
 20
5.0
 30
0.0
 40
0.2
  1
0
100
AcDbAttributeDefinition
  3
Reference Line Offset
  2
REFLN
 70
     0
  0
ATTDEF
  5
24C
100
AcDbEntity
  8
0
100
AcDbText
 10
5.0
 20
5.0
 30
0.0
 40
0.2
  1
30
100
AcDbAttributeDefinition
  3
Door width
  2
SUBTYPE
 70
     0
  0
ATTDEF
  5
24D
100
AcDbEntity
  8
0
100
AcDbText
 10
5.0
 20
5.0
 30
0.0
 40
0.2
  1
2
100
AcDbAttributeDefinition
  3
Door frame width
  2
SUBVISDOORFRAMEWIDTH
 70
     0
  0
ATTDEF
  5
24E
100
AcDbEntity
  8
0
100
AcDbText
 10
5.0
 20
5.0
 30
0.0
 40
0.2
  1
4
100
AcDbAttributeDefinition
  3
Door frame depth
  2
SUBVISDOORFRAMEDEPTH
 70
     0
  0
ATTDEF
  5
24F
100
AcDbEntity
  8
0
100
AcDbText
 10
5.0
 20
5.0
 30
0.0
 40
0.2
  1
0.5
100
AcDbAttributeDefinition
  3
Door stop width
  2
SUBVISDOORSTOPWIDTH
 70
     0
  0
ATTDEF
  5
250
100
AcDbEntity
  8
0
100
AcDbText
 10
5.0
 20
5.0
 30
0.0
 40
0.2
  1
1.5
100
AcDbAttributeDefinition
  3
Door stop depth
  2
SUBVISDOORSTOPDEPTH
 70
     0
  0
ATTDEF
  5
251
100
AcDbEntity
  8
0
100
AcDbText
 10
5.0
 20
5.0
 30
0.0
 40
0.2
  1
2
100
AcDbAttributeDefinition
  3
Door threshold depth inside
  2
SUBVISDOORTHRESDEPTHIN
 70
     0
  0
ATTDEF
  5
252
100
AcDbEntity
  8
0
100
AcDbText
 10
5.0
 20
5.0
 30
0.0
 40
0.2
  1
2
100
AcDbAttributeDefinition
  3
Door threshold width inside
  2
SUBVISDOORTHRESWIDTHIN
 70
     0
  0
ATTDEF
  5
253
100
AcDbEntity
  8
0
100
AcDbText
 10
5.0
 20
5.0
 30
0.0
 40
0.2
  1
2
100
AcDbAttributeDefinition
  3
Door threshold depth outside
  2
SUBVISDOORTHRESDEPTHOUT
 70
     0
  0
ATTDEF
  5
254
100
AcDbEntity
  8
0
100
AcDbText
 10
5.0
 20
5.0
 30
0.0
 40
0.2
  1
2
100
AcDbAttributeDefinition
  3
Door threshold width outside
  2
SUBVISDOORTHRESWIDTHOUT
 70
     0
  0
ATTDEF
  5
255
100
AcDbEntity
  8
0
100
AcDbText
 10
5.0
 20
5.0
 30
0.0
 40
0.2
  1
2
100
AcDbAttributeDefinition
  3
Door panel thickness
  2
SUBVISDOORPANELTHICKNESS
 70
     0
  0
ATTDEF
  5
256
100
AcDbEntity
  8
0
100
AcDbText
 10
5.0
 20
5.0
 30
0.0
 40
0.2
  1
15
100
AcDbAttributeDefinition
  3
Door leaf width
  2
VISDOORLEAF
 70
     0
  0
ATTDEF
  5
257
100
AcDbEntity
  8
0
100
AcDbText
 10
5.0
 20
5.0
 30
0.0
 40
0.2
  1
12
100
AcDbAttributeDefinition
  3
Door spring height
  2
VISDOORSPRING
 70
     0
  0
ATTDEF
  5
258
100
AcDbEntity
  8
0
100
AcDbText
 10
5.0
 20
5.0
 30
0.0
 40
0.2
  1
6
100
AcDbAttributeDefinition
  3
Door along wall offset
  2
VISDOORALONGWALLOFFSET
 70
     0
  0
ATTDEF
  5
259
100
AcDbEntity
  8
0
100
AcDbText
 10
5.0
 20
5.0
 30
0.0
 40
0.2
  1
Single
100
AcDbAttributeDefinition
  3
Door type
  2
SUBSHAPETYPE
 70
     0
  0
ATTDEF
  5
25A
100
AcDbEntity
  8
0
100
AcDbText
 10
5.0
 20
5.0
 30
0.0
 40
0.2
  1
Center
100
AcDbAttributeDefinition
  3
Door within wall offset
  2
VISJUSTIFICATION
 70
     0
  0
ATTDEF
  5
25B
100
AcDbEntity
  8
0
100
AcDbText
 10
5.0
 20
5.0
 30
0.0
 40
0.2
  1
50
100
AcDbAttributeDefinition
  3
Door open percentage
  2
VISDOOROPENPERCENT
 70
     0
  0
ATTDEF
  5
25C
100
AcDbEntity
  8
0
100
AcDbText
 10
5.0
 20
5.0
 30
0.0
 40
0.2
  1
Building Component
100
AcDbAttributeDefinition
  3
Shape class
  2
SHAPECLASS
 70
     0
  0
ATTDEF
  5
25D
100
AcDbEntity
  8
0
100
AcDbText
 10
5.0
 20
5.0
 30
0.0
 40
0.2
  1
Door
100
AcDbAttributeDefinition
  3
Shape type
  2
SHAPETYPE
 70
     0
  0
ATTDEF
  5
25E
100
AcDbEntity
  8
0
100
AcDbText
 10
5.0
 20
5.0
 30
0.0
 40
0.2
  1
0
100
AcDbAttributeDefinition
  3
Fire rating
  2
FIRERATING
 70
     0
  0
ATTDEF
  5
25F
100
AcDbEntity
  8
0
100
AcDbText
 10
5.0
 20
5.0
 30
0.0
 40
0.2
  1
0
100
AcDbAttributeDefinition
  3
Door number
  2
DOORNUMBER
 70
     0
  0
ATTDEF
  5
260
100
AcDbEntity
  8
0
100
AcDbText
 10
5.0
 20
5.0
 30
0.0
 40
0.2
  1
0
100
AcDbAttributeDefinition
  3
Base elevation
  2
BASEELEVATION
 70
     0
  0
LWPOLYLINE
  5
261
102
{ACAD_REACTORS
330
295
102
}
100
AcDbEntity
  8
BUILDING_ENVELOPE
  6
CONTINUOUS
 62
     7
100
AcDbPolyline
 90
        4
 70
     1
 10
3.583333
 20
4.734
 10
6.416667
 20
4.734
 10
6.416667
 20
5.266
 10
3.583333
 20
5.266
  0
LINE
  5
262
102
{ACAD_REACTORS
330
295
102
}
100
AcDbEntity
  8
BUILDING_ENVELOPE
  6
CONTINUOUS
 62
     7
100
AcDbLine
 10
6.416667
 20
4.75
 30
0.0
 11
6.416667
 21
5.25
 31
0.0
  0
LINE
  5
263
102
{ACAD_REACTORS
330
295
102
}
100
AcDbEntity
  8
BUILDING_ENVELOPE
  6
CONTINUOUS
 62
     7
100
AcDbLine
 10
6.416667
 20
5.25
 30
0.0
 11
6.25
 21
5.25
 31
0.0
  0
LINE
  5
264
102
{ACAD_REACTORS
330
295
102
}
100
AcDbEntity
  8
BUILDING_ENVELOPE
  6
CONTINUOUS
 62
     7
100
AcDbLine
 10
6.25
 20
5.25
 30
0.0
 11
6.25
 21
5.083333
 31
0.0
  0
LINE
  5
265
102
{ACAD_REACTORS
330
295
102
}
100
AcDbEntity
  8
BUILDING_ENVELOPE
  6
CONTINUOUS
 62
     7
100
AcDbLine
 10
6.25
 20
4.958333
 30
0.0
 11
6.25
 21
4.75
 31
0.0
  0
LINE
  5
266
102
{ACAD_REACTORS
330
295
102
}
100
AcDbEntity
  8
BUILDING_ENVELOPE
  6
CONTINUOUS
 62
     7
100
AcDbLine
 10
6.25
 20
4.75
 30
0.0
 11
6.416667
 21
4.75
 31
0.0
  0
LINE
  5
267
102
{ACAD_REACTORS
330
295
102
}
100
AcDbEntity
  8
BUILDING_ENVELOPE
  6
CONTINUOUS
 62
     7
100
AcDbLine
 10
3.583333
 20
4.75
 30
0.0
 11
3.583333
 21
5.25
 31
0.0
  0
LINE
  5
268
102
{ACAD_REACTORS
330
295
102
}
100
AcDbEntity
  8
BUILDING_ENVELOPE
  6
CONTINUOUS
 62
     7
100
AcDbLine
 10
3.583333
 20
5.25
 30
0.0
 11
3.75
 21
5.25
 31
0.0
  0
LINE
  5
269
102
{ACAD_REACTORS
330
295
102
}
100
AcDbEntity
  8
BUILDING_ENVELOPE
  6
CONTINUOUS
 62
     7
100
AcDbLine
 10
3.75
 20
5.25
 30
0.0
 11
3.75
 21
5.083333
 31
0.0
  0
LINE
  5
26A
102
{ACAD_REACTORS
330
295
102
}
100
AcDbEntity
  8
BUILDING_ENVELOPE
  6
CONTINUOUS
 62
     7
100
AcDbLine
 10
3.75
 20
4.958333
 30
0.0
 11
3.75
 21
4.75
 31
0.0
  0
LINE
  5
26B
102
{ACAD_REACTORS
330
295
102
}
100
AcDbEntity
  8
BUILDING_ENVELOPE
  6
CONTINUOUS
 62
     7
100
AcDbLine
 10
3.75
 20
4.75
 30
0.0
 11
3.583333
 21
4.75
 31
0.0
  0
LINE
  5
26C
102
{ACAD_REACTORS
330
295
102
}
100
AcDbEntity
  8
BUILDING_ENVELOPE
  6
CONTINUOUS
 62
     7
100
AcDbLine
 10
6.25
 20
5.083333
 30
0.0
 11
6.208333
 21
5.083333
 31
0.0
  0
LINE
  5
26D
102
{ACAD_REACTORS
330
295
102
}
100
AcDbEntity
  8
BUILDING_ENVELOPE
  6
CONTINUOUS
 62
     7
100
AcDbLine
 10
6.208333
 20
5.083333
 30
0.0
 11
6.208333
 21
4.958333
 31
0.0
  0
LINE
  5
26E
102
{ACAD_REACTORS
330
295
102
}
100
AcDbEntity
  8
BUILDING_ENVELOPE
  6
CONTINUOUS
 62
     7
100
AcDbLine
 10
6.208333
 20
4.958333
 30
0.0
 11
6.25
 21
4.958333
 31
0.0
  0
LINE
  5
26F
102
{ACAD_REACTORS
330
295
102
}
100
AcDbEntity
  8
BUILDING_ENVELOPE
  6
CONTINUOUS
 62
     7
100
AcDbLine
 10
3.75
 20
5.083333
 30
0.0
 11
3.791667
 21
5.083333
 31
0.0
  0
LINE
  5
270
102
{ACAD_REACTORS
330
295
102
}
100
AcDbEntity
  8
BUILDING_ENVELOPE
  6
CONTINUOUS
 62
     7
100
AcDbLine
 10
3.791667
 20
5.083333
 30
0.0
 11
3.791667
 21
4.958333
 31
0.0
  0
LINE
  5
271
102
{ACAD_REACTORS
330
295
102
}
100
AcDbEntity
  8
BUILDING_ENVELOPE
  6
CONTINUOUS
 62
     7
100
AcDbLine
 10
3.791667
 20
4.958333
 30
0.0
 11
3.75
 21
4.958333
 31
0.0
  0
LINE
  5
272
100
AcDbEntity
  8
BUILDING_ENVELOPE
  6
CONTINUOUS
 62
     7
100
AcDbLine
 10
6.416667
 20
4.75
 30
0.0
 11
6.416667
 21
5.25
 31
0.0
  0
LINE
  5
273
100
AcDbEntity
  8
BUILDING_ENVELOPE
  6
CONTINUOUS
 62
     7
100
AcDbLine
 10
3.583333
 20
4.75
 30
0.0
 11
3.583333
 21
5.25
 31
0.0
  0
ARC
  5
274
100
AcDbEntity
  8
BUILDING_ENVELOPE
  6
CONTINUOUS
 62
     7
100
AcDbCircle
 10
6.25
 20
5.25
 30
0.0
 40
2.5
100
AcDbArc
 50
90.0
 51
180.0
  0
LWPOLYLINE
  5
275
102
{ACAD_REACTORS
330
295
102
}
100
AcDbEntity
  8
BUILDING_ENVELOPE
  6
CONTINUOUS
 62
     7
100
AcDbPolyline
 90
        4
 70
     1
 10
6.083333
 20
7.75
 10
6.083333
 20
5.25
 10
6.25
 20
5.25
 10
6.25
 20
7.75
  0
ENDBLK
  5
276
100
AcDbEntity
  8
0
100
AcDbBlockEnd
  0
BLOCK
  5
278
100
AcDbEntity
  8
0
100
AcDbBlockBegin
  2
STRAIGHT_STAIRCASE
 70
     2
 10
0.0
 20
0.0
 30
0.0
  3
STRAIGHT_STAIRCASE
  1

  0
ATTDEF
  5
279
100
AcDbEntity
  8
0
100
AcDbText
 10
-3.501199
 20
0.258333
 30
0.0
 40
0.2
  1
94
100
AcDbAttributeDefinition
  3
Stair flight run (Minimum of 10 in.)
  2
FLIGHTRUN
 70
     0
  0
ATTDEF
  5
27A
100
AcDbEntity
  8
0
100
AcDbText
 10
-3.501199
 20
0.258333
 30
0.0
 40
0.2
  1
36
100
AcDbAttributeDefinition
  3
Stair width (Minimum of 1 ft.)
  2
WIDTH
 70
     0
  0
ATTDEF
  5
27B
100
AcDbEntity
  8
0
100
AcDbText
 10
-3.501199
 20
0.258333
 30
0.0
 40
0.2
  1
9
100
AcDbAttributeDefinition
  3
Number of treads (Maximum of 9)
  2
TREADNUMBER
 70
     0
  0
ATTDEF
  5
27C
100
AcDbEntity
  8
0
100
AcDbText
 10
-3.501199
 20
0.258333
 30
0.0
 40
0.2
  1
Building Component
100
AcDbAttributeDefinition
  3
Shape class
  2
SHAPECLASS
 70
     0
  0
ATTDEF
  5
27D
100
AcDbEntity
  8
0
100
AcDbText
 10
-3.501199
 20
0.258333
 30
0.0
 40
0.2
  1
Stair
100
AcDbAttributeDefinition
  3
Shape type
  2
SHAPETYPE
 70
     0
  0
ATTDEF
  5
27E
100
AcDbEntity
  8
0
100
AcDbText
 10
-3.501199
 20
0.258333
 30
0.0
 40
0.2
  1

100
AcDbAttributeDefinition
  3
Subshape type
  2
SUBSHAPETYPE
 70
     0
  0
ATTDEF
  5
27F
100
AcDbEntity
  8
0
100
AcDbText
 10
-3.501199
 20
0.258333
 30
0.0
 40
0.2
  1
0
100
AcDbAttributeDefinition
  3
Fire rating
  2
FIRERATING
 70
     0
  0
ATTDEF
  5
280
100
AcDbEntity
  8
0
100
AcDbText
 10
-3.501199
 20
0.258333
 30
0.0
 40
0.2
  1
0
100
AcDbAttributeDefinition
  3
Exit stair
  2
EXITSTAIR
 70
     0
  0
ATTDEF
  5
281
100
AcDbEntity
  8
0
100
AcDbText
 10
-3.501199
 20
0.258333
 30
0.0
 40
0.2
  1
1
100
AcDbAttributeDefinition
  3
Hide stair break
  2
HIDEBREAK
 70
     0
  0
ATTDEF
  5
282
100
AcDbEntity
  8
0
100
AcDbText
 10
-3.501199
 20
0.258333
 30
0.0
 40
0.2
  1
0
100
AcDbAttributeDefinition
  3
Hide upper stair
  2
HIDETOP
 70
     0
  0
ATTDEF
  5
283
100
AcDbEntity
  8
0
100
AcDbText
 10
-3.501199
 20
0.258333
 30
0.0
 40
0.2
  1
0
100
AcDbAttributeDefinition
  3
Hide bottom stair
  2
HIDEBOTTOM
 70
     0
  0
ATTDEF
  5
284
100
AcDbEntity
  8
0
100
AcDbText
 10
-3.501199
 20
0.258333
 30
0.0
 40
0.2
  1
0
100
AcDbAttributeDefinition
  3
Hide upper handrails
  2
HIDEUPPERRAIL
 70
     0
  0
ATTDEF
  5
285
100
AcDbEntity
  8
0
100
AcDbText
 10
-3.501199
 20
0.258333
 30
0.0
 40
0.2
  1
0
100
AcDbAttributeDefinition
  3
Hide lower handrails
  2
HIDELOWERRAIL
 70
     0
  0
ATTDEF
  5
286
100
AcDbEntity
  8
0
100
AcDbText
 10
-3.501199
 20
0.258333
 30
0.0
 40
0.2
  1
1
100
AcDbAttributeDefinition
  3
Hide Ramp
  2
HIDERAMP
 70
     0
  0
ATTDEF
  5
287
100
AcDbEntity
  8
0
100
AcDbText
 10
-3.501199
 20
0.258333
 30
0.0
 40
0.2
  1
0
100
AcDbAttributeDefinition
  3
Show Landing
  2
SHOWLANDING
 70
     0
  0
ATTDEF
  5
288
100
AcDbEntity
  8
0
100
AcDbText
 10
-3.501199
 20
0.258333
 30
0.0
 40
0.2
  1
20
100
AcDbAttributeDefinition
  3
Rise
  2
RISE
 70
     0
  0
LWPOLYLINE
  5
289
100
AcDbEntity
  8
BUILDING_ENVELOPE
  6
CONTINUOUS
 62
     9
100
AcDbPolyline
 90
        4
 70
     1
 10
-3.501199
 20
1.758333
 10
-2.630829
 20
1.758333
 10
-2.630829
 20
-1.241667
 10
-3.501199
 20
-1.241667
  0
LWPOLYLINE
  5
28A
100
AcDbEntity
  8
BUILDING_ENVELOPE
  6
CONTINUOUS
 62
     9
100
AcDbPolyline
 90
        4
 70
     1
 10
-2.630829
 20
1.758333
 10
-1.760459
 20
1.758333
 10
-1.760459
 20
-1.241667
 10
-2.630829
 20
-1.241667
  0
LWPOLYLINE
  5
28B
100
AcDbEntity
  8
BUILDING_ENVELOPE
  6
CONTINUOUS
 62
     9
100
AcDbPolyline
 90
        4
 70
     1
 10
-1.760459
 20
1.758333
 10
-0.890088
 20
1.758333
 10
-0.890088
 20
-1.241667
 10
-1.760459
 20
-1.241667
  0
LWPOLYLINE
  5
28C
100
AcDbEntity
  8
BUILDING_ENVELOPE
  6
CONTINUOUS
 62
     9
100
AcDbPolyline
 90
        4
 70
     1
 10
-0.890088
 20
1.758333
 10
-0.019718
 20
1.758333
 10
-0.019718
 20
-1.241667
 10
-0.890088
 20
-1.241667
  0
LWPOLYLINE
  5
28D
100
AcDbEntity
  8
BUILDING_ENVELOPE
  6
CONTINUOUS
 62
     9
100
AcDbPolyline
 90
        4
 70
     1
 10
-0.019718
 20
1.758333
 10
0.850653
 20
1.758333
 10
0.850653
 20
-1.241667
 10
-0.019718
 20
-1.241667
  0
LWPOLYLINE
  5
28E
100
AcDbEntity
  8
BUILDING_ENVELOPE
  6
CONTINUOUS
 62
     9
100
AcDbPolyline
 90
        4
 70
     1
 10
0.850653
 20
1.758333
 10
1.721023
 20
1.758333
 10
1.721023
 20
-1.241667
 10
0.850653
 20
-1.241667
  0
LWPOLYLINE
  5
28F
100
AcDbEntity
  8
BUILDING_ENVELOPE
  6
CONTINUOUS
 62
     9
100
AcDbPolyline
 90
        4
 70
     1
 10
1.721023
 20
1.758333
 10
2.591393
 20
1.758333
 10
2.591393
 20
-1.241667
 10
1.721023
 20
-1.241667
  0
LWPOLYLINE
  5
290
100
AcDbEntity
  8
BUILDING_ENVELOPE
  6
CONTINUOUS
 62
     9
100
AcDbPolyline
 90
        4
 70
     1
 10
2.591393
 20
1.758333
 10
3.461764
 20
1.758333
 10
3.461764
 20
-1.241667
 10
2.591393
 20
-1.241667
  0
LWPOLYLINE
  5
291
100
AcDbEntity
  8
BUILDING_ENVELOPE
  6
CONTINUOUS
 62
     9
100
AcDbPolyline
 90
        4
 70
     1
 10
3.461764
 20
1.758333
 10
4.332134
 20
1.758333
 10
4.332134
 20
-1.241667
 10
3.461764
 20
-1.241667
  0
MTEXT
  5
292
100
AcDbEntity
  8
BUILDING_ENVELOPE
100
AcDbMText
 10
-3.877833
 20
0.258333
 30
0.0
 40
0.333332
 41
0.753267
 71
     5
 72
     5
  1
\C7;\fCalibri|b0|i0|;\H0.33333206176758;UP
  0
CIRCLE
  5
294
102
{ACAD_REACTORS
330
295
102
}
100
AcDbEntity
  8
WALL
  6
CONTINUOUS
 62
     7
100
AcDbCircle
 10
-3.501199
 20
0.258333
 30
0.0
 40
0.086804
  0
HATCH
  5
295
100
AcDbEntity
  8
WALL
 62
     7
100
AcDbHatch
 10
0.0
 20
0.0
 30
0.0
210
0.0
220
0.0
230
1.0
  2
SOLID
 70
     1
 71
     1
 91
        1
 92
        1
 93
        1
 72
     2
 10
-3.5011993055309873
 20
0.2583333333333307
 40
0.0868041666666667
 50
0.0
 51
360.0
 73
     1
 97
       19
330
261
330
262
330
263
330
264
330
265
330
266
330
267
330
268
330
269
330
26A
330
26B
330
26C
330
26D
330
26E
330
26F
330
270
330
271
330
275
330
294
 75
     0
 76
     1
 98
        0
  0
LINE
  5
296
100
AcDbEntity
  8
WALL
  6
CONTINUOUS
 62
     7
100
AcDbLine
 10
-3.501199
 20
0.258333
 30
0.0
 11
-1.192999
 21
0.258333
 31
0.0
  0
LWPOLYLINE
  5
297
102
{ACAD_REACTORS
330
298
102
}
100
AcDbEntity
  8
WALL
  6
CONTINUOUS
 62
     7
100
AcDbPolyline
 90
        3
 70
     1
 10
-1.405912
 20
0.130858
 10
-1.405912
 20
0.385808
 10
-0.980087
 20
0.255599
  0
HATCH
  5
298
100
AcDbEntity
  8
WALL
 62
     7
100
AcDbHatch
 10
0.0
 20
0.0
 30
0.0
210
0.0
220
0.0
230
1.0
  2
SOLID
 70
     1
 71
     1
 91
        1
 92
        3
 72
     0
 73
     1
 93
        3
 10
-1.4059118055309874
 20
0.1308583333333307
 10
-1.4059118055309874
 20
0.3858083333333307
 10
-0.9800868055309874
 20
0.2555989359891018
 97
        1
330
297
 75
     0
 76
     1
 98
        0
  0
LINE
  5
299
102
{ACAD_REACTORS
330
29E
102
}
100
AcDbEntity
  8
BUILDING_ENVELOPE
  6
CONTINUOUS
 62
     7
100
AcDbLine
 10
0.415467
 20
-1.058333
 30
0.0
 11
4.526181
 21
-1.058333
 31
0.0
  0
ARC
  5
29A
102
{ACAD_REACTORS
330
29E
102
}
100
AcDbEntity
  8
BUILDING_ENVELOPE
  6
CONTINUOUS
 62
     7
100
AcDbCircle
 10
4.29196
 20
-1.404611
 30
0.0
 40
0.418052
100
AcDbArc
 50
357.204441
 51
55.925661
  0
LINE
  5
29B
102
{ACAD_REACTORS
330
29E
102
}
100
AcDbEntity
  8
BUILDING_ENVELOPE
  6
CONTINUOUS
 62
     7
100
AcDbLine
 10
4.709514
 20
-1.425
 30
0.0
 11
4.892848
 21
-1.425
 31
0.0
  0
ARC
  5
29C
102
{ACAD_REACTORS
330
29E
102
}
100
AcDbEntity
  8
BUILDING_ENVELOPE
  6
CONTINUOUS
 62
     7
100
AcDbCircle
 10
4.331043
 20
-1.402314
 30
0.0
 40
0.562262
100
AcDbArc
 50
357.687613
 51
69.692522
  0
LINE
  5
29D
102
{ACAD_REACTORS
330
29E
102
}
100
AcDbEntity
  8
BUILDING_ENVELOPE
  6
CONTINUOUS
 62
     7
100
AcDbLine
 10
4.526181
 20
-0.875
 30
0.0
 11
0.415467
 21
-0.875
 31
0.0
  0
HATCH
  5
29E
100
AcDbEntity
  8
BUILDING_ENVELOPE
 62
   254
100
AcDbHatch
 10
0.0
 20
0.0
 30
0.0
210
0.0
220
0.0
230
1.0
  2
SOLID
 70
     1
 71
     1
 91
        4
 92
        1
 93
        6
 72
     1
 10
0.4154673611356792
 20
-1.0583333333333358
 11
4.5261810369690121
 21
-1.0583333333333358
 72
     2
 10
4.2919598054193502
 20
-1.4046106157748337
 40
0.4180520800614547
 50
357.204441
 51
55.925661
 73
     1
 72
     1
 10
4.7095143703023448
 20
-1.4250000000000025
 11
4.8928477036356783
 21
-1.4250000000000025
 72
     2
 10
4.3310434353510541
 20
-1.4023139566341953
 40
0.5622621207465568
 50
357.687613
 51
69.692522
 73
     1
 72
     1
 10
4.5261810369690121
 20
-0.8750000000000029
 11
0.4154673611356792
 21
-0.8750000000000024
 72
     1
 10
0.4154673611356792
 20
-0.8750000000000024
 11
0.4154673611356792
 21
-1.0583333333333358
 97
        5
330
299
330
29A
330
29B
330
29C
330
29D
 92
        1
 93
        6
 72
     1
 10
0.4154673611356792
 20
1.5749999999999971
 11
4.5261810369690121
 21
1.5749999999999971
 72
     2
 10
4.5261840383023308
 20
1.7583303320000119
 40
0.1833303320245822
 50
269.999062
 51
0.000938
 73
     1
 72
     1
 10
4.7095143703023457
 20
1.7583333333333306
 11
4.8928477036356783
 21
1.7583333333333306
 72
     2
 10
4.5261870396356496
 20
1.7583273306666913
 40
0.3666606640491629
 50
269.999062
 51
0.000938
 73
     1
 72
     1
 10
4.5261810369690121
 20
1.3916666666666639
 11
0.4154673611356792
 21
1.3916666666666642
 72
     1
 10
0.4154673611356792
 20
1.3916666666666642
 11
0.4154673611356792
 21
1.5749999999999971
 97
        5
330
29F
330
2A0
330
2A1
330
2A2
330
2A3
 92
        1
 93
        6
 72
     1
 10
-4.6678659721976539
 20
-1.2416666666666691
 11
-4.4845326388643203
 21
-1.2416666666666691
 72
     2
 10
-4.3012023068643064
 20
-1.2416636653333502
 40
0.1833303320245819
 50
89.999062
 51
180.000938
 73
     1
 72
     1
 10
-4.3011993055309841
 20
-1.0583333333333358
 11
0.4154673611356792
 21
-1.0583333333333358
 72
     1
 10
0.4154673611356792
 20
-1.0583333333333358
 11
0.4154673611356792
 21
-0.8750000000000024
 72
     1
 10
0.4154673611356792
 20
-0.8750000000000024
 11
-4.3011993055309876
 21
-0.8750000000000024
 72
     2
 10
-4.3012053081976251
 20
-1.2416606640000305
 40
0.3666606640491635
 50
89.999062
 51
180.000938
 73
     1
 97
        5
330
2A4
330
2A5
330
2A6
330
2A7
330
2A8
 92
        1
 93
        6
 72
     1
 10
-4.7511993055309869
 20
1.7583333333333306
 11
-4.5678659721976533
 21
1.7583333333333306
 72
     2
 10
-4.3845356401976394
 20
1.7583303320000114
 40
0.183330332024582
 50
179.999062
 51
270.000938
 73
     1
 72
     1
 10
-4.384532638864318
 20
1.5749999999999971
 11
0.4154673611356792
 21
1.5749999999999971
 72
     1
 10
0.4154673611356792
 20
1.5749999999999971
 11
0.4154673611356792
 21
1.3916666666666642
 72
     1
 10
0.4154673611356792
 20
1.3916666666666642
 11
-4.3845326388643207
 21
1.3916666666666642
 72
     2
 10
-4.3845386415309591
 20
1.758327330666692
 40
0.3666606640491635
 50
179.999062
 51
270.000938
 73
     1
 97
        5
330
2A9
330
2AA
330
2AB
330
2AC
330
2AD
 75
     0
 76
     1
 98
        0
  0
LINE
  5
29F
102
{ACAD_REACTORS
330
29E
102
}
100
AcDbEntity
  8
BUILDING_ENVELOPE
  6
CONTINUOUS
 62
     7
100
AcDbLine
 10
0.415467
 20
1.575
 30
0.0
 11
4.526181
 21
1.575
 31
0.0
  0
ARC
  5
2A0
102
{ACAD_REACTORS
330
29E
102
}
100
AcDbEntity
  8
BUILDING_ENVELOPE
  6
CONTINUOUS
 62
     7
100
AcDbCircle
 10
4.526184
 20
1.75833
 30
0.0
 40
0.18333
100
AcDbArc
 50
269.999062
 51
0.0
  0
LINE
  5
2A1
102
{ACAD_REACTORS
330
29E
102
}
100
AcDbEntity
  8
BUILDING_ENVELOPE
  6
CONTINUOUS
 62
     7
100
AcDbLine
 10
4.709514
 20
1.758333
 30
0.0
 11
4.892848
 21
1.758333
 31
0.0
  0
ARC
  5
2A2
102
{ACAD_REACTORS
330
29E
102
}
100
AcDbEntity
  8
BUILDING_ENVELOPE
  6
CONTINUOUS
 62
     7
100
AcDbCircle
 10
4.526187
 20
1.758327
 30
0.0
 40
0.366661
100
AcDbArc
 50
269.999062
 51
0.0
  0
LINE
  5
2A3
102
{ACAD_REACTORS
330
29E
102
}
100
AcDbEntity
  8
BUILDING_ENVELOPE
  6
CONTINUOUS
 62
     7
100
AcDbLine
 10
4.526181
 20
1.391667
 30
0.0
 11
0.415467
 21
1.391667
 31
0.0
  0
LINE
  5
2A4
102
{ACAD_REACTORS
330
29E
102
}
100
AcDbEntity
  8
BUILDING_ENVELOPE
  6
CONTINUOUS
 62
     7
100
AcDbLine
 10
-4.667866
 20
-1.241667
 30
0.0
 11
-4.484533
 21
-1.241667
 31
0.0
  0
ARC
  5
2A5
102
{ACAD_REACTORS
330
29E
102
}
100
AcDbEntity
  8
BUILDING_ENVELOPE
  6
CONTINUOUS
 62
     7
100
AcDbCircle
 10
-4.301202
 20
-1.241664
 30
0.0
 40
0.18333
100
AcDbArc
 50
89.999062
 51
180.000938
  0
LINE
  5
2A6
102
{ACAD_REACTORS
330
29E
102
}
100
AcDbEntity
  8
BUILDING_ENVELOPE
  6
CONTINUOUS
 62
     7
100
AcDbLine
 10
-4.301199
 20
-1.058333
 30
0.0
 11
0.415467
 21
-1.058333
 31
0.0
  0
LINE
  5
2A7
102
{ACAD_REACTORS
330
29E
102
}
100
AcDbEntity
  8
BUILDING_ENVELOPE
  6
CONTINUOUS
 62
     7
100
AcDbLine
 10
0.415467
 20
-0.875
 30
0.0
 11
-4.301199
 21
-0.875
 31
0.0
  0
ARC
  5
2A8
102
{ACAD_REACTORS
330
29E
102
}
100
AcDbEntity
  8
BUILDING_ENVELOPE
  6
CONTINUOUS
 62
     7
100
AcDbCircle
 10
-4.301205
 20
-1.241661
 30
0.0
 40
0.366661
100
AcDbArc
 50
89.999062
 51
180.000938
  0
LINE
  5
2A9
102
{ACAD_REACTORS
330
29E
102
}
100
AcDbEntity
  8
BUILDING_ENVELOPE
  6
CONTINUOUS
 62
     7
100
AcDbLine
 10
-4.751199
 20
1.758333
 30
0.0
 11
-4.567866
 21
1.758333
 31
0.0
  0
ARC
  5
2AA
102
{ACAD_REACTORS
330
29E
102
}
100
AcDbEntity
  8
BUILDING_ENVELOPE
  6
CONTINUOUS
 62
     7
100
AcDbCircle
 10
-4.384536
 20
1.75833
 30
0.0
 40
0.18333
100
AcDbArc
 50
179.999062
 51
270.000938
  0
LINE
  5
2AB
102
{ACAD_REACTORS
330
29E
102
}
100
AcDbEntity
  8
BUILDING_ENVELOPE
  6
CONTINUOUS
 62
     7
100
AcDbLine
 10
-4.384533
 20
1.575
 30
0.0
 11
0.415467
 21
1.575
 31
0.0
  0
LINE
  5
2AC
102
{ACAD_REACTORS
330
29E
102
}
100
AcDbEntity
  8
BUILDING_ENVELOPE
  6
CONTINUOUS
 62
     7
100
AcDbLine
 10
0.415467
 20
1.391667
 30
0.0
 11
-4.384533
 21
1.391667
 31
0.0
  0
ARC
  5
2AD
102
{ACAD_REACTORS
330
29E
102
}
100
AcDbEntity
  8
BUILDING_ENVELOPE
  6
CONTINUOUS
 62
     7
100
AcDbCircle
 10
-4.384539
 20
1.758327
 30
0.0
 40
0.366661
100
AcDbArc
 50
179.999062
 51
270.000938
  0
ENDBLK
  5
2AE
100
AcDbEntity
  8
0
100
AcDbBlockEnd
  0
BLOCK
  5
2B0
100
AcDbEntity
  8
0
100
AcDbBlockBegin
  2
DOUBLE
 70
     0
 10
0.0
 20
0.0
 30
0.0
  3
DOUBLE
  1

  0
LWPOLYLINE
  5
2B1
102
{ACAD_REACTORS
330
2DD
102
}
100
AcDbEntity
  8
BUILDING_ENVELOPE
  6
CONTINUOUS
 62
     7
100
AcDbPolyline
 90
        4
 70
     1
 10
2.333333
 20
4.734
 10
7.666667
 20
4.734
 10
7.666667
 20
5.266
 10
2.333333
 20
5.266
  0
LINE
  5
2B2
102
{ACAD_REACTORS
330
2DD
102
}
100
AcDbEntity
  8
BUILDING_ENVELOPE
  6
CONTINUOUS
 62
     7
100
AcDbLine
 10
7.666667
 20
4.75
 30
0.0
 11
7.666667
 21
5.25
 31
0.0
  0
LINE
  5
2B3
102
{ACAD_REACTORS
330
2DD
102
}
100
AcDbEntity
  8
BUILDING_ENVELOPE
  6
CONTINUOUS
 62
     7
100
AcDbLine
 10
7.666667
 20
5.25
 30
0.0
 11
7.5
 21
5.25
 31
0.0
  0
LINE
  5
2B4
102
{ACAD_REACTORS
330
2DD
102
}
100
AcDbEntity
  8
BUILDING_ENVELOPE
  6
CONTINUOUS
 62
     7
100
AcDbLine
 10
7.5
 20
5.25
 30
0.0
 11
7.5
 21
5.083333
 31
0.0
  0
LINE
  5
2B5
102
{ACAD_REACTORS
330
2DD
102
}
100
AcDbEntity
  8
BUILDING_ENVELOPE
  6
CONTINUOUS
 62
     7
100
AcDbLine
 10
7.5
 20
4.958333
 30
0.0
 11
7.5
 21
4.75
 31
0.0
  0
LINE
  5
2B6
102
{ACAD_REACTORS
330
2DD
102
}
100
AcDbEntity
  8
BUILDING_ENVELOPE
  6
CONTINUOUS
 62
     7
100
AcDbLine
 10
7.5
 20
4.75
 30
0.0
 11
7.666667
 21
4.75
 31
0.0
  0
LINE
  5
2B7
102
{ACAD_REACTORS
330
2DD
102
}
100
AcDbEntity
  8
BUILDING_ENVELOPE
  6
CONTINUOUS
 62
     7
100
AcDbLine
 10
2.333333
 20
4.75
 30
0.0
 11
2.333333
 21
5.25
 31
0.0
  0
LINE
  5
2B8
102
{ACAD_REACTORS
330
2DD
102
}
100
AcDbEntity
  8
BUILDING_ENVELOPE
  6
CONTINUOUS
 62
     7
100
AcDbLine
 10
2.333333
 20
5.25
 30
0.0
 11
2.5
 21
5.25
 31
0.0
  0
LINE
  5
2B9
102
{ACAD_REACTORS
330
2DD
102
}
100
AcDbEntity
  8
BUILDING_ENVELOPE
  6
CONTINUOUS
 62
     7
100
AcDbLine
 10
2.5
 20
5.25
 30
0.0
 11
2.5
 21
5.083333
 31
0.0
  0
LINE
  5
2BA
102
{ACAD_REACTORS
330
2DD
102
}
100
AcDbEntity
  8
BUILDING_ENVELOPE
  6
CONTINUOUS
 62
     7
100
AcDbLine
 10
2.5
 20
4.958333
 30
0.0
 11
2.5
 21
4.75
 31
0.0
  0
LINE
  5
2BB
102
{ACAD_REACTORS
330
2DD
102
}
100
AcDbEntity
  8
BUILDING_ENVELOPE
  6
CONTINUOUS
 62
     7
100
AcDbLine
 10
2.5
 20
4.75
 30
0.0
 11
2.333333
 21
4.75
 31
0.0
  0
LINE
  5
2BC
102
{ACAD_REACTORS
330
2DD
102
}
100
AcDbEntity
  8
BUILDING_ENVELOPE
  6
CONTINUOUS
 62
     7
100
AcDbLine
 10
7.5
 20
5.083333
 30
0.0
 11
7.458333
 21
5.083333
 31
0.0
  0
LINE
  5
2BD
102
{ACAD_REACTORS
330
2DD
102
}
100
AcDbEntity
  8
BUILDING_ENVELOPE
  6
CONTINUOUS
 62
     7
100
AcDbLine
 10
7.458333
 20
5.083333
 30
0.0
 11
7.458333
 21
4.958333
 31
0.0
  0
LINE
  5
2BE
102
{ACAD_REACTORS
330
2DD
102
}
100
AcDbEntity
  8
BUILDING_ENVELOPE
  6
CONTINUOUS
 62
     7
100
AcDbLine
 10
7.458333
 20
4.958333
 30
0.0
 11
7.5
 21
4.958333
 31
0.0
  0
LINE
  5
2BF
102
{ACAD_REACTORS
330
2DD
102
}
100
AcDbEntity
  8
BUILDING_ENVELOPE
  6
CONTINUOUS
 62
     7
100
AcDbLine
 10
2.5
 20
5.083333
 30
0.0
 11
2.541667
 21
5.083333
 31
0.0
  0
LINE
  5
2C0
102
{ACAD_REACTORS
330
2DD
102
}
100
AcDbEntity
  8
BUILDING_ENVELOPE
  6
CONTINUOUS
 62
     7
100
AcDbLine
 10
2.541667
 20
5.083333
 30
0.0
 11
2.541667
 21
4.958333
 31
0.0
  0
LINE
  5
2C1
102
{ACAD_REACTORS
330
2DD
102
}
100
AcDbEntity
  8
BUILDING_ENVELOPE
  6
CONTINUOUS
 62
     7
100
AcDbLine
 10
2.541667
 20
4.958333
 30
0.0
 11
2.5
 21
4.958333
 31
0.0
  0
LINE
  5
2C2
100
AcDbEntity
  8
BUILDING_ENVELOPE
  6
CONTINUOUS
 62
     7
100
AcDbLine
 10
7.666667
 20
4.75
 30
0.0
 11
7.666667
 21
5.25
 31
0.0
  0
LINE
  5
2C3
100
AcDbEntity
  8
BUILDING_ENVELOPE
  6
CONTINUOUS
 62
     7
100
AcDbLine
 10
2.333333
 20
4.75
 30
0.0
 11
2.333333
 21
5.25
 31
0.0
  0
ARC
  5
2C4
100
AcDbEntity
  8
BUILDING_ENVELOPE
  6
CONTINUOUS
 62
     7
100
AcDbCircle
 10
2.5
 20
5.25
 30
0.0
 40
2.5
100
AcDbArc
 50
0.0
 51
90.0
  0
ARC
  5
2C5
100
AcDbEntity
  8
BUILDING_ENVELOPE
  6
CONTINUOUS
 62
     7
100
AcDbCircle
 10
7.5
 20
5.25
 30
0.0
 40
2.5
100
AcDbArc
 50
90.0
 51
180.0
  0
LWPOLYLINE
  5
2C6
102
{ACAD_REACTORS
330
2DD
102
}
100
AcDbEntity
  8
BUILDING_ENVELOPE
  6
CONTINUOUS
 62
     7
100
AcDbPolyline
 90
        4
 70
     1
 10
2.5
 20
7.75
 10
2.5
 20
5.25
 10
2.666667
 20
5.25
 10
2.666667
 20
7.75
  0
LWPOLYLINE
  5
2C7
102
{ACAD_REACTORS
330
2DD
102
}
100
AcDbEntity
  8
BUILDING_ENVELOPE
  6
CONTINUOUS
 62
     7
100
AcDbPolyline
 90
        4
 70
     1
 10
7.333333
 20
7.75
 10
7.333333
 20
5.25
 10
7.5
 20
5.25
 10
7.5
 20
7.75
  0
ENDBLK
  5
2C8
100
AcDbEntity
  8
0
100
AcDbBlockEnd
  0
BLOCK
  5
2CA
100
AcDbEntity
  8
0
100
AcDbBlockBegin
  2
SPACE
 70
     2
 10
0.0
 20
0.0
 30
0.0
  3
SPACE
  1

  0
ATTDEF
  5
2CB
100
AcDbEntity
  8
0
100
AcDbText
 10
5.0
 20
5.0
 30
0.0
 40
0.2
  1

100
AcDbAttributeDefinition
  3
Name
  2
NAME
 70
     0
  0
ATTDEF
  5
2CC
100
AcDbEntity
  8
0
100
AcDbText
 10
5.0
 20
5.0
 30
0.0
 40
0.2
  1

100
AcDbAttributeDefinition
  3
Space ID
  2
LOCATIONID
 70
     0
  0
ATTDEF
  5
2CD
100
AcDbEntity
  8
0
100
AcDbText
 10
5.0
 20
5.0
 30
0.0
 40
0.2
  1

100
AcDbAttributeDefinition
  3
Department
  2
DEPARTMENT
 70
     0
  0
ATTDEF
  5
2CE
100
AcDbEntity
  8
0
100
AcDbText
 10
5.0
 20
5.0
 30
0.0
 40
0.2
  1
Office
100
AcDbAttributeDefinition
  3
Space use
  2
USE
 70
     0
  0
ATTDEF
  5
2CF
100
AcDbEntity
  8
0
100
AcDbText
 10
5.0
 20
5.0
 30
0.0
 40
0.2
  1

100
AcDbAttributeDefinition
  3
Phone number
  2
PHONENUMBER
 70
     0
  0
ATTDEF
  5
2D0
100
AcDbEntity
  8
0
100
AcDbText
 10
5.0
 20
5.0
 30
0.0
 40
0.2
  1
0
100
AcDbAttributeDefinition
  3
Occupancy
  2
OCCUPANTCOUNT
 70
     0
  0
ATTDEF
  5
2D1
100
AcDbEntity
  8
0
100
AcDbText
 10
5.0
 20
5.0
 30
0.0
 40
0.2
  1
0
100
AcDbAttributeDefinition
  3
Capacity
  2
OCCUPANTCAPACITY
 70
     0
  0
ATTDEF
  5
2D2
100
AcDbEntity
  8
0
100
AcDbText
 10
5.0
 20
5.0
 30
0.0
 40
0.2
  1

100
AcDbAttributeDefinition
  3
ID
  2
ID
 70
     0
  0
ATTDEF
  5
2D3
100
AcDbEntity
  8
0
100
AcDbText
 10
5.0
 20
5.0
 30
0.0
 40
0.2
  1

100
AcDbAttributeDefinition
  3
Belongs to
  2
BELONGSTO
 70
     0
  0
ATTDEF
  5
2D4
100
AcDbEntity
  8
0
100
AcDbText
 10
5.0
 20
5.0
 30
0.0
 40
0.2
  1

100
AcDbAttributeDefinition
  3
Modified
  2
MODIFY
 70
     0
  0
ATTDEF
  5
2D5
100
AcDbEntity
  8
0
100
AcDbText
 10
5.0
 20
5.0
 30
0.0
 40
0.2
  1
Location
100
AcDbAttributeDefinition
  3
Shape class
  2
SHAPECLASS
 70
     0
  0
ATTDEF
  5
2D6
100
AcDbEntity
  8
0
100
AcDbText
 10
5.0
 20
5.0
 30
0.0
 40
0.2
  1
Space
100
AcDbAttributeDefinition
  3
Shape type
  2
SHAPETYPE
 70
     0
  0
ATTDEF
  5
2D7
100
AcDbEntity
  8
0
100
AcDbText
 10
5.0
 20
5.0
 30
0.0
 40
0.2
  1

100
AcDbAttributeDefinition
  3
Subshape type
  2
SUBSHAPETYPE
 70
     0
  0
ATTDEF
  5
2D8
100
AcDbEntity
  8
0
100
AcDbText
 10
5.0
 20
5.0
 30
0.0
 40
0.2
  1
0
100
AcDbAttributeDefinition
  3
Space height
  2
SPACEHEIGHT
 70
     0
  0
ATTDEF
  5
2D9
100
AcDbEntity
  8
0
100
AcDbText
 10
5.0
 20
5.0
 30
0.0
 40
0.2
  1
0
100
AcDbAttributeDefinition
  3
Zones
  2
ZONES
 70
     0
  0
ATTDEF
  5
2DA
100
AcDbEntity
  8
0
100
AcDbText
 10
5.0
 20
5.0
 30
0.0
 40
0.2
  1
100FT^ 2
100
AcDbAttributeDefinition
  3
Calculated area
  2
VISAREA
 70
     0
  0
ATTDEF
  5
2DB
100
AcDbEntity
  8
0
100
AcDbText
 10
5.0
 20
5.0
 30
0.0
 40
0.2
  1
0
100
AcDbAttributeDefinition
  3
Base elevation
  2
BASEELEVATION
 70
     0
  0
LWPOLYLINE
  5
2DC
102
{ACAD_REACTORS
330
2DD
102
}
100
AcDbEntity
  8
WALL
  6
CONTINUOUS
100
AcDbPolyline
 90
        4
 70
     1
 10
0.0
 20
0.0
 10
10.0
 20
0.0
 10
10.0
 20
10.0
 10
0.0
 20
10.0
  0
HATCH
  5
2DD
100
AcDbEntity
  8
WALL
 62
    94
100
AcDbHatch
 10
0.0
 20
0.0
 30
0.0
210
0.0
220
0.0
230
1.0
  2
ANSI31
 70
     0
 71
     1
 91
        1
 92
        2
 72
     0
 73
     1
 93
        4
 10
0.0
 20
0.0
 10
10.0
 20
0.0
 10
10.0
 20
10.0
 10
0.0
 20
10.0
 97
       20
330
2B1
330
2B2
330
2B3
330
2B4
330
2B5
330
2B6
330
2B7
330
2B8
330
2B9
330
2BA
330
2BB
330
2BC
330
2BD
330
2BE
330
2BF
330
2C0
330
2C1
330
2C6
330
2C7
330
2DC
 75
     0
 76
     1
 52
0.0
 41
0.083333
 77
     0
 78
     1
 53
45.0
 43
0.0
 44
0.0
 45
-0.0073333333333333
 46
0.0073333333333333
 79
     0
 98
        0
  0
MTEXT
  5
2DE
100
AcDbEntity
  8
WALL
100
AcDbMText
 10
5.0
 20
4.948732
 30
0.0
 40
0.500004
 41
4.420539
 71
     5
 72
     5
  1
\C7;\fCalibri|b0|i0|;\H0.50000381469727;Office\P\P\P
  0
ENDBLK
  5
2DF
100
AcDbEntity
  8
0
100
AcDbBlockEnd
  0
ENDSEC
  0
SECTION
  2
ENTITIES
  0
LWPOLYLINE
  5
76
102
{ACAD_REACTORS
330
77
102
}
100
AcDbEntity
  8
BUILDING_ENVELOPE
  6
CONTINUOUS
 62
     7
100
AcDbPolyline
 90
        4
 70
     1
 10
0.356904
 20
65.02357
 10
0.356904
 20
0.356904
 10
0.02357
 20
0.02357
 10
0.02357
 20
65.356904
  0
HATCH
  5
77
102
{ACAD_REACTORS
330
74
102
}
100
AcDbEntity
  8
BUILDING_ENVELOPE
 62
     7
100
AcDbHatch
 10
0.0
 20
0.0
 30
0.0
210
0.0
220
0.0
230
1.0
  2
SOLID
 70
     1
 71
     1
 91
        1
 92
        3
 72
     0
 73
     1
 93
        4
 10
0.3569035593728971
 20
65.0235702260395385
 10
0.3569035593728971
 20
0.3569035593728813
 10
0.0235702260395638
 20
0.023570226039548
 10
0.0235702260395638
 20
65.3569035593728813
 97
        1
330
76
 75
     0
 76
     1
 98
        0
  0
LINE
  5
78
102
{ACAD_REACTORS
330
74
102
}
100
AcDbEntity
  8
BUILDING_ENVELOPE
  6
CONTINUOUS
 62
     7
100
AcDbLine
 10
0.356904
 20
65.02357
 30
0.0
 11
0.356904
 21
0.356904
 31
0.0
  0
LINE
  5
79
102
{ACAD_REACTORS
330
74
102
}
100
AcDbEntity
  8
BUILDING_ENVELOPE
  6
CONTINUOUS
 62
     7
100
AcDbLine
 10
0.02357
 20
65.356904
 30
0.0
 11
0.02357
 21
0.02357
 31
0.0
  0
LWPOLYLINE
  5
7B
102
{ACAD_REACTORS
330
7C
102
}
100
AcDbEntity
  8
BUILDING_ENVELOPE
  6
CONTINUOUS
 62
     7
100
AcDbPolyline
 90
        4
 70
     1
 10
35.356904
 20
65.356904
 10
35.356904
 20
0.02357
 10
35.02357
 20
0.356904
 10
35.02357
 20
65.02357
  0
HATCH
  5
7C
102
{ACAD_REACTORS
330
7A
102
}
100
AcDbEntity
  8
BUILDING_ENVELOPE
 62
     7
100
AcDbHatch
 10
0.0
 20
0.0
 30
0.0
210
0.0
220
0.0
230
1.0
  2
SOLID
 70
     1
 71
     1
 91
        1
 92
        3
 72
     0
 73
     1
 93
        4
 10
35.3569035593728955
 20
65.3569035593728813
 10
35.3569035593728955
 20
0.023570226039548
 10
35.0235702260395669
 20
0.3569035593728813
 10
35.0235702260395669
 20
65.0235702260395385
 97
        1
330
7B
 75
     0
 76
     1
 98
        0
  0
LINE
  5
7D
102
{ACAD_REACTORS
330
7A
102
}
100
AcDbEntity
  8
BUILDING_ENVELOPE
  6
CONTINUOUS
 62
     7
100
AcDbLine
 10
35.356904
 20
65.356904
 30
0.0
 11
35.356904
 21
0.02357
 31
0.0
  0
LINE
  5
7E
102
{ACAD_REACTORS
330
7A
102
}
100
AcDbEntity
  8
BUILDING_ENVELOPE
  6
CONTINUOUS
 62
     7
100
AcDbLine
 10
35.02357
 20
65.02357
 30
0.0
 11
35.02357
 21
0.356904
 31
0.0
  0
LWPOLYLINE
  5
80
102
{ACAD_REACTORS
330
81
102
}
100
AcDbEntity
  8
BUILDING_ENVELOPE
  6
CONTINUOUS
 62
     7
100
AcDbPolyline
 90
        4
 70
     1
 10
0.02357
 20
65.356904
 10
35.356904
 20
65.356904
 10
35.02357
 20
65.02357
 10
0.356904
 20
65.02357
  0
HATCH
  5
81
102
{ACAD_REACTORS
330
7F
102
}
100
AcDbEntity
  8
BUILDING_ENVELOPE
 62
     7
100
AcDbHatch
 10
0.0
 20
0.0
 30
0.0
210
0.0
220
0.0
230
1.0
  2
SOLID
 70
     1
 71
     1
 91
        1
 92
        3
 72
     0
 73
     1
 93
        4
 10
0.0235702260395716
 20
65.3569035593728813
 10
35.3569035593729097
 20
65.3569035593728813
 10
35.023570226039574
 20
65.0235702260395385
 10
0.3569035593729074
 20
65.0235702260395385
 97
        1
330
80
 75
     0
 76
     1
 98
        0
  0
LINE
  5
82
102
{ACAD_REACTORS
330
7F
102
}
100
AcDbEntity
  8
BUILDING_ENVELOPE
  6
CONTINUOUS
 62
     7
100
AcDbLine
 10
0.02357
 20
65.356904
 30
0.0
 11
35.356904
 21
65.356904
 31
0.0
  0
LINE
  5
83
102
{ACAD_REACTORS
330
7F
102
}
100
AcDbEntity
  8
BUILDING_ENVELOPE
  6
CONTINUOUS
 62
     7
100
AcDbLine
 10
0.356904
 20
65.02357
 30
0.0
 11
35.02357
 21
65.02357
 31
0.0
  0
LWPOLYLINE
  5
85
102
{ACAD_REACTORS
330
86
102
}
100
AcDbEntity
  8
BUILDING_ENVELOPE
  6
CONTINUOUS
 62
     7
100
AcDbPolyline
 90
        4
 70
     1
 10
0.356904
 20
0.356904
 10
35.02357
 20
0.356904
 10
35.356904
 20
0.02357
 10
0.02357
 20
0.02357
  0
HATCH
  5
86
102
{ACAD_REACTORS
330
84
102
}
100
AcDbEntity
  8
BUILDING_ENVELOPE
 62
     7
100
AcDbHatch
 10
0.0
 20
0.0
 30
0.0
210
0.0
220
0.0
230
1.0
  2
SOLID
 70
     1
 71
     1
 91
        1
 92
        3
 72
     0
 73
     1
 93
        4
 10
0.356903559372879
 20
0.3569035593728835
 10
35.0235702260395456
 20
0.3569035593728835
 10
35.3569035593728813
 20
0.0235702260395502
 10
0.0235702260395504
 20
0.0235702260395502
 97
        1
330
85
 75
     0
 76
     1
 98
        0
  0
LINE
  5
87
102
{ACAD_REACTORS
330
84
102
}
100
AcDbEntity
  8
BUILDING_ENVELOPE
  6
CONTINUOUS
 62
     7
100
AcDbLine
 10
0.356904
 20
0.356904
 30
0.0
 11
35.02357
 21
0.356904
 31
0.0
  0
LINE
  5
88
102
{ACAD_REACTORS
330
84
102
}
100
AcDbEntity
  8
BUILDING_ENVELOPE
  6
CONTINUOUS
 62
     7
100
AcDbLine
 10
0.02357
 20
0.02357
 30
0.0
 11
35.356904
 21
0.02357
 31
0.0
  0
LWPOLYLINE
  5
8A
102
{ACAD_REACTORS
330
8B
102
}
100
AcDbEntity
  8
BUILDING_ENVELOPE
  6
CONTINUOUS
 62
     7
100
AcDbPolyline
 90
        4
 70
     1
 10
0.356904
 20
58.358292
 10
9.458292
 20
58.358292
 10
9.791626
 20
58.024959
 10
0.356904
 20
58.024959
  0
HATCH
  5
8B
102
{ACAD_REACTORS
330
89
102
}
100
AcDbEntity
  8
BUILDING_ENVELOPE
 62
     7
100
AcDbHatch
 10
0.0
 20
0.0
 30
0.0
210
0.0
220
0.0
230
1.0
  2
SOLID
 70
     1
 71
     1
 91
        1
 92
        3
 72
     0
 73
     1
 93
        4
 10
0.3569035593729027
 20
58.3582924482617642
 10
9.4582924482617816
 20
58.3582924482617642
 10
9.7916257815951155
 20
58.0249591149284356
 10
0.3569035593729074
 20
58.0249591149284356
 97
        1
330
8A
 75
     0
 76
     1
 98
        0
  0
LWPOLYLINE
  5
8C
102
{ACAD_REACTORS
330
8D
102
}
100
AcDbEntity
  8
BUILDING_ENVELOPE
  6
CONTINUOUS
 62
     7
100
AcDbPolyline
 90
        4
 70
     1
 10
0.356904
 20
58.024959
 10
0.356904
 20
58.358292
 10
0.32357
 20
58.358292
 10
0.32357
 20
58.024959
  0
HATCH
  5
8D
102
{ACAD_REACTORS
330
89
102
}
100
AcDbEntity
  8
BUILDING_ENVELOPE
 62
     7
100
AcDbHatch
 10
0.0
 20
0.0
 30
0.0
210
0.0
220
0.0
230
1.0
  2
SOLID
 70
     1
 71
     1
 91
        1
 92
        3
 72
     0
 73
     1
 93
        4
 10
0.356903559372905
 20
58.0249591149284356
 10
0.356903559372905
 20
58.3582924482617642
 10
0.3235702260395717
 20
58.3582924482617642
 10
0.3235702260395717
 20
58.0249591149284356
 97
        1
330
8C
 75
     0
 76
     1
 98
        0
  0
LINE
  5
8E
102
{ACAD_REACTORS
330
89
102
}
100
AcDbEntity
  8
BUILDING_ENVELOPE
  6
CONTINUOUS
 62
     7
100
AcDbLine
 10
0.356904
 20
58.358292
 30
0.0
 11
9.458292
 21
58.358292
 31
0.0
  0
LINE
  5
8F
102
{ACAD_REACTORS
330
89
102
}
100
AcDbEntity
  8
BUILDING_ENVELOPE
  6
CONTINUOUS
 62
     7
100
AcDbLine
 10
0.356904
 20
58.024959
 30
0.0
 11
9.791626
 21
58.024959
 31
0.0
  0
LWPOLYLINE
  5
91
102
{ACAD_REACTORS
330
92
102
}
100
AcDbEntity
  8
BUILDING_ENVELOPE
  6
CONTINUOUS
 62
     7
100
AcDbPolyline
 90
        4
 70
     1
 10
9.458292
 20
58.358292
 10
9.458292
 20
65.02357
 10
9.791626
 20
65.02357
 10
9.791626
 20
58.024959
  0
HATCH
  5
92
102
{ACAD_REACTORS
330
90
102
}
100
AcDbEntity
  8
BUILDING_ENVELOPE
 62
     7
100
AcDbHatch
 10
0.0
 20
0.0
 30
0.0
210
0.0
220
0.0
230
1.0
  2
SOLID
 70
     1
 71
     1
 91
        1
 92
        3
 72
     0
 73
     1
 93
        4
 10
9.4582924482617834
 20
58.3582924482617642
 10
9.4582924482617834
 20
65.0235702260395385
 10
9.7916257815951155
 20
65.0235702260395385
 10
9.7916257815951155
 20
58.0249591149284356
 97
        1
330
91
 75
     0
 76
     1
 98
        0
  0
LWPOLYLINE
  5
93
102
{ACAD_REACTORS
330
94
102
}
100
AcDbEntity
  8
BUILDING_ENVELOPE
  6
CONTINUOUS
 62
     7
100
AcDbPolyline
 90
        4
 70
     1
 10
9.458292
 20
65.02357
 10
9.791626
 20
65.02357
 10
9.791626
 20
65.056904
 10
9.458292
 20
65.056904
  0
HATCH
  5
94
102
{ACAD_REACTORS
330
90
102
}
100
AcDbEntity
  8
BUILDING_ENVELOPE
 62
     7
100
AcDbHatch
 10
0.0
 20
0.0
 30
0.0
210
0.0
220
0.0
230
1.0
  2
SOLID
 70
     1
 71
     1
 91
        1
 92
        3
 72
     0
 73
     1
 93
        4
 10
9.4582924482617834
 20
65.0235702260395385
 10
9.7916257815951155
 20
65.0235702260395385
 10
9.7916257815951155
 20
65.0569035593728699
 10
9.4582924482617834
 20
65.0569035593728699
 97
        1
330
93
 75
     0
 76
     1
 98
        0
  0
LINE
  5
95
102
{ACAD_REACTORS
330
90
102
}
100
AcDbEntity
  8
BUILDING_ENVELOPE
  6
CONTINUOUS
 62
     7
100
AcDbLine
 10
9.458292
 20
58.358292
 30
0.0
 11
9.458292
 21
65.02357
 31
0.0
  0
LINE
  5
96
102
{ACAD_REACTORS
330
90
102
}
100
AcDbEntity
  8
BUILDING_ENVELOPE
  6
CONTINUOUS
 62
     7
100
AcDbLine
 10
9.791626
 20
58.024959
 30
0.0
 11
9.791626
 21
65.02357
 31
0.0
  0
LWPOLYLINE
  5
98
102
{ACAD_REACTORS
330
99
102
}
100
AcDbEntity
  8
BUILDING_ENVELOPE
  6
CONTINUOUS
 62
     7
100
AcDbPolyline
 90
        4
 70
     1
 10
9.791626
 20
58.358292
 10
30.291626
 20
58.358292
 10
29.958292
 20
58.024959
 10
9.791626
 20
58.024959
  0
HATCH
  5
99
102
{ACAD_REACTORS
330
97
102
}
100
AcDbEntity
  8
BUILDING_ENVELOPE
 62
     7
100
AcDbHatch
 10
0.0
 20
0.0
 30
0.0
210
0.0
220
0.0
230
1.0
  2
SOLID
 70
     1
 71
     1
 91
        1
 92
        3
 72
     0
 73
     1
 93
        4
 10
9.7916257815951155
 20
58.3582924482617642
 10
30.2916257815951155
 20
58.3582924482617642
 10
29.9582924482617798
 20
58.0249591149284356
 10
9.7916257815951155
 20
58.0249591149284356
 97
        1
330
98
 75
     0
 76
     1
 98
        0
  0
LWPOLYLINE
  5
9A
102
{ACAD_REACTORS
330
9B
102
}
100
AcDbEntity
  8
BUILDING_ENVELOPE
  6
CONTINUOUS
 62
     7
100
AcDbPolyline
 90
        4
 70
     1
 10
9.791626
 20
58.024959
 10
9.791626
 20
58.358292
 10
9.758292
 20
58.358292
 10
9.758292
 20
58.024959
  0
HATCH
  5
9B
102
{ACAD_REACTORS
330
97
102
}
100
AcDbEntity
  8
BUILDING_ENVELOPE
 62
     7
100
AcDbHatch
 10
0.0
 20
0.0
 30
0.0
210
0.0
220
0.0
230
1.0
  2
SOLID
 70
     1
 71
     1
 91
        1
 92
        3
 72
     0
 73
     1
 93
        4
 10
9.7916257815951155
 20
58.0249591149284356
 10
9.7916257815951155
 20
58.3582924482617642
 10
9.7582924482617805
 20
58.3582924482617642
 10
9.7582924482617805
 20
58.0249591149284356
 97
        1
330
9A
 75
     0
 76
     1
 98
        0
  0
LINE
  5
9C
102
{ACAD_REACTORS
330
97
102
}
100
AcDbEntity
  8
BUILDING_ENVELOPE
  6
CONTINUOUS
 62
     7
100
AcDbLine
 10
9.791626
 20
58.358292
 30
0.0
 11
30.291626
 21
58.358292
 31
0.0
  0
LINE
  5
9D
102
{ACAD_REACTORS
330
97
102
}
100
AcDbEntity
  8
BUILDING_ENVELOPE
  6
CONTINUOUS
 62
     7
100
AcDbLine
 10
9.791626
 20
58.024959
 30
0.0
 11
29.958292
 21
58.024959
 31
0.0
  0
LWPOLYLINE
  5
9F
102
{ACAD_REACTORS
330
A0
102
}
100
AcDbEntity
  8
BUILDING_ENVELOPE
  6
CONTINUOUS
 62
     7
100
AcDbPolyline
 90
        4
 70
     1
 10
15.958292
 20
42.358292
 10
15.958292
 20
58.024959
 10
16.291626
 20
58.024959
 10
16.291626
 20
42.024959
  0
HATCH
  5
A0
102
{ACAD_REACTORS
330
9E
102
}
100
AcDbEntity
  8
BUILDING_ENVELOPE
 62
     7
100
AcDbHatch
 10
0.0
 20
0.0
 30
0.0
210
0.0
220
0.0
230
1.0
  2
SOLID
 70
     1
 71
     1
 91
        1
 92
        3
 72
     0
 73
     1
 93
        4
 10
15.9582924482618171
 20
42.3582924482617642
 10
15.9582924482618171
 20
58.0249591149284356
 10
16.2916257815951511
 20
58.0249591149284356
 10
16.2916257815951511
 20
42.0249591149284356
 97
        1
330
9F
 75
     0
 76
     1
 98
        0
  0
LWPOLYLINE
  5
A1
102
{ACAD_REACTORS
330
A2
102
}
100
AcDbEntity
  8
BUILDING_ENVELOPE
  6
CONTINUOUS
 62
     7
100
AcDbPolyline
 90
        4
 70
     1
 10
15.958292
 20
58.024959
 10
16.291626
 20
58.024959
 10
16.291626
 20
58.058292
 10
15.958292
 20
58.058292
  0
HATCH
  5
A2
102
{ACAD_REACTORS
330
9E
102
}
100
AcDbEntity
  8
BUILDING_ENVELOPE
 62
     7
100
AcDbHatch
 10
0.0
 20
0.0
 30
0.0
210
0.0
220
0.0
230
1.0
  2
SOLID
 70
     1
 71
     1
 91
        1
 92
        3
 72
     0
 73
     1
 93
        4
 10
15.9582924482618171
 20
58.0249591149284356
 10
16.2916257815951511
 20
58.0249591149284356
 10
16.2916257815951511
 20
58.058292448261767
 10
15.9582924482618171
 20
58.058292448261767
 97
        1
330
A1
 75
     0
 76
     1
 98
        0
  0
LINE
  5
A3
102
{ACAD_REACTORS
330
9E
102
}
100
AcDbEntity
  8
BUILDING_ENVELOPE
  6
CONTINUOUS
 62
     7
100
AcDbLine
 10
15.958292
 20
42.358292
 30
0.0
 11
15.958292
 21
58.024959
 31
0.0
  0
LINE
  5
A4
102
{ACAD_REACTORS
330
9E
102
}
100
AcDbEntity
  8
BUILDING_ENVELOPE
  6
CONTINUOUS
 62
     7
100
AcDbLine
 10
16.291626
 20
42.024959
 30
0.0
 11
16.291626
 21
58.024959
 31
0.0
  0
LWPOLYLINE
  5
A6
102
{ACAD_REACTORS
330
A7
102
}
100
AcDbEntity
  8
BUILDING_ENVELOPE
  6
CONTINUOUS
 62
     7
100
AcDbPolyline
 90
        4
 70
     1
 10
21.458292
 20
43.024959
 10
21.458292
 20
58.024959
 10
21.791626
 20
58.024959
 10
21.791626
 20
43.358292
  0
HATCH
  5
A7
102
{ACAD_REACTORS
330
A5
102
}
100
AcDbEntity
  8
BUILDING_ENVELOPE
 62
     7
100
AcDbHatch
 10
0.0
 20
0.0
 30
0.0
210
0.0
220
0.0
230
1.0
  2
SOLID
 70
     1
 71
     1
 91
        1
 92
        3
 72
     0
 73
     1
 93
        4
 10
21.4582924482618154
 20
43.0249591149284356
 10
21.4582924482618154
 20
58.0249591149284356
 10
21.7916257815951475
 20
58.0249591149284356
 10
21.7916257815951475
 20
43.3582924482617642
 97
        1
330
A6
 75
     0
 76
     1
 98
        0
  0
LWPOLYLINE
  5
A8
102
{ACAD_REACTORS
330
A9
102
}
100
AcDbEntity
  8
BUILDING_ENVELOPE
  6
CONTINUOUS
 62
     7
100
AcDbPolyline
 90
        4
 70
     1
 10
21.458292
 20
58.024959
 10
21.791626
 20
58.024959
 10
21.791626
 20
58.058292
 10
21.458292
 20
58.058292
  0
HATCH
  5
A9
102
{ACAD_REACTORS
330
A5
102
}
100
AcDbEntity
  8
BUILDING_ENVELOPE
 62
     7
100
AcDbHatch
 10
0.0
 20
0.0
 30
0.0
210
0.0
220
0.0
230
1.0
  2
SOLID
 70
     1
 71
     1
 91
        1
 92
        3
 72
     0
 73
     1
 93
        4
 10
21.4582924482618154
 20
58.0249591149284356
 10
21.7916257815951475
 20
58.0249591149284356
 10
21.7916257815951475
 20
58.058292448261767
 10
21.4582924482618154
 20
58.058292448261767
 97
        1
330
A8
 75
     0
 76
     1
 98
        0
  0
LINE
  5
AA
102
{ACAD_REACTORS
330
A5
102
}
100
AcDbEntity
  8
BUILDING_ENVELOPE
  6
CONTINUOUS
 62
     7
100
AcDbLine
 10
21.458292
 20
43.024959
 30
0.0
 11
21.458292
 21
58.024959
 31
0.0
  0
LINE
  5
AB
102
{ACAD_REACTORS
330
A5
102
}
100
AcDbEntity
  8
BUILDING_ENVELOPE
  6
CONTINUOUS
 62
     7
100
AcDbLine
 10
21.791626
 20
43.358292
 30
0.0
 11
21.791626
 21
58.024959
 31
0.0
  0
LWPOLYLINE
  5
AD
102
{ACAD_REACTORS
330
AE
102
}
100
AcDbEntity
  8
BUILDING_ENVELOPE
  6
CONTINUOUS
 62
     7
100
AcDbPolyline
 90
        4
 70
     1
 10
16.291626
 20
49.858292
 10
21.458292
 20
49.858292
 10
21.458292
 20
49.524959
 10
16.291626
 20
49.524959
  0
HATCH
  5
AE
102
{ACAD_REACTORS
330
AC
102
}
100
AcDbEntity
  8
BUILDING_ENVELOPE
 62
     7
100
AcDbHatch
 10
0.0
 20
0.0
 30
0.0
210
0.0
220
0.0
230
1.0
  2
SOLID
 70
     1
 71
     1
 91
        1
 92
        3
 72
     0
 73
     1
 93
        4
 10
16.2916257815951475
 20
49.85829244826175
 10
21.4582924482618189
 20
49.85829244826175
 10
21.4582924482618189
 20
49.5249591149284143
 10
16.2916257815951511
 20
49.5249591149284143
 97
        1
330
AD
 75
     0
 76
     1
 98
        0
  0
LWPOLYLINE
  5
AF
102
{ACAD_REACTORS
330
B0
102
}
100
AcDbEntity
  8
BUILDING_ENVELOPE
  6
CONTINUOUS
 62
     7
100
AcDbPolyline
 90
        4
 70
     1
 10
16.291626
 20
49.524959
 10
16.291626
 20
49.858292
 10
16.258292
 20
49.858292
 10
16.258292
 20
49.524959
  0
HATCH
  5
B0
102
{ACAD_REACTORS
330
AC
102
}
100
AcDbEntity
  8
BUILDING_ENVELOPE
 62
     7
100
AcDbHatch
 10
0.0
 20
0.0
 30
0.0
210
0.0
220
0.0
230
1.0
  2
SOLID
 70
     1
 71
     1
 91
        1
 92
        3
 72
     0
 73
     1
 93
        4
 10
16.2916257815951511
 20
49.5249591149284143
 10
16.2916257815951511
 20
49.85829244826175
 10
16.2582924482618161
 20
49.85829244826175
 10
16.2582924482618161
 20
49.5249591149284143
 97
        1
330
AF
 75
     0
 76
     1
 98
        0
  0
LWPOLYLINE
  5
B1
102
{ACAD_REACTORS
330
B2
102
}
100
AcDbEntity
  8
BUILDING_ENVELOPE
  6
CONTINUOUS
 62
     7
100
AcDbPolyline
 90
        4
 70
     1
 10
21.458292
 20
49.858292
 10
21.458292
 20
49.524959
 10
21.491626
 20
49.524959
 10
21.491626
 20
49.858292
  0
HATCH
  5
B2
102
{ACAD_REACTORS
330
AC
102
}
100
AcDbEntity
  8
BUILDING_ENVELOPE
 62
     7
100
AcDbHatch
 10
0.0
 20
0.0
 30
0.0
210
0.0
220
0.0
230
1.0
  2
SOLID
 70
     1
 71
     1
 91
        1
 92
        3
 72
     0
 73
     1
 93
        4
 10
21.4582924482618189
 20
49.85829244826175
 10
21.4582924482618189
 20
49.5249591149284143
 10
21.4916257815951504
 20
49.5249591149284143
 10
21.4916257815951504
 20
49.85829244826175
 97
        1
330
B1
 75
     0
 76
     1
 98
        0
  0
LINE
  5
B3
102
{ACAD_REACTORS
330
AC
102
}
100
AcDbEntity
  8
BUILDING_ENVELOPE
  6
CONTINUOUS
 62
     7
100
AcDbLine
 10
16.291626
 20
49.858292
 30
0.0
 11
21.458292
 21
49.858292
 31
0.0
  0
LINE
  5
B4
102
{ACAD_REACTORS
330
AC
102
}
100
AcDbEntity
  8
BUILDING_ENVELOPE
  6
CONTINUOUS
 62
     7
100
AcDbLine
 10
16.291626
 20
49.524959
 30
0.0
 11
21.458292
 21
49.524959
 31
0.0
  0
LWPOLYLINE
  5
B6
102
{ACAD_REACTORS
330
B7
102
}
100
AcDbEntity
  8
BUILDING_ENVELOPE
  6
CONTINUOUS
 62
     7
100
AcDbPolyline
 90
        4
 70
     1
 10
0.356904
 20
42.358292
 10
15.958292
 20
42.358292
 10
16.291626
 20
42.024959
 10
0.356904
 20
42.024959
  0
HATCH
  5
B7
102
{ACAD_REACTORS
330
B5
102
}
100
AcDbEntity
  8
BUILDING_ENVELOPE
 62
     7
100
AcDbHatch
 10
0.0
 20
0.0
 30
0.0
210
0.0
220
0.0
230
1.0
  2
SOLID
 70
     1
 71
     1
 91
        1
 92
        3
 72
     0
 73
     1
 93
        4
 10
0.356903559372896
 20
42.3582924482617642
 10
15.9582924482617905
 20
42.3582924482617642
 10
16.2916257815951155
 20
42.0249591149284356
 10
0.3569035593729002
 20
42.0249591149284356
 97
        1
330
B6
 75
     0
 76
     1
 98
        0
  0
LWPOLYLINE
  5
B8
102
{ACAD_REACTORS
330
B9
102
}
100
AcDbEntity
  8
BUILDING_ENVELOPE
  6
CONTINUOUS
 62
     7
100
AcDbPolyline
 90
        4
 70
     1
 10
0.356904
 20
42.024959
 10
0.356904
 20
42.358292
 10
0.32357
 20
42.358292
 10
0.32357
 20
42.024959
  0
HATCH
  5
B9
102
{ACAD_REACTORS
330
B5
102
}
100
AcDbEntity
  8
BUILDING_ENVELOPE
 62
     7
100
AcDbHatch
 10
0.0
 20
0.0
 30
0.0
210
0.0
220
0.0
230
1.0
  2
SOLID
 70
     1
 71
     1
 91
        1
 92
        3
 72
     0
 73
     1
 93
        4
 10
0.356903559372898
 20
42.0249591149284356
 10
0.356903559372898
 20
42.3582924482617642
 10
0.3235702260395648
 20
42.3582924482617642
 10
0.3235702260395648
 20
42.0249591149284356
 97
        1
330
B8
 75
     0
 76
     1
 98
        0
  0
LINE
  5
BA
102
{ACAD_REACTORS
330
B5
102
}
100
AcDbEntity
  8
BUILDING_ENVELOPE
  6
CONTINUOUS
 62
     7
100
AcDbLine
 10
0.356904
 20
42.358292
 30
0.0
 11
15.958292
 21
42.358292
 31
0.0
  0
LINE
  5
BB
102
{ACAD_REACTORS
330
B5
102
}
100
AcDbEntity
  8
BUILDING_ENVELOPE
  6
CONTINUOUS
 62
     7
100
AcDbLine
 10
0.356904
 20
42.024959
 30
0.0
 11
16.291626
 21
42.024959
 31
0.0
  0
LWPOLYLINE
  5
BD
102
{ACAD_REACTORS
330
BE
102
}
100
AcDbEntity
  8
BUILDING_ENVELOPE
  6
CONTINUOUS
 62
     7
100
AcDbPolyline
 90
        5
 70
     1
 10
21.791626
 20
43.358292
 10
30.291626
 20
43.358292
 10
30.291626
 20
43.191626
 10
30.291626
 20
43.024959
 10
21.458292
 20
43.024959
  0
HATCH
  5
BE
102
{ACAD_REACTORS
330
BC
102
}
100
AcDbEntity
  8
BUILDING_ENVELOPE
 62
     7
100
AcDbHatch
 10
0.0
 20
0.0
 30
0.0
210
0.0
220
0.0
230
1.0
  2
SOLID
 70
     1
 71
     1
 91
        1
 92
        3
 72
     0
 73
     1
 93
        5
 10
21.7916257815951155
 20
43.3582924482617642
 10
30.2916257815951155
 20
43.3582924482617642
 10
30.2916257815951155
 20
43.1916257815950999
 10
30.2916257815951155
 20
43.0249591149284356
 10
21.4582924482617798
 20
43.0249591149284356
 97
        1
330
BD
 75
     0
 76
     1
 98
        0
  0
LWPOLYLINE
  5
BF
102
{ACAD_REACTORS
330
BC
102
}
100
AcDbEntity
  8
BUILDING_ENVELOPE
  6
CONTINUOUS
 62
     7
100
AcDbPolyline
 90
        3
 70
     0
 10
21.791626
 20
43.358292
 10
30.291626
 20
43.358292
 10
30.291626
 20
43.191626
  0
LWPOLYLINE
  5
C0
102
{ACAD_REACTORS
330
BC
102
}
100
AcDbEntity
  8
BUILDING_ENVELOPE
  6
CONTINUOUS
 62
     7
100
AcDbPolyline
 90
        3
 70
     0
 10
21.458292
 20
43.024959
 10
30.291626
 20
43.024959
 10
30.291626
 20
43.191626
  0
LWPOLYLINE
  5
C2
102
{ACAD_REACTORS
330
C3
102
}
100
AcDbEntity
  8
BUILDING_ENVELOPE
  6
CONTINUOUS
 62
     7
100
AcDbPolyline
 90
        5
 70
     1
 10
0.356904
 20
25.858292
 10
15.291626
 20
25.858292
 10
15.291626
 20
25.691626
 10
15.291626
 20
25.524959
 10
0.356904
 20
25.524959
  0
HATCH
  5
C3
102
{ACAD_REACTORS
330
C1
102
}
100
AcDbEntity
  8
BUILDING_ENVELOPE
 62
     7
100
AcDbHatch
 10
0.0
 20
0.0
 30
0.0
210
0.0
220
0.0
230
1.0
  2
SOLID
 70
     1
 71
     1
 91
        1
 92
        3
 72
     0
 73
     1
 93
        5
 10
0.3569035593728909
 20
25.8582924482617678
 10
15.2916257815951191
 20
25.8582924482617678
 10
15.2916257815951191
 20
25.6916257815950999
 10
15.2916257815951191
 20
25.5249591149284356
 10
0.3569035593728955
 20
25.5249591149284356
 97
        1
330
C2
 75
     0
 76
     1
 98
        0
  0
LWPOLYLINE
  5
C4
102
{ACAD_REACTORS
330
C5
102
}
100
AcDbEntity
  8
BUILDING_ENVELOPE
  6
CONTINUOUS
 62
     7
100
AcDbPolyline
 90
        4
 70
     1
 10
0.356904
 20
25.524959
 10
0.356904
 20
25.858292
 10
0.32357
 20
25.858292
 10
0.32357
 20
25.524959
  0
HATCH
  5
C5
102
{ACAD_REACTORS
330
C1
102
}
100
AcDbEntity
  8
BUILDING_ENVELOPE
 62
     7
100
AcDbHatch
 10
0.0
 20
0.0
 30
0.0
210
0.0
220
0.0
230
1.0
  2
SOLID
 70
     1
 71
     1
 91
        1
 92
        3
 72
     0
 73
     1
 93
        4
 10
0.3569035593728931
 20
25.5249591149284356
 10
0.3569035593728931
 20
25.8582924482617678
 10
0.3235702260395599
 20
25.8582924482617678
 10
0.3235702260395599
 20
25.5249591149284356
 97
        1
330
C4
 75
     0
 76
     1
 98
        0
  0
LWPOLYLINE
  5
C6
102
{ACAD_REACTORS
330
C1
102
}
100
AcDbEntity
  8
BUILDING_ENVELOPE
  6
CONTINUOUS
 62
     7
100
AcDbPolyline
 90
        3
 70
     0
 10
0.356904
 20
25.858292
 10
15.291626
 20
25.858292
 10
15.291626
 20
25.691626
  0
LWPOLYLINE
  5
C7
102
{ACAD_REACTORS
330
C1
102
}
100
AcDbEntity
  8
BUILDING_ENVELOPE
  6
CONTINUOUS
 62
     7
100
AcDbPolyline
 90
        3
 70
     0
 10
0.356904
 20
25.524959
 10
15.291626
 20
25.524959
 10
15.291626
 20
25.691626
  0
LWPOLYLINE
  5
C9
102
{ACAD_REACTORS
330
CA
102
}
100
AcDbEntity
  8
BUILDING_ENVELOPE
  6
CONTINUOUS
 62
     7
100
AcDbPolyline
 90
        4
 70
     1
 10
15.624959
 20
31.024959
 10
15.624959
 20
9.524959
 10
15.291626
 20
9.858292
 10
15.291626
 20
31.358292
  0
HATCH
  5
CA
102
{ACAD_REACTORS
330
C8
102
}
100
AcDbEntity
  8
BUILDING_ENVELOPE
 62
     7
100
AcDbHatch
 10
0.0
 20
0.0
 30
0.0
210
0.0
220
0.0
230
1.0
  2
SOLID
 70
     1
 71
     1
 91
        1
 92
        3
 72
     0
 73
     1
 93
        4
 10
15.6249591149284477
 20
31.0249591149284356
 10
15.6249591149284477
 20
9.5249591149284356
 10
15.2916257815951155
 20
9.8582924482617678
 10
15.2916257815951155
 20
31.3582924482617678
 97
        1
330
C9
 75
     0
 76
     1
 98
        0
  0
LINE
  5
CB
102
{ACAD_REACTORS
330
C8
102
}
100
AcDbEntity
  8
BUILDING_ENVELOPE
  6
CONTINUOUS
 62
     7
100
AcDbLine
 10
15.624959
 20
31.024959
 30
0.0
 11
15.624959
 21
9.524959
 31
0.0
  0
LINE
  5
CC
102
{ACAD_REACTORS
330
C8
102
}
100
AcDbEntity
  8
BUILDING_ENVELOPE
  6
CONTINUOUS
 62
     7
100
AcDbLine
 10
15.291626
 20
31.358292
 30
0.0
 11
15.291626
 21
9.858292
 31
0.0
  0
LWPOLYLINE
  5
CE
102
{ACAD_REACTORS
330
CF
102
}
100
AcDbEntity
  8
BUILDING_ENVELOPE
  6
CONTINUOUS
 62
     7
100
AcDbPolyline
 90
        4
 70
     1
 10
0.356904
 20
9.858292
 10
15.291626
 20
9.858292
 10
15.624959
 20
9.524959
 10
0.356904
 20
9.524959
  0
HATCH
  5
CF
102
{ACAD_REACTORS
330
CD
102
}
100
AcDbEntity
  8
BUILDING_ENVELOPE
 62
     7
100
AcDbHatch
 10
0.0
 20
0.0
 30
0.0
210
0.0
220
0.0
230
1.0
  2
SOLID
 70
     1
 71
     1
 91
        1
 92
        3
 72
     0
 73
     1
 93
        4
 10
0.3569035593728838
 20
9.858292448261766
 10
15.2916257815951226
 20
9.858292448261766
 10
15.6249591149284548
 20
9.5249591149284321
 10
0.3569035593728884
 20
9.5249591149284321
 97
        1
330
CE
 75
     0
 76
     1
 98
        0
  0
LWPOLYLINE
  5
D0
102
{ACAD_REACTORS
330
D1
102
}
100
AcDbEntity
  8
BUILDING_ENVELOPE
  6
CONTINUOUS
 62
     7
100
AcDbPolyline
 90
        4
 70
     1
 10
0.356904
 20
9.524959
 10
0.356904
 20
9.858292
 10
0.32357
 20
9.858292
 10
0.32357
 20
9.524959
  0
HATCH
  5
D1
102
{ACAD_REACTORS
330
CD
102
}
100
AcDbEntity
  8
BUILDING_ENVELOPE
 62
     7
100
AcDbHatch
 10
0.0
 20
0.0
 30
0.0
210
0.0
220
0.0
230
1.0
  2
SOLID
 70
     1
 71
     1
 91
        1
 92
        3
 72
     0
 73
     1
 93
        4
 10
0.356903559372886
 20
9.5249591149284321
 10
0.356903559372886
 20
9.858292448261766
 10
0.3235702260395528
 20
9.858292448261766
 10
0.3235702260395528
 20
9.5249591149284321
 97
        1
330
D0
 75
     0
 76
     1
 98
        0
  0
LINE
  5
D2
102
{ACAD_REACTORS
330
CD
102
}
100
AcDbEntity
  8
BUILDING_ENVELOPE
  6
CONTINUOUS
 62
     7
100
AcDbLine
 10
0.356904
 20
9.858292
 30
0.0
 11
15.291626
 21
9.858292
 31
0.0
  0
LINE
  5
D3
102
{ACAD_REACTORS
330
CD
102
}
100
AcDbEntity
  8
BUILDING_ENVELOPE
  6
CONTINUOUS
 62
     7
100
AcDbLine
 10
0.356904
 20
9.524959
 30
0.0
 11
15.624959
 21
9.524959
 31
0.0
  0
LWPOLYLINE
  5
D5
102
{ACAD_REACTORS
330
D6
102
}
100
AcDbEntity
  8
BUILDING_ENVELOPE
  6
CONTINUOUS
 62
     7
100
AcDbPolyline
 90
        4
 70
     1
 10
21.791626
 20
19.608292
 10
29.958292
 20
19.608292
 10
30.291626
 20
19.274959
 10
22.124959
 20
19.274959
  0
HATCH
  5
D6
102
{ACAD_REACTORS
330
D4
102
}
100
AcDbEntity
  8
BUILDING_ENVELOPE
 62
     7
100
AcDbHatch
 10
0.0
 20
0.0
 30
0.0
210
0.0
220
0.0
230
1.0
  2
SOLID
 70
     1
 71
     1
 91
        1
 92
        3
 72
     0
 73
     1
 93
        4
 10
21.7916257815951155
 20
19.6082924482617642
 10
29.9582924482617798
 20
19.6082924482617642
 10
30.2916257815951155
 20
19.2749591149284321
 10
22.1249591149284477
 20
19.2749591149284321
 97
        1
330
D5
 75
     0
 76
     1
 98
        0
  0
LINE
  5
D7
102
{ACAD_REACTORS
330
D4
102
}
100
AcDbEntity
  8
BUILDING_ENVELOPE
  6
CONTINUOUS
 62
     7
100
AcDbLine
 10
21.791626
 20
19.608292
 30
0.0
 11
29.958292
 21
19.608292
 31
0.0
  0
LINE
  5
D8
102
{ACAD_REACTORS
330
D4
102
}
100
AcDbEntity
  8
BUILDING_ENVELOPE
  6
CONTINUOUS
 62
     7
100
AcDbLine
 10
22.124959
 20
19.274959
 30
0.0
 11
30.291626
 21
19.274959
 31
0.0
  0
LWPOLYLINE
  5
DA
102
{ACAD_REACTORS
330
DB
102
}
100
AcDbEntity
  8
BUILDING_ENVELOPE
  6
CONTINUOUS
 62
     7
100
AcDbPolyline
 90
        4
 70
     1
 10
24.124959
 20
22.774771
 10
26.624959
 20
22.774771
 10
26.291626
 20
22.441437
 10
23.791626
 20
22.441437
  0
HATCH
  5
DB
102
{ACAD_REACTORS
330
D9
102
}
100
AcDbEntity
  8
BUILDING_ENVELOPE
 62
     7
100
AcDbHatch
 10
0.0
 20
0.0
 30
0.0
210
0.0
220
0.0
230
1.0
  2
SOLID
 70
     1
 71
     1
 91
        1
 92
        3
 72
     0
 73
     1
 93
        4
 10
24.1249591149284441
 20
22.7747706714907565
 10
26.6249591149284441
 20
22.7747706714907565
 10
26.2916257815951155
 20
22.4414373381574208
 10
23.7916257815951155
 20
22.4414373381574208
 97
        1
330
DA
 75
     0
 76
     1
 98
        0
  0
LINE
  5
DC
102
{ACAD_REACTORS
330
D9
102
}
100
AcDbEntity
  8
BUILDING_ENVELOPE
  6
CONTINUOUS
 62
     7
100
AcDbLine
 10
24.124959
 20
22.774771
 30
0.0
 11
26.624959
 21
22.774771
 31
0.0
  0
LINE
  5
DD
102
{ACAD_REACTORS
330
D9
102
}
100
AcDbEntity
  8
BUILDING_ENVELOPE
  6
CONTINUOUS
 62
     7
100
AcDbLine
 10
23.791626
 20
22.441437
 30
0.0
 11
26.291626
 21
22.441437
 31
0.0
  0
LWPOLYLINE
  5
DF
102
{ACAD_REACTORS
330
E0
102
}
100
AcDbEntity
  8
BUILDING_ENVELOPE
  6
CONTINUOUS
 62
     7
100
AcDbPolyline
 90
        4
 70
     1
 10
29.958292
 20
19.608292
 10
29.958292
 20
58.024959
 10
30.291626
 20
58.358292
 10
30.291626
 20
19.274959
  0
HATCH
  5
E0
102
{ACAD_REACTORS
330
DE
102
}
100
AcDbEntity
  8
BUILDING_ENVELOPE
 62
     7
100
AcDbHatch
 10
0.0
 20
0.0
 30
0.0
210
0.0
220
0.0
230
1.0
  2
SOLID
 70
     1
 71
     1
 91
        1
 92
        3
 72
     0
 73
     1
 93
        4
 10
29.9582924482617798
 20
19.6082924482617642
 10
29.9582924482617798
 20
58.0249591149284356
 10
30.2916257815951155
 20
58.3582924482617642
 10
30.2916257815951155
 20
19.2749591149284356
 97
        1
330
DF
 75
     0
 76
     1
 98
        0
  0
LINE
  5
E1
102
{ACAD_REACTORS
330
DE
102
}
100
AcDbEntity
  8
BUILDING_ENVELOPE
  6
CONTINUOUS
 62
     7
100
AcDbLine
 10
29.958292
 20
19.608292
 30
0.0
 11
29.958292
 21
58.024959
 31
0.0
  0
LINE
  5
E2
102
{ACAD_REACTORS
330
DE
102
}
100
AcDbEntity
  8
BUILDING_ENVELOPE
  6
CONTINUOUS
 62
     7
100
AcDbLine
 10
30.291626
 20
19.274959
 30
0.0
 11
30.291626
 21
58.358292
 31
0.0
  0
LWPOLYLINE
  5
E3
102
{ACAD_REACTORS
330
E4
102
}
100
AcDbEntity
  8
BUILDING_ENVELOPE
  6
CONTINUOUS
 62
   252
100
AcDbPolyline
 90
        4
 70
     1
 10
29.247081
 20
40.120943
 10
29.673808
 20
40.120943
 10
29.247081
 20
40.974396
 10
28.820355
 20
40.120943
  0
HATCH
  5
E4
102
{ACAD_REACTORS
330
DE
102
}
100
AcDbEntity
  8
BUILDING_ENVELOPE
 62
   253
100
AcDbHatch
 10
0.0
 20
0.0
 30
0.0
210
0.0
220
0.0
230
1.0
  2
SOLID
 70
     1
 71
     1
 91
        1
 92
        3
 72
     0
 73
     1
 93
        4
 10
29.2470813371506679
 20
40.1209431384117678
 10
29.6738080038173351
 20
40.1209431384117678
 10
29.2470813371506679
 20
40.974396471745095
 10
28.8203546704840008
 20
40.1209431384117678
 97
        1
330
E3
 75
     0
 76
     1
 98
        0
  0
MTEXT
  5
E5
100
AcDbEntity
  8
BUILDING_ENVELOPE
100
AcDbMText
 10
29.247081
 20
38.649959
 30
0.0
 40
0.75
 41
2.701262
 71
     5
 72
     5
  1
\C7;\fCalibri|b0|i0|;\H0.75;38'-9"
 11
0.0
 21
1.0
 31
0.0
  0
LWPOLYLINE
  5
E7
102
{ACAD_REACTORS
330
E8
102
}
100
AcDbEntity
  8
BUILDING_ENVELOPE
  6
CONTINUOUS
 62
     7
100
AcDbPolyline
 90
        5
 70
     1
 10
21.458292
 20
31.358292
 10
21.458292
 20
43.524959
 10
21.624959
 20
43.524959
 10
21.791626
 20
43.524959
 10
21.791626
 20
31.024959
  0
HATCH
  5
E8
102
{ACAD_REACTORS
330
E6
102
}
100
AcDbEntity
  8
BUILDING_ENVELOPE
 62
     7
100
AcDbHatch
 10
0.0
 20
0.0
 30
0.0
210
0.0
220
0.0
230
1.0
  2
SOLID
 70
     1
 71
     1
 91
        1
 92
        3
 72
     0
 73
     1
 93
        5
 10
21.4582924482617798
 20
31.3582924482617642
 10
21.4582924482617798
 20
43.5249591149284356
 10
21.6249591149284477
 20
43.5249591149284356
 10
21.7916257815951155
 20
43.5249591149284356
 10
21.7916257815951155
 20
31.0249591149284356
 97
        1
330
E7
 75
     0
 76
     1
 98
        0
  0
LWPOLYLINE
  5
E9
102
{ACAD_REACTORS
330
E6
102
}
100
AcDbEntity
  8
BUILDING_ENVELOPE
  6
CONTINUOUS
 62
     7
100
AcDbPolyline
 90
        3
 70
     0
 10
21.458292
 20
31.358292
 10
21.458292
 20
43.524959
 10
21.624959
 20
43.524959
  0
LWPOLYLINE
  5
EA
102
{ACAD_REACTORS
330
E6
102
}
100
AcDbEntity
  8
BUILDING_ENVELOPE
  6
CONTINUOUS
 62
     7
100
AcDbPolyline
 90
        3
 70
     0
 10
21.791626
 20
31.024959
 10
21.791626
 20
43.524959
 10
21.624959
 20
43.524959
  0
LWPOLYLINE
  5
EC
102
{ACAD_REACTORS
330
ED
102
}
100
AcDbEntity
  8
BUILDING_ENVELOPE
  6
CONTINUOUS
 62
     7
100
AcDbPolyline
 90
        5
 70
     1
 10
21.791626
 20
31.358292
 10
29.958292
 20
31.358292
 10
29.958292
 20
31.024959
 10
21.791626
 20
31.024959
 10
21.791626
 20
31.191626
  0
HATCH
  5
ED
102
{ACAD_REACTORS
330
EB
102
}
100
AcDbEntity
  8
BUILDING_ENVELOPE
 62
     7
100
AcDbHatch
 10
0.0
 20
0.0
 30
0.0
210
0.0
220
0.0
230
1.0
  2
SOLID
 70
     1
 71
     1
 91
        1
 92
        3
 72
     0
 73
     1
 93
        5
 10
21.7916257815951155
 20
31.3582924482617678
 10
29.9582924482617798
 20
31.3582924482617678
 10
29.9582924482617798
 20
31.0249591149284356
 10
21.7916257815951155
 20
31.0249591149284356
 10
21.7916257815951155
 20
31.1916257815950999
 97
        1
330
EC
 75
     0
 76
     1
 98
        0
  0
LWPOLYLINE
  5
EE
102
{ACAD_REACTORS
330
EF
102
}
100
AcDbEntity
  8
BUILDING_ENVELOPE
  6
CONTINUOUS
 62
     7
100
AcDbPolyline
 90
        4
 70
     1
 10
29.958292
 20
31.358292
 10
29.958292
 20
31.024959
 10
29.991626
 20
31.024959
 10
29.991626
 20
31.358292
  0
HATCH
  5
EF
102
{ACAD_REACTORS
330
EB
102
}
100
AcDbEntity
  8
BUILDING_ENVELOPE
 62
     7
100
AcDbHatch
 10
0.0
 20
0.0
 30
0.0
210
0.0
220
0.0
230
1.0
  2
SOLID
 70
     1
 71
     1
 91
        1
 92
        3
 72
     0
 73
     1
 93
        4
 10
29.9582924482617798
 20
31.3582924482617678
 10
29.9582924482617798
 20
31.0249591149284356
 10
29.9916257815951113
 20
31.0249591149284356
 10
29.9916257815951113
 20
31.3582924482617678
 97
        1
330
EE
 75
     0
 76
     1
 98
        0
  0
LWPOLYLINE
  5
F0
102
{ACAD_REACTORS
330
EB
102
}
100
AcDbEntity
  8
BUILDING_ENVELOPE
  6
CONTINUOUS
 62
     7
100
AcDbPolyline
 90
        3
 70
     0
 10
21.791626
 20
31.191626
 10
21.791626
 20
31.358292
 10
29.958292
 20
31.358292
  0
LWPOLYLINE
  5
F1
102
{ACAD_REACTORS
330
EB
102
}
100
AcDbEntity
  8
BUILDING_ENVELOPE
  6
CONTINUOUS
 62
     7
100
AcDbPolyline
 90
        3
 70
     0
 10
21.791626
 20
31.191626
 10
21.791626
 20
31.024959
 10
29.958292
 20
31.024959
  0
LWPOLYLINE
  5
F3
102
{ACAD_REACTORS
330
F4
102
}
100
AcDbEntity
  8
BUILDING_ENVELOPE
  6
CONTINUOUS
 62
     7
100
AcDbPolyline
 90
        4
 70
     1
 10
24.124959
 20
31.024959
 10
24.124959
 20
22.774771
 10
23.791626
 20
22.441437
 10
23.791626
 20
31.024959
  0
HATCH
  5
F4
102
{ACAD_REACTORS
330
F2
102
}
100
AcDbEntity
  8
BUILDING_ENVELOPE
 62
     7
100
AcDbHatch
 10
0.0
 20
0.0
 30
0.0
210
0.0
220
0.0
230
1.0
  2
SOLID
 70
     1
 71
     1
 91
        1
 92
        3
 72
     0
 73
     1
 93
        4
 10
24.1249591149284583
 20
31.0249591149284392
 10
24.1249591149284583
 20
22.7747706714907636
 10
23.7916257815951226
 20
22.4414373381574315
 10
23.7916257815951226
 20
31.0249591149284392
 97
        1
330
F3
 75
     0
 76
     1
 98
        0
  0
LWPOLYLINE
  5
F5
102
{ACAD_REACTORS
330
F6
102
}
100
AcDbEntity
  8
BUILDING_ENVELOPE
  6
CONTINUOUS
 62
     7
100
AcDbPolyline
 90
        4
 70
     1
 10
23.791626
 20
31.024959
 10
24.124959
 20
31.024959
 10
24.124959
 20
31.058292
 10
23.791626
 20
31.058292
  0
HATCH
  5
F6
102
{ACAD_REACTORS
330
F2
102
}
100
AcDbEntity
  8
BUILDING_ENVELOPE
 62
     7
100
AcDbHatch
 10
0.0
 20
0.0
 30
0.0
210
0.0
220
0.0
230
1.0
  2
SOLID
 70
     1
 71
     1
 91
        1
 92
        3
 72
     0
 73
     1
 93
        4
 10
23.7916257815951226
 20
31.0249591149284392
 10
24.1249591149284583
 20
31.0249591149284392
 10
24.1249591149284583
 20
31.0582924482617706
 10
23.7916257815951226
 20
31.0582924482617706
 97
        1
330
F5
 75
     0
 76
     1
 98
        0
  0
LINE
  5
F7
102
{ACAD_REACTORS
330
F2
102
}
100
AcDbEntity
  8
BUILDING_ENVELOPE
  6
CONTINUOUS
 62
     7
100
AcDbLine
 10
24.124959
 20
31.024959
 30
0.0
 11
24.124959
 21
22.774771
 31
0.0
  0
LINE
  5
F8
102
{ACAD_REACTORS
330
F2
102
}
100
AcDbEntity
  8
BUILDING_ENVELOPE
  6
CONTINUOUS
 62
     7
100
AcDbLine
 10
23.791626
 20
31.024959
 30
0.0
 11
23.791626
 21
22.441437
 31
0.0
  0
LWPOLYLINE
  5
FA
102
{ACAD_REACTORS
330
FB
102
}
100
AcDbEntity
  8
BUILDING_ENVELOPE
  6
CONTINUOUS
 62
     7
100
AcDbPolyline
 90
        5
 70
     1
 10
26.624959
 20
22.774771
 10
26.624959
 20
19.274959
 10
26.458292
 20
19.274959
 10
26.291626
 20
19.274959
 10
26.291626
 20
22.441437
  0
HATCH
  5
FB
102
{ACAD_REACTORS
330
F9
102
}
100
AcDbEntity
  8
BUILDING_ENVELOPE
 62
     7
100
AcDbHatch
 10
0.0
 20
0.0
 30
0.0
210
0.0
220
0.0
230
1.0
  2
SOLID
 70
     1
 71
     1
 91
        1
 92
        3
 72
     0
 73
     1
 93
        5
 10
26.6249591149284477
 20
22.7747706714907601
 10
26.6249591149284477
 20
19.2749591149284356
 10
26.4582924482617798
 20
19.2749591149284356
 10
26.2916257815951155
 20
19.2749591149284356
 10
26.2916257815951155
 20
22.4414373381574279
 97
        1
330
FA
 75
     0
 76
     1
 98
        0
  0
LWPOLYLINE
  5
FC
102
{ACAD_REACTORS
330
F9
102
}
100
AcDbEntity
  8
BUILDING_ENVELOPE
  6
CONTINUOUS
 62
     7
100
AcDbPolyline
 90
        3
 70
     0
 10
26.624959
 20
22.774771
 10
26.624959
 20
19.274959
 10
26.458292
 20
19.274959
  0
LWPOLYLINE
  5
FD
102
{ACAD_REACTORS
330
F9
102
}
100
AcDbEntity
  8
BUILDING_ENVELOPE
  6
CONTINUOUS
 62
     7
100
AcDbPolyline
 90
        3
 70
     0
 10
26.291626
 20
22.441437
 10
26.291626
 20
19.274959
 10
26.458292
 20
19.274959
  0
LWPOLYLINE
  5
FF
102
{ACAD_REACTORS
330
100
102
}
100
AcDbEntity
  8
BUILDING_ENVELOPE
  6
CONTINUOUS
 62
     7
100
AcDbPolyline
 90
        4
 70
     1
 10
22.124959
 20
19.274959
 10
22.124959
 20
15.024959
 10
21.791626
 20
15.358292
 10
21.791626
 20
19.608292
  0
HATCH
  5
100
102
{ACAD_REACTORS
330
FE
102
}
100
AcDbEntity
  8
BUILDING_ENVELOPE
 62
     7
100
AcDbHatch
 10
0.0
 20
0.0
 30
0.0
210
0.0
220
0.0
230
1.0
  2
SOLID
 70
     1
 71
     1
 91
        1
 92
        3
 72
     0
 73
     1
 93
        4
 10
22.1249591149284477
 20
19.2749591149284356
 10
22.1249591149284477
 20
15.0249591149284374
 10
21.7916257815951155
 20
15.358292448261766
 10
21.7916257815951155
 20
19.6082924482617642
 97
        1
330
FF
 75
     0
 76
     1
 98
        0
  0
LINE
  5
101
102
{ACAD_REACTORS
330
FE
102
}
100
AcDbEntity
  8
BUILDING_ENVELOPE
  6
CONTINUOUS
 62
     7
100
AcDbLine
 10
22.124959
 20
19.274959
 30
0.0
 11
22.124959
 21
15.024959
 31
0.0
  0
LINE
  5
102
102
{ACAD_REACTORS
330
FE
102
}
100
AcDbEntity
  8
BUILDING_ENVELOPE
  6
CONTINUOUS
 62
     7
100
AcDbLine
 10
21.791626
 20
19.608292
 30
0.0
 11
21.791626
 21
15.358292
 31
0.0
  0
LWPOLYLINE
  5
104
102
{ACAD_REACTORS
330
105
102
}
100
AcDbEntity
  8
BUILDING_ENVELOPE
  6
CONTINUOUS
 62
     7
100
AcDbPolyline
 90
        4
 70
     1
 10
15.624959
 20
15.358292
 10
21.791626
 20
15.358292
 10
22.124959
 20
15.024959
 10
15.624959
 20
15.024959
  0
HATCH
  5
105
102
{ACAD_REACTORS
330
103
102
}
100
AcDbEntity
  8
BUILDING_ENVELOPE
 62
     7
100
AcDbHatch
 10
0.0
 20
0.0
 30
0.0
210
0.0
220
0.0
230
1.0
  2
SOLID
 70
     1
 71
     1
 91
        1
 92
        3
 72
     0
 73
     1
 93
        4
 10
15.6249591149284459
 20
15.35829244826175
 10
21.7916257815951155
 20
15.35829244826175
 10
22.1249591149284477
 20
15.0249591149284161
 10
15.6249591149284477
 20
15.0249591149284161
 97
        1
330
104
 75
     0
 76
     1
 98
        0
  0
LWPOLYLINE
  5
106
102
{ACAD_REACTORS
330
107
102
}
100
AcDbEntity
  8
BUILDING_ENVELOPE
  6
CONTINUOUS
 62
     7
100
AcDbPolyline
 90
        4
 70
     1
 10
15.624959
 20
15.024959
 10
15.624959
 20
15.358292
 10
15.591626
 20
15.358292
 10
15.591626
 20
15.024959
  0
HATCH
  5
107
102
{ACAD_REACTORS
330
103
102
}
100
AcDbEntity
  8
BUILDING_ENVELOPE
 62
     7
100
AcDbHatch
 10
0.0
 20
0.0
 30
0.0
210
0.0
220
0.0
230
1.0
  2
SOLID
 70
     1
 71
     1
 91
        1
 92
        3
 72
     0
 73
     1
 93
        4
 10
15.6249591149284477
 20
15.0249591149284161
 10
15.6249591149284477
 20
15.35829244826175
 10
15.5916257815951145
 20
15.35829244826175
 10
15.5916257815951145
 20
15.0249591149284161
 97
        1
330
106
 75
     0
 76
     1
 98
        0
  0
LINE
  5
108
102
{ACAD_REACTORS
330
103
102
}
100
AcDbEntity
  8
BUILDING_ENVELOPE
  6
CONTINUOUS
 62
     7
100
AcDbLine
 10
15.624959
 20
15.358292
 30
0.0
 11
21.791626
 21
15.358292
 31
0.0
  0
LINE
  5
109
102
{ACAD_REACTORS
330
103
102
}
100
AcDbEntity
  8
BUILDING_ENVELOPE
  6
CONTINUOUS
 62
     7
100
AcDbLine
 10
15.624959
 20
15.024959
 30
0.0
 11
22.124959
 21
15.024959
 31
0.0
  0
LWPOLYLINE
  5
10B
102
{ACAD_REACTORS
330
10C
102
}
100
AcDbEntity
  8
BUILDING_ENVELOPE
  6
CONTINUOUS
 62
     7
100
AcDbPolyline
 90
        4
 70
     1
 10
15.291626
 20
31.358292
 10
21.458292
 20
31.358292
 10
21.791626
 20
31.024959
 10
15.624959
 20
31.024959
  0
HATCH
  5
10C
102
{ACAD_REACTORS
330
10A
102
}
100
AcDbEntity
  8
BUILDING_ENVELOPE
 62
     7
100
AcDbHatch
 10
0.0
 20
0.0
 30
0.0
210
0.0
220
0.0
230
1.0
  2
SOLID
 70
     1
 71
     1
 91
        1
 92
        3
 72
     0
 73
     1
 93
        4
 10
15.291625781595112
 20
31.3582924482617678
 10
21.4582924482617798
 20
31.3582924482617678
 10
21.7916257815951155
 20
31.0249591149284356
 10
15.6249591149284477
 20
31.0249591149284356
 97
        1
330
10B
 75
     0
 76
     1
 98
        0
  0
LINE
  5
10D
102
{ACAD_REACTORS
330
10A
102
}
100
AcDbEntity
  8
BUILDING_ENVELOPE
  6
CONTINUOUS
 62
     7
100
AcDbLine
 10
15.291626
 20
31.358292
 30
0.0
 11
21.458292
 21
31.358292
 31
0.0
  0
LINE
  5
10E
102
{ACAD_REACTORS
330
10A
102
}
100
AcDbEntity
  8
BUILDING_ENVELOPE
  6
CONTINUOUS
 62
     7
100
AcDbLine
 10
15.624959
 20
31.024959
 30
0.0
 11
21.791626
 21
31.024959
 31
0.0
  0
LINE
  5
111
102
{ACAD_REACTORS
330
115
102
}
100
AcDbEntity
  8
SPACE
  6
CONTINUOUS
100
AcDbLine
 10
15.291626
 20
9.858292
 30
0.0
 11
15.291626
 21
25.524959
 31
0.0
  0
LINE
  5
112
102
{ACAD_REACTORS
330
115
102
}
100
AcDbEntity
  8
SPACE
  6
CONTINUOUS
100
AcDbLine
 10
15.291626
 20
25.524959
 30
0.0
 11
0.356904
 21
25.524959
 31
0.0
  0
LINE
  5
113
102
{ACAD_REACTORS
330
115
102
}
100
AcDbEntity
  8
SPACE
  6
CONTINUOUS
100
AcDbLine
 10
0.356904
 20
25.524959
 30
0.0
 11
0.356904
 21
9.858292
 31
0.0
  0
LINE
  5
114
102
{ACAD_REACTORS
330
115
102
}
100
AcDbEntity
  8
SPACE
  6
CONTINUOUS
100
AcDbLine
 10
0.356904
 20
9.858292
 30
0.0
 11
15.291625
 21
9.858292
 31
0.0
  0
HATCH
  5
115
102
{ACAD_REACTORS
330
10F
102
}
100
AcDbEntity
  8
SPACE
 62
    94
100
AcDbHatch
 10
0.0
 20
0.0
 30
0.0
210
0.0
220
0.0
230
1.0
  2
SOLID
 70
     1
 71
     1
 91
        1
 92
        1
 93
        5
 72
     1
 10
15.2916257815951475
 20
9.858292448261766
 11
15.2916257815951475
 21
25.5249591149284356
 72
     1
 10
15.2916257815951475
 20
25.5249591149284356
 11
0.3569035593728979
 21
25.5249591149284356
 72
     1
 10
0.3569035593728979
 20
25.5249591149284356
 11
0.3569035593728979
 21
9.858292448261766
 72
     1
 10
0.3569035593728979
 20
9.858292448261766
 11
15.2916251881977132
 21
9.858292448261766
 72
     1
 10
15.2916251881977132
 20
9.858292448261766
 11
15.2916257815951475
 21
9.858292448261766
 97
        4
330
111
330
112
330
113
330
114
 75
     0
 76
     1
 98
        0
  0
MTEXT
  5
116
100
AcDbEntity
  8
SPACE
100
AcDbMText
 10
7.824265
 20
20.332658
 30
0.0
 40
0.500004
 41
4.599277
 71
     5
 72
     5
  1
\C7;\fCalibri|b0|i0|;\H0.50000381469727;Drawing Room\P234 sq ft\P\P
  0
LWPOLYLINE
  5
118
102
{ACAD_REACTORS
330
11E
102
}
100
AcDbEntity
  8
BUILDING_ENVELOPE
  6
CONTINUOUS
 62
     7
100
AcDbPolyline
 90
        4
 70
     1
 10
15.632959
 20
20.999597
 10
15.632959
 20
25.050321
 10
15.283626
 20
25.050321
 10
15.283626
 20
20.999597
  0
LINE
  5
119
102
{ACAD_REACTORS
330
11E
102
}
100
AcDbEntity
  8
BUILDING_ENVELOPE
  6
CONTINUOUS
 62
     7
100
AcDbLine
 10
15.624959
 20
25.050321
 30
0.0
 11
15.291626
 21
25.050321
 31
0.0
  0
LINE
  5
11A
102
{ACAD_REACTORS
330
11E
102
}
100
AcDbEntity
  8
BUILDING_ENVELOPE
  6
CONTINUOUS
 62
     7
100
AcDbLine
 10
15.291626
 20
25.050321
 30
0.0
 11
15.291626
 21
24.883655
 31
0.0
  0
LINE
  5
11B
102
{ACAD_REACTORS
330
11E
102
}
100
AcDbEntity
  8
BUILDING_ENVELOPE
  6
CONTINUOUS
 62
     7
100
AcDbLine
 10
15.291626
 20
24.883655
 30
0.0
 11
15.416626
 21
24.883655
 31
0.0
  0
LINE
  5
11C
102
{ACAD_REACTORS
330
11E
102
}
100
AcDbEntity
  8
BUILDING_ENVELOPE
  6
CONTINUOUS
 62
     7
100
AcDbLine
 10
15.541626
 20
24.883655
 30
0.0
 11
15.624959
 21
24.883655
 31
0.0
  0
LINE
  5
11D
102
{ACAD_REACTORS
330
11E
102
}
100
AcDbEntity
  8
BUILDING_ENVELOPE
  6
CONTINUOUS
 62
     7
100
AcDbLine
 10
15.624959
 20
24.883655
 30
0.0
 11
15.624959
 21
25.050321
 31
0.0
  0
HATCH
  5
11E
102
{ACAD_REACTORS
330
117
102
}
100
AcDbEntity
  8
BUILDING_ENVELOPE
 62
     7
100
AcDbHatch
 10
0.0
 20
0.0
 30
0.0
210
0.0
220
0.0
230
1.0
  2
SOLID
 70
     1
 71
     1
 91
        2
 92
        1
 93
        6
 72
     1
 10
15.6249591149284477
 20
25.0503214463885939
 11
15.2916257815951155
 21
25.0503214463885939
 72
     1
 10
15.2916257815951155
 20
25.0503214463885939
 11
15.2916257815951155
 21
24.8836547797219261
 72
     1
 10
15.2916257815951155
 20
24.8836547797219261
 11
15.4166257815951155
 21
24.8836547797219261
 72
     1
 10
15.4166257815951155
 20
24.8836547797219261
 11
15.5416257815951155
 21
24.8836547797219261
 72
     1
 10
15.5416257815951155
 20
24.8836547797219261
 11
15.6249591149284477
 21
24.8836547797219261
 72
     1
 10
15.6249591149284477
 20
24.8836547797219261
 11
15.6249591149284477
 21
25.0503214463885939
 97
        6
330
118
330
119
330
11A
330
11B
330
11C
330
11D
 92
        1
 93
        6
 72
     1
 10
15.6249591149284477
 20
20.9995967834685011
 11
15.2916257815951155
 21
20.9995967834685011
 72
     1
 10
15.2916257815951155
 20
20.9995967834685011
 11
15.2916257815951155
 21
21.166263450135169
 72
     1
 10
15.2916257815951155
 20
21.166263450135169
 11
15.4166257815951155
 21
21.166263450135169
 72
     1
 10
15.4166257815951155
 20
21.166263450135169
 11
15.5416257815951155
 21
21.166263450135169
 72
     1
 10
15.5416257815951155
 20
21.166263450135169
 11
15.6249591149284477
 21
21.166263450135169
 72
     1
 10
15.6249591149284477
 20
21.166263450135169
 11
15.6249591149284477
 21
20.9995967834685011
 97
        5
330
11F
330
120
330
121
330
122
330
123
 75
     0
 76
     1
 98
        0
  0
LINE
  5
11F
102
{ACAD_REACTORS
330
11E
102
}
100
AcDbEntity
  8
BUILDING_ENVELOPE
  6
CONTINUOUS
 62
     7
100
AcDbLine
 10
15.624959
 20
20.999597
 30
0.0
 11
15.291626
 21
20.999597
 31
0.0
  0
LINE
  5
120
102
{ACAD_REACTORS
330
11E
102
}
100
AcDbEntity
  8
BUILDING_ENVELOPE
  6
CONTINUOUS
 62
     7
100
AcDbLine
 10
15.291626
 20
20.999597
 30
0.0
 11
15.291626
 21
21.166263
 31
0.0
  0
LINE
  5
121
102
{ACAD_REACTORS
330
11E
102
}
100
AcDbEntity
  8
BUILDING_ENVELOPE
  6
CONTINUOUS
 62
     7
100
AcDbLine
 10
15.291626
 20
21.166263
 30
0.0
 11
15.416626
 21
21.166263
 31
0.0
  0
LINE
  5
122
102
{ACAD_REACTORS
330
11E
102
}
100
AcDbEntity
  8
BUILDING_ENVELOPE
  6
CONTINUOUS
 62
     7
100
AcDbLine
 10
15.541626
 20
21.166263
 30
0.0
 11
15.624959
 21
21.166263
 31
0.0
  0
LINE
  5
123
102
{ACAD_REACTORS
330
11E
102
}
100
AcDbEntity
  8
BUILDING_ENVELOPE
  6
CONTINUOUS
 62
     7
100
AcDbLine
 10
15.624959
 20
21.166263
 30
0.0
 11
15.624959
 21
20.999597
 31
0.0
  0
LINE
  5
124
102
{ACAD_REACTORS
330
127
102
}
100
AcDbEntity
  8
BUILDING_ENVELOPE
  6
CONTINUOUS
 62
     7
100
AcDbLine
 10
15.416626
 20
24.883655
 30
0.0
 11
15.416626
 21
24.841988
 31
0.0
  0
LINE
  5
125
102
{ACAD_REACTORS
330
127
102
}
100
AcDbEntity
  8
BUILDING_ENVELOPE
  6
CONTINUOUS
 62
     7
100
AcDbLine
 10
15.416626
 20
24.841988
 30
0.0
 11
15.541626
 21
24.841988
 31
0.0
  0
LINE
  5
126
102
{ACAD_REACTORS
330
127
102
}
100
AcDbEntity
  8
BUILDING_ENVELOPE
  6
CONTINUOUS
 62
     7
100
AcDbLine
 10
15.541626
 20
24.841988
 30
0.0
 11
15.541626
 21
24.883655
 31
0.0
  0
HATCH
  5
127
102
{ACAD_REACTORS
330
117
102
}
100
AcDbEntity
  8
BUILDING_ENVELOPE
 62
     7
100
AcDbHatch
 10
0.0
 20
0.0
 30
0.0
210
0.0
220
0.0
230
1.0
  2
SOLID
 70
     1
 71
     1
 91
        2
 92
        1
 93
        4
 72
     1
 10
15.4166257815951155
 20
24.8836547797219261
 11
15.4166257815951155
 21
24.8419881130552582
 72
     1
 10
15.4166257815951155
 20
24.8419881130552582
 11
15.5416257815951155
 21
24.8419881130552582
 72
     1
 10
15.5416257815951155
 20
24.8419881130552582
 11
15.5416257815951155
 21
24.8836547797219261
 72
     1
 10
15.5416257815951155
 20
24.8836547797219261
 11
15.4166257815951155
 21
24.8836547797219261
 97
        3
330
124
330
125
330
126
 92
        1
 93
        4
 72
     1
 10
15.4166257815951155
 20
21.166263450135169
 11
15.4166257815951155
 21
21.2079301168018333
 72
     1
 10
15.4166257815951155
 20
21.2079301168018333
 11
15.5416257815951155
 21
21.2079301168018333
 72
     1
 10
15.5416257815951155
 20
21.2079301168018333
 11
15.5416257815951155
 21
21.166263450135169
 72
     1
 10
15.5416257815951155
 20
21.166263450135169
 11
15.4166257815951155
 21
21.166263450135169
 97
        3
330
128
330
129
330
12A
 75
     0
 76
     1
 98
        0
  0
LINE
  5
128
102
{ACAD_REACTORS
330
127
102
}
100
AcDbEntity
  8
BUILDING_ENVELOPE
  6
CONTINUOUS
 62
     7
100
AcDbLine
 10
15.416626
 20
21.166263
 30
0.0
 11
15.416626
 21
21.20793
 31
0.0
  0
LINE
  5
129
102
{ACAD_REACTORS
330
127
102
}
100
AcDbEntity
  8
BUILDING_ENVELOPE
  6
CONTINUOUS
 62
     7
100
AcDbLine
 10
15.416626
 20
21.20793
 30
0.0
 11
15.541626
 21
21.20793
 31
0.0
  0
LINE
  5
12A
102
{ACAD_REACTORS
330
127
102
}
100
AcDbEntity
  8
BUILDING_ENVELOPE
  6
CONTINUOUS
 62
     7
100
AcDbLine
 10
15.541626
 20
21.20793
 30
0.0
 11
15.541626
 21
21.166263
 31
0.0
  0
LINE
  5
12B
102
{ACAD_REACTORS
330
117
102
}
100
AcDbEntity
  8
BUILDING_ENVELOPE
  6
CONTINUOUS
 62
     7
100
AcDbLine
 10
15.624959
 20
25.050321
 30
0.0
 11
15.291626
 21
25.050321
 31
0.0
  0
LINE
  5
12C
102
{ACAD_REACTORS
330
117
102
}
100
AcDbEntity
  8
BUILDING_ENVELOPE
  6
CONTINUOUS
 62
     7
100
AcDbLine
 10
15.624959
 20
20.999597
 30
0.0
 11
15.291626
 21
20.999597
 31
0.0
  0
ARC
  5
12D
102
{ACAD_REACTORS
330
117
102
}
100
AcDbEntity
  8
BUILDING_ENVELOPE
  6
CONTINUOUS
 62
     7
100
AcDbCircle
 10
15.291626
 20
24.883655
 30
0.0
 40
3.717391
100
AcDbArc
 50
180.0
 51
270.0
  0
LWPOLYLINE
  5
12E
102
{ACAD_REACTORS
330
12F
102
}
100
AcDbEntity
  8
BUILDING_ENVELOPE
  6
CONTINUOUS
 62
     7
100
AcDbPolyline
 90
        4
 70
     1
 10
11.574234
 20
24.758655
 10
15.291626
 20
24.758655
 10
15.291626
 20
24.883655
 10
11.574234
 20
24.883655
  0
HATCH
  5
12F
102
{ACAD_REACTORS
330
117
102
}
100
AcDbEntity
  8
BUILDING_ENVELOPE
 62
     7
100
AcDbHatch
 10
0.0
 20
0.0
 30
0.0
210
0.0
220
0.0
230
1.0
  2
SOLID
 70
     1
 71
     1
 91
        1
 92
        3
 72
     0
 73
     1
 93
        4
 10
11.5742344520083567
 20
24.7586547797219261
 10
15.2916257815951155
 20
24.7586547797219261
 10
15.2916257815951155
 20
24.8836547797219261
 10
11.5742344520083567
 20
24.8836547797219261
 97
        1
330
12E
 75
     0
 76
     1
 98
        0
  0
LWPOLYLINE
  5
131
102
{ACAD_REACTORS
330
132
102
}
100
AcDbEntity
  8
SPACE
  6
CONTINUOUS
100
AcDbPolyline
 90
        9
 70
     1
 10
21.458292
 20
31.358292
 10
21.458292
 20
43.024959
 10
21.458292
 20
49.524959
 10
16.291626
 20
49.524959
 10
16.291626
 20
42.024959
 10
0.356904
 20
42.024959
 10
0.356904
 20
25.858292
 10
15.291626
 20
25.858292
 10
15.291626
 20
31.358292
  0
HATCH
  5
132
102
{ACAD_REACTORS
330
130
102
}
100
AcDbEntity
  8
SPACE
 62
     2
100
AcDbHatch
 10
0.0
 20
0.0
 30
0.0
210
0.0
220
0.0
230
1.0
  2
SOLID
 70
     1
 71
     1
 91
        1
 92
        3
 72
     0
 73
     1
 93
        9
 10
21.4582924482618012
 20
31.3582924482616932
 10
21.4582924482618012
 20
43.0249591149285209
 10
21.4582924482618012
 20
49.5249591149284356
 10
16.2916257815950907
 20
49.5249591149284356
 10
16.2916257815950907
 20
42.0249591149285351
 10
0.3569035593729085
 20
42.0249591149285351
 10
0.3569035593729085
 20
25.8582924482617678
 10
15.2916257815950871
 20
25.8582924482617678
 10
15.2916257815950871
 20
31.3582924482616932
 97
        1
330
131
 75
     0
 76
     1
 98
        0
  0
MTEXT
  5
133
100
AcDbEntity
  8
SPACE
100
AcDbMText
 10
8.291626
 20
34.749325
 30
0.0
 40
0.500004
 41
2.948215
 71
     5
 72
     5
  1
\C7;\fCalibri|b0|i0|;\H0.50000381469727;Lounge\P346 sq ft\P\P
  0
LWPOLYLINE
  5
135
102
{ACAD_REACTORS
330
13B
102
}
100
AcDbEntity
  8
BUILDING_ENVELOPE
  6
CONTINUOUS
 62
     7
100
AcDbPolyline
 90
        4
 70
     1
 10
15.791626
 20
31.016959
 10
21.124959
 20
31.016959
 10
21.124959
 20
31.366292
 10
15.791626
 20
31.366292
  0
LINE
  5
136
102
{ACAD_REACTORS
330
13B
102
}
100
AcDbEntity
  8
BUILDING_ENVELOPE
  6
CONTINUOUS
 62
     7
100
AcDbLine
 10
21.124959
 20
31.024959
 30
0.0
 11
21.124959
 21
31.358292
 31
0.0
  0
LINE
  5
137
102
{ACAD_REACTORS
330
13B
102
}
100
AcDbEntity
  8
BUILDING_ENVELOPE
  6
CONTINUOUS
 62
     7
100
AcDbLine
 10
21.124959
 20
31.358292
 30
0.0
 11
20.958292
 21
31.358292
 31
0.0
  0
LINE
  5
138
102
{ACAD_REACTORS
330
13B
102
}
100
AcDbEntity
  8
BUILDING_ENVELOPE
  6
CONTINUOUS
 62
     7
100
AcDbLine
 10
20.958292
 20
31.358292
 30
0.0
 11
20.958292
 21
31.233292
 31
0.0
  0
LINE
  5
139
102
{ACAD_REACTORS
330
13B
102
}
100
AcDbEntity
  8
BUILDING_ENVELOPE
  6
CONTINUOUS
 62
     7
100
AcDbLine
 10
20.958292
 20
31.108292
 30
0.0
 11
20.958292
 21
31.024959
 31
0.0
  0
LINE
  5
13A
102
{ACAD_REACTORS
330
13B
102
}
100
AcDbEntity
  8
BUILDING_ENVELOPE
  6
CONTINUOUS
 62
     7
100
AcDbLine
 10
20.958292
 20
31.024959
 30
0.0
 11
21.124959
 21
31.024959
 31
0.0
  0
HATCH
  5
13B
102
{ACAD_REACTORS
330
134
102
}
100
AcDbEntity
  8
BUILDING_ENVELOPE
 62
     7
100
AcDbHatch
 10
0.0
 20
0.0
 30
0.0
210
0.0
220
0.0
230
1.0
  2
SOLID
 70
     1
 71
     1
 91
        2
 92
        1
 93
        6
 72
     1
 10
21.1249591149284726
 20
31.0249591149284356
 11
21.1249591149284726
 21
31.3582924482617678
 72
     1
 10
21.1249591149284726
 20
31.3582924482617678
 11
20.9582924482618083
 21
31.3582924482617678
 72
     1
 10
20.9582924482618083
 20
31.3582924482617678
 11
20.9582924482618083
 21
31.2332924482617678
 72
     1
 10
20.9582924482618083
 20
31.2332924482617678
 11
20.9582924482618083
 21
31.1082924482617678
 72
     1
 10
20.9582924482618083
 20
31.1082924482617678
 11
20.9582924482618083
 21
31.0249591149284356
 72
     1
 10
20.9582924482618083
 20
31.0249591149284356
 11
21.1249591149284726
 21
31.0249591149284356
 97
        6
330
135
330
136
330
137
330
138
330
139
330
13A
 92
        1
 93
        6
 72
     1
 10
15.7916257815951404
 20
31.0249591149284356
 11
15.7916257815951404
 21
31.3582924482617678
 72
     1
 10
15.7916257815951404
 20
31.3582924482617678
 11
15.9582924482618083
 21
31.3582924482617678
 72
     1
 10
15.9582924482618083
 20
31.3582924482617678
 11
15.9582924482618083
 21
31.2332924482617678
 72
     1
 10
15.9582924482618083
 20
31.2332924482617678
 11
15.9582924482618083
 21
31.1082924482617678
 72
     1
 10
15.9582924482618083
 20
31.1082924482617678
 11
15.9582924482618083
 21
31.0249591149284356
 72
     1
 10
15.9582924482618083
 20
31.0249591149284356
 11
15.7916257815951404
 21
31.0249591149284356
 97
        5
330
13C
330
13D
330
13E
330
13F
330
140
 75
     0
 76
     1
 98
        0
  0
LINE
  5
13C
102
{ACAD_REACTORS
330
13B
102
}
100
AcDbEntity
  8
BUILDING_ENVELOPE
  6
CONTINUOUS
 62
     7
100
AcDbLine
 10
15.791626
 20
31.024959
 30
0.0
 11
15.791626
 21
31.358292
 31
0.0
  0
LINE
  5
13D
102
{ACAD_REACTORS
330
13B
102
}
100
AcDbEntity
  8
BUILDING_ENVELOPE
  6
CONTINUOUS
 62
     7
100
AcDbLine
 10
15.791626
 20
31.358292
 30
0.0
 11
15.958292
 21
31.358292
 31
0.0
  0
LINE
  5
13E
102
{ACAD_REACTORS
330
13B
102
}
100
AcDbEntity
  8
BUILDING_ENVELOPE
  6
CONTINUOUS
 62
     7
100
AcDbLine
 10
15.958292
 20
31.358292
 30
0.0
 11
15.958292
 21
31.233292
 31
0.0
  0
LINE
  5
13F
102
{ACAD_REACTORS
330
13B
102
}
100
AcDbEntity
  8
BUILDING_ENVELOPE
  6
CONTINUOUS
 62
     7
100
AcDbLine
 10
15.958292
 20
31.108292
 30
0.0
 11
15.958292
 21
31.024959
 31
0.0
  0
LINE
  5
140
102
{ACAD_REACTORS
330
13B
102
}
100
AcDbEntity
  8
BUILDING_ENVELOPE
  6
CONTINUOUS
 62
     7
100
AcDbLine
 10
15.958292
 20
31.024959
 30
0.0
 11
15.791626
 21
31.024959
 31
0.0
  0
LINE
  5
141
102
{ACAD_REACTORS
330
144
102
}
100
AcDbEntity
  8
BUILDING_ENVELOPE
  6
CONTINUOUS
 62
     7
100
AcDbLine
 10
20.958292
 20
31.233292
 30
0.0
 11
20.916626
 21
31.233292
 31
0.0
  0
LINE
  5
142
102
{ACAD_REACTORS
330
144
102
}
100
AcDbEntity
  8
BUILDING_ENVELOPE
  6
CONTINUOUS
 62
     7
100
AcDbLine
 10
20.916626
 20
31.233292
 30
0.0
 11
20.916626
 21
31.108292
 31
0.0
  0
LINE
  5
143
102
{ACAD_REACTORS
330
144
102
}
100
AcDbEntity
  8
BUILDING_ENVELOPE
  6
CONTINUOUS
 62
     7
100
AcDbLine
 10
20.916626
 20
31.108292
 30
0.0
 11
20.958292
 21
31.108292
 31
0.0
  0
HATCH
  5
144
102
{ACAD_REACTORS
330
134
102
}
100
AcDbEntity
  8
BUILDING_ENVELOPE
 62
     7
100
AcDbHatch
 10
0.0
 20
0.0
 30
0.0
210
0.0
220
0.0
230
1.0
  2
SOLID
 70
     1
 71
     1
 91
        2
 92
        1
 93
        4
 72
     1
 10
20.9582924482618083
 20
31.2332924482617678
 11
20.9166257815951404
 21
31.2332924482617678
 72
     1
 10
20.9166257815951404
 20
31.2332924482617678
 11
20.9166257815951404
 21
31.1082924482617678
 72
     1
 10
20.9166257815951404
 20
31.1082924482617678
 11
20.9582924482618083
 21
31.1082924482617678
 72
     1
 10
20.9582924482618083
 20
31.1082924482617678
 11
20.9582924482618083
 21
31.2332924482617678
 97
        3
330
141
330
142
330
143
 92
        1
 93
        4
 72
     1
 10
15.9582924482618083
 20
31.2332924482617678
 11
15.9999591149284743
 21
31.2332924482617678
 72
     1
 10
15.9999591149284743
 20
31.2332924482617678
 11
15.9999591149284743
 21
31.1082924482617678
 72
     1
 10
15.9999591149284743
 20
31.1082924482617678
 11
15.9582924482618083
 21
31.1082924482617678
 72
     1
 10
15.9582924482618083
 20
31.1082924482617678
 11
15.9582924482618083
 21
31.2332924482617678
 97
        3
330
145
330
146
330
147
 75
     0
 76
     1
 98
        0
  0
LINE
  5
145
102
{ACAD_REACTORS
330
144
102
}
100
AcDbEntity
  8
BUILDING_ENVELOPE
  6
CONTINUOUS
 62
     7
100
AcDbLine
 10
15.958292
 20
31.233292
 30
0.0
 11
15.999959
 21
31.233292
 31
0.0
  0
LINE
  5
146
102
{ACAD_REACTORS
330
144
102
}
100
AcDbEntity
  8
BUILDING_ENVELOPE
  6
CONTINUOUS
 62
     7
100
AcDbLine
 10
15.999959
 20
31.233292
 30
0.0
 11
15.999959
 21
31.108292
 31
0.0
  0
LINE
  5
147
102
{ACAD_REACTORS
330
144
102
}
100
AcDbEntity
  8
BUILDING_ENVELOPE
  6
CONTINUOUS
 62
     7
100
AcDbLine
 10
15.999959
 20
31.108292
 30
0.0
 11
15.958292
 21
31.108292
 31
0.0
  0
LINE
  5
148
102
{ACAD_REACTORS
330
134
102
}
100
AcDbEntity
  8
BUILDING_ENVELOPE
  6
CONTINUOUS
 62
     7
100
AcDbLine
 10
21.124959
 20
31.024959
 30
0.0
 11
21.124959
 21
31.358292
 31
0.0
  0
LINE
  5
149
102
{ACAD_REACTORS
330
134
102
}
100
AcDbEntity
  8
BUILDING_ENVELOPE
  6
CONTINUOUS
 62
     7
100
AcDbLine
 10
15.791626
 20
31.024959
 30
0.0
 11
15.791626
 21
31.358292
 31
0.0
  0
ARC
  5
14A
102
{ACAD_REACTORS
330
134
102
}
100
AcDbEntity
  8
BUILDING_ENVELOPE
  6
CONTINUOUS
 62
     7
100
AcDbCircle
 10
15.958292
 20
31.358292
 30
0.0
 40
2.5
100
AcDbArc
 50
0.0
 51
90.0
  0
ARC
  5
14B
102
{ACAD_REACTORS
330
134
102
}
100
AcDbEntity
  8
BUILDING_ENVELOPE
  6
CONTINUOUS
 62
     7
100
AcDbCircle
 10
20.958292
 20
31.358292
 30
0.0
 40
2.5
100
AcDbArc
 50
90.0
 51
180.0
  0
LWPOLYLINE
  5
14C
102
{ACAD_REACTORS
330
14D
102
}
100
AcDbEntity
  8
BUILDING_ENVELOPE
  6
CONTINUOUS
 62
     7
100
AcDbPolyline
 90
        4
 70
     1
 10
15.958292
 20
33.858292
 10
15.958292
 20
31.358292
 10
16.083292
 20
31.358292
 10
16.083292
 20
33.858292
  0
HATCH
  5
14D
102
{ACAD_REACTORS
330
134
102
}
100
AcDbEntity
  8
BUILDING_ENVELOPE
 62
     7
100
AcDbHatch
 10
0.0
 20
0.0
 30
0.0
210
0.0
220
0.0
230
1.0
  2
SOLID
 70
     1
 71
     1
 91
        1
 92
        3
 72
     0
 73
     1
 93
        4
 10
15.9582924482618083
 20
33.8582924482617642
 10
15.9582924482618083
 20
31.3582924482617678
 10
16.0832924482618083
 20
31.3582924482617678
 10
16.0832924482618083
 20
33.8582924482617642
 97
        1
330
14C
 75
     0
 76
     1
 98
        0
  0
LWPOLYLINE
  5
14E
102
{ACAD_REACTORS
330
14F
102
}
100
AcDbEntity
  8
BUILDING_ENVELOPE
  6
CONTINUOUS
 62
     7
100
AcDbPolyline
 90
        4
 70
     1
 10
20.833292
 20
33.858292
 10
20.833292
 20
31.358292
 10
20.958292
 20
31.358292
 10
20.958292
 20
33.858292
  0
HATCH
  5
14F
102
{ACAD_REACTORS
330
134
102
}
100
AcDbEntity
  8
BUILDING_ENVELOPE
 62
     7
100
AcDbHatch
 10
0.0
 20
0.0
 30
0.0
210
0.0
220
0.0
230
1.0
  2
SOLID
 70
     1
 71
     1
 91
        1
 92
        3
 72
     0
 73
     1
 93
        4
 10
20.8332924482618083
 20
33.8582924482617642
 10
20.8332924482618083
 20
31.3582924482617678
 10
20.9582924482618083
 20
31.3582924482617678
 10
20.9582924482618083
 20
33.8582924482617642
 97
        1
330
14E
 75
     0
 76
     1
 98
        0
  0
LINE
  5
151
102
{ACAD_REACTORS
330
156
102
}
100
AcDbEntity
  8
SPACE
  6
CONTINUOUS
100
AcDbLine
 10
15.958292
 20
42.358292
 30
0.0
 11
15.958292
 21
58.024959
 31
0.0
  0
LINE
  5
152
102
{ACAD_REACTORS
330
156
102
}
100
AcDbEntity
  8
SPACE
  6
CONTINUOUS
100
AcDbLine
 10
15.958292
 20
58.024959
 30
0.0
 11
9.791626
 21
58.024959
 31
0.0
  0
LINE
  5
153
102
{ACAD_REACTORS
330
156
102
}
100
AcDbEntity
  8
SPACE
  6
CONTINUOUS
100
AcDbLine
 10
9.791626
 20
58.024959
 30
0.0
 11
0.356904
 21
58.024959
 31
0.0
  0
LINE
  5
154
102
{ACAD_REACTORS
330
156
102
}
100
AcDbEntity
  8
SPACE
  6
CONTINUOUS
100
AcDbLine
 10
0.356904
 20
58.024959
 30
0.0
 11
0.356904
 21
42.358292
 31
0.0
  0
LINE
  5
155
102
{ACAD_REACTORS
330
156
102
}
100
AcDbEntity
  8
SPACE
  6
CONTINUOUS
100
AcDbLine
 10
0.356904
 20
42.358292
 30
0.0
 11
15.958292
 21
42.358292
 31
0.0
  0
HATCH
  5
156
102
{ACAD_REACTORS
330
150
102
}
100
AcDbEntity
  8
SPACE
 62
    10
100
AcDbHatch
 10
0.0
 20
0.0
 30
0.0
210
0.0
220
0.0
230
1.0
  2
SOLID
 70
     1
 71
     1
 91
        1
 92
        1
 93
        6
 72
     1
 10
15.9582924482617905
 20
42.3582924482617642
 11
15.9582924482617905
 21
58.0249591149284356
 72
     1
 10
15.9582924482617905
 20
58.0249591149284356
 11
9.7916257815951599
 21
58.0249591149284356
 72
     1
 10
9.7916257815951599
 20
58.0249591149284356
 11
0.3569035593728991
 21
58.0249591149284356
 72
     1
 10
0.3569035593728991
 20
58.0249591149284356
 11
0.3569035593728991
 21
42.3582924482617642
 72
     1
 10
0.3569035593728991
 20
42.3582924482617642
 11
15.9582918548643704
 21
42.3582924482617642
 72
     1
 10
15.9582918548643704
 20
42.3582924482617642
 11
15.9582924482617905
 21
42.3582924482617642
 97
        5
330
151
330
152
330
153
330
154
330
155
 75
     0
 76
     1
 98
        0
  0
MTEXT
  5
157
100
AcDbEntity
  8
SPACE
100
AcDbMText
 10
8.157598
 20
52.832658
 30
0.0
 40
0.500004
 41
3.108081
 71
     5
 72
     5
  1
\C7;\fCalibri|b0|i0|;\H0.50000381469727;Bedroom\P244 sq ft\P\P
  0
LWPOLYLINE
  5
159
102
{ACAD_REACTORS
330
15A
102
}
100
AcDbEntity
  8
SPACE
  6
CONTINUOUS
100
AcDbPolyline
 90
        4
 70
     1
 10
29.958292
 20
43.358292
 10
29.958292
 20
58.024959
 10
21.791626
 20
58.024959
 10
21.791626
 20
43.358292
  0
HATCH
  5
15A
102
{ACAD_REACTORS
330
158
102
}
100
AcDbEntity
  8
SPACE
 62
    10
100
AcDbHatch
 10
0.0
 20
0.0
 30
0.0
210
0.0
220
0.0
230
1.0
  2
SOLID
 70
     1
 71
     1
 91
        1
 92
        3
 72
     0
 73
     1
 93
        4
 10
29.9582924482617798
 20
43.3582924482617642
 10
29.9582924482617798
 20
58.0249591149284356
 10
21.7916257815951155
 20
58.0249591149284356
 10
21.7916257815951155
 20
43.3582924482617642
 97
        1
330
159
 75
     0
 76
     1
 98
        0
  0
MTEXT
  5
15B
100
AcDbEntity
  8
SPACE
100
AcDbMText
 10
25.874959
 20
53.082658
 30
0.0
 40
0.500004
 41
3.108081
 71
     5
 72
     5
  1
\C7;\fCalibri|b0|i0|;\H0.50000381469727;Bedroom\P120 sq ft\P\P
  0
LINE
  5
15D
102
{ACAD_REACTORS
330
161
102
}
100
AcDbEntity
  8
SPACE
  6
CONTINUOUS
100
AcDbLine
 10
9.458292
 20
65.02357
 30
0.0
 11
0.356904
 21
65.02357
 31
0.0
  0
LINE
  5
15E
102
{ACAD_REACTORS
330
161
102
}
100
AcDbEntity
  8
SPACE
  6
CONTINUOUS
100
AcDbLine
 10
0.356904
 20
65.02357
 30
0.0
 11
0.356904
 21
58.358292
 31
0.0
  0
LINE
  5
15F
102
{ACAD_REACTORS
330
161
102
}
100
AcDbEntity
  8
SPACE
  6
CONTINUOUS
100
AcDbLine
 10
0.356904
 20
58.358292
 30
0.0
 11
9.458292
 21
58.358292
 31
0.0
  0
LINE
  5
160
102
{ACAD_REACTORS
330
161
102
}
100
AcDbEntity
  8
SPACE
  6
CONTINUOUS
100
AcDbLine
 10
9.458292
 20
58.358292
 30
0.0
 11
9.458292
 21
65.02357
 31
0.0
  0
HATCH
  5
161
102
{ACAD_REACTORS
330
15C
102
}
100
AcDbEntity
  8
SPACE
 62
     5
100
AcDbHatch
 10
0.0
 20
0.0
 30
0.0
210
0.0
220
0.0
230
1.0
  2
SOLID
 70
     1
 71
     1
 91
        1
 92
        1
 93
        5
 72
     1
 10
9.4582924482617905
 20
65.0235702260395385
 11
0.3569035593728979
 21
65.0235702260395385
 72
     1
 10
0.3569035593728979
 20
65.0235702260395385
 11
0.3569035593728979
 21
58.3582924482617642
 72
     1
 10
0.3569035593728979
 20
58.3582924482617642
 11
9.458292490647322
 21
58.3582924482617642
 72
     1
 10
9.458292490647322
 20
58.3582924482617642
 11
9.4582924482617905
 21
65.0235699293408231
 72
     1
 10
9.4582924482617905
 20
65.0235699293408231
 11
9.4582924482617905
 21
65.0235702260395385
 97
        4
330
15D
330
15E
330
15F
330
160
 75
     0
 76
     1
 98
        0
  0
MTEXT
  5
162
100
AcDbEntity
  8
SPACE
100
AcDbMText
 10
5.791626
 20
61.999327
 30
0.0
 40
0.500004
 41
3.319019
 71
     5
 72
     5
  1
\C7;\fCalibri|b0|i0|;\H0.50000381469727;Bathroom\P61 sq ft\P\P
  0
LWPOLYLINE
  5
164
102
{ACAD_REACTORS
330
165
102
}
100
AcDbEntity
  8
SPACE
  6
CONTINUOUS
100
AcDbPolyline
 90
        4
 70
     1
 10
21.458292
 20
49.858292
 10
21.458292
 20
58.024959
 10
16.291626
 20
58.024959
 10
16.291626
 20
49.858292
  0
HATCH
  5
165
102
{ACAD_REACTORS
330
163
102
}
100
AcDbEntity
  8
SPACE
 62
     5
100
AcDbHatch
 10
0.0
 20
0.0
 30
0.0
210
0.0
220
0.0
230
1.0
  2
SOLID
 70
     1
 71
     1
 91
        1
 92
        3
 72
     0
 73
     1
 93
        4
 10
21.4582924482617798
 20
49.85829244826175
 10
21.4582924482617798
 20
58.0249591149284427
 10
16.2916257815951155
 20
58.0249591149284427
 10
16.2916257815951155
 20
49.85829244826175
 97
        1
330
164
 75
     0
 76
     1
 98
        0
  0
MTEXT
  5
166
100
AcDbEntity
  8
SPACE
100
AcDbMText
 10
18.291626
 20
51.249325
 30
0.0
 40
0.500004
 41
3.319019
 71
     5
 72
     5
  1
\C7;\fCalibri|b0|i0|;\H0.50000381469727;Bathroom\P42 sq ft\P\P
  0
LWPOLYLINE
  5
168
102
{ACAD_REACTORS
330
169
102
}
100
AcDbEntity
  8
SPACE
  6
CONTINUOUS
100
AcDbPolyline
 90
       10
 70
     1
 10
21.791626
 20
31.024959
 10
21.458292
 20
31.024959
 10
15.624959
 20
31.024959
 10
15.624959
 20
15.358292
 10
21.791626
 20
15.358292
 10
21.791626
 20
19.608292
 10
26.291626
 20
19.608292
 10
26.291626
 20
22.441437
 10
23.791626
 20
22.441437
 10
23.791626
 20
31.024959
  0
HATCH
  5
169
102
{ACAD_REACTORS
330
167
102
}
100
AcDbEntity
  8
SPACE
 62
     6
100
AcDbHatch
 10
0.0
 20
0.0
 30
0.0
210
0.0
220
0.0
230
1.0
  2
SOLID
 70
     1
 71
     1
 91
        1
 92
        3
 72
     0
 73
     1
 93
       10
 10
21.7916257815951155
 20
31.024959114928425
 10
21.4582924482617798
 20
31.024959114928425
 10
15.6249591149284477
 20
31.024959114928425
 10
15.6249591149284477
 20
15.3582924482617571
 10
21.7916257815951155
 20
15.3582924482617571
 10
21.7916257815951155
 20
19.6082924482617429
 10
26.2916257815951155
 20
19.6082924482617429
 10
26.2916257815951155
 20
22.4414373381574848
 10
23.7916257815951155
 20
22.4414373381574848
 10
23.7916257815951155
 20
31.024959114928425
 97
        1
330
168
 75
     0
 76
     1
 98
        0
  0
MTEXT
  5
16A
100
AcDbEntity
  8
SPACE
100
AcDbMText
 10
18.791626
 20
23.249325
 30
0.0
 40
0.500004
 41
2.948215
 71
     5
 72
     5
  1
\C7;\fCalibri|b0|i0|;\H0.50000381469727;Lobby\P127 sq ft\P\P
  0
LWPOLYLINE
  5
16C
102
{ACAD_REACTORS
330
16D
102
}
100
AcDbEntity
  8
BUILDING_ENVELOPE
  6
CONTINUOUS
 62
     9
100
AcDbPolyline
 90
        4
 70
     1
 10
26.291626
 20
19.524959
 10
25.362278
 20
19.524959
 10
25.362278
 20
22.524959
 10
26.291626
 20
22.524959
  0
HATCH
  5
16D
102
{ACAD_REACTORS
330
16B
102
}
100
AcDbEntity
  8
BUILDING_ENVELOPE
 62
   134
100
AcDbHatch
 10
0.0
 20
0.0
 30
0.0
210
0.0
220
0.0
230
1.0
  2
SOLID
 70
     1
 71
     1
 91
       33
 92
        3
 72
     0
 73
     1
 93
        4
 10
26.2916257815951155
 20
19.5249591149284356
 10
25.3622779491984289
 20
19.5249591149284356
 10
25.3622779491984289
 20
22.5249591149284356
 10
26.2916257815951155
 20
22.5249591149284356
 97
        1
330
16C
 92
        3
 72
     0
 73
     1
 93
        4
 10
25.3622779491984289
 20
19.5249591149284356
 10
24.4329301168017423
 20
19.5249591149284356
 10
24.4329301168017423
 20
22.5249591149284356
 10
25.3622779491984289
 20
22.5249591149284356
 97
        1
330
16E
 92
        3
 72
     0
 73
     1
 93
        4
 10
24.4329301168017423
 20
19.5249591149284356
 10
23.5035822844050486
 20
19.5249591149284356
 10
23.5035822844050486
 20
22.5249591149284356
 10
24.4329301168017423
 20
22.5249591149284356
 97
        1
330
16F
 92
        3
 72
     0
 73
     1
 93
        4
 10
23.5035822844050486
 20
19.5249591149284356
 10
22.574234452008362
 20
19.5249591149284356
 10
22.574234452008362
 20
22.5249591149284356
 10
23.5035822844050486
 20
22.5249591149284356
 97
        1
330
170
 92
        0
 93
        0
 97
        0
 92
        0
 93
        0
 97
        0
 92
        0
 93
        0
 97
        0
 92
        0
 93
        0
 97
        0
 92
        0
 93
        0
 97
        0
 92
        0
 93
        0
 97
        0
 92
        0
 93
        0
 97
        0
 92
        0
 93
        0
 97
        0
 92
        0
 93
        0
 97
        0
 92
        0
 93
        0
 97
        0
 92
        0
 93
        0
 97
        0
 92
        0
 93
        0
 97
        0
 92
        0
 93
        0
 97
        0
 92
        0
 93
        0
 97
        0
 92
        0
 93
        0
 97
        0
 92
        0
 93
        0
 97
        0
 92
        0
 93
        0
 97
        0
 92
        0
 93
        0
 97
        0
 92
        0
 93
        0
 97
        0
 92
        0
 93
        0
 97
        0
 92
        0
 93
        0
 97
        0
 92
        0
 93
        0
 97
        0
 92
        0
 93
        0
 97
        0
 92
        0
 93
        0
 97
        0
 92
        0
 93
        0
 97
        0
 92
        0
 93
        0
 97
        0
 92
        0
 93
        0
 97
        0
 92
        0
 93
        0
 97
        0
 92
        0
 93
        0
 97
        0
 75
     0
 76
     1
 98
        0
  0
LWPOLYLINE
  5
16E
102
{ACAD_REACTORS
330
16D
102
}
100
AcDbEntity
  8
BUILDING_ENVELOPE
  6
CONTINUOUS
 62
     9
100
AcDbPolyline
 90
        4
 70
     1
 10
25.362278
 20
19.524959
 10
24.43293
 20
19.524959
 10
24.43293
 20
22.524959
 10
25.362278
 20
22.524959
  0
LWPOLYLINE
  5
16F
102
{ACAD_REACTORS
330
16D
102
}
100
AcDbEntity
  8
BUILDING_ENVELOPE
  6
CONTINUOUS
 62
     9
100
AcDbPolyline
 90
        4
 70
     1
 10
24.43293
 20
19.524959
 10
23.503582
 20
19.524959
 10
23.503582
 20
22.524959
 10
24.43293
 20
22.524959
  0
LWPOLYLINE
  5
170
102
{ACAD_REACTORS
330
16D
102
}
100
AcDbEntity
  8
BUILDING_ENVELOPE
  6
CONTINUOUS
 62
     9
100
AcDbPolyline
 90
        4
 70
     1
 10
23.503582
 20
19.524959
 10
22.574234
 20
19.524959
 10
22.574234
 20
22.524959
 10
23.503582
 20
22.524959
  0
MTEXT
  5
171
100
AcDbEntity
  8
BUILDING_ENVELOPE
100
AcDbMText
 10
26.668259
 20
21.024959
 30
0.0
 40
0.333332
 41
0.753267
 71
     5
 72
     5
  1
\C7;\fCalibri|b0|i0|;\H0.33333206176758;UP
  0
CIRCLE
  5
173
102
{ACAD_REACTORS
330
174
102
}
100
AcDbEntity
  8
STAIR
  6
CONTINUOUS
 62
     7
100
AcDbCircle
 10
26.291626
 20
21.024959
 30
0.0
 40
0.086804
  0
HATCH
  5
174
102
{ACAD_REACTORS
330
16B
102
}
100
AcDbEntity
  8
STAIR
 62
   134
100
AcDbHatch
 10
0.0
 20
0.0
 30
0.0
210
0.0
220
0.0
230
1.0
  2
SOLID
 70
     1
 71
     1
 91
        1
 92
        1
 93
        1
 72
     2
 10
26.2916257815951155
 20
21.0249591149284356
 40
0.0868041666666667
 50
0.0
 51
360.0
 73
     1
 97
        1
330
173
 75
     0
 76
     1
 98
        0
  0
LINE
  5
175
102
{ACAD_REACTORS
330
16B
102
}
100
AcDbEntity
  8
STAIR
  6
CONTINUOUS
 62
     7
100
AcDbLine
 10
26.291626
 20
21.024959
 30
0.0
 11
23.983426
 21
21.024959
 31
0.0
  0
LWPOLYLINE
  5
176
102
{ACAD_REACTORS
330
177
102
}
100
AcDbEntity
  8
STAIR
  6
CONTINUOUS
 62
     7
100
AcDbPolyline
 90
        3
 70
     1
 10
24.196338
 20
21.152434
 10
24.196338
 20
20.897484
 10
23.770513
 20
21.027694
  0
HATCH
  5
177
102
{ACAD_REACTORS
330
16B
102
}
100
AcDbEntity
  8
STAIR
 62
   134
100
AcDbHatch
 10
0.0
 20
0.0
 30
0.0
210
0.0
220
0.0
230
1.0
  2
SOLID
 70
     1
 71
     1
 91
        1
 92
        3
 72
     0
 73
     1
 93
        3
 10
24.1963382815951107
 20
21.1524341149284325
 10
24.1963382815951107
 20
20.8974841149284316
 10
23.7705132815951146
 20
21.0276935122726627
 97
        1
330
176
 75
     0
 76
     1
 98
        0
  0
LWPOLYLINE
  5
179
102
{ACAD_REACTORS
330
17A
102
}
100
AcDbEntity
  8
SPACE
  6
CONTINUOUS
100
AcDbPolyline
 90
        6
 70
     1
 10
26.624959
 20
19.608292
 10
29.958292
 20
19.608292
 10
29.958292
 20
31.024959
 10
24.124959
 20
31.024959
 10
24.124959
 20
22.774771
 10
26.624959
 20
22.774771
  0
HATCH
  5
17A
102
{ACAD_REACTORS
330
178
102
}
100
AcDbEntity
  8
SPACE
 62
     5
100
AcDbHatch
 10
0.0
 20
0.0
 30
0.0
210
0.0
220
0.0
230
1.0
  2
SOLID
 70
     1
 71
     1
 91
        1
 92
        3
 72
     0
 73
     1
 93
        6
 10
26.6249591149284583
 20
19.6082924482617678
 10
29.9582924482617798
 20
19.6082924482617678
 10
29.9582924482617798
 20
31.0249591149284356
 10
24.1249591149284477
 20
31.0249591149284356
 10
24.1249591149284477
 20
22.7747709231966162
 10
26.6249591149284583
 20
22.7747706714907423
 97
        1
330
179
 75
     0
 76
     1
 98
        0
  0
MTEXT
  5
17B
100
AcDbEntity
  8
SPACE
100
AcDbMText
 10
27.791626
 20
27.749325
 30
0.0
 40
0.500004
 41
3.319019
 71
     5
 72
     5
  1
\C7;\fCalibri|b0|i0|;\H0.50000381469727;Bathroom\P59 sq ft\P\P
  0
LWPOLYLINE
  5
17D
102
{ACAD_REACTORS
330
17E
102
}
100
AcDbEntity
  8
SPACE
  6
CONTINUOUS
100
AcDbPolyline
 90
       18
 70
     1
 10
22.124959
 20
15.024959
 10
15.624959
 20
15.024959
 10
15.624959
 20
9.524959
 10
0.356904
 20
9.524959
 10
0.356904
 20
0.356904
 10
35.02357
 20
0.356904
 10
35.02357
 20
65.02357
 10
9.791626
 20
65.02357
 10
9.791626
 20
58.358292
 10
30.291626
 20
58.358292
 10
30.291626
 20
43.358292
 10
30.291626
 20
43.191626
 10
30.291626
 20
43.024959
 10
30.291626
 20
19.274959
 10
26.624959
 20
19.274959
 10
26.458292
 20
19.274959
 10
26.291626
 20
19.274959
 10
22.124959
 20
19.274959
  0
HATCH
  5
17E
102
{ACAD_REACTORS
330
17C
102
}
100
AcDbEntity
  8
SPACE
 62
    22
100
AcDbHatch
 10
0.0
 20
0.0
 30
0.0
210
0.0
220
0.0
230
1.0
  2
SOLID
 70
     1
 71
     1
 91
        1
 92
        3
 72
     0
 73
     1
 93
       18
 10
22.1249591149284726
 20
15.0249591149284072
 10
15.6249591149284726
 20
15.0249591149284072
 10
15.6249591149284726
 20
9.5249591149285742
 10
0.3569035593729002
 20
9.5249591149285742
 10
0.3569035593729002
 20
0.3569035593728813
 10
35.0235702260395669
 20
0.3569035593728813
 10
35.0235702260395669
 20
65.0235702260395385
 10
9.7916257815951653
 20
65.0235702260395385
 10
9.7916257815951653
 20
58.3582924482620484
 10
30.2916257815950338
 20
58.3582924482620484
 10
30.2916257815950338
 20
43.3582924482619205
 10
30.2916257815950338
 20
43.1916257815951781
 10
30.2916257815950338
 20
43.0249591149284427
 10
30.2916257815950338
 20
19.2749591149286594
 10
26.6249591149283908
 20
19.2749591149286594
 10
26.4582924482618047
 20
19.2749591149286594
 10
26.2916257815952186
 20
19.2749591149286594
 10
22.1249591149284726
 20
19.2749591149286594
 97
        1
330
17D
 75
     0
 76
     1
 98
        0
  0
MTEXT
  5
17F
100
AcDbEntity
  8
SPACE
100
AcDbMText
 10
25.791626
 20
7.749325
 30
0.0
 40
0.500004
 41
2.948215
 71
     5
 72
     5
  1
\C7;\fCalibri|b0|i0|;\H0.50000381469727;Garage\P832 sq ft\P\P
  0
LWPOLYLINE
  5
181
102
{ACAD_REACTORS
330
182
102
}
100
AcDbEntity
  8
SPACE
  6
CONTINUOUS
100
AcDbPolyline
 90
        4
 70
     1
 10
21.791626
 20
31.358292
 10
29.958292
 20
31.358292
 10
29.958292
 20
43.024959
 10
21.791626
 20
43.024959
  0
HATCH
  5
182
102
{ACAD_REACTORS
330
180
102
}
100
AcDbEntity
  8
SPACE
 62
    40
100
AcDbHatch
 10
0.0
 20
0.0
 30
0.0
210
0.0
220
0.0
230
1.0
  2
SOLID
 70
     1
 71
     1
 91
        1
 92
        3
 72
     0
 73
     1
 93
        4
 10
21.7916257815951155
 20
31.3582924482617678
 10
29.9582924482617798
 20
31.3582924482617678
 10
29.9582924482617798
 20
43.0249591149284356
 10
21.7916257815951155
 20
43.0249591149284356
 97
        1
330
181
 75
     0
 76
     1
 98
        0
  0
MTEXT
  5
183
100
AcDbEntity
  8
SPACE
100
AcDbMText
 10
26.791626
 20
39.249325
 30
0.0
 40
0.500004
 41
2.632175
 71
     5
 72
     5
  1
\C7;\fCalibri|b0|i0|;\H0.50000381469727;Kitchen\P95 sq ft\P\P
  0
LWPOLYLINE
  5
185
102
{ACAD_REACTORS
330
186
102
}
100
AcDbEntity
  8
SPACE
  6
CONTINUOUS
100
AcDbPolyline
 90
        9
 70
     1
 10
35.02357
 20
19.608292
 10
35.02357
 20
65.02357
 10
9.791626
 20
65.02357
 10
9.791626
 20
58.358292
 10
30.291626
 20
58.358292
 10
30.291626
 20
43.358292
 10
30.291626
 20
43.191626
 10
30.291626
 20
43.024959
 10
30.291626
 20
19.608292
  0
HATCH
  5
186
102
{ACAD_REACTORS
330
184
102
}
100
AcDbEntity
  8
SPACE
 62
    54
100
AcDbHatch
 10
0.0
 20
0.0
 30
0.0
210
0.0
220
0.0
230
1.0
  2
SOLID
 70
     1
 71
     1
 91
        1
 92
        3
 72
     0
 73
     1
 93
        9
 10
35.0235702260395669
 20
19.6082924482617784
 10
35.0235702260395669
 20
65.0235702260395669
 10
9.7916257815951599
 20
65.0235702260395669
 10
9.7916257815951599
 20
58.358292448262219
 10
30.291625781594977
 20
58.358292448262219
 10
30.291625781594977
 20
43.3582924482617642
 10
30.291625781594977
 20
43.1916257815952491
 10
30.291625781594977
 20
43.0249591149282793
 10
30.2916257815952292
 20
19.6082924482617784
 97
        1
330
185
 75
     0
 76
     1
 98
        0
  0
MTEXT
  5
187
100
AcDbEntity
  8
SPACE
100
AcDbMText
 10
21.791626
 20
61.249325
 30
0.0
 40
0.500004
 41
2.948215
 71
     5
 72
     5
  1
\C7;\fCalibri|b0|i0|;\H0.50000381469727;Passage\P352 sq ft\P\P
  0
LWPOLYLINE
  5
189
102
{ACAD_REACTORS
330
188
102
}
100
AcDbEntity
  8
BUILDING_ENVELOPE
  6
CONTINUOUS
 62
     7
100
AcDbPolyline
 90
        6
 70
     1
 10
15.291626
 20
0.356904
 10
30.291626
 20
0.356904
 10
30.291626
 20
0.190237
 10
30.291626
 20
0.02357
 10
15.291626
 20
0.02357
 10
15.291626
 20
0.190237
  0
LWPOLYLINE
  5
18A
102
{ACAD_REACTORS
330
188
102
}
100
AcDbEntity
  8
BUILDING_ENVELOPE
  6
CONTINUOUS
 62
     7
100
AcDbPolyline
 90
        4
 70
     0
 10
15.291626
 20
0.190237
 10
15.291626
 20
0.356904
 10
30.291626
 20
0.356904
 10
30.291626
 20
0.190237
  0
LWPOLYLINE
  5
18B
102
{ACAD_REACTORS
330
188
102
}
100
AcDbEntity
  8
BUILDING_ENVELOPE
  6
CONTINUOUS
 62
     7
100
AcDbPolyline
 90
        4
 70
     0
 10
15.291626
 20
0.190237
 10
15.291626
 20
0.02357
 10
30.291626
 20
0.02357
 10
30.291626
 20
0.190237
  0
LWPOLYLINE
  5
18D
102
{ACAD_REACTORS
330
193
102
}
100
AcDbEntity
  8
BUILDING_ENVELOPE
  6
CONTINUOUS
 62
     7
100
AcDbPolyline
 90
        4
 70
     1
 10
4.816988
 20
58.016959
 10
0.766264
 20
58.016959
 10
0.766264
 20
58.366292
 10
4.816988
 20
58.366292
  0
LINE
  5
18E
102
{ACAD_REACTORS
330
193
102
}
100
AcDbEntity
  8
BUILDING_ENVELOPE
  6
CONTINUOUS
 62
     7
100
AcDbLine
 10
0.766264
 20
58.024959
 30
0.0
 11
0.766264
 21
58.358292
 31
0.0
  0
LINE
  5
18F
102
{ACAD_REACTORS
330
193
102
}
100
AcDbEntity
  8
BUILDING_ENVELOPE
  6
CONTINUOUS
 62
     7
100
AcDbLine
 10
0.766264
 20
58.358292
 30
0.0
 11
0.93293
 21
58.358292
 31
0.0
  0
LINE
  5
190
102
{ACAD_REACTORS
330
193
102
}
100
AcDbEntity
  8
BUILDING_ENVELOPE
  6
CONTINUOUS
 62
     7
100
AcDbLine
 10
0.93293
 20
58.358292
 30
0.0
 11
0.93293
 21
58.233292
 31
0.0
  0
LINE
  5
191
102
{ACAD_REACTORS
330
193
102
}
100
AcDbEntity
  8
BUILDING_ENVELOPE
  6
CONTINUOUS
 62
     7
100
AcDbLine
 10
0.93293
 20
58.108292
 30
0.0
 11
0.93293
 21
58.024959
 31
0.0
  0
LINE
  5
192
102
{ACAD_REACTORS
330
193
102
}
100
AcDbEntity
  8
BUILDING_ENVELOPE
  6
CONTINUOUS
 62
     7
100
AcDbLine
 10
0.93293
 20
58.024959
 30
0.0
 11
0.766264
 21
58.024959
 31
0.0
  0
HATCH
  5
193
102
{ACAD_REACTORS
330
18C
102
}
100
AcDbEntity
  8
BUILDING_ENVELOPE
 62
     7
100
AcDbHatch
 10
0.0
 20
0.0
 30
0.0
210
0.0
220
0.0
230
1.0
  2
SOLID
 70
     1
 71
     1
 91
        2
 92
        1
 93
        6
 72
     1
 10
0.7662635693444166
 20
58.0249591149284356
 11
0.7662635693444166
 21
58.3582924482617642
 72
     1
 10
0.7662635693444166
 20
58.3582924482617642
 11
0.9329302360110834
 21
58.3582924482617642
 72
     1
 10
0.9329302360110834
 20
58.3582924482617642
 11
0.9329302360110834
 21
58.2332924482617642
 72
     1
 10
0.9329302360110834
 20
58.2332924482617642
 11
0.9329302360110834
 21
58.1082924482617642
 72
     1
 10
0.9329302360110834
 20
58.1082924482617642
 11
0.9329302360110834
 21
58.0249591149284356
 72
     1
 10
0.9329302360110834
 20
58.0249591149284356
 11
0.7662635693444166
 21
58.0249591149284356
 97
        7
330
189
330
18D
330
18E
330
18F
330
190
330
191
330
192
 92
        1
 93
        6
 72
     1
 10
4.8169882322645083
 20
58.0249591149284356
 11
4.8169882322645083
 21
58.3582924482617642
 72
     1
 10
4.8169882322645083
 20
58.3582924482617642
 11
4.6503215655978423
 21
58.3582924482617642
 72
     1
 10
4.6503215655978423
 20
58.3582924482617642
 11
4.6503215655978423
 21
58.2332924482617642
 72
     1
 10
4.6503215655978423
 20
58.2332924482617642
 11
4.6503215655978423
 21
58.1082924482617642
 72
     1
 10
4.6503215655978423
 20
58.1082924482617642
 11
4.6503215655978423
 21
58.0249591149284356
 72
     1
 10
4.6503215655978423
 20
58.0249591149284356
 11
4.8169882322645083
 21
58.0249591149284356
 97
        5
330
194
330
195
330
196
330
197
330
198
 75
     0
 76
     1
 98
        0
  0
LINE
  5
194
102
{ACAD_REACTORS
330
193
102
}
100
AcDbEntity
  8
BUILDING_ENVELOPE
  6
CONTINUOUS
 62
     7
100
AcDbLine
 10
4.816988
 20
58.024959
 30
0.0
 11
4.816988
 21
58.358292
 31
0.0
  0
LINE
  5
195
102
{ACAD_REACTORS
330
193
102
}
100
AcDbEntity
  8
BUILDING_ENVELOPE
  6
CONTINUOUS
 62
     7
100
AcDbLine
 10
4.816988
 20
58.358292
 30
0.0
 11
4.650322
 21
58.358292
 31
0.0
  0
LINE
  5
196
102
{ACAD_REACTORS
330
193
102
}
100
AcDbEntity
  8
BUILDING_ENVELOPE
  6
CONTINUOUS
 62
     7
100
AcDbLine
 10
4.650322
 20
58.358292
 30
0.0
 11
4.650322
 21
58.233292
 31
0.0
  0
LINE
  5
197
102
{ACAD_REACTORS
330
193
102
}
100
AcDbEntity
  8
BUILDING_ENVELOPE
  6
CONTINUOUS
 62
     7
100
AcDbLine
 10
4.650322
 20
58.108292
 30
0.0
 11
4.650322
 21
58.024959
 31
0.0
  0
LINE
  5
198
102
{ACAD_REACTORS
330
193
102
}
100
AcDbEntity
  8
BUILDING_ENVELOPE
  6
CONTINUOUS
 62
     7
100
AcDbLine
 10
4.650322
 20
58.024959
 30
0.0
 11
4.816988
 21
58.024959
 31
0.0
  0
LINE
  5
199
102
{ACAD_REACTORS
330
19C
102
}
100
AcDbEntity
  8
BUILDING_ENVELOPE
  6
CONTINUOUS
 62
     7
100
AcDbLine
 10
0.93293
 20
58.233292
 30
0.0
 11
0.974597
 21
58.233292
 31
0.0
  0
LINE
  5
19A
102
{ACAD_REACTORS
330
19C
102
}
100
AcDbEntity
  8
BUILDING_ENVELOPE
  6
CONTINUOUS
 62
     7
100
AcDbLine
 10
0.974597
 20
58.233292
 30
0.0
 11
0.974597
 21
58.108292
 31
0.0
  0
LINE
  5
19B
102
{ACAD_REACTORS
330
19C
102
}
100
AcDbEntity
  8
BUILDING_ENVELOPE
  6
CONTINUOUS
 62
     7
100
AcDbLine
 10
0.974597
 20
58.108292
 30
0.0
 11
0.93293
 21
58.108292
 31
0.0
  0
HATCH
  5
19C
102
{ACAD_REACTORS
330
18C
102
}
100
AcDbEntity
  8
BUILDING_ENVELOPE
 62
     7
100
AcDbHatch
 10
0.0
 20
0.0
 30
0.0
210
0.0
220
0.0
230
1.0
  2
SOLID
 70
     1
 71
     1
 91
        2
 92
        1
 93
        4
 72
     1
 10
0.9329302360110834
 20
58.2332924482617642
 11
0.97459690267775
 21
58.2332924482617642
 72
     1
 10
0.97459690267775
 20
58.2332924482617642
 11
0.97459690267775
 21
58.1082924482617642
 72
     1
 10
0.97459690267775
 20
58.1082924482617642
 11
0.9329302360110834
 21
58.1082924482617642
 72
     1
 10
0.9329302360110834
 20
58.1082924482617642
 11
0.9329302360110834
 21
58.2332924482617642
 97
        3
330
199
330
19A
330
19B
 92
        1
 93
        4
 72
     1
 10
4.6503215655978423
 20
58.2332924482617642
 11
4.6086548989311753
 21
58.2332924482617642
 72
     1
 10
4.6086548989311753
 20
58.2332924482617642
 11
4.6086548989311753
 21
58.1082924482617642
 72
     1
 10
4.6086548989311753
 20
58.1082924482617642
 11
4.6503215655978423
 21
58.1082924482617642
 72
     1
 10
4.6503215655978423
 20
58.1082924482617642
 11
4.6503215655978423
 21
58.2332924482617642
 97
        3
330
19D
330
19E
330
19F
 75
     0
 76
     1
 98
        0
  0
LINE
  5
19D
102
{ACAD_REACTORS
330
19C
102
}
100
AcDbEntity
  8
BUILDING_ENVELOPE
  6
CONTINUOUS
 62
     7
100
AcDbLine
 10
4.650322
 20
58.233292
 30
0.0
 11
4.608655
 21
58.233292
 31
0.0
  0
LINE
  5
19E
102
{ACAD_REACTORS
330
19C
102
}
100
AcDbEntity
  8
BUILDING_ENVELOPE
  6
CONTINUOUS
 62
     7
100
AcDbLine
 10
4.608655
 20
58.233292
 30
0.0
 11
4.608655
 21
58.108292
 31
0.0
  0
LINE
  5
19F
102
{ACAD_REACTORS
330
19C
102
}
100
AcDbEntity
  8
BUILDING_ENVELOPE
  6
CONTINUOUS
 62
     7
100
AcDbLine
 10
4.608655
 20
58.108292
 30
0.0
 11
4.650322
 21
58.108292
 31
0.0
  0
LINE
  5
1A0
102
{ACAD_REACTORS
330
18C
102
}
100
AcDbEntity
  8
BUILDING_ENVELOPE
  6
CONTINUOUS
 62
     7
100
AcDbLine
 10
0.766264
 20
58.024959
 30
0.0
 11
0.766264
 21
58.358292
 31
0.0
  0
LINE
  5
1A1
102
{ACAD_REACTORS
330
18C
102
}
100
AcDbEntity
  8
BUILDING_ENVELOPE
  6
CONTINUOUS
 62
     7
100
AcDbLine
 10
4.816988
 20
58.024959
 30
0.0
 11
4.816988
 21
58.358292
 31
0.0
  0
ARC
  5
1A2
102
{ACAD_REACTORS
330
18C
102
}
100
AcDbEntity
  8
BUILDING_ENVELOPE
  6
CONTINUOUS
 62
     7
100
AcDbCircle
 10
0.93293
 20
58.358292
 30
0.0
 40
3.717391
100
AcDbArc
 50
0.0
 51
90.0
  0
LWPOLYLINE
  5
1A3
102
{ACAD_REACTORS
330
1A4
102
}
100
AcDbEntity
  8
BUILDING_ENVELOPE
  6
CONTINUOUS
 62
     7
100
AcDbPolyline
 90
        4
 70
     1
 10
1.05793
 20
62.075684
 10
1.05793
 20
58.358292
 10
0.93293
 20
58.358292
 10
0.93293
 20
62.075684
  0
HATCH
  5
1A4
102
{ACAD_REACTORS
330
18C
102
}
100
AcDbEntity
  8
BUILDING_ENVELOPE
 62
     7
100
AcDbHatch
 10
0.0
 20
0.0
 30
0.0
210
0.0
220
0.0
230
1.0
  2
SOLID
 70
     1
 71
     1
 91
        1
 92
        3
 72
     0
 73
     1
 93
        4
 10
1.0579302360110834
 20
62.0756837778485249
 10
1.0579302360110834
 20
58.3582924482617642
 10
0.9329302360110834
 20
58.3582924482617642
 10
0.9329302360110834
 20
62.0756837778485249
 97
        1
330
1A3
 75
     0
 76
     1
 98
        0
  0
LWPOLYLINE
  5
1A6
102
{ACAD_REACTORS
330
1AC
102
}
100
AcDbEntity
  8
BUILDING_ENVELOPE
  6
CONTINUOUS
 62
     7
100
AcDbPolyline
 90
        4
 70
     1
 10
21.799626
 20
53.499599
 10
21.799626
 20
57.550323
 10
21.450292
 20
57.550323
 10
21.450292
 20
53.499599
  0
LINE
  5
1A7
102
{ACAD_REACTORS
330
1AC
102
}
100
AcDbEntity
  8
BUILDING_ENVELOPE
  6
CONTINUOUS
 62
     7
100
AcDbLine
 10
21.791626
 20
57.550323
 30
0.0
 11
21.458292
 21
57.550323
 31
0.0
  0
LINE
  5
1A8
102
{ACAD_REACTORS
330
1AC
102
}
100
AcDbEntity
  8
BUILDING_ENVELOPE
  6
CONTINUOUS
 62
     7
100
AcDbLine
 10
21.458292
 20
57.550323
 30
0.0
 11
21.458292
 21
57.383657
 31
0.0
  0
LINE
  5
1A9
102
{ACAD_REACTORS
330
1AC
102
}
100
AcDbEntity
  8
BUILDING_ENVELOPE
  6
CONTINUOUS
 62
     7
100
AcDbLine
 10
21.458292
 20
57.383657
 30
0.0
 11
21.583292
 21
57.383657
 31
0.0
  0
LINE
  5
1AA
102
{ACAD_REACTORS
330
1AC
102
}
100
AcDbEntity
  8
BUILDING_ENVELOPE
  6
CONTINUOUS
 62
     7
100
AcDbLine
 10
21.708292
 20
57.383657
 30
0.0
 11
21.791626
 21
57.383657
 31
0.0
  0
LINE
  5
1AB
102
{ACAD_REACTORS
330
1AC
102
}
100
AcDbEntity
  8
BUILDING_ENVELOPE
  6
CONTINUOUS
 62
     7
100
AcDbLine
 10
21.791626
 20
57.383657
 30
0.0
 11
21.791626
 21
57.550323
 31
0.0
  0
HATCH
  5
1AC
102
{ACAD_REACTORS
330
1A5
102
}
100
AcDbEntity
  8
BUILDING_ENVELOPE
 62
     7
100
AcDbHatch
 10
0.0
 20
0.0
 30
0.0
210
0.0
220
0.0
230
1.0
  2
SOLID
 70
     1
 71
     1
 91
        2
 92
        1
 93
        6
 72
     1
 10
21.7916257815951759
 20
57.5503233707670745
 11
21.4582924482618438
 21
57.5503233707670745
 72
     1
 10
21.4582924482618438
 20
57.5503233707670745
 11
21.4582924482618438
 21
57.3836567041004031
 72
     1
 10
21.4582924482618438
 20
57.3836567041004031
 11
21.5832924482618438
 21
57.3836567041004031
 72
     1
 10
21.5832924482618438
 20
57.3836567041004031
 11
21.7082924482618438
 21
57.3836567041004031
 72
     1
 10
21.7082924482618438
 20
57.3836567041004031
 11
21.7916257815951759
 21
57.3836567041004031
 72
     1
 10
21.7916257815951759
 20
57.3836567041004031
 11
21.7916257815951759
 21
57.5503233707670745
 97
        6
330
1A6
330
1A7
330
1A8
330
1A9
330
1AA
330
1AB
 92
        1
 93
        6
 72
     1
 10
21.7916257815951759
 20
53.4995987078469852
 11
21.4582924482618438
 21
53.4995987078469852
 72
     1
 10
21.4582924482618438
 20
53.4995987078469852
 11
21.4582924482618438
 21
53.6662653745136495
 72
     1
 10
21.4582924482618438
 20
53.6662653745136495
 11
21.5832924482618438
 21
53.6662653745136495
 72
     1
 10
21.5832924482618438
 20
53.6662653745136495
 11
21.7082924482618438
 21
53.6662653745136495
 72
     1
 10
21.7082924482618438
 20
53.6662653745136495
 11
21.7916257815951759
 21
53.6662653745136495
 72
     1
 10
21.7916257815951759
 20
53.6662653745136495
 11
21.7916257815951759
 21
53.4995987078469852
 97
        5
330
1AD
330
1AE
330
1AF
330
1B0
330
1B1
 75
     0
 76
     1
 98
        0
  0
LINE
  5
1AD
102
{ACAD_REACTORS
330
1AC
102
}
100
AcDbEntity
  8
BUILDING_ENVELOPE
  6
CONTINUOUS
 62
     7
100
AcDbLine
 10
21.791626
 20
53.499599
 30
0.0
 11
21.458292
 21
53.499599
 31
0.0
  0
LINE
  5
1AE
102
{ACAD_REACTORS
330
1AC
102
}
100
AcDbEntity
  8
BUILDING_ENVELOPE
  6
CONTINUOUS
 62
     7
100
AcDbLine
 10
21.458292
 20
53.499599
 30
0.0
 11
21.458292
 21
53.666265
 31
0.0
  0
LINE
  5
1AF
102
{ACAD_REACTORS
330
1AC
102
}
100
AcDbEntity
  8
BUILDING_ENVELOPE
  6
CONTINUOUS
 62
     7
100
AcDbLine
 10
21.458292
 20
53.666265
 30
0.0
 11
21.583292
 21
53.666265
 31
0.0
  0
LINE
  5
1B0
102
{ACAD_REACTORS
330
1AC
102
}
100
AcDbEntity
  8
BUILDING_ENVELOPE
  6
CONTINUOUS
 62
     7
100
AcDbLine
 10
21.708292
 20
53.666265
 30
0.0
 11
21.791626
 21
53.666265
 31
0.0
  0
LINE
  5
1B1
102
{ACAD_REACTORS
330
1AC
102
}
100
AcDbEntity
  8
BUILDING_ENVELOPE
  6
CONTINUOUS
 62
     7
100
AcDbLine
 10
21.791626
 20
53.666265
 30
0.0
 11
21.791626
 21
53.499599
 31
0.0
  0
LINE
  5
1B2
102
{ACAD_REACTORS
330
1B5
102
}
100
AcDbEntity
  8
BUILDING_ENVELOPE
  6
CONTINUOUS
 62
     7
100
AcDbLine
 10
21.583292
 20
57.383657
 30
0.0
 11
21.583292
 21
57.34199
 31
0.0
  0
LINE
  5
1B3
102
{ACAD_REACTORS
330
1B5
102
}
100
AcDbEntity
  8
BUILDING_ENVELOPE
  6
CONTINUOUS
 62
     7
100
AcDbLine
 10
21.583292
 20
57.34199
 30
0.0
 11
21.708292
 21
57.34199
 31
0.0
  0
LINE
  5
1B4
102
{ACAD_REACTORS
330
1B5
102
}
100
AcDbEntity
  8
BUILDING_ENVELOPE
  6
CONTINUOUS
 62
     7
100
AcDbLine
 10
21.708292
 20
57.34199
 30
0.0
 11
21.708292
 21
57.383657
 31
0.0
  0
HATCH
  5
1B5
102
{ACAD_REACTORS
330
1A5
102
}
100
AcDbEntity
  8
BUILDING_ENVELOPE
 62
     7
100
AcDbHatch
 10
0.0
 20
0.0
 30
0.0
210
0.0
220
0.0
230
1.0
  2
SOLID
 70
     1
 71
     1
 91
        2
 92
        1
 93
        4
 72
     1
 10
21.5832924482618438
 20
57.3836567041004031
 11
21.5832924482618438
 21
57.3419900374337388
 72
     1
 10
21.5832924482618438
 20
57.3419900374337388
 11
21.7082924482618438
 21
57.3419900374337388
 72
     1
 10
21.7082924482618438
 20
57.3419900374337388
 11
21.7082924482618438
 21
57.3836567041004031
 72
     1
 10
21.7082924482618438
 20
57.3836567041004031
 11
21.5832924482618438
 21
57.3836567041004031
 97
        3
330
1B2
330
1B3
330
1B4
 92
        1
 93
        4
 72
     1
 10
21.5832924482618438
 20
53.6662653745136495
 11
21.5832924482618438
 21
53.7079320411803138
 72
     1
 10
21.5832924482618438
 20
53.7079320411803138
 11
21.7082924482618438
 21
53.7079320411803138
 72
     1
 10
21.7082924482618438
 20
53.7079320411803138
 11
21.7082924482618438
 21
53.6662653745136495
 72
     1
 10
21.7082924482618438
 20
53.6662653745136495
 11
21.5832924482618438
 21
53.6662653745136495
 97
        3
330
1B6
330
1B7
330
1B8
 75
     0
 76
     1
 98
        0
  0
LINE
  5
1B6
102
{ACAD_REACTORS
330
1B5
102
}
100
AcDbEntity
  8
BUILDING_ENVELOPE
  6
CONTINUOUS
 62
     7
100
AcDbLine
 10
21.583292
 20
53.666265
 30
0.0
 11
21.583292
 21
53.707932
 31
0.0
  0
LINE
  5
1B7
102
{ACAD_REACTORS
330
1B5
102
}
100
AcDbEntity
  8
BUILDING_ENVELOPE
  6
CONTINUOUS
 62
     7
100
AcDbLine
 10
21.583292
 20
53.707932
 30
0.0
 11
21.708292
 21
53.707932
 31
0.0
  0
LINE
  5
1B8
102
{ACAD_REACTORS
330
1B5
102
}
100
AcDbEntity
  8
BUILDING_ENVELOPE
  6
CONTINUOUS
 62
     7
100
AcDbLine
 10
21.708292
 20
53.707932
 30
0.0
 11
21.708292
 21
53.666265
 31
0.0
  0
LINE
  5
1B9
102
{ACAD_REACTORS
330
1A5
102
}
100
AcDbEntity
  8
BUILDING_ENVELOPE
  6
CONTINUOUS
 62
     7
100
AcDbLine
 10
21.791626
 20
57.550323
 30
0.0
 11
21.458292
 21
57.550323
 31
0.0
  0
LINE
  5
1BA
102
{ACAD_REACTORS
330
1A5
102
}
100
AcDbEntity
  8
BUILDING_ENVELOPE
  6
CONTINUOUS
 62
     7
100
AcDbLine
 10
21.791626
 20
53.499599
 30
0.0
 11
21.458292
 21
53.499599
 31
0.0
  0
ARC
  5
1BB
102
{ACAD_REACTORS
330
1A5
102
}
100
AcDbEntity
  8
BUILDING_ENVELOPE
  6
CONTINUOUS
 62
     7
100
AcDbCircle
 10
21.458292
 20
57.383657
 30
0.0
 40
3.717391
100
AcDbArc
 50
180.0
 51
270.0
  0
LWPOLYLINE
  5
1BC
102
{ACAD_REACTORS
330
1BD
102
}
100
AcDbEntity
  8
BUILDING_ENVELOPE
  6
CONTINUOUS
 62
     7
100
AcDbPolyline
 90
        4
 70
     1
 10
17.740901
 20
57.258657
 10
21.458292
 20
57.258657
 10
21.458292
 20
57.383657
 10
17.740901
 20
57.383657
  0
HATCH
  5
1BD
102
{ACAD_REACTORS
330
1A5
102
}
100
AcDbEntity
  8
BUILDING_ENVELOPE
 62
     7
100
AcDbHatch
 10
0.0
 20
0.0
 30
0.0
210
0.0
220
0.0
230
1.0
  2
SOLID
 70
     1
 71
     1
 91
        1
 92
        3
 72
     0
 73
     1
 93
        4
 10
17.7409011186750831
 20
57.2586567041004031
 10
21.4582924482618438
 20
57.2586567041004031
 10
21.4582924482618438
 20
57.3836567041004031
 10
17.7409011186750831
 20
57.3836567041004031
 97
        1
330
1BC
 75
     0
 76
     1
 98
        0
  0
LWPOLYLINE
  5
1BF
102
{ACAD_REACTORS
330
1C5
102
}
100
AcDbEntity
  8
BUILDING_ENVELOPE
  6
CONTINUOUS
 62
     7
100
AcDbPolyline
 90
        4
 70
     1
 10
21.450292
 20
47.909019
 10
21.450292
 20
43.858294
 10
21.799626
 20
43.858294
 10
21.799626
 20
47.909019
  0
LINE
  5
1C0
102
{ACAD_REACTORS
330
1C5
102
}
100
AcDbEntity
  8
BUILDING_ENVELOPE
  6
CONTINUOUS
 62
     7
100
AcDbLine
 10
21.458292
 20
43.858294
 30
0.0
 11
21.791626
 21
43.858294
 31
0.0
  0
LINE
  5
1C1
102
{ACAD_REACTORS
330
1C5
102
}
100
AcDbEntity
  8
BUILDING_ENVELOPE
  6
CONTINUOUS
 62
     7
100
AcDbLine
 10
21.791626
 20
43.858294
 30
0.0
 11
21.791626
 21
44.024961
 31
0.0
  0
LINE
  5
1C2
102
{ACAD_REACTORS
330
1C5
102
}
100
AcDbEntity
  8
BUILDING_ENVELOPE
  6
CONTINUOUS
 62
     7
100
AcDbLine
 10
21.791626
 20
44.024961
 30
0.0
 11
21.666626
 21
44.024961
 31
0.0
  0
LINE
  5
1C3
102
{ACAD_REACTORS
330
1C5
102
}
100
AcDbEntity
  8
BUILDING_ENVELOPE
  6
CONTINUOUS
 62
     7
100
AcDbLine
 10
21.541626
 20
44.024961
 30
0.0
 11
21.458292
 21
44.024961
 31
0.0
  0
LINE
  5
1C4
102
{ACAD_REACTORS
330
1C5
102
}
100
AcDbEntity
  8
BUILDING_ENVELOPE
  6
CONTINUOUS
 62
     7
100
AcDbLine
 10
21.458292
 20
44.024961
 30
0.0
 11
21.458292
 21
43.858294
 31
0.0
  0
HATCH
  5
1C5
102
{ACAD_REACTORS
330
1BE
102
}
100
AcDbEntity
  8
BUILDING_ENVELOPE
 62
     7
100
AcDbHatch
 10
0.0
 20
0.0
 30
0.0
210
0.0
220
0.0
230
1.0
  2
SOLID
 70
     1
 71
     1
 91
        2
 92
        1
 93
        6
 72
     1
 10
21.4582924482618012
 20
43.8582939809526948
 11
21.7916257815951333
 21
43.8582939809526948
 72
     1
 10
21.7916257815951333
 20
43.8582939809526948
 11
21.7916257815951333
 21
44.0249606476193662
 72
     1
 10
21.7916257815951333
 20
44.0249606476193662
 11
21.6666257815951333
 21
44.0249606476193662
 72
     1
 10
21.6666257815951333
 20
44.0249606476193662
 11
21.5416257815951333
 21
44.0249606476193662
 72
     1
 10
21.5416257815951333
 20
44.0249606476193662
 11
21.4582924482618012
 21
44.0249606476193662
 72
     1
 10
21.4582924482618012
 20
44.0249606476193662
 11
21.4582924482618012
 21
43.8582939809526948
 97
        6
330
1BF
330
1C0
330
1C1
330
1C2
330
1C3
330
1C4
 92
        1
 93
        6
 72
     1
 10
21.4582924482618012
 20
47.9090186438727841
 11
21.7916257815951333
 21
47.9090186438727841
 72
     1
 10
21.7916257815951333
 20
47.9090186438727841
 11
21.7916257815951333
 21
47.7423519772061198
 72
     1
 10
21.7916257815951333
 20
47.7423519772061198
 11
21.6666257815951333
 21
47.7423519772061198
 72
     1
 10
21.6666257815951333
 20
47.7423519772061198
 11
21.5416257815951333
 21
47.7423519772061198
 72
     1
 10
21.5416257815951333
 20
47.7423519772061198
 11
21.4582924482618012
 21
47.7423519772061198
 72
     1
 10
21.4582924482618012
 20
47.7423519772061198
 11
21.4582924482618012
 21
47.9090186438727841
 97
        5
330
1C6
330
1C7
330
1C8
330
1C9
330
1CA
 75
     0
 76
     1
 98
        0
  0
LINE
  5
1C6
102
{ACAD_REACTORS
330
1C5
102
}
100
AcDbEntity
  8
BUILDING_ENVELOPE
  6
CONTINUOUS
 62
     7
100
AcDbLine
 10
21.458292
 20
47.909019
 30
0.0
 11
21.791626
 21
47.909019
 31
0.0
  0
LINE
  5
1C7
102
{ACAD_REACTORS
330
1C5
102
}
100
AcDbEntity
  8
BUILDING_ENVELOPE
  6
CONTINUOUS
 62
     7
100
AcDbLine
 10
21.791626
 20
47.909019
 30
0.0
 11
21.791626
 21
47.742352
 31
0.0
  0
LINE
  5
1C8
102
{ACAD_REACTORS
330
1C5
102
}
100
AcDbEntity
  8
BUILDING_ENVELOPE
  6
CONTINUOUS
 62
     7
100
AcDbLine
 10
21.791626
 20
47.742352
 30
0.0
 11
21.666626
 21
47.742352
 31
0.0
  0
LINE
  5
1C9
102
{ACAD_REACTORS
330
1C5
102
}
100
AcDbEntity
  8
BUILDING_ENVELOPE
  6
CONTINUOUS
 62
     7
100
AcDbLine
 10
21.541626
 20
47.742352
 30
0.0
 11
21.458292
 21
47.742352
 31
0.0
  0
LINE
  5
1CA
102
{ACAD_REACTORS
330
1C5
102
}
100
AcDbEntity
  8
BUILDING_ENVELOPE
  6
CONTINUOUS
 62
     7
100
AcDbLine
 10
21.458292
 20
47.742352
 30
0.0
 11
21.458292
 21
47.909019
 31
0.0
  0
LINE
  5
1CB
102
{ACAD_REACTORS
330
1CE
102
}
100
AcDbEntity
  8
BUILDING_ENVELOPE
  6
CONTINUOUS
 62
     7
100
AcDbLine
 10
21.666626
 20
44.024961
 30
0.0
 11
21.666626
 21
44.066627
 31
0.0
  0
LINE
  5
1CC
102
{ACAD_REACTORS
330
1CE
102
}
100
AcDbEntity
  8
BUILDING_ENVELOPE
  6
CONTINUOUS
 62
     7
100
AcDbLine
 10
21.666626
 20
44.066627
 30
0.0
 11
21.541626
 21
44.066627
 31
0.0
  0
LINE
  5
1CD
102
{ACAD_REACTORS
330
1CE
102
}
100
AcDbEntity
  8
BUILDING_ENVELOPE
  6
CONTINUOUS
 62
     7
100
AcDbLine
 10
21.541626
 20
44.066627
 30
0.0
 11
21.541626
 21
44.024961
 31
0.0
  0
HATCH
  5
1CE
102
{ACAD_REACTORS
330
1BE
102
}
100
AcDbEntity
  8
BUILDING_ENVELOPE
 62
     7
100
AcDbHatch
 10
0.0
 20
0.0
 30
0.0
210
0.0
220
0.0
230
1.0
  2
SOLID
 70
     1
 71
     1
 91
        2
 92
        1
 93
        4
 72
     1
 10
21.6666257815951333
 20
44.0249606476193662
 11
21.6666257815951333
 21
44.0666273142860305
 72
     1
 10
21.6666257815951333
 20
44.0666273142860305
 11
21.5416257815951333
 21
44.0666273142860305
 72
     1
 10
21.5416257815951333
 20
44.0666273142860305
 11
21.5416257815951333
 21
44.0249606476193662
 72
     1
 10
21.5416257815951333
 20
44.0249606476193662
 11
21.6666257815951333
 21
44.0249606476193662
 97
        3
330
1CB
330
1CC
330
1CD
 92
        1
 93
        4
 72
     1
 10
21.6666257815951333
 20
47.7423519772061198
 11
21.6666257815951333
 21
47.7006853105394555
 72
     1
 10
21.6666257815951333
 20
47.7006853105394555
 11
21.5416257815951333
 21
47.7006853105394555
 72
     1
 10
21.5416257815951333
 20
47.7006853105394555
 11
21.5416257815951333
 21
47.7423519772061198
 72
     1
 10
21.5416257815951333
 20
47.7423519772061198
 11
21.6666257815951333
 21
47.7423519772061198
 97
        3
330
1CF
330
1D0
330
1D1
 75
     0
 76
     1
 98
        0
  0
LINE
  5
1CF
102
{ACAD_REACTORS
330
1CE
102
}
100
AcDbEntity
  8
BUILDING_ENVELOPE
  6
CONTINUOUS
 62
     7
100
AcDbLine
 10
21.666626
 20
47.742352
 30
0.0
 11
21.666626
 21
47.700685
 31
0.0
  0
LINE
  5
1D0
102
{ACAD_REACTORS
330
1CE
102
}
100
AcDbEntity
  8
BUILDING_ENVELOPE
  6
CONTINUOUS
 62
     7
100
AcDbLine
 10
21.666626
 20
47.700685
 30
0.0
 11
21.541626
 21
47.700685
 31
0.0
  0
LINE
  5
1D1
102
{ACAD_REACTORS
330
1CE
102
}
100
AcDbEntity
  8
BUILDING_ENVELOPE
  6
CONTINUOUS
 62
     7
100
AcDbLine
 10
21.541626
 20
47.700685
 30
0.0
 11
21.541626
 21
47.742352
 31
0.0
  0
LINE
  5
1D2
102
{ACAD_REACTORS
330
1BE
102
}
100
AcDbEntity
  8
BUILDING_ENVELOPE
  6
CONTINUOUS
 62
     7
100
AcDbLine
 10
21.458292
 20
43.858294
 30
0.0
 11
21.791626
 21
43.858294
 31
0.0
  0
LINE
  5
1D3
102
{ACAD_REACTORS
330
1BE
102
}
100
AcDbEntity
  8
BUILDING_ENVELOPE
  6
CONTINUOUS
 62
     7
100
AcDbLine
 10
21.458292
 20
47.909019
 30
0.0
 11
21.791626
 21
47.909019
 31
0.0
  0
ARC
  5
1D4
102
{ACAD_REACTORS
330
1BE
102
}
100
AcDbEntity
  8
BUILDING_ENVELOPE
  6
CONTINUOUS
 62
     7
100
AcDbCircle
 10
21.791626
 20
44.024961
 30
0.0
 40
3.717391
100
AcDbArc
 50
0.0
 51
90.0
  0
LWPOLYLINE
  5
1D5
102
{ACAD_REACTORS
330
1D6
102
}
100
AcDbEntity
  8
BUILDING_ENVELOPE
  6
CONTINUOUS
 62
     7
100
AcDbPolyline
 90
        4
 70
     1
 10
25.509017
 20
44.149961
 10
21.791626
 20
44.149961
 10
21.791626
 20
44.024961
 10
25.509017
 20
44.024961
  0
HATCH
  5
1D6
102
{ACAD_REACTORS
330
1BE
102
}
100
AcDbEntity
  8
BUILDING_ENVELOPE
 62
     7
100
AcDbHatch
 10
0.0
 20
0.0
 30
0.0
210
0.0
220
0.0
230
1.0
  2
SOLID
 70
     1
 71
     1
 91
        1
 92
        3
 72
     0
 73
     1
 93
        4
 10
25.509017111181894
 20
44.1499606476193662
 10
21.7916257815951333
 20
44.1499606476193662
 10
21.7916257815951333
 20
44.0249606476193662
 10
25.509017111181894
 20
44.0249606476193662
 97
        1
330
1D5
 75
     0
 76
     1
 98
        0
  0
LWPOLYLINE
  5
1D8
102
{ACAD_REACTORS
330
1DE
102
}
100
AcDbEntity
  8
BUILDING_ENVELOPE
  6
CONTINUOUS
 62
     7
100
AcDbPolyline
 90
        4
 70
     1
 10
16.299626
 20
46.691627
 10
16.299626
 20
42.640903
 10
15.950292
 20
42.640903
 10
15.950292
 20
46.691627
  0
LINE
  5
1D9
102
{ACAD_REACTORS
330
1DE
102
}
100
AcDbEntity
  8
BUILDING_ENVELOPE
  6
CONTINUOUS
 62
     7
100
AcDbLine
 10
16.291626
 20
42.640903
 30
0.0
 11
15.958292
 21
42.640903
 31
0.0
  0
LINE
  5
1DA
102
{ACAD_REACTORS
330
1DE
102
}
100
AcDbEntity
  8
BUILDING_ENVELOPE
  6
CONTINUOUS
 62
     7
100
AcDbLine
 10
15.958292
 20
42.640903
 30
0.0
 11
15.958292
 21
42.807569
 31
0.0
  0
LINE
  5
1DB
102
{ACAD_REACTORS
330
1DE
102
}
100
AcDbEntity
  8
BUILDING_ENVELOPE
  6
CONTINUOUS
 62
     7
100
AcDbLine
 10
15.958292
 20
42.807569
 30
0.0
 11
16.083292
 21
42.807569
 31
0.0
  0
LINE
  5
1DC
102
{ACAD_REACTORS
330
1DE
102
}
100
AcDbEntity
  8
BUILDING_ENVELOPE
  6
CONTINUOUS
 62
     7
100
AcDbLine
 10
16.208292
 20
42.807569
 30
0.0
 11
16.291626
 21
42.807569
 31
0.0
  0
LINE
  5
1DD
102
{ACAD_REACTORS
330
1DE
102
}
100
AcDbEntity
  8
BUILDING_ENVELOPE
  6
CONTINUOUS
 62
     7
100
AcDbLine
 10
16.291626
 20
42.807569
 30
0.0
 11
16.291626
 21
42.640903
 31
0.0
  0
HATCH
  5
1DE
102
{ACAD_REACTORS
330
1D7
102
}
100
AcDbEntity
  8
BUILDING_ENVELOPE
 62
     7
100
AcDbHatch
 10
0.0
 20
0.0
 30
0.0
210
0.0
220
0.0
230
1.0
  2
SOLID
 70
     1
 71
     1
 91
        2
 92
        1
 93
        6
 72
     1
 10
16.2916257815951226
 20
42.640902736515379
 11
15.9582924482617905
 21
42.640902736515379
 72
     1
 10
15.9582924482617905
 20
42.640902736515379
 11
15.9582924482617905
 21
42.8075694031820504
 72
     1
 10
15.9582924482617905
 20
42.8075694031820504
 11
16.0832924482617905
 21
42.8075694031820504
 72
     1
 10
16.0832924482617905
 20
42.8075694031820504
 11
16.2082924482617905
 21
42.8075694031820504
 72
     1
 10
16.2082924482617905
 20
42.8075694031820504
 11
16.2916257815951226
 21
42.8075694031820504
 72
     1
 10
16.2916257815951226
 20
42.8075694031820504
 11
16.2916257815951226
 21
42.640902736515379
 97
        6
330
1D8
330
1D9
330
1DA
330
1DB
330
1DC
330
1DD
 92
        1
 93
        6
 72
     1
 10
16.2916257815951226
 20
46.6916273994354754
 11
15.9582924482617905
 21
46.6916273994354754
 72
     1
 10
15.9582924482617905
 20
46.6916273994354754
 11
15.9582924482617905
 21
46.524960732768804
 72
     1
 10
15.9582924482617905
 20
46.524960732768804
 11
16.0832924482617905
 21
46.524960732768804
 72
     1
 10
16.0832924482617905
 20
46.524960732768804
 11
16.2082924482617905
 21
46.524960732768804
 72
     1
 10
16.2082924482617905
 20
46.524960732768804
 11
16.2916257815951226
 21
46.524960732768804
 72
     1
 10
16.2916257815951226
 20
46.524960732768804
 11
16.2916257815951226
 21
46.6916273994354754
 97
        5
330
1DF
330
1E0
330
1E1
330
1E2
330
1E3
 75
     0
 76
     1
 98
        0
  0
LINE
  5
1DF
102
{ACAD_REACTORS
330
1DE
102
}
100
AcDbEntity
  8
BUILDING_ENVELOPE
  6
CONTINUOUS
 62
     7
100
AcDbLine
 10
16.291626
 20
46.691627
 30
0.0
 11
15.958292
 21
46.691627
 31
0.0
  0
LINE
  5
1E0
102
{ACAD_REACTORS
330
1DE
102
}
100
AcDbEntity
  8
BUILDING_ENVELOPE
  6
CONTINUOUS
 62
     7
100
AcDbLine
 10
15.958292
 20
46.691627
 30
0.0
 11
15.958292
 21
46.524961
 31
0.0
  0
LINE
  5
1E1
102
{ACAD_REACTORS
330
1DE
102
}
100
AcDbEntity
  8
BUILDING_ENVELOPE
  6
CONTINUOUS
 62
     7
100
AcDbLine
 10
15.958292
 20
46.524961
 30
0.0
 11
16.083292
 21
46.524961
 31
0.0
  0
LINE
  5
1E2
102
{ACAD_REACTORS
330
1DE
102
}
100
AcDbEntity
  8
BUILDING_ENVELOPE
  6
CONTINUOUS
 62
     7
100
AcDbLine
 10
16.208292
 20
46.524961
 30
0.0
 11
16.291626
 21
46.524961
 31
0.0
  0
LINE
  5
1E3
102
{ACAD_REACTORS
330
1DE
102
}
100
AcDbEntity
  8
BUILDING_ENVELOPE
  6
CONTINUOUS
 62
     7
100
AcDbLine
 10
16.291626
 20
46.524961
 30
0.0
 11
16.291626
 21
46.691627
 31
0.0
  0
LINE
  5
1E4
102
{ACAD_REACTORS
330
1E7
102
}
100
AcDbEntity
  8
BUILDING_ENVELOPE
  6
CONTINUOUS
 62
     7
100
AcDbLine
 10
16.083292
 20
42.807569
 30
0.0
 11
16.083292
 21
42.849236
 31
0.0
  0
LINE
  5
1E5
102
{ACAD_REACTORS
330
1E7
102
}
100
AcDbEntity
  8
BUILDING_ENVELOPE
  6
CONTINUOUS
 62
     7
100
AcDbLine
 10
16.083292
 20
42.849236
 30
0.0
 11
16.208292
 21
42.849236
 31
0.0
  0
LINE
  5
1E6
102
{ACAD_REACTORS
330
1E7
102
}
100
AcDbEntity
  8
BUILDING_ENVELOPE
  6
CONTINUOUS
 62
     7
100
AcDbLine
 10
16.208292
 20
42.849236
 30
0.0
 11
16.208292
 21
42.807569
 31
0.0
  0
HATCH
  5
1E7
102
{ACAD_REACTORS
330
1D7
102
}
100
AcDbEntity
  8
BUILDING_ENVELOPE
 62
     7
100
AcDbHatch
 10
0.0
 20
0.0
 30
0.0
210
0.0
220
0.0
230
1.0
  2
SOLID
 70
     1
 71
     1
 91
        2
 92
        1
 93
        4
 72
     1
 10
16.0832924482617905
 20
42.8075694031820504
 11
16.0832924482617905
 21
42.8492360698487147
 72
     1
 10
16.0832924482617905
 20
42.8492360698487147
 11
16.2082924482617905
 21
42.8492360698487147
 72
     1
 10
16.2082924482617905
 20
42.8492360698487147
 11
16.2082924482617905
 21
42.8075694031820504
 72
     1
 10
16.2082924482617905
 20
42.8075694031820504
 11
16.0832924482617905
 21
42.8075694031820504
 97
        3
330
1E4
330
1E5
330
1E6
 92
        1
 93
        4
 72
     1
 10
16.0832924482617905
 20
46.524960732768804
 11
16.0832924482617905
 21
46.4832940661021397
 72
     1
 10
16.0832924482617905
 20
46.4832940661021397
 11
16.2082924482617905
 21
46.4832940661021397
 72
     1
 10
16.2082924482617905
 20
46.4832940661021397
 11
16.2082924482617905
 21
46.524960732768804
 72
     1
 10
16.2082924482617905
 20
46.524960732768804
 11
16.0832924482617905
 21
46.524960732768804
 97
        3
330
1E8
330
1E9
330
1EA
 75
     0
 76
     1
 98
        0
  0
LINE
  5
1E8
102
{ACAD_REACTORS
330
1E7
102
}
100
AcDbEntity
  8
BUILDING_ENVELOPE
  6
CONTINUOUS
 62
     7
100
AcDbLine
 10
16.083292
 20
46.524961
 30
0.0
 11
16.083292
 21
46.483294
 31
0.0
  0
LINE
  5
1E9
102
{ACAD_REACTORS
330
1E7
102
}
100
AcDbEntity
  8
BUILDING_ENVELOPE
  6
CONTINUOUS
 62
     7
100
AcDbLine
 10
16.083292
 20
46.483294
 30
0.0
 11
16.208292
 21
46.483294
 31
0.0
  0
LINE
  5
1EA
102
{ACAD_REACTORS
330
1E7
102
}
100
AcDbEntity
  8
BUILDING_ENVELOPE
  6
CONTINUOUS
 62
     7
100
AcDbLine
 10
16.208292
 20
46.483294
 30
0.0
 11
16.208292
 21
46.524961
 31
0.0
  0
LINE
  5
1EB
102
{ACAD_REACTORS
330
1D7
102
}
100
AcDbEntity
  8
BUILDING_ENVELOPE
  6
CONTINUOUS
 62
     7
100
AcDbLine
 10
16.291626
 20
42.640903
 30
0.0
 11
15.958292
 21
42.640903
 31
0.0
  0
LINE
  5
1EC
102
{ACAD_REACTORS
330
1D7
102
}
100
AcDbEntity
  8
BUILDING_ENVELOPE
  6
CONTINUOUS
 62
     7
100
AcDbLine
 10
16.291626
 20
46.691627
 30
0.0
 11
15.958292
 21
46.691627
 31
0.0
  0
ARC
  5
1ED
102
{ACAD_REACTORS
330
1D7
102
}
100
AcDbEntity
  8
BUILDING_ENVELOPE
  6
CONTINUOUS
 62
     7
100
AcDbCircle
 10
15.958292
 20
42.807569
 30
0.0
 40
3.717391
100
AcDbArc
 50
90.0
 51
180.0
  0
LWPOLYLINE
  5
1EE
102
{ACAD_REACTORS
330
1EF
102
}
100
AcDbEntity
  8
BUILDING_ENVELOPE
  6
CONTINUOUS
 62
     7
100
AcDbPolyline
 90
        4
 70
     1
 10
12.240901
 20
42.932569
 10
15.958292
 20
42.932569
 10
15.958292
 20
42.807569
 10
12.240901
 20
42.807569
  0
HATCH
  5
1EF
102
{ACAD_REACTORS
330
1D7
102
}
100
AcDbEntity
  8
BUILDING_ENVELOPE
 62
     7
100
AcDbHatch
 10
0.0
 20
0.0
 30
0.0
210
0.0
220
0.0
230
1.0
  2
SOLID
 70
     1
 71
     1
 91
        1
 92
        3
 72
     0
 73
     1
 93
        4
 10
12.2409011186750334
 20
42.9325694031820504
 10
15.9582924482617905
 20
42.9325694031820504
 10
15.9582924482617905
 20
42.8075694031820504
 10
12.2409011186750334
 20
42.8075694031820504
 97
        1
330
1EE
 75
     0
 76
     1
 98
        0
  0
LWPOLYLINE
  5
1F1
102
{ACAD_REACTORS
330
1F7
102
}
100
AcDbEntity
  8
BUILDING_ENVELOPE
  6
CONTINUOUS
 62
     7
100
AcDbPolyline
 90
        4
 70
     1
 10
21.450292
 20
38.499598
 10
21.450292
 20
42.550323
 10
21.799626
 20
42.550323
 10
21.799626
 20
38.499598
  0
LINE
  5
1F2
102
{ACAD_REACTORS
330
1F7
102
}
100
AcDbEntity
  8
BUILDING_ENVELOPE
  6
CONTINUOUS
 62
     7
100
AcDbLine
 10
21.458292
 20
42.550323
 30
0.0
 11
21.791626
 21
42.550323
 31
0.0
  0
LINE
  5
1F3
102
{ACAD_REACTORS
330
1F7
102
}
100
AcDbEntity
  8
BUILDING_ENVELOPE
  6
CONTINUOUS
 62
     7
100
AcDbLine
 10
21.791626
 20
42.550323
 30
0.0
 11
21.791626
 21
42.383656
 31
0.0
  0
LINE
  5
1F4
102
{ACAD_REACTORS
330
1F7
102
}
100
AcDbEntity
  8
BUILDING_ENVELOPE
  6
CONTINUOUS
 62
     7
100
AcDbLine
 10
21.791626
 20
42.383656
 30
0.0
 11
21.666626
 21
42.383656
 31
0.0
  0
LINE
  5
1F5
102
{ACAD_REACTORS
330
1F7
102
}
100
AcDbEntity
  8
BUILDING_ENVELOPE
  6
CONTINUOUS
 62
     7
100
AcDbLine
 10
21.541626
 20
42.383656
 30
0.0
 11
21.458292
 21
42.383656
 31
0.0
  0
LINE
  5
1F6
102
{ACAD_REACTORS
330
1F7
102
}
100
AcDbEntity
  8
BUILDING_ENVELOPE
  6
CONTINUOUS
 62
     7
100
AcDbLine
 10
21.458292
 20
42.383656
 30
0.0
 11
21.458292
 21
42.550323
 31
0.0
  0
HATCH
  5
1F7
102
{ACAD_REACTORS
330
1F0
102
}
100
AcDbEntity
  8
BUILDING_ENVELOPE
 62
     7
100
AcDbHatch
 10
0.0
 20
0.0
 30
0.0
210
0.0
220
0.0
230
1.0
  2
SOLID
 70
     1
 71
     1
 91
        2
 92
        1
 93
        6
 72
     1
 10
21.4582924482617798
 20
42.5503228598701142
 11
21.7916257815951155
 21
42.5503228598701142
 72
     1
 10
21.7916257815951155
 20
42.5503228598701142
 11
21.7916257815951155
 21
42.3836561932034499
 72
     1
 10
21.7916257815951155
 20
42.3836561932034499
 11
21.6666257815951155
 21
42.3836561932034499
 72
     1
 10
21.6666257815951155
 20
42.3836561932034499
 11
21.5416257815951155
 21
42.3836561932034499
 72
     1
 10
21.5416257815951155
 20
42.3836561932034499
 11
21.4582924482617798
 21
42.3836561932034499
 72
     1
 10
21.4582924482617798
 20
42.3836561932034499
 11
21.4582924482617798
 21
42.5503228598701142
 97
        6
330
1F1
330
1F2
330
1F3
330
1F4
330
1F5
330
1F6
 92
        1
 93
        6
 72
     1
 10
21.4582924482617798
 20
38.4995981969500178
 11
21.7916257815951155
 21
38.4995981969500178
 72
     1
 10
21.7916257815951155
 20
38.4995981969500178
 11
21.7916257815951155
 21
38.6662648636166892
 72
     1
 10
21.7916257815951155
 20
38.6662648636166892
 11
21.6666257815951155
 21
38.6662648636166892
 72
     1
 10
21.6666257815951155
 20
38.6662648636166892
 11
21.5416257815951155
 21
38.6662648636166892
 72
     1
 10
21.5416257815951155
 20
38.6662648636166892
 11
21.4582924482617798
 21
38.6662648636166892
 72
     1
 10
21.4582924482617798
 20
38.6662648636166892
 11
21.4582924482617798
 21
38.4995981969500178
 97
        5
330
1F8
330
1F9
330
1FA
330
1FB
330
1FC
 75
     0
 76
     1
 98
        0
  0
LINE
  5
1F8
102
{ACAD_REACTORS
330
1F7
102
}
100
AcDbEntity
  8
BUILDING_ENVELOPE
  6
CONTINUOUS
 62
     7
100
AcDbLine
 10
21.458292
 20
38.499598
 30
0.0
 11
21.791626
 21
38.499598
 31
0.0
  0
LINE
  5
1F9
102
{ACAD_REACTORS
330
1F7
102
}
100
AcDbEntity
  8
BUILDING_ENVELOPE
  6
CONTINUOUS
 62
     7
100
AcDbLine
 10
21.791626
 20
38.499598
 30
0.0
 11
21.791626
 21
38.666265
 31
0.0
  0
LINE
  5
1FA
102
{ACAD_REACTORS
330
1F7
102
}
100
AcDbEntity
  8
BUILDING_ENVELOPE
  6
CONTINUOUS
 62
     7
100
AcDbLine
 10
21.791626
 20
38.666265
 30
0.0
 11
21.666626
 21
38.666265
 31
0.0
  0
LINE
  5
1FB
102
{ACAD_REACTORS
330
1F7
102
}
100
AcDbEntity
  8
BUILDING_ENVELOPE
  6
CONTINUOUS
 62
     7
100
AcDbLine
 10
21.541626
 20
38.666265
 30
0.0
 11
21.458292
 21
38.666265
 31
0.0
  0
LINE
  5
1FC
102
{ACAD_REACTORS
330
1F7
102
}
100
AcDbEntity
  8
BUILDING_ENVELOPE
  6
CONTINUOUS
 62
     7
100
AcDbLine
 10
21.458292
 20
38.666265
 30
0.0
 11
21.458292
 21
38.499598
 31
0.0
  0
LINE
  5
1FD
102
{ACAD_REACTORS
330
200
102
}
100
AcDbEntity
  8
BUILDING_ENVELOPE
  6
CONTINUOUS
 62
     7
100
AcDbLine
 10
21.666626
 20
42.383656
 30
0.0
 11
21.666626
 21
42.34199
 31
0.0
  0
LINE
  5
1FE
102
{ACAD_REACTORS
330
200
102
}
100
AcDbEntity
  8
BUILDING_ENVELOPE
  6
CONTINUOUS
 62
     7
100
AcDbLine
 10
21.666626
 20
42.34199
 30
0.0
 11
21.541626
 21
42.34199
 31
0.0
  0
LINE
  5
1FF
102
{ACAD_REACTORS
330
200
102
}
100
AcDbEntity
  8
BUILDING_ENVELOPE
  6
CONTINUOUS
 62
     7
100
AcDbLine
 10
21.541626
 20
42.34199
 30
0.0
 11
21.541626
 21
42.383656
 31
0.0
  0
HATCH
  5
200
102
{ACAD_REACTORS
330
1F0
102
}
100
AcDbEntity
  8
BUILDING_ENVELOPE
 62
     7
100
AcDbHatch
 10
0.0
 20
0.0
 30
0.0
210
0.0
220
0.0
230
1.0
  2
SOLID
 70
     1
 71
     1
 91
        2
 92
        1
 93
        4
 72
     1
 10
21.6666257815951155
 20
42.3836561932034499
 11
21.6666257815951155
 21
42.3419895265367785
 72
     1
 10
21.6666257815951155
 20
42.3419895265367785
 11
21.5416257815951155
 21
42.3419895265367785
 72
     1
 10
21.5416257815951155
 20
42.3419895265367785
 11
21.5416257815951155
 21
42.3836561932034499
 72
     1
 10
21.5416257815951155
 20
42.3836561932034499
 11
21.6666257815951155
 21
42.3836561932034499
 97
        3
330
1FD
330
1FE
330
1FF
 92
        1
 93
        4
 72
     1
 10
21.6666257815951155
 20
38.6662648636166892
 11
21.6666257815951155
 21
38.7079315302833535
 72
     1
 10
21.6666257815951155
 20
38.7079315302833535
 11
21.5416257815951155
 21
38.7079315302833535
 72
     1
 10
21.5416257815951155
 20
38.7079315302833535
 11
21.5416257815951155
 21
38.6662648636166892
 72
     1
 10
21.5416257815951155
 20
38.6662648636166892
 11
21.6666257815951155
 21
38.6662648636166892
 97
        3
330
201
330
202
330
203
 75
     0
 76
     1
 98
        0
  0
LINE
  5
201
102
{ACAD_REACTORS
330
200
102
}
100
AcDbEntity
  8
BUILDING_ENVELOPE
  6
CONTINUOUS
 62
     7
100
AcDbLine
 10
21.666626
 20
38.666265
 30
0.0
 11
21.666626
 21
38.707932
 31
0.0
  0
LINE
  5
202
102
{ACAD_REACTORS
330
200
102
}
100
AcDbEntity
  8
BUILDING_ENVELOPE
  6
CONTINUOUS
 62
     7
100
AcDbLine
 10
21.666626
 20
38.707932
 30
0.0
 11
21.541626
 21
38.707932
 31
0.0
  0
LINE
  5
203
102
{ACAD_REACTORS
330
200
102
}
100
AcDbEntity
  8
BUILDING_ENVELOPE
  6
CONTINUOUS
 62
     7
100
AcDbLine
 10
21.541626
 20
38.707932
 30
0.0
 11
21.541626
 21
38.666265
 31
0.0
  0
LINE
  5
204
102
{ACAD_REACTORS
330
1F0
102
}
100
AcDbEntity
  8
BUILDING_ENVELOPE
  6
CONTINUOUS
 62
     7
100
AcDbLine
 10
21.458292
 20
42.550323
 30
0.0
 11
21.791626
 21
42.550323
 31
0.0
  0
LINE
  5
205
102
{ACAD_REACTORS
330
1F0
102
}
100
AcDbEntity
  8
BUILDING_ENVELOPE
  6
CONTINUOUS
 62
     7
100
AcDbLine
 10
21.458292
 20
38.499598
 30
0.0
 11
21.791626
 21
38.499598
 31
0.0
  0
ARC
  5
206
102
{ACAD_REACTORS
330
1F0
102
}
100
AcDbEntity
  8
BUILDING_ENVELOPE
  6
CONTINUOUS
 62
     7
100
AcDbCircle
 10
21.791626
 20
42.383656
 30
0.0
 40
3.717391
100
AcDbArc
 50
270.0
 51
0.0
  0
LWPOLYLINE
  5
207
102
{ACAD_REACTORS
330
208
102
}
100
AcDbEntity
  8
BUILDING_ENVELOPE
  6
CONTINUOUS
 62
     7
100
AcDbPolyline
 90
        4
 70
     1
 10
25.509017
 20
42.258656
 10
21.791626
 20
42.258656
 10
21.791626
 20
42.383656
 10
25.509017
 20
42.383656
  0
HATCH
  5
208
102
{ACAD_REACTORS
330
1F0
102
}
100
AcDbEntity
  8
BUILDING_ENVELOPE
 62
     7
100
AcDbHatch
 10
0.0
 20
0.0
 30
0.0
210
0.0
220
0.0
230
1.0
  2
SOLID
 70
     1
 71
     1
 91
        1
 92
        3
 72
     0
 73
     1
 93
        4
 10
25.5090171111818762
 20
42.2586561932034499
 10
21.7916257815951155
 20
42.2586561932034499
 10
21.7916257815951155
 20
42.3836561932034499
 10
25.5090171111818762
 20
42.3836561932034499
 97
        1
330
207
 75
     0
 76
     1
 98
        0
  0
LWPOLYLINE
  5
20A
102
{ACAD_REACTORS
330
210
102
}
100
AcDbEntity
  8
BUILDING_ENVELOPE
  6
CONTINUOUS
 62
     7
100
AcDbPolyline
 90
        4
 70
     1
 10
23.783626
 20
26.501151
 10
23.783626
 20
30.551875
 10
24.132959
 20
30.551875
 10
24.132959
 20
26.501151
  0
LINE
  5
20B
102
{ACAD_REACTORS
330
210
102
}
100
AcDbEntity
  8
BUILDING_ENVELOPE
  6
CONTINUOUS
 62
     7
100
AcDbLine
 10
23.791626
 20
30.551875
 30
0.0
 11
24.124959
 21
30.551875
 31
0.0
  0
LINE
  5
20C
102
{ACAD_REACTORS
330
210
102
}
100
AcDbEntity
  8
BUILDING_ENVELOPE
  6
CONTINUOUS
 62
     7
100
AcDbLine
 10
24.124959
 20
30.551875
 30
0.0
 11
24.124959
 21
30.385209
 31
0.0
  0
LINE
  5
20D
102
{ACAD_REACTORS
330
210
102
}
100
AcDbEntity
  8
BUILDING_ENVELOPE
  6
CONTINUOUS
 62
     7
100
AcDbLine
 10
24.124959
 20
30.385209
 30
0.0
 11
23.999959
 21
30.385209
 31
0.0
  0
LINE
  5
20E
102
{ACAD_REACTORS
330
210
102
}
100
AcDbEntity
  8
BUILDING_ENVELOPE
  6
CONTINUOUS
 62
     7
100
AcDbLine
 10
23.874959
 20
30.385209
 30
0.0
 11
23.791626
 21
30.385209
 31
0.0
  0
LINE
  5
20F
102
{ACAD_REACTORS
330
210
102
}
100
AcDbEntity
  8
BUILDING_ENVELOPE
  6
CONTINUOUS
 62
     7
100
AcDbLine
 10
23.791626
 20
30.385209
 30
0.0
 11
23.791626
 21
30.551875
 31
0.0
  0
HATCH
  5
210
102
{ACAD_REACTORS
330
209
102
}
100
AcDbEntity
  8
BUILDING_ENVELOPE
 62
     7
100
AcDbHatch
 10
0.0
 20
0.0
 30
0.0
210
0.0
220
0.0
230
1.0
  2
SOLID
 70
     1
 71
     1
 91
        2
 92
        1
 93
        6
 72
     1
 10
23.7916257815951155
 20
30.5518751955491652
 11
24.1249591149284477
 21
30.5518751955491652
 72
     1
 10
24.1249591149284477
 20
30.5518751955491652
 11
24.1249591149284477
 21
30.3852085288825009
 72
     1
 10
24.1249591149284477
 20
30.3852085288825009
 11
23.9999591149284477
 21
30.3852085288825009
 72
     1
 10
23.9999591149284477
 20
30.3852085288825009
 11
23.8749591149284477
 21
30.3852085288825009
 72
     1
 10
23.8749591149284477
 20
30.3852085288825009
 11
23.7916257815951155
 21
30.3852085288825009
 72
     1
 10
23.7916257815951155
 20
30.3852085288825009
 11
23.7916257815951155
 21
30.5518751955491652
 97
        6
330
20A
330
20B
330
20C
330
20D
330
20E
330
20F
 92
        1
 93
        6
 72
     1
 10
23.7916257815951155
 20
26.5011505326290724
 11
24.1249591149284477
 21
26.5011505326290724
 72
     1
 10
24.1249591149284477
 20
26.5011505326290724
 11
24.1249591149284477
 21
26.6678171992957402
 72
     1
 10
24.1249591149284477
 20
26.6678171992957402
 11
23.9999591149284477
 21
26.6678171992957402
 72
     1
 10
23.9999591149284477
 20
26.6678171992957402
 11
23.8749591149284477
 21
26.6678171992957402
 72
     1
 10
23.8749591149284477
 20
26.6678171992957402
 11
23.7916257815951155
 21
26.6678171992957402
 72
     1
 10
23.7916257815951155
 20
26.6678171992957402
 11
23.7916257815951155
 21
26.5011505326290724
 97
        5
330
211
330
212
330
213
330
214
330
215
 75
     0
 76
     1
 98
        0
  0
LINE
  5
211
102
{ACAD_REACTORS
330
210
102
}
100
AcDbEntity
  8
BUILDING_ENVELOPE
  6
CONTINUOUS
 62
     7
100
AcDbLine
 10
23.791626
 20
26.501151
 30
0.0
 11
24.124959
 21
26.501151
 31
0.0
  0
LINE
  5
212
102
{ACAD_REACTORS
330
210
102
}
100
AcDbEntity
  8
BUILDING_ENVELOPE
  6
CONTINUOUS
 62
     7
100
AcDbLine
 10
24.124959
 20
26.501151
 30
0.0
 11
24.124959
 21
26.667817
 31
0.0
  0
LINE
  5
213
102
{ACAD_REACTORS
330
210
102
}
100
AcDbEntity
  8
BUILDING_ENVELOPE
  6
CONTINUOUS
 62
     7
100
AcDbLine
 10
24.124959
 20
26.667817
 30
0.0
 11
23.999959
 21
26.667817
 31
0.0
  0
LINE
  5
214
102
{ACAD_REACTORS
330
210
102
}
100
AcDbEntity
  8
BUILDING_ENVELOPE
  6
CONTINUOUS
 62
     7
100
AcDbLine
 10
23.874959
 20
26.667817
 30
0.0
 11
23.791626
 21
26.667817
 31
0.0
  0
LINE
  5
215
102
{ACAD_REACTORS
330
210
102
}
100
AcDbEntity
  8
BUILDING_ENVELOPE
  6
CONTINUOUS
 62
     7
100
AcDbLine
 10
23.791626
 20
26.667817
 30
0.0
 11
23.791626
 21
26.501151
 31
0.0
  0
LINE
  5
216
102
{ACAD_REACTORS
330
219
102
}
100
AcDbEntity
  8
BUILDING_ENVELOPE
  6
CONTINUOUS
 62
     7
100
AcDbLine
 10
23.999959
 20
30.385209
 30
0.0
 11
23.999959
 21
30.343542
 31
0.0
  0
LINE
  5
217
102
{ACAD_REACTORS
330
219
102
}
100
AcDbEntity
  8
BUILDING_ENVELOPE
  6
CONTINUOUS
 62
     7
100
AcDbLine
 10
23.999959
 20
30.343542
 30
0.0
 11
23.874959
 21
30.343542
 31
0.0
  0
LINE
  5
218
102
{ACAD_REACTORS
330
219
102
}
100
AcDbEntity
  8
BUILDING_ENVELOPE
  6
CONTINUOUS
 62
     7
100
AcDbLine
 10
23.874959
 20
30.343542
 30
0.0
 11
23.874959
 21
30.385209
 31
0.0
  0
HATCH
  5
219
102
{ACAD_REACTORS
330
209
102
}
100
AcDbEntity
  8
BUILDING_ENVELOPE
 62
     7
100
AcDbHatch
 10
0.0
 20
0.0
 30
0.0
210
0.0
220
0.0
230
1.0
  2
SOLID
 70
     1
 71
     1
 91
        2
 92
        1
 93
        4
 72
     1
 10
23.9999591149284477
 20
30.3852085288825009
 11
23.9999591149284477
 21
30.343541862215833
 72
     1
 10
23.9999591149284477
 20
30.343541862215833
 11
23.8749591149284477
 21
30.343541862215833
 72
     1
 10
23.8749591149284477
 20
30.343541862215833
 11
23.8749591149284477
 21
30.3852085288825009
 72
     1
 10
23.8749591149284477
 20
30.3852085288825009
 11
23.9999591149284477
 21
30.3852085288825009
 97
        3
330
216
330
217
330
218
 92
        1
 93
        4
 72
     1
 10
23.9999591149284477
 20
26.6678171992957402
 11
23.9999591149284477
 21
26.7094838659624045
 72
     1
 10
23.9999591149284477
 20
26.7094838659624045
 11
23.8749591149284477
 21
26.7094838659624045
 72
     1
 10
23.8749591149284477
 20
26.7094838659624045
 11
23.8749591149284477
 21
26.6678171992957402
 72
     1
 10
23.8749591149284477
 20
26.6678171992957402
 11
23.9999591149284477
 21
26.6678171992957402
 97
        3
330
21A
330
21B
330
21C
 75
     0
 76
     1
 98
        0
  0
LINE
  5
21A
102
{ACAD_REACTORS
330
219
102
}
100
AcDbEntity
  8
BUILDING_ENVELOPE
  6
CONTINUOUS
 62
     7
100
AcDbLine
 10
23.999959
 20
26.667817
 30
0.0
 11
23.999959
 21
26.709484
 31
0.0
  0
LINE
  5
21B
102
{ACAD_REACTORS
330
219
102
}
100
AcDbEntity
  8
BUILDING_ENVELOPE
  6
CONTINUOUS
 62
     7
100
AcDbLine
 10
23.999959
 20
26.709484
 30
0.0
 11
23.874959
 21
26.709484
 31
0.0
  0
LINE
  5
21C
102
{ACAD_REACTORS
330
219
102
}
100
AcDbEntity
  8
BUILDING_ENVELOPE
  6
CONTINUOUS
 62
     7
100
AcDbLine
 10
23.874959
 20
26.709484
 30
0.0
 11
23.874959
 21
26.667817
 31
0.0
  0
LINE
  5
21D
102
{ACAD_REACTORS
330
209
102
}
100
AcDbEntity
  8
BUILDING_ENVELOPE
  6
CONTINUOUS
 62
     7
100
AcDbLine
 10
23.791626
 20
30.551875
 30
0.0
 11
24.124959
 21
30.551875
 31
0.0
  0
LINE
  5
21E
102
{ACAD_REACTORS
330
209
102
}
100
AcDbEntity
  8
BUILDING_ENVELOPE
  6
CONTINUOUS
 62
     7
100
AcDbLine
 10
23.791626
 20
26.501151
 30
0.0
 11
24.124959
 21
26.501151
 31
0.0
  0
ARC
  5
21F
102
{ACAD_REACTORS
330
209
102
}
100
AcDbEntity
  8
BUILDING_ENVELOPE
  6
CONTINUOUS
 62
     7
100
AcDbCircle
 10
24.124959
 20
30.385209
 30
0.0
 40
3.717391
100
AcDbArc
 50
270.0
 51
0.0
  0
LWPOLYLINE
  5
220
102
{ACAD_REACTORS
330
221
102
}
100
AcDbEntity
  8
BUILDING_ENVELOPE
  6
CONTINUOUS
 62
     7
100
AcDbPolyline
 90
        4
 70
     1
 10
27.84235
 20
30.260209
 10
24.124959
 20
30.260209
 10
24.124959
 20
30.385209
 10
27.84235
 20
30.385209
  0
HATCH
  5
221
102
{ACAD_REACTORS
330
209
102
}
100
AcDbEntity
  8
BUILDING_ENVELOPE
 62
     7
100
AcDbHatch
 10
0.0
 20
0.0
 30
0.0
210
0.0
220
0.0
230
1.0
  2
SOLID
 70
     1
 71
     1
 91
        1
 92
        3
 72
     0
 73
     1
 93
        4
 10
27.8423504445152084
 20
30.2602085288825009
 10
24.1249591149284477
 20
30.2602085288825009
 10
24.1249591149284477
 20
30.3852085288825009
 10
27.8423504445152084
 20
30.3852085288825009
 97
        1
330
220
 75
     0
 76
     1
 98
        0
  0
LWPOLYLINE
  5
223
102
{ACAD_REACTORS
330
229
102
}
100
AcDbEntity
  8
BUILDING_ENVELOPE
  6
CONTINUOUS
 62
     7
100
AcDbPolyline
 90
        4
 70
     1
 10
16.124959
 20
15.016959
 10
21.458292
 20
15.016959
 10
21.458292
 20
15.366292
 10
16.124959
 20
15.366292
  0
LINE
  5
224
102
{ACAD_REACTORS
330
229
102
}
100
AcDbEntity
  8
BUILDING_ENVELOPE
  6
CONTINUOUS
 62
     7
100
AcDbLine
 10
21.458292
 20
15.024959
 30
0.0
 11
21.458292
 21
15.358292
 31
0.0
  0
LINE
  5
225
102
{ACAD_REACTORS
330
229
102
}
100
AcDbEntity
  8
BUILDING_ENVELOPE
  6
CONTINUOUS
 62
     7
100
AcDbLine
 10
21.458292
 20
15.358292
 30
0.0
 11
21.291626
 21
15.358292
 31
0.0
  0
LINE
  5
226
102
{ACAD_REACTORS
330
229
102
}
100
AcDbEntity
  8
BUILDING_ENVELOPE
  6
CONTINUOUS
 62
     7
100
AcDbLine
 10
21.291626
 20
15.358292
 30
0.0
 11
21.291626
 21
15.233292
 31
0.0
  0
LINE
  5
227
102
{ACAD_REACTORS
330
229
102
}
100
AcDbEntity
  8
BUILDING_ENVELOPE
  6
CONTINUOUS
 62
     7
100
AcDbLine
 10
21.291626
 20
15.108292
 30
0.0
 11
21.291626
 21
15.024959
 31
0.0
  0
LINE
  5
228
102
{ACAD_REACTORS
330
229
102
}
100
AcDbEntity
  8
BUILDING_ENVELOPE
  6
CONTINUOUS
 62
     7
100
AcDbLine
 10
21.291626
 20
15.024959
 30
0.0
 11
21.458292
 21
15.024959
 31
0.0
  0
HATCH
  5
229
102
{ACAD_REACTORS
330
222
102
}
100
AcDbEntity
  8
BUILDING_ENVELOPE
 62
     7
100
AcDbHatch
 10
0.0
 20
0.0
 30
0.0
210
0.0
220
0.0
230
1.0
  2
SOLID
 70
     1
 71
     1
 91
        2
 92
        1
 93
        6
 72
     1
 10
21.458292448261858
 20
15.0249591149284161
 11
21.458292448261858
 21
15.35829244826175
 72
     1
 10
21.458292448261858
 20
15.35829244826175
 11
21.2916257815951901
 21
15.35829244826175
 72
     1
 10
21.2916257815951901
 20
15.35829244826175
 11
21.2916257815951901
 21
15.23329244826175
 72
     1
 10
21.2916257815951901
 20
15.23329244826175
 11
21.2916257815951901
 21
15.10829244826175
 72
     1
 10
21.2916257815951901
 20
15.10829244826175
 11
21.2916257815951901
 21
15.0249591149284161
 72
     1
 10
21.2916257815951901
 20
15.0249591149284161
 11
21.458292448261858
 21
15.0249591149284161
 97
        6
330
223
330
224
330
225
330
226
330
227
330
228
 92
        1
 93
        6
 72
     1
 10
16.1249591149285223
 20
15.0249591149284161
 11
16.1249591149285223
 21
15.35829244826175
 72
     1
 10
16.1249591149285223
 20
15.35829244826175
 11
16.2916257815951901
 21
15.35829244826175
 72
     1
 10
16.2916257815951901
 20
15.35829244826175
 11
16.2916257815951901
 21
15.23329244826175
 72
     1
 10
16.2916257815951901
 20
15.23329244826175
 11
16.2916257815951901
 21
15.10829244826175
 72
     1
 10
16.2916257815951901
 20
15.10829244826175
 11
16.2916257815951901
 21
15.0249591149284161
 72
     1
 10
16.2916257815951901
 20
15.0249591149284161
 11
16.1249591149285223
 21
15.0249591149284161
 97
        5
330
22A
330
22B
330
22C
330
22D
330
22E
 75
     0
 76
     1
 98
        0
  0
LINE
  5
22A
102
{ACAD_REACTORS
330
229
102
}
100
AcDbEntity
  8
BUILDING_ENVELOPE
  6
CONTINUOUS
 62
     7
100
AcDbLine
 10
16.124959
 20
15.024959
 30
0.0
 11
16.124959
 21
15.358292
 31
0.0
  0
LINE
  5
22B
102
{ACAD_REACTORS
330
229
102
}
100
AcDbEntity
  8
BUILDING_ENVELOPE
  6
CONTINUOUS
 62
     7
100
AcDbLine
 10
16.124959
 20
15.358292
 30
0.0
 11
16.291626
 21
15.358292
 31
0.0
  0
LINE
  5
22C
102
{ACAD_REACTORS
330
229
102
}
100
AcDbEntity
  8
BUILDING_ENVELOPE
  6
CONTINUOUS
 62
     7
100
AcDbLine
 10
16.291626
 20
15.358292
 30
0.0
 11
16.291626
 21
15.233292
 31
0.0
  0
LINE
  5
22D
102
{ACAD_REACTORS
330
229
102
}
100
AcDbEntity
  8
BUILDING_ENVELOPE
  6
CONTINUOUS
 62
     7
100
AcDbLine
 10
16.291626
 20
15.108292
 30
0.0
 11
16.291626
 21
15.024959
 31
0.0
  0
LINE
  5
22E
102
{ACAD_REACTORS
330
229
102
}
100
AcDbEntity
  8
BUILDING_ENVELOPE
  6
CONTINUOUS
 62
     7
100
AcDbLine
 10
16.291626
 20
15.024959
 30
0.0
 11
16.124959
 21
15.024959
 31
0.0
  0
LINE
  5
22F
102
{ACAD_REACTORS
330
232
102
}
100
AcDbEntity
  8
BUILDING_ENVELOPE
  6
CONTINUOUS
 62
     7
100
AcDbLine
 10
21.291626
 20
15.233292
 30
0.0
 11
21.249959
 21
15.233292
 31
0.0
  0
LINE
  5
230
102
{ACAD_REACTORS
330
232
102
}
100
AcDbEntity
  8
BUILDING_ENVELOPE
  6
CONTINUOUS
 62
     7
100
AcDbLine
 10
21.249959
 20
15.233292
 30
0.0
 11
21.249959
 21
15.108292
 31
0.0
  0
LINE
  5
231
102
{ACAD_REACTORS
330
232
102
}
100
AcDbEntity
  8
BUILDING_ENVELOPE
  6
CONTINUOUS
 62
     7
100
AcDbLine
 10
21.249959
 20
15.108292
 30
0.0
 11
21.291626
 21
15.108292
 31
0.0
  0
HATCH
  5
232
102
{ACAD_REACTORS
330
222
102
}
100
AcDbEntity
  8
BUILDING_ENVELOPE
 62
     7
100
AcDbHatch
 10
0.0
 20
0.0
 30
0.0
210
0.0
220
0.0
230
1.0
  2
SOLID
 70
     1
 71
     1
 91
        2
 92
        1
 93
        4
 72
     1
 10
21.2916257815951901
 20
15.23329244826175
 11
21.2499591149285223
 21
15.23329244826175
 72
     1
 10
21.2499591149285223
 20
15.23329244826175
 11
21.2499591149285223
 21
15.10829244826175
 72
     1
 10
21.2499591149285223
 20
15.10829244826175
 11
21.2916257815951901
 21
15.10829244826175
 72
     1
 10
21.2916257815951901
 20
15.10829244826175
 11
21.2916257815951901
 21
15.23329244826175
 97
        3
330
22F
330
230
330
231
 92
        1
 93
        4
 72
     1
 10
16.2916257815951901
 20
15.23329244826175
 11
16.333292448261858
 21
15.23329244826175
 72
     1
 10
16.333292448261858
 20
15.23329244826175
 11
16.333292448261858
 21
15.10829244826175
 72
     1
 10
16.333292448261858
 20
15.10829244826175
 11
16.2916257815951901
 21
15.10829244826175
 72
     1
 10
16.2916257815951901
 20
15.10829244826175
 11
16.2916257815951901
 21
15.23329244826175
 97
        3
330
233
330
234
330
235
 75
     0
 76
     1
 98
        0
  0
LINE
  5
233
102
{ACAD_REACTORS
330
232
102
}
100
AcDbEntity
  8
BUILDING_ENVELOPE
  6
CONTINUOUS
 62
     7
100
AcDbLine
 10
16.291626
 20
15.233292
 30
0.0
 11
16.333292
 21
15.233292
 31
0.0
  0
LINE
  5
234
102
{ACAD_REACTORS
330
232
102
}
100
AcDbEntity
  8
BUILDING_ENVELOPE
  6
CONTINUOUS
 62
     7
100
AcDbLine
 10
16.333292
 20
15.233292
 30
0.0
 11
16.333292
 21
15.108292
 31
0.0
  0
LINE
  5
235
102
{ACAD_REACTORS
330
232
102
}
100
AcDbEntity
  8
BUILDING_ENVELOPE
  6
CONTINUOUS
 62
     7
100
AcDbLine
 10
16.333292
 20
15.108292
 30
0.0
 11
16.291626
 21
15.108292
 31
0.0
  0
LINE
  5
236
102
{ACAD_REACTORS
330
222
102
}
100
AcDbEntity
  8
BUILDING_ENVELOPE
  6
CONTINUOUS
 62
     7
100
AcDbLine
 10
21.458292
 20
15.024959
 30
0.0
 11
21.458292
 21
15.358292
 31
0.0
  0
LINE
  5
237
102
{ACAD_REACTORS
330
222
102
}
100
AcDbEntity
  8
BUILDING_ENVELOPE
  6
CONTINUOUS
 62
     7
100
AcDbLine
 10
16.124959
 20
15.024959
 30
0.0
 11
16.124959
 21
15.358292
 31
0.0
  0
ARC
  5
238
102
{ACAD_REACTORS
330
222
102
}
100
AcDbEntity
  8
BUILDING_ENVELOPE
  6
CONTINUOUS
 62
     7
100
AcDbCircle
 10
16.291626
 20
15.358292
 30
0.0
 40
2.5
100
AcDbArc
 50
0.0
 51
90.0
  0
ARC
  5
239
102
{ACAD_REACTORS
330
222
102
}
100
AcDbEntity
  8
BUILDING_ENVELOPE
  6
CONTINUOUS
 62
     7
100
AcDbCircle
 10
21.291626
 20
15.358292
 30
0.0
 40
2.5
100
AcDbArc
 50
90.0
 51
180.0
  0
LWPOLYLINE
  5
23A
102
{ACAD_REACTORS
330
23B
102
}
100
AcDbEntity
  8
BUILDING_ENVELOPE
  6
CONTINUOUS
 62
     7
100
AcDbPolyline
 90
        4
 70
     1
 10
16.291626
 20
17.858292
 10
16.291626
 20
15.358292
 10
16.416626
 20
15.358292
 10
16.416626
 20
17.858292
  0
HATCH
  5
23B
102
{ACAD_REACTORS
330
222
102
}
100
AcDbEntity
  8
BUILDING_ENVELOPE
 62
     7
100
AcDbHatch
 10
0.0
 20
0.0
 30
0.0
210
0.0
220
0.0
230
1.0
  2
SOLID
 70
     1
 71
     1
 91
        1
 92
        3
 72
     0
 73
     1
 93
        4
 10
16.2916257815951901
 20
17.85829244826175
 10
16.2916257815951901
 20
15.35829244826175
 10
16.4166257815951901
 20
15.35829244826175
 10
16.4166257815951901
 20
17.85829244826175
 97
        1
330
23A
 75
     0
 76
     1
 98
        0
  0
LWPOLYLINE
  5
23C
102
{ACAD_REACTORS
330
23D
102
}
100
AcDbEntity
  8
BUILDING_ENVELOPE
  6
CONTINUOUS
 62
     7
100
AcDbPolyline
 90
        4
 70
     1
 10
21.166626
 20
17.858292
 10
21.166626
 20
15.358292
 10
21.291626
 20
15.358292
 10
21.291626
 20
17.858292
  0
HATCH
  5
23D
102
{ACAD_REACTORS
330
222
102
}
100
AcDbEntity
  8
BUILDING_ENVELOPE
 62
     7
100
AcDbHatch
 10
0.0
 20
0.0
 30
0.0
210
0.0
220
0.0
230
1.0
  2
SOLID
 70
     1
 71
     1
 91
        1
 92
        3
 72
     0
 73
     1
 93
        4
 10
21.1666257815951901
 20
17.85829244826175
 10
21.1666257815951901
 20
15.35829244826175
 10
21.2916257815951901
 20
15.35829244826175
 10
21.2916257815951901
 20
17.85829244826175
 97
        1
330
23C
 75
     0
 76
     1
 98
        0
  0
ENDSEC
  0
SECTION
  2
OBJECTS
  0
DICTIONARY
  5
C
100
AcDbDictionary
  3
ACAD_GROUP
350
D
  3
ACAD_MLINESTYLE
350
1B
  3
ACAD_SCALELIST
350
2C
  3
ACAD_VISUALSTYLE
350
51
  3
ACAD_MATERIAL
350
6A
  3
ACAD_TABLESTYLE
350
6E
  3
ACAD_MLEADERSTYLE
350
70
  0
DICTIONARY
  5
D
102
{ACAD_REACTORS
330
C
102
}
100
AcDbDictionary
  3
VISIOGROUP_0
350
74
  3
VISIOGROUP_1
350
7A
  3
VISIOGROUP_2
350
7F
  3
VISIOGROUP_3
350
84
  3
VISIOGROUP_4
350
89
  3
VISIOGROUP_5
350
90
  3
VISIOGROUP_6
350
97
  3
VISIOGROUP_7
350
9E
  3
VISIOGROUP_8
350
A5
  3
VISIOGROUP_9
350
AC
  3
VISIOGROUP_10
350
B5
  3
VISIOGROUP_11
350
BC
  3
VISIOGROUP_12
350
C1
  3
VISIOGROUP_13
350
C8
  3
VISIOGROUP_14
350
CD
  3
VISIOGROUP_15
350
D4
  3
VISIOGROUP_16
350
D9
  3
VISIOGROUP_17
350
DE
  3
VISIOGROUP_18
350
E6
  3
VISIOGROUP_19
350
EB
  3
VISIOGROUP_20
350
F2
  3
VISIOGROUP_21
350
F9
  3
VISIOGROUP_22
350
FE
  3
VISIOGROUP_23
350
103
  3
VISIOGROUP_24
350
10A
  3
VISIOGROUP_25
350
10F
  3
VISIOGROUP_26
350
117
  3
VISIOGROUP_27
350
130
  3
VISIOGROUP_28
350
134
  3
VISIOGROUP_29
350
150
  3
VISIOGROUP_30
350
158
  3
VISIOGROUP_31
350
15C
  3
VISIOGROUP_32
350
163
  3
VISIOGROUP_33
350
167
  3
VISIOGROUP_34
350
16B
  3
VISIOGROUP_35
350
178
  3
VISIOGROUP_36
350
17C
  3
VISIOGROUP_37
350
180
  3
VISIOGROUP_38
350
184
  3
VISIOGROUP_39
350
188
  3
VISIOGROUP_40
350
18C
  3
VISIOGROUP_41
350
1A5
  3
VISIOGROUP_42
350
1BE
  3
VISIOGROUP_43
350
1D7
  3
VISIOGROUP_44
350
1F0
  3
VISIOGROUP_45
350
209
  3
VISIOGROUP_46
350
222
  0
DICTIONARY
  5
1B
102
{ACAD_REACTORS
330
C
102
}
100
AcDbDictionary
  3
STANDARD
350
1C
  0
MLINESTYLE
  5
1C
102
{ACAD_REACTORS
330
1B
102
}
100
AcDbMlineStyle
  2
STANDARD
 70
     0
  3

 62
   256
 51
90.0
 52
90.0
 71
     2
 49
0.5
 62
   256
  6
BYLAYER
 49
-0.5
 62
   256
  6
BYLAYER
  0
DICTIONARY
  5
29
102
{ACAD_REACTORS
330
C
102
}
100
AcDbDictionary
  0
DICTIONARY
  5
2C
102
{ACAD_REACTORS
330
C
102
}
100
AcDbDictionary
  3
A0
350
2D
  3
A1
350
2E
  3
A2
350
2F
  3
A3
350
30
  3
A4
350
31
  3
A5
350
32
  3
A6
350
33
  3
A7
350
34
  3
A8
350
35
  3
A9
350
36
  3
B0
350
37
  3
B1
350
38
  3
B2
350
39
  3
B3
350
3A
  3
B4
350
3B
  3
B5
350
3C
  3
B6
350
3D
  3
B7
350
3E
  3
B8
350
3F
  3
B9
350
40
  3
C0
350
41
  3
C1
350
42
  3
C2
350
43
  3
C3
350
44
  3
C4
350
45
  3
C5
350
46
  3
C6
350
47
  3
C7
350
48
  3
C8
350
49
  3
C9
350
4A
  3
D0
350
4B
  3
D1
350
4C
  3
D2
350
4D
  0
DICTIONARY
  5
4E
102
{ACAD_REACTORS
330
C
102
}
100
AcDbDictionary
  3
MODEL
350
4F
  3
LAYOUT1
350
50
  0
DICTIONARY
  5
51
102
{ACAD_REACTORS
330
C
102
}
100
AcDbDictionary
  3
FLAT
350
52
  3
FLATWITHEDGES
350
53
  3
GOURAUD
350
54
  3
GOURAUDWITHEDGES
350
55
  3
2DWIREFRAME
350
56
  3
WIREFRAME
350
57
  3
HIDDEN
350
58
  3
BASIC
350
59
  3
REALISTIC
350
5A
  3
CONCEPTUAL
350
5B
  3
DIM
350
5C
  3
BRIGHTEN
350
5D
  3
THICKEN
350
5E
  3
LINEPATTERN
350
5F
  3
FACEPATTERN
350
60
  3
COLORCHANGE
350
61
  3
JITTEROFF
350
62
  3
OVERHANGOFF
350
63
  3
EDGECOLOROFF
350
64
  3
SHADES OF GRAY
350
65
  3
SKETCHY
350
66
  3
X-RAY
350
67
  3
SHADED WITH EDGES
350
68
  3
SHADED
350
69
  0
DICTIONARY
  5
6A
102
{ACAD_REACTORS
330
C
102
}
100
AcDbDictionary
  3
BYLAYER
350
6B
  3
BYBLOCK
350
6C
  3
GLOBAL
350
6D
  0
DICTIONARY
  5
6E
102
{ACAD_REACTORS
330
C
102
}
100
AcDbDictionary
  3
STANDARD
350
6F
  0
DICTIONARY
  5
70
102
{ACAD_REACTORS
330
C
102
}
100
AcDbDictionary
  3
STANDARD
350
71
  0
GROUP
  5
74
102
{ACAD_REACTORS
330
D
102
}
100
AcDbGroup
300
Group created by Visio.
 70
     0
 71
     1
340
76
340
77
340
78
340
79
  0
GROUP
  5
7A
102
{ACAD_REACTORS
330
D
102
}
100
AcDbGroup
300
Group created by Visio.
 70
     0
 71
     1
340
7B
340
7C
340
7D
340
7E
  0
GROUP
  5
7F
102
{ACAD_REACTORS
330
D
102
}
100
AcDbGroup
300
Group created by Visio.
 70
     0
 71
     1
340
80
340
81
340
82
340
83
  0
GROUP
  5
84
102
{ACAD_REACTORS
330
D
102
}
100
AcDbGroup
300
Group created by Visio.
 70
     0
 71
     1
340
85
340
86
340
87
340
88
  0
GROUP
  5
89
102
{ACAD_REACTORS
330
D
102
}
100
AcDbGroup
300
Group created by Visio.
 70
     0
 71
     1
340
8A
340
8B
340
8C
340
8D
340
8E
340
8F
  0
GROUP
  5
90
102
{ACAD_REACTORS
330
D
102
}
100
AcDbGroup
300
Group created by Visio.
 70
     0
 71
     1
340
91
340
92
340
93
340
94
340
95
340
96
  0
GROUP
  5
97
102
{ACAD_REACTORS
330
D
102
}
100
AcDbGroup
300
Group created by Visio.
 70
     0
 71
     1
340
98
340
99
340
9A
340
9B
340
9C
340
9D
  0
GROUP
  5
9E
102
{ACAD_REACTORS
330
D
102
}
100
AcDbGroup
300
Group created by Visio.
 70
     0
 71
     1
340
9F
340
A0
340
A1
340
A2
340
A3
340
A4
  0
GROUP
  5
A5
102
{ACAD_REACTORS
330
D
102
}
100
AcDbGroup
300
Group created by Visio.
 70
     0
 71
     1
340
A6
340
A7
340
A8
340
A9
340
AA
340
AB
  0
GROUP
  5
AC
102
{ACAD_REACTORS
330
D
102
}
100
AcDbGroup
300
Group created by Visio.
 70
     0
 71
     1
340
AD
340
AE
340
AF
340
B0
340
B1
340
B2
340
B3
340
B4
  0
GROUP
  5
B5
102
{ACAD_REACTORS
330
D
102
}
100
AcDbGroup
300
Group created by Visio.
 70
     0
 71
     1
340
B6
340
B7
340
B8
340
B9
340
BA
340
BB
  0
GROUP
  5
BC
102
{ACAD_REACTORS
330
D
102
}
100
AcDbGroup
300
Group created by Visio.
 70
     0
 71
     1
340
BD
340
BE
340
BF
340
C0
  0
GROUP
  5
C1
102
{ACAD_REACTORS
330
D
102
}
100
AcDbGroup
300
Group created by Visio.
 70
     0
 71
     1
340
C2
340
C3
340
C4
340
C5
340
C6
340
C7
  0
GROUP
  5
C8
102
{ACAD_REACTORS
330
D
102
}
100
AcDbGroup
300
Group created by Visio.
 70
     0
 71
     1
340
C9
340
CA
340
CB
340
CC
  0
GROUP
  5
CD
102
{ACAD_REACTORS
330
D
102
}
100
AcDbGroup
300
Group created by Visio.
 70
     0
 71
     1
340
CE
340
CF
340
D0
340
D1
340
D2
340
D3
  0
GROUP
  5
D4
102
{ACAD_REACTORS
330
D
102
}
100
AcDbGroup
300
Group created by Visio.
 70
     0
 71
     1
340
D5
340
D6
340
D7
340
D8
  0
GROUP
  5
D9
102
{ACAD_REACTORS
330
D
102
}
100
AcDbGroup
300
Group created by Visio.
 70
     0
 71
     1
340
DA
340
DB
340
DC
340
DD
  0
GROUP
  5
DE
102
{ACAD_REACTORS
330
D
102
}
100
AcDbGroup
300
Group created by Visio.
 70
     0
 71
     1
340
DF
340
E0
340
E1
340
E2
340
E3
340
E4
  0
GROUP
  5
E6
102
{ACAD_REACTORS
330
D
102
}
100
AcDbGroup
300
Group created by Visio.
 70
     0
 71
     1
340
E7
340
E8
340
E9
340
EA
  0
GROUP
  5
EB
102
{ACAD_REACTORS
330
D
102
}
100
AcDbGroup
300
Group created by Visio.
 70
     0
 71
     1
340
EC
340
ED
340
EE
340
EF
340
F0
340
F1
  0
GROUP
  5
F2
102
{ACAD_REACTORS
330
D
102
}
100
AcDbGroup
300
Group created by Visio.
 70
     0
 71
     1
340
F3
340
F4
340
F5
340
F6
340
F7
340
F8
  0
GROUP
  5
F9
102
{ACAD_REACTORS
330
D
102
}
100
AcDbGroup
300
Group created by Visio.
 70
     0
 71
     1
340
FA
340
FB
340
FC
340
FD
  0
GROUP
  5
FE
102
{ACAD_REACTORS
330
D
102
}
100
AcDbGroup
300
Group created by Visio.
 70
     0
 71
     1
340
FF
340
100
340
101
340
102
  0
GROUP
  5
103
102
{ACAD_REACTORS
330
D
102
}
100
AcDbGroup
300
Group created by Visio.
 70
     0
 71
     1
340
104
340
105
340
106
340
107
340
108
340
109
  0
GROUP
  5
10A
102
{ACAD_REACTORS
330
D
102
}
100
AcDbGroup
300
Group created by Visio.
 70
     0
 71
     1
340
10B
340
10C
340
10D
340
10E
  0
GROUP
  5
10F
102
{ACAD_REACTORS
330
D
102
}
100
AcDbGroup
300
Group created by Visio.
 70
     0
 71
     1
340
111
340
112
340
113
340
114
340
115
  0
GROUP
  5
117
102
{ACAD_REACTORS
330
D
102
}
100
AcDbGroup
300
Group created by Visio.
 70
     0
 71
     1
340
118
340
119
340
11A
340
11B
340
11C
340
11D
340
11F
340
120
340
121
340
122
340
123
340
11E
340
124
340
125
340
126
340
128
340
129
340
12A
340
127
340
12B
340
12C
340
12D
340
12E
340
12F
  0
GROUP
  5
130
102
{ACAD_REACTORS
330
D
102
}
100
AcDbGroup
300
Group created by Visio.
 70
     0
 71
     1
340
131
340
132
  0
GROUP
  5
134
102
{ACAD_REACTORS
330
D
102
}
100
AcDbGroup
300
Group created by Visio.
 70
     0
 71
     1
340
135
340
136
340
137
340
138
340
139
340
13A
340
13C
340
13D
340
13E
340
13F
340
140
340
13B
340
141
340
142
340
143
340
145
340
146
340
147
340
144
340
148
340
149
340
14A
340
14B
340
14C
340
14D
340
14E
340
14F
  0
GROUP
  5
150
102
{ACAD_REACTORS
330
D
102
}
100
AcDbGroup
300
Group created by Visio.
 70
     0
 71
     1
340
151
340
152
340
153
340
154
340
155
340
156
  0
GROUP
  5
158
102
{ACAD_REACTORS
330
D
102
}
100
AcDbGroup
300
Group created by Visio.
 70
     0
 71
     1
340
159
340
15A
  0
GROUP
  5
15C
102
{ACAD_REACTORS
330
D
102
}
100
AcDbGroup
300
Group created by Visio.
 70
     0
 71
     1
340
15D
340
15E
340
15F
340
160
340
161
  0
GROUP
  5
163
102
{ACAD_REACTORS
330
D
102
}
100
AcDbGroup
300
Group created by Visio.
 70
     0
 71
     1
340
164
340
165
  0
GROUP
  5
167
102
{ACAD_REACTORS
330
D
102
}
100
AcDbGroup
300
Group created by Visio.
 70
     0
 71
     1
340
168
340
169
  0
GROUP
  5
16B
102
{ACAD_REACTORS
330
D
102
}
100
AcDbGroup
300
Group created by Visio.
 70
     0
 71
     1
340
16C
340
16E
340
16F
340
170
340
16D
340
173
340
174
340
175
340
176
340
177
  0
GROUP
  5
178
102
{ACAD_REACTORS
330
D
102
}
100
AcDbGroup
300
Group created by Visio.
 70
     0
 71
     1
340
179
340
17A
  0
GROUP
  5
17C
102
{ACAD_REACTORS
330
D
102
}
100
AcDbGroup
300
Group created by Visio.
 70
     0
 71
     1
340
17D
340
17E
  0
GROUP
  5
180
102
{ACAD_REACTORS
330
D
102
}
100
AcDbGroup
300
Group created by Visio.
 70
     0
 71
     1
340
181
340
182
  0
GROUP
  5
184
102
{ACAD_REACTORS
330
D
102
}
100
AcDbGroup
300
Group created by Visio.
 70
     0
 71
     1
340
185
340
186
  0
GROUP
  5
188
102
{ACAD_REACTORS
330
D
102
}
100
AcDbGroup
300
Group created by Visio.
 70
     0
 71
     1
340
189
340
18A
340
18B
  0
GROUP
  5
18C
102
{ACAD_REACTORS
330
D
102
}
100
AcDbGroup
300
Group created by Visio.
 70
     0
 71
     1
340
18D
340
18E
340
18F
340
190
340
191
340
192
340
194
340
195
340
196
340
197
340
198
340
193
340
199
340
19A
340
19B
340
19D
340
19E
340
19F
340
19C
340
1A0
340
1A1
340
1A2
340
1A3
340
1A4
  0
GROUP
  5
1A5
102
{ACAD_REACTORS
330
D
102
}
100
AcDbGroup
300
Group created by Visio.
 70
     0
 71
     1
340
1A6
340
1A7
340
1A8
340
1A9
340
1AA
340
1AB
340
1AD
340
1AE
340
1AF
340
1B0
340
1B1
340
1AC
340
1B2
340
1B3
340
1B4
340
1B6
340
1B7
340
1B8
340
1B5
340
1B9
340
1BA
340
1BB
340
1BC
340
1BD
  0
GROUP
  5
1BE
102
{ACAD_REACTORS
330
D
102
}
100
AcDbGroup
300
Group created by Visio.
 70
     0
 71
     1
340
1BF
340
1C0
340
1C1
340
1C2
340
1C3
340
1C4
340
1C6
340
1C7
340
1C8
340
1C9
340
1CA
340
1C5
340
1CB
340
1CC
340
1CD
340
1CF
340
1D0
340
1D1
340
1CE
340
1D2
340
1D3
340
1D4
340
1D5
340
1D6
  0
GROUP
  5
1D7
102
{ACAD_REACTORS
330
D
102
}
100
AcDbGroup
300
Group created by Visio.
 70
     0
 71
     1
340
1D8
340
1D9
340
1DA
340
1DB
340
1DC
340
1DD
340
1DF
340
1E0
340
1E1
340
1E2
340
1E3
340
1DE
340
1E4
340
1E5
340
1E6
340
1E8
340
1E9
340
1EA
340
1E7
340
1EB
340
1EC
340
1ED
340
1EE
340
1EF
  0
GROUP
  5
1F0
102
{ACAD_REACTORS
330
D
102
}
100
AcDbGroup
300
Group created by Visio.
 70
     0
 71
     1
340
1F1
340
1F2
340
1F3
340
1F4
340
1F5
340
1F6
340
1F8
340
1F9
340
1FA
340
1FB
340
1FC
340
1F7
340
1FD
340
1FE
340
1FF
340
201
340
202
340
203
340
200
340
204
340
205
340
206
340
207
340
208
  0
GROUP
  5
209
102
{ACAD_REACTORS
330
D
102
}
100
AcDbGroup
300
Group created by Visio.
 70
     0
 71
     1
340
20A
340
20B
340
20C
340
20D
340
20E
340
20F
340
211
340
212
340
213
340
214
340
215
340
210
340
216
340
217
340
218
340
21A
340
21B
340
21C
340
219
340
21D
340
21E
340
21F
340
220
340
221
  0
GROUP
  5
222
102
{ACAD_REACTORS
330
D
102
}
100
AcDbGroup
300
Group created by Visio.
 70
     0
 71
     1
340
223
340
224
340
225
340
226
340
227
340
228
340
22A
340
22B
340
22C
340
22D
340
22E
340
229
340
22F
340
230
340
231
340
233
340
234
340
235
340
232
340
236
340
237
340
238
340
239
340
23A
340
23B
340
23C
340
23D
  0
ENDSEC
  0
EOF
