  0
SECTION
  2
HEADER
  9
$ACADVER
  1
AC1014
  9
$ACADMAINTVER
 70
     0
  9
$DWGCODEPAGE
  3
ANSI_1252
  9
$INSBASE
 10
0.0
 20
0.0
 30
0.0
  9
$EXTMIN
 10
0.0
 20
0.0
 30
0.0
  9
$EXTMAX
 10
37.508533
 20
67.7752
 30
0.0
  9
$LIMMIN
 10
0.0
 20
0.0
  9
$LIMMAX
 10
12.0
 20
9.0
  9
$ORTHOMODE
 70
     0
  9
$REGENMODE
 70
     1
  9
$FILLMODE
 70
     0
  9
$QTEXTMODE
 70
     0
  9
$MIRRTEXT
 70
     1
  9
$DRAGMODE
 70
     2
  9
$LTSCALE
 40
1.0
  9
$OSMODE
 70
    37
  9
$ATTMODE
 70
     1
  9
$TEXTSIZE
 40
0.2
  9
$TRACEWID
 40
0.05
  9
$TEXTSTYLE
  7
STANDARD
  9
$CLAYER
  8
0
  9
$CELTYPE
  6
BYLAYER
  9
$CECOLOR
 62
   256
  9
$CELTSCALE
 40
1.0
  9
$DELOBJ
 70
     1
  9
$DISPSILH
 70
     0
  9
$DIMSCALE
 40
1.0
  9
$DIMASZ
 40
0.18
  9
$DIMEXO
 40
0.0625
  9
$DIMDLI
 40
0.38
  9
$DIMRND
 40
0.0
  9
$DIMDLE
 40
0.0
  9
$DIMEXE
 40
0.18
  9
$DIMTP
 40
0.0
  9
$DIMTM
 40
0.0
  9
$DIMTXT
 40
0.18
  9
$DIMCEN
 40
0.09
  9
$DIMTSZ
 40
0.0
  9
$DIMTOL
 70
     0
  9
$DIMLIM
 70
     0
  9
$DIMTIH
 70
     0
  9
$DIMTOH
 70
     0
  9
$DIMSE1
 70
     0
  9
$DIMSE2
 70
     0
  9
$DIMTAD
 70
     1
  9
$DIMZIN
 70
     0
  9
$DIMBLK
  1

  9
$DIMASO
 70
     1
  9
$DIMSHO
 70
     1
  9
$DIMPOST
  1

  9
$DIMAPOST
  1

  9
$DIMALT
 70
     0
  9
$DIMALTD
 70
     2
  9
$DIMALTF
 40
25.4
  9
$DIMLFAC
 40
1.0
  9
$DIMTOFL
 70
     0
  9
$DIMTVP
 40
0.0
  9
$DIMTIX
 70
     0
  9
$DIMSOXD
 70
     0
  9
$DIMSAH
 70
     0
  9
$DIMBLK1
  1

  9
$DIMBLK2
  1

  9
$DIMSTYLE
  2
STANDARD
  9
$DIMCLRD
 70
     0
  9
$DIMCLRE
 70
     0
  9
$DIMCLRT
 70
     0
  9
$DIMTFAC
 40
1.0
  9
$DIMGAP
 40
0.09
  9
$DIMJUST
 70
     0
  9
$DIMSD1
 70
     0
  9
$DIMSD2
 70
     0
  9
$DIMTOLJ
 70
     1
  9
$DIMTZIN
 70
     0
  9
$DIMALTZ
 70
     0
  9
$DIMALTTZ
 70
     0
  9
$DIMFIT
 70
     5
  9
$DIMUPT
 70
     0
  9
$DIMUNIT
 70
     2
  9
$DIMDEC
 70
     2
  9
$DIMTDEC
 70
     4
  9
$DIMALTU
 70
     2
  9
$DIMALTTD
 70
     2
  9
$DIMTXSTY
  7
STANDARD
  9
$DIMAUNIT
 70
     0
  9
$LUNITS
 70
     2
  9
$LUPREC
 70
     4
  9
$SKETCHINC
 40
0.1
  9
$FILLETRAD
 40
0.5
  9
$AUNITS
 70
     0
  9
$AUPREC
 70
     0
  9
$MENU
  1
.
  9
$ELEVATION
 40
0.0
  9
$PELEVATION
 40
0.0
  9
$THICKNESS
 40
0.0
  9
$LIMCHECK
 70
     0
  9
$BLIPMODE
 70
     0
  9
$CHAMFERA
 40
0.5
  9
$CHAMFERB
 40
0.5
  9
$CHAMFERC
 40
1.0
  9
$CHAMFERD
 40
0.0
  9
$SKPOLY
 70
     0
  9
$TDCREATE
 40
2450772.666465926
  9
$TDUPDATE
 40
2460690.682638878
  9
$TDINDWG
 40
0.0011564931
  9
$TDUSRTIMER
 40
0.0011564931
  9
$USRTIMER
 70
     1
  9
$ANGBASE
 50
0.0
  9
$ANGDIR
 70
     0
  9
$PDMODE
 70
     0
  9
$PDSIZE
 40
0.0
  9
$PLINEWID
 40
0.0
  9
$COORDS
 70
     1
  9
$SPLFRAME
 70
     0
  9
$SPLINETYPE
 70
     6
  9
$SPLINESEGS
 70
     8
  9
$ATTDIA
 70
     0
  9
$ATTREQ
 70
     1
  9
$HANDLING
 70
     1
  9
$HANDSEED
  5
316
  9
$SURFTAB1
 70
     6
  9
$SURFTAB2
 70
     6
  9
$SURFTYPE
 70
     6
  9
$SURFU
 70
     6
  9
$SURFV
 70
     6
  9
$UCSNAME
  2

  9
$UCSORG
 10
0.0
 20
0.0
 30
0.0
  9
$UCSXDIR
 10
1.0
 20
0.0
 30
0.0
  9
$UCSYDIR
 10
0.0
 20
1.0
 30
0.0
  9
$PUCSNAME
  2

  9
$PUCSORG
 10
0.0
 20
0.0
 30
0.0
  9
$PUCSXDIR
 10
1.0
 20
0.0
 30
0.0
  9
$PUCSYDIR
 10
0.0
 20
1.0
 30
0.0
  9
$USERI1
 70
     0
  9
$USERI2
 70
     0
  9
$USERI3
 70
     0
  9
$USERI4
 70
     0
  9
$USERI5
 70
     0
  9
$USERR1
 40
0.0
  9
$USERR2
 40
0.0
  9
$USERR3
 40
0.0
  9
$USERR4
 40
0.0
  9
$USERR5
 40
0.0
  9
$WORLDVIEW
 70
     1
  9
$SHADEDGE
 70
     3
  9
$SHADEDIF
 70
    70
  9
$TILEMODE
 70
     1
  9
$MAXACTVP
 70
    48
  9
$PINSBASE
 10
0.0
 20
0.0
 30
0.0
  9
$PLIMCHECK
 70
     0
  9
$PEXTMIN
 10
0.0
 20
0.0
 30
0.0
  9
$PEXTMAX
 10
0.0
 20
0.0
 30
0.0
  9
$PLIMMIN
 10
0.0
 20
0.0
  9
$PLIMMAX
 10
12.0
 20
9.0
  9
$UNITMODE
 70
     0
  9
$VISRETAIN
 70
     1
  9
$PLINEGEN
 70
     0
  9
$PSLTSCALE
 70
     1
  9
$TREEDEPTH
 70
  3020
  9
$PICKSTYLE
 70
     1
  9
$CMLSTYLE
  2
STANDARD
  9
$CMLJUST
 70
     0
  9
$CMLSCALE
 40
1.0
  9
$PROXYGRAPHICS
 70
     1
  9
$MEASUREMENT
 70
     0
  0
ENDSEC
  0
SECTION
  2
CLASSES
  0
CLASS
  1
LWPOLYLINE
  2
AcDbPolyline
  3
ObjectDBX Classes
 90
       20
280
     0
281
     1
  0
CLASS
  1
IMAGE
  2
AcDbRasterImage
  3
ISM
 90
       21
280
     0
281
     1
  0
CLASS
  1
OLE2FRAME
  2
AcDbOle2Frame
  3
ObjectDBX Classes
 90
       21
280
     0
281
     1
  0
CLASS
  1
HATCH
  2
AcDbHatch
  3
ObjectDBX Classes
 90
       20
280
     0
281
     1
  0
CLASS
  1
DICTIONARYVAR
  2
AcDbDictionaryVar
  3
ObjectDBX Classes
 90
       20
280
     0
281
     0
  0
CLASS
  1
RASTERVARIABLES
  2
AcDbRasterVariables
  3
ISM
 90
       21
280
     0
281
     0
  0
CLASS
  1
IMAGEDEF
  2
AcDbRasterImageDef
  3
ISM
 90
       21
280
     0
281
     0
  0
CLASS
  1
IMAGEDEF_REACTOR
  2
AcDbRasterImageDefReactor
  3
ISM
 90
       21
280
     0
281
     0
  0
CLASS
  1
IDBUFFER
  2
AcDbIdBuffer
  3
ObjectDBX Classes
 90
       20
280
     0
281
     0
  0
CLASS
  1
SPATIAL_FILTER
  2
AcDbSpatialFilter
  3
ObjectDBX Classes
 90
       20
280
     0
281
     0
  0
CLASS
  1
XRECORD
  2
AcDbXrecord
  3
ObjectDBX Classes
 90
       21
280
     0
281
     0
  0
CLASS
  1
ACDBDICTIONARYWDFLT
  2
AcDbDictionaryWithDefault
  3
ObjectDBX Classes
 90
       22
280
     0
281
     0
  0
CLASS
  1
SCALE
  2
AcDbScale
  3
ObjectDBX Classes
 90
       27
280
     0
281
     0
  0
CLASS
  1
VISUALSTYLE
  2
AcDbVisualStyle
  3
ObjectDBX Classes
 90
       26
280
     0
281
     0
  0
CLASS
  1
MATERIAL
  2
AcDbMaterial
  3
ObjectDBX Classes
 90
       23
280
     0
281
     0
  0
CLASS
  1
TABLESTYLE
  2
AcDbTableStyle
  3
ObjectDBX Classes
 90
       25
280
     0
281
     0
  0
CLASS
  1
MLEADERSTYLE
  2
AcDbMLeaderStyle
  3
ACDB_MLEADERSTYLE_CLASS
 90
       27
280
     0
281
     0
  0
CLASS
  1
SORTENTSTABLE
  2
AcDbSortentsTable
  3
"AutoCAD"
 90
        0
280
     0
281
     0
  0
CLASS
  1
LAYER_INDEX
  2
AcDbLayerIndex
  3
"Acad"
 90
        0
280
     0
281
     0
  0
CLASS
  1
SPATIAL_INDEX
  2
AcDbSpatialIndex
  3
"Acad"
 90
        0
280
     0
281
     0
  0
CLASS
  1
OBJECT_PTR
  2
CAseDLPNTableRecord
  3
"ASE-LPNTableRecord"
 90
        1
280
     0
281
     0
  0
CLASS
  1
LAYOUT
  2
AcDbLayout
  3
"AutoCAD 2000"
 90
        1
280
     0
281
     0
  0
CLASS
  1
PLOTSETTINGS
  2
AcDbPlotsettings
  3
"AutoCAD 2000"
 90
        1
280
     0
281
     0
  0
CLASS
  1
ACDBPLACEHOLDER
  2
AcDbPlaceholder
  3
"AutoCAD 2000"
 90
        1
280
     0
281
     0
  0
CLASS
  1
VBA_PROJECT
  2
AcDbVbaProject
  3
"AutoCAD 2000"
 90
        1
280
     0
281
     0
  0
CLASS
  1
WIPEOUT
  2
AcDbWipeout
  3
"AutoCAD 2000"
 90
        1
280
     0
281
     1
  0
CLASS
  1
WIPEOUTVARIABLES
  2
AcDbWipeoutVariables
  3
"AutoCAD 2000"
 90
        1
280
     0
281
     0
  0
CLASS
  1
RTEXT
  2
RText
  3
RText|AutoCAD Express Tool|expresstools@autodesk.com
 90
        1
280
     0
281
     1
  0
CLASS
  1
ARCALIGNEDTEXT
  2
AcDbArcAlignedText
  3
RText|AutoCAD Express Tool|expresstools@autodesk.com
 90
        1
280
     0
281
     1
  0
ENDSEC
  0
SECTION
  2
TABLES
  0
TABLE
  2
VPORT
  5
8
100
AcDbSymbolTable
 70
     1
  0
VPORT
  5
25
100
AcDbSymbolTableRecord
100
AcDbViewportTableRecord
  2
*ACTIVE
 70
     0
 10
0.0
 20
0.0
 11
1.0
 21
1.0
 12
18.754267
 22
33.8876
 13
0.0
 23
0.0
 14
0.5
 24
0.5
 15
0.5
 25
0.5
 16
0.0
 26
0.0
 36
1.0
 17
0.0
 27
0.0
 37
0.0
 40
67.7752
 41
0.553426
 42
50.0
 43
0.0
 44
0.0
 50
0.0
 51
0.0
 71
     0
 72
   100
 73
     1
 74
     1
 75
     0
 76
     0
 77
     0
 78
     0
  0
ENDTAB
  0
TABLE
  2
LTYPE
  5
5
100
AcDbSymbolTable
 70
     3
  0
LTYPE
  5
12
100
AcDbSymbolTableRecord
100
AcDbLinetypeTableRecord
  2
BYBLOCK
 70
     0
  3

 72
    65
 73
     0
 40
0.0
  0
LTYPE
  5
13
100
AcDbSymbolTableRecord
100
AcDbLinetypeTableRecord
  2
BYLAYER
 70
     0
  3

 72
    65
 73
     0
 40
0.0
  0
LTYPE
  5
14
100
AcDbSymbolTableRecord
100
AcDbLinetypeTableRecord
  2
CONTINUOUS
 70
     0
  3
Solid line
 72
    65
 73
     0
 40
0.0
  0
ENDTAB
  0
TABLE
  2
LAYER
  5
2
100
AcDbSymbolTable
 70
     6
  0
LAYER
  5
E
100
AcDbSymbolTableRecord
100
AcDbLayerTableRecord
  2
0
 70
     0
 62
     7
  6
CONTINUOUS
  0
LAYER
  5
75
100
AcDbSymbolTableRecord
100
AcDbLayerTableRecord
  2
BUILDING_ENVELOPE
 70
     0
 62
     7
  6
CONTINUOUS
  0
LAYER
  5
104
100
AcDbSymbolTableRecord
100
AcDbLayerTableRecord
  2
SPACE
 70
     0
 62
     7
  6
CONTINUOUS
  0
LAYER
  5
207
100
AcDbSymbolTableRecord
100
AcDbLayerTableRecord
  2
LANDING
 70
     0
 62
     7
  6
CONTINUOUS
  0
LAYER
  5
213
100
AcDbSymbolTableRecord
100
AcDbLayerTableRecord
  2
STAIR
 70
     0
 62
     7
  6
CONTINUOUS
  0
LAYER
  5
2E0
100
AcDbSymbolTableRecord
100
AcDbLayerTableRecord
  2
WALL
 70
     0
 62
     7
  6
CONTINUOUS
  0
ENDTAB
  0
TABLE
  2
STYLE
  5
3
100
AcDbSymbolTable
 70
     1
  0
STYLE
  5
F
100
AcDbSymbolTableRecord
100
AcDbTextStyleTableRecord
  2
STANDARD
 70
     0
 40
0.0
 41
1.0
 50
0.0
 71
     0
 42
0.2
  3
txt.shx
  4

  0
ENDTAB
  0
TABLE
  2
VIEW
  5
6
100
AcDbSymbolTable
 70
     0
  0
ENDTAB
  0
TABLE
  2
UCS
  5
7
100
AcDbSymbolTable
 70
     0
  0
ENDTAB
  0
TABLE
  2
APPID
  5
9
100
AcDbSymbolTable
 70
     1
  0
APPID
  5
10
100
AcDbSymbolTableRecord
100
AcDbRegAppTableRecord
  2
ACAD
 70
     0
  0
ENDTAB
  0
TABLE
  2
DIMSTYLE
  5
A
100
AcDbSymbolTable
 70
     1
  0
DIMSTYLE
105
1D
100
AcDbSymbolTableRecord
100
AcDbDimStyleTableRecord
  2
STANDARD
 70
     0
  3

  4

  5

  6

  7

 40
1.0
 41
0.18
 42
0.0625
 43
0.38
 44
0.18
 45
0.0
 46
0.0
 47
0.0
 48
0.0
 71
     0
 72
     0
 73
     1
 74
     1
 75
     0
 76
     0
 77
     0
 78
     0
140
0.18
141
0.09
142
0.0
143
25.4
144
1.0
145
0.0
146
1.0
147
0.09
170
     0
171
     2
172
     0
173
     0
174
     0
175
     0
176
     0
177
     0
178
     0
270
     2
271
     4
272
     4
273
     2
274
     2
275
     0
280
     0
281
     0
282
     0
283
     1
284
     0
285
     0
286
     0
287
     3
288
     0
340
F
  0
ENDTAB
  0
TABLE
  2
BLOCK_RECORD
  5
1
100
AcDbSymbolTable
 70
     9
  0
BLOCK_RECORD
  5
18
100
AcDbSymbolTableRecord
100
AcDbBlockTableRecord
  2
*MODEL_SPACE
  0
BLOCK_RECORD
  5
15
100
AcDbSymbolTableRecord
100
AcDbBlockTableRecord
  2
*PAPER_SPACE
  0
BLOCK_RECORD
  5
232
100
AcDbSymbolTableRecord
100
AcDbBlockTableRecord
  2
NONE_
  0
BLOCK_RECORD
  5
235
100
AcDbSymbolTableRecord
100
AcDbBlockTableRecord
  2
WALL
  0
BLOCK_RECORD
  5
23C
100
AcDbSymbolTableRecord
100
AcDbBlockTableRecord
  2
DOOR
  0
BLOCK_RECORD
  5
26B
100
AcDbSymbolTableRecord
100
AcDbBlockTableRecord
  2
DOUBLE
  0
BLOCK_RECORD
  5
29C
100
AcDbSymbolTableRecord
100
AcDbBlockTableRecord
  2
OPPOSING
  0
BLOCK_RECORD
  5
2CD
100
AcDbSymbolTableRecord
100
AcDbBlockTableRecord
  2
SPACE
  0
BLOCK_RECORD
  5
2E5
100
AcDbSymbolTableRecord
100
AcDbBlockTableRecord
  2
SQUARE
  0
BLOCK_RECORD
  5
2E9
100
AcDbSymbolTableRecord
100
AcDbBlockTableRecord
  2
CORNER_LANDING
  0
BLOCK_RECORD
  5
2EF
100
AcDbSymbolTableRecord
100
AcDbBlockTableRecord
  2
STRAIGHT_STAIRCASE
  0
ENDTAB
  0
ENDSEC
  0
SECTION
  2
BLOCKS
  0
BLOCK
  5
19
100
AcDbEntity
  8
0
100
AcDbBlockBegin
  2
*MODEL_SPACE
 70
     0
 10
0.0
 20
0.0
 30
0.0
  3
*MODEL_SPACE
  1

  0
ENDBLK
  5
1A
100
AcDbEntity
  8
0
100
AcDbBlockEnd
  0
BLOCK
  5
16
100
AcDbEntity
 67
     1
  8
0
100
AcDbBlockBegin
  2
*PAPER_SPACE
 70
     0
 10
0.0
 20
0.0
 30
0.0
  3
*PAPER_SPACE
  1

  0
ENDBLK
  5
17
100
AcDbEntity
 67
     1
  8
0
100
AcDbBlockEnd
  0
BLOCK
  5
233
100
AcDbEntity
  8
0
100
AcDbBlockBegin
  2
NONE_
 70
     2
 10
0.0
 20
0.0
 30
0.0
  3
NONE_
  1

  0
ENDBLK
  5
234
100
AcDbEntity
  8
0
100
AcDbBlockEnd
  0
BLOCK
  5
236
100
AcDbEntity
  8
0
100
AcDbBlockBegin
  2
WALL
 70
     0
 10
0.0
 20
0.0
 30
0.0
  3
WALL
  1

  0
LWPOLYLINE
  5
237
102
{ACAD_REACTORS
330
238
102
}
100
AcDbEntity
  8
BUILDING_ENVELOPE
  6
CONTINUOUS
 62
     7
100
AcDbPolyline
 90
        6
 70
     1
 10
1.0
 20
5.333333
 10
9.0
 20
5.333333
 10
9.0
 20
5.166667
 10
9.0
 20
5.0
 10
1.0
 20
5.0
 10
1.0
 20
5.166667
  0
HATCH
  5
238
100
AcDbEntity
  8
BUILDING_ENVELOPE
 62
   253
100
AcDbHatch
 10
0.0
 20
0.0
 30
0.0
210
0.0
220
0.0
230
1.0
  2
SOLID
 70
     1
 71
     1
 91
        1
 92
        3
 72
     0
 73
     1
 93
        6
 10
1.0
 20
5.333333333333333
 10
9.0
 20
5.333333333333333
 10
9.0
 20
5.1666666666666661
 10
9.0
 20
5.0
 10
1.0
 20
5.0
 10
1.0
 20
5.1666666666666661
 97
        1
330
237
 75
     0
 76
     1
 98
        0
  0
LWPOLYLINE
  5
239
100
AcDbEntity
  8
BUILDING_ENVELOPE
  6
CONTINUOUS
 62
     7
100
AcDbPolyline
 90
        4
 70
     0
 10
1.0
 20
5.166667
 10
1.0
 20
5.333333
 10
9.0
 20
5.333333
 10
9.0
 20
5.166667
  0
LWPOLYLINE
  5
23A
100
AcDbEntity
  8
BUILDING_ENVELOPE
  6
CONTINUOUS
 62
     7
100
AcDbPolyline
 90
        4
 70
     0
 10
1.0
 20
5.166667
 10
1.0
 20
5.0
 10
9.0
 20
5.0
 10
9.0
 20
5.166667
  0
ENDBLK
  5
23B
100
AcDbEntity
  8
0
100
AcDbBlockEnd
  0
BLOCK
  5
23D
100
AcDbEntity
  8
0
100
AcDbBlockBegin
  2
DOOR
 70
     2
 10
0.0
 20
0.0
 30
0.0
  3
DOOR
  1

  0
ATTDEF
  5
23E
100
AcDbEntity
  8
0
100
AcDbText
 10
5.0
 20
5.0
 30
0.0
 40
0.2
  1
80
100
AcDbAttributeDefinition
  3
Door height
  2
VISDOORHEIGHT
 70
     0
  0
ATTDEF
  5
23F
100
AcDbEntity
  8
0
100
AcDbText
 10
5.0
 20
5.0
 30
0.0
 40
0.2
  1
0
100
AcDbAttributeDefinition
  3
Reference Line Offset
  2
REFLN
 70
     0
  0
ATTDEF
  5
240
100
AcDbEntity
  8
0
100
AcDbText
 10
5.0
 20
5.0
 30
0.0
 40
0.2
  1
30
100
AcDbAttributeDefinition
  3
Door width
  2
SUBTYPE
 70
     0
  0
ATTDEF
  5
241
100
AcDbEntity
  8
0
100
AcDbText
 10
5.0
 20
5.0
 30
0.0
 40
0.2
  1
2
100
AcDbAttributeDefinition
  3
Door frame width
  2
SUBVISDOORFRAMEWIDTH
 70
     0
  0
ATTDEF
  5
242
100
AcDbEntity
  8
0
100
AcDbText
 10
5.0
 20
5.0
 30
0.0
 40
0.2
  1
4
100
AcDbAttributeDefinition
  3
Door frame depth
  2
SUBVISDOORFRAMEDEPTH
 70
     0
  0
ATTDEF
  5
243
100
AcDbEntity
  8
0
100
AcDbText
 10
5.0
 20
5.0
 30
0.0
 40
0.2
  1
0.5
100
AcDbAttributeDefinition
  3
Door stop width
  2
SUBVISDOORSTOPWIDTH
 70
     0
  0
ATTDEF
  5
244
100
AcDbEntity
  8
0
100
AcDbText
 10
5.0
 20
5.0
 30
0.0
 40
0.2
  1
1.5
100
AcDbAttributeDefinition
  3
Door stop depth
  2
SUBVISDOORSTOPDEPTH
 70
     0
  0
ATTDEF
  5
245
100
AcDbEntity
  8
0
100
AcDbText
 10
5.0
 20
5.0
 30
0.0
 40
0.2
  1
2
100
AcDbAttributeDefinition
  3
Door threshold depth inside
  2
SUBVISDOORTHRESDEPTHIN
 70
     0
  0
ATTDEF
  5
246
100
AcDbEntity
  8
0
100
AcDbText
 10
5.0
 20
5.0
 30
0.0
 40
0.2
  1
2
100
AcDbAttributeDefinition
  3
Door threshold width inside
  2
SUBVISDOORTHRESWIDTHIN
 70
     0
  0
ATTDEF
  5
247
100
AcDbEntity
  8
0
100
AcDbText
 10
5.0
 20
5.0
 30
0.0
 40
0.2
  1
2
100
AcDbAttributeDefinition
  3
Door threshold depth outside
  2
SUBVISDOORTHRESDEPTHOUT
 70
     0
  0
ATTDEF
  5
248
100
AcDbEntity
  8
0
100
AcDbText
 10
5.0
 20
5.0
 30
0.0
 40
0.2
  1
2
100
AcDbAttributeDefinition
  3
Door threshold width outside
  2
SUBVISDOORTHRESWIDTHOUT
 70
     0
  0
ATTDEF
  5
249
100
AcDbEntity
  8
0
100
AcDbText
 10
5.0
 20
5.0
 30
0.0
 40
0.2
  1
2
100
AcDbAttributeDefinition
  3
Door panel thickness
  2
SUBVISDOORPANELTHICKNESS
 70
     0
  0
ATTDEF
  5
24A
100
AcDbEntity
  8
0
100
AcDbText
 10
5.0
 20
5.0
 30
0.0
 40
0.2
  1
15
100
AcDbAttributeDefinition
  3
Door leaf width
  2
VISDOORLEAF
 70
     0
  0
ATTDEF
  5
24B
100
AcDbEntity
  8
0
100
AcDbText
 10
5.0
 20
5.0
 30
0.0
 40
0.2
  1
12
100
AcDbAttributeDefinition
  3
Door spring height
  2
VISDOORSPRING
 70
     0
  0
ATTDEF
  5
24C
100
AcDbEntity
  8
0
100
AcDbText
 10
5.0
 20
5.0
 30
0.0
 40
0.2
  1
6
100
AcDbAttributeDefinition
  3
Door along wall offset
  2
VISDOORALONGWALLOFFSET
 70
     0
  0
ATTDEF
  5
24D
100
AcDbEntity
  8
0
100
AcDbText
 10
5.0
 20
5.0
 30
0.0
 40
0.2
  1
Single
100
AcDbAttributeDefinition
  3
Door type
  2
SUBSHAPETYPE
 70
     0
  0
ATTDEF
  5
24E
100
AcDbEntity
  8
0
100
AcDbText
 10
5.0
 20
5.0
 30
0.0
 40
0.2
  1
Center
100
AcDbAttributeDefinition
  3
Door within wall offset
  2
VISJUSTIFICATION
 70
     0
  0
ATTDEF
  5
24F
100
AcDbEntity
  8
0
100
AcDbText
 10
5.0
 20
5.0
 30
0.0
 40
0.2
  1
50
100
AcDbAttributeDefinition
  3
Door open percentage
  2
VISDOOROPENPERCENT
 70
     0
  0
ATTDEF
  5
250
100
AcDbEntity
  8
0
100
AcDbText
 10
5.0
 20
5.0
 30
0.0
 40
0.2
  1
Building Component
100
AcDbAttributeDefinition
  3
Shape class
  2
SHAPECLASS
 70
     0
  0
ATTDEF
  5
251
100
AcDbEntity
  8
0
100
AcDbText
 10
5.0
 20
5.0
 30
0.0
 40
0.2
  1
Door
100
AcDbAttributeDefinition
  3
Shape type
  2
SHAPETYPE
 70
     0
  0
ATTDEF
  5
252
100
AcDbEntity
  8
0
100
AcDbText
 10
5.0
 20
5.0
 30
0.0
 40
0.2
  1
0
100
AcDbAttributeDefinition
  3
Fire rating
  2
FIRERATING
 70
     0
  0
ATTDEF
  5
253
100
AcDbEntity
  8
0
100
AcDbText
 10
5.0
 20
5.0
 30
0.0
 40
0.2
  1
0
100
AcDbAttributeDefinition
  3
Door number
  2
DOORNUMBER
 70
     0
  0
ATTDEF
  5
254
100
AcDbEntity
  8
0
100
AcDbText
 10
5.0
 20
5.0
 30
0.0
 40
0.2
  1
0
100
AcDbAttributeDefinition
  3
Base elevation
  2
BASEELEVATION
 70
     0
  0
LWPOLYLINE
  5
255
102
{ACAD_REACTORS
330
2E2
102
}
100
AcDbEntity
  8
BUILDING_ENVELOPE
  6
CONTINUOUS
 62
     7
100
AcDbPolyline
 90
        4
 70
     1
 10
3.583333
 20
4.734
 10
6.416667
 20
4.734
 10
6.416667
 20
5.266
 10
3.583333
 20
5.266
  0
LINE
  5
256
102
{ACAD_REACTORS
330
2E2
102
}
100
AcDbEntity
  8
BUILDING_ENVELOPE
  6
CONTINUOUS
 62
     7
100
AcDbLine
 10
6.416667
 20
4.75
 30
0.0
 11
6.416667
 21
5.25
 31
0.0
  0
LINE
  5
257
102
{ACAD_REACTORS
330
2E2
102
}
100
AcDbEntity
  8
BUILDING_ENVELOPE
  6
CONTINUOUS
 62
     7
100
AcDbLine
 10
6.416667
 20
5.25
 30
0.0
 11
6.25
 21
5.25
 31
0.0
  0
LINE
  5
258
102
{ACAD_REACTORS
330
2E2
102
}
100
AcDbEntity
  8
BUILDING_ENVELOPE
  6
CONTINUOUS
 62
     7
100
AcDbLine
 10
6.25
 20
5.25
 30
0.0
 11
6.25
 21
5.083333
 31
0.0
  0
LINE
  5
259
102
{ACAD_REACTORS
330
2E2
102
}
100
AcDbEntity
  8
BUILDING_ENVELOPE
  6
CONTINUOUS
 62
     7
100
AcDbLine
 10
6.25
 20
4.958333
 30
0.0
 11
6.25
 21
4.75
 31
0.0
  0
LINE
  5
25A
102
{ACAD_REACTORS
330
2E2
102
}
100
AcDbEntity
  8
BUILDING_ENVELOPE
  6
CONTINUOUS
 62
     7
100
AcDbLine
 10
6.25
 20
4.75
 30
0.0
 11
6.416667
 21
4.75
 31
0.0
  0
LINE
  5
25B
102
{ACAD_REACTORS
330
2E2
102
}
100
AcDbEntity
  8
BUILDING_ENVELOPE
  6
CONTINUOUS
 62
     7
100
AcDbLine
 10
3.583333
 20
4.75
 30
0.0
 11
3.583333
 21
5.25
 31
0.0
  0
LINE
  5
25C
102
{ACAD_REACTORS
330
2E2
102
}
100
AcDbEntity
  8
BUILDING_ENVELOPE
  6
CONTINUOUS
 62
     7
100
AcDbLine
 10
3.583333
 20
5.25
 30
0.0
 11
3.75
 21
5.25
 31
0.0
  0
LINE
  5
25D
102
{ACAD_REACTORS
330
2E2
102
}
100
AcDbEntity
  8
BUILDING_ENVELOPE
  6
CONTINUOUS
 62
     7
100
AcDbLine
 10
3.75
 20
5.25
 30
0.0
 11
3.75
 21
5.083333
 31
0.0
  0
LINE
  5
25E
102
{ACAD_REACTORS
330
2E2
102
}
100
AcDbEntity
  8
BUILDING_ENVELOPE
  6
CONTINUOUS
 62
     7
100
AcDbLine
 10
3.75
 20
4.958333
 30
0.0
 11
3.75
 21
4.75
 31
0.0
  0
LINE
  5
25F
102
{ACAD_REACTORS
330
2E2
102
}
100
AcDbEntity
  8
BUILDING_ENVELOPE
  6
CONTINUOUS
 62
     7
100
AcDbLine
 10
3.75
 20
4.75
 30
0.0
 11
3.583333
 21
4.75
 31
0.0
  0
LINE
  5
260
102
{ACAD_REACTORS
330
2E2
102
}
100
AcDbEntity
  8
BUILDING_ENVELOPE
  6
CONTINUOUS
 62
     7
100
AcDbLine
 10
6.25
 20
5.083333
 30
0.0
 11
6.208333
 21
5.083333
 31
0.0
  0
LINE
  5
261
102
{ACAD_REACTORS
330
2E2
102
}
100
AcDbEntity
  8
BUILDING_ENVELOPE
  6
CONTINUOUS
 62
     7
100
AcDbLine
 10
6.208333
 20
5.083333
 30
0.0
 11
6.208333
 21
4.958333
 31
0.0
  0
LINE
  5
262
102
{ACAD_REACTORS
330
2E2
102
}
100
AcDbEntity
  8
BUILDING_ENVELOPE
  6
CONTINUOUS
 62
     7
100
AcDbLine
 10
6.208333
 20
4.958333
 30
0.0
 11
6.25
 21
4.958333
 31
0.0
  0
LINE
  5
263
102
{ACAD_REACTORS
330
2E2
102
}
100
AcDbEntity
  8
BUILDING_ENVELOPE
  6
CONTINUOUS
 62
     7
100
AcDbLine
 10
3.75
 20
5.083333
 30
0.0
 11
3.791667
 21
5.083333
 31
0.0
  0
LINE
  5
264
102
{ACAD_REACTORS
330
2E2
102
}
100
AcDbEntity
  8
BUILDING_ENVELOPE
  6
CONTINUOUS
 62
     7
100
AcDbLine
 10
3.791667
 20
5.083333
 30
0.0
 11
3.791667
 21
4.958333
 31
0.0
  0
LINE
  5
265
102
{ACAD_REACTORS
330
2E2
102
}
100
AcDbEntity
  8
BUILDING_ENVELOPE
  6
CONTINUOUS
 62
     7
100
AcDbLine
 10
3.791667
 20
4.958333
 30
0.0
 11
3.75
 21
4.958333
 31
0.0
  0
LINE
  5
266
100
AcDbEntity
  8
BUILDING_ENVELOPE
  6
CONTINUOUS
 62
     7
100
AcDbLine
 10
6.416667
 20
4.75
 30
0.0
 11
6.416667
 21
5.25
 31
0.0
  0
LINE
  5
267
100
AcDbEntity
  8
BUILDING_ENVELOPE
  6
CONTINUOUS
 62
     7
100
AcDbLine
 10
3.583333
 20
4.75
 30
0.0
 11
3.583333
 21
5.25
 31
0.0
  0
ARC
  5
268
100
AcDbEntity
  8
BUILDING_ENVELOPE
  6
CONTINUOUS
 62
     7
100
AcDbCircle
 10
6.25
 20
5.25
 30
0.0
 40
2.5
100
AcDbArc
 50
90.0
 51
180.0
  0
LWPOLYLINE
  5
269
102
{ACAD_REACTORS
330
2E2
102
}
100
AcDbEntity
  8
BUILDING_ENVELOPE
  6
CONTINUOUS
 62
     7
100
AcDbPolyline
 90
        4
 70
     1
 10
6.083333
 20
7.75
 10
6.083333
 20
5.25
 10
6.25
 20
5.25
 10
6.25
 20
7.75
  0
ENDBLK
  5
26A
100
AcDbEntity
  8
0
100
AcDbBlockEnd
  0
BLOCK
  5
26C
100
AcDbEntity
  8
0
100
AcDbBlockBegin
  2
DOUBLE
 70
     2
 10
0.0
 20
0.0
 30
0.0
  3
DOUBLE
  1

  0
ATTDEF
  5
26D
100
AcDbEntity
  8
0
100
AcDbText
 10
5.0
 20
5.0
 30
0.0
 40
0.2
  1
80
100
AcDbAttributeDefinition
  3
Door height
  2
VISDOORHEIGHT
 70
     0
  0
ATTDEF
  5
26E
100
AcDbEntity
  8
0
100
AcDbText
 10
5.0
 20
5.0
 30
0.0
 40
0.2
  1
0
100
AcDbAttributeDefinition
  3
Reference Line Offset
  2
REFLN
 70
     0
  0
ATTDEF
  5
26F
100
AcDbEntity
  8
0
100
AcDbText
 10
5.0
 20
5.0
 30
0.0
 40
0.2
  1
60
100
AcDbAttributeDefinition
  3
Door width
  2
SUBTYPE
 70
     0
  0
ATTDEF
  5
270
100
AcDbEntity
  8
0
100
AcDbText
 10
5.0
 20
5.0
 30
0.0
 40
0.2
  1
2
100
AcDbAttributeDefinition
  3
Door frame width
  2
SUBVISDOORFRAMEWIDTH
 70
     0
  0
ATTDEF
  5
271
100
AcDbEntity
  8
0
100
AcDbText
 10
5.0
 20
5.0
 30
0.0
 40
0.2
  1
4
100
AcDbAttributeDefinition
  3
Door frame depth
  2
SUBVISDOORFRAMEDEPTH
 70
     0
  0
ATTDEF
  5
272
100
AcDbEntity
  8
0
100
AcDbText
 10
5.0
 20
5.0
 30
0.0
 40
0.2
  1
0.5
100
AcDbAttributeDefinition
  3
Door stop width
  2
SUBVISDOORSTOPWIDTH
 70
     0
  0
ATTDEF
  5
273
100
AcDbEntity
  8
0
100
AcDbText
 10
5.0
 20
5.0
 30
0.0
 40
0.2
  1
1.5
100
AcDbAttributeDefinition
  3
Door stop depth
  2
SUBVISDOORSTOPDEPTH
 70
     0
  0
ATTDEF
  5
274
100
AcDbEntity
  8
0
100
AcDbText
 10
5.0
 20
5.0
 30
0.0
 40
0.2
  1
2
100
AcDbAttributeDefinition
  3
Door threshold depth inside
  2
SUBVISDOORTHRESDEPTHIN
 70
     0
  0
ATTDEF
  5
275
100
AcDbEntity
  8
0
100
AcDbText
 10
5.0
 20
5.0
 30
0.0
 40
0.2
  1
2
100
AcDbAttributeDefinition
  3
Door threshold width inside
  2
SUBVISDOORTHRESWIDTHIN
 70
     0
  0
ATTDEF
  5
276
100
AcDbEntity
  8
0
100
AcDbText
 10
5.0
 20
5.0
 30
0.0
 40
0.2
  1
2
100
AcDbAttributeDefinition
  3
Door threshold depth outside
  2
SUBVISDOORTHRESDEPTHOUT
 70
     0
  0
ATTDEF
  5
277
100
AcDbEntity
  8
0
100
AcDbText
 10
5.0
 20
5.0
 30
0.0
 40
0.2
  1
2
100
AcDbAttributeDefinition
  3
Door threshold width outside
  2
SUBVISDOORTHRESWIDTHOUT
 70
     0
  0
ATTDEF
  5
278
100
AcDbEntity
  8
0
100
AcDbText
 10
5.0
 20
5.0
 30
0.0
 40
0.2
  1
2
100
AcDbAttributeDefinition
  3
Door panel thickness
  2
SUBVISDOORPANELTHICKNESS
 70
     0
  0
ATTDEF
  5
279
100
AcDbEntity
  8
0
100
AcDbText
 10
5.0
 20
5.0
 30
0.0
 40
0.2
  1
30
100
AcDbAttributeDefinition
  3
Door leaf width
  2
VISDOORLEAF
 70
     0
  0
ATTDEF
  5
27A
100
AcDbEntity
  8
0
100
AcDbText
 10
5.0
 20
5.0
 30
0.0
 40
0.2
  1
12
100
AcDbAttributeDefinition
  3
Door spring height
  2
VISDOORSPRING
 70
     0
  0
ATTDEF
  5
27B
100
AcDbEntity
  8
0
100
AcDbText
 10
5.0
 20
5.0
 30
0.0
 40
0.2
  1
6
100
AcDbAttributeDefinition
  3
Door along wall offset
  2
VISDOORALONGWALLOFFSET
 70
     0
  0
ATTDEF
  5
27C
100
AcDbEntity
  8
0
100
AcDbText
 10
5.0
 20
5.0
 30
0.0
 40
0.2
  1
Double
100
AcDbAttributeDefinition
  3
Door type
  2
SUBSHAPETYPE
 70
     0
  0
ATTDEF
  5
27D
100
AcDbEntity
  8
0
100
AcDbText
 10
5.0
 20
5.0
 30
0.0
 40
0.2
  1
Center
100
AcDbAttributeDefinition
  3
Door within wall offset
  2
VISJUSTIFICATION
 70
     0
  0
ATTDEF
  5
27E
100
AcDbEntity
  8
0
100
AcDbText
 10
5.0
 20
5.0
 30
0.0
 40
0.2
  1
50
100
AcDbAttributeDefinition
  3
Door open percentage
  2
VISDOOROPENPERCENT
 70
     0
  0
ATTDEF
  5
27F
100
AcDbEntity
  8
0
100
AcDbText
 10
5.0
 20
5.0
 30
0.0
 40
0.2
  1
Building Component
100
AcDbAttributeDefinition
  3
Shape class
  2
SHAPECLASS
 70
     0
  0
ATTDEF
  5
280
100
AcDbEntity
  8
0
100
AcDbText
 10
5.0
 20
5.0
 30
0.0
 40
0.2
  1
Door
100
AcDbAttributeDefinition
  3
Shape type
  2
SHAPETYPE
 70
     0
  0
ATTDEF
  5
281
100
AcDbEntity
  8
0
100
AcDbText
 10
5.0
 20
5.0
 30
0.0
 40
0.2
  1
0
100
AcDbAttributeDefinition
  3
Fire rating
  2
FIRERATING
 70
     0
  0
ATTDEF
  5
282
100
AcDbEntity
  8
0
100
AcDbText
 10
5.0
 20
5.0
 30
0.0
 40
0.2
  1
0
100
AcDbAttributeDefinition
  3
Door number
  2
DOORNUMBER
 70
     0
  0
ATTDEF
  5
283
100
AcDbEntity
  8
0
100
AcDbText
 10
5.0
 20
5.0
 30
0.0
 40
0.2
  1
0
100
AcDbAttributeDefinition
  3
Base elevation
  2
BASEELEVATION
 70
     0
  0
LWPOLYLINE
  5
284
102
{ACAD_REACTORS
330
2E2
102
}
100
AcDbEntity
  8
BUILDING_ENVELOPE
  6
CONTINUOUS
 62
     7
100
AcDbPolyline
 90
        4
 70
     1
 10
2.333333
 20
4.734
 10
7.666667
 20
4.734
 10
7.666667
 20
5.266
 10
2.333333
 20
5.266
  0
LINE
  5
285
102
{ACAD_REACTORS
330
2E2
102
}
100
AcDbEntity
  8
BUILDING_ENVELOPE
  6
CONTINUOUS
 62
     7
100
AcDbLine
 10
7.666667
 20
4.75
 30
0.0
 11
7.666667
 21
5.25
 31
0.0
  0
LINE
  5
286
102
{ACAD_REACTORS
330
2E2
102
}
100
AcDbEntity
  8
BUILDING_ENVELOPE
  6
CONTINUOUS
 62
     7
100
AcDbLine
 10
7.666667
 20
5.25
 30
0.0
 11
7.5
 21
5.25
 31
0.0
  0
LINE
  5
287
102
{ACAD_REACTORS
330
2E2
102
}
100
AcDbEntity
  8
BUILDING_ENVELOPE
  6
CONTINUOUS
 62
     7
100
AcDbLine
 10
7.5
 20
5.25
 30
0.0
 11
7.5
 21
5.083333
 31
0.0
  0
LINE
  5
288
102
{ACAD_REACTORS
330
2E2
102
}
100
AcDbEntity
  8
BUILDING_ENVELOPE
  6
CONTINUOUS
 62
     7
100
AcDbLine
 10
7.5
 20
4.958333
 30
0.0
 11
7.5
 21
4.75
 31
0.0
  0
LINE
  5
289
102
{ACAD_REACTORS
330
2E2
102
}
100
AcDbEntity
  8
BUILDING_ENVELOPE
  6
CONTINUOUS
 62
     7
100
AcDbLine
 10
7.5
 20
4.75
 30
0.0
 11
7.666667
 21
4.75
 31
0.0
  0
LINE
  5
28A
102
{ACAD_REACTORS
330
2E2
102
}
100
AcDbEntity
  8
BUILDING_ENVELOPE
  6
CONTINUOUS
 62
     7
100
AcDbLine
 10
2.333333
 20
4.75
 30
0.0
 11
2.333333
 21
5.25
 31
0.0
  0
LINE
  5
28B
102
{ACAD_REACTORS
330
2E2
102
}
100
AcDbEntity
  8
BUILDING_ENVELOPE
  6
CONTINUOUS
 62
     7
100
AcDbLine
 10
2.333333
 20
5.25
 30
0.0
 11
2.5
 21
5.25
 31
0.0
  0
LINE
  5
28C
102
{ACAD_REACTORS
330
2E2
102
}
100
AcDbEntity
  8
BUILDING_ENVELOPE
  6
CONTINUOUS
 62
     7
100
AcDbLine
 10
2.5
 20
5.25
 30
0.0
 11
2.5
 21
5.083333
 31
0.0
  0
LINE
  5
28D
102
{ACAD_REACTORS
330
2E2
102
}
100
AcDbEntity
  8
BUILDING_ENVELOPE
  6
CONTINUOUS
 62
     7
100
AcDbLine
 10
2.5
 20
4.958333
 30
0.0
 11
2.5
 21
4.75
 31
0.0
  0
LINE
  5
28E
102
{ACAD_REACTORS
330
2E2
102
}
100
AcDbEntity
  8
BUILDING_ENVELOPE
  6
CONTINUOUS
 62
     7
100
AcDbLine
 10
2.5
 20
4.75
 30
0.0
 11
2.333333
 21
4.75
 31
0.0
  0
LINE
  5
28F
102
{ACAD_REACTORS
330
2E2
102
}
100
AcDbEntity
  8
BUILDING_ENVELOPE
  6
CONTINUOUS
 62
     7
100
AcDbLine
 10
7.5
 20
5.083333
 30
0.0
 11
7.458333
 21
5.083333
 31
0.0
  0
LINE
  5
290
102
{ACAD_REACTORS
330
2E2
102
}
100
AcDbEntity
  8
BUILDING_ENVELOPE
  6
CONTINUOUS
 62
     7
100
AcDbLine
 10
7.458333
 20
5.083333
 30
0.0
 11
7.458333
 21
4.958333
 31
0.0
  0
LINE
  5
291
102
{ACAD_REACTORS
330
2E2
102
}
100
AcDbEntity
  8
BUILDING_ENVELOPE
  6
CONTINUOUS
 62
     7
100
AcDbLine
 10
7.458333
 20
4.958333
 30
0.0
 11
7.5
 21
4.958333
 31
0.0
  0
LINE
  5
292
102
{ACAD_REACTORS
330
2E2
102
}
100
AcDbEntity
  8
BUILDING_ENVELOPE
  6
CONTINUOUS
 62
     7
100
AcDbLine
 10
2.5
 20
5.083333
 30
0.0
 11
2.541667
 21
5.083333
 31
0.0
  0
LINE
  5
293
102
{ACAD_REACTORS
330
2E2
102
}
100
AcDbEntity
  8
BUILDING_ENVELOPE
  6
CONTINUOUS
 62
     7
100
AcDbLine
 10
2.541667
 20
5.083333
 30
0.0
 11
2.541667
 21
4.958333
 31
0.0
  0
LINE
  5
294
102
{ACAD_REACTORS
330
2E2
102
}
100
AcDbEntity
  8
BUILDING_ENVELOPE
  6
CONTINUOUS
 62
     7
100
AcDbLine
 10
2.541667
 20
4.958333
 30
0.0
 11
2.5
 21
4.958333
 31
0.0
  0
LINE
  5
295
100
AcDbEntity
  8
BUILDING_ENVELOPE
  6
CONTINUOUS
 62
     7
100
AcDbLine
 10
7.666667
 20
4.75
 30
0.0
 11
7.666667
 21
5.25
 31
0.0
  0
LINE
  5
296
100
AcDbEntity
  8
BUILDING_ENVELOPE
  6
CONTINUOUS
 62
     7
100
AcDbLine
 10
2.333333
 20
4.75
 30
0.0
 11
2.333333
 21
5.25
 31
0.0
  0
ARC
  5
297
100
AcDbEntity
  8
BUILDING_ENVELOPE
  6
CONTINUOUS
 62
     7
100
AcDbCircle
 10
2.5
 20
5.25
 30
0.0
 40
2.5
100
AcDbArc
 50
0.0
 51
90.0
  0
ARC
  5
298
100
AcDbEntity
  8
BUILDING_ENVELOPE
  6
CONTINUOUS
 62
     7
100
AcDbCircle
 10
7.5
 20
5.25
 30
0.0
 40
2.5
100
AcDbArc
 50
90.0
 51
180.0
  0
LWPOLYLINE
  5
299
102
{ACAD_REACTORS
330
2E2
102
}
100
AcDbEntity
  8
BUILDING_ENVELOPE
  6
CONTINUOUS
 62
     7
100
AcDbPolyline
 90
        4
 70
     1
 10
2.5
 20
7.75
 10
2.5
 20
5.25
 10
2.666667
 20
5.25
 10
2.666667
 20
7.75
  0
LWPOLYLINE
  5
29A
102
{ACAD_REACTORS
330
2E2
102
}
100
AcDbEntity
  8
BUILDING_ENVELOPE
  6
CONTINUOUS
 62
     7
100
AcDbPolyline
 90
        4
 70
     1
 10
7.333333
 20
7.75
 10
7.333333
 20
5.25
 10
7.5
 20
5.25
 10
7.5
 20
7.75
  0
ENDBLK
  5
29B
100
AcDbEntity
  8
0
100
AcDbBlockEnd
  0
BLOCK
  5
29D
100
AcDbEntity
  8
0
100
AcDbBlockBegin
  2
OPPOSING
 70
     2
 10
0.0
 20
0.0
 30
0.0
  3
OPPOSING
  1

  0
ATTDEF
  5
29E
100
AcDbEntity
  8
0
100
AcDbText
 10
5.0
 20
5.0
 30
0.0
 40
0.2
  1
80
100
AcDbAttributeDefinition
  3
Door height
  2
VISDOORHEIGHT
 70
     0
  0
ATTDEF
  5
29F
100
AcDbEntity
  8
0
100
AcDbText
 10
5.0
 20
5.0
 30
0.0
 40
0.2
  1
0
100
AcDbAttributeDefinition
  3
Reference Line Offset
  2
REFLN
 70
     0
  0
ATTDEF
  5
2A0
100
AcDbEntity
  8
0
100
AcDbText
 10
5.0
 20
5.0
 30
0.0
 40
0.2
  1
60
100
AcDbAttributeDefinition
  3
Door width
  2
SUBTYPE
 70
     0
  0
ATTDEF
  5
2A1
100
AcDbEntity
  8
0
100
AcDbText
 10
5.0
 20
5.0
 30
0.0
 40
0.2
  1
2
100
AcDbAttributeDefinition
  3
Door frame width
  2
SUBVISDOORFRAMEWIDTH
 70
     0
  0
ATTDEF
  5
2A2
100
AcDbEntity
  8
0
100
AcDbText
 10
5.0
 20
5.0
 30
0.0
 40
0.2
  1
4
100
AcDbAttributeDefinition
  3
Door frame depth
  2
SUBVISDOORFRAMEDEPTH
 70
     0
  0
ATTDEF
  5
2A3
100
AcDbEntity
  8
0
100
AcDbText
 10
5.0
 20
5.0
 30
0.0
 40
0.2
  1
0.5
100
AcDbAttributeDefinition
  3
Door stop width
  2
SUBVISDOORSTOPWIDTH
 70
     0
  0
ATTDEF
  5
2A4
100
AcDbEntity
  8
0
100
AcDbText
 10
5.0
 20
5.0
 30
0.0
 40
0.2
  1
1.5
100
AcDbAttributeDefinition
  3
Door stop depth
  2
SUBVISDOORSTOPDEPTH
 70
     0
  0
ATTDEF
  5
2A5
100
AcDbEntity
  8
0
100
AcDbText
 10
5.0
 20
5.0
 30
0.0
 40
0.2
  1
2
100
AcDbAttributeDefinition
  3
Door threshold depth inside
  2
SUBVISDOORTHRESDEPTHIN
 70
     0
  0
ATTDEF
  5
2A6
100
AcDbEntity
  8
0
100
AcDbText
 10
5.0
 20
5.0
 30
0.0
 40
0.2
  1
2
100
AcDbAttributeDefinition
  3
Door threshold width inside
  2
SUBVISDOORTHRESWIDTHIN
 70
     0
  0
ATTDEF
  5
2A7
100
AcDbEntity
  8
0
100
AcDbText
 10
5.0
 20
5.0
 30
0.0
 40
0.2
  1
2
100
AcDbAttributeDefinition
  3
Door threshold depth outside
  2
SUBVISDOORTHRESDEPTHOUT
 70
     0
  0
ATTDEF
  5
2A8
100
AcDbEntity
  8
0
100
AcDbText
 10
5.0
 20
5.0
 30
0.0
 40
0.2
  1
2
100
AcDbAttributeDefinition
  3
Door threshold width outside
  2
SUBVISDOORTHRESWIDTHOUT
 70
     0
  0
ATTDEF
  5
2A9
100
AcDbEntity
  8
0
100
AcDbText
 10
5.0
 20
5.0
 30
0.0
 40
0.2
  1
2
100
AcDbAttributeDefinition
  3
Door panel thickness
  2
SUBVISDOORPANELTHICKNESS
 70
     0
  0
ATTDEF
  5
2AA
100
AcDbEntity
  8
0
100
AcDbText
 10
5.0
 20
5.0
 30
0.0
 40
0.2
  1
30
100
AcDbAttributeDefinition
  3
Door leaf width
  2
VISDOORLEAF
 70
     0
  0
ATTDEF
  5
2AB
100
AcDbEntity
  8
0
100
AcDbText
 10
5.0
 20
5.0
 30
0.0
 40
0.2
  1
12
100
AcDbAttributeDefinition
  3
Door spring height
  2
VISDOORSPRING
 70
     0
  0
ATTDEF
  5
2AC
100
AcDbEntity
  8
0
100
AcDbText
 10
5.0
 20
5.0
 30
0.0
 40
0.2
  1
6
100
AcDbAttributeDefinition
  3
Door along wall offset
  2
VISDOORALONGWALLOFFSET
 70
     0
  0
ATTDEF
  5
2AD
100
AcDbEntity
  8
0
100
AcDbText
 10
5.0
 20
5.0
 30
0.0
 40
0.2
  1
Opposing
100
AcDbAttributeDefinition
  3
Door type
  2
SUBSHAPETYPE
 70
     0
  0
ATTDEF
  5
2AE
100
AcDbEntity
  8
0
100
AcDbText
 10
5.0
 20
5.0
 30
0.0
 40
0.2
  1
Center
100
AcDbAttributeDefinition
  3
Door within wall offset
  2
VISJUSTIFICATION
 70
     0
  0
ATTDEF
  5
2AF
100
AcDbEntity
  8
0
100
AcDbText
 10
5.0
 20
5.0
 30
0.0
 40
0.2
  1
50
100
AcDbAttributeDefinition
  3
Door open percentage
  2
VISDOOROPENPERCENT
 70
     0
  0
ATTDEF
  5
2B0
100
AcDbEntity
  8
0
100
AcDbText
 10
5.0
 20
5.0
 30
0.0
 40
0.2
  1
Building Component
100
AcDbAttributeDefinition
  3
Shape class
  2
SHAPECLASS
 70
     0
  0
ATTDEF
  5
2B1
100
AcDbEntity
  8
0
100
AcDbText
 10
5.0
 20
5.0
 30
0.0
 40
0.2
  1
Door
100
AcDbAttributeDefinition
  3
Shape type
  2
SHAPETYPE
 70
     0
  0
ATTDEF
  5
2B2
100
AcDbEntity
  8
0
100
AcDbText
 10
5.0
 20
5.0
 30
0.0
 40
0.2
  1
0
100
AcDbAttributeDefinition
  3
Fire rating
  2
FIRERATING
 70
     0
  0
ATTDEF
  5
2B3
100
AcDbEntity
  8
0
100
AcDbText
 10
5.0
 20
5.0
 30
0.0
 40
0.2
  1
0
100
AcDbAttributeDefinition
  3
Door number
  2
DOORNUMBER
 70
     0
  0
ATTDEF
  5
2B4
100
AcDbEntity
  8
0
100
AcDbText
 10
5.0
 20
5.0
 30
0.0
 40
0.2
  1
0
100
AcDbAttributeDefinition
  3
Base elevation
  2
BASEELEVATION
 70
     0
  0
LWPOLYLINE
  5
2B5
102
{ACAD_REACTORS
330
2E2
102
}
100
AcDbEntity
  8
BUILDING_ENVELOPE
  6
CONTINUOUS
 62
     7
100
AcDbPolyline
 90
        4
 70
     1
 10
2.333333
 20
4.734
 10
7.666667
 20
4.734
 10
7.666667
 20
5.266
 10
2.333333
 20
5.266
  0
LINE
  5
2B6
102
{ACAD_REACTORS
330
2E2
102
}
100
AcDbEntity
  8
BUILDING_ENVELOPE
  6
CONTINUOUS
 62
     7
100
AcDbLine
 10
7.666667
 20
4.75
 30
0.0
 11
7.666667
 21
5.25
 31
0.0
  0
LINE
  5
2B7
102
{ACAD_REACTORS
330
2E2
102
}
100
AcDbEntity
  8
BUILDING_ENVELOPE
  6
CONTINUOUS
 62
     7
100
AcDbLine
 10
7.666667
 20
5.25
 30
0.0
 11
7.5
 21
5.25
 31
0.0
  0
LINE
  5
2B8
102
{ACAD_REACTORS
330
2E2
102
}
100
AcDbEntity
  8
BUILDING_ENVELOPE
  6
CONTINUOUS
 62
     7
100
AcDbLine
 10
7.5
 20
5.25
 30
0.0
 11
7.5
 21
5.083333
 31
0.0
  0
LINE
  5
2B9
102
{ACAD_REACTORS
330
2E2
102
}
100
AcDbEntity
  8
BUILDING_ENVELOPE
  6
CONTINUOUS
 62
     7
100
AcDbLine
 10
7.5
 20
4.958333
 30
0.0
 11
7.5
 21
4.75
 31
0.0
  0
LINE
  5
2BA
102
{ACAD_REACTORS
330
2E2
102
}
100
AcDbEntity
  8
BUILDING_ENVELOPE
  6
CONTINUOUS
 62
     7
100
AcDbLine
 10
7.5
 20
4.75
 30
0.0
 11
7.666667
 21
4.75
 31
0.0
  0
LINE
  5
2BB
102
{ACAD_REACTORS
330
2E2
102
}
100
AcDbEntity
  8
BUILDING_ENVELOPE
  6
CONTINUOUS
 62
     7
100
AcDbLine
 10
2.333333
 20
4.75
 30
0.0
 11
2.333333
 21
5.25
 31
0.0
  0
LINE
  5
2BC
102
{ACAD_REACTORS
330
2E2
102
}
100
AcDbEntity
  8
BUILDING_ENVELOPE
  6
CONTINUOUS
 62
     7
100
AcDbLine
 10
2.333333
 20
5.25
 30
0.0
 11
2.5
 21
5.25
 31
0.0
  0
LINE
  5
2BD
102
{ACAD_REACTORS
330
2E2
102
}
100
AcDbEntity
  8
BUILDING_ENVELOPE
  6
CONTINUOUS
 62
     7
100
AcDbLine
 10
2.5
 20
5.25
 30
0.0
 11
2.5
 21
5.041667
 31
0.0
  0
LINE
  5
2BE
102
{ACAD_REACTORS
330
2E2
102
}
100
AcDbEntity
  8
BUILDING_ENVELOPE
  6
CONTINUOUS
 62
     7
100
AcDbLine
 10
2.5
 20
4.916667
 30
0.0
 11
2.5
 21
4.75
 31
0.0
  0
LINE
  5
2BF
102
{ACAD_REACTORS
330
2E2
102
}
100
AcDbEntity
  8
BUILDING_ENVELOPE
  6
CONTINUOUS
 62
     7
100
AcDbLine
 10
2.5
 20
4.75
 30
0.0
 11
2.333333
 21
4.75
 31
0.0
  0
LINE
  5
2C0
102
{ACAD_REACTORS
330
2E2
102
}
100
AcDbEntity
  8
BUILDING_ENVELOPE
  6
CONTINUOUS
 62
     7
100
AcDbLine
 10
7.5
 20
5.083333
 30
0.0
 11
7.458333
 21
5.083333
 31
0.0
  0
LINE
  5
2C1
102
{ACAD_REACTORS
330
2E2
102
}
100
AcDbEntity
  8
BUILDING_ENVELOPE
  6
CONTINUOUS
 62
     7
100
AcDbLine
 10
7.458333
 20
5.083333
 30
0.0
 11
7.458333
 21
4.958333
 31
0.0
  0
LINE
  5
2C2
102
{ACAD_REACTORS
330
2E2
102
}
100
AcDbEntity
  8
BUILDING_ENVELOPE
  6
CONTINUOUS
 62
     7
100
AcDbLine
 10
7.458333
 20
4.958333
 30
0.0
 11
7.5
 21
4.958333
 31
0.0
  0
LINE
  5
2C3
102
{ACAD_REACTORS
330
2E2
102
}
100
AcDbEntity
  8
BUILDING_ENVELOPE
  6
CONTINUOUS
 62
     7
100
AcDbLine
 10
2.5
 20
5.041667
 30
0.0
 11
2.541667
 21
5.041667
 31
0.0
  0
LINE
  5
2C4
102
{ACAD_REACTORS
330
2E2
102
}
100
AcDbEntity
  8
BUILDING_ENVELOPE
  6
CONTINUOUS
 62
     7
100
AcDbLine
 10
2.541667
 20
5.041667
 30
0.0
 11
2.541667
 21
4.916667
 31
0.0
  0
LINE
  5
2C5
102
{ACAD_REACTORS
330
2E2
102
}
100
AcDbEntity
  8
BUILDING_ENVELOPE
  6
CONTINUOUS
 62
     7
100
AcDbLine
 10
2.541667
 20
4.916667
 30
0.0
 11
2.5
 21
4.916667
 31
0.0
  0
LINE
  5
2C6
100
AcDbEntity
  8
BUILDING_ENVELOPE
  6
CONTINUOUS
 62
     7
100
AcDbLine
 10
7.666667
 20
4.75
 30
0.0
 11
7.666667
 21
5.25
 31
0.0
  0
LINE
  5
2C7
100
AcDbEntity
  8
BUILDING_ENVELOPE
  6
CONTINUOUS
 62
     7
100
AcDbLine
 10
2.333333
 20
4.75
 30
0.0
 11
2.333333
 21
5.25
 31
0.0
  0
ARC
  5
2C8
100
AcDbEntity
  8
BUILDING_ENVELOPE
  6
CONTINUOUS
 62
     7
100
AcDbCircle
 10
7.5
 20
5.25
 30
0.0
 40
2.5
100
AcDbArc
 50
90.0
 51
180.0
  0
LWPOLYLINE
  5
2C9
102
{ACAD_REACTORS
330
2E2
102
}
100
AcDbEntity
  8
BUILDING_ENVELOPE
  6
CONTINUOUS
 62
     7
100
AcDbPolyline
 90
        4
 70
     1
 10
7.333333
 20
7.75
 10
7.333333
 20
5.25
 10
7.5
 20
5.25
 10
7.5
 20
7.75
  0
LWPOLYLINE
  5
2CA
102
{ACAD_REACTORS
330
2E2
102
}
100
AcDbEntity
  8
BUILDING_ENVELOPE
  6
CONTINUOUS
 62
     7
100
AcDbPolyline
 90
        4
 70
     1
 10
2.666667
 20
2.25
 10
2.666667
 20
4.75
 10
2.5
 20
4.75
 10
2.5
 20
2.25
  0
ARC
  5
2CB
100
AcDbEntity
  8
BUILDING_ENVELOPE
  6
CONTINUOUS
 62
     7
100
AcDbCircle
 10
2.5
 20
4.75
 30
0.0
 40
2.5
100
AcDbArc
 50
270.0
 51
0.0
  0
ENDBLK
  5
2CC
100
AcDbEntity
  8
0
100
AcDbBlockEnd
  0
BLOCK
  5
2CE
100
AcDbEntity
  8
0
100
AcDbBlockBegin
  2
SPACE
 70
     2
 10
0.0
 20
0.0
 30
0.0
  3
SPACE
  1

  0
ATTDEF
  5
2CF
100
AcDbEntity
  8
0
100
AcDbText
 10
5.0
 20
5.0
 30
0.0
 40
0.2
  1

100
AcDbAttributeDefinition
  3
Name
  2
NAME
 70
     0
  0
ATTDEF
  5
2D0
100
AcDbEntity
  8
0
100
AcDbText
 10
5.0
 20
5.0
 30
0.0
 40
0.2
  1

100
AcDbAttributeDefinition
  3
Space ID
  2
LOCATIONID
 70
     0
  0
ATTDEF
  5
2D1
100
AcDbEntity
  8
0
100
AcDbText
 10
5.0
 20
5.0
 30
0.0
 40
0.2
  1

100
AcDbAttributeDefinition
  3
Department
  2
DEPARTMENT
 70
     0
  0
ATTDEF
  5
2D2
100
AcDbEntity
  8
0
100
AcDbText
 10
5.0
 20
5.0
 30
0.0
 40
0.2
  1
Office
100
AcDbAttributeDefinition
  3
Space use
  2
USE
 70
     0
  0
ATTDEF
  5
2D3
100
AcDbEntity
  8
0
100
AcDbText
 10
5.0
 20
5.0
 30
0.0
 40
0.2
  1

100
AcDbAttributeDefinition
  3
Phone number
  2
PHONENUMBER
 70
     0
  0
ATTDEF
  5
2D4
100
AcDbEntity
  8
0
100
AcDbText
 10
5.0
 20
5.0
 30
0.0
 40
0.2
  1
0
100
AcDbAttributeDefinition
  3
Occupancy
  2
OCCUPANTCOUNT
 70
     0
  0
ATTDEF
  5
2D5
100
AcDbEntity
  8
0
100
AcDbText
 10
5.0
 20
5.0
 30
0.0
 40
0.2
  1
0
100
AcDbAttributeDefinition
  3
Capacity
  2
OCCUPANTCAPACITY
 70
     0
  0
ATTDEF
  5
2D6
100
AcDbEntity
  8
0
100
AcDbText
 10
5.0
 20
5.0
 30
0.0
 40
0.2
  1

100
AcDbAttributeDefinition
  3
ID
  2
ID
 70
     0
  0
ATTDEF
  5
2D7
100
AcDbEntity
  8
0
100
AcDbText
 10
5.0
 20
5.0
 30
0.0
 40
0.2
  1

100
AcDbAttributeDefinition
  3
Belongs to
  2
BELONGSTO
 70
     0
  0
ATTDEF
  5
2D8
100
AcDbEntity
  8
0
100
AcDbText
 10
5.0
 20
5.0
 30
0.0
 40
0.2
  1

100
AcDbAttributeDefinition
  3
Modified
  2
MODIFY
 70
     0
  0
ATTDEF
  5
2D9
100
AcDbEntity
  8
0
100
AcDbText
 10
5.0
 20
5.0
 30
0.0
 40
0.2
  1
Location
100
AcDbAttributeDefinition
  3
Shape class
  2
SHAPECLASS
 70
     0
  0
ATTDEF
  5
2DA
100
AcDbEntity
  8
0
100
AcDbText
 10
5.0
 20
5.0
 30
0.0
 40
0.2
  1
Space
100
AcDbAttributeDefinition
  3
Shape type
  2
SHAPETYPE
 70
     0
  0
ATTDEF
  5
2DB
100
AcDbEntity
  8
0
100
AcDbText
 10
5.0
 20
5.0
 30
0.0
 40
0.2
  1

100
AcDbAttributeDefinition
  3
Subshape type
  2
SUBSHAPETYPE
 70
     0
  0
ATTDEF
  5
2DC
100
AcDbEntity
  8
0
100
AcDbText
 10
5.0
 20
5.0
 30
0.0
 40
0.2
  1
0
100
AcDbAttributeDefinition
  3
Space height
  2
SPACEHEIGHT
 70
     0
  0
ATTDEF
  5
2DD
100
AcDbEntity
  8
0
100
AcDbText
 10
5.0
 20
5.0
 30
0.0
 40
0.2
  1
0
100
AcDbAttributeDefinition
  3
Zones
  2
ZONES
 70
     0
  0
ATTDEF
  5
2DE
100
AcDbEntity
  8
0
100
AcDbText
 10
5.0
 20
5.0
 30
0.0
 40
0.2
  1
100FT^ 2
100
AcDbAttributeDefinition
  3
Calculated area
  2
VISAREA
 70
     0
  0
ATTDEF
  5
2DF
100
AcDbEntity
  8
0
100
AcDbText
 10
5.0
 20
5.0
 30
0.0
 40
0.2
  1
0
100
AcDbAttributeDefinition
  3
Base elevation
  2
BASEELEVATION
 70
     0
  0
LWPOLYLINE
  5
2E1
102
{ACAD_REACTORS
330
2E2
102
}
100
AcDbEntity
  8
WALL
  6
CONTINUOUS
100
AcDbPolyline
 90
        4
 70
     1
 10
0.0
 20
0.0
 10
10.0
 20
0.0
 10
10.0
 20
10.0
 10
0.0
 20
10.0
  0
HATCH
  5
2E2
100
AcDbEntity
  8
WALL
 62
    94
100
AcDbHatch
 10
0.0
 20
0.0
 30
0.0
210
0.0
220
0.0
230
1.0
  2
ANSI31
 70
     0
 71
     1
 91
        1
 92
        2
 72
     0
 73
     1
 93
        4
 10
0.0
 20
0.0
 10
10.0
 20
0.0
 10
10.0
 20
10.0
 10
0.0
 20
10.0
 97
       57
330
255
330
256
330
257
330
258
330
259
330
25A
330
25B
330
25C
330
25D
330
25E
330
25F
330
260
330
261
330
262
330
263
330
264
330
265
330
269
330
284
330
285
330
286
330
287
330
288
330
289
330
28A
330
28B
330
28C
330
28D
330
28E
330
28F
330
290
330
291
330
292
330
293
330
294
330
299
330
29A
330
2B5
330
2B6
330
2B7
330
2B8
330
2B9
330
2BA
330
2BB
330
2BC
330
2BD
330
2BE
330
2BF
330
2C0
330
2C1
330
2C2
330
2C3
330
2C4
330
2C5
330
2C9
330
2CA
330
2E1
 75
     0
 76
     1
 52
0.0
 41
0.083333
 77
     0
 78
     1
 53
45.0
 43
0.0
 44
0.0
 45
-0.0073333333333333
 46
0.0073333333333333
 79
     0
 98
        0
  0
MTEXT
  5
2E3
100
AcDbEntity
  8
WALL
100
AcDbMText
 10
5.0
 20
4.948732
 30
0.0
 40
0.500004
 41
4.420539
 71
     5
 72
     5
  1
\C7;\fCalibri|b0|i0|;\H0.50000381469727;Office\P\P\P
  0
ENDBLK
  5
2E4
100
AcDbEntity
  8
0
100
AcDbBlockEnd
  0
BLOCK
  5
2E6
100
AcDbEntity
  8
0
100
AcDbBlockBegin
  2
SQUARE
 70
     0
 10
0.0
 20
0.0
 30
0.0
  3
SQUARE
  1

  0
LWPOLYLINE
  5
2E7
102
{ACAD_REACTORS
330
2FC
102
}
100
AcDbEntity
  8
0
  6
CONTINUOUS
 62
     7
100
AcDbPolyline
 90
        4
 70
     1
 10
0.104167
 20
0.104167
 10
0.229167
 20
0.104167
 10
0.229167
 20
0.229167
 10
0.104167
 20
0.229167
  0
ENDBLK
  5
2E8
100
AcDbEntity
  8
0
100
AcDbBlockEnd
  0
BLOCK
  5
2EA
100
AcDbEntity
  8
0
100
AcDbBlockBegin
  2
CORNER_LANDING
 70
     0
 10
0.0
 20
0.0
 30
0.0
  3
CORNER_LANDING
  1

  0
LWPOLYLINE
  5
2EB
100
AcDbEntity
  8
WALL
  6
CONTINUOUS
 62
     7
100
AcDbPolyline
 90
        4
 70
     1
 10
-1.332899
 20
-1.321759
 10
1.660475
 20
-1.321759
 10
1.660475
 20
1.671615
 10
-1.332899
 20
1.671615
  0
LINE
  5
2EC
100
AcDbEntity
  8
WALL
  6
CONTINUOUS
 62
     9
100
AcDbLine
 10
-1.332899
 20
-1.321759
 30
0.0
 11
0.156724
 21
1.671615
 31
0.0
  0
LINE
  5
2ED
100
AcDbEntity
  8
WALL
  6
CONTINUOUS
 62
     9
100
AcDbLine
 10
-1.332899
 20
-1.321759
 30
0.0
 11
1.660475
 21
0.169061
 31
0.0
  0
ENDBLK
  5
2EE
100
AcDbEntity
  8
0
100
AcDbBlockEnd
  0
BLOCK
  5
2F0
100
AcDbEntity
  8
0
100
AcDbBlockBegin
  2
STRAIGHT_STAIRCASE
 70
     0
 10
0.0
 20
0.0
 30
0.0
  3
STRAIGHT_STAIRCASE
  1

  0
LWPOLYLINE
  5
2F1
100
AcDbEntity
  8
BUILDING_ENVELOPE
  6
CONTINUOUS
 62
     9
100
AcDbPolyline
 90
        4
 70
     1
 10
-3.501199
 20
1.758333
 10
-2.630829
 20
1.758333
 10
-2.630829
 20
-1.241667
 10
-3.501199
 20
-1.241667
  0
LWPOLYLINE
  5
2F2
100
AcDbEntity
  8
BUILDING_ENVELOPE
  6
CONTINUOUS
 62
     9
100
AcDbPolyline
 90
        4
 70
     1
 10
-2.630829
 20
1.758333
 10
-1.760459
 20
1.758333
 10
-1.760459
 20
-1.241667
 10
-2.630829
 20
-1.241667
  0
LWPOLYLINE
  5
2F3
100
AcDbEntity
  8
BUILDING_ENVELOPE
  6
CONTINUOUS
 62
     9
100
AcDbPolyline
 90
        4
 70
     1
 10
-1.760459
 20
1.758333
 10
-0.890088
 20
1.758333
 10
-0.890088
 20
-1.241667
 10
-1.760459
 20
-1.241667
  0
LWPOLYLINE
  5
2F4
100
AcDbEntity
  8
BUILDING_ENVELOPE
  6
CONTINUOUS
 62
     9
100
AcDbPolyline
 90
        4
 70
     1
 10
-0.890088
 20
1.758333
 10
-0.019718
 20
1.758333
 10
-0.019718
 20
-1.241667
 10
-0.890088
 20
-1.241667
  0
LWPOLYLINE
  5
2F5
100
AcDbEntity
  8
BUILDING_ENVELOPE
  6
CONTINUOUS
 62
     9
100
AcDbPolyline
 90
        4
 70
     1
 10
-0.019718
 20
1.758333
 10
0.850653
 20
1.758333
 10
0.850653
 20
-1.241667
 10
-0.019718
 20
-1.241667
  0
LWPOLYLINE
  5
2F6
100
AcDbEntity
  8
BUILDING_ENVELOPE
  6
CONTINUOUS
 62
     9
100
AcDbPolyline
 90
        4
 70
     1
 10
0.850653
 20
1.758333
 10
1.721023
 20
1.758333
 10
1.721023
 20
-1.241667
 10
0.850653
 20
-1.241667
  0
LWPOLYLINE
  5
2F7
100
AcDbEntity
  8
BUILDING_ENVELOPE
  6
CONTINUOUS
 62
     9
100
AcDbPolyline
 90
        4
 70
     1
 10
1.721023
 20
1.758333
 10
2.591393
 20
1.758333
 10
2.591393
 20
-1.241667
 10
1.721023
 20
-1.241667
  0
LWPOLYLINE
  5
2F8
100
AcDbEntity
  8
BUILDING_ENVELOPE
  6
CONTINUOUS
 62
     9
100
AcDbPolyline
 90
        4
 70
     1
 10
2.591393
 20
1.758333
 10
3.461764
 20
1.758333
 10
3.461764
 20
-1.241667
 10
2.591393
 20
-1.241667
  0
LWPOLYLINE
  5
2F9
100
AcDbEntity
  8
BUILDING_ENVELOPE
  6
CONTINUOUS
 62
     9
100
AcDbPolyline
 90
        4
 70
     1
 10
3.461764
 20
1.758333
 10
4.332134
 20
1.758333
 10
4.332134
 20
-1.241667
 10
3.461764
 20
-1.241667
  0
MTEXT
  5
2FA
100
AcDbEntity
  8
BUILDING_ENVELOPE
100
AcDbMText
 10
-3.877833
 20
0.258333
 30
0.0
 40
0.333332
 41
0.753267
 71
     5
 72
     5
  1
\C7;\fCalibri|b0|i0|;\H0.33333206176758;UP
  0
CIRCLE
  5
2FB
102
{ACAD_REACTORS
330
2FC
102
}
100
AcDbEntity
  8
WALL
  6
CONTINUOUS
 62
     7
100
AcDbCircle
 10
-3.501199
 20
0.258333
 30
0.0
 40
0.086804
  0
HATCH
  5
2FC
100
AcDbEntity
  8
WALL
 62
     7
100
AcDbHatch
 10
0.0
 20
0.0
 30
0.0
210
0.0
220
0.0
230
1.0
  2
SOLID
 70
     1
 71
     1
 91
        1
 92
        1
 93
        1
 72
     2
 10
-3.5011993055309873
 20
0.2583333333333307
 40
0.0868041666666667
 50
0.0
 51
360.0
 73
     1
 97
        2
330
2E7
330
2FB
 75
     0
 76
     1
 98
        0
  0
LINE
  5
2FD
100
AcDbEntity
  8
WALL
  6
CONTINUOUS
 62
     7
100
AcDbLine
 10
-3.501199
 20
0.258333
 30
0.0
 11
-1.192999
 21
0.258333
 31
0.0
  0
LWPOLYLINE
  5
2FE
102
{ACAD_REACTORS
330
2FF
102
}
100
AcDbEntity
  8
WALL
  6
CONTINUOUS
 62
     7
100
AcDbPolyline
 90
        3
 70
     1
 10
-1.405912
 20
0.130858
 10
-1.405912
 20
0.385808
 10
-0.980087
 20
0.255599
  0
HATCH
  5
2FF
100
AcDbEntity
  8
WALL
 62
     7
100
AcDbHatch
 10
0.0
 20
0.0
 30
0.0
210
0.0
220
0.0
230
1.0
  2
SOLID
 70
     1
 71
     1
 91
        1
 92
        3
 72
     0
 73
     1
 93
        3
 10
-1.4059118055309874
 20
0.1308583333333307
 10
-1.4059118055309874
 20
0.3858083333333307
 10
-0.9800868055309874
 20
0.2555989359891018
 97
        1
330
2FE
 75
     0
 76
     1
 98
        0
  0
LINE
  5
300
102
{ACAD_REACTORS
330
305
102
}
100
AcDbEntity
  8
BUILDING_ENVELOPE
  6
CONTINUOUS
 62
     7
100
AcDbLine
 10
0.415467
 20
-1.058333
 30
0.0
 11
4.526181
 21
-1.058333
 31
0.0
  0
ARC
  5
301
102
{ACAD_REACTORS
330
305
102
}
100
AcDbEntity
  8
BUILDING_ENVELOPE
  6
CONTINUOUS
 62
     7
100
AcDbCircle
 10
4.29196
 20
-1.404611
 30
0.0
 40
0.418052
100
AcDbArc
 50
357.204441
 51
55.925661
  0
LINE
  5
302
102
{ACAD_REACTORS
330
305
102
}
100
AcDbEntity
  8
BUILDING_ENVELOPE
  6
CONTINUOUS
 62
     7
100
AcDbLine
 10
4.709514
 20
-1.425
 30
0.0
 11
4.892848
 21
-1.425
 31
0.0
  0
ARC
  5
303
102
{ACAD_REACTORS
330
305
102
}
100
AcDbEntity
  8
BUILDING_ENVELOPE
  6
CONTINUOUS
 62
     7
100
AcDbCircle
 10
4.331043
 20
-1.402314
 30
0.0
 40
0.562262
100
AcDbArc
 50
357.687613
 51
69.692522
  0
LINE
  5
304
102
{ACAD_REACTORS
330
305
102
}
100
AcDbEntity
  8
BUILDING_ENVELOPE
  6
CONTINUOUS
 62
     7
100
AcDbLine
 10
4.526181
 20
-0.875
 30
0.0
 11
0.415467
 21
-0.875
 31
0.0
  0
HATCH
  5
305
100
AcDbEntity
  8
BUILDING_ENVELOPE
 62
   254
100
AcDbHatch
 10
0.0
 20
0.0
 30
0.0
210
0.0
220
0.0
230
1.0
  2
SOLID
 70
     1
 71
     1
 91
        4
 92
        1
 93
        6
 72
     1
 10
0.4154673611356792
 20
-1.0583333333333358
 11
4.5261810369690121
 21
-1.0583333333333358
 72
     2
 10
4.2919598054193502
 20
-1.4046106157748337
 40
0.4180520800614547
 50
357.204441
 51
55.925661
 73
     1
 72
     1
 10
4.7095143703023448
 20
-1.4250000000000025
 11
4.8928477036356783
 21
-1.4250000000000025
 72
     2
 10
4.3310434353510541
 20
-1.4023139566341953
 40
0.5622621207465568
 50
357.687613
 51
69.692522
 73
     1
 72
     1
 10
4.5261810369690121
 20
-0.8750000000000029
 11
0.4154673611356792
 21
-0.8750000000000024
 72
     1
 10
0.4154673611356792
 20
-0.8750000000000024
 11
0.4154673611356792
 21
-1.0583333333333358
 97
        5
330
300
330
301
330
302
330
303
330
304
 92
        1
 93
        6
 72
     1
 10
0.4154673611356792
 20
1.5749999999999971
 11
4.5261810369690121
 21
1.5749999999999971
 72
     2
 10
4.5261840383023308
 20
1.7583303320000119
 40
0.1833303320245822
 50
269.999062
 51
0.000938
 73
     1
 72
     1
 10
4.7095143703023457
 20
1.7583333333333306
 11
4.8928477036356783
 21
1.7583333333333306
 72
     2
 10
4.5261870396356496
 20
1.7583273306666913
 40
0.3666606640491629
 50
269.999062
 51
0.000938
 73
     1
 72
     1
 10
4.5261810369690121
 20
1.3916666666666639
 11
0.4154673611356792
 21
1.3916666666666642
 72
     1
 10
0.4154673611356792
 20
1.3916666666666642
 11
0.4154673611356792
 21
1.5749999999999971
 97
        5
330
306
330
307
330
308
330
309
330
30A
 92
        1
 93
        6
 72
     1
 10
-4.6678659721976539
 20
-1.2416666666666691
 11
-4.4845326388643203
 21
-1.2416666666666691
 72
     2
 10
-4.3012023068643064
 20
-1.2416636653333502
 40
0.1833303320245819
 50
89.999062
 51
180.000938
 73
     1
 72
     1
 10
-4.3011993055309841
 20
-1.0583333333333358
 11
0.4154673611356792
 21
-1.0583333333333358
 72
     1
 10
0.4154673611356792
 20
-1.0583333333333358
 11
0.4154673611356792
 21
-0.8750000000000024
 72
     1
 10
0.4154673611356792
 20
-0.8750000000000024
 11
-4.3011993055309876
 21
-0.8750000000000024
 72
     2
 10
-4.3012053081976251
 20
-1.2416606640000305
 40
0.3666606640491635
 50
89.999062
 51
180.000938
 73
     1
 97
        5
330
30B
330
30C
330
30D
330
30E
330
30F
 92
        1
 93
        6
 72
     1
 10
-4.7511993055309869
 20
1.7583333333333306
 11
-4.5678659721976533
 21
1.7583333333333306
 72
     2
 10
-4.3845356401976394
 20
1.7583303320000114
 40
0.183330332024582
 50
179.999062
 51
270.000938
 73
     1
 72
     1
 10
-4.384532638864318
 20
1.5749999999999971
 11
0.4154673611356792
 21
1.5749999999999971
 72
     1
 10
0.4154673611356792
 20
1.5749999999999971
 11
0.4154673611356792
 21
1.3916666666666642
 72
     1
 10
0.4154673611356792
 20
1.3916666666666642
 11
-4.3845326388643207
 21
1.3916666666666642
 72
     2
 10
-4.3845386415309591
 20
1.758327330666692
 40
0.3666606640491635
 50
179.999062
 51
270.000938
 73
     1
 97
        5
330
310
330
311
330
312
330
313
330
314
 75
     0
 76
     1
 98
        0
  0
LINE
  5
306
102
{ACAD_REACTORS
330
305
102
}
100
AcDbEntity
  8
BUILDING_ENVELOPE
  6
CONTINUOUS
 62
     7
100
AcDbLine
 10
0.415467
 20
1.575
 30
0.0
 11
4.526181
 21
1.575
 31
0.0
  0
ARC
  5
307
102
{ACAD_REACTORS
330
305
102
}
100
AcDbEntity
  8
BUILDING_ENVELOPE
  6
CONTINUOUS
 62
     7
100
AcDbCircle
 10
4.526184
 20
1.75833
 30
0.0
 40
0.18333
100
AcDbArc
 50
269.999062
 51
0.0
  0
LINE
  5
308
102
{ACAD_REACTORS
330
305
102
}
100
AcDbEntity
  8
BUILDING_ENVELOPE
  6
CONTINUOUS
 62
     7
100
AcDbLine
 10
4.709514
 20
1.758333
 30
0.0
 11
4.892848
 21
1.758333
 31
0.0
  0
ARC
  5
309
102
{ACAD_REACTORS
330
305
102
}
100
AcDbEntity
  8
BUILDING_ENVELOPE
  6
CONTINUOUS
 62
     7
100
AcDbCircle
 10
4.526187
 20
1.758327
 30
0.0
 40
0.366661
100
AcDbArc
 50
269.999062
 51
0.0
  0
LINE
  5
30A
102
{ACAD_REACTORS
330
305
102
}
100
AcDbEntity
  8
BUILDING_ENVELOPE
  6
CONTINUOUS
 62
     7
100
AcDbLine
 10
4.526181
 20
1.391667
 30
0.0
 11
0.415467
 21
1.391667
 31
0.0
  0
LINE
  5
30B
102
{ACAD_REACTORS
330
305
102
}
100
AcDbEntity
  8
BUILDING_ENVELOPE
  6
CONTINUOUS
 62
     7
100
AcDbLine
 10
-4.667866
 20
-1.241667
 30
0.0
 11
-4.484533
 21
-1.241667
 31
0.0
  0
ARC
  5
30C
102
{ACAD_REACTORS
330
305
102
}
100
AcDbEntity
  8
BUILDING_ENVELOPE
  6
CONTINUOUS
 62
     7
100
AcDbCircle
 10
-4.301202
 20
-1.241664
 30
0.0
 40
0.18333
100
AcDbArc
 50
89.999062
 51
180.000938
  0
LINE
  5
30D
102
{ACAD_REACTORS
330
305
102
}
100
AcDbEntity
  8
BUILDING_ENVELOPE
  6
CONTINUOUS
 62
     7
100
AcDbLine
 10
-4.301199
 20
-1.058333
 30
0.0
 11
0.415467
 21
-1.058333
 31
0.0
  0
LINE
  5
30E
102
{ACAD_REACTORS
330
305
102
}
100
AcDbEntity
  8
BUILDING_ENVELOPE
  6
CONTINUOUS
 62
     7
100
AcDbLine
 10
0.415467
 20
-0.875
 30
0.0
 11
-4.301199
 21
-0.875
 31
0.0
  0
ARC
  5
30F
102
{ACAD_REACTORS
330
305
102
}
100
AcDbEntity
  8
BUILDING_ENVELOPE
  6
CONTINUOUS
 62
     7
100
AcDbCircle
 10
-4.301205
 20
-1.241661
 30
0.0
 40
0.366661
100
AcDbArc
 50
89.999062
 51
180.000938
  0
LINE
  5
310
102
{ACAD_REACTORS
330
305
102
}
100
AcDbEntity
  8
BUILDING_ENVELOPE
  6
CONTINUOUS
 62
     7
100
AcDbLine
 10
-4.751199
 20
1.758333
 30
0.0
 11
-4.567866
 21
1.758333
 31
0.0
  0
ARC
  5
311
102
{ACAD_REACTORS
330
305
102
}
100
AcDbEntity
  8
BUILDING_ENVELOPE
  6
CONTINUOUS
 62
     7
100
AcDbCircle
 10
-4.384536
 20
1.75833
 30
0.0
 40
0.18333
100
AcDbArc
 50
179.999062
 51
270.000938
  0
LINE
  5
312
102
{ACAD_REACTORS
330
305
102
}
100
AcDbEntity
  8
BUILDING_ENVELOPE
  6
CONTINUOUS
 62
     7
100
AcDbLine
 10
-4.384533
 20
1.575
 30
0.0
 11
0.415467
 21
1.575
 31
0.0
  0
LINE
  5
313
102
{ACAD_REACTORS
330
305
102
}
100
AcDbEntity
  8
BUILDING_ENVELOPE
  6
CONTINUOUS
 62
     7
100
AcDbLine
 10
0.415467
 20
1.391667
 30
0.0
 11
-4.384533
 21
1.391667
 31
0.0
  0
ARC
  5
314
102
{ACAD_REACTORS
330
305
102
}
100
AcDbEntity
  8
BUILDING_ENVELOPE
  6
CONTINUOUS
 62
     7
100
AcDbCircle
 10
-4.384539
 20
1.758327
 30
0.0
 40
0.366661
100
AcDbArc
 50
179.999062
 51
270.000938
  0
ENDBLK
  5
315
100
AcDbEntity
  8
0
100
AcDbBlockEnd
  0
ENDSEC
  0
SECTION
  2
ENTITIES
  0
LWPOLYLINE
  5
76
102
{ACAD_REACTORS
330
77
102
}
100
AcDbEntity
  8
BUILDING_ENVELOPE
  6
CONTINUOUS
 62
     7
100
AcDbPolyline
 90
        4
 70
     1
 10
0.356904
 20
65.02357
 10
0.356904
 20
0.356904
 10
0.02357
 20
0.02357
 10
0.02357
 20
65.356904
  0
HATCH
  5
77
102
{ACAD_REACTORS
330
74
102
}
100
AcDbEntity
  8
BUILDING_ENVELOPE
 62
     7
100
AcDbHatch
 10
0.0
 20
0.0
 30
0.0
210
0.0
220
0.0
230
1.0
  2
SOLID
 70
     1
 71
     1
 91
        1
 92
        3
 72
     0
 73
     1
 93
        4
 10
0.3569035593728971
 20
65.0235702260395385
 10
0.3569035593728971
 20
0.3569035593728813
 10
0.0235702260395638
 20
0.023570226039548
 10
0.0235702260395638
 20
65.3569035593728813
 97
        1
330
76
 75
     0
 76
     1
 98
        0
  0
LINE
  5
78
102
{ACAD_REACTORS
330
74
102
}
100
AcDbEntity
  8
BUILDING_ENVELOPE
  6
CONTINUOUS
 62
     7
100
AcDbLine
 10
0.356904
 20
65.02357
 30
0.0
 11
0.356904
 21
0.356904
 31
0.0
  0
LINE
  5
79
102
{ACAD_REACTORS
330
74
102
}
100
AcDbEntity
  8
BUILDING_ENVELOPE
  6
CONTINUOUS
 62
     7
100
AcDbLine
 10
0.02357
 20
65.356904
 30
0.0
 11
0.02357
 21
0.02357
 31
0.0
  0
LWPOLYLINE
  5
7B
102
{ACAD_REACTORS
330
7C
102
}
100
AcDbEntity
  8
BUILDING_ENVELOPE
  6
CONTINUOUS
 62
     7
100
AcDbPolyline
 90
        4
 70
     1
 10
35.356904
 20
65.356904
 10
35.356904
 20
0.02357
 10
35.02357
 20
0.356904
 10
35.02357
 20
65.02357
  0
HATCH
  5
7C
102
{ACAD_REACTORS
330
7A
102
}
100
AcDbEntity
  8
BUILDING_ENVELOPE
 62
     7
100
AcDbHatch
 10
0.0
 20
0.0
 30
0.0
210
0.0
220
0.0
230
1.0
  2
SOLID
 70
     1
 71
     1
 91
        1
 92
        3
 72
     0
 73
     1
 93
        4
 10
35.3569035593728955
 20
65.3569035593728813
 10
35.3569035593728955
 20
0.023570226039548
 10
35.0235702260395669
 20
0.3569035593728813
 10
35.0235702260395669
 20
65.0235702260395385
 97
        1
330
7B
 75
     0
 76
     1
 98
        0
  0
LINE
  5
7D
102
{ACAD_REACTORS
330
7A
102
}
100
AcDbEntity
  8
BUILDING_ENVELOPE
  6
CONTINUOUS
 62
     7
100
AcDbLine
 10
35.356904
 20
65.356904
 30
0.0
 11
35.356904
 21
0.02357
 31
0.0
  0
LINE
  5
7E
102
{ACAD_REACTORS
330
7A
102
}
100
AcDbEntity
  8
BUILDING_ENVELOPE
  6
CONTINUOUS
 62
     7
100
AcDbLine
 10
35.02357
 20
65.02357
 30
0.0
 11
35.02357
 21
0.356904
 31
0.0
  0
LWPOLYLINE
  5
80
102
{ACAD_REACTORS
330
81
102
}
100
AcDbEntity
  8
BUILDING_ENVELOPE
  6
CONTINUOUS
 62
     7
100
AcDbPolyline
 90
        4
 70
     1
 10
0.02357
 20
65.356904
 10
35.356904
 20
65.356904
 10
35.02357
 20
65.02357
 10
0.356904
 20
65.02357
  0
HATCH
  5
81
102
{ACAD_REACTORS
330
7F
102
}
100
AcDbEntity
  8
BUILDING_ENVELOPE
 62
     7
100
AcDbHatch
 10
0.0
 20
0.0
 30
0.0
210
0.0
220
0.0
230
1.0
  2
SOLID
 70
     1
 71
     1
 91
        1
 92
        3
 72
     0
 73
     1
 93
        4
 10
0.0235702260395716
 20
65.3569035593728813
 10
35.3569035593729097
 20
65.3569035593728813
 10
35.023570226039574
 20
65.0235702260395385
 10
0.3569035593729074
 20
65.0235702260395385
 97
        1
330
80
 75
     0
 76
     1
 98
        0
  0
LINE
  5
82
102
{ACAD_REACTORS
330
7F
102
}
100
AcDbEntity
  8
BUILDING_ENVELOPE
  6
CONTINUOUS
 62
     7
100
AcDbLine
 10
0.02357
 20
65.356904
 30
0.0
 11
35.356904
 21
65.356904
 31
0.0
  0
LINE
  5
83
102
{ACAD_REACTORS
330
7F
102
}
100
AcDbEntity
  8
BUILDING_ENVELOPE
  6
CONTINUOUS
 62
     7
100
AcDbLine
 10
0.356904
 20
65.02357
 30
0.0
 11
35.02357
 21
65.02357
 31
0.0
  0
LWPOLYLINE
  5
85
102
{ACAD_REACTORS
330
86
102
}
100
AcDbEntity
  8
BUILDING_ENVELOPE
  6
CONTINUOUS
 62
     7
100
AcDbPolyline
 90
        4
 70
     1
 10
0.356904
 20
0.356904
 10
35.02357
 20
0.356904
 10
35.356904
 20
0.02357
 10
0.02357
 20
0.02357
  0
HATCH
  5
86
102
{ACAD_REACTORS
330
84
102
}
100
AcDbEntity
  8
BUILDING_ENVELOPE
 62
     7
100
AcDbHatch
 10
0.0
 20
0.0
 30
0.0
210
0.0
220
0.0
230
1.0
  2
SOLID
 70
     1
 71
     1
 91
        1
 92
        3
 72
     0
 73
     1
 93
        4
 10
0.356903559372879
 20
0.3569035593728835
 10
35.0235702260395456
 20
0.3569035593728835
 10
35.3569035593728813
 20
0.0235702260395502
 10
0.0235702260395504
 20
0.0235702260395502
 97
        1
330
85
 75
     0
 76
     1
 98
        0
  0
LINE
  5
87
102
{ACAD_REACTORS
330
84
102
}
100
AcDbEntity
  8
BUILDING_ENVELOPE
  6
CONTINUOUS
 62
     7
100
AcDbLine
 10
0.356904
 20
0.356904
 30
0.0
 11
35.02357
 21
0.356904
 31
0.0
  0
LINE
  5
88
102
{ACAD_REACTORS
330
84
102
}
100
AcDbEntity
  8
BUILDING_ENVELOPE
  6
CONTINUOUS
 62
     7
100
AcDbLine
 10
0.02357
 20
0.02357
 30
0.0
 11
35.356904
 21
0.02357
 31
0.0
  0
LWPOLYLINE
  5
8A
102
{ACAD_REACTORS
330
8B
102
}
100
AcDbEntity
  8
BUILDING_ENVELOPE
  6
CONTINUOUS
 62
     7
100
AcDbPolyline
 90
        4
 70
     1
 10
4.958292
 20
59.358292
 10
35.02357
 20
59.358292
 10
35.02357
 20
59.024959
 10
5.291626
 20
59.024959
  0
HATCH
  5
8B
102
{ACAD_REACTORS
330
89
102
}
100
AcDbEntity
  8
BUILDING_ENVELOPE
 62
     7
100
AcDbHatch
 10
0.0
 20
0.0
 30
0.0
210
0.0
220
0.0
230
1.0
  2
SOLID
 70
     1
 71
     1
 91
        1
 92
        3
 72
     0
 73
     1
 93
        4
 10
4.9582924482617843
 20
59.3582924482617642
 10
35.023570226039574
 20
59.3582924482617642
 10
35.023570226039574
 20
59.0249591149284356
 10
5.2916257815951173
 20
59.0249591149284356
 97
        1
330
8A
 75
     0
 76
     1
 98
        0
  0
LWPOLYLINE
  5
8C
102
{ACAD_REACTORS
330
8D
102
}
100
AcDbEntity
  8
BUILDING_ENVELOPE
  6
CONTINUOUS
 62
     7
100
AcDbPolyline
 90
        4
 70
     1
 10
35.02357
 20
59.358292
 10
35.02357
 20
59.024959
 10
35.056904
 20
59.024959
 10
35.056904
 20
59.358292
  0
HATCH
  5
8D
102
{ACAD_REACTORS
330
89
102
}
100
AcDbEntity
  8
BUILDING_ENVELOPE
 62
     7
100
AcDbHatch
 10
0.0
 20
0.0
 30
0.0
210
0.0
220
0.0
230
1.0
  2
SOLID
 70
     1
 71
     1
 91
        1
 92
        3
 72
     0
 73
     1
 93
        4
 10
35.023570226039574
 20
59.3582924482617642
 10
35.023570226039574
 20
59.0249591149284356
 10
35.0569035593729055
 20
59.0249591149284356
 10
35.0569035593729055
 20
59.3582924482617642
 97
        1
330
8C
 75
     0
 76
     1
 98
        0
  0
LINE
  5
8E
102
{ACAD_REACTORS
330
89
102
}
100
AcDbEntity
  8
BUILDING_ENVELOPE
  6
CONTINUOUS
 62
     7
100
AcDbLine
 10
4.958292
 20
59.358292
 30
0.0
 11
35.02357
 21
59.358292
 31
0.0
  0
LINE
  5
8F
102
{ACAD_REACTORS
330
89
102
}
100
AcDbEntity
  8
BUILDING_ENVELOPE
  6
CONTINUOUS
 62
     7
100
AcDbLine
 10
5.291626
 20
59.024959
 30
0.0
 11
35.02357
 21
59.024959
 31
0.0
  0
LWPOLYLINE
  5
91
102
{ACAD_REACTORS
330
92
102
}
100
AcDbEntity
  8
BUILDING_ENVELOPE
  6
CONTINUOUS
 62
     7
100
AcDbPolyline
 90
        4
 70
     1
 10
4.958292
 20
24.02496
 10
4.958292
 20
59.358292
 10
5.291626
 20
59.024959
 10
5.291626
 20
24.358293
  0
HATCH
  5
92
102
{ACAD_REACTORS
330
90
102
}
100
AcDbEntity
  8
BUILDING_ENVELOPE
 62
     7
100
AcDbHatch
 10
0.0
 20
0.0
 30
0.0
210
0.0
220
0.0
230
1.0
  2
SOLID
 70
     1
 71
     1
 91
        1
 92
        3
 72
     0
 73
     1
 93
        4
 10
4.9582924482617852
 20
24.0249597035952753
 10
4.9582924482617852
 20
59.3582924482617784
 10
5.2916257815951191
 20
59.0249591149284427
 10
5.2916257815951191
 20
24.3582930443082333
 97
        1
330
91
 75
     0
 76
     1
 98
        0
  0
LINE
  5
93
102
{ACAD_REACTORS
330
90
102
}
100
AcDbEntity
  8
BUILDING_ENVELOPE
  6
CONTINUOUS
 62
     7
100
AcDbLine
 10
4.958292
 20
24.02496
 30
0.0
 11
4.958292
 21
59.358292
 31
0.0
  0
LINE
  5
94
102
{ACAD_REACTORS
330
90
102
}
100
AcDbEntity
  8
BUILDING_ENVELOPE
  6
CONTINUOUS
 62
     7
100
AcDbLine
 10
5.291626
 20
24.358293
 30
0.0
 11
5.291626
 21
59.024959
 31
0.0
  0
LWPOLYLINE
  5
96
102
{ACAD_REACTORS
330
97
102
}
100
AcDbEntity
  8
BUILDING_ENVELOPE
  6
CONTINUOUS
 62
     7
100
AcDbPolyline
 90
        5
 70
     1
 10
17.293015
 20
13.358293
 10
35.02357
 20
13.358293
 10
35.02357
 20
13.024959
 10
17.293015
 20
13.024959
 10
17.293015
 20
13.191626
  0
HATCH
  5
97
102
{ACAD_REACTORS
330
95
102
}
100
AcDbEntity
  8
BUILDING_ENVELOPE
 62
     7
100
AcDbHatch
 10
0.0
 20
0.0
 30
0.0
210
0.0
220
0.0
230
1.0
  2
SOLID
 70
     1
 71
     1
 91
        1
 92
        3
 72
     0
 73
     1
 93
        5
 10
17.293015123479325
 20
13.3582927820477906
 10
35.0235702260395527
 20
13.3582927820477906
 10
35.0235702260395669
 20
13.0249594487144567
 10
17.293015123479325
 20
13.0249594487144567
 10
17.293015123479325
 20
13.1916261153811227
 97
        1
330
96
 75
     0
 76
     1
 98
        0
  0
LWPOLYLINE
  5
98
102
{ACAD_REACTORS
330
99
102
}
100
AcDbEntity
  8
BUILDING_ENVELOPE
  6
CONTINUOUS
 62
     7
100
AcDbPolyline
 90
        4
 70
     1
 10
35.02357
 20
13.358293
 10
35.02357
 20
13.024959
 10
35.056904
 20
13.024959
 10
35.056904
 20
13.358293
  0
HATCH
  5
99
102
{ACAD_REACTORS
330
95
102
}
100
AcDbEntity
  8
BUILDING_ENVELOPE
 62
     7
100
AcDbHatch
 10
0.0
 20
0.0
 30
0.0
210
0.0
220
0.0
230
1.0
  2
SOLID
 70
     1
 71
     1
 91
        1
 92
        3
 72
     0
 73
     1
 93
        4
 10
35.0235702260395669
 20
13.3582927820477906
 10
35.0235702260395669
 20
13.0249594487144567
 10
35.0569035593728984
 20
13.0249594487144567
 10
35.0569035593728984
 20
13.3582927820477906
 97
        1
330
98
 75
     0
 76
     1
 98
        0
  0
LWPOLYLINE
  5
9A
102
{ACAD_REACTORS
330
95
102
}
100
AcDbEntity
  8
BUILDING_ENVELOPE
  6
CONTINUOUS
 62
     7
100
AcDbPolyline
 90
        3
 70
     0
 10
17.293015
 20
13.191626
 10
17.293015
 20
13.358293
 10
35.02357
 20
13.358293
  0
LWPOLYLINE
  5
9B
102
{ACAD_REACTORS
330
95
102
}
100
AcDbEntity
  8
BUILDING_ENVELOPE
  6
CONTINUOUS
 62
     7
100
AcDbPolyline
 90
        3
 70
     0
 10
17.293015
 20
13.191626
 10
17.293015
 20
13.024959
 10
35.02357
 20
13.024959
  0
LWPOLYLINE
  5
9D
102
{ACAD_REACTORS
330
9E
102
}
100
AcDbEntity
  8
BUILDING_ENVELOPE
  6
CONTINUOUS
 62
     7
100
AcDbPolyline
 90
        5
 70
     1
 10
5.291626
 20
24.358293
 10
18.791626
 20
24.358293
 10
18.791626
 20
24.191627
 10
18.791626
 20
24.02496
 10
4.958292
 20
24.02496
  0
HATCH
  5
9E
102
{ACAD_REACTORS
330
9C
102
}
100
AcDbEntity
  8
BUILDING_ENVELOPE
 62
     7
100
AcDbHatch
 10
0.0
 20
0.0
 30
0.0
210
0.0
220
0.0
230
1.0
  2
SOLID
 70
     1
 71
     1
 91
        1
 92
        3
 72
     0
 73
     1
 93
        5
 10
5.2916257889747396
 20
24.3582931937456095
 10
18.7916262465113597
 20
24.3582931937456095
 10
18.7916262465113597
 20
24.1916265270789417
 10
18.7916262465113597
 20
24.0249598604122738
 10
4.9582924482617852
 20
24.0249598604122738
 97
        1
330
9D
 75
     0
 76
     1
 98
        0
  0
LWPOLYLINE
  5
9F
102
{ACAD_REACTORS
330
9C
102
}
100
AcDbEntity
  8
BUILDING_ENVELOPE
  6
CONTINUOUS
 62
     7
100
AcDbPolyline
 90
        3
 70
     0
 10
5.291626
 20
24.358293
 10
18.791626
 20
24.358293
 10
18.791626
 20
24.191627
  0
LWPOLYLINE
  5
A0
102
{ACAD_REACTORS
330
9C
102
}
100
AcDbEntity
  8
BUILDING_ENVELOPE
  6
CONTINUOUS
 62
     7
100
AcDbPolyline
 90
        3
 70
     0
 10
4.958292
 20
24.02496
 10
18.791626
 20
24.02496
 10
18.791626
 20
24.191627
  0
LWPOLYLINE
  5
A2
102
{ACAD_REACTORS
330
A3
102
}
100
AcDbEntity
  8
BUILDING_ENVELOPE
  6
CONTINUOUS
 62
     7
100
AcDbPolyline
 90
        4
 70
     1
 10
20.708293
 20
53.358294
 10
20.708293
 20
59.024959
 10
21.041626
 20
59.024959
 10
21.041626
 20
53.02496
  0
HATCH
  5
A3
102
{ACAD_REACTORS
330
A1
102
}
100
AcDbEntity
  8
BUILDING_ENVELOPE
 62
     7
100
AcDbHatch
 10
0.0
 20
0.0
 30
0.0
210
0.0
220
0.0
230
1.0
  2
SOLID
 70
     1
 71
     1
 91
        1
 92
        3
 72
     0
 73
     1
 93
        4
 10
20.7082929668222633
 20
53.358293735722107
 10
20.7082929668222633
 20
59.0249591149284214
 10
21.041626300155599
 20
59.0249591149284356
 10
21.041626300155599
 20
53.0249604023887855
 97
        1
330
A2
 75
     0
 76
     1
 98
        0
  0
LWPOLYLINE
  5
A4
102
{ACAD_REACTORS
330
A5
102
}
100
AcDbEntity
  8
BUILDING_ENVELOPE
  6
CONTINUOUS
 62
     7
100
AcDbPolyline
 90
        4
 70
     1
 10
20.708293
 20
59.024959
 10
21.041626
 20
59.024959
 10
21.041626
 20
59.058292
 10
20.708293
 20
59.058292
  0
HATCH
  5
A5
102
{ACAD_REACTORS
330
A1
102
}
100
AcDbEntity
  8
BUILDING_ENVELOPE
 62
     7
100
AcDbHatch
 10
0.0
 20
0.0
 30
0.0
210
0.0
220
0.0
230
1.0
  2
SOLID
 70
     1
 71
     1
 91
        1
 92
        3
 72
     0
 73
     1
 93
        4
 10
20.7082929668222633
 20
59.0249591149284356
 10
21.041626300155599
 20
59.0249591149284356
 10
21.041626300155599
 20
59.058292448261767
 10
20.7082929668222633
 20
59.058292448261767
 97
        1
330
A4
 75
     0
 76
     1
 98
        0
  0
LINE
  5
A6
102
{ACAD_REACTORS
330
A1
102
}
100
AcDbEntity
  8
BUILDING_ENVELOPE
  6
CONTINUOUS
 62
     7
100
AcDbLine
 10
20.708293
 20
53.358294
 30
0.0
 11
20.708293
 21
59.024959
 31
0.0
  0
LINE
  5
A7
102
{ACAD_REACTORS
330
A1
102
}
100
AcDbEntity
  8
BUILDING_ENVELOPE
  6
CONTINUOUS
 62
     7
100
AcDbLine
 10
21.041626
 20
53.02496
 30
0.0
 11
21.041626
 21
59.024959
 31
0.0
  0
LWPOLYLINE
  5
A9
102
{ACAD_REACTORS
330
AA
102
}
100
AcDbEntity
  8
BUILDING_ENVELOPE
  6
CONTINUOUS
 62
     7
100
AcDbPolyline
 90
        4
 70
     1
 10
18.458293
 20
53.358294
 10
20.708293
 20
53.358294
 10
21.041626
 20
53.02496
 10
18.791626
 20
53.02496
  0
HATCH
  5
AA
102
{ACAD_REACTORS
330
A8
102
}
100
AcDbEntity
  8
BUILDING_ENVELOPE
 62
     7
100
AcDbHatch
 10
0.0
 20
0.0
 30
0.0
210
0.0
220
0.0
230
1.0
  2
SOLID
 70
     1
 71
     1
 91
        1
 92
        3
 72
     0
 73
     1
 93
        4
 10
18.4582929131780347
 20
53.3582937357221141
 10
20.7082929668222278
 20
53.3582937357221141
 10
21.0416263001555492
 20
53.0249604023887855
 10
18.7916262465113668
 20
53.0249604023887855
 97
        1
330
A9
 75
     0
 76
     1
 98
        0
  0
LINE
  5
AB
102
{ACAD_REACTORS
330
A8
102
}
100
AcDbEntity
  8
BUILDING_ENVELOPE
  6
CONTINUOUS
 62
     7
100
AcDbLine
 10
18.458293
 20
53.358294
 30
0.0
 11
20.708293
 21
53.358294
 31
0.0
  0
LINE
  5
AC
102
{ACAD_REACTORS
330
A8
102
}
100
AcDbEntity
  8
BUILDING_ENVELOPE
  6
CONTINUOUS
 62
     7
100
AcDbLine
 10
18.791626
 20
53.02496
 30
0.0
 11
21.041626
 21
53.02496
 31
0.0
  0
LWPOLYLINE
  5
AE
102
{ACAD_REACTORS
330
AF
102
}
100
AcDbEntity
  8
BUILDING_ENVELOPE
  6
CONTINUOUS
 62
     7
100
AcDbPolyline
 90
        4
 70
     1
 10
18.458293
 20
47.02496
 10
18.458293
 20
53.358294
 10
18.791626
 20
53.02496
 10
18.791626
 20
47.02496
  0
HATCH
  5
AF
102
{ACAD_REACTORS
330
AD
102
}
100
AcDbEntity
  8
BUILDING_ENVELOPE
 62
     7
100
AcDbHatch
 10
0.0
 20
0.0
 30
0.0
210
0.0
220
0.0
230
1.0
  2
SOLID
 70
     1
 71
     1
 91
        1
 92
        3
 72
     0
 73
     1
 93
        4
 10
18.458292913178024
 20
47.0249602593376181
 10
18.458292913178024
 20
53.3582937357220999
 10
18.7916262465113562
 20
53.0249604023887713
 10
18.7916262465113562
 20
47.0249602593376181
 97
        1
330
AE
 75
     0
 76
     1
 98
        0
  0
LINE
  5
B0
102
{ACAD_REACTORS
330
AD
102
}
100
AcDbEntity
  8
BUILDING_ENVELOPE
  6
CONTINUOUS
 62
     7
100
AcDbLine
 10
18.458293
 20
47.02496
 30
0.0
 11
18.458293
 21
53.358294
 31
0.0
  0
LINE
  5
B1
102
{ACAD_REACTORS
330
AD
102
}
100
AcDbEntity
  8
BUILDING_ENVELOPE
  6
CONTINUOUS
 62
     7
100
AcDbLine
 10
18.791626
 20
47.02496
 30
0.0
 11
18.791626
 21
53.02496
 31
0.0
  0
LWPOLYLINE
  5
B3
102
{ACAD_REACTORS
330
B4
102
}
100
AcDbEntity
  8
BUILDING_ENVELOPE
  6
CONTINUOUS
 62
     7
100
AcDbPolyline
 90
        4
 70
     1
 10
18.458293
 20
46.358294
 10
18.458293
 20
47.02496
 10
18.791626
 20
47.02496
 10
18.791626
 20
46.358294
  0
HATCH
  5
B4
102
{ACAD_REACTORS
330
B2
102
}
100
AcDbEntity
  8
BUILDING_ENVELOPE
 62
   253
100
AcDbHatch
 10
0.0
 20
0.0
 30
0.0
210
0.0
220
0.0
230
1.0
  2
SOLID
 70
     1
 71
     1
 91
        1
 92
        3
 72
     0
 73
     1
 93
        4
 10
18.458292913178024
 20
46.3582935688290902
 10
18.458292913178024
 20
47.0249602593376324
 10
18.7916262465113562
 20
47.0249602593376324
 10
18.7916262465113562
 20
46.3582935688290974
 97
        1
330
B3
 75
     0
 76
     1
 98
        0
  0
LWPOLYLINE
  5
B5
102
{ACAD_REACTORS
330
B6
102
}
100
AcDbEntity
  8
BUILDING_ENVELOPE
  6
CONTINUOUS
 62
     7
100
AcDbPolyline
 90
        4
 70
     1
 10
18.791626
 20
46.358294
 10
18.458293
 20
46.358294
 10
18.458293
 20
46.32496
 10
18.791626
 20
46.32496
  0
HATCH
  5
B6
102
{ACAD_REACTORS
330
B2
102
}
100
AcDbEntity
  8
BUILDING_ENVELOPE
 62
   253
100
AcDbHatch
 10
0.0
 20
0.0
 30
0.0
210
0.0
220
0.0
230
1.0
  2
SOLID
 70
     1
 71
     1
 91
        1
 92
        3
 72
     0
 73
     1
 93
        4
 10
18.7916262465113562
 20
46.3582935688290974
 10
18.458292913178024
 20
46.3582935688290974
 10
18.458292913178024
 20
46.3249602354957588
 10
18.7916262465113562
 20
46.3249602354957588
 97
        1
330
B5
 75
     0
 76
     1
 98
        0
  0
LINE
  5
B7
102
{ACAD_REACTORS
330
B2
102
}
100
AcDbEntity
  8
BUILDING_ENVELOPE
  6
CONTINUOUS
 62
     7
100
AcDbLine
 10
18.458293
 20
46.358294
 30
0.0
 11
18.458293
 21
47.02496
 31
0.0
  0
LINE
  5
B8
102
{ACAD_REACTORS
330
B2
102
}
100
AcDbEntity
  8
BUILDING_ENVELOPE
  6
CONTINUOUS
 62
     7
100
AcDbLine
 10
18.791626
 20
46.358294
 30
0.0
 11
18.791626
 21
47.02496
 31
0.0
  0
LWPOLYLINE
  5
BA
102
{ACAD_REACTORS
330
BB
102
}
100
AcDbEntity
  8
BUILDING_ENVELOPE
  6
CONTINUOUS
 62
     7
100
AcDbPolyline
 90
        5
 70
     1
 10
5.291626
 20
46.358294
 10
18.791626
 20
46.358294
 10
18.791626
 20
46.191627
 10
18.791626
 20
46.02496
 10
5.291626
 20
46.02496
  0
HATCH
  5
BB
102
{ACAD_REACTORS
330
B9
102
}
100
AcDbEntity
  8
BUILDING_ENVELOPE
 62
     7
100
AcDbHatch
 10
0.0
 20
0.0
 30
0.0
210
0.0
220
0.0
230
1.0
  2
SOLID
 70
     1
 71
     1
 91
        1
 92
        3
 72
     0
 73
     1
 93
        5
 10
5.2916257815951209
 20
46.3582935688291471
 10
18.7916262465113597
 20
46.3582935688291471
 10
18.7916262465113597
 20
46.1916269021624828
 10
18.7916262465113597
 20
46.0249602354958114
 10
5.29162578159512
 20
46.0249602354958114
 97
        1
330
BA
 75
     0
 76
     1
 98
        0
  0
LWPOLYLINE
  5
BC
102
{ACAD_REACTORS
330
BD
102
}
100
AcDbEntity
  8
BUILDING_ENVELOPE
  6
CONTINUOUS
 62
     7
100
AcDbPolyline
 90
        4
 70
     1
 10
5.291626
 20
46.02496
 10
5.291626
 20
46.358294
 10
5.258292
 20
46.358294
 10
5.258292
 20
46.02496
  0
HATCH
  5
BD
102
{ACAD_REACTORS
330
B9
102
}
100
AcDbEntity
  8
BUILDING_ENVELOPE
 62
     7
100
AcDbHatch
 10
0.0
 20
0.0
 30
0.0
210
0.0
220
0.0
230
1.0
  2
SOLID
 70
     1
 71
     1
 91
        1
 92
        3
 72
     0
 73
     1
 93
        4
 10
5.2916257815951209
 20
46.0249602354958114
 10
5.2916257815951209
 20
46.3582935688291471
 10
5.2582924482617877
 20
46.3582935688291471
 10
5.2582924482617877
 20
46.0249602354958114
 97
        1
330
BC
 75
     0
 76
     1
 98
        0
  0
LWPOLYLINE
  5
BE
102
{ACAD_REACTORS
330
B9
102
}
100
AcDbEntity
  8
BUILDING_ENVELOPE
  6
CONTINUOUS
 62
     7
100
AcDbPolyline
 90
        3
 70
     0
 10
5.291626
 20
46.358294
 10
18.791626
 20
46.358294
 10
18.791626
 20
46.191627
  0
LWPOLYLINE
  5
BF
102
{ACAD_REACTORS
330
B9
102
}
100
AcDbEntity
  8
BUILDING_ENVELOPE
  6
CONTINUOUS
 62
     7
100
AcDbPolyline
 90
        3
 70
     0
 10
5.291626
 20
46.02496
 10
18.791626
 20
46.02496
 10
18.791626
 20
46.191627
  0
LWPOLYLINE
  5
C1
102
{ACAD_REACTORS
330
C2
102
}
100
AcDbEntity
  8
BUILDING_ENVELOPE
  6
CONTINUOUS
 62
     7
100
AcDbPolyline
 90
        4
 70
     1
 10
26.932931
 20
46.358294
 10
35.02357
 20
46.358294
 10
35.02357
 20
46.02496
 10
26.599597
 20
46.02496
  0
HATCH
  5
C2
102
{ACAD_REACTORS
330
C0
102
}
100
AcDbEntity
  8
BUILDING_ENVELOPE
 62
     7
100
AcDbHatch
 10
0.0
 20
0.0
 30
0.0
210
0.0
220
0.0
230
1.0
  2
SOLID
 70
     1
 71
     1
 91
        1
 92
        3
 72
     0
 73
     1
 93
        4
 10
26.932930820136626
 20
46.3582935688291116
 10
35.0235702260395527
 20
46.3582935688291116
 10
35.0235702260395598
 20
46.0249602354957759
 10
26.5995974868032938
 20
46.0249602354957759
 97
        1
330
C1
 75
     0
 76
     1
 98
        0
  0
LWPOLYLINE
  5
C3
102
{ACAD_REACTORS
330
C4
102
}
100
AcDbEntity
  8
BUILDING_ENVELOPE
  6
CONTINUOUS
 62
     7
100
AcDbPolyline
 90
        4
 70
     1
 10
35.02357
 20
46.358294
 10
35.02357
 20
46.02496
 10
35.056904
 20
46.02496
 10
35.056904
 20
46.358294
  0
HATCH
  5
C4
102
{ACAD_REACTORS
330
C0
102
}
100
AcDbEntity
  8
BUILDING_ENVELOPE
 62
     7
100
AcDbHatch
 10
0.0
 20
0.0
 30
0.0
210
0.0
220
0.0
230
1.0
  2
SOLID
 70
     1
 71
     1
 91
        1
 92
        3
 72
     0
 73
     1
 93
        4
 10
35.0235702260395598
 20
46.3582935688291116
 10
35.0235702260395598
 20
46.0249602354957759
 10
35.0569035593728984
 20
46.0249602354957759
 10
35.0569035593728984
 20
46.3582935688291116
 97
        1
330
C3
 75
     0
 76
     1
 98
        0
  0
LINE
  5
C5
102
{ACAD_REACTORS
330
C0
102
}
100
AcDbEntity
  8
BUILDING_ENVELOPE
  6
CONTINUOUS
 62
     7
100
AcDbLine
 10
26.932931
 20
46.358294
 30
0.0
 11
35.02357
 21
46.358294
 31
0.0
  0
LINE
  5
C6
102
{ACAD_REACTORS
330
C0
102
}
100
AcDbEntity
  8
BUILDING_ENVELOPE
  6
CONTINUOUS
 62
     7
100
AcDbLine
 10
26.599597
 20
46.02496
 30
0.0
 11
35.02357
 21
46.02496
 31
0.0
  0
LWPOLYLINE
  5
C8
102
{ACAD_REACTORS
330
C9
102
}
100
AcDbEntity
  8
BUILDING_ENVELOPE
  6
CONTINUOUS
 62
     7
100
AcDbPolyline
 90
        4
 70
     1
 10
26.599597
 20
46.02496
 10
26.599597
 20
59.024959
 10
26.932931
 20
59.024959
 10
26.932931
 20
46.358294
  0
HATCH
  5
C9
102
{ACAD_REACTORS
330
C7
102
}
100
AcDbEntity
  8
BUILDING_ENVELOPE
 62
     7
100
AcDbHatch
 10
0.0
 20
0.0
 30
0.0
210
0.0
220
0.0
230
1.0
  2
SOLID
 70
     1
 71
     1
 91
        1
 92
        3
 72
     0
 73
     1
 93
        4
 10
26.5995974868033755
 20
46.0249602354957759
 10
26.5995974868033755
 20
59.0249591149284356
 10
26.9329308201367077
 20
59.0249591149284427
 10
26.9329308201367077
 20
46.3582935688291187
 97
        1
330
C8
 75
     0
 76
     1
 98
        0
  0
LWPOLYLINE
  5
CA
102
{ACAD_REACTORS
330
CB
102
}
100
AcDbEntity
  8
BUILDING_ENVELOPE
  6
CONTINUOUS
 62
     7
100
AcDbPolyline
 90
        4
 70
     1
 10
26.599597
 20
59.024959
 10
26.932931
 20
59.024959
 10
26.932931
 20
59.058292
 10
26.599597
 20
59.058292
  0
HATCH
  5
CB
102
{ACAD_REACTORS
330
C7
102
}
100
AcDbEntity
  8
BUILDING_ENVELOPE
 62
     7
100
AcDbHatch
 10
0.0
 20
0.0
 30
0.0
210
0.0
220
0.0
230
1.0
  2
SOLID
 70
     1
 71
     1
 91
        1
 92
        3
 72
     0
 73
     1
 93
        4
 10
26.5995974868033755
 20
59.0249591149284427
 10
26.9329308201367077
 20
59.0249591149284427
 10
26.9329308201367077
 20
59.0582924482617742
 10
26.5995974868033755
 20
59.0582924482617742
 97
        1
330
CA
 75
     0
 76
     1
 98
        0
  0
LINE
  5
CC
102
{ACAD_REACTORS
330
C7
102
}
100
AcDbEntity
  8
BUILDING_ENVELOPE
  6
CONTINUOUS
 62
     7
100
AcDbLine
 10
26.599597
 20
46.02496
 30
0.0
 11
26.599597
 21
59.024959
 31
0.0
  0
LINE
  5
CD
102
{ACAD_REACTORS
330
C7
102
}
100
AcDbEntity
  8
BUILDING_ENVELOPE
  6
CONTINUOUS
 62
     7
100
AcDbLine
 10
26.932931
 20
46.358294
 30
0.0
 11
26.932931
 21
59.024959
 31
0.0
  0
LWPOLYLINE
  5
CF
102
{ACAD_REACTORS
330
D0
102
}
100
AcDbEntity
  8
BUILDING_ENVELOPE
  6
CONTINUOUS
 62
     7
100
AcDbPolyline
 90
        4
 70
     1
 10
19.091626
 20
29.858293
 10
35.02357
 20
29.858293
 10
35.02357
 20
29.52496
 10
18.758293
 20
29.52496
  0
HATCH
  5
D0
102
{ACAD_REACTORS
330
CE
102
}
100
AcDbEntity
  8
BUILDING_ENVELOPE
 62
     7
100
AcDbHatch
 10
0.0
 20
0.0
 30
0.0
210
0.0
220
0.0
230
1.0
  2
SOLID
 70
     1
 71
     1
 91
        1
 92
        3
 72
     0
 73
     1
 93
        4
 10
19.0916262536639145
 20
29.8582931754384511
 10
35.0235702260395527
 20
29.8582931754384511
 10
35.0235702260395669
 20
29.5249598421051189
 10
18.7582929203305824
 20
29.5249598421051189
 97
        1
330
CF
 75
     0
 76
     1
 98
        0
  0
LWPOLYLINE
  5
D1
102
{ACAD_REACTORS
330
D2
102
}
100
AcDbEntity
  8
BUILDING_ENVELOPE
  6
CONTINUOUS
 62
     7
100
AcDbPolyline
 90
        4
 70
     1
 10
35.02357
 20
29.858293
 10
35.02357
 20
29.52496
 10
35.056904
 20
29.52496
 10
35.056904
 20
29.858293
  0
HATCH
  5
D2
102
{ACAD_REACTORS
330
CE
102
}
100
AcDbEntity
  8
BUILDING_ENVELOPE
 62
     7
100
AcDbHatch
 10
0.0
 20
0.0
 30
0.0
210
0.0
220
0.0
230
1.0
  2
SOLID
 70
     1
 71
     1
 91
        1
 92
        3
 72
     0
 73
     1
 93
        4
 10
35.0235702260395669
 20
29.8582931754384511
 10
35.0235702260395669
 20
29.5249598421051189
 10
35.0569035593728984
 20
29.5249598421051189
 10
35.0569035593728984
 20
29.8582931754384511
 97
        1
330
D1
 75
     0
 76
     1
 98
        0
  0
LINE
  5
D3
102
{ACAD_REACTORS
330
CE
102
}
100
AcDbEntity
  8
BUILDING_ENVELOPE
  6
CONTINUOUS
 62
     7
100
AcDbLine
 10
19.091626
 20
29.858293
 30
0.0
 11
35.02357
 21
29.858293
 31
0.0
  0
LINE
  5
D4
102
{ACAD_REACTORS
330
CE
102
}
100
AcDbEntity
  8
BUILDING_ENVELOPE
  6
CONTINUOUS
 62
     7
100
AcDbLine
 10
18.758293
 20
29.52496
 30
0.0
 11
35.02357
 21
29.52496
 31
0.0
  0
LWPOLYLINE
  5
D6
102
{ACAD_REACTORS
330
D7
102
}
100
AcDbEntity
  8
BUILDING_ENVELOPE
  6
CONTINUOUS
 62
     7
100
AcDbPolyline
 90
        5
 70
     1
 10
18.758293
 20
29.52496
 10
18.758293
 20
39.524959
 10
18.92496
 20
39.524959
 10
19.091626
 20
39.524959
 10
19.091626
 20
29.858293
  0
HATCH
  5
D7
102
{ACAD_REACTORS
330
D5
102
}
100
AcDbEntity
  8
BUILDING_ENVELOPE
 62
     7
100
AcDbHatch
 10
0.0
 20
0.0
 30
0.0
210
0.0
220
0.0
230
1.0
  2
SOLID
 70
     1
 71
     1
 91
        1
 92
        3
 72
     0
 73
     1
 93
        5
 10
18.7582929203305895
 20
29.5249598421051189
 10
18.7582929203305895
 20
39.5249591149284356
 10
18.9249595869972573
 20
39.5249591149284356
 10
19.0916262536639252
 20
39.5249591149284356
 10
19.0916262536639252
 20
29.8582931754384511
 97
        1
330
D6
 75
     0
 76
     1
 98
        0
  0
LWPOLYLINE
  5
D8
102
{ACAD_REACTORS
330
D5
102
}
100
AcDbEntity
  8
BUILDING_ENVELOPE
  6
CONTINUOUS
 62
     7
100
AcDbPolyline
 90
        3
 70
     0
 10
18.758293
 20
29.52496
 10
18.758293
 20
39.524959
 10
18.92496
 20
39.524959
  0
LWPOLYLINE
  5
D9
102
{ACAD_REACTORS
330
D5
102
}
100
AcDbEntity
  8
BUILDING_ENVELOPE
  6
CONTINUOUS
 62
     7
100
AcDbPolyline
 90
        3
 70
     0
 10
19.091626
 20
29.858293
 10
19.091626
 20
39.524959
 10
18.92496
 20
39.524959
  0
LWPOLYLINE
  5
DB
102
{ACAD_REACTORS
330
DC
102
}
100
AcDbEntity
  8
BUILDING_ENVELOPE
  6
CONTINUOUS
 62
     7
100
AcDbPolyline
 90
        5
 70
     1
 10
5.291626
 20
34.858293
 10
18.791626
 20
34.858293
 10
18.791626
 20
34.691627
 10
18.791626
 20
34.52496
 10
5.291626
 20
34.52496
  0
HATCH
  5
DC
102
{ACAD_REACTORS
330
DA
102
}
100
AcDbEntity
  8
BUILDING_ENVELOPE
 62
     7
100
AcDbHatch
 10
0.0
 20
0.0
 30
0.0
210
0.0
220
0.0
230
1.0
  2
SOLID
 70
     1
 71
     1
 91
        1
 92
        3
 72
     0
 73
     1
 93
        5
 10
5.2916257815951191
 20
34.8582932946477371
 10
18.7916262465113597
 20
34.8582932946477371
 10
18.7916262465113597
 20
34.6916266279810728
 10
18.7916262465113597
 20
34.5249599613144085
 10
5.2916257815951191
 20
34.5249599613144085
 97
        1
330
DB
 75
     0
 76
     1
 98
        0
  0
LWPOLYLINE
  5
DD
102
{ACAD_REACTORS
330
DE
102
}
100
AcDbEntity
  8
BUILDING_ENVELOPE
  6
CONTINUOUS
 62
     7
100
AcDbPolyline
 90
        4
 70
     1
 10
5.291626
 20
34.52496
 10
5.291626
 20
34.858293
 10
5.258292
 20
34.858293
 10
5.258292
 20
34.52496
  0
HATCH
  5
DE
102
{ACAD_REACTORS
330
DA
102
}
100
AcDbEntity
  8
BUILDING_ENVELOPE
 62
     7
100
AcDbHatch
 10
0.0
 20
0.0
 30
0.0
210
0.0
220
0.0
230
1.0
  2
SOLID
 70
     1
 71
     1
 91
        1
 92
        3
 72
     0
 73
     1
 93
        4
 10
5.2916257815951191
 20
34.5249599613144085
 10
5.2916257815951191
 20
34.8582932946477371
 10
5.2582924482617859
 20
34.8582932946477371
 10
5.2582924482617859
 20
34.5249599613144085
 97
        1
330
DD
 75
     0
 76
     1
 98
        0
  0
LWPOLYLINE
  5
DF
102
{ACAD_REACTORS
330
DA
102
}
100
AcDbEntity
  8
BUILDING_ENVELOPE
  6
CONTINUOUS
 62
     7
100
AcDbPolyline
 90
        3
 70
     0
 10
5.291626
 20
34.858293
 10
18.791626
 20
34.858293
 10
18.791626
 20
34.691627
  0
LWPOLYLINE
  5
E0
102
{ACAD_REACTORS
330
DA
102
}
100
AcDbEntity
  8
BUILDING_ENVELOPE
  6
CONTINUOUS
 62
     7
100
AcDbPolyline
 90
        3
 70
     0
 10
5.291626
 20
34.52496
 10
18.791626
 20
34.52496
 10
18.791626
 20
34.691627
  0
LWPOLYLINE
  5
E2
102
{ACAD_REACTORS
330
E3
102
}
100
AcDbEntity
  8
BUILDING_ENVELOPE
  6
CONTINUOUS
 62
     7
100
AcDbPolyline
 90
        5
 70
     1
 10
19.12496
 20
29.52496
 10
19.12496
 20
13.024959
 10
18.958293
 20
13.024959
 10
18.791626
 20
13.024959
 10
18.791626
 20
29.52496
  0
HATCH
  5
E3
102
{ACAD_REACTORS
330
E1
102
}
100
AcDbEntity
  8
BUILDING_ENVELOPE
 62
     7
100
AcDbHatch
 10
0.0
 20
0.0
 30
0.0
210
0.0
220
0.0
230
1.0
  2
SOLID
 70
     1
 71
     1
 91
        1
 92
        3
 72
     0
 73
     1
 93
        5
 10
19.1249595798446919
 20
29.5249598421051189
 10
19.1249595798446919
 20
13.0249594343241917
 10
18.958292913178024
 20
13.0249594343241917
 10
18.7916262465113562
 20
13.0249594343241917
 10
18.7916262465113562
 20
29.5249598421051189
 97
        1
330
E2
 75
     0
 76
     1
 98
        0
  0
LWPOLYLINE
  5
E4
102
{ACAD_REACTORS
330
E5
102
}
100
AcDbEntity
  8
BUILDING_ENVELOPE
  6
CONTINUOUS
 62
     7
100
AcDbPolyline
 90
        4
 70
     1
 10
18.791626
 20
29.52496
 10
19.12496
 20
29.52496
 10
19.12496
 20
29.558293
 10
18.791626
 20
29.558293
  0
HATCH
  5
E5
102
{ACAD_REACTORS
330
E1
102
}
100
AcDbEntity
  8
BUILDING_ENVELOPE
 62
     7
100
AcDbHatch
 10
0.0
 20
0.0
 30
0.0
210
0.0
220
0.0
230
1.0
  2
SOLID
 70
     1
 71
     1
 91
        1
 92
        3
 72
     0
 73
     1
 93
        4
 10
18.7916262465113562
 20
29.5249598421051189
 10
19.1249595798446919
 20
29.5249598421051189
 10
19.1249595798446919
 20
29.5582931754384504
 10
18.7916262465113562
 20
29.5582931754384504
 97
        1
330
E4
 75
     0
 76
     1
 98
        0
  0
LWPOLYLINE
  5
E6
102
{ACAD_REACTORS
330
E1
102
}
100
AcDbEntity
  8
BUILDING_ENVELOPE
  6
CONTINUOUS
 62
     7
100
AcDbPolyline
 90
        3
 70
     0
 10
19.12496
 20
29.52496
 10
19.12496
 20
13.024959
 10
18.958293
 20
13.024959
  0
LWPOLYLINE
  5
E7
102
{ACAD_REACTORS
330
E1
102
}
100
AcDbEntity
  8
BUILDING_ENVELOPE
  6
CONTINUOUS
 62
     7
100
AcDbPolyline
 90
        3
 70
     0
 10
18.791626
 20
29.52496
 10
18.791626
 20
13.024959
 10
18.958293
 20
13.024959
  0
LWPOLYLINE
  5
E9
102
{ACAD_REACTORS
330
EA
102
}
100
AcDbEntity
  8
BUILDING_ENVELOPE
  6
CONTINUOUS
 62
     7
100
AcDbPolyline
 90
        5
 70
     1
 10
5.291626
 20
30.858293
 10
11.291626
 20
30.858293
 10
11.291626
 20
30.691627
 10
11.291626
 20
30.52496
 10
5.291626
 20
30.52496
  0
HATCH
  5
EA
102
{ACAD_REACTORS
330
E8
102
}
100
AcDbEntity
  8
BUILDING_ENVELOPE
 62
     7
100
AcDbHatch
 10
0.0
 20
0.0
 30
0.0
210
0.0
220
0.0
230
1.0
  2
SOLID
 70
     1
 71
     1
 91
        1
 92
        3
 72
     0
 73
     1
 93
        5
 10
5.2916257815951182
 20
30.8582931992803147
 10
11.2916260676974183
 20
30.8582931992803147
 10
11.2916260676974183
 20
30.6916265326136468
 10
11.2916260676974183
 20
30.5249598659469825
 10
5.2916257815951173
 20
30.5249598659469825
 97
        1
330
E9
 75
     0
 76
     1
 98
        0
  0
LWPOLYLINE
  5
EB
102
{ACAD_REACTORS
330
EC
102
}
100
AcDbEntity
  8
BUILDING_ENVELOPE
  6
CONTINUOUS
 62
     7
100
AcDbPolyline
 90
        4
 70
     1
 10
5.291626
 20
30.52496
 10
5.291626
 20
30.858293
 10
5.258292
 20
30.858293
 10
5.258292
 20
30.52496
  0
HATCH
  5
EC
102
{ACAD_REACTORS
330
E8
102
}
100
AcDbEntity
  8
BUILDING_ENVELOPE
 62
     7
100
AcDbHatch
 10
0.0
 20
0.0
 30
0.0
210
0.0
220
0.0
230
1.0
  2
SOLID
 70
     1
 71
     1
 91
        1
 92
        3
 72
     0
 73
     1
 93
        4
 10
5.2916257815951173
 20
30.5249598659469825
 10
5.2916257815951173
 20
30.8582931992803147
 10
5.2582924482617841
 20
30.8582931992803147
 10
5.2582924482617841
 20
30.5249598659469825
 97
        1
330
EB
 75
     0
 76
     1
 98
        0
  0
LWPOLYLINE
  5
ED
102
{ACAD_REACTORS
330
E8
102
}
100
AcDbEntity
  8
BUILDING_ENVELOPE
  6
CONTINUOUS
 62
     7
100
AcDbPolyline
 90
        3
 70
     0
 10
5.291626
 20
30.858293
 10
11.291626
 20
30.858293
 10
11.291626
 20
30.691627
  0
LWPOLYLINE
  5
EE
102
{ACAD_REACTORS
330
E8
102
}
100
AcDbEntity
  8
BUILDING_ENVELOPE
  6
CONTINUOUS
 62
     7
100
AcDbPolyline
 90
        3
 70
     0
 10
5.291626
 20
30.52496
 10
11.291626
 20
30.52496
 10
11.291626
 20
30.691627
  0
LWPOLYLINE
  5
F0
102
{ACAD_REACTORS
330
F1
102
}
100
AcDbEntity
  8
BUILDING_ENVELOPE
  6
CONTINUOUS
 62
     7
100
AcDbPolyline
 90
        5
 70
     1
 10
10.958293
 20
24.358293
 10
10.958293
 20
30.52496
 10
11.124959
 20
30.52496
 10
11.291626
 20
30.52496
 10
11.291626
 20
24.358293
  0
HATCH
  5
F1
102
{ACAD_REACTORS
330
EF
102
}
100
AcDbEntity
  8
BUILDING_ENVELOPE
 62
     7
100
AcDbHatch
 10
0.0
 20
0.0
 30
0.0
210
0.0
220
0.0
230
1.0
  2
SOLID
 70
     1
 71
     1
 91
        1
 92
        3
 72
     0
 73
     1
 93
        5
 10
10.9582927343640897
 20
24.3582931697618292
 10
10.9582927343640897
 20
30.5249598659469754
 10
11.1249594010307575
 20
30.5249598659469754
 10
11.2916260676974236
 20
30.5249598659469754
 10
11.2916260676974236
 20
24.358293177141455
 97
        1
330
F0
 75
     0
 76
     1
 98
        0
  0
LWPOLYLINE
  5
F2
102
{ACAD_REACTORS
330
F3
102
}
100
AcDbEntity
  8
BUILDING_ENVELOPE
  6
CONTINUOUS
 62
     7
100
AcDbPolyline
 90
        4
 70
     1
 10
11.291626
 20
24.358293
 10
10.958293
 20
24.358293
 10
10.958293
 20
24.32496
 10
11.291626
 20
24.32496
  0
HATCH
  5
F3
102
{ACAD_REACTORS
330
EF
102
}
100
AcDbEntity
  8
BUILDING_ENVELOPE
 62
     7
100
AcDbHatch
 10
0.0
 20
0.0
 30
0.0
210
0.0
220
0.0
230
1.0
  2
SOLID
 70
     1
 71
     1
 91
        1
 92
        3
 72
     0
 73
     1
 93
        4
 10
11.2916260676974236
 20
24.3582931734516421
 10
10.9582927343640897
 20
24.3582931734516421
 10
10.9582927343640897
 20
24.3249598401183107
 10
11.2916260676974236
 20
24.3249598401183107
 97
        1
330
F2
 75
     0
 76
     1
 98
        0
  0
LWPOLYLINE
  5
F4
102
{ACAD_REACTORS
330
EF
102
}
100
AcDbEntity
  8
BUILDING_ENVELOPE
  6
CONTINUOUS
 62
     7
100
AcDbPolyline
 90
        3
 70
     0
 10
10.958293
 20
24.358293
 10
10.958293
 20
30.52496
 10
11.124959
 20
30.52496
  0
LWPOLYLINE
  5
F5
102
{ACAD_REACTORS
330
EF
102
}
100
AcDbEntity
  8
BUILDING_ENVELOPE
  6
CONTINUOUS
 62
     7
100
AcDbPolyline
 90
        3
 70
     0
 10
11.291626
 20
24.358293
 10
11.291626
 20
30.52496
 10
11.124959
 20
30.52496
  0
LWPOLYLINE
  5
F7
102
{ACAD_REACTORS
330
F8
102
}
100
AcDbEntity
  8
BUILDING_ENVELOPE
  6
CONTINUOUS
 62
     7
100
AcDbPolyline
 90
        4
 70
     1
 10
18.791626
 20
51.358294
 10
26.599597
 20
51.358294
 10
26.599597
 20
51.02496
 10
18.791626
 20
51.02496
  0
HATCH
  5
F8
102
{ACAD_REACTORS
330
F6
102
}
100
AcDbEntity
  8
BUILDING_ENVELOPE
 62
     7
100
AcDbHatch
 10
0.0
 20
0.0
 30
0.0
210
0.0
220
0.0
230
1.0
  2
SOLID
 70
     1
 71
     1
 91
        1
 92
        3
 72
     0
 73
     1
 93
        4
 10
18.7916262465113526
 20
51.3582936880383869
 10
26.5995974868033613
 20
51.3582936880383869
 10
26.5995974868033613
 20
51.0249603547050583
 10
18.7916262465113562
 20
51.0249603547050583
 97
        1
330
F7
 75
     0
 76
     1
 98
        0
  0
LWPOLYLINE
  5
F9
102
{ACAD_REACTORS
330
FA
102
}
100
AcDbEntity
  8
BUILDING_ENVELOPE
  6
CONTINUOUS
 62
     7
100
AcDbPolyline
 90
        4
 70
     1
 10
18.791626
 20
51.02496
 10
18.791626
 20
51.358294
 10
18.758293
 20
51.358294
 10
18.758293
 20
51.02496
  0
HATCH
  5
FA
102
{ACAD_REACTORS
330
F6
102
}
100
AcDbEntity
  8
BUILDING_ENVELOPE
 62
     7
100
AcDbHatch
 10
0.0
 20
0.0
 30
0.0
210
0.0
220
0.0
230
1.0
  2
SOLID
 70
     1
 71
     1
 91
        1
 92
        3
 72
     0
 73
     1
 93
        4
 10
18.7916262465113562
 20
51.0249603547050583
 10
18.7916262465113562
 20
51.3582936880383869
 10
18.7582929131780212
 20
51.3582936880383869
 10
18.7582929131780212
 20
51.0249603547050583
 97
        1
330
F9
 75
     0
 76
     1
 98
        0
  0
LWPOLYLINE
  5
FB
102
{ACAD_REACTORS
330
FC
102
}
100
AcDbEntity
  8
BUILDING_ENVELOPE
  6
CONTINUOUS
 62
     7
100
AcDbPolyline
 90
        4
 70
     1
 10
26.599597
 20
51.358294
 10
26.599597
 20
51.02496
 10
26.632931
 20
51.02496
 10
26.632931
 20
51.358294
  0
HATCH
  5
FC
102
{ACAD_REACTORS
330
F6
102
}
100
AcDbEntity
  8
BUILDING_ENVELOPE
 62
     7
100
AcDbHatch
 10
0.0
 20
0.0
 30
0.0
210
0.0
220
0.0
230
1.0
  2
SOLID
 70
     1
 71
     1
 91
        1
 92
        3
 72
     0
 73
     1
 93
        4
 10
26.5995974868033613
 20
51.3582936880383869
 10
26.5995974868033613
 20
51.0249603547050583
 10
26.6329308201366928
 20
51.0249603547050583
 10
26.6329308201366928
 20
51.3582936880383869
 97
        1
330
FB
 75
     0
 76
     1
 98
        0
  0
LINE
  5
FD
102
{ACAD_REACTORS
330
F6
102
}
100
AcDbEntity
  8
BUILDING_ENVELOPE
  6
CONTINUOUS
 62
     7
100
AcDbLine
 10
18.791626
 20
51.358294
 30
0.0
 11
26.599597
 21
51.358294
 31
0.0
  0
LINE
  5
FE
102
{ACAD_REACTORS
330
F6
102
}
100
AcDbEntity
  8
BUILDING_ENVELOPE
  6
CONTINUOUS
 62
     7
100
AcDbLine
 10
18.791626
 20
51.02496
 30
0.0
 11
26.599597
 21
51.02496
 31
0.0
  0
LWPOLYLINE
  5
100
102
{ACAD_REACTORS
330
FF
102
}
100
AcDbEntity
  8
BUILDING_ENVELOPE
  6
CONTINUOUS
 62
     7
100
AcDbPolyline
 90
        6
 70
     1
 10
4.291626
 20
0.356904
 10
12.291626
 20
0.356904
 10
12.291626
 20
0.190237
 10
12.291626
 20
0.02357
 10
4.291626
 20
0.02357
 10
4.291626
 20
0.190237
  0
LWPOLYLINE
  5
101
102
{ACAD_REACTORS
330
FF
102
}
100
AcDbEntity
  8
BUILDING_ENVELOPE
  6
CONTINUOUS
 62
     7
100
AcDbPolyline
 90
        4
 70
     0
 10
4.291626
 20
0.190237
 10
4.291626
 20
0.356904
 10
12.291626
 20
0.356904
 10
12.291626
 20
0.190237
  0
LWPOLYLINE
  5
102
102
{ACAD_REACTORS
330
FF
102
}
100
AcDbEntity
  8
BUILDING_ENVELOPE
  6
CONTINUOUS
 62
     7
100
AcDbPolyline
 90
        4
 70
     0
 10
4.291626
 20
0.190237
 10
4.291626
 20
0.02357
 10
12.291626
 20
0.02357
 10
12.291626
 20
0.190237
  0
LWPOLYLINE
  5
105
102
{ACAD_REACTORS
330
106
102
}
100
AcDbEntity
  8
SPACE
  6
CONTINUOUS
100
AcDbPolyline
 90
        6
 70
     1
 10
4.958292
 20
24.02496
 10
4.958292
 20
59.384018
 10
35.02357
 20
59.384018
 10
35.02357
 20
65.107415
 10
0.356904
 20
65.107415
 10
0.356904
 20
24.02496
  0
HATCH
  5
106
102
{ACAD_REACTORS
330
103
102
}
100
AcDbEntity
  8
SPACE
 62
    54
100
AcDbHatch
 10
0.0
 20
0.0
 30
0.0
210
0.0
220
0.0
230
1.0
  2
SOLID
 70
     1
 71
     1
 91
        1
 92
        3
 72
     0
 73
     1
 93
        6
 10
4.9582924482617265
 20
24.0249598728984992
 10
4.9582924482617265
 20
59.3840184886066496
 10
35.0235695478711619
 20
59.3840178864454984
 10
35.0235702260395669
 20
65.1074147155514424
 10
0.3569035593729002
 20
65.1074147155514424
 10
0.3569035593729002
 20
24.0249598728984992
 97
        2
330
100
330
105
 75
     0
 76
     1
 98
        0
  0
MTEXT
  5
107
100
AcDbEntity
  8
SPACE
100
AcDbMText
 10
17.291626
 20
61.812668
 30
0.0
 40
0.500004
 41
2.948215
 71
     5
 72
     5
  1
\C7;\fCalibri|b0|i0|;\H0.50000381469727;Passage\P361 sq ft\P\P
  0
LWPOLYLINE
  5
109
102
{ACAD_REACTORS
330
10A
102
}
100
AcDbEntity
  8
SPACE
  6
CONTINUOUS
100
AcDbPolyline
 90
       10
 70
     1
 10
12.291626
 20
0.356904
 10
17.293015
 20
0.356904
 10
17.293015
 20
13.358293
 10
18.791626
 20
13.358293
 10
18.791626
 20
24.02496
 10
5.291626
 20
24.02496
 10
4.958292
 20
24.02496
 10
0.356904
 20
24.02496
 10
0.356904
 20
0.356904
 10
4.291626
 20
0.356904
  0
HATCH
  5
10A
102
{ACAD_REACTORS
330
108
102
}
100
AcDbEntity
  8
SPACE
 62
    22
100
AcDbHatch
 10
0.0
 20
0.0
 30
0.0
210
0.0
220
0.0
230
1.0
  2
SOLID
 70
     1
 71
     1
 91
        1
 92
        3
 72
     0
 73
     1
 93
       10
 10
12.2916260915392854
 20
0.3569035593728813
 10
17.2930151234792859
 20
0.3569035593728813
 10
17.2930151234792859
 20
13.3582927820477355
 10
18.7916262465113562
 20
13.3582927820477355
 10
18.7916262465113562
 20
24.0249598604122667
 10
5.2916257815951893
 20
24.0249598604122667
 10
4.9582924482617505
 20
24.0249597109750006
 10
0.3569035593728908
 20
24.0249597109750006
 10
0.3569035593728908
 20
0.3569035593728813
 10
4.2916259008044833
 20
0.3569035593728813
 97
        1
330
109
 75
     0
 76
     1
 98
        0
  0
MTEXT
  5
10B
100
AcDbEntity
  8
SPACE
100
AcDbMText
 10
9.574265
 20
16.832312
 30
0.0
 40
0.500004
 41
2.948215
 71
     5
 72
     5
  1
\C7;\fCalibri|b0|i0|;\H0.50000381469727;Garage\P417 sq ft\P\P
  0
LWPOLYLINE
  5
10D
102
{ACAD_REACTORS
330
10E
102
}
100
AcDbEntity
  8
SPACE
  6
CONTINUOUS
100
AcDbPolyline
 90
        7
 70
     1
 10
17.291641
 20
0.356903
 10
35.192526
 20
0.356903
 10
35.192526
 20
13.024959
 10
18.833638
 20
13.024959
 10
18.662146
 20
13.024959
 10
18.490655
 20
13.024959
 10
17.291641
 20
13.024959
  0
HATCH
  5
10E
102
{ACAD_REACTORS
330
10C
102
}
100
AcDbEntity
  8
SPACE
 62
   111
100
AcDbHatch
 10
0.0
 20
0.0
 30
0.0
210
0.0
220
0.0
230
1.0
  2
SOLID
 70
     1
 71
     1
 91
        1
 92
        3
 72
     0
 73
     1
 93
        7
 10
17.2916411198353188
 20
0.3569029606773443
 10
35.1925258788405699
 20
0.3569029606773443
 10
35.1925258788405699
 20
13.0249594487144549
 10
18.8336381908511186
 20
13.0249594487144549
 10
18.6621463956240703
 20
13.0249594343241739
 10
18.4906546003970433
 20
13.0249594343241739
 10
17.2916411198353188
 20
13.0249594487144549
 97
        1
330
10D
 75
     0
 76
     1
 98
        0
  0
MTEXT
  5
10F
100
AcDbEntity
  8
SPACE
100
AcDbMText
 10
26.242083
 20
8.582311
 30
0.0
 40
0.500004
 41
2.948215
 71
     5
 72
     5
  1
\C7;\fCalibri|b0|i0|;\H0.50000381469727;Lawn\P227 sq ft\P\P
  0
LWPOLYLINE
  5
111
102
{ACAD_REACTORS
330
112
102
}
100
AcDbEntity
  8
SPACE
  6
CONTINUOUS
100
AcDbPolyline
 90
        4
 70
     1
 10
19.12496
 20
13.358293
 10
35.02357
 20
13.358293
 10
35.02357
 20
29.52496
 10
19.12496
 20
29.52496
  0
HATCH
  5
112
102
{ACAD_REACTORS
330
110
102
}
100
AcDbEntity
  8
SPACE
 62
    94
100
AcDbHatch
 10
0.0
 20
0.0
 30
0.0
210
0.0
220
0.0
230
1.0
  2
SOLID
 70
     1
 71
     1
 91
        1
 92
        3
 72
     0
 73
     1
 93
        4
 10
19.1249595798446954
 20
13.3582927820477853
 10
35.0235703399506946
 20
13.3582927820477853
 10
35.0235702260395314
 20
29.5249598421051189
 10
19.1249595798446954
 20
29.5249598421051189
 97
        1
330
111
 75
     0
 76
     1
 98
        0
  0
MTEXT
  5
113
100
AcDbEntity
  8
SPACE
100
AcDbMText
 10
27.074265
 20
24.207659
 30
0.0
 40
0.500004
 41
4.599277
 71
     5
 72
     5
  1
\C7;\fCalibri|b0|i0|;\H0.50000381469727;Drawing Room\P257 sq ft\P\P
  0
LWPOLYLINE
  5
115
102
{ACAD_REACTORS
330
116
102
}
100
AcDbEntity
  8
SPACE
  6
CONTINUOUS
100
AcDbPolyline
 90
       10
 70
     1
 10
11.291626
 20
30.52496
 10
11.291626
 20
24.358293
 10
18.791626
 20
24.358293
 10
18.791626
 20
29.52496
 10
18.758293
 20
29.52496
 10
18.758293
 20
34.52496
 10
5.291626
 20
34.52496
 10
5.291626
 20
30.858293
 10
11.291626
 20
30.858293
 10
11.291626
 20
30.691627
  0
HATCH
  5
116
102
{ACAD_REACTORS
330
114
102
}
100
AcDbEntity
  8
SPACE
 62
     6
100
AcDbHatch
 10
0.0
 20
0.0
 30
0.0
210
0.0
220
0.0
230
1.0
  2
SOLID
 70
     1
 71
     1
 91
        1
 92
        3
 72
     0
 73
     1
 93
       10
 10
11.2916260676973756
 20
30.5249598659469719
 10
11.2916260676973756
 20
24.3582931771414408
 10
18.7916262465113526
 20
24.3582931771414408
 10
18.7916262465113526
 20
29.5249598421051402
 10
18.7582929203305397
 20
29.5249598421051402
 10
18.7582929203305397
 20
34.5249599613145008
 10
5.2916257815951129
 20
34.5249599613142948
 10
5.2916257815951129
 20
30.8582931992803005
 10
11.2916260676973756
 20
30.8582931992803005
 10
11.2916260676973756
 20
30.6916265326136859
 97
        1
330
115
 75
     0
 76
     1
 98
        0
  0
MTEXT
  5
117
100
AcDbEntity
  8
SPACE
100
AcDbMText
 10
14.791626
 20
28.749326
 30
0.0
 40
0.500004
 41
2.610324
 71
     5
 72
     5
  1
\C7;\fCalibri|b0|i0|;\H0.50000381469727;Lobby\P98 sq ft\P\P
  0
LWPOLYLINE
  5
119
102
{ACAD_REACTORS
330
11A
102
}
100
AcDbEntity
  8
SPACE
  6
CONTINUOUS
100
AcDbPolyline
 90
        6
 70
     1
 10
26.599597
 20
51.358294
 10
26.599597
 20
59.024959
 10
21.041626
 20
59.024959
 10
21.041626
 20
53.02496
 10
18.791626
 20
53.02496
 10
18.791626
 20
51.358294
  0
HATCH
  5
11A
102
{ACAD_REACTORS
330
118
102
}
100
AcDbEntity
  8
SPACE
 62
     5
100
AcDbHatch
 10
0.0
 20
0.0
 30
0.0
210
0.0
220
0.0
230
1.0
  2
SOLID
 70
     1
 71
     1
 91
        1
 92
        3
 72
     0
 73
     1
 93
        6
 10
26.5995974868033258
 20
51.3582936880384082
 10
26.5995974868033258
 20
59.0249589639300112
 10
21.0416263001555315
 20
59.0249591149284356
 10
21.0416263001555315
 20
53.0249604023887571
 10
18.7916262465113562
 20
53.0249604023887571
 10
18.7916262465113562
 20
51.3582936880384082
 97
        1
330
119
 75
     0
 76
     1
 98
        0
  0
MTEXT
  5
11B
100
AcDbEntity
  8
SPACE
100
AcDbMText
 10
23.791626
 20
53.249326
 30
0.0
 40
0.500004
 41
3.319019
 71
     5
 72
     5
  1
\C7;\fCalibri|b0|i0|;\H0.50000381469727;Bathroom\P46 sq ft\P\P
  0
LINE
  5
11D
102
{ACAD_REACTORS
330
121
102
}
100
AcDbEntity
  8
SPACE
  6
CONTINUOUS
100
AcDbLine
 10
26.932931
 20
59.024959
 30
0.0
 11
26.932931
 21
46.358294
 31
0.0
  0
LINE
  5
11E
102
{ACAD_REACTORS
330
121
102
}
100
AcDbEntity
  8
SPACE
  6
CONTINUOUS
100
AcDbLine
 10
26.932931
 20
46.358294
 30
0.0
 11
35.02357
 21
46.358294
 31
0.0
  0
LINE
  5
11F
102
{ACAD_REACTORS
330
121
102
}
100
AcDbEntity
  8
SPACE
  6
CONTINUOUS
100
AcDbLine
 10
35.02357
 20
46.358294
 30
0.0
 11
35.02357
 21
59.024959
 31
0.0
  0
LINE
  5
120
102
{ACAD_REACTORS
330
121
102
}
100
AcDbEntity
  8
SPACE
  6
CONTINUOUS
100
AcDbLine
 10
35.02357
 20
59.024959
 30
0.0
 11
26.932931
 21
59.024959
 31
0.0
  0
HATCH
  5
121
102
{ACAD_REACTORS
330
11C
102
}
100
AcDbEntity
  8
SPACE
 62
    40
100
AcDbHatch
 10
0.0
 20
0.0
 30
0.0
210
0.0
220
0.0
230
1.0
  2
SOLID
 70
     1
 71
     1
 91
        1
 92
        1
 93
        5
 72
     1
 10
26.9329308201366544
 20
59.0249589639300112
 11
26.9329308201366544
 21
46.3582935688291187
 72
     1
 10
26.9329308201366544
 20
46.3582935688291187
 11
35.0235699345165017
 21
46.3582935688291187
 72
     1
 10
35.0235699345165017
 20
46.3582935688291187
 11
35.0235702260395527
 21
59.0249591149284427
 72
     1
 10
35.0235702260395527
 20
59.0249591149284427
 11
26.9329308201366544
 21
59.0249591149284427
 72
     1
 10
26.9329308201366544
 20
59.0249591149284427
 11
26.9329308201366544
 21
59.0249589639300112
 97
        4
330
11D
330
11E
330
11F
330
120
 75
     0
 76
     1
 98
        0
  0
MTEXT
  5
122
100
AcDbEntity
  8
SPACE
100
AcDbMText
 10
30.978251
 20
54.582659
 30
0.0
 40
0.500004
 41
2.948215
 71
     5
 72
     5
  1
\C7;\fCalibri|b0|i0|;\H0.50000381469727;Kitchen\P102 sq ft\P\P
  0
LWPOLYLINE
  5
124
102
{ACAD_REACTORS
330
125
102
}
100
AcDbEntity
  8
SPACE
  6
CONTINUOUS
100
AcDbPolyline
 90
        7
 70
     1
 10
18.458293
 20
46.358294
 10
18.458293
 20
47.02496
 10
18.458293
 20
53.358294
 10
20.708293
 20
53.358294
 10
20.708293
 20
59.024959
 10
5.291626
 20
59.024959
 10
5.291626
 20
46.358294
  0
HATCH
  5
125
102
{ACAD_REACTORS
330
123
102
}
100
AcDbEntity
  8
SPACE
 62
    10
100
AcDbHatch
 10
0.0
 20
0.0
 30
0.0
210
0.0
220
0.0
230
1.0
  2
SOLID
 70
     1
 71
     1
 91
        1
 92
        3
 72
     0
 73
     1
 93
        7
 10
18.4582929131780205
 20
46.3582935688290405
 10
18.4582929131780205
 20
47.0249602354957759
 10
18.4582929131780205
 20
53.3582935926709325
 10
20.7082929131780702
 20
53.3582937357221709
 10
20.7082929668222135
 20
59.024959130823035
 10
5.2916257815951226
 20
59.024959114928393
 10
5.2916257815951226
 20
46.3582935688290405
 97
        1
330
124
 75
     0
 76
     1
 98
        0
  0
MTEXT
  5
126
100
AcDbEntity
  8
SPACE
100
AcDbMText
 10
12.999959
 20
54.582659
 30
0.0
 40
0.500004
 41
3.108081
 71
     5
 72
     5
  1
\C7;\fCalibri|b0|i0|;\H0.50000381469727;Bedroom\P180 sq ft\P\P
  0
LWPOLYLINE
  5
128
102
{ACAD_REACTORS
330
12E
102
}
100
AcDbEntity
  8
BUILDING_ENVELOPE
  6
CONTINUOUS
 62
     7
100
AcDbPolyline
 90
        4
 70
     1
 10
18.783626
 20
25.358293
 10
18.783626
 20
29.409018
 10
19.13296
 20
29.409018
 10
19.13296
 20
25.358293
  0
LINE
  5
129
102
{ACAD_REACTORS
330
12E
102
}
100
AcDbEntity
  8
BUILDING_ENVELOPE
  6
CONTINUOUS
 62
     7
100
AcDbLine
 10
18.791626
 20
29.409018
 30
0.0
 11
19.12496
 21
29.409018
 31
0.0
  0
LINE
  5
12A
102
{ACAD_REACTORS
330
12E
102
}
100
AcDbEntity
  8
BUILDING_ENVELOPE
  6
CONTINUOUS
 62
     7
100
AcDbLine
 10
19.12496
 20
29.409018
 30
0.0
 11
19.12496
 21
29.242351
 31
0.0
  0
LINE
  5
12B
102
{ACAD_REACTORS
330
12E
102
}
100
AcDbEntity
  8
BUILDING_ENVELOPE
  6
CONTINUOUS
 62
     7
100
AcDbLine
 10
19.12496
 20
29.242351
 30
0.0
 11
18.99996
 21
29.242351
 31
0.0
  0
LINE
  5
12C
102
{ACAD_REACTORS
330
12E
102
}
100
AcDbEntity
  8
BUILDING_ENVELOPE
  6
CONTINUOUS
 62
     7
100
AcDbLine
 10
18.87496
 20
29.242351
 30
0.0
 11
18.791626
 21
29.242351
 31
0.0
  0
LINE
  5
12D
102
{ACAD_REACTORS
330
12E
102
}
100
AcDbEntity
  8
BUILDING_ENVELOPE
  6
CONTINUOUS
 62
     7
100
AcDbLine
 10
18.791626
 20
29.242351
 30
0.0
 11
18.791626
 21
29.409018
 31
0.0
  0
HATCH
  5
12E
102
{ACAD_REACTORS
330
127
102
}
100
AcDbEntity
  8
BUILDING_ENVELOPE
 62
     7
100
AcDbHatch
 10
0.0
 20
0.0
 30
0.0
210
0.0
220
0.0
230
1.0
  2
SOLID
 70
     1
 71
     1
 91
        2
 92
        1
 93
        6
 72
     1
 10
18.7916262465113633
 20
29.4090177429911677
 11
19.124959579844699
 21
29.4090177429911677
 72
     1
 10
19.124959579844699
 20
29.4090177429911677
 11
19.124959579844699
 21
29.2423510763244998
 72
     1
 10
19.124959579844699
 20
29.2423510763244998
 11
18.999959579844699
 21
29.2423510763244998
 72
     1
 10
18.999959579844699
 20
29.2423510763244998
 11
18.874959579844699
 21
29.2423510763244998
 72
     1
 10
18.874959579844699
 20
29.2423510763244998
 11
18.7916262465113633
 21
29.2423510763244998
 72
     1
 10
18.7916262465113633
 20
29.2423510763244998
 11
18.7916262465113633
 21
29.4090177429911677
 97
        6
330
128
330
129
330
12A
330
12B
330
12C
330
12D
 92
        1
 93
        6
 72
     1
 10
18.7916262465113633
 20
25.3582930800710713
 11
19.124959579844699
 21
25.3582930800710713
 72
     1
 10
19.124959579844699
 20
25.3582930800710713
 11
19.124959579844699
 21
25.5249597467377392
 72
     1
 10
19.124959579844699
 20
25.5249597467377392
 11
18.999959579844699
 21
25.5249597467377392
 72
     1
 10
18.999959579844699
 20
25.5249597467377392
 11
18.874959579844699
 21
25.5249597467377392
 72
     1
 10
18.874959579844699
 20
25.5249597467377392
 11
18.7916262465113633
 21
25.5249597467377392
 72
     1
 10
18.7916262465113633
 20
25.5249597467377392
 11
18.7916262465113633
 21
25.3582930800710713
 97
        5
330
12F
330
130
330
131
330
132
330
133
 75
     0
 76
     1
 98
        0
  0
LINE
  5
12F
102
{ACAD_REACTORS
330
12E
102
}
100
AcDbEntity
  8
BUILDING_ENVELOPE
  6
CONTINUOUS
 62
     7
100
AcDbLine
 10
18.791626
 20
25.358293
 30
0.0
 11
19.12496
 21
25.358293
 31
0.0
  0
LINE
  5
130
102
{ACAD_REACTORS
330
12E
102
}
100
AcDbEntity
  8
BUILDING_ENVELOPE
  6
CONTINUOUS
 62
     7
100
AcDbLine
 10
19.12496
 20
25.358293
 30
0.0
 11
19.12496
 21
25.52496
 31
0.0
  0
LINE
  5
131
102
{ACAD_REACTORS
330
12E
102
}
100
AcDbEntity
  8
BUILDING_ENVELOPE
  6
CONTINUOUS
 62
     7
100
AcDbLine
 10
19.12496
 20
25.52496
 30
0.0
 11
18.99996
 21
25.52496
 31
0.0
  0
LINE
  5
132
102
{ACAD_REACTORS
330
12E
102
}
100
AcDbEntity
  8
BUILDING_ENVELOPE
  6
CONTINUOUS
 62
     7
100
AcDbLine
 10
18.87496
 20
25.52496
 30
0.0
 11
18.791626
 21
25.52496
 31
0.0
  0
LINE
  5
133
102
{ACAD_REACTORS
330
12E
102
}
100
AcDbEntity
  8
BUILDING_ENVELOPE
  6
CONTINUOUS
 62
     7
100
AcDbLine
 10
18.791626
 20
25.52496
 30
0.0
 11
18.791626
 21
25.358293
 31
0.0
  0
LINE
  5
134
102
{ACAD_REACTORS
330
137
102
}
100
AcDbEntity
  8
BUILDING_ENVELOPE
  6
CONTINUOUS
 62
     7
100
AcDbLine
 10
18.99996
 20
29.242351
 30
0.0
 11
18.99996
 21
29.200684
 31
0.0
  0
LINE
  5
135
102
{ACAD_REACTORS
330
137
102
}
100
AcDbEntity
  8
BUILDING_ENVELOPE
  6
CONTINUOUS
 62
     7
100
AcDbLine
 10
18.99996
 20
29.200684
 30
0.0
 11
18.87496
 21
29.200684
 31
0.0
  0
LINE
  5
136
102
{ACAD_REACTORS
330
137
102
}
100
AcDbEntity
  8
BUILDING_ENVELOPE
  6
CONTINUOUS
 62
     7
100
AcDbLine
 10
18.87496
 20
29.200684
 30
0.0
 11
18.87496
 21
29.242351
 31
0.0
  0
HATCH
  5
137
102
{ACAD_REACTORS
330
127
102
}
100
AcDbEntity
  8
BUILDING_ENVELOPE
 62
     7
100
AcDbHatch
 10
0.0
 20
0.0
 30
0.0
210
0.0
220
0.0
230
1.0
  2
SOLID
 70
     1
 71
     1
 91
        2
 92
        1
 93
        4
 72
     1
 10
18.999959579844699
 20
29.2423510763244998
 11
18.999959579844699
 21
29.200684409657832
 72
     1
 10
18.999959579844699
 20
29.200684409657832
 11
18.874959579844699
 21
29.200684409657832
 72
     1
 10
18.874959579844699
 20
29.200684409657832
 11
18.874959579844699
 21
29.2423510763244998
 72
     1
 10
18.874959579844699
 20
29.2423510763244998
 11
18.999959579844699
 21
29.2423510763244998
 97
        3
330
134
330
135
330
136
 92
        1
 93
        4
 72
     1
 10
18.999959579844699
 20
25.5249597467377392
 11
18.999959579844699
 21
25.566626413404407
 72
     1
 10
18.999959579844699
 20
25.566626413404407
 11
18.874959579844699
 21
25.566626413404407
 72
     1
 10
18.874959579844699
 20
25.566626413404407
 11
18.874959579844699
 21
25.5249597467377392
 72
     1
 10
18.874959579844699
 20
25.5249597467377392
 11
18.999959579844699
 21
25.5249597467377392
 97
        3
330
138
330
139
330
13A
 75
     0
 76
     1
 98
        0
  0
LINE
  5
138
102
{ACAD_REACTORS
330
137
102
}
100
AcDbEntity
  8
BUILDING_ENVELOPE
  6
CONTINUOUS
 62
     7
100
AcDbLine
 10
18.99996
 20
25.52496
 30
0.0
 11
18.99996
 21
25.566626
 31
0.0
  0
LINE
  5
139
102
{ACAD_REACTORS
330
137
102
}
100
AcDbEntity
  8
BUILDING_ENVELOPE
  6
CONTINUOUS
 62
     7
100
AcDbLine
 10
18.99996
 20
25.566626
 30
0.0
 11
18.87496
 21
25.566626
 31
0.0
  0
LINE
  5
13A
102
{ACAD_REACTORS
330
137
102
}
100
AcDbEntity
  8
BUILDING_ENVELOPE
  6
CONTINUOUS
 62
     7
100
AcDbLine
 10
18.87496
 20
25.566626
 30
0.0
 11
18.87496
 21
25.52496
 31
0.0
  0
LINE
  5
13B
102
{ACAD_REACTORS
330
127
102
}
100
AcDbEntity
  8
BUILDING_ENVELOPE
  6
CONTINUOUS
 62
     7
100
AcDbLine
 10
18.791626
 20
29.409018
 30
0.0
 11
19.12496
 21
29.409018
 31
0.0
  0
LINE
  5
13C
102
{ACAD_REACTORS
330
127
102
}
100
AcDbEntity
  8
BUILDING_ENVELOPE
  6
CONTINUOUS
 62
     7
100
AcDbLine
 10
18.791626
 20
25.358293
 30
0.0
 11
19.12496
 21
25.358293
 31
0.0
  0
ARC
  5
13D
102
{ACAD_REACTORS
330
127
102
}
100
AcDbEntity
  8
BUILDING_ENVELOPE
  6
CONTINUOUS
 62
     7
100
AcDbCircle
 10
19.12496
 20
29.242351
 30
0.0
 40
3.717391
100
AcDbArc
 50
270.0
 51
0.0
  0
LWPOLYLINE
  5
13E
102
{ACAD_REACTORS
330
13F
102
}
100
AcDbEntity
  8
BUILDING_ENVELOPE
  6
CONTINUOUS
 62
     7
100
AcDbPolyline
 90
        4
 70
     1
 10
22.842351
 20
29.117351
 10
19.12496
 20
29.117351
 10
19.12496
 20
29.242351
 10
22.842351
 20
29.242351
  0
HATCH
  5
13F
102
{ACAD_REACTORS
330
127
102
}
100
AcDbEntity
  8
BUILDING_ENVELOPE
 62
     7
100
AcDbHatch
 10
0.0
 20
0.0
 30
0.0
210
0.0
220
0.0
230
1.0
  2
SOLID
 70
     1
 71
     1
 91
        1
 92
        3
 72
     0
 73
     1
 93
        4
 10
22.8423509094314596
 20
29.1173510763244998
 10
19.124959579844699
 20
29.1173510763244998
 10
19.124959579844699
 20
29.2423510763244998
 10
22.8423509094314596
 20
29.2423510763244998
 97
        1
330
13E
 75
     0
 76
     1
 98
        0
  0
LWPOLYLINE
  5
141
102
{ACAD_REACTORS
330
147
102
}
100
AcDbEntity
  8
BUILDING_ENVELOPE
  6
CONTINUOUS
 62
     7
100
AcDbPolyline
 90
        4
 70
     1
 10
12.374959
 20
24.01696
 10
17.708293
 20
24.01696
 10
17.708293
 20
24.366293
 10
12.374959
 20
24.366293
  0
LINE
  5
142
102
{ACAD_REACTORS
330
147
102
}
100
AcDbEntity
  8
BUILDING_ENVELOPE
  6
CONTINUOUS
 62
     7
100
AcDbLine
 10
17.708293
 20
24.02496
 30
0.0
 11
17.708293
 21
24.358293
 31
0.0
  0
LINE
  5
143
102
{ACAD_REACTORS
330
147
102
}
100
AcDbEntity
  8
BUILDING_ENVELOPE
  6
CONTINUOUS
 62
     7
100
AcDbLine
 10
17.708293
 20
24.358293
 30
0.0
 11
17.541626
 21
24.358293
 31
0.0
  0
LINE
  5
144
102
{ACAD_REACTORS
330
147
102
}
100
AcDbEntity
  8
BUILDING_ENVELOPE
  6
CONTINUOUS
 62
     7
100
AcDbLine
 10
17.541626
 20
24.358293
 30
0.0
 11
17.541626
 21
24.233293
 31
0.0
  0
LINE
  5
145
102
{ACAD_REACTORS
330
147
102
}
100
AcDbEntity
  8
BUILDING_ENVELOPE
  6
CONTINUOUS
 62
     7
100
AcDbLine
 10
17.541626
 20
24.108293
 30
0.0
 11
17.541626
 21
24.02496
 31
0.0
  0
LINE
  5
146
102
{ACAD_REACTORS
330
147
102
}
100
AcDbEntity
  8
BUILDING_ENVELOPE
  6
CONTINUOUS
 62
     7
100
AcDbLine
 10
17.541626
 20
24.02496
 30
0.0
 11
17.708293
 21
24.02496
 31
0.0
  0
HATCH
  5
147
102
{ACAD_REACTORS
330
140
102
}
100
AcDbEntity
  8
BUILDING_ENVELOPE
 62
     7
100
AcDbHatch
 10
0.0
 20
0.0
 30
0.0
210
0.0
220
0.0
230
1.0
  2
SOLID
 70
     1
 71
     1
 91
        2
 92
        1
 93
        6
 72
     1
 10
17.7082927682251636
 20
24.0249599268288847
 11
17.7082927682251636
 21
24.3582932601622169
 72
     1
 10
17.7082927682251636
 20
24.3582932601622169
 11
17.5416261015584993
 21
24.3582932601622169
 72
     1
 10
17.5416261015584993
 20
24.3582932601622169
 11
17.5416261015584993
 21
24.2332932601622169
 72
     1
 10
17.5416261015584993
 20
24.2332932601622169
 11
17.5416261015584993
 21
24.1082932601622169
 72
     1
 10
17.5416261015584993
 20
24.1082932601622169
 11
17.5416261015584993
 21
24.0249599268288847
 72
     1
 10
17.5416261015584993
 20
24.0249599268288847
 11
17.7082927682251636
 21
24.0249599268288847
 97
        6
330
141
330
142
330
143
330
144
330
145
330
146
 92
        1
 93
        6
 72
     1
 10
12.3749594348918315
 20
24.0249599268288847
 11
12.3749594348918315
 21
24.3582932601622169
 72
     1
 10
12.3749594348918315
 20
24.3582932601622169
 11
12.5416261015584993
 21
24.3582932601622169
 72
     1
 10
12.5416261015584993
 20
24.3582932601622169
 11
12.5416261015584993
 21
24.2332932601622169
 72
     1
 10
12.5416261015584993
 20
24.2332932601622169
 11
12.5416261015584993
 21
24.1082932601622169
 72
     1
 10
12.5416261015584993
 20
24.1082932601622169
 11
12.5416261015584993
 21
24.0249599268288847
 72
     1
 10
12.5416261015584993
 20
24.0249599268288847
 11
12.3749594348918315
 21
24.0249599268288847
 97
        5
330
148
330
149
330
14A
330
14B
330
14C
 75
     0
 76
     1
 98
        0
  0
LINE
  5
148
102
{ACAD_REACTORS
330
147
102
}
100
AcDbEntity
  8
BUILDING_ENVELOPE
  6
CONTINUOUS
 62
     7
100
AcDbLine
 10
12.374959
 20
24.02496
 30
0.0
 11
12.374959
 21
24.358293
 31
0.0
  0
LINE
  5
149
102
{ACAD_REACTORS
330
147
102
}
100
AcDbEntity
  8
BUILDING_ENVELOPE
  6
CONTINUOUS
 62
     7
100
AcDbLine
 10
12.374959
 20
24.358293
 30
0.0
 11
12.541626
 21
24.358293
 31
0.0
  0
LINE
  5
14A
102
{ACAD_REACTORS
330
147
102
}
100
AcDbEntity
  8
BUILDING_ENVELOPE
  6
CONTINUOUS
 62
     7
100
AcDbLine
 10
12.541626
 20
24.358293
 30
0.0
 11
12.541626
 21
24.233293
 31
0.0
  0
LINE
  5
14B
102
{ACAD_REACTORS
330
147
102
}
100
AcDbEntity
  8
BUILDING_ENVELOPE
  6
CONTINUOUS
 62
     7
100
AcDbLine
 10
12.541626
 20
24.108293
 30
0.0
 11
12.541626
 21
24.02496
 31
0.0
  0
LINE
  5
14C
102
{ACAD_REACTORS
330
147
102
}
100
AcDbEntity
  8
BUILDING_ENVELOPE
  6
CONTINUOUS
 62
     7
100
AcDbLine
 10
12.541626
 20
24.02496
 30
0.0
 11
12.374959
 21
24.02496
 31
0.0
  0
LINE
  5
14D
102
{ACAD_REACTORS
330
150
102
}
100
AcDbEntity
  8
BUILDING_ENVELOPE
  6
CONTINUOUS
 62
     7
100
AcDbLine
 10
17.541626
 20
24.233293
 30
0.0
 11
17.499959
 21
24.233293
 31
0.0
  0
LINE
  5
14E
102
{ACAD_REACTORS
330
150
102
}
100
AcDbEntity
  8
BUILDING_ENVELOPE
  6
CONTINUOUS
 62
     7
100
AcDbLine
 10
17.499959
 20
24.233293
 30
0.0
 11
17.499959
 21
24.108293
 31
0.0
  0
LINE
  5
14F
102
{ACAD_REACTORS
330
150
102
}
100
AcDbEntity
  8
BUILDING_ENVELOPE
  6
CONTINUOUS
 62
     7
100
AcDbLine
 10
17.499959
 20
24.108293
 30
0.0
 11
17.541626
 21
24.108293
 31
0.0
  0
HATCH
  5
150
102
{ACAD_REACTORS
330
140
102
}
100
AcDbEntity
  8
BUILDING_ENVELOPE
 62
     7
100
AcDbHatch
 10
0.0
 20
0.0
 30
0.0
210
0.0
220
0.0
230
1.0
  2
SOLID
 70
     1
 71
     1
 91
        2
 92
        1
 93
        4
 72
     1
 10
17.5416261015584993
 20
24.2332932601622169
 11
17.4999594348918315
 21
24.2332932601622169
 72
     1
 10
17.4999594348918315
 20
24.2332932601622169
 11
17.4999594348918315
 21
24.1082932601622169
 72
     1
 10
17.4999594348918315
 20
24.1082932601622169
 11
17.5416261015584993
 21
24.1082932601622169
 72
     1
 10
17.5416261015584993
 20
24.1082932601622169
 11
17.5416261015584993
 21
24.2332932601622169
 97
        3
330
14D
330
14E
330
14F
 92
        1
 93
        4
 72
     1
 10
12.5416261015584993
 20
24.2332932601622169
 11
12.5832927682251654
 21
24.2332932601622169
 72
     1
 10
12.5832927682251654
 20
24.2332932601622169
 11
12.5832927682251654
 21
24.1082932601622169
 72
     1
 10
12.5832927682251654
 20
24.1082932601622169
 11
12.5416261015584993
 21
24.1082932601622169
 72
     1
 10
12.5416261015584993
 20
24.1082932601622169
 11
12.5416261015584993
 21
24.2332932601622169
 97
        3
330
151
330
152
330
153
 75
     0
 76
     1
 98
        0
  0
LINE
  5
151
102
{ACAD_REACTORS
330
150
102
}
100
AcDbEntity
  8
BUILDING_ENVELOPE
  6
CONTINUOUS
 62
     7
100
AcDbLine
 10
12.541626
 20
24.233293
 30
0.0
 11
12.583293
 21
24.233293
 31
0.0
  0
LINE
  5
152
102
{ACAD_REACTORS
330
150
102
}
100
AcDbEntity
  8
BUILDING_ENVELOPE
  6
CONTINUOUS
 62
     7
100
AcDbLine
 10
12.583293
 20
24.233293
 30
0.0
 11
12.583293
 21
24.108293
 31
0.0
  0
LINE
  5
153
102
{ACAD_REACTORS
330
150
102
}
100
AcDbEntity
  8
BUILDING_ENVELOPE
  6
CONTINUOUS
 62
     7
100
AcDbLine
 10
12.583293
 20
24.108293
 30
0.0
 11
12.541626
 21
24.108293
 31
0.0
  0
LINE
  5
154
102
{ACAD_REACTORS
330
140
102
}
100
AcDbEntity
  8
BUILDING_ENVELOPE
  6
CONTINUOUS
 62
     7
100
AcDbLine
 10
17.708293
 20
24.02496
 30
0.0
 11
17.708293
 21
24.358293
 31
0.0
  0
LINE
  5
155
102
{ACAD_REACTORS
330
140
102
}
100
AcDbEntity
  8
BUILDING_ENVELOPE
  6
CONTINUOUS
 62
     7
100
AcDbLine
 10
12.374959
 20
24.02496
 30
0.0
 11
12.374959
 21
24.358293
 31
0.0
  0
ARC
  5
156
102
{ACAD_REACTORS
330
140
102
}
100
AcDbEntity
  8
BUILDING_ENVELOPE
  6
CONTINUOUS
 62
     7
100
AcDbCircle
 10
12.541626
 20
24.358293
 30
0.0
 40
2.5
100
AcDbArc
 50
0.0
 51
90.0
  0
ARC
  5
157
102
{ACAD_REACTORS
330
140
102
}
100
AcDbEntity
  8
BUILDING_ENVELOPE
  6
CONTINUOUS
 62
     7
100
AcDbCircle
 10
17.541626
 20
24.358293
 30
0.0
 40
2.5
100
AcDbArc
 50
90.0
 51
180.0
  0
LWPOLYLINE
  5
158
102
{ACAD_REACTORS
330
159
102
}
100
AcDbEntity
  8
BUILDING_ENVELOPE
  6
CONTINUOUS
 62
     7
100
AcDbPolyline
 90
        4
 70
     1
 10
12.541626
 20
26.858293
 10
12.541626
 20
24.358293
 10
12.666626
 20
24.358293
 10
12.666626
 20
26.858293
  0
HATCH
  5
159
102
{ACAD_REACTORS
330
140
102
}
100
AcDbEntity
  8
BUILDING_ENVELOPE
 62
     7
100
AcDbHatch
 10
0.0
 20
0.0
 30
0.0
210
0.0
220
0.0
230
1.0
  2
SOLID
 70
     1
 71
     1
 91
        1
 92
        3
 72
     0
 73
     1
 93
        4
 10
12.5416261015584993
 20
26.8582932601622169
 10
12.5416261015584993
 20
24.3582932601622169
 10
12.6666261015584993
 20
24.3582932601622169
 10
12.6666261015584993
 20
26.8582932601622169
 97
        1
330
158
 75
     0
 76
     1
 98
        0
  0
LWPOLYLINE
  5
15A
102
{ACAD_REACTORS
330
15B
102
}
100
AcDbEntity
  8
BUILDING_ENVELOPE
  6
CONTINUOUS
 62
     7
100
AcDbPolyline
 90
        4
 70
     1
 10
17.416626
 20
26.858293
 10
17.416626
 20
24.358293
 10
17.541626
 20
24.358293
 10
17.541626
 20
26.858293
  0
HATCH
  5
15B
102
{ACAD_REACTORS
330
140
102
}
100
AcDbEntity
  8
BUILDING_ENVELOPE
 62
     7
100
AcDbHatch
 10
0.0
 20
0.0
 30
0.0
210
0.0
220
0.0
230
1.0
  2
SOLID
 70
     1
 71
     1
 91
        1
 92
        3
 72
     0
 73
     1
 93
        4
 10
17.4166261015584993
 20
26.8582932601622169
 10
17.4166261015584993
 20
24.3582932601622169
 10
17.5416261015584993
 20
24.3582932601622169
 10
17.5416261015584993
 20
26.8582932601622169
 97
        1
330
15A
 75
     0
 76
     1
 98
        0
  0
LWPOLYLINE
  5
15D
102
{ACAD_REACTORS
330
15E
102
}
100
AcDbEntity
  8
SPACE
  6
CONTINUOUS
100
AcDbPolyline
 90
        4
 70
     1
 10
5.291626
 20
24.358293
 10
10.958293
 20
24.358293
 10
10.958293
 20
30.52496
 10
5.291626
 20
30.52496
  0
HATCH
  5
15E
102
{ACAD_REACTORS
330
15C
102
}
100
AcDbEntity
  8
SPACE
 62
     5
100
AcDbHatch
 10
0.0
 20
0.0
 30
0.0
210
0.0
220
0.0
230
1.0
  2
SOLID
 70
     1
 71
     1
 91
        1
 92
        3
 72
     0
 73
     1
 93
        4
 10
5.2916257815951173
 20
24.3582930443082404
 10
10.9582927343640826
 20
24.3582930443082404
 10
10.9582927343640826
 20
30.5249598659469825
 10
5.2916257815951173
 20
30.5249598659469825
 97
        1
330
15D
 75
     0
 76
     1
 98
        0
  0
MTEXT
  5
15F
100
AcDbEntity
  8
SPACE
100
AcDbMText
 10
7.291626
 20
26.249326
 30
0.0
 40
0.500004
 41
3.319019
 71
     5
 72
     5
  1
\C7;\fCalibri|b0|i0|;\H0.50000381469727;Bathroom\P35 sq ft\P\P
  0
LWPOLYLINE
  5
161
102
{ACAD_REACTORS
330
167
102
}
100
AcDbEntity
  8
BUILDING_ENVELOPE
  6
CONTINUOUS
 62
     7
100
AcDbPolyline
 90
        4
 70
     1
 10
26.591597
 20
50.691627
 10
26.591597
 20
46.640902
 10
26.940931
 20
46.640902
 10
26.940931
 20
50.691627
  0
LINE
  5
162
102
{ACAD_REACTORS
330
167
102
}
100
AcDbEntity
  8
BUILDING_ENVELOPE
  6
CONTINUOUS
 62
     7
100
AcDbLine
 10
26.599597
 20
46.640902
 30
0.0
 11
26.932931
 21
46.640902
 31
0.0
  0
LINE
  5
163
102
{ACAD_REACTORS
330
167
102
}
100
AcDbEntity
  8
BUILDING_ENVELOPE
  6
CONTINUOUS
 62
     7
100
AcDbLine
 10
26.932931
 20
46.640902
 30
0.0
 11
26.932931
 21
46.807569
 31
0.0
  0
LINE
  5
164
102
{ACAD_REACTORS
330
167
102
}
100
AcDbEntity
  8
BUILDING_ENVELOPE
  6
CONTINUOUS
 62
     7
100
AcDbLine
 10
26.932931
 20
46.807569
 30
0.0
 11
26.807931
 21
46.807569
 31
0.0
  0
LINE
  5
165
102
{ACAD_REACTORS
330
167
102
}
100
AcDbEntity
  8
BUILDING_ENVELOPE
  6
CONTINUOUS
 62
     7
100
AcDbLine
 10
26.682931
 20
46.807569
 30
0.0
 11
26.599597
 21
46.807569
 31
0.0
  0
LINE
  5
166
102
{ACAD_REACTORS
330
167
102
}
100
AcDbEntity
  8
BUILDING_ENVELOPE
  6
CONTINUOUS
 62
     7
100
AcDbLine
 10
26.599597
 20
46.807569
 30
0.0
 11
26.599597
 21
46.640902
 31
0.0
  0
HATCH
  5
167
102
{ACAD_REACTORS
330
160
102
}
100
AcDbEntity
  8
BUILDING_ENVELOPE
 62
     7
100
AcDbHatch
 10
0.0
 20
0.0
 30
0.0
210
0.0
220
0.0
230
1.0
  2
SOLID
 70
     1
 71
     1
 91
        2
 92
        1
 93
        6
 72
     1
 10
26.5995974868033329
 20
46.6409023465307655
 11
26.9329308201366651
 21
46.6409023465307655
 72
     1
 10
26.9329308201366651
 20
46.6409023465307655
 11
26.9329308201366651
 21
46.8075690131974298
 72
     1
 10
26.9329308201366651
 20
46.8075690131974298
 11
26.8079308201366651
 21
46.8075690131974298
 72
     1
 10
26.8079308201366651
 20
46.8075690131974298
 11
26.6829308201366651
 21
46.8075690131974298
 72
     1
 10
26.6829308201366651
 20
46.8075690131974298
 11
26.5995974868033329
 21
46.8075690131974298
 72
     1
 10
26.5995974868033329
 20
46.8075690131974298
 11
26.5995974868033329
 21
46.6409023465307655
 97
        6
330
161
330
162
330
163
330
164
330
165
330
166
 92
        1
 93
        6
 72
     1
 10
26.5995974868033329
 20
50.6916270094508548
 11
26.9329308201366651
 21
50.6916270094508548
 72
     1
 10
26.9329308201366651
 20
50.6916270094508548
 11
26.9329308201366651
 21
50.5249603427841834
 72
     1
 10
26.9329308201366651
 20
50.5249603427841834
 11
26.8079308201366651
 21
50.5249603427841834
 72
     1
 10
26.8079308201366651
 20
50.5249603427841834
 11
26.6829308201366651
 21
50.5249603427841834
 72
     1
 10
26.6829308201366651
 20
50.5249603427841834
 11
26.5995974868033329
 21
50.5249603427841834
 72
     1
 10
26.5995974868033329
 20
50.5249603427841834
 11
26.5995974868033329
 21
50.6916270094508548
 97
        5
330
168
330
169
330
16A
330
16B
330
16C
 75
     0
 76
     1
 98
        0
  0
LINE
  5
168
102
{ACAD_REACTORS
330
167
102
}
100
AcDbEntity
  8
BUILDING_ENVELOPE
  6
CONTINUOUS
 62
     7
100
AcDbLine
 10
26.599597
 20
50.691627
 30
0.0
 11
26.932931
 21
50.691627
 31
0.0
  0
LINE
  5
169
102
{ACAD_REACTORS
330
167
102
}
100
AcDbEntity
  8
BUILDING_ENVELOPE
  6
CONTINUOUS
 62
     7
100
AcDbLine
 10
26.932931
 20
50.691627
 30
0.0
 11
26.932931
 21
50.52496
 31
0.0
  0
LINE
  5
16A
102
{ACAD_REACTORS
330
167
102
}
100
AcDbEntity
  8
BUILDING_ENVELOPE
  6
CONTINUOUS
 62
     7
100
AcDbLine
 10
26.932931
 20
50.52496
 30
0.0
 11
26.807931
 21
50.52496
 31
0.0
  0
LINE
  5
16B
102
{ACAD_REACTORS
330
167
102
}
100
AcDbEntity
  8
BUILDING_ENVELOPE
  6
CONTINUOUS
 62
     7
100
AcDbLine
 10
26.682931
 20
50.52496
 30
0.0
 11
26.599597
 21
50.52496
 31
0.0
  0
LINE
  5
16C
102
{ACAD_REACTORS
330
167
102
}
100
AcDbEntity
  8
BUILDING_ENVELOPE
  6
CONTINUOUS
 62
     7
100
AcDbLine
 10
26.599597
 20
50.52496
 30
0.0
 11
26.599597
 21
50.691627
 31
0.0
  0
LINE
  5
16D
102
{ACAD_REACTORS
330
170
102
}
100
AcDbEntity
  8
BUILDING_ENVELOPE
  6
CONTINUOUS
 62
     7
100
AcDbLine
 10
26.807931
 20
46.807569
 30
0.0
 11
26.807931
 21
46.849236
 31
0.0
  0
LINE
  5
16E
102
{ACAD_REACTORS
330
170
102
}
100
AcDbEntity
  8
BUILDING_ENVELOPE
  6
CONTINUOUS
 62
     7
100
AcDbLine
 10
26.807931
 20
46.849236
 30
0.0
 11
26.682931
 21
46.849236
 31
0.0
  0
LINE
  5
16F
102
{ACAD_REACTORS
330
170
102
}
100
AcDbEntity
  8
BUILDING_ENVELOPE
  6
CONTINUOUS
 62
     7
100
AcDbLine
 10
26.682931
 20
46.849236
 30
0.0
 11
26.682931
 21
46.807569
 31
0.0
  0
HATCH
  5
170
102
{ACAD_REACTORS
330
160
102
}
100
AcDbEntity
  8
BUILDING_ENVELOPE
 62
     7
100
AcDbHatch
 10
0.0
 20
0.0
 30
0.0
210
0.0
220
0.0
230
1.0
  2
SOLID
 70
     1
 71
     1
 91
        2
 92
        1
 93
        4
 72
     1
 10
26.8079308201366651
 20
46.8075690131974298
 11
26.8079308201366651
 21
46.8492356798640941
 72
     1
 10
26.8079308201366651
 20
46.8492356798640941
 11
26.6829308201366651
 21
46.8492356798640941
 72
     1
 10
26.6829308201366651
 20
46.8492356798640941
 11
26.6829308201366651
 21
46.8075690131974298
 72
     1
 10
26.6829308201366651
 20
46.8075690131974298
 11
26.8079308201366651
 21
46.8075690131974298
 97
        3
330
16D
330
16E
330
16F
 92
        1
 93
        4
 72
     1
 10
26.8079308201366651
 20
50.5249603427841834
 11
26.8079308201366651
 21
50.4832936761175191
 72
     1
 10
26.8079308201366651
 20
50.4832936761175191
 11
26.6829308201366651
 21
50.4832936761175191
 72
     1
 10
26.6829308201366651
 20
50.4832936761175191
 11
26.6829308201366651
 21
50.5249603427841834
 72
     1
 10
26.6829308201366651
 20
50.5249603427841834
 11
26.8079308201366651
 21
50.5249603427841834
 97
        3
330
171
330
172
330
173
 75
     0
 76
     1
 98
        0
  0
LINE
  5
171
102
{ACAD_REACTORS
330
170
102
}
100
AcDbEntity
  8
BUILDING_ENVELOPE
  6
CONTINUOUS
 62
     7
100
AcDbLine
 10
26.807931
 20
50.52496
 30
0.0
 11
26.807931
 21
50.483294
 31
0.0
  0
LINE
  5
172
102
{ACAD_REACTORS
330
170
102
}
100
AcDbEntity
  8
BUILDING_ENVELOPE
  6
CONTINUOUS
 62
     7
100
AcDbLine
 10
26.807931
 20
50.483294
 30
0.0
 11
26.682931
 21
50.483294
 31
0.0
  0
LINE
  5
173
102
{ACAD_REACTORS
330
170
102
}
100
AcDbEntity
  8
BUILDING_ENVELOPE
  6
CONTINUOUS
 62
     7
100
AcDbLine
 10
26.682931
 20
50.483294
 30
0.0
 11
26.682931
 21
50.52496
 31
0.0
  0
LINE
  5
174
102
{ACAD_REACTORS
330
160
102
}
100
AcDbEntity
  8
BUILDING_ENVELOPE
  6
CONTINUOUS
 62
     7
100
AcDbLine
 10
26.599597
 20
46.640902
 30
0.0
 11
26.932931
 21
46.640902
 31
0.0
  0
LINE
  5
175
102
{ACAD_REACTORS
330
160
102
}
100
AcDbEntity
  8
BUILDING_ENVELOPE
  6
CONTINUOUS
 62
     7
100
AcDbLine
 10
26.599597
 20
50.691627
 30
0.0
 11
26.932931
 21
50.691627
 31
0.0
  0
ARC
  5
176
102
{ACAD_REACTORS
330
160
102
}
100
AcDbEntity
  8
BUILDING_ENVELOPE
  6
CONTINUOUS
 62
     7
100
AcDbCircle
 10
26.932931
 20
46.807569
 30
0.0
 40
3.717391
100
AcDbArc
 50
0.0
 51
90.0
  0
LWPOLYLINE
  5
177
102
{ACAD_REACTORS
330
178
102
}
100
AcDbEntity
  8
BUILDING_ENVELOPE
  6
CONTINUOUS
 62
     7
100
AcDbPolyline
 90
        4
 70
     1
 10
30.650322
 20
46.932569
 10
26.932931
 20
46.932569
 10
26.932931
 20
46.807569
 10
30.650322
 20
46.807569
  0
HATCH
  5
178
102
{ACAD_REACTORS
330
160
102
}
100
AcDbEntity
  8
BUILDING_ENVELOPE
 62
     7
100
AcDbHatch
 10
0.0
 20
0.0
 30
0.0
210
0.0
220
0.0
230
1.0
  2
SOLID
 70
     1
 71
     1
 91
        1
 92
        3
 72
     0
 73
     1
 93
        4
 10
30.6503221497234257
 20
46.9325690131974298
 10
26.9329308201366651
 20
46.9325690131974298
 10
26.9329308201366651
 20
46.8075690131974298
 10
30.6503221497234257
 20
46.8075690131974298
 97
        1
330
177
 75
     0
 76
     1
 98
        0
  0
LWPOLYLINE
  5
17A
102
{ACAD_REACTORS
330
180
102
}
100
AcDbEntity
  8
BUILDING_ENVELOPE
  6
CONTINUOUS
 62
     7
100
AcDbPolyline
 90
        4
 70
     1
 10
18.799626
 20
50.509018
 10
18.799626
 20
46.458294
 10
18.450293
 20
46.458294
 10
18.450293
 20
50.509018
  0
LINE
  5
17B
102
{ACAD_REACTORS
330
180
102
}
100
AcDbEntity
  8
BUILDING_ENVELOPE
  6
CONTINUOUS
 62
     7
100
AcDbLine
 10
18.791626
 20
46.458294
 30
0.0
 11
18.458293
 21
46.458294
 31
0.0
  0
LINE
  5
17C
102
{ACAD_REACTORS
330
180
102
}
100
AcDbEntity
  8
BUILDING_ENVELOPE
  6
CONTINUOUS
 62
     7
100
AcDbLine
 10
18.458293
 20
46.458294
 30
0.0
 11
18.458293
 21
46.62496
 31
0.0
  0
LINE
  5
17D
102
{ACAD_REACTORS
330
180
102
}
100
AcDbEntity
  8
BUILDING_ENVELOPE
  6
CONTINUOUS
 62
     7
100
AcDbLine
 10
18.458293
 20
46.62496
 30
0.0
 11
18.583293
 21
46.62496
 31
0.0
  0
LINE
  5
17E
102
{ACAD_REACTORS
330
180
102
}
100
AcDbEntity
  8
BUILDING_ENVELOPE
  6
CONTINUOUS
 62
     7
100
AcDbLine
 10
18.708293
 20
46.62496
 30
0.0
 11
18.791626
 21
46.62496
 31
0.0
  0
LINE
  5
17F
102
{ACAD_REACTORS
330
180
102
}
100
AcDbEntity
  8
BUILDING_ENVELOPE
  6
CONTINUOUS
 62
     7
100
AcDbLine
 10
18.791626
 20
46.62496
 30
0.0
 11
18.791626
 21
46.458294
 31
0.0
  0
HATCH
  5
180
102
{ACAD_REACTORS
330
179
102
}
100
AcDbEntity
  8
BUILDING_ENVELOPE
 62
     7
100
AcDbHatch
 10
0.0
 20
0.0
 30
0.0
210
0.0
220
0.0
230
1.0
  2
SOLID
 70
     1
 71
     1
 91
        2
 92
        1
 93
        6
 72
     1
 10
18.7916262465113562
 20
46.4582935831341786
 11
18.458292913178024
 21
46.4582935831341786
 72
     1
 10
18.458292913178024
 20
46.4582935831341786
 11
18.458292913178024
 21
46.6249602498008429
 72
     1
 10
18.458292913178024
 20
46.6249602498008429
 11
18.583292913178024
 21
46.6249602498008429
 72
     1
 10
18.583292913178024
 20
46.6249602498008429
 11
18.708292913178024
 21
46.6249602498008429
 72
     1
 10
18.708292913178024
 20
46.6249602498008429
 11
18.7916262465113562
 21
46.6249602498008429
 72
     1
 10
18.7916262465113562
 20
46.6249602498008429
 11
18.7916262465113562
 21
46.4582935831341786
 97
        6
330
17A
330
17B
330
17C
330
17D
330
17E
330
17F
 92
        1
 93
        6
 72
     1
 10
18.7916262465113562
 20
50.5090182460542678
 11
18.458292913178024
 21
50.5090182460542678
 72
     1
 10
18.458292913178024
 20
50.5090182460542678
 11
18.458292913178024
 21
50.3423515793875964
 72
     1
 10
18.458292913178024
 20
50.3423515793875964
 11
18.583292913178024
 21
50.3423515793875964
 72
     1
 10
18.583292913178024
 20
50.3423515793875964
 11
18.708292913178024
 21
50.3423515793875964
 72
     1
 10
18.708292913178024
 20
50.3423515793875964
 11
18.7916262465113562
 21
50.3423515793875964
 72
     1
 10
18.7916262465113562
 20
50.3423515793875964
 11
18.7916262465113562
 21
50.5090182460542678
 97
        5
330
181
330
182
330
183
330
184
330
185
 75
     0
 76
     1
 98
        0
  0
LINE
  5
181
102
{ACAD_REACTORS
330
180
102
}
100
AcDbEntity
  8
BUILDING_ENVELOPE
  6
CONTINUOUS
 62
     7
100
AcDbLine
 10
18.791626
 20
50.509018
 30
0.0
 11
18.458293
 21
50.509018
 31
0.0
  0
LINE
  5
182
102
{ACAD_REACTORS
330
180
102
}
100
AcDbEntity
  8
BUILDING_ENVELOPE
  6
CONTINUOUS
 62
     7
100
AcDbLine
 10
18.458293
 20
50.509018
 30
0.0
 11
18.458293
 21
50.342352
 31
0.0
  0
LINE
  5
183
102
{ACAD_REACTORS
330
180
102
}
100
AcDbEntity
  8
BUILDING_ENVELOPE
  6
CONTINUOUS
 62
     7
100
AcDbLine
 10
18.458293
 20
50.342352
 30
0.0
 11
18.583293
 21
50.342352
 31
0.0
  0
LINE
  5
184
102
{ACAD_REACTORS
330
180
102
}
100
AcDbEntity
  8
BUILDING_ENVELOPE
  6
CONTINUOUS
 62
     7
100
AcDbLine
 10
18.708293
 20
50.342352
 30
0.0
 11
18.791626
 21
50.342352
 31
0.0
  0
LINE
  5
185
102
{ACAD_REACTORS
330
180
102
}
100
AcDbEntity
  8
BUILDING_ENVELOPE
  6
CONTINUOUS
 62
     7
100
AcDbLine
 10
18.791626
 20
50.342352
 30
0.0
 11
18.791626
 21
50.509018
 31
0.0
  0
LINE
  5
186
102
{ACAD_REACTORS
330
189
102
}
100
AcDbEntity
  8
BUILDING_ENVELOPE
  6
CONTINUOUS
 62
     7
100
AcDbLine
 10
18.583293
 20
46.62496
 30
0.0
 11
18.583293
 21
46.666627
 31
0.0
  0
LINE
  5
187
102
{ACAD_REACTORS
330
189
102
}
100
AcDbEntity
  8
BUILDING_ENVELOPE
  6
CONTINUOUS
 62
     7
100
AcDbLine
 10
18.583293
 20
46.666627
 30
0.0
 11
18.708293
 21
46.666627
 31
0.0
  0
LINE
  5
188
102
{ACAD_REACTORS
330
189
102
}
100
AcDbEntity
  8
BUILDING_ENVELOPE
  6
CONTINUOUS
 62
     7
100
AcDbLine
 10
18.708293
 20
46.666627
 30
0.0
 11
18.708293
 21
46.62496
 31
0.0
  0
HATCH
  5
189
102
{ACAD_REACTORS
330
179
102
}
100
AcDbEntity
  8
BUILDING_ENVELOPE
 62
     7
100
AcDbHatch
 10
0.0
 20
0.0
 30
0.0
210
0.0
220
0.0
230
1.0
  2
SOLID
 70
     1
 71
     1
 91
        2
 92
        1
 93
        4
 72
     1
 10
18.583292913178024
 20
46.6249602498008429
 11
18.583292913178024
 21
46.6666269164675072
 72
     1
 10
18.583292913178024
 20
46.6666269164675072
 11
18.708292913178024
 21
46.6666269164675072
 72
     1
 10
18.708292913178024
 20
46.6666269164675072
 11
18.708292913178024
 21
46.6249602498008429
 72
     1
 10
18.708292913178024
 20
46.6249602498008429
 11
18.583292913178024
 21
46.6249602498008429
 97
        3
330
186
330
187
330
188
 92
        1
 93
        4
 72
     1
 10
18.583292913178024
 20
50.3423515793875964
 11
18.583292913178024
 21
50.3006849127209321
 72
     1
 10
18.583292913178024
 20
50.3006849127209321
 11
18.708292913178024
 21
50.3006849127209321
 72
     1
 10
18.708292913178024
 20
50.3006849127209321
 11
18.708292913178024
 21
50.3423515793875964
 72
     1
 10
18.708292913178024
 20
50.3423515793875964
 11
18.583292913178024
 21
50.3423515793875964
 97
        3
330
18A
330
18B
330
18C
 75
     0
 76
     1
 98
        0
  0
LINE
  5
18A
102
{ACAD_REACTORS
330
189
102
}
100
AcDbEntity
  8
BUILDING_ENVELOPE
  6
CONTINUOUS
 62
     7
100
AcDbLine
 10
18.583293
 20
50.342352
 30
0.0
 11
18.583293
 21
50.300685
 31
0.0
  0
LINE
  5
18B
102
{ACAD_REACTORS
330
189
102
}
100
AcDbEntity
  8
BUILDING_ENVELOPE
  6
CONTINUOUS
 62
     7
100
AcDbLine
 10
18.583293
 20
50.300685
 30
0.0
 11
18.708293
 21
50.300685
 31
0.0
  0
LINE
  5
18C
102
{ACAD_REACTORS
330
189
102
}
100
AcDbEntity
  8
BUILDING_ENVELOPE
  6
CONTINUOUS
 62
     7
100
AcDbLine
 10
18.708293
 20
50.300685
 30
0.0
 11
18.708293
 21
50.342352
 31
0.0
  0
LINE
  5
18D
102
{ACAD_REACTORS
330
179
102
}
100
AcDbEntity
  8
BUILDING_ENVELOPE
  6
CONTINUOUS
 62
     7
100
AcDbLine
 10
18.791626
 20
46.458294
 30
0.0
 11
18.458293
 21
46.458294
 31
0.0
  0
LINE
  5
18E
102
{ACAD_REACTORS
330
179
102
}
100
AcDbEntity
  8
BUILDING_ENVELOPE
  6
CONTINUOUS
 62
     7
100
AcDbLine
 10
18.791626
 20
50.509018
 30
0.0
 11
18.458293
 21
50.509018
 31
0.0
  0
ARC
  5
18F
102
{ACAD_REACTORS
330
179
102
}
100
AcDbEntity
  8
BUILDING_ENVELOPE
  6
CONTINUOUS
 62
     7
100
AcDbCircle
 10
18.458293
 20
46.62496
 30
0.0
 40
3.717391
100
AcDbArc
 50
90.0
 51
180.0
  0
LWPOLYLINE
  5
190
102
{ACAD_REACTORS
330
191
102
}
100
AcDbEntity
  8
BUILDING_ENVELOPE
  6
CONTINUOUS
 62
     7
100
AcDbPolyline
 90
        4
 70
     1
 10
14.740902
 20
46.74996
 10
18.458293
 20
46.74996
 10
18.458293
 20
46.62496
 10
14.740902
 20
46.62496
  0
HATCH
  5
191
102
{ACAD_REACTORS
330
179
102
}
100
AcDbEntity
  8
BUILDING_ENVELOPE
 62
     7
100
AcDbHatch
 10
0.0
 20
0.0
 30
0.0
210
0.0
220
0.0
230
1.0
  2
SOLID
 70
     1
 71
     1
 91
        1
 92
        3
 72
     0
 73
     1
 93
        4
 10
14.7409015835912669
 20
46.7499602498008429
 10
18.458292913178024
 20
46.7499602498008429
 10
18.458292913178024
 20
46.6249602498008429
 10
14.7409015835912669
 20
46.6249602498008429
 97
        1
330
190
 75
     0
 76
     1
 98
        0
  0
LWPOLYLINE
  5
193
102
{ACAD_REACTORS
330
199
102
}
100
AcDbEntity
  8
BUILDING_ENVELOPE
  6
CONTINUOUS
 62
     7
100
AcDbPolyline
 90
        4
 70
     1
 10
31.458293
 20
59.366292
 10
27.407569
 20
59.366292
 10
27.407569
 20
59.016959
 10
31.458293
 20
59.016959
  0
LINE
  5
194
102
{ACAD_REACTORS
330
199
102
}
100
AcDbEntity
  8
BUILDING_ENVELOPE
  6
CONTINUOUS
 62
     7
100
AcDbLine
 10
27.407569
 20
59.358292
 30
0.0
 11
27.407569
 21
59.024959
 31
0.0
  0
LINE
  5
195
102
{ACAD_REACTORS
330
199
102
}
100
AcDbEntity
  8
BUILDING_ENVELOPE
  6
CONTINUOUS
 62
     7
100
AcDbLine
 10
27.407569
 20
59.024959
 30
0.0
 11
27.574235
 21
59.024959
 31
0.0
  0
LINE
  5
196
102
{ACAD_REACTORS
330
199
102
}
100
AcDbEntity
  8
BUILDING_ENVELOPE
  6
CONTINUOUS
 62
     7
100
AcDbLine
 10
27.574235
 20
59.024959
 30
0.0
 11
27.574235
 21
59.149959
 31
0.0
  0
LINE
  5
197
102
{ACAD_REACTORS
330
199
102
}
100
AcDbEntity
  8
BUILDING_ENVELOPE
  6
CONTINUOUS
 62
     7
100
AcDbLine
 10
27.574235
 20
59.274959
 30
0.0
 11
27.574235
 21
59.358292
 31
0.0
  0
LINE
  5
198
102
{ACAD_REACTORS
330
199
102
}
100
AcDbEntity
  8
BUILDING_ENVELOPE
  6
CONTINUOUS
 62
     7
100
AcDbLine
 10
27.574235
 20
59.358292
 30
0.0
 11
27.407569
 21
59.358292
 31
0.0
  0
HATCH
  5
199
102
{ACAD_REACTORS
330
192
102
}
100
AcDbEntity
  8
BUILDING_ENVELOPE
 62
     7
100
AcDbHatch
 10
0.0
 20
0.0
 30
0.0
210
0.0
220
0.0
230
1.0
  2
SOLID
 70
     1
 71
     1
 91
        2
 92
        1
 93
        6
 72
     1
 10
27.4075685482812226
 20
59.3582924482617642
 11
27.4075685482812226
 21
59.0249591149284356
 72
     1
 10
27.4075685482812226
 20
59.0249591149284356
 11
27.5742352149478904
 21
59.0249591149284356
 72
     1
 10
27.5742352149478904
 20
59.0249591149284356
 11
27.5742352149478904
 21
59.1499591149284356
 72
     1
 10
27.5742352149478904
 20
59.1499591149284356
 11
27.5742352149478904
 21
59.2749591149284356
 72
     1
 10
27.5742352149478904
 20
59.2749591149284356
 11
27.5742352149478904
 21
59.3582924482617642
 72
     1
 10
27.5742352149478904
 20
59.3582924482617642
 11
27.4075685482812226
 21
59.3582924482617642
 97
        6
330
193
330
194
330
195
330
196
330
197
330
198
 92
        1
 93
        6
 72
     1
 10
31.4582932112013154
 20
59.3582924482617642
 11
31.4582932112013154
 21
59.0249591149284356
 72
     1
 10
31.4582932112013154
 20
59.0249591149284356
 11
31.2916265445346511
 21
59.0249591149284356
 72
     1
 10
31.2916265445346511
 20
59.0249591149284356
 11
31.2916265445346511
 21
59.1499591149284356
 72
     1
 10
31.2916265445346511
 20
59.1499591149284356
 11
31.2916265445346511
 21
59.2749591149284356
 72
     1
 10
31.2916265445346511
 20
59.2749591149284356
 11
31.2916265445346511
 21
59.3582924482617642
 72
     1
 10
31.2916265445346511
 20
59.3582924482617642
 11
31.4582932112013154
 21
59.3582924482617642
 97
        5
330
19A
330
19B
330
19C
330
19D
330
19E
 75
     0
 76
     1
 98
        0
  0
LINE
  5
19A
102
{ACAD_REACTORS
330
199
102
}
100
AcDbEntity
  8
BUILDING_ENVELOPE
  6
CONTINUOUS
 62
     7
100
AcDbLine
 10
31.458293
 20
59.358292
 30
0.0
 11
31.458293
 21
59.024959
 31
0.0
  0
LINE
  5
19B
102
{ACAD_REACTORS
330
199
102
}
100
AcDbEntity
  8
BUILDING_ENVELOPE
  6
CONTINUOUS
 62
     7
100
AcDbLine
 10
31.458293
 20
59.024959
 30
0.0
 11
31.291627
 21
59.024959
 31
0.0
  0
LINE
  5
19C
102
{ACAD_REACTORS
330
199
102
}
100
AcDbEntity
  8
BUILDING_ENVELOPE
  6
CONTINUOUS
 62
     7
100
AcDbLine
 10
31.291627
 20
59.024959
 30
0.0
 11
31.291627
 21
59.149959
 31
0.0
  0
LINE
  5
19D
102
{ACAD_REACTORS
330
199
102
}
100
AcDbEntity
  8
BUILDING_ENVELOPE
  6
CONTINUOUS
 62
     7
100
AcDbLine
 10
31.291627
 20
59.274959
 30
0.0
 11
31.291627
 21
59.358292
 31
0.0
  0
LINE
  5
19E
102
{ACAD_REACTORS
330
199
102
}
100
AcDbEntity
  8
BUILDING_ENVELOPE
  6
CONTINUOUS
 62
     7
100
AcDbLine
 10
31.291627
 20
59.358292
 30
0.0
 11
31.458293
 21
59.358292
 31
0.0
  0
LINE
  5
19F
102
{ACAD_REACTORS
330
1A2
102
}
100
AcDbEntity
  8
BUILDING_ENVELOPE
  6
CONTINUOUS
 62
     7
100
AcDbLine
 10
27.574235
 20
59.149959
 30
0.0
 11
27.615902
 21
59.149959
 31
0.0
  0
LINE
  5
1A0
102
{ACAD_REACTORS
330
1A2
102
}
100
AcDbEntity
  8
BUILDING_ENVELOPE
  6
CONTINUOUS
 62
     7
100
AcDbLine
 10
27.615902
 20
59.149959
 30
0.0
 11
27.615902
 21
59.274959
 31
0.0
  0
LINE
  5
1A1
102
{ACAD_REACTORS
330
1A2
102
}
100
AcDbEntity
  8
BUILDING_ENVELOPE
  6
CONTINUOUS
 62
     7
100
AcDbLine
 10
27.615902
 20
59.274959
 30
0.0
 11
27.574235
 21
59.274959
 31
0.0
  0
HATCH
  5
1A2
102
{ACAD_REACTORS
330
192
102
}
100
AcDbEntity
  8
BUILDING_ENVELOPE
 62
     7
100
AcDbHatch
 10
0.0
 20
0.0
 30
0.0
210
0.0
220
0.0
230
1.0
  2
SOLID
 70
     1
 71
     1
 91
        2
 92
        1
 93
        4
 72
     1
 10
27.5742352149478904
 20
59.1499591149284356
 11
27.6159018816145547
 21
59.1499591149284356
 72
     1
 10
27.6159018816145547
 20
59.1499591149284356
 11
27.6159018816145547
 21
59.2749591149284356
 72
     1
 10
27.6159018816145547
 20
59.2749591149284356
 11
27.5742352149478904
 21
59.2749591149284356
 72
     1
 10
27.5742352149478904
 20
59.2749591149284356
 11
27.5742352149478904
 21
59.1499591149284356
 97
        3
330
19F
330
1A0
330
1A1
 92
        1
 93
        4
 72
     1
 10
31.2916265445346511
 20
59.1499591149284356
 11
31.2499598778679832
 21
59.1499591149284356
 72
     1
 10
31.2499598778679832
 20
59.1499591149284356
 11
31.2499598778679832
 21
59.2749591149284356
 72
     1
 10
31.2499598778679832
 20
59.2749591149284356
 11
31.2916265445346511
 21
59.2749591149284356
 72
     1
 10
31.2916265445346511
 20
59.2749591149284356
 11
31.2916265445346511
 21
59.1499591149284356
 97
        3
330
1A3
330
1A4
330
1A5
 75
     0
 76
     1
 98
        0
  0
LINE
  5
1A3
102
{ACAD_REACTORS
330
1A2
102
}
100
AcDbEntity
  8
BUILDING_ENVELOPE
  6
CONTINUOUS
 62
     7
100
AcDbLine
 10
31.291627
 20
59.149959
 30
0.0
 11
31.24996
 21
59.149959
 31
0.0
  0
LINE
  5
1A4
102
{ACAD_REACTORS
330
1A2
102
}
100
AcDbEntity
  8
BUILDING_ENVELOPE
  6
CONTINUOUS
 62
     7
100
AcDbLine
 10
31.24996
 20
59.149959
 30
0.0
 11
31.24996
 21
59.274959
 31
0.0
  0
LINE
  5
1A5
102
{ACAD_REACTORS
330
1A2
102
}
100
AcDbEntity
  8
BUILDING_ENVELOPE
  6
CONTINUOUS
 62
     7
100
AcDbLine
 10
31.24996
 20
59.274959
 30
0.0
 11
31.291627
 21
59.274959
 31
0.0
  0
LINE
  5
1A6
102
{ACAD_REACTORS
330
192
102
}
100
AcDbEntity
  8
BUILDING_ENVELOPE
  6
CONTINUOUS
 62
     7
100
AcDbLine
 10
27.407569
 20
59.358292
 30
0.0
 11
27.407569
 21
59.024959
 31
0.0
  0
LINE
  5
1A7
102
{ACAD_REACTORS
330
192
102
}
100
AcDbEntity
  8
BUILDING_ENVELOPE
  6
CONTINUOUS
 62
     7
100
AcDbLine
 10
31.458293
 20
59.358292
 30
0.0
 11
31.458293
 21
59.024959
 31
0.0
  0
ARC
  5
1A8
102
{ACAD_REACTORS
330
192
102
}
100
AcDbEntity
  8
BUILDING_ENVELOPE
  6
CONTINUOUS
 62
     7
100
AcDbCircle
 10
27.574235
 20
59.024959
 30
0.0
 40
3.717391
100
AcDbArc
 50
270.0
 51
0.0
  0
LWPOLYLINE
  5
1A9
102
{ACAD_REACTORS
330
1AA
102
}
100
AcDbEntity
  8
BUILDING_ENVELOPE
  6
CONTINUOUS
 62
     7
100
AcDbPolyline
 90
        4
 70
     1
 10
27.699235
 20
55.307568
 10
27.699235
 20
59.024959
 10
27.574235
 20
59.024959
 10
27.574235
 20
55.307568
  0
HATCH
  5
1AA
102
{ACAD_REACTORS
330
192
102
}
100
AcDbEntity
  8
BUILDING_ENVELOPE
 62
     7
100
AcDbHatch
 10
0.0
 20
0.0
 30
0.0
210
0.0
220
0.0
230
1.0
  2
SOLID
 70
     1
 71
     1
 91
        1
 92
        3
 72
     0
 73
     1
 93
        4
 10
27.6992352149478904
 20
55.3075677853416749
 10
27.6992352149478904
 20
59.0249591149284356
 10
27.5742352149478904
 20
59.0249591149284356
 10
27.5742352149478904
 20
55.3075677853416749
 97
        1
330
1A9
 75
     0
 76
     1
 98
        0
  0
LWPOLYLINE
  5
1AC
102
{ACAD_REACTORS
330
1B2
102
}
100
AcDbEntity
  8
BUILDING_ENVELOPE
  6
CONTINUOUS
 62
     7
100
AcDbPolyline
 90
        4
 70
     1
 10
20.700293
 20
54.499598
 10
20.700293
 20
58.550323
 10
21.049626
 20
58.550323
 10
21.049626
 20
54.499598
  0
LINE
  5
1AD
102
{ACAD_REACTORS
330
1B2
102
}
100
AcDbEntity
  8
BUILDING_ENVELOPE
  6
CONTINUOUS
 62
     7
100
AcDbLine
 10
20.708293
 20
58.550323
 30
0.0
 11
21.041626
 21
58.550323
 31
0.0
  0
LINE
  5
1AE
102
{ACAD_REACTORS
330
1B2
102
}
100
AcDbEntity
  8
BUILDING_ENVELOPE
  6
CONTINUOUS
 62
     7
100
AcDbLine
 10
21.041626
 20
58.550323
 30
0.0
 11
21.041626
 21
58.383656
 31
0.0
  0
LINE
  5
1AF
102
{ACAD_REACTORS
330
1B2
102
}
100
AcDbEntity
  8
BUILDING_ENVELOPE
  6
CONTINUOUS
 62
     7
100
AcDbLine
 10
21.041626
 20
58.383656
 30
0.0
 11
20.916626
 21
58.383656
 31
0.0
  0
LINE
  5
1B0
102
{ACAD_REACTORS
330
1B2
102
}
100
AcDbEntity
  8
BUILDING_ENVELOPE
  6
CONTINUOUS
 62
     7
100
AcDbLine
 10
20.791626
 20
58.383656
 30
0.0
 11
20.708293
 21
58.383656
 31
0.0
  0
LINE
  5
1B1
102
{ACAD_REACTORS
330
1B2
102
}
100
AcDbEntity
  8
BUILDING_ENVELOPE
  6
CONTINUOUS
 62
     7
100
AcDbLine
 10
20.708293
 20
58.383656
 30
0.0
 11
20.708293
 21
58.550323
 31
0.0
  0
HATCH
  5
1B2
102
{ACAD_REACTORS
330
1AB
102
}
100
AcDbEntity
  8
BUILDING_ENVELOPE
 62
     7
100
AcDbHatch
 10
0.0
 20
0.0
 30
0.0
210
0.0
220
0.0
230
1.0
  2
SOLID
 70
     1
 71
     1
 91
        2
 92
        1
 93
        6
 72
     1
 10
20.7082929668222917
 20
58.5503228172953385
 11
21.0416263001556239
 21
58.5503228172953385
 72
     1
 10
21.0416263001556239
 20
58.5503228172953385
 11
21.0416263001556239
 21
58.3836561506286742
 72
     1
 10
21.0416263001556239
 20
58.3836561506286742
 11
20.9166263001556239
 21
58.3836561506286742
 72
     1
 10
20.9166263001556239
 20
58.3836561506286742
 11
20.7916263001556239
 21
58.3836561506286742
 72
     1
 10
20.7916263001556239
 20
58.3836561506286742
 11
20.7082929668222917
 21
58.3836561506286742
 72
     1
 10
20.7082929668222917
 20
58.3836561506286742
 11
20.7082929668222917
 21
58.5503228172953385
 97
        6
330
1AC
330
1AD
330
1AE
330
1AF
330
1B0
330
1B1
 92
        1
 93
        6
 72
     1
 10
20.7082929668222917
 20
54.4995981543752492
 11
21.0416263001556239
 21
54.4995981543752492
 72
     1
 10
21.0416263001556239
 20
54.4995981543752492
 11
21.0416263001556239
 21
54.6662648210419206
 72
     1
 10
21.0416263001556239
 20
54.6662648210419206
 11
20.9166263001556239
 21
54.6662648210419206
 72
     1
 10
20.9166263001556239
 20
54.6662648210419206
 11
20.7916263001556239
 21
54.6662648210419206
 72
     1
 10
20.7916263001556239
 20
54.6662648210419206
 11
20.7082929668222917
 21
54.6662648210419206
 72
     1
 10
20.7082929668222917
 20
54.6662648210419206
 11
20.7082929668222917
 21
54.4995981543752492
 97
        5
330
1B3
330
1B4
330
1B5
330
1B6
330
1B7
 75
     0
 76
     1
 98
        0
  0
LINE
  5
1B3
102
{ACAD_REACTORS
330
1B2
102
}
100
AcDbEntity
  8
BUILDING_ENVELOPE
  6
CONTINUOUS
 62
     7
100
AcDbLine
 10
20.708293
 20
54.499598
 30
0.0
 11
21.041626
 21
54.499598
 31
0.0
  0
LINE
  5
1B4
102
{ACAD_REACTORS
330
1B2
102
}
100
AcDbEntity
  8
BUILDING_ENVELOPE
  6
CONTINUOUS
 62
     7
100
AcDbLine
 10
21.041626
 20
54.499598
 30
0.0
 11
21.041626
 21
54.666265
 31
0.0
  0
LINE
  5
1B5
102
{ACAD_REACTORS
330
1B2
102
}
100
AcDbEntity
  8
BUILDING_ENVELOPE
  6
CONTINUOUS
 62
     7
100
AcDbLine
 10
21.041626
 20
54.666265
 30
0.0
 11
20.916626
 21
54.666265
 31
0.0
  0
LINE
  5
1B6
102
{ACAD_REACTORS
330
1B2
102
}
100
AcDbEntity
  8
BUILDING_ENVELOPE
  6
CONTINUOUS
 62
     7
100
AcDbLine
 10
20.791626
 20
54.666265
 30
0.0
 11
20.708293
 21
54.666265
 31
0.0
  0
LINE
  5
1B7
102
{ACAD_REACTORS
330
1B2
102
}
100
AcDbEntity
  8
BUILDING_ENVELOPE
  6
CONTINUOUS
 62
     7
100
AcDbLine
 10
20.708293
 20
54.666265
 30
0.0
 11
20.708293
 21
54.499598
 31
0.0
  0
LINE
  5
1B8
102
{ACAD_REACTORS
330
1BB
102
}
100
AcDbEntity
  8
BUILDING_ENVELOPE
  6
CONTINUOUS
 62
     7
100
AcDbLine
 10
20.916626
 20
58.383656
 30
0.0
 11
20.916626
 21
58.341989
 31
0.0
  0
LINE
  5
1B9
102
{ACAD_REACTORS
330
1BB
102
}
100
AcDbEntity
  8
BUILDING_ENVELOPE
  6
CONTINUOUS
 62
     7
100
AcDbLine
 10
20.916626
 20
58.341989
 30
0.0
 11
20.791626
 21
58.341989
 31
0.0
  0
LINE
  5
1BA
102
{ACAD_REACTORS
330
1BB
102
}
100
AcDbEntity
  8
BUILDING_ENVELOPE
  6
CONTINUOUS
 62
     7
100
AcDbLine
 10
20.791626
 20
58.341989
 30
0.0
 11
20.791626
 21
58.383656
 31
0.0
  0
HATCH
  5
1BB
102
{ACAD_REACTORS
330
1AB
102
}
100
AcDbEntity
  8
BUILDING_ENVELOPE
 62
     7
100
AcDbHatch
 10
0.0
 20
0.0
 30
0.0
210
0.0
220
0.0
230
1.0
  2
SOLID
 70
     1
 71
     1
 91
        2
 92
        1
 93
        4
 72
     1
 10
20.9166263001556239
 20
58.3836561506286742
 11
20.9166263001556239
 21
58.3419894839620099
 72
     1
 10
20.9166263001556239
 20
58.3419894839620099
 11
20.7916263001556239
 21
58.3419894839620099
 72
     1
 10
20.7916263001556239
 20
58.3419894839620099
 11
20.7916263001556239
 21
58.3836561506286742
 72
     1
 10
20.7916263001556239
 20
58.3836561506286742
 11
20.9166263001556239
 21
58.3836561506286742
 97
        3
330
1B8
330
1B9
330
1BA
 92
        1
 93
        4
 72
     1
 10
20.9166263001556239
 20
54.6662648210419206
 11
20.9166263001556239
 21
54.7079314877085849
 72
     1
 10
20.9166263001556239
 20
54.7079314877085849
 11
20.7916263001556239
 21
54.7079314877085849
 72
     1
 10
20.7916263001556239
 20
54.7079314877085849
 11
20.7916263001556239
 21
54.6662648210419206
 72
     1
 10
20.7916263001556239
 20
54.6662648210419206
 11
20.9166263001556239
 21
54.6662648210419206
 97
        3
330
1BC
330
1BD
330
1BE
 75
     0
 76
     1
 98
        0
  0
LINE
  5
1BC
102
{ACAD_REACTORS
330
1BB
102
}
100
AcDbEntity
  8
BUILDING_ENVELOPE
  6
CONTINUOUS
 62
     7
100
AcDbLine
 10
20.916626
 20
54.666265
 30
0.0
 11
20.916626
 21
54.707931
 31
0.0
  0
LINE
  5
1BD
102
{ACAD_REACTORS
330
1BB
102
}
100
AcDbEntity
  8
BUILDING_ENVELOPE
  6
CONTINUOUS
 62
     7
100
AcDbLine
 10
20.916626
 20
54.707931
 30
0.0
 11
20.791626
 21
54.707931
 31
0.0
  0
LINE
  5
1BE
102
{ACAD_REACTORS
330
1BB
102
}
100
AcDbEntity
  8
BUILDING_ENVELOPE
  6
CONTINUOUS
 62
     7
100
AcDbLine
 10
20.791626
 20
54.707931
 30
0.0
 11
20.791626
 21
54.666265
 31
0.0
  0
LINE
  5
1BF
102
{ACAD_REACTORS
330
1AB
102
}
100
AcDbEntity
  8
BUILDING_ENVELOPE
  6
CONTINUOUS
 62
     7
100
AcDbLine
 10
20.708293
 20
58.550323
 30
0.0
 11
21.041626
 21
58.550323
 31
0.0
  0
LINE
  5
1C0
102
{ACAD_REACTORS
330
1AB
102
}
100
AcDbEntity
  8
BUILDING_ENVELOPE
  6
CONTINUOUS
 62
     7
100
AcDbLine
 10
20.708293
 20
54.499598
 30
0.0
 11
21.041626
 21
54.499598
 31
0.0
  0
ARC
  5
1C1
102
{ACAD_REACTORS
330
1AB
102
}
100
AcDbEntity
  8
BUILDING_ENVELOPE
  6
CONTINUOUS
 62
     7
100
AcDbCircle
 10
21.041626
 20
58.383656
 30
0.0
 40
3.717391
100
AcDbArc
 50
270.0
 51
0.0
  0
LWPOLYLINE
  5
1C2
102
{ACAD_REACTORS
330
1C3
102
}
100
AcDbEntity
  8
BUILDING_ENVELOPE
  6
CONTINUOUS
 62
     7
100
AcDbPolyline
 90
        4
 70
     1
 10
24.759018
 20
58.258656
 10
21.041626
 20
58.258656
 10
21.041626
 20
58.383656
 10
24.759018
 20
58.383656
  0
HATCH
  5
1C3
102
{ACAD_REACTORS
330
1AB
102
}
100
AcDbEntity
  8
BUILDING_ENVELOPE
 62
     7
100
AcDbHatch
 10
0.0
 20
0.0
 30
0.0
210
0.0
220
0.0
230
1.0
  2
SOLID
 70
     1
 71
     1
 91
        1
 92
        3
 72
     0
 73
     1
 93
        4
 10
24.759017629742381
 20
58.2586561506286742
 10
21.0416263001556239
 20
58.2586561506286742
 10
21.0416263001556239
 20
58.3836561506286742
 10
24.759017629742381
 20
58.3836561506286742
 97
        1
330
1C2
 75
     0
 76
     1
 98
        0
  0
LWPOLYLINE
  5
1C5
102
{ACAD_REACTORS
330
1C6
102
}
100
AcDbEntity
  8
SPACE
  6
CONTINUOUS
100
AcDbPolyline
 90
        4
 70
     1
 10
19.292243
 20
34.858293
 10
19.292243
 20
46.02496
 10
5.308889
 20
46.02496
 10
5.308889
 20
34.858293
  0
HATCH
  5
1C6
102
{ACAD_REACTORS
330
1C4
102
}
100
AcDbEntity
  8
SPACE
 62
   253
100
AcDbHatch
 10
0.0
 20
0.0
 30
0.0
210
0.0
220
0.0
230
1.0
  2
SOLID
 70
     1
 71
     1
 91
        1
 92
        3
 72
     0
 73
     1
 93
        4
 10
19.2922430648180558
 20
34.8582932946476447
 10
19.2922430648180558
 20
46.0249602354958114
 10
5.3088891771889077
 20
46.0249602354958114
 10
5.3088891771889077
 20
34.8582932946476447
 97
        1
330
1C5
 75
     0
 76
     1
 98
        0
  0
MTEXT
  5
1C7
100
AcDbEntity
  8
SPACE
100
AcDbMText
 10
12.300566
 20
41.957659
 30
0.0
 40
0.500004
 41
2.948215
 71
     5
 72
     5
  1
\C7;\fCalibri|b0|i0|;\H0.50000381469727;Dining\P156 sq ft\P\P
  0
LWPOLYLINE
  5
1C9
102
{ACAD_REACTORS
330
1CF
102
}
100
AcDbEntity
  8
BUILDING_ENVELOPE
  6
CONTINUOUS
 62
     7
100
AcDbPolyline
 90
        4
 70
     1
 10
12.374959
 20
34.51696
 10
17.708293
 20
34.51696
 10
17.708293
 20
34.866293
 10
12.374959
 20
34.866293
  0
LINE
  5
1CA
102
{ACAD_REACTORS
330
1CF
102
}
100
AcDbEntity
  8
BUILDING_ENVELOPE
  6
CONTINUOUS
 62
     7
100
AcDbLine
 10
17.708293
 20
34.52496
 30
0.0
 11
17.708293
 21
34.858293
 31
0.0
  0
LINE
  5
1CB
102
{ACAD_REACTORS
330
1CF
102
}
100
AcDbEntity
  8
BUILDING_ENVELOPE
  6
CONTINUOUS
 62
     7
100
AcDbLine
 10
17.708293
 20
34.858293
 30
0.0
 11
17.541626
 21
34.858293
 31
0.0
  0
LINE
  5
1CC
102
{ACAD_REACTORS
330
1CF
102
}
100
AcDbEntity
  8
BUILDING_ENVELOPE
  6
CONTINUOUS
 62
     7
100
AcDbLine
 10
17.541626
 20
34.858293
 30
0.0
 11
17.541626
 21
34.733293
 31
0.0
  0
LINE
  5
1CD
102
{ACAD_REACTORS
330
1CF
102
}
100
AcDbEntity
  8
BUILDING_ENVELOPE
  6
CONTINUOUS
 62
     7
100
AcDbLine
 10
17.541626
 20
34.608293
 30
0.0
 11
17.541626
 21
34.52496
 31
0.0
  0
LINE
  5
1CE
102
{ACAD_REACTORS
330
1CF
102
}
100
AcDbEntity
  8
BUILDING_ENVELOPE
  6
CONTINUOUS
 62
     7
100
AcDbLine
 10
17.541626
 20
34.52496
 30
0.0
 11
17.708293
 21
34.52496
 31
0.0
  0
HATCH
  5
1CF
102
{ACAD_REACTORS
330
1C8
102
}
100
AcDbEntity
  8
BUILDING_ENVELOPE
 62
     7
100
AcDbHatch
 10
0.0
 20
0.0
 30
0.0
210
0.0
220
0.0
230
1.0
  2
SOLID
 70
     1
 71
     1
 91
        2
 92
        1
 93
        6
 72
     1
 10
17.708292764166373
 20
34.5249599613144085
 11
17.708292764166373
 21
34.8582932946477371
 72
     1
 10
17.708292764166373
 20
34.8582932946477371
 11
17.5416260974997087
 21
34.8582932946477371
 72
     1
 10
17.5416260974997087
 20
34.8582932946477371
 11
17.5416260974997087
 21
34.7332932946477371
 72
     1
 10
17.5416260974997087
 20
34.7332932946477371
 11
17.5416260974997087
 21
34.6082932946477371
 72
     1
 10
17.5416260974997087
 20
34.6082932946477371
 11
17.5416260974997087
 21
34.5249599613144085
 72
     1
 10
17.5416260974997087
 20
34.5249599613144085
 11
17.708292764166373
 21
34.5249599613144085
 97
        6
330
1C9
330
1CA
330
1CB
330
1CC
330
1CD
330
1CE
 92
        1
 93
        6
 72
     1
 10
12.3749594308330408
 20
34.5249599613144085
 11
12.3749594308330408
 21
34.8582932946477371
 72
     1
 10
12.3749594308330408
 20
34.8582932946477371
 11
12.5416260974997087
 21
34.8582932946477371
 72
     1
 10
12.5416260974997087
 20
34.8582932946477371
 11
12.5416260974997087
 21
34.7332932946477371
 72
     1
 10
12.5416260974997087
 20
34.7332932946477371
 11
12.5416260974997087
 21
34.6082932946477371
 72
     1
 10
12.5416260974997087
 20
34.6082932946477371
 11
12.5416260974997087
 21
34.5249599613144085
 72
     1
 10
12.5416260974997087
 20
34.5249599613144085
 11
12.3749594308330408
 21
34.5249599613144085
 97
        5
330
1D0
330
1D1
330
1D2
330
1D3
330
1D4
 75
     0
 76
     1
 98
        0
  0
LINE
  5
1D0
102
{ACAD_REACTORS
330
1CF
102
}
100
AcDbEntity
  8
BUILDING_ENVELOPE
  6
CONTINUOUS
 62
     7
100
AcDbLine
 10
12.374959
 20
34.52496
 30
0.0
 11
12.374959
 21
34.858293
 31
0.0
  0
LINE
  5
1D1
102
{ACAD_REACTORS
330
1CF
102
}
100
AcDbEntity
  8
BUILDING_ENVELOPE
  6
CONTINUOUS
 62
     7
100
AcDbLine
 10
12.374959
 20
34.858293
 30
0.0
 11
12.541626
 21
34.858293
 31
0.0
  0
LINE
  5
1D2
102
{ACAD_REACTORS
330
1CF
102
}
100
AcDbEntity
  8
BUILDING_ENVELOPE
  6
CONTINUOUS
 62
     7
100
AcDbLine
 10
12.541626
 20
34.858293
 30
0.0
 11
12.541626
 21
34.733293
 31
0.0
  0
LINE
  5
1D3
102
{ACAD_REACTORS
330
1CF
102
}
100
AcDbEntity
  8
BUILDING_ENVELOPE
  6
CONTINUOUS
 62
     7
100
AcDbLine
 10
12.541626
 20
34.608293
 30
0.0
 11
12.541626
 21
34.52496
 31
0.0
  0
LINE
  5
1D4
102
{ACAD_REACTORS
330
1CF
102
}
100
AcDbEntity
  8
BUILDING_ENVELOPE
  6
CONTINUOUS
 62
     7
100
AcDbLine
 10
12.541626
 20
34.52496
 30
0.0
 11
12.374959
 21
34.52496
 31
0.0
  0
LINE
  5
1D5
102
{ACAD_REACTORS
330
1D8
102
}
100
AcDbEntity
  8
BUILDING_ENVELOPE
  6
CONTINUOUS
 62
     7
100
AcDbLine
 10
17.541626
 20
34.733293
 30
0.0
 11
17.499959
 21
34.733293
 31
0.0
  0
LINE
  5
1D6
102
{ACAD_REACTORS
330
1D8
102
}
100
AcDbEntity
  8
BUILDING_ENVELOPE
  6
CONTINUOUS
 62
     7
100
AcDbLine
 10
17.499959
 20
34.733293
 30
0.0
 11
17.499959
 21
34.608293
 31
0.0
  0
LINE
  5
1D7
102
{ACAD_REACTORS
330
1D8
102
}
100
AcDbEntity
  8
BUILDING_ENVELOPE
  6
CONTINUOUS
 62
     7
100
AcDbLine
 10
17.499959
 20
34.608293
 30
0.0
 11
17.541626
 21
34.608293
 31
0.0
  0
HATCH
  5
1D8
102
{ACAD_REACTORS
330
1C8
102
}
100
AcDbEntity
  8
BUILDING_ENVELOPE
 62
     7
100
AcDbHatch
 10
0.0
 20
0.0
 30
0.0
210
0.0
220
0.0
230
1.0
  2
SOLID
 70
     1
 71
     1
 91
        2
 92
        1
 93
        4
 72
     1
 10
17.5416260974997087
 20
34.7332932946477371
 11
17.4999594308330408
 21
34.7332932946477371
 72
     1
 10
17.4999594308330408
 20
34.7332932946477371
 11
17.4999594308330408
 21
34.6082932946477371
 72
     1
 10
17.4999594308330408
 20
34.6082932946477371
 11
17.5416260974997087
 21
34.6082932946477371
 72
     1
 10
17.5416260974997087
 20
34.6082932946477371
 11
17.5416260974997087
 21
34.7332932946477371
 97
        3
330
1D5
330
1D6
330
1D7
 92
        1
 93
        4
 72
     1
 10
12.5416260974997087
 20
34.7332932946477371
 11
12.5832927641663748
 21
34.7332932946477371
 72
     1
 10
12.5832927641663748
 20
34.7332932946477371
 11
12.5832927641663748
 21
34.6082932946477371
 72
     1
 10
12.5832927641663748
 20
34.6082932946477371
 11
12.5416260974997087
 21
34.6082932946477371
 72
     1
 10
12.5416260974997087
 20
34.6082932946477371
 11
12.5416260974997087
 21
34.7332932946477371
 97
        3
330
1D9
330
1DA
330
1DB
 75
     0
 76
     1
 98
        0
  0
LINE
  5
1D9
102
{ACAD_REACTORS
330
1D8
102
}
100
AcDbEntity
  8
BUILDING_ENVELOPE
  6
CONTINUOUS
 62
     7
100
AcDbLine
 10
12.541626
 20
34.733293
 30
0.0
 11
12.583293
 21
34.733293
 31
0.0
  0
LINE
  5
1DA
102
{ACAD_REACTORS
330
1D8
102
}
100
AcDbEntity
  8
BUILDING_ENVELOPE
  6
CONTINUOUS
 62
     7
100
AcDbLine
 10
12.583293
 20
34.733293
 30
0.0
 11
12.583293
 21
34.608293
 31
0.0
  0
LINE
  5
1DB
102
{ACAD_REACTORS
330
1D8
102
}
100
AcDbEntity
  8
BUILDING_ENVELOPE
  6
CONTINUOUS
 62
     7
100
AcDbLine
 10
12.583293
 20
34.608293
 30
0.0
 11
12.541626
 21
34.608293
 31
0.0
  0
LINE
  5
1DC
102
{ACAD_REACTORS
330
1C8
102
}
100
AcDbEntity
  8
BUILDING_ENVELOPE
  6
CONTINUOUS
 62
     7
100
AcDbLine
 10
17.708293
 20
34.52496
 30
0.0
 11
17.708293
 21
34.858293
 31
0.0
  0
LINE
  5
1DD
102
{ACAD_REACTORS
330
1C8
102
}
100
AcDbEntity
  8
BUILDING_ENVELOPE
  6
CONTINUOUS
 62
     7
100
AcDbLine
 10
12.374959
 20
34.52496
 30
0.0
 11
12.374959
 21
34.858293
 31
0.0
  0
ARC
  5
1DE
102
{ACAD_REACTORS
330
1C8
102
}
100
AcDbEntity
  8
BUILDING_ENVELOPE
  6
CONTINUOUS
 62
     7
100
AcDbCircle
 10
12.541626
 20
34.858293
 30
0.0
 40
2.5
100
AcDbArc
 50
0.0
 51
90.0
  0
ARC
  5
1DF
102
{ACAD_REACTORS
330
1C8
102
}
100
AcDbEntity
  8
BUILDING_ENVELOPE
  6
CONTINUOUS
 62
     7
100
AcDbCircle
 10
17.541626
 20
34.858293
 30
0.0
 40
2.5
100
AcDbArc
 50
90.0
 51
180.0
  0
LWPOLYLINE
  5
1E0
102
{ACAD_REACTORS
330
1E1
102
}
100
AcDbEntity
  8
BUILDING_ENVELOPE
  6
CONTINUOUS
 62
     7
100
AcDbPolyline
 90
        4
 70
     1
 10
12.541626
 20
37.358293
 10
12.541626
 20
34.858293
 10
12.666626
 20
34.858293
 10
12.666626
 20
37.358293
  0
HATCH
  5
1E1
102
{ACAD_REACTORS
330
1C8
102
}
100
AcDbEntity
  8
BUILDING_ENVELOPE
 62
     7
100
AcDbHatch
 10
0.0
 20
0.0
 30
0.0
210
0.0
220
0.0
230
1.0
  2
SOLID
 70
     1
 71
     1
 91
        1
 92
        3
 72
     0
 73
     1
 93
        4
 10
12.5416260974997087
 20
37.3582932946477371
 10
12.5416260974997087
 20
34.8582932946477371
 10
12.6666260974997087
 20
34.8582932946477371
 10
12.6666260974997087
 20
37.3582932946477371
 97
        1
330
1E0
 75
     0
 76
     1
 98
        0
  0
LWPOLYLINE
  5
1E2
102
{ACAD_REACTORS
330
1E3
102
}
100
AcDbEntity
  8
BUILDING_ENVELOPE
  6
CONTINUOUS
 62
     7
100
AcDbPolyline
 90
        4
 70
     1
 10
17.416626
 20
37.358293
 10
17.416626
 20
34.858293
 10
17.541626
 20
34.858293
 10
17.541626
 20
37.358293
  0
HATCH
  5
1E3
102
{ACAD_REACTORS
330
1C8
102
}
100
AcDbEntity
  8
BUILDING_ENVELOPE
 62
     7
100
AcDbHatch
 10
0.0
 20
0.0
 30
0.0
210
0.0
220
0.0
230
1.0
  2
SOLID
 70
     1
 71
     1
 91
        1
 92
        3
 72
     0
 73
     1
 93
        4
 10
17.4166260974997087
 20
37.3582932946477371
 10
17.4166260974997087
 20
34.8582932946477371
 10
17.5416260974997087
 20
34.8582932946477371
 10
17.5416260974997087
 20
37.3582932946477371
 97
        1
330
1E2
 75
     0
 76
     1
 98
        0
  0
LWPOLYLINE
  5
1E5
102
{ACAD_REACTORS
330
1E6
102
}
100
AcDbEntity
  8
SPACE
  6
CONTINUOUS
100
AcDbPolyline
 90
       10
 70
     1
 10
26.599598
 20
51.02496
 10
18.791626
 20
51.02496
 10
18.791626
 20
47.02496
 10
18.791626
 20
46.358294
 10
18.92496
 20
46.358294
 10
19.091626
 20
46.358294
 10
19.091626
 20
29.858293
 10
35.023571
 20
29.858293
 10
35.02357
 20
46.02496
 10
26.599597
 20
46.02496
  0
HATCH
  5
1E6
102
{ACAD_REACTORS
330
1E4
102
}
100
AcDbEntity
  8
SPACE
 62
     2
100
AcDbHatch
 10
0.0
 20
0.0
 30
0.0
210
0.0
220
0.0
230
1.0
  2
SOLID
 70
     1
 71
     1
 91
        1
 92
        3
 72
     0
 73
     1
 93
       10
 10
26.5995975650741627
 20
51.0249603547050725
 10
18.7916262465113597
 20
51.0249603547050725
 10
18.7916262465113597
 20
47.0249602593376892
 10
18.7916262465113597
 20
46.358293568829005
 10
18.9249595869972538
 20
46.358293568829005
 10
19.0916262536639287
 20
46.358293568829005
 10
19.0916262536639287
 20
29.8582931754384475
 10
35.0235707828794176
 20
29.8582931754384475
 10
35.023570226039638
 20
46.0249602354958398
 10
26.599597486803237
 20
46.0249602354958398
 97
        1
330
1E5
 75
     0
 76
     1
 98
        0
  0
MTEXT
  5
1E7
100
AcDbEntity
  8
SPACE
100
AcDbMText
 10
26.791626
 20
39.249325
 30
0.0
 40
0.500004
 41
2.948215
 71
     5
 72
     5
  1
\C7;\fCalibri|b0|i0|;\H0.50000381469727;Lounge\P297 sq ft\P\P
  0
LWPOLYLINE
  5
1E9
102
{ACAD_REACTORS
330
1EA
102
}
100
AcDbEntity
  8
BUILDING_ENVELOPE
  6
CONTINUOUS
 62
     7
100
AcDbPolyline
 90
        6
 70
     1
 10
19.12496
 20
41.024959
 10
19.12496
 20
34.52496
 10
18.958293
 20
34.52496
 10
18.791626
 20
34.52496
 10
18.791626
 20
41.024959
 10
18.958293
 20
41.024959
  0
HATCH
  5
1EA
102
{ACAD_REACTORS
330
1E8
102
}
100
AcDbEntity
  8
BUILDING_ENVELOPE
 62
     7
100
AcDbHatch
 10
0.0
 20
0.0
 30
0.0
210
0.0
220
0.0
230
1.0
  2
SOLID
 70
     1
 71
     1
 91
        1
 92
        3
 72
     0
 73
     1
 93
        6
 10
19.1249595798446919
 20
41.0249591149284356
 10
19.1249595798446919
 20
34.5249599613144014
 10
18.958292913178024
 20
34.5249599613144014
 10
18.7916262465113562
 20
34.5249599613144014
 10
18.7916262465113562
 20
41.0249591149284356
 10
18.958292913178024
 20
41.0249591149284356
 97
        1
330
1E9
 75
     0
 76
     1
 98
        0
  0
LWPOLYLINE
  5
1EB
102
{ACAD_REACTORS
330
1E8
102
}
100
AcDbEntity
  8
BUILDING_ENVELOPE
  6
CONTINUOUS
 62
     7
100
AcDbPolyline
 90
        4
 70
     0
 10
18.958293
 20
41.024959
 10
19.12496
 20
41.024959
 10
19.12496
 20
34.52496
 10
18.958293
 20
34.52496
  0
LWPOLYLINE
  5
1EC
102
{ACAD_REACTORS
330
1E8
102
}
100
AcDbEntity
  8
BUILDING_ENVELOPE
  6
CONTINUOUS
 62
     7
100
AcDbPolyline
 90
        4
 70
     0
 10
18.958293
 20
41.024959
 10
18.791626
 20
41.024959
 10
18.791626
 20
34.52496
 10
18.958293
 20
34.52496
  0
LWPOLYLINE
  5
1EE
102
{ACAD_REACTORS
330
1F4
102
}
100
AcDbEntity
  8
BUILDING_ENVELOPE
  6
CONTINUOUS
 62
     7
100
AcDbPolyline
 90
        4
 70
     1
 10
18.750293
 20
33.950684
 10
18.750293
 20
29.899959
 10
19.099626
 20
29.899959
 10
19.099626
 20
33.950684
  0
LINE
  5
1EF
102
{ACAD_REACTORS
330
1F4
102
}
100
AcDbEntity
  8
BUILDING_ENVELOPE
  6
CONTINUOUS
 62
     7
100
AcDbLine
 10
18.758293
 20
29.899959
 30
0.0
 11
19.091626
 21
29.899959
 31
0.0
  0
LINE
  5
1F0
102
{ACAD_REACTORS
330
1F4
102
}
100
AcDbEntity
  8
BUILDING_ENVELOPE
  6
CONTINUOUS
 62
     7
100
AcDbLine
 10
19.091626
 20
29.899959
 30
0.0
 11
19.091626
 21
30.066626
 31
0.0
  0
LINE
  5
1F1
102
{ACAD_REACTORS
330
1F4
102
}
100
AcDbEntity
  8
BUILDING_ENVELOPE
  6
CONTINUOUS
 62
     7
100
AcDbLine
 10
19.091626
 20
30.066626
 30
0.0
 11
18.966626
 21
30.066626
 31
0.0
  0
LINE
  5
1F2
102
{ACAD_REACTORS
330
1F4
102
}
100
AcDbEntity
  8
BUILDING_ENVELOPE
  6
CONTINUOUS
 62
     7
100
AcDbLine
 10
18.841626
 20
30.066626
 30
0.0
 11
18.758293
 21
30.066626
 31
0.0
  0
LINE
  5
1F3
102
{ACAD_REACTORS
330
1F4
102
}
100
AcDbEntity
  8
BUILDING_ENVELOPE
  6
CONTINUOUS
 62
     7
100
AcDbLine
 10
18.758293
 20
30.066626
 30
0.0
 11
18.758293
 21
29.899959
 31
0.0
  0
HATCH
  5
1F4
102
{ACAD_REACTORS
330
1ED
102
}
100
AcDbEntity
  8
BUILDING_ENVELOPE
 62
     7
100
AcDbHatch
 10
0.0
 20
0.0
 30
0.0
210
0.0
220
0.0
230
1.0
  2
SOLID
 70
     1
 71
     1
 91
        2
 92
        1
 93
        6
 72
     1
 10
18.7582929203305895
 20
29.8999591149284569
 11
19.0916262536639252
 21
29.8999591149284569
 72
     1
 10
19.0916262536639252
 20
29.8999591149284569
 11
19.0916262536639252
 21
30.0666257815951248
 72
     1
 10
19.0916262536639252
 20
30.0666257815951248
 11
18.9666262536639252
 21
30.0666257815951248
 72
     1
 10
18.9666262536639252
 20
30.0666257815951248
 11
18.8416262536639252
 21
30.0666257815951248
 72
     1
 10
18.8416262536639252
 20
30.0666257815951248
 11
18.7582929203305895
 21
30.0666257815951248
 72
     1
 10
18.7582929203305895
 20
30.0666257815951248
 11
18.7582929203305895
 21
29.8999591149284569
 97
        6
330
1EE
330
1EF
330
1F0
330
1F1
330
1F2
330
1F3
 92
        1
 93
        6
 72
     1
 10
18.7582929203305895
 20
33.9506837778485533
 11
19.0916262536639252
 21
33.9506837778485533
 72
     1
 10
19.0916262536639252
 20
33.9506837778485533
 11
19.0916262536639252
 21
33.7840171111818819
 72
     1
 10
19.0916262536639252
 20
33.7840171111818819
 11
18.9666262536639252
 21
33.7840171111818819
 72
     1
 10
18.9666262536639252
 20
33.7840171111818819
 11
18.8416262536639252
 21
33.7840171111818819
 72
     1
 10
18.8416262536639252
 20
33.7840171111818819
 11
18.7582929203305895
 21
33.7840171111818819
 72
     1
 10
18.7582929203305895
 20
33.7840171111818819
 11
18.7582929203305895
 21
33.9506837778485533
 97
        5
330
1F5
330
1F6
330
1F7
330
1F8
330
1F9
 75
     0
 76
     1
 98
        0
  0
LINE
  5
1F5
102
{ACAD_REACTORS
330
1F4
102
}
100
AcDbEntity
  8
BUILDING_ENVELOPE
  6
CONTINUOUS
 62
     7
100
AcDbLine
 10
18.758293
 20
33.950684
 30
0.0
 11
19.091626
 21
33.950684
 31
0.0
  0
LINE
  5
1F6
102
{ACAD_REACTORS
330
1F4
102
}
100
AcDbEntity
  8
BUILDING_ENVELOPE
  6
CONTINUOUS
 62
     7
100
AcDbLine
 10
19.091626
 20
33.950684
 30
0.0
 11
19.091626
 21
33.784017
 31
0.0
  0
LINE
  5
1F7
102
{ACAD_REACTORS
330
1F4
102
}
100
AcDbEntity
  8
BUILDING_ENVELOPE
  6
CONTINUOUS
 62
     7
100
AcDbLine
 10
19.091626
 20
33.784017
 30
0.0
 11
18.966626
 21
33.784017
 31
0.0
  0
LINE
  5
1F8
102
{ACAD_REACTORS
330
1F4
102
}
100
AcDbEntity
  8
BUILDING_ENVELOPE
  6
CONTINUOUS
 62
     7
100
AcDbLine
 10
18.841626
 20
33.784017
 30
0.0
 11
18.758293
 21
33.784017
 31
0.0
  0
LINE
  5
1F9
102
{ACAD_REACTORS
330
1F4
102
}
100
AcDbEntity
  8
BUILDING_ENVELOPE
  6
CONTINUOUS
 62
     7
100
AcDbLine
 10
18.758293
 20
33.784017
 30
0.0
 11
18.758293
 21
33.950684
 31
0.0
  0
LINE
  5
1FA
102
{ACAD_REACTORS
330
1FD
102
}
100
AcDbEntity
  8
BUILDING_ENVELOPE
  6
CONTINUOUS
 62
     7
100
AcDbLine
 10
18.966626
 20
30.066626
 30
0.0
 11
18.966626
 21
30.108292
 31
0.0
  0
LINE
  5
1FB
102
{ACAD_REACTORS
330
1FD
102
}
100
AcDbEntity
  8
BUILDING_ENVELOPE
  6
CONTINUOUS
 62
     7
100
AcDbLine
 10
18.966626
 20
30.108292
 30
0.0
 11
18.841626
 21
30.108292
 31
0.0
  0
LINE
  5
1FC
102
{ACAD_REACTORS
330
1FD
102
}
100
AcDbEntity
  8
BUILDING_ENVELOPE
  6
CONTINUOUS
 62
     7
100
AcDbLine
 10
18.841626
 20
30.108292
 30
0.0
 11
18.841626
 21
30.066626
 31
0.0
  0
HATCH
  5
1FD
102
{ACAD_REACTORS
330
1ED
102
}
100
AcDbEntity
  8
BUILDING_ENVELOPE
 62
     7
100
AcDbHatch
 10
0.0
 20
0.0
 30
0.0
210
0.0
220
0.0
230
1.0
  2
SOLID
 70
     1
 71
     1
 91
        2
 92
        1
 93
        4
 72
     1
 10
18.9666262536639252
 20
30.0666257815951248
 11
18.9666262536639252
 21
30.1082924482617926
 72
     1
 10
18.9666262536639252
 20
30.1082924482617926
 11
18.8416262536639252
 21
30.1082924482617926
 72
     1
 10
18.8416262536639252
 20
30.1082924482617926
 11
18.8416262536639252
 21
30.0666257815951248
 72
     1
 10
18.8416262536639252
 20
30.0666257815951248
 11
18.9666262536639252
 21
30.0666257815951248
 97
        3
330
1FA
330
1FB
330
1FC
 92
        1
 93
        4
 72
     1
 10
18.9666262536639252
 20
33.7840171111818819
 11
18.9666262536639252
 21
33.7423504445152176
 72
     1
 10
18.9666262536639252
 20
33.7423504445152176
 11
18.8416262536639252
 21
33.7423504445152176
 72
     1
 10
18.8416262536639252
 20
33.7423504445152176
 11
18.8416262536639252
 21
33.7840171111818819
 72
     1
 10
18.8416262536639252
 20
33.7840171111818819
 11
18.9666262536639252
 21
33.7840171111818819
 97
        3
330
1FE
330
1FF
330
200
 75
     0
 76
     1
 98
        0
  0
LINE
  5
1FE
102
{ACAD_REACTORS
330
1FD
102
}
100
AcDbEntity
  8
BUILDING_ENVELOPE
  6
CONTINUOUS
 62
     7
100
AcDbLine
 10
18.966626
 20
33.784017
 30
0.0
 11
18.966626
 21
33.74235
 31
0.0
  0
LINE
  5
1FF
102
{ACAD_REACTORS
330
1FD
102
}
100
AcDbEntity
  8
BUILDING_ENVELOPE
  6
CONTINUOUS
 62
     7
100
AcDbLine
 10
18.966626
 20
33.74235
 30
0.0
 11
18.841626
 21
33.74235
 31
0.0
  0
LINE
  5
200
102
{ACAD_REACTORS
330
1FD
102
}
100
AcDbEntity
  8
BUILDING_ENVELOPE
  6
CONTINUOUS
 62
     7
100
AcDbLine
 10
18.841626
 20
33.74235
 30
0.0
 11
18.841626
 21
33.784017
 31
0.0
  0
LINE
  5
201
102
{ACAD_REACTORS
330
1ED
102
}
100
AcDbEntity
  8
BUILDING_ENVELOPE
  6
CONTINUOUS
 62
     7
100
AcDbLine
 10
18.758293
 20
29.899959
 30
0.0
 11
19.091626
 21
29.899959
 31
0.0
  0
LINE
  5
202
102
{ACAD_REACTORS
330
1ED
102
}
100
AcDbEntity
  8
BUILDING_ENVELOPE
  6
CONTINUOUS
 62
     7
100
AcDbLine
 10
18.758293
 20
33.950684
 30
0.0
 11
19.091626
 21
33.950684
 31
0.0
  0
ARC
  5
203
102
{ACAD_REACTORS
330
1ED
102
}
100
AcDbEntity
  8
BUILDING_ENVELOPE
  6
CONTINUOUS
 62
     7
100
AcDbCircle
 10
19.091626
 20
30.066626
 30
0.0
 40
3.717391
100
AcDbArc
 50
0.0
 51
90.0
  0
LWPOLYLINE
  5
204
102
{ACAD_REACTORS
330
205
102
}
100
AcDbEntity
  8
BUILDING_ENVELOPE
  6
CONTINUOUS
 62
     7
100
AcDbPolyline
 90
        4
 70
     1
 10
22.809018
 20
30.191626
 10
19.091626
 20
30.191626
 10
19.091626
 20
30.066626
 10
22.809018
 20
30.066626
  0
HATCH
  5
205
102
{ACAD_REACTORS
330
1ED
102
}
100
AcDbEntity
  8
BUILDING_ENVELOPE
 62
     7
100
AcDbHatch
 10
0.0
 20
0.0
 30
0.0
210
0.0
220
0.0
230
1.0
  2
SOLID
 70
     1
 71
     1
 91
        1
 92
        3
 72
     0
 73
     1
 93
        4
 10
22.8090175832506823
 20
30.1916257815951248
 10
19.0916262536639252
 20
30.1916257815951248
 10
19.0916262536639252
 20
30.0666257815951248
 10
22.8090175832506823
 20
30.0666257815951248
 97
        1
330
204
 75
     0
 76
     1
 98
        0
  0
LWPOLYLINE
  5
208
102
{ACAD_REACTORS
330
209
102
}
100
AcDbEntity
  8
LANDING
  6
CONTINUOUS
 62
     7
100
AcDbPolyline
 90
        4
 70
     1
 10
5.258334
 20
34.485601
 10
5.258334
 20
30.776419
 10
8.892221
 20
30.776419
 10
8.892221
 20
34.485601
  0
HATCH
  5
209
102
{ACAD_REACTORS
330
206
102
}
100
AcDbEntity
  8
LANDING
 62
   134
100
AcDbHatch
 10
0.0
 20
0.0
 30
0.0
210
0.0
220
0.0
230
1.0
  2
SOLID
 70
     1
 71
     1
 91
        1
 92
        3
 72
     0
 73
     1
 93
        4
 10
5.2583335736510852
 20
34.4856008402799574
 10
5.2583335736510852
 20
30.7764191661320297
 10
8.8922213449437209
 20
30.7764191661320297
 10
8.8922213449437209
 20
34.4856008402799574
 97
        1
330
208
 75
     0
 76
     1
 98
        0
  0
LINE
  5
20A
102
{ACAD_REACTORS
330
206
102
}
100
AcDbEntity
  8
LANDING
  6
CONTINUOUS
 62
     9
100
AcDbLine
 10
5.258334
 20
34.485601
 30
0.0
 11
8.892221
 21
32.639764
 31
0.0
  0
LINE
  5
20B
102
{ACAD_REACTORS
330
206
102
}
100
AcDbEntity
  8
LANDING
  6
CONTINUOUS
 62
     9
100
AcDbLine
 10
5.258334
 20
34.485601
 30
0.0
 11
7.068155
 21
30.776419
 31
0.0
  0
LWPOLYLINE
  5
20D
102
{ACAD_REACTORS
330
20E
102
}
100
AcDbEntity
  8
BUILDING_ENVELOPE
  6
CONTINUOUS
 62
     9
100
AcDbPolyline
 90
        4
 70
     1
 10
8.588829
 20
34.485601
 10
9.499312
 20
34.485601
 10
9.499312
 20
30.76821
 10
8.588829
 20
30.76821
  0
HATCH
  5
20E
102
{ACAD_REACTORS
330
20C
102
}
100
AcDbEntity
  8
BUILDING_ENVELOPE
 62
   134
100
AcDbHatch
 10
0.0
 20
0.0
 30
0.0
210
0.0
220
0.0
230
1.0
  2
SOLID
 70
     1
 71
     1
 91
       33
 92
        3
 72
     0
 73
     1
 93
        4
 10
8.5888293476549489
 20
34.485600840279929
 10
9.4993120417115691
 20
34.485600840279929
 10
9.4993120417115691
 20
30.7682095106931719
 10
8.5888293476549489
 20
30.7682095106931719
 97
        1
330
20D
 92
        3
 72
     0
 73
     1
 93
        4
 10
9.4993120417115691
 20
34.485600840279929
 10
10.4097947357681875
 20
34.485600840279929
 10
10.4097947357681875
 20
30.7682095106931719
 10
9.4993120417115691
 20
30.7682095106931719
 97
        1
330
20F
 92
        3
 72
     0
 73
     1
 93
        4
 10
10.4097947357681875
 20
34.485600840279929
 10
11.3202774298248077
 20
34.485600840279929
 10
11.3202774298248077
 20
30.7682095106931719
 10
10.4097947357681875
 20
30.7682095106931719
 97
        1
330
210
 92
        3
 72
     0
 73
     1
 93
        4
 10
11.3202774298248077
 20
34.485600840279929
 10
12.2307601238814261
 20
34.485600840279929
 10
12.2307601238814261
 20
30.7682095106931719
 10
11.3202774298248077
 20
30.7682095106931719
 97
        1
330
211
 92
        0
 93
        0
 97
        0
 92
        0
 93
        0
 97
        0
 92
        0
 93
        0
 97
        0
 92
        0
 93
        0
 97
        0
 92
        0
 93
        0
 97
        0
 92
        0
 93
        0
 97
        0
 92
        0
 93
        0
 97
        0
 92
        0
 93
        0
 97
        0
 92
        0
 93
        0
 97
        0
 92
        0
 93
        0
 97
        0
 92
        0
 93
        0
 97
        0
 92
        0
 93
        0
 97
        0
 92
        0
 93
        0
 97
        0
 92
        0
 93
        0
 97
        0
 92
        0
 93
        0
 97
        0
 92
        0
 93
        0
 97
        0
 92
        0
 93
        0
 97
        0
 92
        0
 93
        0
 97
        0
 92
        0
 93
        0
 97
        0
 92
        0
 93
        0
 97
        0
 92
        0
 93
        0
 97
        0
 92
        0
 93
        0
 97
        0
 92
        0
 93
        0
 97
        0
 92
        0
 93
        0
 97
        0
 92
        0
 93
        0
 97
        0
 92
        0
 93
        0
 97
        0
 92
        0
 93
        0
 97
        0
 92
        0
 93
        0
 97
        0
 92
        0
 93
        0
 97
        0
 75
     0
 76
     1
 98
        0
  0
LWPOLYLINE
  5
20F
102
{ACAD_REACTORS
330
20E
102
}
100
AcDbEntity
  8
BUILDING_ENVELOPE
  6
CONTINUOUS
 62
     9
100
AcDbPolyline
 90
        4
 70
     1
 10
9.499312
 20
34.485601
 10
10.409795
 20
34.485601
 10
10.409795
 20
30.76821
 10
9.499312
 20
30.76821
  0
LWPOLYLINE
  5
210
102
{ACAD_REACTORS
330
20E
102
}
100
AcDbEntity
  8
BUILDING_ENVELOPE
  6
CONTINUOUS
 62
     9
100
AcDbPolyline
 90
        4
 70
     1
 10
10.409795
 20
34.485601
 10
11.320277
 20
34.485601
 10
11.320277
 20
30.76821
 10
10.409795
 20
30.76821
  0
LWPOLYLINE
  5
211
102
{ACAD_REACTORS
330
20E
102
}
100
AcDbEntity
  8
BUILDING_ENVELOPE
  6
CONTINUOUS
 62
     9
100
AcDbPolyline
 90
        4
 70
     1
 10
11.320277
 20
34.485601
 10
12.23076
 20
34.485601
 10
12.23076
 20
30.76821
 10
11.320277
 20
30.76821
  0
MTEXT
  5
212
100
AcDbEntity
  8
BUILDING_ENVELOPE
100
AcDbMText
 10
8.212196
 20
32.626905
 30
0.0
 40
0.333332
 41
0.753267
 71
     5
 72
     5
  1
\C7;\fCalibri|b0|i0|;\H0.33333206176758;UP
  0
CIRCLE
  5
214
102
{ACAD_REACTORS
330
215
102
}
100
AcDbEntity
  8
STAIR
  6
CONTINUOUS
 62
     7
100
AcDbCircle
 10
8.588829
 20
32.626905
 30
0.0
 40
0.086804
  0
HATCH
  5
215
102
{ACAD_REACTORS
330
20C
102
}
100
AcDbEntity
  8
STAIR
 62
   134
100
AcDbHatch
 10
0.0
 20
0.0
 30
0.0
210
0.0
220
0.0
230
1.0
  2
SOLID
 70
     1
 71
     1
 91
        1
 92
        1
 93
        1
 72
     2
 10
8.5888293476549489
 20
32.6269051754865487
 40
0.0868041666666667
 50
0.0
 51
360.0
 73
     1
 97
        1
330
214
 75
     0
 76
     1
 98
        0
  0
LINE
  5
216
102
{ACAD_REACTORS
330
20C
102
}
100
AcDbEntity
  8
STAIR
  6
CONTINUOUS
 62
     7
100
AcDbLine
 10
8.588829
 20
32.626905
 30
0.0
 11
10.897029
 21
32.626905
 31
0.0
  0
LWPOLYLINE
  5
217
102
{ACAD_REACTORS
330
218
102
}
100
AcDbEntity
  8
STAIR
  6
CONTINUOUS
 62
     7
100
AcDbPolyline
 90
        3
 70
     1
 10
10.684117
 20
32.49943
 10
10.684117
 20
32.75438
 10
11.109942
 20
32.624171
  0
HATCH
  5
218
102
{ACAD_REACTORS
330
20C
102
}
100
AcDbEntity
  8
STAIR
 62
   134
100
AcDbHatch
 10
0.0
 20
0.0
 30
0.0
210
0.0
220
0.0
230
1.0
  2
SOLID
 70
     1
 71
     1
 91
        1
 92
        3
 72
     0
 73
     1
 93
        3
 10
10.6841168476549484
 20
32.4994301754865518
 10
10.6841168476549484
 20
32.7543801754865527
 10
11.1099418476549481
 20
32.6241707781423216
 97
        1
330
217
 75
     0
 76
     1
 98
        0
  0
LWPOLYLINE
  5
21A
102
{ACAD_REACTORS
330
220
102
}
100
AcDbEntity
  8
BUILDING_ENVELOPE
  6
CONTINUOUS
 62
     7
100
AcDbPolyline
 90
        4
 70
     1
 10
11.299626
 20
26.149959
 10
11.299626
 20
30.200684
 10
10.950293
 20
30.200684
 10
10.950293
 20
26.149959
  0
LINE
  5
21B
102
{ACAD_REACTORS
330
220
102
}
100
AcDbEntity
  8
BUILDING_ENVELOPE
  6
CONTINUOUS
 62
     7
100
AcDbLine
 10
11.291626
 20
30.200684
 30
0.0
 11
10.958293
 21
30.200684
 31
0.0
  0
LINE
  5
21C
102
{ACAD_REACTORS
330
220
102
}
100
AcDbEntity
  8
BUILDING_ENVELOPE
  6
CONTINUOUS
 62
     7
100
AcDbLine
 10
10.958293
 20
30.200684
 30
0.0
 11
10.958293
 21
30.034017
 31
0.0
  0
LINE
  5
21D
102
{ACAD_REACTORS
330
220
102
}
100
AcDbEntity
  8
BUILDING_ENVELOPE
  6
CONTINUOUS
 62
     7
100
AcDbLine
 10
10.958293
 20
30.034017
 30
0.0
 11
11.083293
 21
30.034017
 31
0.0
  0
LINE
  5
21E
102
{ACAD_REACTORS
330
220
102
}
100
AcDbEntity
  8
BUILDING_ENVELOPE
  6
CONTINUOUS
 62
     7
100
AcDbLine
 10
11.208293
 20
30.034017
 30
0.0
 11
11.291626
 21
30.034017
 31
0.0
  0
LINE
  5
21F
102
{ACAD_REACTORS
330
220
102
}
100
AcDbEntity
  8
BUILDING_ENVELOPE
  6
CONTINUOUS
 62
     7
100
AcDbLine
 10
11.291626
 20
30.034017
 30
0.0
 11
11.291626
 21
30.200684
 31
0.0
  0
HATCH
  5
220
102
{ACAD_REACTORS
330
219
102
}
100
AcDbEntity
  8
BUILDING_ENVELOPE
 62
     7
100
AcDbHatch
 10
0.0
 20
0.0
 30
0.0
210
0.0
220
0.0
230
1.0
  2
SOLID
 70
     1
 71
     1
 91
        2
 92
        1
 93
        6
 72
     1
 10
11.2916260676974236
 20
30.2006837778485142
 11
10.9582927343640897
 21
30.2006837778485142
 72
     1
 10
10.9582927343640897
 20
30.2006837778485142
 11
10.9582927343640897
 21
30.0340171111818464
 72
     1
 10
10.9582927343640897
 20
30.0340171111818464
 11
11.0832927343640897
 21
30.0340171111818464
 72
     1
 10
11.0832927343640897
 20
30.0340171111818464
 11
11.2082927343640897
 21
30.0340171111818464
 72
     1
 10
11.2082927343640897
 20
30.0340171111818464
 11
11.2916260676974236
 21
30.0340171111818464
 72
     1
 10
11.2916260676974236
 20
30.0340171111818464
 11
11.2916260676974236
 21
30.2006837778485142
 97
        6
330
21A
330
21B
330
21C
330
21D
330
21E
330
21F
 92
        1
 93
        6
 72
     1
 10
11.2916260676974236
 20
26.1499591149284214
 11
10.9582927343640897
 21
26.1499591149284214
 72
     1
 10
10.9582927343640897
 20
26.1499591149284214
 11
10.9582927343640897
 21
26.3166257815950857
 72
     1
 10
10.9582927343640897
 20
26.3166257815950857
 11
11.0832927343640897
 21
26.3166257815950857
 72
     1
 10
11.0832927343640897
 20
26.3166257815950857
 11
11.2082927343640897
 21
26.3166257815950857
 72
     1
 10
11.2082927343640897
 20
26.3166257815950857
 11
11.2916260676974236
 21
26.3166257815950857
 72
     1
 10
11.2916260676974236
 20
26.3166257815950857
 11
11.2916260676974236
 21
26.1499591149284214
 97
        5
330
221
330
222
330
223
330
224
330
225
 75
     0
 76
     1
 98
        0
  0
LINE
  5
221
102
{ACAD_REACTORS
330
220
102
}
100
AcDbEntity
  8
BUILDING_ENVELOPE
  6
CONTINUOUS
 62
     7
100
AcDbLine
 10
11.291626
 20
26.149959
 30
0.0
 11
10.958293
 21
26.149959
 31
0.0
  0
LINE
  5
222
102
{ACAD_REACTORS
330
220
102
}
100
AcDbEntity
  8
BUILDING_ENVELOPE
  6
CONTINUOUS
 62
     7
100
AcDbLine
 10
10.958293
 20
26.149959
 30
0.0
 11
10.958293
 21
26.316626
 31
0.0
  0
LINE
  5
223
102
{ACAD_REACTORS
330
220
102
}
100
AcDbEntity
  8
BUILDING_ENVELOPE
  6
CONTINUOUS
 62
     7
100
AcDbLine
 10
10.958293
 20
26.316626
 30
0.0
 11
11.083293
 21
26.316626
 31
0.0
  0
LINE
  5
224
102
{ACAD_REACTORS
330
220
102
}
100
AcDbEntity
  8
BUILDING_ENVELOPE
  6
CONTINUOUS
 62
     7
100
AcDbLine
 10
11.208293
 20
26.316626
 30
0.0
 11
11.291626
 21
26.316626
 31
0.0
  0
LINE
  5
225
102
{ACAD_REACTORS
330
220
102
}
100
AcDbEntity
  8
BUILDING_ENVELOPE
  6
CONTINUOUS
 62
     7
100
AcDbLine
 10
11.291626
 20
26.316626
 30
0.0
 11
11.291626
 21
26.149959
 31
0.0
  0
LINE
  5
226
102
{ACAD_REACTORS
330
229
102
}
100
AcDbEntity
  8
BUILDING_ENVELOPE
  6
CONTINUOUS
 62
     7
100
AcDbLine
 10
11.083293
 20
30.034017
 30
0.0
 11
11.083293
 21
29.99235
 31
0.0
  0
LINE
  5
227
102
{ACAD_REACTORS
330
229
102
}
100
AcDbEntity
  8
BUILDING_ENVELOPE
  6
CONTINUOUS
 62
     7
100
AcDbLine
 10
11.083293
 20
29.99235
 30
0.0
 11
11.208293
 21
29.99235
 31
0.0
  0
LINE
  5
228
102
{ACAD_REACTORS
330
229
102
}
100
AcDbEntity
  8
BUILDING_ENVELOPE
  6
CONTINUOUS
 62
     7
100
AcDbLine
 10
11.208293
 20
29.99235
 30
0.0
 11
11.208293
 21
30.034017
 31
0.0
  0
HATCH
  5
229
102
{ACAD_REACTORS
330
219
102
}
100
AcDbEntity
  8
BUILDING_ENVELOPE
 62
     7
100
AcDbHatch
 10
0.0
 20
0.0
 30
0.0
210
0.0
220
0.0
230
1.0
  2
SOLID
 70
     1
 71
     1
 91
        2
 92
        1
 93
        4
 72
     1
 10
11.0832927343640897
 20
30.0340171111818464
 11
11.0832927343640897
 21
29.9923504445151821
 72
     1
 10
11.0832927343640897
 20
29.9923504445151821
 11
11.2082927343640897
 21
29.9923504445151821
 72
     1
 10
11.2082927343640897
 20
29.9923504445151821
 11
11.2082927343640897
 21
30.0340171111818464
 72
     1
 10
11.2082927343640897
 20
30.0340171111818464
 11
11.0832927343640897
 21
30.0340171111818464
 97
        3
330
226
330
227
330
228
 92
        1
 93
        4
 72
     1
 10
11.0832927343640897
 20
26.3166257815950857
 11
11.0832927343640897
 21
26.3582924482617535
 72
     1
 10
11.0832927343640897
 20
26.3582924482617535
 11
11.2082927343640897
 21
26.3582924482617535
 72
     1
 10
11.2082927343640897
 20
26.3582924482617535
 11
11.2082927343640897
 21
26.3166257815950857
 72
     1
 10
11.2082927343640897
 20
26.3166257815950857
 11
11.0832927343640897
 21
26.3166257815950857
 97
        3
330
22A
330
22B
330
22C
 75
     0
 76
     1
 98
        0
  0
LINE
  5
22A
102
{ACAD_REACTORS
330
229
102
}
100
AcDbEntity
  8
BUILDING_ENVELOPE
  6
CONTINUOUS
 62
     7
100
AcDbLine
 10
11.083293
 20
26.316626
 30
0.0
 11
11.083293
 21
26.358292
 31
0.0
  0
LINE
  5
22B
102
{ACAD_REACTORS
330
229
102
}
100
AcDbEntity
  8
BUILDING_ENVELOPE
  6
CONTINUOUS
 62
     7
100
AcDbLine
 10
11.083293
 20
26.358292
 30
0.0
 11
11.208293
 21
26.358292
 31
0.0
  0
LINE
  5
22C
102
{ACAD_REACTORS
330
229
102
}
100
AcDbEntity
  8
BUILDING_ENVELOPE
  6
CONTINUOUS
 62
     7
100
AcDbLine
 10
11.208293
 20
26.358292
 30
0.0
 11
11.208293
 21
26.316626
 31
0.0
  0
LINE
  5
22D
102
{ACAD_REACTORS
330
219
102
}
100
AcDbEntity
  8
BUILDING_ENVELOPE
  6
CONTINUOUS
 62
     7
100
AcDbLine
 10
11.291626
 20
30.200684
 30
0.0
 11
10.958293
 21
30.200684
 31
0.0
  0
LINE
  5
22E
102
{ACAD_REACTORS
330
219
102
}
100
AcDbEntity
  8
BUILDING_ENVELOPE
  6
CONTINUOUS
 62
     7
100
AcDbLine
 10
11.291626
 20
26.149959
 30
0.0
 11
10.958293
 21
26.149959
 31
0.0
  0
ARC
  5
22F
102
{ACAD_REACTORS
330
219
102
}
100
AcDbEntity
  8
BUILDING_ENVELOPE
  6
CONTINUOUS
 62
     7
100
AcDbCircle
 10
10.958293
 20
30.034017
 30
0.0
 40
3.717391
100
AcDbArc
 50
180.0
 51
270.0
  0
LWPOLYLINE
  5
230
102
{ACAD_REACTORS
330
231
102
}
100
AcDbEntity
  8
BUILDING_ENVELOPE
  6
CONTINUOUS
 62
     7
100
AcDbPolyline
 90
        4
 70
     1
 10
7.240901
 20
29.909017
 10
10.958293
 20
29.909017
 10
10.958293
 20
30.034017
 10
7.240901
 20
30.034017
  0
HATCH
  5
231
102
{ACAD_REACTORS
330
219
102
}
100
AcDbEntity
  8
BUILDING_ENVELOPE
 62
     7
100
AcDbHatch
 10
0.0
 20
0.0
 30
0.0
210
0.0
220
0.0
230
1.0
  2
SOLID
 70
     1
 71
     1
 91
        1
 92
        3
 72
     0
 73
     1
 93
        4
 10
7.2409014047773326
 20
29.9090171111818464
 10
10.9582927343640897
 20
29.9090171111818464
 10
10.9582927343640897
 20
30.0340171111818464
 10
7.2409014047773326
 20
30.0340171111818464
 97
        1
330
230
 75
     0
 76
     1
 98
        0
  0
ENDSEC
  0
SECTION
  2
OBJECTS
  0
DICTIONARY
  5
C
100
AcDbDictionary
  3
ACAD_GROUP
350
D
  3
ACAD_MLINESTYLE
350
1B
  3
ACAD_SCALELIST
350
2C
  3
ACAD_VISUALSTYLE
350
51
  3
ACAD_MATERIAL
350
6A
  3
ACAD_TABLESTYLE
350
6E
  3
ACAD_MLEADERSTYLE
350
70
  0
DICTIONARY
  5
D
102
{ACAD_REACTORS
330
C
102
}
100
AcDbDictionary
  3
VISIOGROUP_0
350
74
  3
VISIOGROUP_1
350
7A
  3
VISIOGROUP_2
350
7F
  3
VISIOGROUP_3
350
84
  3
VISIOGROUP_4
350
89
  3
VISIOGROUP_5
350
90
  3
VISIOGROUP_6
350
95
  3
VISIOGROUP_7
350
9C
  3
VISIOGROUP_8
350
A1
  3
VISIOGROUP_9
350
A8
  3
VISIOGROUP_10
350
AD
  3
VISIOGROUP_11
350
B2
  3
VISIOGROUP_12
350
B9
  3
VISIOGROUP_13
350
C0
  3
VISIOGROUP_14
350
C7
  3
VISIOGROUP_15
350
CE
  3
VISIOGROUP_16
350
D5
  3
VISIOGROUP_17
350
DA
  3
VISIOGROUP_18
350
E1
  3
VISIOGROUP_19
350
E8
  3
VISIOGROUP_20
350
EF
  3
VISIOGROUP_21
350
F6
  3
VISIOGROUP_22
350
FF
  3
VISIOGROUP_23
350
103
  3
VISIOGROUP_24
350
108
  3
VISIOGROUP_25
350
10C
  3
VISIOGROUP_26
350
110
  3
VISIOGROUP_27
350
114
  3
VISIOGROUP_28
350
118
  3
VISIOGROUP_29
350
11C
  3
VISIOGROUP_30
350
123
  3
VISIOGROUP_31
350
127
  3
VISIOGROUP_32
350
140
  3
VISIOGROUP_33
350
15C
  3
VISIOGROUP_34
350
160
  3
VISIOGROUP_35
350
179
  3
VISIOGROUP_36
350
192
  3
VISIOGROUP_37
350
1AB
  3
VISIOGROUP_38
350
1C4
  3
VISIOGROUP_39
350
1C8
  3
VISIOGROUP_40
350
1E4
  3
VISIOGROUP_41
350
1E8
  3
VISIOGROUP_42
350
1ED
  3
VISIOGROUP_43
350
206
  3
VISIOGROUP_44
350
20C
  3
VISIOGROUP_45
350
219
  0
DICTIONARY
  5
1B
102
{ACAD_REACTORS
330
C
102
}
100
AcDbDictionary
  3
STANDARD
350
1C
  0
MLINESTYLE
  5
1C
102
{ACAD_REACTORS
330
1B
102
}
100
AcDbMlineStyle
  2
STANDARD
 70
     0
  3

 62
   256
 51
90.0
 52
90.0
 71
     2
 49
0.5
 62
   256
  6
BYLAYER
 49
-0.5
 62
   256
  6
BYLAYER
  0
DICTIONARY
  5
29
102
{ACAD_REACTORS
330
C
102
}
100
AcDbDictionary
  0
DICTIONARY
  5
2C
102
{ACAD_REACTORS
330
C
102
}
100
AcDbDictionary
  3
A0
350
2D
  3
A1
350
2E
  3
A2
350
2F
  3
A3
350
30
  3
A4
350
31
  3
A5
350
32
  3
A6
350
33
  3
A7
350
34
  3
A8
350
35
  3
A9
350
36
  3
B0
350
37
  3
B1
350
38
  3
B2
350
39
  3
B3
350
3A
  3
B4
350
3B
  3
B5
350
3C
  3
B6
350
3D
  3
B7
350
3E
  3
B8
350
3F
  3
B9
350
40
  3
C0
350
41
  3
C1
350
42
  3
C2
350
43
  3
C3
350
44
  3
C4
350
45
  3
C5
350
46
  3
C6
350
47
  3
C7
350
48
  3
C8
350
49
  3
C9
350
4A
  3
D0
350
4B
  3
D1
350
4C
  3
D2
350
4D
  0
DICTIONARY
  5
4E
102
{ACAD_REACTORS
330
C
102
}
100
AcDbDictionary
  3
MODEL
350
4F
  3
LAYOUT1
350
50
  0
DICTIONARY
  5
51
102
{ACAD_REACTORS
330
C
102
}
100
AcDbDictionary
  3
FLAT
350
52
  3
FLATWITHEDGES
350
53
  3
GOURAUD
350
54
  3
GOURAUDWITHEDGES
350
55
  3
2DWIREFRAME
350
56
  3
WIREFRAME
350
57
  3
HIDDEN
350
58
  3
BASIC
350
59
  3
REALISTIC
350
5A
  3
CONCEPTUAL
350
5B
  3
DIM
350
5C
  3
BRIGHTEN
350
5D
  3
THICKEN
350
5E
  3
LINEPATTERN
350
5F
  3
FACEPATTERN
350
60
  3
COLORCHANGE
350
61
  3
JITTEROFF
350
62
  3
OVERHANGOFF
350
63
  3
EDGECOLOROFF
350
64
  3
SHADES OF GRAY
350
65
  3
SKETCHY
350
66
  3
X-RAY
350
67
  3
SHADED WITH EDGES
350
68
  3
SHADED
350
69
  0
DICTIONARY
  5
6A
102
{ACAD_REACTORS
330
C
102
}
100
AcDbDictionary
  3
BYLAYER
350
6B
  3
BYBLOCK
350
6C
  3
GLOBAL
350
6D
  0
DICTIONARY
  5
6E
102
{ACAD_REACTORS
330
C
102
}
100
AcDbDictionary
  3
STANDARD
350
6F
  0
DICTIONARY
  5
70
102
{ACAD_REACTORS
330
C
102
}
100
AcDbDictionary
  3
STANDARD
350
71
  0
GROUP
  5
74
102
{ACAD_REACTORS
330
D
102
}
100
AcDbGroup
300
Group created by Visio.
 70
     0
 71
     1
340
76
340
77
340
78
340
79
  0
GROUP
  5
7A
102
{ACAD_REACTORS
330
D
102
}
100
AcDbGroup
300
Group created by Visio.
 70
     0
 71
     1
340
7B
340
7C
340
7D
340
7E
  0
GROUP
  5
7F
102
{ACAD_REACTORS
330
D
102
}
100
AcDbGroup
300
Group created by Visio.
 70
     0
 71
     1
340
80
340
81
340
82
340
83
  0
GROUP
  5
84
102
{ACAD_REACTORS
330
D
102
}
100
AcDbGroup
300
Group created by Visio.
 70
     0
 71
     1
340
85
340
86
340
87
340
88
  0
GROUP
  5
89
102
{ACAD_REACTORS
330
D
102
}
100
AcDbGroup
300
Group created by Visio.
 70
     0
 71
     1
340
8A
340
8B
340
8C
340
8D
340
8E
340
8F
  0
GROUP
  5
90
102
{ACAD_REACTORS
330
D
102
}
100
AcDbGroup
300
Group created by Visio.
 70
     0
 71
     1
340
91
340
92
340
93
340
94
  0
GROUP
  5
95
102
{ACAD_REACTORS
330
D
102
}
100
AcDbGroup
300
Group created by Visio.
 70
     0
 71
     1
340
96
340
97
340
98
340
99
340
9A
340
9B
  0
GROUP
  5
9C
102
{ACAD_REACTORS
330
D
102
}
100
AcDbGroup
300
Group created by Visio.
 70
     0
 71
     1
340
9D
340
9E
340
9F
340
A0
  0
GROUP
  5
A1
102
{ACAD_REACTORS
330
D
102
}
100
AcDbGroup
300
Group created by Visio.
 70
     0
 71
     1
340
A2
340
A3
340
A4
340
A5
340
A6
340
A7
  0
GROUP
  5
A8
102
{ACAD_REACTORS
330
D
102
}
100
AcDbGroup
300
Group created by Visio.
 70
     0
 71
     1
340
A9
340
AA
340
AB
340
AC
  0
GROUP
  5
AD
102
{ACAD_REACTORS
330
D
102
}
100
AcDbGroup
300
Group created by Visio.
 70
     0
 71
     1
340
AE
340
AF
340
B0
340
B1
  0
GROUP
  5
B2
102
{ACAD_REACTORS
330
D
102
}
100
AcDbGroup
300
Group created by Visio.
 70
     0
 71
     1
340
B3
340
B4
340
B5
340
B6
340
B7
340
B8
  0
GROUP
  5
B9
102
{ACAD_REACTORS
330
D
102
}
100
AcDbGroup
300
Group created by Visio.
 70
     0
 71
     1
340
BA
340
BB
340
BC
340
BD
340
BE
340
BF
  0
GROUP
  5
C0
102
{ACAD_REACTORS
330
D
102
}
100
AcDbGroup
300
Group created by Visio.
 70
     0
 71
     1
340
C1
340
C2
340
C3
340
C4
340
C5
340
C6
  0
GROUP
  5
C7
102
{ACAD_REACTORS
330
D
102
}
100
AcDbGroup
300
Group created by Visio.
 70
     0
 71
     1
340
C8
340
C9
340
CA
340
CB
340
CC
340
CD
  0
GROUP
  5
CE
102
{ACAD_REACTORS
330
D
102
}
100
AcDbGroup
300
Group created by Visio.
 70
     0
 71
     1
340
CF
340
D0
340
D1
340
D2
340
D3
340
D4
  0
GROUP
  5
D5
102
{ACAD_REACTORS
330
D
102
}
100
AcDbGroup
300
Group created by Visio.
 70
     0
 71
     1
340
D6
340
D7
340
D8
340
D9
  0
GROUP
  5
DA
102
{ACAD_REACTORS
330
D
102
}
100
AcDbGroup
300
Group created by Visio.
 70
     0
 71
     1
340
DB
340
DC
340
DD
340
DE
340
DF
340
E0
  0
GROUP
  5
E1
102
{ACAD_REACTORS
330
D
102
}
100
AcDbGroup
300
Group created by Visio.
 70
     0
 71
     1
340
E2
340
E3
340
E4
340
E5
340
E6
340
E7
  0
GROUP
  5
E8
102
{ACAD_REACTORS
330
D
102
}
100
AcDbGroup
300
Group created by Visio.
 70
     0
 71
     1
340
E9
340
EA
340
EB
340
EC
340
ED
340
EE
  0
GROUP
  5
EF
102
{ACAD_REACTORS
330
D
102
}
100
AcDbGroup
300
Group created by Visio.
 70
     0
 71
     1
340
F0
340
F1
340
F2
340
F3
340
F4
340
F5
  0
GROUP
  5
F6
102
{ACAD_REACTORS
330
D
102
}
100
AcDbGroup
300
Group created by Visio.
 70
     0
 71
     1
340
F7
340
F8
340
F9
340
FA
340
FB
340
FC
340
FD
340
FE
  0
GROUP
  5
FF
102
{ACAD_REACTORS
330
D
102
}
100
AcDbGroup
300
Group created by Visio.
 70
     0
 71
     1
340
100
340
101
340
102
  0
GROUP
  5
103
102
{ACAD_REACTORS
330
D
102
}
100
AcDbGroup
300
Group created by Visio.
 70
     0
 71
     1
340
105
340
106
  0
GROUP
  5
108
102
{ACAD_REACTORS
330
D
102
}
100
AcDbGroup
300
Group created by Visio.
 70
     0
 71
     1
340
109
340
10A
  0
GROUP
  5
10C
102
{ACAD_REACTORS
330
D
102
}
100
AcDbGroup
300
Group created by Visio.
 70
     0
 71
     1
340
10D
340
10E
  0
GROUP
  5
110
102
{ACAD_REACTORS
330
D
102
}
100
AcDbGroup
300
Group created by Visio.
 70
     0
 71
     1
340
111
340
112
  0
GROUP
  5
114
102
{ACAD_REACTORS
330
D
102
}
100
AcDbGroup
300
Group created by Visio.
 70
     0
 71
     1
340
115
340
116
  0
GROUP
  5
118
102
{ACAD_REACTORS
330
D
102
}
100
AcDbGroup
300
Group created by Visio.
 70
     0
 71
     1
340
119
340
11A
  0
GROUP
  5
11C
102
{ACAD_REACTORS
330
D
102
}
100
AcDbGroup
300
Group created by Visio.
 70
     0
 71
     1
340
11D
340
11E
340
11F
340
120
340
121
  0
GROUP
  5
123
102
{ACAD_REACTORS
330
D
102
}
100
AcDbGroup
300
Group created by Visio.
 70
     0
 71
     1
340
124
340
125
  0
GROUP
  5
127
102
{ACAD_REACTORS
330
D
102
}
100
AcDbGroup
300
Group created by Visio.
 70
     0
 71
     1
340
128
340
129
340
12A
340
12B
340
12C
340
12D
340
12F
340
130
340
131
340
132
340
133
340
12E
340
134
340
135
340
136
340
138
340
139
340
13A
340
137
340
13B
340
13C
340
13D
340
13E
340
13F
  0
GROUP
  5
140
102
{ACAD_REACTORS
330
D
102
}
100
AcDbGroup
300
Group created by Visio.
 70
     0
 71
     1
340
141
340
142
340
143
340
144
340
145
340
146
340
148
340
149
340
14A
340
14B
340
14C
340
147
340
14D
340
14E
340
14F
340
151
340
152
340
153
340
150
340
154
340
155
340
156
340
157
340
158
340
159
340
15A
340
15B
  0
GROUP
  5
15C
102
{ACAD_REACTORS
330
D
102
}
100
AcDbGroup
300
Group created by Visio.
 70
     0
 71
     1
340
15D
340
15E
  0
GROUP
  5
160
102
{ACAD_REACTORS
330
D
102
}
100
AcDbGroup
300
Group created by Visio.
 70
     0
 71
     1
340
161
340
162
340
163
340
164
340
165
340
166
340
168
340
169
340
16A
340
16B
340
16C
340
167
340
16D
340
16E
340
16F
340
171
340
172
340
173
340
170
340
174
340
175
340
176
340
177
340
178
  0
GROUP
  5
179
102
{ACAD_REACTORS
330
D
102
}
100
AcDbGroup
300
Group created by Visio.
 70
     0
 71
     1
340
17A
340
17B
340
17C
340
17D
340
17E
340
17F
340
181
340
182
340
183
340
184
340
185
340
180
340
186
340
187
340
188
340
18A
340
18B
340
18C
340
189
340
18D
340
18E
340
18F
340
190
340
191
  0
GROUP
  5
192
102
{ACAD_REACTORS
330
D
102
}
100
AcDbGroup
300
Group created by Visio.
 70
     0
 71
     1
340
193
340
194
340
195
340
196
340
197
340
198
340
19A
340
19B
340
19C
340
19D
340
19E
340
199
340
19F
340
1A0
340
1A1
340
1A3
340
1A4
340
1A5
340
1A2
340
1A6
340
1A7
340
1A8
340
1A9
340
1AA
  0
GROUP
  5
1AB
102
{ACAD_REACTORS
330
D
102
}
100
AcDbGroup
300
Group created by Visio.
 70
     0
 71
     1
340
1AC
340
1AD
340
1AE
340
1AF
340
1B0
340
1B1
340
1B3
340
1B4
340
1B5
340
1B6
340
1B7
340
1B2
340
1B8
340
1B9
340
1BA
340
1BC
340
1BD
340
1BE
340
1BB
340
1BF
340
1C0
340
1C1
340
1C2
340
1C3
  0
GROUP
  5
1C4
102
{ACAD_REACTORS
330
D
102
}
100
AcDbGroup
300
Group created by Visio.
 70
     0
 71
     1
340
1C5
340
1C6
  0
GROUP
  5
1C8
102
{ACAD_REACTORS
330
D
102
}
100
AcDbGroup
300
Group created by Visio.
 70
     0
 71
     1
340
1C9
340
1CA
340
1CB
340
1CC
340
1CD
340
1CE
340
1D0
340
1D1
340
1D2
340
1D3
340
1D4
340
1CF
340
1D5
340
1D6
340
1D7
340
1D9
340
1DA
340
1DB
340
1D8
340
1DC
340
1DD
340
1DE
340
1DF
340
1E0
340
1E1
340
1E2
340
1E3
  0
GROUP
  5
1E4
102
{ACAD_REACTORS
330
D
102
}
100
AcDbGroup
300
Group created by Visio.
 70
     0
 71
     1
340
1E5
340
1E6
  0
GROUP
  5
1E8
102
{ACAD_REACTORS
330
D
102
}
100
AcDbGroup
300
Group created by Visio.
 70
     0
 71
     1
340
1E9
340
1EA
340
1EB
340
1EC
  0
GROUP
  5
1ED
102
{ACAD_REACTORS
330
D
102
}
100
AcDbGroup
300
Group created by Visio.
 70
     0
 71
     1
340
1EE
340
1EF
340
1F0
340
1F1
340
1F2
340
1F3
340
1F5
340
1F6
340
1F7
340
1F8
340
1F9
340
1F4
340
1FA
340
1FB
340
1FC
340
1FE
340
1FF
340
200
340
1FD
340
201
340
202
340
203
340
204
340
205
  0
GROUP
  5
206
102
{ACAD_REACTORS
330
D
102
}
100
AcDbGroup
300
Group created by Visio.
 70
     0
 71
     1
340
208
340
209
340
20A
340
20B
  0
GROUP
  5
20C
102
{ACAD_REACTORS
330
D
102
}
100
AcDbGroup
300
Group created by Visio.
 70
     0
 71
     1
340
20D
340
20F
340
210
340
211
340
20E
340
214
340
215
340
216
340
217
340
218
  0
GROUP
  5
219
102
{ACAD_REACTORS
330
D
102
}
100
AcDbGroup
300
Group created by Visio.
 70
     0
 71
     1
340
21A
340
21B
340
21C
340
21D
340
21E
340
21F
340
221
340
222
340
223
340
224
340
225
340
220
340
226
340
227
340
228
340
22A
340
22B
340
22C
340
229
340
22D
340
22E
340
22F
340
230
340
231
  0
ENDSEC
  0
EOF
