  0
SECTION
  2
HEADER
  9
$ACADVER
  1
AC1014
  9
$ACADMAINTVER
 70
     0
  9
$DWGCODEPAGE
  3
ANSI_1252
  9
$INSBASE
 10
0.0
 20
0.0
 30
0.0
  9
$EXTMIN
 10
0.0
 20
0.0
 30
0.0
  9
$EXTMAX
 10
52.508533
 20
92.7752
 30
0.0
  9
$LIMMIN
 10
0.0
 20
0.0
  9
$LIMMAX
 10
12.0
 20
9.0
  9
$ORTHOMODE
 70
     0
  9
$REGENMODE
 70
     1
  9
$FILLMODE
 70
     0
  9
$QTEXTMODE
 70
     0
  9
$MIRRTEXT
 70
     1
  9
$DRAGMODE
 70
     2
  9
$LTSCALE
 40
1.0
  9
$OSMODE
 70
    37
  9
$ATTMODE
 70
     1
  9
$TEXTSIZE
 40
0.2
  9
$TRACEWID
 40
0.05
  9
$TEXTSTYLE
  7
STANDARD
  9
$CLAYER
  8
0
  9
$CELTYPE
  6
BYLAYER
  9
$CECOLOR
 62
   256
  9
$CELTSCALE
 40
1.0
  9
$DELOBJ
 70
     1
  9
$DISPSILH
 70
     0
  9
$DIMSCALE
 40
1.0
  9
$DIMASZ
 40
0.18
  9
$DIMEXO
 40
0.0625
  9
$DIMDLI
 40
0.38
  9
$DIMRND
 40
0.0
  9
$DIMDLE
 40
0.0
  9
$DIMEXE
 40
0.18
  9
$DIMTP
 40
0.0
  9
$DIMTM
 40
0.0
  9
$DIMTXT
 40
0.18
  9
$DIMCEN
 40
0.09
  9
$DIMTSZ
 40
0.0
  9
$DIMTOL
 70
     0
  9
$DIMLIM
 70
     0
  9
$DIMTIH
 70
     0
  9
$DIMTOH
 70
     0
  9
$DIMSE1
 70
     0
  9
$DIMSE2
 70
     0
  9
$DIMTAD
 70
     1
  9
$DIMZIN
 70
     0
  9
$DIMBLK
  1

  9
$DIMASO
 70
     1
  9
$DIMSHO
 70
     1
  9
$DIMPOST
  1

  9
$DIMAPOST
  1

  9
$DIMALT
 70
     0
  9
$DIMALTD
 70
     2
  9
$DIMALTF
 40
25.4
  9
$DIMLFAC
 40
1.0
  9
$DIMTOFL
 70
     0
  9
$DIMTVP
 40
0.0
  9
$DIMTIX
 70
     0
  9
$DIMSOXD
 70
     0
  9
$DIMSAH
 70
     0
  9
$DIMBLK1
  1

  9
$DIMBLK2
  1

  9
$DIMSTYLE
  2
STANDARD
  9
$DIMCLRD
 70
     0
  9
$DIMCLRE
 70
     0
  9
$DIMCLRT
 70
     0
  9
$DIMTFAC
 40
1.0
  9
$DIMGAP
 40
0.09
  9
$DIMJUST
 70
     0
  9
$DIMSD1
 70
     0
  9
$DIMSD2
 70
     0
  9
$DIMTOLJ
 70
     1
  9
$DIMTZIN
 70
     0
  9
$DIMALTZ
 70
     0
  9
$DIMALTTZ
 70
     0
  9
$DIMFIT
 70
     5
  9
$DIMUPT
 70
     0
  9
$DIMUNIT
 70
     2
  9
$DIMDEC
 70
     2
  9
$DIMTDEC
 70
     4
  9
$DIMALTU
 70
     2
  9
$DIMALTTD
 70
     2
  9
$DIMTXSTY
  7
STANDARD
  9
$DIMAUNIT
 70
     0
  9
$LUNITS
 70
     2
  9
$LUPREC
 70
     4
  9
$SKETCHINC
 40
0.1
  9
$FILLETRAD
 40
0.5
  9
$AUNITS
 70
     0
  9
$AUPREC
 70
     0
  9
$MENU
  1
.
  9
$ELEVATION
 40
0.0
  9
$PELEVATION
 40
0.0
  9
$THICKNESS
 40
0.0
  9
$LIMCHECK
 70
     0
  9
$BLIPMODE
 70
     0
  9
$CHAMFERA
 40
0.5
  9
$CHAMFERB
 40
0.5
  9
$CHAMFERC
 40
1.0
  9
$CHAMFERD
 40
0.0
  9
$SKPOLY
 70
     0
  9
$TDCREATE
 40
2450772.666465926
  9
$TDUPDATE
 40
2460697.465671285
  9
$TDINDWG
 40
0.0011564931
  9
$TDUSRTIMER
 40
0.0011564931
  9
$USRTIMER
 70
     1
  9
$ANGBASE
 50
0.0
  9
$ANGDIR
 70
     0
  9
$PDMODE
 70
     0
  9
$PDSIZE
 40
0.0
  9
$PLINEWID
 40
0.0
  9
$COORDS
 70
     1
  9
$SPLFRAME
 70
     0
  9
$SPLINETYPE
 70
     6
  9
$SPLINESEGS
 70
     8
  9
$ATTDIA
 70
     0
  9
$ATTREQ
 70
     1
  9
$HANDLING
 70
     1
  9
$HANDSEED
  5
2D2
  9
$SURFTAB1
 70
     6
  9
$SURFTAB2
 70
     6
  9
$SURFTYPE
 70
     6
  9
$SURFU
 70
     6
  9
$SURFV
 70
     6
  9
$UCSNAME
  2

  9
$UCSORG
 10
0.0
 20
0.0
 30
0.0
  9
$UCSXDIR
 10
1.0
 20
0.0
 30
0.0
  9
$UCSYDIR
 10
0.0
 20
1.0
 30
0.0
  9
$PUCSNAME
  2

  9
$PUCSORG
 10
0.0
 20
0.0
 30
0.0
  9
$PUCSXDIR
 10
1.0
 20
0.0
 30
0.0
  9
$PUCSYDIR
 10
0.0
 20
1.0
 30
0.0
  9
$USERI1
 70
     0
  9
$USERI2
 70
     0
  9
$USERI3
 70
     0
  9
$USERI4
 70
     0
  9
$USERI5
 70
     0
  9
$USERR1
 40
0.0
  9
$USERR2
 40
0.0
  9
$USERR3
 40
0.0
  9
$USERR4
 40
0.0
  9
$USERR5
 40
0.0
  9
$WORLDVIEW
 70
     1
  9
$SHADEDGE
 70
     3
  9
$SHADEDIF
 70
    70
  9
$TILEMODE
 70
     1
  9
$MAXACTVP
 70
    48
  9
$PINSBASE
 10
0.0
 20
0.0
 30
0.0
  9
$PLIMCHECK
 70
     0
  9
$PEXTMIN
 10
0.0
 20
0.0
 30
0.0
  9
$PEXTMAX
 10
0.0
 20
0.0
 30
0.0
  9
$PLIMMIN
 10
0.0
 20
0.0
  9
$PLIMMAX
 10
12.0
 20
9.0
  9
$UNITMODE
 70
     0
  9
$VISRETAIN
 70
     1
  9
$PLINEGEN
 70
     0
  9
$PSLTSCALE
 70
     1
  9
$TREEDEPTH
 70
  3020
  9
$PICKSTYLE
 70
     1
  9
$CMLSTYLE
  2
STANDARD
  9
$CMLJUST
 70
     0
  9
$CMLSCALE
 40
1.0
  9
$PROXYGRAPHICS
 70
     1
  9
$MEASUREMENT
 70
     0
  0
ENDSEC
  0
SECTION
  2
CLASSES
  0
CLASS
  1
LWPOLYLINE
  2
AcDbPolyline
  3
ObjectDBX Classes
 90
       20
280
     0
281
     1
  0
CLASS
  1
IMAGE
  2
AcDbRasterImage
  3
ISM
 90
       21
280
     0
281
     1
  0
CLASS
  1
OLE2FRAME
  2
AcDbOle2Frame
  3
ObjectDBX Classes
 90
       21
280
     0
281
     1
  0
CLASS
  1
HATCH
  2
AcDbHatch
  3
ObjectDBX Classes
 90
       20
280
     0
281
     1
  0
CLASS
  1
DICTIONARYVAR
  2
AcDbDictionaryVar
  3
ObjectDBX Classes
 90
       20
280
     0
281
     0
  0
CLASS
  1
RASTERVARIABLES
  2
AcDbRasterVariables
  3
ISM
 90
       21
280
     0
281
     0
  0
CLASS
  1
IMAGEDEF
  2
AcDbRasterImageDef
  3
ISM
 90
       21
280
     0
281
     0
  0
CLASS
  1
IMAGEDEF_REACTOR
  2
AcDbRasterImageDefReactor
  3
ISM
 90
       21
280
     0
281
     0
  0
CLASS
  1
IDBUFFER
  2
AcDbIdBuffer
  3
ObjectDBX Classes
 90
       20
280
     0
281
     0
  0
CLASS
  1
SPATIAL_FILTER
  2
AcDbSpatialFilter
  3
ObjectDBX Classes
 90
       20
280
     0
281
     0
  0
CLASS
  1
XRECORD
  2
AcDbXrecord
  3
ObjectDBX Classes
 90
       21
280
     0
281
     0
  0
CLASS
  1
ACDBDICTIONARYWDFLT
  2
AcDbDictionaryWithDefault
  3
ObjectDBX Classes
 90
       22
280
     0
281
     0
  0
CLASS
  1
SCALE
  2
AcDbScale
  3
ObjectDBX Classes
 90
       27
280
     0
281
     0
  0
CLASS
  1
VISUALSTYLE
  2
AcDbVisualStyle
  3
ObjectDBX Classes
 90
       26
280
     0
281
     0
  0
CLASS
  1
MATERIAL
  2
AcDbMaterial
  3
ObjectDBX Classes
 90
       23
280
     0
281
     0
  0
CLASS
  1
TABLESTYLE
  2
AcDbTableStyle
  3
ObjectDBX Classes
 90
       25
280
     0
281
     0
  0
CLASS
  1
MLEADERSTYLE
  2
AcDbMLeaderStyle
  3
ACDB_MLEADERSTYLE_CLASS
 90
       27
280
     0
281
     0
  0
CLASS
  1
SORTENTSTABLE
  2
AcDbSortentsTable
  3
"AutoCAD"
 90
        0
280
     0
281
     0
  0
CLASS
  1
LAYER_INDEX
  2
AcDbLayerIndex
  3
"Acad"
 90
        0
280
     0
281
     0
  0
CLASS
  1
SPATIAL_INDEX
  2
AcDbSpatialIndex
  3
"Acad"
 90
        0
280
     0
281
     0
  0
CLASS
  1
OBJECT_PTR
  2
CAseDLPNTableRecord
  3
"ASE-LPNTableRecord"
 90
        1
280
     0
281
     0
  0
CLASS
  1
LAYOUT
  2
AcDbLayout
  3
"AutoCAD 2000"
 90
        1
280
     0
281
     0
  0
CLASS
  1
PLOTSETTINGS
  2
AcDbPlotsettings
  3
"AutoCAD 2000"
 90
        1
280
     0
281
     0
  0
CLASS
  1
ACDBPLACEHOLDER
  2
AcDbPlaceholder
  3
"AutoCAD 2000"
 90
        1
280
     0
281
     0
  0
CLASS
  1
VBA_PROJECT
  2
AcDbVbaProject
  3
"AutoCAD 2000"
 90
        1
280
     0
281
     0
  0
CLASS
  1
WIPEOUT
  2
AcDbWipeout
  3
"AutoCAD 2000"
 90
        1
280
     0
281
     1
  0
CLASS
  1
WIPEOUTVARIABLES
  2
AcDbWipeoutVariables
  3
"AutoCAD 2000"
 90
        1
280
     0
281
     0
  0
CLASS
  1
RTEXT
  2
RText
  3
RText|AutoCAD Express Tool|expresstools@autodesk.com
 90
        1
280
     0
281
     1
  0
CLASS
  1
ARCALIGNEDTEXT
  2
AcDbArcAlignedText
  3
RText|AutoCAD Express Tool|expresstools@autodesk.com
 90
        1
280
     0
281
     1
  0
ENDSEC
  0
SECTION
  2
TABLES
  0
TABLE
  2
VPORT
  5
8
100
AcDbSymbolTable
 70
     1
  0
VPORT
  5
25
100
AcDbSymbolTableRecord
100
AcDbViewportTableRecord
  2
*ACTIVE
 70
     0
 10
0.0
 20
0.0
 11
1.0
 21
1.0
 12
26.254267
 22
46.3876
 13
0.0
 23
0.0
 14
0.5
 24
0.5
 15
0.5
 25
0.5
 16
0.0
 26
0.0
 36
1.0
 17
0.0
 27
0.0
 37
0.0
 40
92.7752
 41
0.565976
 42
50.0
 43
0.0
 44
0.0
 50
0.0
 51
0.0
 71
     0
 72
   100
 73
     1
 74
     1
 75
     0
 76
     0
 77
     0
 78
     0
  0
ENDTAB
  0
TABLE
  2
LTYPE
  5
5
100
AcDbSymbolTable
 70
     3
  0
LTYPE
  5
12
100
AcDbSymbolTableRecord
100
AcDbLinetypeTableRecord
  2
BYBLOCK
 70
     0
  3

 72
    65
 73
     0
 40
0.0
  0
LTYPE
  5
13
100
AcDbSymbolTableRecord
100
AcDbLinetypeTableRecord
  2
BYLAYER
 70
     0
  3

 72
    65
 73
     0
 40
0.0
  0
LTYPE
  5
14
100
AcDbSymbolTableRecord
100
AcDbLinetypeTableRecord
  2
CONTINUOUS
 70
     0
  3
Solid line
 72
    65
 73
     0
 40
0.0
  0
ENDTAB
  0
TABLE
  2
LAYER
  5
2
100
AcDbSymbolTable
 70
     6
  0
LAYER
  5
E
100
AcDbSymbolTableRecord
100
AcDbLayerTableRecord
  2
0
 70
     0
 62
     7
  6
CONTINUOUS
  0
LAYER
  5
75
100
AcDbSymbolTableRecord
100
AcDbLayerTableRecord
  2
SPACE
 70
     0
 62
     7
  6
CONTINUOUS
  0
LAYER
  5
B0
100
AcDbSymbolTableRecord
100
AcDbLayerTableRecord
  2
BUILDING_ENVELOPE
 70
     0
 62
     7
  6
CONTINUOUS
  0
LAYER
  5
1DA
100
AcDbSymbolTableRecord
100
AcDbLayerTableRecord
  2
LANDING
 70
     0
 62
     7
  6
CONTINUOUS
  0
LAYER
  5
1EE
100
AcDbSymbolTableRecord
100
AcDbLayerTableRecord
  2
STAIR
 70
     0
 62
     7
  6
CONTINUOUS
  0
LAYER
  5
22F
100
AcDbSymbolTableRecord
100
AcDbLayerTableRecord
  2
WALL
 70
     0
 62
     7
  6
CONTINUOUS
  0
ENDTAB
  0
TABLE
  2
STYLE
  5
3
100
AcDbSymbolTable
 70
     1
  0
STYLE
  5
F
100
AcDbSymbolTableRecord
100
AcDbTextStyleTableRecord
  2
STANDARD
 70
     0
 40
0.0
 41
1.0
 50
0.0
 71
     0
 42
0.2
  3
txt.shx
  4

  0
ENDTAB
  0
TABLE
  2
VIEW
  5
6
100
AcDbSymbolTable
 70
     0
  0
ENDTAB
  0
TABLE
  2
UCS
  5
7
100
AcDbSymbolTable
 70
     0
  0
ENDTAB
  0
TABLE
  2
APPID
  5
9
100
AcDbSymbolTable
 70
     1
  0
APPID
  5
10
100
AcDbSymbolTableRecord
100
AcDbRegAppTableRecord
  2
ACAD
 70
     0
  0
ENDTAB
  0
TABLE
  2
DIMSTYLE
  5
A
100
AcDbSymbolTable
 70
     1
  0
DIMSTYLE
105
1D
100
AcDbSymbolTableRecord
100
AcDbDimStyleTableRecord
  2
STANDARD
 70
     0
  3

  4

  5

  6

  7

 40
1.0
 41
0.18
 42
0.0625
 43
0.38
 44
0.18
 45
0.0
 46
0.0
 47
0.0
 48
0.0
 71
     0
 72
     0
 73
     1
 74
     1
 75
     0
 76
     0
 77
     0
 78
     0
140
0.18
141
0.09
142
0.0
143
25.4
144
1.0
145
0.0
146
1.0
147
0.09
170
     0
171
     2
172
     0
173
     0
174
     0
175
     0
176
     0
177
     0
178
     0
270
     2
271
     4
272
     4
273
     2
274
     2
275
     0
280
     0
281
     0
282
     0
283
     1
284
     0
285
     0
286
     0
287
     3
288
     0
340
F
  0
ENDTAB
  0
TABLE
  2
BLOCK_RECORD
  5
1
100
AcDbSymbolTable
 70
     8
  0
BLOCK_RECORD
  5
18
100
AcDbSymbolTableRecord
100
AcDbBlockTableRecord
  2
*MODEL_SPACE
  0
BLOCK_RECORD
  5
15
100
AcDbSymbolTableRecord
100
AcDbBlockTableRecord
  2
*PAPER_SPACE
  0
BLOCK_RECORD
  5
212
100
AcDbSymbolTableRecord
100
AcDbBlockTableRecord
  2
NONE_
  0
BLOCK_RECORD
  5
215
100
AcDbSymbolTableRecord
100
AcDbBlockTableRecord
  2
WALL
  0
BLOCK_RECORD
  5
21C
100
AcDbSymbolTableRecord
100
AcDbBlockTableRecord
  2
SPACE
  0
BLOCK_RECORD
  5
234
100
AcDbSymbolTableRecord
100
AcDbBlockTableRecord
  2
CORNER_LANDING
  0
BLOCK_RECORD
  5
23A
100
AcDbSymbolTableRecord
100
AcDbBlockTableRecord
  2
STRAIGHT_STAIRCASE
  0
BLOCK_RECORD
  5
261
100
AcDbSymbolTableRecord
100
AcDbBlockTableRecord
  2
DOOR
  0
BLOCK_RECORD
  5
279
100
AcDbSymbolTableRecord
100
AcDbBlockTableRecord
  2
DOUBLE
  0
BLOCK_RECORD
  5
2AA
100
AcDbSymbolTableRecord
100
AcDbBlockTableRecord
  2
WINDOW
  0
ENDTAB
  0
ENDSEC
  0
SECTION
  2
BLOCKS
  0
BLOCK
  5
19
100
AcDbEntity
  8
0
100
AcDbBlockBegin
  2
*MODEL_SPACE
 70
     0
 10
0.0
 20
0.0
 30
0.0
  3
*MODEL_SPACE
  1

  0
ENDBLK
  5
1A
100
AcDbEntity
  8
0
100
AcDbBlockEnd
  0
BLOCK
  5
16
100
AcDbEntity
 67
     1
  8
0
100
AcDbBlockBegin
  2
*PAPER_SPACE
 70
     0
 10
0.0
 20
0.0
 30
0.0
  3
*PAPER_SPACE
  1

  0
ENDBLK
  5
17
100
AcDbEntity
 67
     1
  8
0
100
AcDbBlockEnd
  0
BLOCK
  5
213
100
AcDbEntity
  8
0
100
AcDbBlockBegin
  2
NONE_
 70
     2
 10
0.0
 20
0.0
 30
0.0
  3
NONE_
  1

  0
ENDBLK
  5
214
100
AcDbEntity
  8
0
100
AcDbBlockEnd
  0
BLOCK
  5
216
100
AcDbEntity
  8
0
100
AcDbBlockBegin
  2
WALL
 70
     0
 10
0.0
 20
0.0
 30
0.0
  3
WALL
  1

  0
LWPOLYLINE
  5
217
102
{ACAD_REACTORS
330
218
102
}
100
AcDbEntity
  8
BUILDING_ENVELOPE
  6
CONTINUOUS
 62
     7
100
AcDbPolyline
 90
        6
 70
     1
 10
1.0
 20
5.333333
 10
9.0
 20
5.333333
 10
9.0
 20
5.166667
 10
9.0
 20
5.0
 10
1.0
 20
5.0
 10
1.0
 20
5.166667
  0
HATCH
  5
218
100
AcDbEntity
  8
BUILDING_ENVELOPE
 62
   253
100
AcDbHatch
 10
0.0
 20
0.0
 30
0.0
210
0.0
220
0.0
230
1.0
  2
SOLID
 70
     1
 71
     1
 91
        1
 92
        3
 72
     0
 73
     1
 93
        6
 10
1.0
 20
5.333333333333333
 10
9.0
 20
5.333333333333333
 10
9.0
 20
5.1666666666666661
 10
9.0
 20
5.0
 10
1.0
 20
5.0
 10
1.0
 20
5.1666666666666661
 97
       14
330
202
330
203
330
204
330
205
330
206
330
207
330
208
330
209
330
20A
330
20B
330
20C
330
20D
330
20E
330
217
 75
     0
 76
     1
 98
        0
  0
LWPOLYLINE
  5
219
100
AcDbEntity
  8
BUILDING_ENVELOPE
  6
CONTINUOUS
 62
     7
100
AcDbPolyline
 90
        4
 70
     0
 10
1.0
 20
5.166667
 10
1.0
 20
5.333333
 10
9.0
 20
5.333333
 10
9.0
 20
5.166667
  0
LWPOLYLINE
  5
21A
100
AcDbEntity
  8
BUILDING_ENVELOPE
  6
CONTINUOUS
 62
     7
100
AcDbPolyline
 90
        4
 70
     0
 10
1.0
 20
5.166667
 10
1.0
 20
5.0
 10
9.0
 20
5.0
 10
9.0
 20
5.166667
  0
ENDBLK
  5
21B
100
AcDbEntity
  8
0
100
AcDbBlockEnd
  0
BLOCK
  5
21D
100
AcDbEntity
  8
0
100
AcDbBlockBegin
  2
SPACE
 70
     2
 10
0.0
 20
0.0
 30
0.0
  3
SPACE
  1

  0
ATTDEF
  5
21E
100
AcDbEntity
  8
0
100
AcDbText
 10
5.0
 20
5.0
 30
0.0
 40
0.2
  1

100
AcDbAttributeDefinition
  3
Name
  2
NAME
 70
     0
  0
ATTDEF
  5
21F
100
AcDbEntity
  8
0
100
AcDbText
 10
5.0
 20
5.0
 30
0.0
 40
0.2
  1

100
AcDbAttributeDefinition
  3
Space ID
  2
LOCATIONID
 70
     0
  0
ATTDEF
  5
220
100
AcDbEntity
  8
0
100
AcDbText
 10
5.0
 20
5.0
 30
0.0
 40
0.2
  1

100
AcDbAttributeDefinition
  3
Department
  2
DEPARTMENT
 70
     0
  0
ATTDEF
  5
221
100
AcDbEntity
  8
0
100
AcDbText
 10
5.0
 20
5.0
 30
0.0
 40
0.2
  1
Office
100
AcDbAttributeDefinition
  3
Space use
  2
USE
 70
     0
  0
ATTDEF
  5
222
100
AcDbEntity
  8
0
100
AcDbText
 10
5.0
 20
5.0
 30
0.0
 40
0.2
  1

100
AcDbAttributeDefinition
  3
Phone number
  2
PHONENUMBER
 70
     0
  0
ATTDEF
  5
223
100
AcDbEntity
  8
0
100
AcDbText
 10
5.0
 20
5.0
 30
0.0
 40
0.2
  1
0
100
AcDbAttributeDefinition
  3
Occupancy
  2
OCCUPANTCOUNT
 70
     0
  0
ATTDEF
  5
224
100
AcDbEntity
  8
0
100
AcDbText
 10
5.0
 20
5.0
 30
0.0
 40
0.2
  1
0
100
AcDbAttributeDefinition
  3
Capacity
  2
OCCUPANTCAPACITY
 70
     0
  0
ATTDEF
  5
225
100
AcDbEntity
  8
0
100
AcDbText
 10
5.0
 20
5.0
 30
0.0
 40
0.2
  1

100
AcDbAttributeDefinition
  3
ID
  2
ID
 70
     0
  0
ATTDEF
  5
226
100
AcDbEntity
  8
0
100
AcDbText
 10
5.0
 20
5.0
 30
0.0
 40
0.2
  1

100
AcDbAttributeDefinition
  3
Belongs to
  2
BELONGSTO
 70
     0
  0
ATTDEF
  5
227
100
AcDbEntity
  8
0
100
AcDbText
 10
5.0
 20
5.0
 30
0.0
 40
0.2
  1

100
AcDbAttributeDefinition
  3
Modified
  2
MODIFY
 70
     0
  0
ATTDEF
  5
228
100
AcDbEntity
  8
0
100
AcDbText
 10
5.0
 20
5.0
 30
0.0
 40
0.2
  1
Location
100
AcDbAttributeDefinition
  3
Shape class
  2
SHAPECLASS
 70
     0
  0
ATTDEF
  5
229
100
AcDbEntity
  8
0
100
AcDbText
 10
5.0
 20
5.0
 30
0.0
 40
0.2
  1
Space
100
AcDbAttributeDefinition
  3
Shape type
  2
SHAPETYPE
 70
     0
  0
ATTDEF
  5
22A
100
AcDbEntity
  8
0
100
AcDbText
 10
5.0
 20
5.0
 30
0.0
 40
0.2
  1

100
AcDbAttributeDefinition
  3
Subshape type
  2
SUBSHAPETYPE
 70
     0
  0
ATTDEF
  5
22B
100
AcDbEntity
  8
0
100
AcDbText
 10
5.0
 20
5.0
 30
0.0
 40
0.2
  1
0
100
AcDbAttributeDefinition
  3
Space height
  2
SPACEHEIGHT
 70
     0
  0
ATTDEF
  5
22C
100
AcDbEntity
  8
0
100
AcDbText
 10
5.0
 20
5.0
 30
0.0
 40
0.2
  1
0
100
AcDbAttributeDefinition
  3
Zones
  2
ZONES
 70
     0
  0
ATTDEF
  5
22D
100
AcDbEntity
  8
0
100
AcDbText
 10
5.0
 20
5.0
 30
0.0
 40
0.2
  1
100FT^ 2
100
AcDbAttributeDefinition
  3
Calculated area
  2
VISAREA
 70
     0
  0
ATTDEF
  5
22E
100
AcDbEntity
  8
0
100
AcDbText
 10
5.0
 20
5.0
 30
0.0
 40
0.2
  1
0
100
AcDbAttributeDefinition
  3
Base elevation
  2
BASEELEVATION
 70
     0
  0
LWPOLYLINE
  5
230
102
{ACAD_REACTORS
330
231
102
}
100
AcDbEntity
  8
WALL
  6
CONTINUOUS
100
AcDbPolyline
 90
        4
 70
     1
 10
0.0
 20
0.0
 10
10.0
 20
0.0
 10
10.0
 20
10.0
 10
0.0
 20
10.0
  0
HATCH
  5
231
100
AcDbEntity
  8
WALL
 62
    94
100
AcDbHatch
 10
0.0
 20
0.0
 30
0.0
210
0.0
220
0.0
230
1.0
  2
ANSI31
 70
     0
 71
     1
 91
        1
 92
        2
 72
     0
 73
     1
 93
        4
 10
0.0
 20
0.0
 10
10.0
 20
0.0
 10
10.0
 20
10.0
 10
0.0
 20
10.0
 97
        1
330
230
 75
     0
 76
     1
 52
0.0
 41
0.083333
 77
     0
 78
     1
 53
45.0
 43
0.0
 44
0.0
 45
-0.0073333333333333
 46
0.0073333333333333
 79
     0
 98
        0
  0
MTEXT
  5
232
100
AcDbEntity
  8
WALL
100
AcDbMText
 10
5.0
 20
4.948732
 30
0.0
 40
0.500004
 41
4.420539
 71
     5
 72
     5
  1
\C7;\fCalibri|b0|i0|;\H0.50000381469727;Office\P\P\P
  0
ENDBLK
  5
233
100
AcDbEntity
  8
0
100
AcDbBlockEnd
  0
BLOCK
  5
235
100
AcDbEntity
  8
0
100
AcDbBlockBegin
  2
CORNER_LANDING
 70
     0
 10
0.0
 20
0.0
 30
0.0
  3
CORNER_LANDING
  1

  0
LWPOLYLINE
  5
236
100
AcDbEntity
  8
WALL
  6
CONTINUOUS
 62
     7
100
AcDbPolyline
 90
        4
 70
     1
 10
-1.332899
 20
-1.321759
 10
1.660475
 20
-1.321759
 10
1.660475
 20
1.671615
 10
-1.332899
 20
1.671615
  0
LINE
  5
237
100
AcDbEntity
  8
WALL
  6
CONTINUOUS
 62
     9
100
AcDbLine
 10
-1.332899
 20
-1.321759
 30
0.0
 11
0.156724
 21
1.671615
 31
0.0
  0
LINE
  5
238
100
AcDbEntity
  8
WALL
  6
CONTINUOUS
 62
     9
100
AcDbLine
 10
-1.332899
 20
-1.321759
 30
0.0
 11
1.660475
 21
0.169061
 31
0.0
  0
ENDBLK
  5
239
100
AcDbEntity
  8
0
100
AcDbBlockEnd
  0
BLOCK
  5
23B
100
AcDbEntity
  8
0
100
AcDbBlockBegin
  2
STRAIGHT_STAIRCASE
 70
     0
 10
0.0
 20
0.0
 30
0.0
  3
STRAIGHT_STAIRCASE
  1

  0
LWPOLYLINE
  5
23C
100
AcDbEntity
  8
BUILDING_ENVELOPE
  6
CONTINUOUS
 62
     9
100
AcDbPolyline
 90
        4
 70
     1
 10
-3.501199
 20
1.758333
 10
-2.630829
 20
1.758333
 10
-2.630829
 20
-1.241667
 10
-3.501199
 20
-1.241667
  0
LWPOLYLINE
  5
23D
100
AcDbEntity
  8
BUILDING_ENVELOPE
  6
CONTINUOUS
 62
     9
100
AcDbPolyline
 90
        4
 70
     1
 10
-2.630829
 20
1.758333
 10
-1.760459
 20
1.758333
 10
-1.760459
 20
-1.241667
 10
-2.630829
 20
-1.241667
  0
LWPOLYLINE
  5
23E
100
AcDbEntity
  8
BUILDING_ENVELOPE
  6
CONTINUOUS
 62
     9
100
AcDbPolyline
 90
        4
 70
     1
 10
-1.760459
 20
1.758333
 10
-0.890088
 20
1.758333
 10
-0.890088
 20
-1.241667
 10
-1.760459
 20
-1.241667
  0
LWPOLYLINE
  5
23F
100
AcDbEntity
  8
BUILDING_ENVELOPE
  6
CONTINUOUS
 62
     9
100
AcDbPolyline
 90
        4
 70
     1
 10
-0.890088
 20
1.758333
 10
-0.019718
 20
1.758333
 10
-0.019718
 20
-1.241667
 10
-0.890088
 20
-1.241667
  0
LWPOLYLINE
  5
240
100
AcDbEntity
  8
BUILDING_ENVELOPE
  6
CONTINUOUS
 62
     9
100
AcDbPolyline
 90
        4
 70
     1
 10
-0.019718
 20
1.758333
 10
0.850653
 20
1.758333
 10
0.850653
 20
-1.241667
 10
-0.019718
 20
-1.241667
  0
LWPOLYLINE
  5
241
100
AcDbEntity
  8
BUILDING_ENVELOPE
  6
CONTINUOUS
 62
     9
100
AcDbPolyline
 90
        4
 70
     1
 10
0.850653
 20
1.758333
 10
1.721023
 20
1.758333
 10
1.721023
 20
-1.241667
 10
0.850653
 20
-1.241667
  0
LWPOLYLINE
  5
242
100
AcDbEntity
  8
BUILDING_ENVELOPE
  6
CONTINUOUS
 62
     9
100
AcDbPolyline
 90
        4
 70
     1
 10
1.721023
 20
1.758333
 10
2.591393
 20
1.758333
 10
2.591393
 20
-1.241667
 10
1.721023
 20
-1.241667
  0
LWPOLYLINE
  5
243
100
AcDbEntity
  8
BUILDING_ENVELOPE
  6
CONTINUOUS
 62
     9
100
AcDbPolyline
 90
        4
 70
     1
 10
2.591393
 20
1.758333
 10
3.461764
 20
1.758333
 10
3.461764
 20
-1.241667
 10
2.591393
 20
-1.241667
  0
LWPOLYLINE
  5
244
100
AcDbEntity
  8
BUILDING_ENVELOPE
  6
CONTINUOUS
 62
     9
100
AcDbPolyline
 90
        4
 70
     1
 10
3.461764
 20
1.758333
 10
4.332134
 20
1.758333
 10
4.332134
 20
-1.241667
 10
3.461764
 20
-1.241667
  0
MTEXT
  5
245
100
AcDbEntity
  8
BUILDING_ENVELOPE
100
AcDbMText
 10
-3.877833
 20
0.258333
 30
0.0
 40
0.333332
 41
0.753267
 71
     5
 72
     5
  1
\C7;\fCalibri|b0|i0|;\H0.33333206176758;UP
  0
CIRCLE
  5
246
102
{ACAD_REACTORS
330
247
102
}
100
AcDbEntity
  8
WALL
  6
CONTINUOUS
 62
     7
100
AcDbCircle
 10
-3.501199
 20
0.258333
 30
0.0
 40
0.086804
  0
HATCH
  5
247
100
AcDbEntity
  8
WALL
 62
     7
100
AcDbHatch
 10
0.0
 20
0.0
 30
0.0
210
0.0
220
0.0
230
1.0
  2
SOLID
 70
     1
 71
     1
 91
        1
 92
        1
 93
        1
 72
     2
 10
-3.5011993055309873
 20
0.2583333333333307
 40
0.0868041666666667
 50
0.0
 51
360.0
 73
     1
 97
        1
330
246
 75
     0
 76
     1
 98
        0
  0
LINE
  5
248
100
AcDbEntity
  8
WALL
  6
CONTINUOUS
 62
     7
100
AcDbLine
 10
-3.501199
 20
0.258333
 30
0.0
 11
-1.192999
 21
0.258333
 31
0.0
  0
LWPOLYLINE
  5
249
102
{ACAD_REACTORS
330
24A
102
}
100
AcDbEntity
  8
WALL
  6
CONTINUOUS
 62
     7
100
AcDbPolyline
 90
        3
 70
     1
 10
-1.405912
 20
0.130858
 10
-1.405912
 20
0.385808
 10
-0.980087
 20
0.255599
  0
HATCH
  5
24A
100
AcDbEntity
  8
WALL
 62
     7
100
AcDbHatch
 10
0.0
 20
0.0
 30
0.0
210
0.0
220
0.0
230
1.0
  2
SOLID
 70
     1
 71
     1
 91
        1
 92
        3
 72
     0
 73
     1
 93
        3
 10
-1.4059118055309874
 20
0.1308583333333307
 10
-1.4059118055309874
 20
0.3858083333333307
 10
-0.9800868055309874
 20
0.2555989359891018
 97
        1
330
249
 75
     0
 76
     1
 98
        0
  0
LINE
  5
24B
102
{ACAD_REACTORS
330
250
102
}
100
AcDbEntity
  8
BUILDING_ENVELOPE
  6
CONTINUOUS
 62
     7
100
AcDbLine
 10
0.415467
 20
-1.058333
 30
0.0
 11
4.526181
 21
-1.058333
 31
0.0
  0
ARC
  5
24C
102
{ACAD_REACTORS
330
250
102
}
100
AcDbEntity
  8
BUILDING_ENVELOPE
  6
CONTINUOUS
 62
     7
100
AcDbCircle
 10
4.29196
 20
-1.404611
 30
0.0
 40
0.418052
100
AcDbArc
 50
357.204441
 51
55.925661
  0
LINE
  5
24D
102
{ACAD_REACTORS
330
250
102
}
100
AcDbEntity
  8
BUILDING_ENVELOPE
  6
CONTINUOUS
 62
     7
100
AcDbLine
 10
4.709514
 20
-1.425
 30
0.0
 11
4.892848
 21
-1.425
 31
0.0
  0
ARC
  5
24E
102
{ACAD_REACTORS
330
250
102
}
100
AcDbEntity
  8
BUILDING_ENVELOPE
  6
CONTINUOUS
 62
     7
100
AcDbCircle
 10
4.331043
 20
-1.402314
 30
0.0
 40
0.562262
100
AcDbArc
 50
357.687613
 51
69.692522
  0
LINE
  5
24F
102
{ACAD_REACTORS
330
250
102
}
100
AcDbEntity
  8
BUILDING_ENVELOPE
  6
CONTINUOUS
 62
     7
100
AcDbLine
 10
4.526181
 20
-0.875
 30
0.0
 11
0.415467
 21
-0.875
 31
0.0
  0
HATCH
  5
250
100
AcDbEntity
  8
BUILDING_ENVELOPE
 62
   254
100
AcDbHatch
 10
0.0
 20
0.0
 30
0.0
210
0.0
220
0.0
230
1.0
  2
SOLID
 70
     1
 71
     1
 91
        4
 92
        1
 93
        6
 72
     1
 10
0.4154673611356792
 20
-1.0583333333333358
 11
4.5261810369690121
 21
-1.0583333333333358
 72
     2
 10
4.2919598054193502
 20
-1.4046106157748337
 40
0.4180520800614547
 50
357.204441
 51
55.925661
 73
     1
 72
     1
 10
4.7095143703023448
 20
-1.4250000000000025
 11
4.8928477036356783
 21
-1.4250000000000025
 72
     2
 10
4.3310434353510541
 20
-1.4023139566341953
 40
0.5622621207465568
 50
357.687613
 51
69.692522
 73
     1
 72
     1
 10
4.5261810369690121
 20
-0.8750000000000029
 11
0.4154673611356792
 21
-0.8750000000000024
 72
     1
 10
0.4154673611356792
 20
-0.8750000000000024
 11
0.4154673611356792
 21
-1.0583333333333358
 97
        5
330
24B
330
24C
330
24D
330
24E
330
24F
 92
        1
 93
        6
 72
     1
 10
0.4154673611356792
 20
1.5749999999999971
 11
4.5261810369690121
 21
1.5749999999999971
 72
     2
 10
4.5261840383023308
 20
1.7583303320000119
 40
0.1833303320245822
 50
269.999062
 51
0.000938
 73
     1
 72
     1
 10
4.7095143703023457
 20
1.7583333333333306
 11
4.8928477036356783
 21
1.7583333333333306
 72
     2
 10
4.5261870396356496
 20
1.7583273306666913
 40
0.3666606640491629
 50
269.999062
 51
0.000938
 73
     1
 72
     1
 10
4.5261810369690121
 20
1.3916666666666639
 11
0.4154673611356792
 21
1.3916666666666642
 72
     1
 10
0.4154673611356792
 20
1.3916666666666642
 11
0.4154673611356792
 21
1.5749999999999971
 97
        5
330
251
330
252
330
253
330
254
330
255
 92
        1
 93
        6
 72
     1
 10
-4.6678659721976539
 20
-1.2416666666666691
 11
-4.4845326388643203
 21
-1.2416666666666691
 72
     2
 10
-4.3012023068643064
 20
-1.2416636653333502
 40
0.1833303320245819
 50
89.999062
 51
180.000938
 73
     1
 72
     1
 10
-4.3011993055309841
 20
-1.0583333333333358
 11
0.4154673611356792
 21
-1.0583333333333358
 72
     1
 10
0.4154673611356792
 20
-1.0583333333333358
 11
0.4154673611356792
 21
-0.8750000000000024
 72
     1
 10
0.4154673611356792
 20
-0.8750000000000024
 11
-4.3011993055309876
 21
-0.8750000000000024
 72
     2
 10
-4.3012053081976251
 20
-1.2416606640000305
 40
0.3666606640491635
 50
89.999062
 51
180.000938
 73
     1
 97
        5
330
256
330
257
330
258
330
259
330
25A
 92
        1
 93
        6
 72
     1
 10
-4.7511993055309869
 20
1.7583333333333306
 11
-4.5678659721976533
 21
1.7583333333333306
 72
     2
 10
-4.3845356401976394
 20
1.7583303320000114
 40
0.183330332024582
 50
179.999062
 51
270.000938
 73
     1
 72
     1
 10
-4.384532638864318
 20
1.5749999999999971
 11
0.4154673611356792
 21
1.5749999999999971
 72
     1
 10
0.4154673611356792
 20
1.5749999999999971
 11
0.4154673611356792
 21
1.3916666666666642
 72
     1
 10
0.4154673611356792
 20
1.3916666666666642
 11
-4.3845326388643207
 21
1.3916666666666642
 72
     2
 10
-4.3845386415309591
 20
1.758327330666692
 40
0.3666606640491635
 50
179.999062
 51
270.000938
 73
     1
 97
        5
330
25B
330
25C
330
25D
330
25E
330
25F
 75
     0
 76
     1
 98
        0
  0
LINE
  5
251
102
{ACAD_REACTORS
330
250
102
}
100
AcDbEntity
  8
BUILDING_ENVELOPE
  6
CONTINUOUS
 62
     7
100
AcDbLine
 10
0.415467
 20
1.575
 30
0.0
 11
4.526181
 21
1.575
 31
0.0
  0
ARC
  5
252
102
{ACAD_REACTORS
330
250
102
}
100
AcDbEntity
  8
BUILDING_ENVELOPE
  6
CONTINUOUS
 62
     7
100
AcDbCircle
 10
4.526184
 20
1.75833
 30
0.0
 40
0.18333
100
AcDbArc
 50
269.999062
 51
0.0
  0
LINE
  5
253
102
{ACAD_REACTORS
330
250
102
}
100
AcDbEntity
  8
BUILDING_ENVELOPE
  6
CONTINUOUS
 62
     7
100
AcDbLine
 10
4.709514
 20
1.758333
 30
0.0
 11
4.892848
 21
1.758333
 31
0.0
  0
ARC
  5
254
102
{ACAD_REACTORS
330
250
102
}
100
AcDbEntity
  8
BUILDING_ENVELOPE
  6
CONTINUOUS
 62
     7
100
AcDbCircle
 10
4.526187
 20
1.758327
 30
0.0
 40
0.366661
100
AcDbArc
 50
269.999062
 51
0.0
  0
LINE
  5
255
102
{ACAD_REACTORS
330
250
102
}
100
AcDbEntity
  8
BUILDING_ENVELOPE
  6
CONTINUOUS
 62
     7
100
AcDbLine
 10
4.526181
 20
1.391667
 30
0.0
 11
0.415467
 21
1.391667
 31
0.0
  0
LINE
  5
256
102
{ACAD_REACTORS
330
250
102
}
100
AcDbEntity
  8
BUILDING_ENVELOPE
  6
CONTINUOUS
 62
     7
100
AcDbLine
 10
-4.667866
 20
-1.241667
 30
0.0
 11
-4.484533
 21
-1.241667
 31
0.0
  0
ARC
  5
257
102
{ACAD_REACTORS
330
250
102
}
100
AcDbEntity
  8
BUILDING_ENVELOPE
  6
CONTINUOUS
 62
     7
100
AcDbCircle
 10
-4.301202
 20
-1.241664
 30
0.0
 40
0.18333
100
AcDbArc
 50
89.999062
 51
180.000938
  0
LINE
  5
258
102
{ACAD_REACTORS
330
250
102
}
100
AcDbEntity
  8
BUILDING_ENVELOPE
  6
CONTINUOUS
 62
     7
100
AcDbLine
 10
-4.301199
 20
-1.058333
 30
0.0
 11
0.415467
 21
-1.058333
 31
0.0
  0
LINE
  5
259
102
{ACAD_REACTORS
330
250
102
}
100
AcDbEntity
  8
BUILDING_ENVELOPE
  6
CONTINUOUS
 62
     7
100
AcDbLine
 10
0.415467
 20
-0.875
 30
0.0
 11
-4.301199
 21
-0.875
 31
0.0
  0
ARC
  5
25A
102
{ACAD_REACTORS
330
250
102
}
100
AcDbEntity
  8
BUILDING_ENVELOPE
  6
CONTINUOUS
 62
     7
100
AcDbCircle
 10
-4.301205
 20
-1.241661
 30
0.0
 40
0.366661
100
AcDbArc
 50
89.999062
 51
180.000938
  0
LINE
  5
25B
102
{ACAD_REACTORS
330
250
102
}
100
AcDbEntity
  8
BUILDING_ENVELOPE
  6
CONTINUOUS
 62
     7
100
AcDbLine
 10
-4.751199
 20
1.758333
 30
0.0
 11
-4.567866
 21
1.758333
 31
0.0
  0
ARC
  5
25C
102
{ACAD_REACTORS
330
250
102
}
100
AcDbEntity
  8
BUILDING_ENVELOPE
  6
CONTINUOUS
 62
     7
100
AcDbCircle
 10
-4.384536
 20
1.75833
 30
0.0
 40
0.18333
100
AcDbArc
 50
179.999062
 51
270.000938
  0
LINE
  5
25D
102
{ACAD_REACTORS
330
250
102
}
100
AcDbEntity
  8
BUILDING_ENVELOPE
  6
CONTINUOUS
 62
     7
100
AcDbLine
 10
-4.384533
 20
1.575
 30
0.0
 11
0.415467
 21
1.575
 31
0.0
  0
LINE
  5
25E
102
{ACAD_REACTORS
330
250
102
}
100
AcDbEntity
  8
BUILDING_ENVELOPE
  6
CONTINUOUS
 62
     7
100
AcDbLine
 10
0.415467
 20
1.391667
 30
0.0
 11
-4.384533
 21
1.391667
 31
0.0
  0
ARC
  5
25F
102
{ACAD_REACTORS
330
250
102
}
100
AcDbEntity
  8
BUILDING_ENVELOPE
  6
CONTINUOUS
 62
     7
100
AcDbCircle
 10
-4.384539
 20
1.758327
 30
0.0
 40
0.366661
100
AcDbArc
 50
179.999062
 51
270.000938
  0
ENDBLK
  5
260
100
AcDbEntity
  8
0
100
AcDbBlockEnd
  0
BLOCK
  5
262
100
AcDbEntity
  8
0
100
AcDbBlockBegin
  2
DOOR
 70
     0
 10
0.0
 20
0.0
 30
0.0
  3
DOOR
  1

  0
LWPOLYLINE
  5
263
100
AcDbEntity
  8
BUILDING_ENVELOPE
  6
CONTINUOUS
 62
     7
100
AcDbPolyline
 90
        4
 70
     1
 10
3.583333
 20
4.734
 10
6.416667
 20
4.734
 10
6.416667
 20
5.266
 10
3.583333
 20
5.266
  0
LINE
  5
264
100
AcDbEntity
  8
BUILDING_ENVELOPE
  6
CONTINUOUS
 62
     7
100
AcDbLine
 10
6.416667
 20
4.75
 30
0.0
 11
6.416667
 21
5.25
 31
0.0
  0
LINE
  5
265
100
AcDbEntity
  8
BUILDING_ENVELOPE
  6
CONTINUOUS
 62
     7
100
AcDbLine
 10
6.416667
 20
5.25
 30
0.0
 11
6.25
 21
5.25
 31
0.0
  0
LINE
  5
266
100
AcDbEntity
  8
BUILDING_ENVELOPE
  6
CONTINUOUS
 62
     7
100
AcDbLine
 10
6.25
 20
5.25
 30
0.0
 11
6.25
 21
5.083333
 31
0.0
  0
LINE
  5
267
100
AcDbEntity
  8
BUILDING_ENVELOPE
  6
CONTINUOUS
 62
     7
100
AcDbLine
 10
6.25
 20
4.958333
 30
0.0
 11
6.25
 21
4.75
 31
0.0
  0
LINE
  5
268
100
AcDbEntity
  8
BUILDING_ENVELOPE
  6
CONTINUOUS
 62
     7
100
AcDbLine
 10
6.25
 20
4.75
 30
0.0
 11
6.416667
 21
4.75
 31
0.0
  0
LINE
  5
269
100
AcDbEntity
  8
BUILDING_ENVELOPE
  6
CONTINUOUS
 62
     7
100
AcDbLine
 10
3.583333
 20
4.75
 30
0.0
 11
3.583333
 21
5.25
 31
0.0
  0
LINE
  5
26A
100
AcDbEntity
  8
BUILDING_ENVELOPE
  6
CONTINUOUS
 62
     7
100
AcDbLine
 10
3.583333
 20
5.25
 30
0.0
 11
3.75
 21
5.25
 31
0.0
  0
LINE
  5
26B
100
AcDbEntity
  8
BUILDING_ENVELOPE
  6
CONTINUOUS
 62
     7
100
AcDbLine
 10
3.75
 20
5.25
 30
0.0
 11
3.75
 21
5.083333
 31
0.0
  0
LINE
  5
26C
100
AcDbEntity
  8
BUILDING_ENVELOPE
  6
CONTINUOUS
 62
     7
100
AcDbLine
 10
3.75
 20
4.958333
 30
0.0
 11
3.75
 21
4.75
 31
0.0
  0
LINE
  5
26D
100
AcDbEntity
  8
BUILDING_ENVELOPE
  6
CONTINUOUS
 62
     7
100
AcDbLine
 10
3.75
 20
4.75
 30
0.0
 11
3.583333
 21
4.75
 31
0.0
  0
LINE
  5
26E
100
AcDbEntity
  8
BUILDING_ENVELOPE
  6
CONTINUOUS
 62
     7
100
AcDbLine
 10
6.25
 20
5.083333
 30
0.0
 11
6.208333
 21
5.083333
 31
0.0
  0
LINE
  5
26F
100
AcDbEntity
  8
BUILDING_ENVELOPE
  6
CONTINUOUS
 62
     7
100
AcDbLine
 10
6.208333
 20
5.083333
 30
0.0
 11
6.208333
 21
4.958333
 31
0.0
  0
LINE
  5
270
100
AcDbEntity
  8
BUILDING_ENVELOPE
  6
CONTINUOUS
 62
     7
100
AcDbLine
 10
6.208333
 20
4.958333
 30
0.0
 11
6.25
 21
4.958333
 31
0.0
  0
LINE
  5
271
100
AcDbEntity
  8
BUILDING_ENVELOPE
  6
CONTINUOUS
 62
     7
100
AcDbLine
 10
3.75
 20
5.083333
 30
0.0
 11
3.791667
 21
5.083333
 31
0.0
  0
LINE
  5
272
100
AcDbEntity
  8
BUILDING_ENVELOPE
  6
CONTINUOUS
 62
     7
100
AcDbLine
 10
3.791667
 20
5.083333
 30
0.0
 11
3.791667
 21
4.958333
 31
0.0
  0
LINE
  5
273
100
AcDbEntity
  8
BUILDING_ENVELOPE
  6
CONTINUOUS
 62
     7
100
AcDbLine
 10
3.791667
 20
4.958333
 30
0.0
 11
3.75
 21
4.958333
 31
0.0
  0
LINE
  5
274
100
AcDbEntity
  8
BUILDING_ENVELOPE
  6
CONTINUOUS
 62
     7
100
AcDbLine
 10
6.416667
 20
4.75
 30
0.0
 11
6.416667
 21
5.25
 31
0.0
  0
LINE
  5
275
100
AcDbEntity
  8
BUILDING_ENVELOPE
  6
CONTINUOUS
 62
     7
100
AcDbLine
 10
3.583333
 20
4.75
 30
0.0
 11
3.583333
 21
5.25
 31
0.0
  0
ARC
  5
276
100
AcDbEntity
  8
BUILDING_ENVELOPE
  6
CONTINUOUS
 62
     7
100
AcDbCircle
 10
6.25
 20
5.25
 30
0.0
 40
2.5
100
AcDbArc
 50
90.0
 51
180.0
  0
LWPOLYLINE
  5
277
100
AcDbEntity
  8
BUILDING_ENVELOPE
  6
CONTINUOUS
 62
     7
100
AcDbPolyline
 90
        4
 70
     1
 10
6.083333
 20
7.75
 10
6.083333
 20
5.25
 10
6.25
 20
5.25
 10
6.25
 20
7.75
  0
ENDBLK
  5
278
100
AcDbEntity
  8
0
100
AcDbBlockEnd
  0
BLOCK
  5
27A
100
AcDbEntity
  8
0
100
AcDbBlockBegin
  2
DOUBLE
 70
     2
 10
0.0
 20
0.0
 30
0.0
  3
DOUBLE
  1

  0
ATTDEF
  5
27B
100
AcDbEntity
  8
0
100
AcDbText
 10
5.0
 20
5.0
 30
0.0
 40
0.2
  1
80
100
AcDbAttributeDefinition
  3
Door height
  2
VISDOORHEIGHT
 70
     0
  0
ATTDEF
  5
27C
100
AcDbEntity
  8
0
100
AcDbText
 10
5.0
 20
5.0
 30
0.0
 40
0.2
  1
0
100
AcDbAttributeDefinition
  3
Reference Line Offset
  2
REFLN
 70
     0
  0
ATTDEF
  5
27D
100
AcDbEntity
  8
0
100
AcDbText
 10
5.0
 20
5.0
 30
0.0
 40
0.2
  1
60
100
AcDbAttributeDefinition
  3
Door width
  2
SUBTYPE
 70
     0
  0
ATTDEF
  5
27E
100
AcDbEntity
  8
0
100
AcDbText
 10
5.0
 20
5.0
 30
0.0
 40
0.2
  1
2
100
AcDbAttributeDefinition
  3
Door frame width
  2
SUBVISDOORFRAMEWIDTH
 70
     0
  0
ATTDEF
  5
27F
100
AcDbEntity
  8
0
100
AcDbText
 10
5.0
 20
5.0
 30
0.0
 40
0.2
  1
4
100
AcDbAttributeDefinition
  3
Door frame depth
  2
SUBVISDOORFRAMEDEPTH
 70
     0
  0
ATTDEF
  5
280
100
AcDbEntity
  8
0
100
AcDbText
 10
5.0
 20
5.0
 30
0.0
 40
0.2
  1
0.5
100
AcDbAttributeDefinition
  3
Door stop width
  2
SUBVISDOORSTOPWIDTH
 70
     0
  0
ATTDEF
  5
281
100
AcDbEntity
  8
0
100
AcDbText
 10
5.0
 20
5.0
 30
0.0
 40
0.2
  1
1.5
100
AcDbAttributeDefinition
  3
Door stop depth
  2
SUBVISDOORSTOPDEPTH
 70
     0
  0
ATTDEF
  5
282
100
AcDbEntity
  8
0
100
AcDbText
 10
5.0
 20
5.0
 30
0.0
 40
0.2
  1
2
100
AcDbAttributeDefinition
  3
Door threshold depth inside
  2
SUBVISDOORTHRESDEPTHIN
 70
     0
  0
ATTDEF
  5
283
100
AcDbEntity
  8
0
100
AcDbText
 10
5.0
 20
5.0
 30
0.0
 40
0.2
  1
2
100
AcDbAttributeDefinition
  3
Door threshold width inside
  2
SUBVISDOORTHRESWIDTHIN
 70
     0
  0
ATTDEF
  5
284
100
AcDbEntity
  8
0
100
AcDbText
 10
5.0
 20
5.0
 30
0.0
 40
0.2
  1
2
100
AcDbAttributeDefinition
  3
Door threshold depth outside
  2
SUBVISDOORTHRESDEPTHOUT
 70
     0
  0
ATTDEF
  5
285
100
AcDbEntity
  8
0
100
AcDbText
 10
5.0
 20
5.0
 30
0.0
 40
0.2
  1
2
100
AcDbAttributeDefinition
  3
Door threshold width outside
  2
SUBVISDOORTHRESWIDTHOUT
 70
     0
  0
ATTDEF
  5
286
100
AcDbEntity
  8
0
100
AcDbText
 10
5.0
 20
5.0
 30
0.0
 40
0.2
  1
2
100
AcDbAttributeDefinition
  3
Door panel thickness
  2
SUBVISDOORPANELTHICKNESS
 70
     0
  0
ATTDEF
  5
287
100
AcDbEntity
  8
0
100
AcDbText
 10
5.0
 20
5.0
 30
0.0
 40
0.2
  1
30
100
AcDbAttributeDefinition
  3
Door leaf width
  2
VISDOORLEAF
 70
     0
  0
ATTDEF
  5
288
100
AcDbEntity
  8
0
100
AcDbText
 10
5.0
 20
5.0
 30
0.0
 40
0.2
  1
12
100
AcDbAttributeDefinition
  3
Door spring height
  2
VISDOORSPRING
 70
     0
  0
ATTDEF
  5
289
100
AcDbEntity
  8
0
100
AcDbText
 10
5.0
 20
5.0
 30
0.0
 40
0.2
  1
6
100
AcDbAttributeDefinition
  3
Door along wall offset
  2
VISDOORALONGWALLOFFSET
 70
     0
  0
ATTDEF
  5
28A
100
AcDbEntity
  8
0
100
AcDbText
 10
5.0
 20
5.0
 30
0.0
 40
0.2
  1
Double
100
AcDbAttributeDefinition
  3
Door type
  2
SUBSHAPETYPE
 70
     0
  0
ATTDEF
  5
28B
100
AcDbEntity
  8
0
100
AcDbText
 10
5.0
 20
5.0
 30
0.0
 40
0.2
  1
Center
100
AcDbAttributeDefinition
  3
Door within wall offset
  2
VISJUSTIFICATION
 70
     0
  0
ATTDEF
  5
28C
100
AcDbEntity
  8
0
100
AcDbText
 10
5.0
 20
5.0
 30
0.0
 40
0.2
  1
50
100
AcDbAttributeDefinition
  3
Door open percentage
  2
VISDOOROPENPERCENT
 70
     0
  0
ATTDEF
  5
28D
100
AcDbEntity
  8
0
100
AcDbText
 10
5.0
 20
5.0
 30
0.0
 40
0.2
  1
Building Component
100
AcDbAttributeDefinition
  3
Shape class
  2
SHAPECLASS
 70
     0
  0
ATTDEF
  5
28E
100
AcDbEntity
  8
0
100
AcDbText
 10
5.0
 20
5.0
 30
0.0
 40
0.2
  1
Door
100
AcDbAttributeDefinition
  3
Shape type
  2
SHAPETYPE
 70
     0
  0
ATTDEF
  5
28F
100
AcDbEntity
  8
0
100
AcDbText
 10
5.0
 20
5.0
 30
0.0
 40
0.2
  1
0
100
AcDbAttributeDefinition
  3
Fire rating
  2
FIRERATING
 70
     0
  0
ATTDEF
  5
290
100
AcDbEntity
  8
0
100
AcDbText
 10
5.0
 20
5.0
 30
0.0
 40
0.2
  1
0
100
AcDbAttributeDefinition
  3
Door number
  2
DOORNUMBER
 70
     0
  0
ATTDEF
  5
291
100
AcDbEntity
  8
0
100
AcDbText
 10
5.0
 20
5.0
 30
0.0
 40
0.2
  1
0
100
AcDbAttributeDefinition
  3
Base elevation
  2
BASEELEVATION
 70
     0
  0
LWPOLYLINE
  5
292
100
AcDbEntity
  8
BUILDING_ENVELOPE
  6
CONTINUOUS
 62
     7
100
AcDbPolyline
 90
        4
 70
     1
 10
2.333333
 20
4.734
 10
7.666667
 20
4.734
 10
7.666667
 20
5.266
 10
2.333333
 20
5.266
  0
LINE
  5
293
100
AcDbEntity
  8
BUILDING_ENVELOPE
  6
CONTINUOUS
 62
     7
100
AcDbLine
 10
7.666667
 20
4.75
 30
0.0
 11
7.666667
 21
5.25
 31
0.0
  0
LINE
  5
294
100
AcDbEntity
  8
BUILDING_ENVELOPE
  6
CONTINUOUS
 62
     7
100
AcDbLine
 10
7.666667
 20
5.25
 30
0.0
 11
7.5
 21
5.25
 31
0.0
  0
LINE
  5
295
100
AcDbEntity
  8
BUILDING_ENVELOPE
  6
CONTINUOUS
 62
     7
100
AcDbLine
 10
7.5
 20
5.25
 30
0.0
 11
7.5
 21
5.083333
 31
0.0
  0
LINE
  5
296
100
AcDbEntity
  8
BUILDING_ENVELOPE
  6
CONTINUOUS
 62
     7
100
AcDbLine
 10
7.5
 20
4.958333
 30
0.0
 11
7.5
 21
4.75
 31
0.0
  0
LINE
  5
297
100
AcDbEntity
  8
BUILDING_ENVELOPE
  6
CONTINUOUS
 62
     7
100
AcDbLine
 10
7.5
 20
4.75
 30
0.0
 11
7.666667
 21
4.75
 31
0.0
  0
LINE
  5
298
100
AcDbEntity
  8
BUILDING_ENVELOPE
  6
CONTINUOUS
 62
     7
100
AcDbLine
 10
2.333333
 20
4.75
 30
0.0
 11
2.333333
 21
5.25
 31
0.0
  0
LINE
  5
299
100
AcDbEntity
  8
BUILDING_ENVELOPE
  6
CONTINUOUS
 62
     7
100
AcDbLine
 10
2.333333
 20
5.25
 30
0.0
 11
2.5
 21
5.25
 31
0.0
  0
LINE
  5
29A
100
AcDbEntity
  8
BUILDING_ENVELOPE
  6
CONTINUOUS
 62
     7
100
AcDbLine
 10
2.5
 20
5.25
 30
0.0
 11
2.5
 21
5.083333
 31
0.0
  0
LINE
  5
29B
100
AcDbEntity
  8
BUILDING_ENVELOPE
  6
CONTINUOUS
 62
     7
100
AcDbLine
 10
2.5
 20
4.958333
 30
0.0
 11
2.5
 21
4.75
 31
0.0
  0
LINE
  5
29C
100
AcDbEntity
  8
BUILDING_ENVELOPE
  6
CONTINUOUS
 62
     7
100
AcDbLine
 10
2.5
 20
4.75
 30
0.0
 11
2.333333
 21
4.75
 31
0.0
  0
LINE
  5
29D
100
AcDbEntity
  8
BUILDING_ENVELOPE
  6
CONTINUOUS
 62
     7
100
AcDbLine
 10
7.5
 20
5.083333
 30
0.0
 11
7.458333
 21
5.083333
 31
0.0
  0
LINE
  5
29E
100
AcDbEntity
  8
BUILDING_ENVELOPE
  6
CONTINUOUS
 62
     7
100
AcDbLine
 10
7.458333
 20
5.083333
 30
0.0
 11
7.458333
 21
4.958333
 31
0.0
  0
LINE
  5
29F
100
AcDbEntity
  8
BUILDING_ENVELOPE
  6
CONTINUOUS
 62
     7
100
AcDbLine
 10
7.458333
 20
4.958333
 30
0.0
 11
7.5
 21
4.958333
 31
0.0
  0
LINE
  5
2A0
100
AcDbEntity
  8
BUILDING_ENVELOPE
  6
CONTINUOUS
 62
     7
100
AcDbLine
 10
2.5
 20
5.083333
 30
0.0
 11
2.541667
 21
5.083333
 31
0.0
  0
LINE
  5
2A1
100
AcDbEntity
  8
BUILDING_ENVELOPE
  6
CONTINUOUS
 62
     7
100
AcDbLine
 10
2.541667
 20
5.083333
 30
0.0
 11
2.541667
 21
4.958333
 31
0.0
  0
LINE
  5
2A2
100
AcDbEntity
  8
BUILDING_ENVELOPE
  6
CONTINUOUS
 62
     7
100
AcDbLine
 10
2.541667
 20
4.958333
 30
0.0
 11
2.5
 21
4.958333
 31
0.0
  0
LINE
  5
2A3
100
AcDbEntity
  8
BUILDING_ENVELOPE
  6
CONTINUOUS
 62
     7
100
AcDbLine
 10
7.666667
 20
4.75
 30
0.0
 11
7.666667
 21
5.25
 31
0.0
  0
LINE
  5
2A4
100
AcDbEntity
  8
BUILDING_ENVELOPE
  6
CONTINUOUS
 62
     7
100
AcDbLine
 10
2.333333
 20
4.75
 30
0.0
 11
2.333333
 21
5.25
 31
0.0
  0
ARC
  5
2A5
100
AcDbEntity
  8
BUILDING_ENVELOPE
  6
CONTINUOUS
 62
     7
100
AcDbCircle
 10
2.5
 20
5.25
 30
0.0
 40
2.5
100
AcDbArc
 50
0.0
 51
90.0
  0
ARC
  5
2A6
100
AcDbEntity
  8
BUILDING_ENVELOPE
  6
CONTINUOUS
 62
     7
100
AcDbCircle
 10
7.5
 20
5.25
 30
0.0
 40
2.5
100
AcDbArc
 50
90.0
 51
180.0
  0
LWPOLYLINE
  5
2A7
100
AcDbEntity
  8
BUILDING_ENVELOPE
  6
CONTINUOUS
 62
     7
100
AcDbPolyline
 90
        4
 70
     1
 10
2.5
 20
7.75
 10
2.5
 20
5.25
 10
2.666667
 20
5.25
 10
2.666667
 20
7.75
  0
LWPOLYLINE
  5
2A8
100
AcDbEntity
  8
BUILDING_ENVELOPE
  6
CONTINUOUS
 62
     7
100
AcDbPolyline
 90
        4
 70
     1
 10
7.333333
 20
7.75
 10
7.333333
 20
5.25
 10
7.5
 20
5.25
 10
7.5
 20
7.75
  0
ENDBLK
  5
2A9
100
AcDbEntity
  8
0
100
AcDbBlockEnd
  0
BLOCK
  5
2AB
100
AcDbEntity
  8
0
100
AcDbBlockBegin
  2
WINDOW
 70
     2
 10
0.0
 20
0.0
 30
0.0
  3
WINDOW
  1

  0
ATTDEF
  5
2AC
100
AcDbEntity
  8
0
100
AcDbText
 10
5.0
 20
5.0
 30
0.0
 40
0.2
  1
60
100
AcDbAttributeDefinition
  3
Window height
  2
VISWNDWHEIGHT
 70
     0
  0
ATTDEF
  5
2AD
100
AcDbEntity
  8
0
100
AcDbText
 10
5.0
 20
5.0
 30
0.0
 40
0.2
  1
0
100
AcDbAttributeDefinition
  3
Reference Line Offset
  2
REFLN
 70
     0
  0
ATTDEF
  5
2AE
100
AcDbEntity
  8
0
100
AcDbText
 10
5.0
 20
5.0
 30
0.0
 40
0.2
  1
30
100
AcDbAttributeDefinition
  3
Window width
  2
SUBTYPE
 70
     0
  0
ATTDEF
  5
2AF
100
AcDbEntity
  8
0
100
AcDbText
 10
5.0
 20
5.0
 30
0.0
 40
0.2
  1
2
100
AcDbAttributeDefinition
  3
Window frame depth
  2
SUBVISWNDWFRAMEDEPTH
 70
     0
  0
ATTDEF
  5
2B0
100
AcDbEntity
  8
0
100
AcDbText
 10
5.0
 20
5.0
 30
0.0
 40
0.2
  1
4
100
AcDbAttributeDefinition
  3
Window frame width
  2
SUBVISWNDWFRAMEWIDTH
 70
     0
  0
ATTDEF
  5
2B1
100
AcDbEntity
  8
0
100
AcDbText
 10
5.0
 20
5.0
 30
0.0
 40
0.2
  1
2.5
100
AcDbAttributeDefinition
  3
Window sash depth
  2
SUBVISWNDWSASHDEPTH
 70
     0
  0
ATTDEF
  5
2B2
100
AcDbEntity
  8
0
100
AcDbText
 10
5.0
 20
5.0
 30
0.0
 40
0.2
  1
1
100
AcDbAttributeDefinition
  3
Window sash width
  2
SUBVISWNDWSASHWIDTH
 70
     0
  0
ATTDEF
  5
2B3
100
AcDbEntity
  8
0
100
AcDbText
 10
5.0
 20
5.0
 30
0.0
 40
0.2
  1
2
100
AcDbAttributeDefinition
  3
Window sill depth inside
  2
SUBVISWNDWSILLDEPTHIN
 70
     0
  0
ATTDEF
  5
2B4
100
AcDbEntity
  8
0
100
AcDbText
 10
5.0
 20
5.0
 30
0.0
 40
0.2
  1
2
100
AcDbAttributeDefinition
  3
Window sill width inside
  2
SUBVISWNDWSILLWIDTHIN
 70
     0
  0
ATTDEF
  5
2B5
100
AcDbEntity
  8
0
100
AcDbText
 10
5.0
 20
5.0
 30
0.0
 40
0.2
  1
2
100
AcDbAttributeDefinition
  3
Window sill depth outside
  2
SUBVISWNDWSILLDEPTHOUT
 70
     0
  0
ATTDEF
  5
2B6
100
AcDbEntity
  8
0
100
AcDbText
 10
5.0
 20
5.0
 30
0.0
 40
0.2
  1
2
100
AcDbAttributeDefinition
  3
Window sill width outside
  2
SUBVISWNDWSILLWIDTHOUT
 70
     0
  0
ATTDEF
  5
2B7
100
AcDbEntity
  8
0
100
AcDbText
 10
5.0
 20
5.0
 30
0.0
 40
0.2
  1
80
100
AcDbAttributeDefinition
  3
Window header height
  2
VISWNDWHEADERHEIGHT
 70
     0
  0
ATTDEF
  5
2B8
100
AcDbEntity
  8
0
100
AcDbText
 10
5.0
 20
5.0
 30
0.0
 40
0.2
  1
6
100
AcDbAttributeDefinition
  3
Window along wall offset
  2
VISWNDWALONGWALLOFFSET
 70
     0
  0
ATTDEF
  5
2B9
100
AcDbEntity
  8
0
100
AcDbText
 10
5.0
 20
5.0
 30
0.0
 40
0.2
  1
15
100
AcDbAttributeDefinition
  3
Window operator size
  2
VISWNDWOPERATOR
 70
     0
  0
ATTDEF
  5
2BA
100
AcDbEntity
  8
0
100
AcDbText
 10
5.0
 20
5.0
 30
0.0
 40
0.2
  1
12
100
AcDbAttributeDefinition
  3
Window spring height
  2
VISWNDWSPRING
 70
     0
  0
ATTDEF
  5
2BB
100
AcDbEntity
  8
0
100
AcDbText
 10
5.0
 20
5.0
 30
0.0
 40
0.2
  1
Center
100
AcDbAttributeDefinition
  3
Window within wall offset
  2
VISJUSTIFICATION
 70
     0
  0
ATTDEF
  5
2BC
100
AcDbEntity
  8
0
100
AcDbText
 10
5.0
 20
5.0
 30
0.0
 40
0.2
  1
Building Component
100
AcDbAttributeDefinition
  3
Shape class
  2
SHAPECLASS
 70
     0
  0
ATTDEF
  5
2BD
100
AcDbEntity
  8
0
100
AcDbText
 10
5.0
 20
5.0
 30
0.0
 40
0.2
  1
Window
100
AcDbAttributeDefinition
  3
Shape type
  2
SHAPETYPE
 70
     0
  0
ATTDEF
  5
2BE
100
AcDbEntity
  8
0
100
AcDbText
 10
5.0
 20
5.0
 30
0.0
 40
0.2
  1
Picture
100
AcDbAttributeDefinition
  3
Window type
  2
SUBSHAPETYPE
 70
     0
  0
ATTDEF
  5
2BF
100
AcDbEntity
  8
0
100
AcDbText
 10
5.0
 20
5.0
 30
0.0
 40
0.2
  1
0
100
AcDbAttributeDefinition
  3
Fire rating
  2
FIRERATING
 70
     0
  0
ATTDEF
  5
2C0
100
AcDbEntity
  8
0
100
AcDbText
 10
5.0
 20
5.0
 30
0.0
 40
0.2
  1
0
100
AcDbAttributeDefinition
  3
Window number
  2
WNDWNUMBER
 70
     0
  0
LWPOLYLINE
  5
2C1
100
AcDbEntity
  8
BUILDING_ENVELOPE
  6
CONTINUOUS
 62
     7
100
AcDbPolyline
 90
        4
 70
     1
 10
3.75
 20
4.734
 10
6.25
 20
4.734
 10
6.25
 20
5.266
 10
3.75
 20
5.266
  0
LINE
  5
2C2
100
AcDbEntity
  8
BUILDING_ENVELOPE
  6
CONTINUOUS
 62
     7
100
AcDbLine
 10
3.75
 20
4.75
 30
0.0
 11
3.75
 21
5.25
 31
0.0
  0
LINE
  5
2C3
100
AcDbEntity
  8
BUILDING_ENVELOPE
  6
CONTINUOUS
 62
     7
100
AcDbLine
 10
3.75
 20
5.25
 30
0.0
 11
4.083333
 21
5.25
 31
0.0
  0
LINE
  5
2C4
100
AcDbEntity
  8
BUILDING_ENVELOPE
  6
CONTINUOUS
 62
     7
100
AcDbLine
 10
4.083333
 20
5.25
 30
0.0
 11
4.083333
 21
5.104167
 31
0.0
  0
LINE
  5
2C5
100
AcDbEntity
  8
BUILDING_ENVELOPE
  6
CONTINUOUS
 62
     7
100
AcDbLine
 10
4.083333
 20
4.895833
 30
0.0
 11
4.083333
 21
4.75
 31
0.0
  0
LINE
  5
2C6
100
AcDbEntity
  8
BUILDING_ENVELOPE
  6
CONTINUOUS
 62
     7
100
AcDbLine
 10
4.083333
 20
4.75
 30
0.0
 11
3.75
 21
4.75
 31
0.0
  0
LINE
  5
2C7
100
AcDbEntity
  8
BUILDING_ENVELOPE
  6
CONTINUOUS
 62
     7
100
AcDbLine
 10
6.25
 20
4.75
 30
0.0
 11
6.25
 21
5.25
 31
0.0
  0
LINE
  5
2C8
100
AcDbEntity
  8
BUILDING_ENVELOPE
  6
CONTINUOUS
 62
     7
100
AcDbLine
 10
6.25
 20
5.25
 30
0.0
 11
5.916667
 21
5.25
 31
0.0
  0
LINE
  5
2C9
100
AcDbEntity
  8
BUILDING_ENVELOPE
  6
CONTINUOUS
 62
     7
100
AcDbLine
 10
5.916667
 20
5.25
 30
0.0
 11
5.916667
 21
5.104167
 31
0.0
  0
LINE
  5
2CA
100
AcDbEntity
  8
BUILDING_ENVELOPE
  6
CONTINUOUS
 62
     7
100
AcDbLine
 10
5.916667
 20
4.895833
 30
0.0
 11
5.916667
 21
4.75
 31
0.0
  0
LINE
  5
2CB
100
AcDbEntity
  8
BUILDING_ENVELOPE
  6
CONTINUOUS
 62
     7
100
AcDbLine
 10
5.916667
 20
4.75
 30
0.0
 11
6.25
 21
4.75
 31
0.0
  0
LWPOLYLINE
  5
2CC
100
AcDbEntity
  8
BUILDING_ENVELOPE
  6
CONTINUOUS
 62
     7
100
AcDbPolyline
 90
        4
 70
     1
 10
4.083333
 20
5.104167
 10
4.166667
 20
5.104167
 10
4.166667
 20
4.895833
 10
4.083333
 20
4.895833
  0
LWPOLYLINE
  5
2CD
100
AcDbEntity
  8
BUILDING_ENVELOPE
  6
CONTINUOUS
 62
     7
100
AcDbPolyline
 90
        4
 70
     1
 10
5.916667
 20
5.104167
 10
5.833333
 20
5.104167
 10
5.833333
 20
4.895833
 10
5.916667
 20
4.895833
  0
LINE
  5
2CE
100
AcDbEntity
  8
BUILDING_ENVELOPE
  6
CONTINUOUS
 62
     7
100
AcDbLine
 10
4.166667
 20
5.0
 30
0.0
 11
5.833333
 21
5.0
 31
0.0
  0
LINE
  5
2CF
100
AcDbEntity
  8
BUILDING_ENVELOPE
  6
CONTINUOUS
 62
     7
100
AcDbLine
 10
3.75
 20
4.75
 30
0.0
 11
3.75
 21
5.25
 31
0.0
  0
LINE
  5
2D0
100
AcDbEntity
  8
BUILDING_ENVELOPE
  6
CONTINUOUS
 62
     7
100
AcDbLine
 10
6.25
 20
4.75
 30
0.0
 11
6.25
 21
5.25
 31
0.0
  0
ENDBLK
  5
2D1
100
AcDbEntity
  8
0
100
AcDbBlockEnd
  0
ENDSEC
  0
SECTION
  2
ENTITIES
  0
LINE
  5
76
102
{ACAD_REACTORS
330
7E
102
}
100
AcDbEntity
  8
SPACE
  6
CONTINUOUS
100
AcDbLine
 10
44.691626
 20
83.001389
 30
0.0
 11
44.691626
 21
82.668056
 31
0.0
  0
LINE
  5
77
102
{ACAD_REACTORS
330
7E
102
}
100
AcDbEntity
  8
SPACE
  6
CONTINUOUS
100
AcDbLine
 10
44.691626
 20
82.668056
 30
0.0
 11
50.02357
 21
82.668056
 31
0.0
  0
LINE
  5
78
102
{ACAD_REACTORS
330
7E
102
}
100
AcDbEntity
  8
SPACE
  6
CONTINUOUS
100
AcDbLine
 10
50.02357
 20
82.668056
 30
0.0
 11
50.02357
 21
90.166667
 31
0.0
  0
LINE
  5
79
102
{ACAD_REACTORS
330
7E
102
}
100
AcDbEntity
  8
SPACE
  6
CONTINUOUS
100
AcDbLine
 10
50.02357
 20
90.166667
 30
0.0
 11
0.356904
 21
90.166667
 31
0.0
  0
LINE
  5
7A
102
{ACAD_REACTORS
330
7E
102
}
100
AcDbEntity
  8
SPACE
  6
CONTINUOUS
100
AcDbLine
 10
0.356904
 20
90.166667
 30
0.0
 11
0.356904
 21
82.584722
 31
0.0
  0
LINE
  5
7B
102
{ACAD_REACTORS
330
7E
102
}
100
AcDbEntity
  8
SPACE
  6
CONTINUOUS
100
AcDbLine
 10
0.356904
 20
82.584722
 30
0.0
 11
5.091626
 21
82.634449
 31
0.0
  0
LINE
  5
7C
102
{ACAD_REACTORS
330
7E
102
}
100
AcDbEntity
  8
SPACE
  6
CONTINUOUS
100
AcDbLine
 10
5.091626
 20
82.634449
 30
0.0
 11
5.091626
 21
83.001391
 31
0.0
  0
LINE
  5
7D
102
{ACAD_REACTORS
330
7E
102
}
100
AcDbEntity
  8
SPACE
  6
CONTINUOUS
100
AcDbLine
 10
5.091626
 20
83.001391
 30
0.0
 11
44.691627
 21
83.001391
 31
0.0
  0
HATCH
  5
7E
102
{ACAD_REACTORS
330
74
102
}
100
AcDbEntity
  8
SPACE
 62
    54
100
AcDbHatch
 10
0.0
 20
0.0
 30
0.0
210
0.0
220
0.0
230
1.0
  2
SOLID
 70
     1
 71
     1
 91
        1
 92
        1
 93
        9
 72
     1
 10
44.6916257815953273
 20
83.0013888888889397
 11
44.6916257815953273
 21
82.6680556548345749
 72
     1
 10
44.6916257815953273
 20
82.6680556548345749
 11
50.0235702260395811
 21
82.6680556548345749
 72
     1
 10
50.0235702260395811
 20
82.6680556548345749
 11
50.0235702260395811
 21
90.166666666666714
 72
     1
 10
50.0235702260395811
 20
90.166666666666714
 11
0.3569035593729145
 21
90.166666666666714
 72
     1
 10
0.3569035593729145
 20
90.166666666666714
 11
0.3569035593729145
 21
82.5847222222222541
 72
     1
 10
0.3569035593729145
 20
82.5847222222222541
 11
5.091625866531774
 21
82.6344490789871315
 72
     1
 10
5.091625866531774
 20
82.6344490789871315
 11
5.091625866531774
 21
83.0013907031056561
 72
     1
 10
5.091625866531774
 20
83.0013907031056561
 11
44.6916268837845791
 21
83.0013907031056561
 72
     1
 10
44.6916268837845791
 20
83.0013907031056561
 11
44.6916257815953273
 21
83.0013888888889397
 97
        8
330
76
330
77
330
78
330
79
330
7A
330
7B
330
7C
330
7D
 75
     0
 76
     1
 98
        0
  0
MTEXT
  5
7F
100
AcDbEntity
  8
SPACE
100
AcDbMText
 10
25.190237
 20
86.995546
 30
0.0
 40
0.500004
 41
2.948215
 71
     5
 72
     5
  1
\C7;\fCalibri|b0|i0|;\H0.50000381469727;Passage\P360 sq ft\P\P
  0
LWPOLYLINE
  5
81
102
{ACAD_REACTORS
330
82
102
}
100
AcDbEntity
  8
SPACE
  6
CONTINUOUS
100
AcDbPolyline
 90
        4
 70
     1
 10
44.691626
 20
82.668056
 10
44.691626
 20
24.168055
 10
50.02357
 20
24.168055
 10
50.02357
 20
82.668056
  0
HATCH
  5
82
102
{ACAD_REACTORS
330
80
102
}
100
AcDbEntity
  8
SPACE
 62
    54
100
AcDbHatch
 10
0.0
 20
0.0
 30
0.0
210
0.0
220
0.0
230
1.0
  2
SOLID
 70
     1
 71
     1
 91
        1
 92
        3
 72
     0
 73
     1
 93
        4
 10
44.6916257815951496
 20
82.668055654834518
 10
44.6916257815951496
 20
24.1680548104974697
 10
50.0235702260395669
 20
24.1680548104974697
 10
50.0235702260395669
 20
82.668055654834518
 97
        1
330
81
 75
     0
 76
     1
 98
        0
  0
MTEXT
  5
83
100
AcDbEntity
  8
SPACE
100
AcDbMText
 10
47.357598
 20
66.767421
 30
0.0
 40
0.500004
 41
2.948215
 71
     5
 72
     5
  1
\C7;\fCalibri|b0|i0|;\H0.50000381469727;Passage\P312 sq ft\P\P
  0
LWPOLYLINE
  5
85
102
{ACAD_REACTORS
330
86
102
}
100
AcDbEntity
  8
SPACE
  6
CONTINUOUS
100
AcDbPolyline
 90
        4
 70
     1
 10
5.091626
 20
82.634449
 10
0.356904
 20
82.584722
 10
0.356904
 20
16.168056
 10
5.091626
 20
16.168056
  0
HATCH
  5
86
102
{ACAD_REACTORS
330
84
102
}
100
AcDbEntity
  8
SPACE
 62
    54
100
AcDbHatch
 10
0.0
 20
0.0
 30
0.0
210
0.0
220
0.0
230
1.0
  2
SOLID
 70
     1
 71
     1
 91
        1
 92
        3
 72
     0
 73
     1
 93
        4
 10
5.0916258665317766
 20
82.6344490789870889
 10
0.356903559372918
 20
82.5847222222221973
 10
0.356903559372918
 20
16.1680555555555578
 10
5.0916258665317766
 20
16.1680555555555578
 97
        1
330
85
 75
     0
 76
     1
 98
        0
  0
MTEXT
  5
87
100
AcDbEntity
  8
SPACE
100
AcDbMText
 10
2.724265
 20
64.742217
 30
0.0
 40
0.500004
 41
2.948215
 71
     5
 72
     5
  1
\C7;\fCalibri|b0|i0|;\H0.50000381469727;Passage\P315 sq ft\P\P
  0
LWPOLYLINE
  5
89
102
{ACAD_REACTORS
330
8A
102
}
100
AcDbEntity
  8
SPACE
  6
CONTINUOUS
100
AcDbPolyline
 90
        7
 70
     1
 10
22.891716
 20
0.5
 10
50.02357
 20
0.5
 10
50.02357
 20
24.168055
 10
44.691626
 20
24.168055
 10
42.291625
 20
24.168056
 10
22.891716
 20
24.168056
 10
22.891716
 20
16.168055
  0
HATCH
  5
8A
102
{ACAD_REACTORS
330
88
102
}
100
AcDbEntity
  8
SPACE
 62
    22
100
AcDbHatch
 10
0.0
 20
0.0
 30
0.0
210
0.0
220
0.0
230
1.0
  2
SOLID
 70
     1
 71
     1
 91
        1
 92
        3
 72
     0
 73
     1
 93
        7
 10
22.89171605898132
 20
0.5000000000000094
 10
50.0235702260395669
 20
0.5000000000000094
 10
50.0235702260395669
 20
24.1680548104974839
 10
44.6916257815951354
 20
24.1680553242890781
 10
42.2916245000954234
 20
24.1680555555555685
 10
22.89171605898132
 20
24.1680555555555685
 10
22.89171605898132
 20
16.1680549635627457
 97
        1
330
89
 75
     0
 76
     1
 98
        0
  0
MTEXT
  5
8B
100
AcDbEntity
  8
SPACE
100
AcDbMText
 10
36.457643
 20
16.975408
 30
0.0
 40
0.500004
 41
2.948215
 71
     5
 72
     5
  1
\C7;\fCalibri|b0|i0|;\H0.50000381469727;Garage\P642 sq ft\P\P
  0
LWPOLYLINE
  5
8D
102
{ACAD_REACTORS
330
8E
102
}
100
AcDbEntity
  8
SPACE
  6
CONTINUOUS
100
AcDbPolyline
 90
        6
 70
     1
 10
0.356904
 20
16.168056
 10
0.356904
 20
0.5
 10
22.891716
 20
0.5
 10
22.891716
 20
16.168056
 10
7.041626
 20
16.168056
 10
5.091626
 20
16.168056
  0
HATCH
  5
8E
102
{ACAD_REACTORS
330
8C
102
}
100
AcDbEntity
  8
SPACE
 62
   111
100
AcDbHatch
 10
0.0
 20
0.0
 30
0.0
210
0.0
220
0.0
230
1.0
  2
SOLID
 70
     1
 71
     1
 91
        1
 92
        3
 72
     0
 73
     1
 93
        6
 10
0.356903559372924
 20
16.1680555555555614
 10
0.356903559372924
 20
0.5000000000000059
 10
22.8917160589813307
 20
0.5000000000000059
 10
22.8917160589813307
 20
16.1680555555555614
 10
7.041625550627133
 20
16.1680555555555614
 10
5.091625866531829
 20
16.1680555555555614
 97
        1
330
8D
 75
     0
 76
     1
 98
        0
  0
MTEXT
  5
8F
100
AcDbEntity
  8
SPACE
100
AcDbMText
 10
11.62431
 20
10.975408
 30
0.0
 40
0.500004
 41
2.948215
 71
     5
 72
     5
  1
\C7;\fCalibri|b0|i0|;\H0.50000381469727;Lawn\P353 sq ft\P\P
  0
LWPOLYLINE
  5
91
102
{ACAD_REACTORS
330
92
102
}
100
AcDbEntity
  8
SPACE
  6
CONTINUOUS
100
AcDbPolyline
 90
        6
 70
     1
 10
30.95536
 20
52.668054
 10
30.95536
 20
64.001389
 10
44.358292
 20
64.001389
 10
44.358292
 20
82.668056
 10
22.124959
 20
82.668057
 10
22.124959
 20
52.668054
  0
HATCH
  5
92
102
{ACAD_REACTORS
330
90
102
}
100
AcDbEntity
  8
SPACE
 62
     2
100
AcDbHatch
 10
0.0
 20
0.0
 30
0.0
210
0.0
220
0.0
230
1.0
  2
SOLID
 70
     1
 71
     1
 91
        1
 92
        3
 72
     0
 73
     1
 93
        6
 10
30.9553596288083135
 20
52.6680543959744369
 10
30.9553596288083135
 20
64.0013888888889824
 10
44.358292113752853
 20
64.0013888888889824
 10
44.3582924482618068
 20
82.6680555555556964
 10
22.1249591149284761
 20
82.6680573697722707
 10
22.1249591149284761
 20
52.6680543959744369
 97
        1
330
91
 75
     0
 76
     1
 98
        0
  0
MTEXT
  5
93
100
AcDbEntity
  8
SPACE
100
AcDbMText
 10
33.241626
 20
73.892423
 30
0.0
 40
0.500004
 41
2.948215
 71
     5
 72
     5
  1
\C7;\fCalibri|b0|i0|;\H0.50000381469727;Lounge\P515 sq ft\P\P
  0
LWPOLYLINE
  5
95
102
{ACAD_REACTORS
330
96
102
}
100
AcDbEntity
  8
SPACE
  6
CONTINUOUS
100
AcDbPolyline
 90
       12
 70
     1
 10
30.95536
 20
52.668054
 10
22.124959
 20
52.668056
 10
5.424959
 20
52.668056
 10
5.424959
 20
39.085417
 10
22.891716
 20
39.121806
 10
22.891716
 20
24.501389
 10
30.95536
 20
24.501389
 10
30.95536
 20
43.723901
 10
29.288693
 20
43.730846
 10
29.289387
 20
43.897511
 10
29.290082
 20
44.064176
 10
30.95536
 20
44.057237
  0
HATCH
  5
96
102
{ACAD_REACTORS
330
94
102
}
100
AcDbEntity
  8
SPACE
 62
   190
100
AcDbHatch
 10
0.0
 20
0.0
 30
0.0
210
0.0
220
0.0
230
1.0
  2
SOLID
 70
     1
 71
     1
 91
        1
 92
        3
 72
     0
 73
     1
 93
       12
 10
30.955359581847393
 20
52.6680543959744512
 10
22.1249591149283873
 20
52.6680555133754069
 10
5.424959199865107
 20
52.6680555555555543
 10
5.424959199865107
 20
39.0854173900455919
 10
22.8917160051312791
 20
39.1218064667230578
 10
22.8917160589812774
 20
24.50138888888889
 10
30.9553596288082602
 20
24.50138888888889
 10
30.9553596288082602
 20
43.7239011089697556
 10
29.2886929621418979
 20
43.7308455534141629
 10
29.2893874005582404
 20
43.897510773340457
 10
29.2900818389745901
 20
44.0641759932667441
 10
30.9553596288082602
 20
44.057237335809063
 97
        1
330
95
 75
     0
 76
     1
 98
        0
  0
MTEXT
  5
97
100
AcDbEntity
  8
SPACE
100
AcDbMText
 10
25.291625
 20
45.89242
 30
0.0
 40
0.500004
 41
3.247715
 71
     5
 72
     5
  1
\C7;\fCalibri|b0|i0|;\H0.50000381469727;Stair Case\P463 sq ft\P\P
  0
LWPOLYLINE
  5
99
102
{ACAD_REACTORS
330
9A
102
}
100
AcDbEntity
  8
SPACE
  6
CONTINUOUS
100
AcDbPolyline
 90
        4
 70
     1
 10
31.288693
 20
44.055848
 10
44.358292
 20
44.001392
 10
44.358292
 20
63.668056
 10
31.288693
 20
63.668056
  0
HATCH
  5
9A
102
{ACAD_REACTORS
330
98
102
}
100
AcDbEntity
  8
SPACE
 62
    40
100
AcDbHatch
 10
0.0
 20
0.0
 30
0.0
210
0.0
220
0.0
230
1.0
  2
SOLID
 70
     1
 71
     1
 91
        1
 92
        3
 72
     0
 73
     1
 93
        4
 10
31.2886929621415959
 20
44.0558484469202511
 10
44.3582924482618068
 20
44.001391782394947
 10
44.3582924482618068
 20
63.6680555555555543
 10
31.2886929621415959
 20
63.6680555555555543
 97
        1
330
99
 75
     0
 76
     1
 98
        0
  0
MTEXT
  5
9B
100
AcDbEntity
  8
SPACE
100
AcDbMText
 10
37.823493
 20
57.475756
 30
0.0
 40
0.500004
 41
2.948215
 71
     5
 72
     5
  1
\C7;\fCalibri|b0|i0|;\H0.50000381469727;Kitchen\P257 sq ft\P\P
  0
LWPOLYLINE
  5
9D
102
{ACAD_REACTORS
330
9E
102
}
100
AcDbEntity
  8
SPACE
  6
CONTINUOUS
100
AcDbPolyline
 90
        4
 70
     1
 10
11.291626
 20
53.001389
 10
11.291626
 20
62.017361
 10
5.424959
 20
62.017361
 10
5.424959
 20
53.001389
  0
HATCH
  5
9E
102
{ACAD_REACTORS
330
9C
102
}
100
AcDbEntity
  8
SPACE
 62
    11
100
AcDbHatch
 10
0.0
 20
0.0
 30
0.0
210
0.0
220
0.0
230
1.0
  2
SOLID
 70
     1
 71
     1
 91
        1
 92
        3
 72
     0
 73
     1
 93
        4
 10
11.2916257815951102
 20
53.0013888888888829
 10
11.2916257815951102
 20
62.0173611111112351
 10
5.4249591998651114
 20
62.0173611111112351
 10
5.4249591998651114
 20
53.0013888888888829
 97
        1
330
9D
 75
     0
 76
     1
 98
        0
  0
MTEXT
  5
9F
100
AcDbEntity
  8
SPACE
100
AcDbMText
 10
8.358292
 20
58.487734
 30
0.0
 40
0.500004
 41
4.328113
 71
     5
 72
     5
  1
\C7;\fCalibri|b0|i0|;\H0.50000381469727;Dressing Area\P53 sq ft\P\P
  0
LWPOLYLINE
  5
A1
102
{ACAD_REACTORS
330
A2
102
}
100
AcDbEntity
  8
SPACE
  6
CONTINUOUS
100
AcDbPolyline
 90
        4
 70
     1
 10
31.288693
 20
43.722512
 10
31.288693
 20
24.501389
 10
44.358292
 20
24.501389
 10
44.358292
 20
43.668056
  0
HATCH
  5
A2
102
{ACAD_REACTORS
330
A0
102
}
100
AcDbEntity
  8
SPACE
 62
   253
100
AcDbHatch
 10
0.0
 20
0.0
 30
0.0
210
0.0
220
0.0
230
1.0
  2
SOLID
 70
     1
 71
     1
 91
        1
 92
        3
 72
     0
 73
     1
 93
        4
 10
31.2886929621415959
 20
43.7225122200809579
 10
31.2886929621415959
 20
24.50138888888889
 10
44.3582916815400239
 20
24.50138888888889
 10
44.3582924482618068
 20
43.6680555555556822
 97
        1
330
A1
 75
     0
 76
     1
 98
        0
  0
MTEXT
  5
A3
100
AcDbEntity
  8
SPACE
100
AcDbMText
 10
37.823493
 20
37.641597
 30
0.0
 40
0.500004
 41
2.948215
 71
     5
 72
     5
  1
\C7;\fCalibri|b0|i0|;\H0.50000381469727;Dining\P251 sq ft\P\P
  0
LWPOLYLINE
  5
A5
102
{ACAD_REACTORS
330
A6
102
}
100
AcDbEntity
  8
SPACE
  6
CONTINUOUS
100
AcDbPolyline
 90
        4
 70
     1
 10
11.624959
 20
53.001389
 10
21.791625
 20
53.001389
 10
21.791626
 20
62.017361
 10
11.624959
 20
62.017361
  0
HATCH
  5
A6
102
{ACAD_REACTORS
330
A4
102
}
100
AcDbEntity
  8
SPACE
 62
     5
100
AcDbHatch
 10
0.0
 20
0.0
 30
0.0
210
0.0
220
0.0
230
1.0
  2
SOLID
 70
     1
 71
     1
 91
        1
 92
        3
 72
     0
 73
     1
 93
        4
 10
11.624959114928453
 20
53.0013888888888829
 10
21.7916253579055308
 20
53.0013888888888829
 10
21.7916257815951617
 20
62.0173611111112351
 10
11.624959114928453
 20
62.0173611111112351
 97
        1
330
A5
 75
     0
 76
     1
 98
        0
  0
MTEXT
  5
A7
100
AcDbEntity
  8
SPACE
100
AcDbMText
 10
16.708292
 20
58.487734
 30
0.0
 40
0.500004
 41
3.319019
 71
     5
 72
     5
  1
\C7;\fCalibri|b0|i0|;\H0.50000381469727;Bathroom\P92 sq ft\P\P
  0
LINE
  5
A9
102
{ACAD_REACTORS
330
AD
102
}
100
AcDbEntity
  8
SPACE
  6
CONTINUOUS
100
AcDbLine
 10
21.791626
 20
62.350694
 30
0.0
 11
21.791626
 21
82.668057
 31
0.0
  0
LINE
  5
AA
102
{ACAD_REACTORS
330
AD
102
}
100
AcDbEntity
  8
SPACE
  6
CONTINUOUS
100
AcDbLine
 10
21.791626
 20
82.668057
 30
0.0
 11
5.424959
 21
82.668057
 31
0.0
  0
LINE
  5
AB
102
{ACAD_REACTORS
330
AD
102
}
100
AcDbEntity
  8
SPACE
  6
CONTINUOUS
100
AcDbLine
 10
5.424959
 20
82.668057
 30
0.0
 11
5.424959
 21
62.350694
 31
0.0
  0
LINE
  5
AC
102
{ACAD_REACTORS
330
AD
102
}
100
AcDbEntity
  8
SPACE
  6
CONTINUOUS
100
AcDbLine
 10
5.424959
 20
62.350694
 30
0.0
 11
21.791625
 21
62.350694
 31
0.0
  0
HATCH
  5
AD
102
{ACAD_REACTORS
330
A8
102
}
100
AcDbEntity
  8
SPACE
 62
    10
100
AcDbHatch
 10
0.0
 20
0.0
 30
0.0
210
0.0
220
0.0
230
1.0
  2
SOLID
 70
     1
 71
     1
 91
        1
 92
        1
 93
        5
 72
     1
 10
21.7916257815951369
 20
62.3506944444445708
 11
21.7916257815951369
 21
82.6680573697722707
 72
     1
 10
21.7916257815951369
 20
82.6680573697722707
 11
5.4249591998651052
 21
82.6680573697722707
 72
     1
 10
5.4249591998651052
 20
82.6680573697722707
 11
5.4249591998651052
 21
62.3506944444445708
 72
     1
 10
5.4249591998651052
 20
62.3506944444445708
 11
21.7916253579055095
 21
62.3506944444445708
 72
     1
 10
21.7916253579055095
 20
62.3506944444445708
 11
21.7916257815951369
 21
62.3506944444445708
 97
        4
330
A9
330
AA
330
AB
330
AC
 75
     0
 76
     1
 98
        0
  0
MTEXT
  5
AE
100
AcDbEntity
  8
SPACE
100
AcDbMText
 10
13.608292
 20
76.313083
 30
0.0
 40
0.500004
 41
3.108081
 71
     5
 72
     5
  1
\C7;\fCalibri|b0|i0|;\H0.50000381469727;Bedroom\P333 sq ft\P\P
  0
LWPOLYLINE
  5
B1
102
{ACAD_REACTORS
330
B2
102
}
100
AcDbEntity
  8
BUILDING_ENVELOPE
  6
CONTINUOUS
 62
     7
100
AcDbPolyline
 90
        4
 70
     1
 10
0.356904
 20
90.166667
 10
0.356904
 20
0.5
 10
0.02357
 20
0.166667
 10
0.02357
 20
90.5
  0
HATCH
  5
B2
102
{ACAD_REACTORS
330
AF
102
}
100
AcDbEntity
  8
BUILDING_ENVELOPE
 62
     7
100
AcDbHatch
 10
0.0
 20
0.0
 30
0.0
210
0.0
220
0.0
230
1.0
  2
SOLID
 70
     1
 71
     1
 91
        1
 92
        3
 72
     0
 73
     1
 93
        4
 10
0.3569035593729183
 20
90.1666666666666572
 10
0.3569035593729183
 20
0.5
 10
0.023570226039585
 20
0.1666666666666667
 10
0.023570226039585
 20
90.5
 97
        1
330
B1
 75
     0
 76
     1
 98
        0
  0
LINE
  5
B3
102
{ACAD_REACTORS
330
AF
102
}
100
AcDbEntity
  8
BUILDING_ENVELOPE
  6
CONTINUOUS
 62
     7
100
AcDbLine
 10
0.356904
 20
90.166667
 30
0.0
 11
0.356904
 21
0.5
 31
0.0
  0
LINE
  5
B4
102
{ACAD_REACTORS
330
AF
102
}
100
AcDbEntity
  8
BUILDING_ENVELOPE
  6
CONTINUOUS
 62
     7
100
AcDbLine
 10
0.02357
 20
90.5
 30
0.0
 11
0.02357
 21
0.166667
 31
0.0
  0
LWPOLYLINE
  5
B6
102
{ACAD_REACTORS
330
B7
102
}
100
AcDbEntity
  8
BUILDING_ENVELOPE
  6
CONTINUOUS
 62
     7
100
AcDbPolyline
 90
        4
 70
     1
 10
50.356904
 20
90.5
 10
50.356904
 20
0.166667
 10
50.02357
 20
0.5
 10
50.02357
 20
90.166667
  0
HATCH
  5
B7
102
{ACAD_REACTORS
330
B5
102
}
100
AcDbEntity
  8
BUILDING_ENVELOPE
 62
     7
100
AcDbHatch
 10
0.0
 20
0.0
 30
0.0
210
0.0
220
0.0
230
1.0
  2
SOLID
 70
     1
 71
     1
 91
        1
 92
        3
 72
     0
 73
     1
 93
        4
 10
50.3569035593729168
 20
90.5
 10
50.3569035593729168
 20
0.1666666666666667
 10
50.0235702260395811
 20
0.5
 10
50.0235702260395811
 20
90.1666666666666572
 97
        1
330
B6
 75
     0
 76
     1
 98
        0
  0
LINE
  5
B8
102
{ACAD_REACTORS
330
B5
102
}
100
AcDbEntity
  8
BUILDING_ENVELOPE
  6
CONTINUOUS
 62
     7
100
AcDbLine
 10
50.356904
 20
90.5
 30
0.0
 11
50.356904
 21
0.166667
 31
0.0
  0
LINE
  5
B9
102
{ACAD_REACTORS
330
B5
102
}
100
AcDbEntity
  8
BUILDING_ENVELOPE
  6
CONTINUOUS
 62
     7
100
AcDbLine
 10
50.02357
 20
90.166667
 30
0.0
 11
50.02357
 21
0.5
 31
0.0
  0
LWPOLYLINE
  5
BB
102
{ACAD_REACTORS
330
BC
102
}
100
AcDbEntity
  8
BUILDING_ENVELOPE
  6
CONTINUOUS
 62
     7
100
AcDbPolyline
 90
        4
 70
     1
 10
0.02357
 20
90.5
 10
50.356904
 20
90.5
 10
50.02357
 20
90.166667
 10
0.356904
 20
90.166667
  0
HATCH
  5
BC
102
{ACAD_REACTORS
330
BA
102
}
100
AcDbEntity
  8
BUILDING_ENVELOPE
 62
     7
100
AcDbHatch
 10
0.0
 20
0.0
 30
0.0
210
0.0
220
0.0
230
1.0
  2
SOLID
 70
     1
 71
     1
 91
        1
 92
        3
 72
     0
 73
     1
 93
        4
 10
0.0235702260396071
 20
90.5
 10
50.3569035593729382
 20
90.5
 10
50.0235702260396025
 20
90.1666666666666572
 10
0.3569035593729429
 20
90.1666666666666572
 97
        1
330
BB
 75
     0
 76
     1
 98
        0
  0
LINE
  5
BD
102
{ACAD_REACTORS
330
BA
102
}
100
AcDbEntity
  8
BUILDING_ENVELOPE
  6
CONTINUOUS
 62
     7
100
AcDbLine
 10
0.02357
 20
90.5
 30
0.0
 11
50.356904
 21
90.5
 31
0.0
  0
LINE
  5
BE
102
{ACAD_REACTORS
330
BA
102
}
100
AcDbEntity
  8
BUILDING_ENVELOPE
  6
CONTINUOUS
 62
     7
100
AcDbLine
 10
0.356904
 20
90.166667
 30
0.0
 11
50.02357
 21
90.166667
 31
0.0
  0
LWPOLYLINE
  5
C0
102
{ACAD_REACTORS
330
C1
102
}
100
AcDbEntity
  8
BUILDING_ENVELOPE
  6
CONTINUOUS
 62
     7
100
AcDbPolyline
 90
        4
 70
     1
 10
0.356904
 20
0.5
 10
50.02357
 20
0.5
 10
50.356904
 20
0.166667
 10
0.02357
 20
0.166667
  0
HATCH
  5
C1
102
{ACAD_REACTORS
330
BF
102
}
100
AcDbEntity
  8
BUILDING_ENVELOPE
 62
     7
100
AcDbHatch
 10
0.0
 20
0.0
 30
0.0
210
0.0
220
0.0
230
1.0
  2
SOLID
 70
     1
 71
     1
 91
        1
 92
        3
 72
     0
 73
     1
 93
        4
 10
0.3569035593728956
 20
0.5
 10
50.0235702260395669
 20
0.5
 10
50.3569035593728955
 20
0.1666666666666667
 10
0.0235702260395669
 20
0.1666666666666667
 97
        1
330
C0
 75
     0
 76
     1
 98
        0
  0
LINE
  5
C2
102
{ACAD_REACTORS
330
BF
102
}
100
AcDbEntity
  8
BUILDING_ENVELOPE
  6
CONTINUOUS
 62
     7
100
AcDbLine
 10
0.356904
 20
0.5
 30
0.0
 11
50.02357
 21
0.5
 31
0.0
  0
LINE
  5
C3
102
{ACAD_REACTORS
330
BF
102
}
100
AcDbEntity
  8
BUILDING_ENVELOPE
  6
CONTINUOUS
 62
     7
100
AcDbLine
 10
0.02357
 20
0.166667
 30
0.0
 11
50.356904
 21
0.166667
 31
0.0
  0
LINE
  5
C5
102
{ACAD_REACTORS
330
C9
102
}
100
AcDbEntity
  8
SPACE
  6
CONTINUOUS
100
AcDbLine
 10
22.558383
 20
16.501388
 30
0.0
 11
22.558383
 21
38.787778
 31
0.0
  0
LINE
  5
C6
102
{ACAD_REACTORS
330
C9
102
}
100
AcDbEntity
  8
SPACE
  6
CONTINUOUS
100
AcDbLine
 10
22.558383
 20
38.787778
 30
0.0
 11
5.424959
 21
38.752083
 31
0.0
  0
LINE
  5
C7
102
{ACAD_REACTORS
330
C9
102
}
100
AcDbEntity
  8
SPACE
  6
CONTINUOUS
100
AcDbLine
 10
5.424959
 20
38.752083
 30
0.0
 11
5.424959
 21
16.501388
 31
0.0
  0
LINE
  5
C8
102
{ACAD_REACTORS
330
C9
102
}
100
AcDbEntity
  8
SPACE
  6
CONTINUOUS
100
AcDbLine
 10
5.424959
 20
16.501388
 30
0.0
 11
22.558383
 21
16.501388
 31
0.0
  0
HATCH
  5
C9
102
{ACAD_REACTORS
330
C4
102
}
100
AcDbEntity
  8
SPACE
 62
    94
100
AcDbHatch
 10
0.0
 20
0.0
 30
0.0
210
0.0
220
0.0
230
1.0
  2
SOLID
 70
     1
 71
     1
 91
        1
 92
        1
 93
        5
 72
     1
 10
22.5583827256480163
 20
16.5013882968961738
 11
22.5583827256480163
 21
38.7877779656787283
 72
     1
 10
22.5583827256480163
 20
38.7877779656787283
 11
5.4249591917420164
 21
38.7520833333163068
 72
     1
 10
5.4249591917420164
 20
38.7520833333163068
 11
5.4249591917420164
 21
16.5013882968961738
 72
     1
 10
5.4249591917420164
 20
16.5013882968961738
 11
22.5583833229933646
 21
16.5013882968961738
 72
     1
 10
22.5583833229933646
 20
16.5013882968961738
 11
22.5583827256480163
 21
16.5013882968961738
 97
        4
330
C5
330
C6
330
C7
330
C8
 75
     0
 76
     1
 98
        0
  0
MTEXT
  5
CA
100
AcDbEntity
  8
SPACE
100
AcDbMText
 10
13.991671
 20
31.940546
 30
0.0
 40
0.500004
 41
4.599277
 71
     5
 72
     5
  1
\C7;\fCalibri|b0|i0|;\H0.50000381469727;Drawing Room\P382 sq ft\P\P
  0
LWPOLYLINE
  5
CC
102
{ACAD_REACTORS
330
CD
102
}
100
AcDbEntity
  8
BUILDING_ENVELOPE
  6
CONTINUOUS
 62
     7
100
AcDbPolyline
 90
        4
 70
     1
 10
5.091626
 20
83.001391
 10
44.691626
 20
83.001391
 10
44.358292
 20
82.668057
 10
5.424959
 20
82.668057
  0
HATCH
  5
CD
102
{ACAD_REACTORS
330
CB
102
}
100
AcDbEntity
  8
BUILDING_ENVELOPE
 62
     7
100
AcDbHatch
 10
0.0
 20
0.0
 30
0.0
210
0.0
220
0.0
230
1.0
  2
SOLID
 70
     1
 71
     1
 91
        1
 92
        3
 72
     0
 73
     1
 93
        4
 10
5.0916258665317615
 20
83.0013907031056419
 10
44.6916257815951283
 20
83.0013907031056419
 10
44.3582924482617926
 20
82.6680573697722991
 10
5.4249591998650972
 20
82.6680573697722991
 97
        1
330
CC
 75
     0
 76
     1
 98
        0
  0
LINE
  5
CE
102
{ACAD_REACTORS
330
CB
102
}
100
AcDbEntity
  8
BUILDING_ENVELOPE
  6
CONTINUOUS
 62
     7
100
AcDbLine
 10
5.091626
 20
83.001391
 30
0.0
 11
44.691626
 21
83.001391
 31
0.0
  0
LINE
  5
CF
102
{ACAD_REACTORS
330
CB
102
}
100
AcDbEntity
  8
BUILDING_ENVELOPE
  6
CONTINUOUS
 62
     7
100
AcDbLine
 10
5.424959
 20
82.668057
 30
0.0
 11
44.358292
 21
82.668057
 31
0.0
  0
LWPOLYLINE
  5
D1
102
{ACAD_REACTORS
330
D2
102
}
100
AcDbEntity
  8
BUILDING_ENVELOPE
  6
CONTINUOUS
 62
     7
100
AcDbPolyline
 90
        4
 70
     1
 10
5.424959
 20
82.668057
 10
5.424959
 20
16.501389
 10
5.091626
 20
16.168056
 10
5.091626
 20
83.001391
  0
HATCH
  5
D2
102
{ACAD_REACTORS
330
D0
102
}
100
AcDbEntity
  8
BUILDING_ENVELOPE
 62
     7
100
AcDbHatch
 10
0.0
 20
0.0
 30
0.0
210
0.0
220
0.0
230
1.0
  2
SOLID
 70
     1
 71
     1
 91
        1
 92
        3
 72
     0
 73
     1
 93
        4
 10
5.4249591998651079
 20
82.6680573697722849
 10
5.4249591998651079
 20
16.5013888888888687
 10
5.0916258665317748
 20
16.1680555555555721
 10
5.0916258665317748
 20
83.0013907031056135
 97
        1
330
D1
 75
     0
 76
     1
 98
        0
  0
LINE
  5
D3
102
{ACAD_REACTORS
330
D0
102
}
100
AcDbEntity
  8
BUILDING_ENVELOPE
  6
CONTINUOUS
 62
     7
100
AcDbLine
 10
5.424959
 20
82.668057
 30
0.0
 11
5.424959
 21
16.501389
 31
0.0
  0
LINE
  5
D4
102
{ACAD_REACTORS
330
D0
102
}
100
AcDbEntity
  8
BUILDING_ENVELOPE
  6
CONTINUOUS
 62
     7
100
AcDbLine
 10
5.091626
 20
83.001391
 30
0.0
 11
5.091626
 21
16.168056
 31
0.0
  0
LWPOLYLINE
  5
D6
102
{ACAD_REACTORS
330
D7
102
}
100
AcDbEntity
  8
BUILDING_ENVELOPE
  6
CONTINUOUS
 62
     7
100
AcDbPolyline
 90
        4
 70
     1
 10
5.424959
 20
16.501389
 10
22.558383
 20
16.501389
 10
22.891716
 20
16.168056
 10
5.091626
 20
16.168056
  0
HATCH
  5
D7
102
{ACAD_REACTORS
330
D5
102
}
100
AcDbEntity
  8
BUILDING_ENVELOPE
 62
     7
100
AcDbHatch
 10
0.0
 20
0.0
 30
0.0
210
0.0
220
0.0
230
1.0
  2
SOLID
 70
     1
 71
     1
 91
        1
 92
        3
 72
     0
 73
     1
 93
        4
 10
5.4249591998651123
 20
16.50138888888889
 10
22.5583827256480234
 20
16.50138888888889
 10
22.8917160589813591
 20
16.1680555555555578
 10
5.0916258665317837
 20
16.1680555555555578
 97
        1
330
D6
 75
     0
 76
     1
 98
        0
  0
LINE
  5
D8
102
{ACAD_REACTORS
330
D5
102
}
100
AcDbEntity
  8
BUILDING_ENVELOPE
  6
CONTINUOUS
 62
     7
100
AcDbLine
 10
5.424959
 20
16.501389
 30
0.0
 11
22.558383
 21
16.501389
 31
0.0
  0
LINE
  5
D9
102
{ACAD_REACTORS
330
D5
102
}
100
AcDbEntity
  8
BUILDING_ENVELOPE
  6
CONTINUOUS
 62
     7
100
AcDbLine
 10
5.091626
 20
16.168056
 30
0.0
 11
22.891716
 21
16.168056
 31
0.0
  0
LWPOLYLINE
  5
DB
102
{ACAD_REACTORS
330
DC
102
}
100
AcDbEntity
  8
BUILDING_ENVELOPE
  6
CONTINUOUS
 62
     7
100
AcDbPolyline
 90
        4
 70
     1
 10
5.424959
 20
39.085417
 10
22.891716
 20
39.121806
 10
22.558383
 20
38.787778
 10
5.424959
 20
38.752083
  0
HATCH
  5
DC
102
{ACAD_REACTORS
330
DA
102
}
100
AcDbEntity
  8
BUILDING_ENVELOPE
 62
     7
100
AcDbHatch
 10
0.0
 20
0.0
 30
0.0
210
0.0
220
0.0
230
1.0
  2
SOLID
 70
     1
 71
     1
 91
        1
 92
        3
 72
     0
 73
     1
 93
        4
 10
5.4249591998650999
 20
39.085417390045528
 10
22.891716058981423
 20
39.1218064668353378
 10
22.5583827256480944
 20
38.7877779656787141
 10
5.4249591998651043
 20
38.7520833333333456
 97
        1
330
DB
 75
     0
 76
     1
 98
        0
  0
LWPOLYLINE
  5
DD
102
{ACAD_REACTORS
330
DE
102
}
100
AcDbEntity
  8
BUILDING_ENVELOPE
  6
CONTINUOUS
 62
     7
100
AcDbPolyline
 90
        4
 70
     1
 10
5.424959
 20
38.752083
 10
5.424959
 20
39.085417
 10
5.391626
 20
39.085417
 10
5.391626
 20
38.752083
  0
HATCH
  5
DE
102
{ACAD_REACTORS
330
DA
102
}
100
AcDbEntity
  8
BUILDING_ENVELOPE
 62
     7
100
AcDbHatch
 10
0.0
 20
0.0
 30
0.0
210
0.0
220
0.0
230
1.0
  2
SOLID
 70
     1
 71
     1
 91
        1
 92
        3
 72
     0
 73
     1
 93
        4
 10
5.4249591998651043
 20
38.7520833333333456
 10
5.4249591998650999
 20
39.085417390045528
 10
5.3916258665317658
 20
39.085417390045528
 10
5.3916258665317702
 20
38.7520833333333456
 97
        1
330
DD
 75
     0
 76
     1
 98
        0
  0
LINE
  5
DF
102
{ACAD_REACTORS
330
DA
102
}
100
AcDbEntity
  8
BUILDING_ENVELOPE
  6
CONTINUOUS
 62
     7
100
AcDbLine
 10
5.424959
 20
39.085417
 30
0.0
 11
22.891716
 21
39.121806
 31
0.0
  0
LINE
  5
E0
102
{ACAD_REACTORS
330
DA
102
}
100
AcDbEntity
  8
BUILDING_ENVELOPE
  6
CONTINUOUS
 62
     7
100
AcDbLine
 10
5.424959
 20
38.752083
 30
0.0
 11
22.558383
 21
38.787778
 31
0.0
  0
LWPOLYLINE
  5
E2
102
{ACAD_REACTORS
330
E3
102
}
100
AcDbEntity
  8
BUILDING_ENVELOPE
  6
CONTINUOUS
 62
     7
100
AcDbPolyline
 90
        4
 70
     1
 10
22.891716
 20
39.121806
 10
22.891716
 20
16.168056
 10
22.558383
 20
16.501389
 10
22.558383
 20
38.787778
  0
HATCH
  5
E3
102
{ACAD_REACTORS
330
E1
102
}
100
AcDbEntity
  8
BUILDING_ENVELOPE
 62
     7
100
AcDbHatch
 10
0.0
 20
0.0
 30
0.0
210
0.0
220
0.0
230
1.0
  2
SOLID
 70
     1
 71
     1
 91
        1
 92
        3
 72
     0
 73
     1
 93
        4
 10
22.8917160589813911
 20
39.1218064668353449
 10
22.8917160589813911
 20
16.1680555555555614
 10
22.5583827256480589
 20
16.50138888888889
 10
22.5583827256480589
 20
38.7877779656787212
 97
        1
330
E2
 75
     0
 76
     1
 98
        0
  0
LINE
  5
E4
102
{ACAD_REACTORS
330
E1
102
}
100
AcDbEntity
  8
BUILDING_ENVELOPE
  6
CONTINUOUS
 62
     7
100
AcDbLine
 10
22.891716
 20
39.121806
 30
0.0
 11
22.891716
 21
16.168056
 31
0.0
  0
LINE
  5
E5
102
{ACAD_REACTORS
330
E1
102
}
100
AcDbEntity
  8
BUILDING_ENVELOPE
  6
CONTINUOUS
 62
     7
100
AcDbLine
 10
22.558383
 20
38.787778
 30
0.0
 11
22.558383
 21
16.501389
 31
0.0
  0
LWPOLYLINE
  5
E7
102
{ACAD_REACTORS
330
E8
102
}
100
AcDbEntity
  8
BUILDING_ENVELOPE
  6
CONTINUOUS
 62
     7
100
AcDbPolyline
 90
        4
 70
     1
 10
44.358292
 20
24.501389
 10
44.358292
 20
82.668057
 10
44.691626
 20
83.001391
 10
44.691626
 20
24.168056
  0
HATCH
  5
E8
102
{ACAD_REACTORS
330
E6
102
}
100
AcDbEntity
  8
BUILDING_ENVELOPE
 62
     7
100
AcDbHatch
 10
0.0
 20
0.0
 30
0.0
210
0.0
220
0.0
230
1.0
  2
SOLID
 70
     1
 71
     1
 91
        1
 92
        3
 72
     0
 73
     1
 93
        4
 10
44.3582924482618068
 20
24.5013888888889007
 10
44.3582924482618068
 20
82.6680573697723275
 10
44.6916257815951354
 20
83.0013907031056561
 10
44.6916257815951354
 20
24.1680555555555721
 97
        1
330
E7
 75
     0
 76
     1
 98
        0
  0
LINE
  5
E9
102
{ACAD_REACTORS
330
E6
102
}
100
AcDbEntity
  8
BUILDING_ENVELOPE
  6
CONTINUOUS
 62
     7
100
AcDbLine
 10
44.358292
 20
24.501389
 30
0.0
 11
44.358292
 21
82.668057
 31
0.0
  0
LINE
  5
EA
102
{ACAD_REACTORS
330
E6
102
}
100
AcDbEntity
  8
BUILDING_ENVELOPE
  6
CONTINUOUS
 62
     7
100
AcDbLine
 10
44.691626
 20
24.168056
 30
0.0
 11
44.691626
 21
83.001391
 31
0.0
  0
LWPOLYLINE
  5
EC
102
{ACAD_REACTORS
330
ED
102
}
100
AcDbEntity
  8
BUILDING_ENVELOPE
  6
CONTINUOUS
 62
     7
100
AcDbPolyline
 90
        4
 70
     1
 10
22.891716
 20
24.501389
 10
44.358292
 20
24.501389
 10
44.691626
 20
24.168056
 10
22.891716
 20
24.168056
  0
HATCH
  5
ED
102
{ACAD_REACTORS
330
EB
102
}
100
AcDbEntity
  8
BUILDING_ENVELOPE
 62
     7
100
AcDbHatch
 10
0.0
 20
0.0
 30
0.0
210
0.0
220
0.0
230
1.0
  2
SOLID
 70
     1
 71
     1
 91
        1
 92
        3
 72
     0
 73
     1
 93
        4
 10
22.8917160589813733
 20
24.50138888888889
 10
44.3582924482618068
 20
24.50138888888889
 10
44.6916257815951354
 20
24.1680555555555578
 10
22.8917160589813768
 20
24.1680555555555578
 97
        1
330
EC
 75
     0
 76
     1
 98
        0
  0
LWPOLYLINE
  5
EE
102
{ACAD_REACTORS
330
EF
102
}
100
AcDbEntity
  8
BUILDING_ENVELOPE
  6
CONTINUOUS
 62
     7
100
AcDbPolyline
 90
        4
 70
     1
 10
22.891716
 20
24.168056
 10
22.891716
 20
24.501389
 10
22.858383
 20
24.501389
 10
22.858383
 20
24.168056
  0
HATCH
  5
EF
102
{ACAD_REACTORS
330
EB
102
}
100
AcDbEntity
  8
BUILDING_ENVELOPE
 62
     7
100
AcDbHatch
 10
0.0
 20
0.0
 30
0.0
210
0.0
220
0.0
230
1.0
  2
SOLID
 70
     1
 71
     1
 91
        1
 92
        3
 72
     0
 73
     1
 93
        4
 10
22.8917160589813768
 20
24.1680555555555578
 10
22.8917160589813768
 20
24.50138888888889
 10
22.8583827256480419
 20
24.50138888888889
 10
22.8583827256480419
 20
24.1680555555555578
 97
        1
330
EE
 75
     0
 76
     1
 98
        0
  0
LINE
  5
F0
102
{ACAD_REACTORS
330
EB
102
}
100
AcDbEntity
  8
BUILDING_ENVELOPE
  6
CONTINUOUS
 62
     7
100
AcDbLine
 10
22.891716
 20
24.501389
 30
0.0
 11
44.358292
 21
24.501389
 31
0.0
  0
LINE
  5
F1
102
{ACAD_REACTORS
330
EB
102
}
100
AcDbEntity
  8
BUILDING_ENVELOPE
  6
CONTINUOUS
 62
     7
100
AcDbLine
 10
22.891716
 20
24.168056
 30
0.0
 11
44.691626
 21
24.168056
 31
0.0
  0
LWPOLYLINE
  5
F3
102
{ACAD_REACTORS
330
F4
102
}
100
AcDbEntity
  8
BUILDING_ENVELOPE
  6
CONTINUOUS
 62
     7
100
AcDbPolyline
 90
        5
 70
     1
 10
29.290082
 20
44.064176
 10
44.358292
 20
44.001392
 10
44.358292
 20
43.668056
 10
29.288693
 20
43.730846
 10
29.289387
 20
43.897511
  0
HATCH
  5
F4
102
{ACAD_REACTORS
330
F2
102
}
100
AcDbEntity
  8
BUILDING_ENVELOPE
 62
     7
100
AcDbHatch
 10
0.0
 20
0.0
 30
0.0
210
0.0
220
0.0
230
1.0
  2
SOLID
 70
     1
 71
     1
 91
        1
 92
        3
 72
     0
 73
     1
 93
        5
 10
29.2900818389744906
 20
44.0641759932667654
 10
44.3582924482618068
 20
44.0013917823949683
 10
44.3582924482618068
 20
43.6680555555556751
 10
29.2886929621417735
 20
43.7308455534142766
 10
29.2893874005581303
 20
43.897510773340521
 97
        1
330
F3
 75
     0
 76
     1
 98
        0
  0
LWPOLYLINE
  5
F5
102
{ACAD_REACTORS
330
F6
102
}
100
AcDbEntity
  8
BUILDING_ENVELOPE
  6
CONTINUOUS
 62
     7
100
AcDbPolyline
 90
        4
 70
     1
 10
44.358292
 20
44.001392
 10
44.358292
 20
43.668056
 10
44.391626
 20
43.668056
 10
44.391626
 20
44.001392
  0
HATCH
  5
F6
102
{ACAD_REACTORS
330
F2
102
}
100
AcDbEntity
  8
BUILDING_ENVELOPE
 62
     7
100
AcDbHatch
 10
0.0
 20
0.0
 30
0.0
210
0.0
220
0.0
230
1.0
  2
SOLID
 70
     1
 71
     1
 91
        1
 92
        3
 72
     0
 73
     1
 93
        4
 10
44.3582924482618068
 20
44.0013917823949683
 10
44.3582924482618139
 20
43.6680555555556751
 10
44.3916257815951454
 20
43.6680555555556751
 10
44.3916257815951383
 20
44.0013917823949683
 97
        1
330
F5
 75
     0
 76
     1
 98
        0
  0
LWPOLYLINE
  5
F7
102
{ACAD_REACTORS
330
F2
102
}
100
AcDbEntity
  8
BUILDING_ENVELOPE
  6
CONTINUOUS
 62
     7
100
AcDbPolyline
 90
        3
 70
     0
 10
29.289387
 20
43.897511
 10
29.290082
 20
44.064176
 10
44.358292
 20
44.001392
  0
LWPOLYLINE
  5
F8
102
{ACAD_REACTORS
330
F2
102
}
100
AcDbEntity
  8
BUILDING_ENVELOPE
  6
CONTINUOUS
 62
     7
100
AcDbPolyline
 90
        3
 70
     0
 10
29.289387
 20
43.897511
 10
29.288693
 20
43.730846
 10
44.358292
 20
43.668056
  0
LWPOLYLINE
  5
FA
102
{ACAD_REACTORS
330
FB
102
}
100
AcDbEntity
  8
BUILDING_ENVELOPE
  6
CONTINUOUS
 62
     7
100
AcDbPolyline
 90
        4
 70
     1
 10
5.424959
 20
53.001389
 10
21.791626
 20
53.001389
 10
22.124959
 20
52.668056
 10
5.424959
 20
52.668056
  0
HATCH
  5
FB
102
{ACAD_REACTORS
330
F9
102
}
100
AcDbEntity
  8
BUILDING_ENVELOPE
 62
     7
100
AcDbHatch
 10
0.0
 20
0.0
 30
0.0
210
0.0
220
0.0
230
1.0
  2
SOLID
 70
     1
 71
     1
 91
        1
 92
        3
 72
     0
 73
     1
 93
        4
 10
5.4249591998651034
 20
53.0013888888888971
 10
21.7916257815951333
 20
53.0013888888888971
 10
22.1249591149284726
 20
52.6680555555555614
 10
5.4249591998651079
 20
52.6680555555555614
 97
        1
330
FA
 75
     0
 76
     1
 98
        0
  0
LWPOLYLINE
  5
FC
102
{ACAD_REACTORS
330
FD
102
}
100
AcDbEntity
  8
BUILDING_ENVELOPE
  6
CONTINUOUS
 62
     7
100
AcDbPolyline
 90
        4
 70
     1
 10
5.424959
 20
52.668056
 10
5.424959
 20
53.001389
 10
5.391626
 20
53.001389
 10
5.391626
 20
52.668056
  0
HATCH
  5
FD
102
{ACAD_REACTORS
330
F9
102
}
100
AcDbEntity
  8
BUILDING_ENVELOPE
 62
     7
100
AcDbHatch
 10
0.0
 20
0.0
 30
0.0
210
0.0
220
0.0
230
1.0
  2
SOLID
 70
     1
 71
     1
 91
        1
 92
        3
 72
     0
 73
     1
 93
        4
 10
5.4249591998651052
 20
52.6680555555555614
 10
5.4249591998651052
 20
53.0013888888888971
 10
5.391625866531772
 20
53.0013888888888971
 10
5.391625866531772
 20
52.6680555555555614
 97
        1
330
FC
 75
     0
 76
     1
 98
        0
  0
LINE
  5
FE
102
{ACAD_REACTORS
330
F9
102
}
100
AcDbEntity
  8
BUILDING_ENVELOPE
  6
CONTINUOUS
 62
     7
100
AcDbLine
 10
5.424959
 20
53.001389
 30
0.0
 11
21.791626
 21
53.001389
 31
0.0
  0
LINE
  5
FF
102
{ACAD_REACTORS
330
F9
102
}
100
AcDbEntity
  8
BUILDING_ENVELOPE
  6
CONTINUOUS
 62
     7
100
AcDbLine
 10
5.424959
 20
52.668056
 30
0.0
 11
22.124959
 21
52.668056
 31
0.0
  0
LWPOLYLINE
  5
101
102
{ACAD_REACTORS
330
102
102
}
100
AcDbEntity
  8
BUILDING_ENVELOPE
  6
CONTINUOUS
 62
     7
100
AcDbPolyline
 90
        4
 70
     1
 10
22.124959
 20
82.668057
 10
22.124959
 20
52.668056
 10
21.791626
 20
53.001389
 10
21.791626
 20
82.668057
  0
HATCH
  5
102
102
{ACAD_REACTORS
330
100
102
}
100
AcDbEntity
  8
BUILDING_ENVELOPE
 62
     7
100
AcDbHatch
 10
0.0
 20
0.0
 30
0.0
210
0.0
220
0.0
230
1.0
  2
SOLID
 70
     1
 71
     1
 91
        1
 92
        3
 72
     0
 73
     1
 93
        4
 10
22.1249591149284655
 20
82.6680573697722991
 10
22.1249591149284655
 20
52.6680555555555543
 10
21.7916257815951333
 20
53.0013888888888829
 10
21.7916257815951333
 20
82.6680573697722991
 97
        1
330
101
 75
     0
 76
     1
 98
        0
  0
LWPOLYLINE
  5
103
102
{ACAD_REACTORS
330
104
102
}
100
AcDbEntity
  8
BUILDING_ENVELOPE
  6
CONTINUOUS
 62
     7
100
AcDbPolyline
 90
        4
 70
     1
 10
21.791626
 20
82.668057
 10
22.124959
 20
82.668057
 10
22.124959
 20
82.701391
 10
21.791626
 20
82.701391
  0
HATCH
  5
104
102
{ACAD_REACTORS
330
100
102
}
100
AcDbEntity
  8
BUILDING_ENVELOPE
 62
     7
100
AcDbHatch
 10
0.0
 20
0.0
 30
0.0
210
0.0
220
0.0
230
1.0
  2
SOLID
 70
     1
 71
     1
 91
        1
 92
        3
 72
     0
 73
     1
 93
        4
 10
21.7916257815951333
 20
82.6680573697722991
 10
22.1249591149284655
 20
82.6680573697722991
 10
22.1249591149284655
 20
82.7013907031056306
 10
21.7916257815951333
 20
82.7013907031056306
 97
        1
330
103
 75
     0
 76
     1
 98
        0
  0
LINE
  5
105
102
{ACAD_REACTORS
330
100
102
}
100
AcDbEntity
  8
BUILDING_ENVELOPE
  6
CONTINUOUS
 62
     7
100
AcDbLine
 10
22.124959
 20
82.668057
 30
0.0
 11
22.124959
 21
52.668056
 31
0.0
  0
LINE
  5
106
102
{ACAD_REACTORS
330
100
102
}
100
AcDbEntity
  8
BUILDING_ENVELOPE
  6
CONTINUOUS
 62
     7
100
AcDbLine
 10
21.791626
 20
82.668057
 30
0.0
 11
21.791626
 21
53.001389
 31
0.0
  0
LWPOLYLINE
  5
108
102
{ACAD_REACTORS
330
109
102
}
100
AcDbEntity
  8
BUILDING_ENVELOPE
  6
CONTINUOUS
 62
     7
100
AcDbPolyline
 90
        4
 70
     1
 10
5.424959
 20
62.350694
 10
21.791626
 20
62.350694
 10
21.791626
 20
62.017361
 10
5.424959
 20
62.017361
  0
HATCH
  5
109
102
{ACAD_REACTORS
330
107
102
}
100
AcDbEntity
  8
BUILDING_ENVELOPE
 62
     7
100
AcDbHatch
 10
0.0
 20
0.0
 30
0.0
210
0.0
220
0.0
230
1.0
  2
SOLID
 70
     1
 71
     1
 91
        1
 92
        3
 72
     0
 73
     1
 93
        4
 10
5.4249591998651052
 20
62.3506944444446063
 10
21.7916257815951333
 20
62.3506944444446063
 10
21.7916257815951333
 20
62.0173611111112706
 10
5.4249591998651079
 20
62.0173611111112706
 97
        1
330
108
 75
     0
 76
     1
 98
        0
  0
LWPOLYLINE
  5
10A
102
{ACAD_REACTORS
330
10B
102
}
100
AcDbEntity
  8
BUILDING_ENVELOPE
  6
CONTINUOUS
 62
     7
100
AcDbPolyline
 90
        4
 70
     1
 10
5.424959
 20
62.017361
 10
5.424959
 20
62.350694
 10
5.391626
 20
62.350694
 10
5.391626
 20
62.017361
  0
HATCH
  5
10B
102
{ACAD_REACTORS
330
107
102
}
100
AcDbEntity
  8
BUILDING_ENVELOPE
 62
     7
100
AcDbHatch
 10
0.0
 20
0.0
 30
0.0
210
0.0
220
0.0
230
1.0
  2
SOLID
 70
     1
 71
     1
 91
        1
 92
        3
 72
     0
 73
     1
 93
        4
 10
5.424959199865107
 20
62.0173611111112706
 10
5.424959199865107
 20
62.3506944444446063
 10
5.3916258665317729
 20
62.3506944444446063
 10
5.3916258665317729
 20
62.0173611111112706
 97
        1
330
10A
 75
     0
 76
     1
 98
        0
  0
LWPOLYLINE
  5
10C
102
{ACAD_REACTORS
330
10D
102
}
100
AcDbEntity
  8
BUILDING_ENVELOPE
  6
CONTINUOUS
 62
     7
100
AcDbPolyline
 90
        4
 70
     1
 10
21.791626
 20
62.350694
 10
21.791626
 20
62.017361
 10
21.824959
 20
62.017361
 10
21.824959
 20
62.350694
  0
HATCH
  5
10D
102
{ACAD_REACTORS
330
107
102
}
100
AcDbEntity
  8
BUILDING_ENVELOPE
 62
     7
100
AcDbHatch
 10
0.0
 20
0.0
 30
0.0
210
0.0
220
0.0
230
1.0
  2
SOLID
 70
     1
 71
     1
 91
        1
 92
        3
 72
     0
 73
     1
 93
        4
 10
21.7916257815951333
 20
62.3506944444446063
 10
21.7916257815951333
 20
62.0173611111112706
 10
21.8249591149284647
 20
62.0173611111112706
 10
21.8249591149284647
 20
62.3506944444446063
 97
        1
330
10C
 75
     0
 76
     1
 98
        0
  0
LINE
  5
10E
102
{ACAD_REACTORS
330
107
102
}
100
AcDbEntity
  8
BUILDING_ENVELOPE
  6
CONTINUOUS
 62
     7
100
AcDbLine
 10
5.424959
 20
62.350694
 30
0.0
 11
21.791626
 21
62.350694
 31
0.0
  0
LINE
  5
10F
102
{ACAD_REACTORS
330
107
102
}
100
AcDbEntity
  8
BUILDING_ENVELOPE
  6
CONTINUOUS
 62
     7
100
AcDbLine
 10
5.424959
 20
62.017361
 30
0.0
 11
21.791626
 21
62.017361
 31
0.0
  0
LWPOLYLINE
  5
111
102
{ACAD_REACTORS
330
112
102
}
100
AcDbEntity
  8
BUILDING_ENVELOPE
  6
CONTINUOUS
 62
     7
100
AcDbPolyline
 90
        4
 70
     1
 10
30.95536
 20
64.001389
 10
44.358292
 20
64.001389
 10
44.358292
 20
63.668056
 10
31.288693
 20
63.668056
  0
HATCH
  5
112
102
{ACAD_REACTORS
330
110
102
}
100
AcDbEntity
  8
BUILDING_ENVELOPE
 62
     7
100
AcDbHatch
 10
0.0
 20
0.0
 30
0.0
210
0.0
220
0.0
230
1.0
  2
SOLID
 70
     1
 71
     1
 91
        1
 92
        3
 72
     0
 73
     1
 93
        4
 10
30.9553596288082602
 20
64.0013888888888971
 10
44.3582924482618068
 20
64.0013888888888971
 10
44.3582924482618068
 20
63.6680555555555614
 10
31.2886929621415959
 20
63.6680555555555614
 97
        1
330
111
 75
     0
 76
     1
 98
        0
  0
LWPOLYLINE
  5
113
102
{ACAD_REACTORS
330
114
102
}
100
AcDbEntity
  8
BUILDING_ENVELOPE
  6
CONTINUOUS
 62
     7
100
AcDbPolyline
 90
        4
 70
     1
 10
44.358292
 20
64.001389
 10
44.358292
 20
63.668056
 10
44.391626
 20
63.668056
 10
44.391626
 20
64.001389
  0
HATCH
  5
114
102
{ACAD_REACTORS
330
110
102
}
100
AcDbEntity
  8
BUILDING_ENVELOPE
 62
     7
100
AcDbHatch
 10
0.0
 20
0.0
 30
0.0
210
0.0
220
0.0
230
1.0
  2
SOLID
 70
     1
 71
     1
 91
        1
 92
        3
 72
     0
 73
     1
 93
        4
 10
44.3582924482618068
 20
64.0013888888888971
 10
44.3582924482618068
 20
63.6680555555555614
 10
44.3916257815951454
 20
63.6680555555555614
 10
44.3916257815951454
 20
64.0013888888888971
 97
        1
330
113
 75
     0
 76
     1
 98
        0
  0
LINE
  5
115
102
{ACAD_REACTORS
330
110
102
}
100
AcDbEntity
  8
BUILDING_ENVELOPE
  6
CONTINUOUS
 62
     7
100
AcDbLine
 10
30.95536
 20
64.001389
 30
0.0
 11
44.358292
 21
64.001389
 31
0.0
  0
LINE
  5
116
102
{ACAD_REACTORS
330
110
102
}
100
AcDbEntity
  8
BUILDING_ENVELOPE
  6
CONTINUOUS
 62
     7
100
AcDbLine
 10
31.288693
 20
63.668056
 30
0.0
 11
44.358292
 21
63.668056
 31
0.0
  0
LWPOLYLINE
  5
118
102
{ACAD_REACTORS
330
119
102
}
100
AcDbEntity
  8
BUILDING_ENVELOPE
  6
CONTINUOUS
 62
     7
100
AcDbPolyline
 90
        4
 70
     1
 10
11.624959
 20
62.017361
 10
11.624959
 20
53.001389
 10
11.291626
 20
53.001389
 10
11.291626
 20
62.017361
  0
HATCH
  5
119
102
{ACAD_REACTORS
330
117
102
}
100
AcDbEntity
  8
BUILDING_ENVELOPE
 62
     7
100
AcDbHatch
 10
0.0
 20
0.0
 30
0.0
210
0.0
220
0.0
230
1.0
  2
SOLID
 70
     1
 71
     1
 91
        1
 92
        3
 72
     0
 73
     1
 93
        4
 10
11.6249591149284832
 20
62.0173611111112635
 10
11.6249591149284832
 20
53.0013888888888971
 10
11.2916257815951511
 20
53.0013888888888971
 10
11.2916257815951511
 20
62.0173611111112635
 97
        1
330
118
 75
     0
 76
     1
 98
        0
  0
LWPOLYLINE
  5
11A
102
{ACAD_REACTORS
330
11B
102
}
100
AcDbEntity
  8
BUILDING_ENVELOPE
  6
CONTINUOUS
 62
     7
100
AcDbPolyline
 90
        4
 70
     1
 10
11.291626
 20
62.017361
 10
11.624959
 20
62.017361
 10
11.624959
 20
62.050694
 10
11.291626
 20
62.050694
  0
HATCH
  5
11B
102
{ACAD_REACTORS
330
117
102
}
100
AcDbEntity
  8
BUILDING_ENVELOPE
 62
     7
100
AcDbHatch
 10
0.0
 20
0.0
 30
0.0
210
0.0
220
0.0
230
1.0
  2
SOLID
 70
     1
 71
     1
 91
        1
 92
        3
 72
     0
 73
     1
 93
        4
 10
11.2916257815951511
 20
62.0173611111112635
 10
11.6249591149284832
 20
62.0173611111112635
 10
11.6249591149284832
 20
62.0506944444445949
 10
11.2916257815951511
 20
62.0506944444445949
 97
        1
330
11A
 75
     0
 76
     1
 98
        0
  0
LWPOLYLINE
  5
11C
102
{ACAD_REACTORS
330
11D
102
}
100
AcDbEntity
  8
BUILDING_ENVELOPE
  6
CONTINUOUS
 62
     7
100
AcDbPolyline
 90
        4
 70
     1
 10
11.624959
 20
53.001389
 10
11.291626
 20
53.001389
 10
11.291626
 20
52.968056
 10
11.624959
 20
52.968056
  0
HATCH
  5
11D
102
{ACAD_REACTORS
330
117
102
}
100
AcDbEntity
  8
BUILDING_ENVELOPE
 62
     7
100
AcDbHatch
 10
0.0
 20
0.0
 30
0.0
210
0.0
220
0.0
230
1.0
  2
SOLID
 70
     1
 71
     1
 91
        1
 92
        3
 72
     0
 73
     1
 93
        4
 10
11.6249591149284832
 20
53.0013888888888971
 10
11.2916257815951511
 20
53.0013888888888971
 10
11.2916257815951511
 20
52.9680555555555657
 10
11.6249591149284832
 20
52.9680555555555657
 97
        1
330
11C
 75
     0
 76
     1
 98
        0
  0
LINE
  5
11E
102
{ACAD_REACTORS
330
117
102
}
100
AcDbEntity
  8
BUILDING_ENVELOPE
  6
CONTINUOUS
 62
     7
100
AcDbLine
 10
11.624959
 20
62.017361
 30
0.0
 11
11.624959
 21
53.001389
 31
0.0
  0
LINE
  5
11F
102
{ACAD_REACTORS
330
117
102
}
100
AcDbEntity
  8
BUILDING_ENVELOPE
  6
CONTINUOUS
 62
     7
100
AcDbLine
 10
11.291626
 20
62.017361
 30
0.0
 11
11.291626
 21
53.001389
 31
0.0
  0
LWPOLYLINE
  5
121
102
{ACAD_REACTORS
330
122
102
}
100
AcDbEntity
  8
BUILDING_ENVELOPE
  6
CONTINUOUS
 62
     7
100
AcDbPolyline
 90
        4
 70
     1
 10
31.288693
 20
63.668056
 10
31.288693
 20
24.501389
 10
30.95536
 20
24.501389
 10
30.95536
 20
64.001389
  0
HATCH
  5
122
102
{ACAD_REACTORS
330
120
102
}
100
AcDbEntity
  8
BUILDING_ENVELOPE
 62
     7
100
AcDbHatch
 10
0.0
 20
0.0
 30
0.0
210
0.0
220
0.0
230
1.0
  2
SOLID
 70
     1
 71
     1
 91
        1
 92
        3
 72
     0
 73
     1
 93
        4
 10
31.2886929621415675
 20
63.6680555555555543
 10
31.2886929621415675
 20
24.5013888888888864
 10
30.9553596288082318
 20
24.5013888888888864
 10
30.9553596288082318
 20
64.0013888888888829
 97
        1
330
121
 75
     0
 76
     1
 98
        0
  0
LWPOLYLINE
  5
123
102
{ACAD_REACTORS
330
124
102
}
100
AcDbEntity
  8
BUILDING_ENVELOPE
  6
CONTINUOUS
 62
     7
100
AcDbPolyline
 90
        4
 70
     1
 10
31.288693
 20
24.501389
 10
30.95536
 20
24.501389
 10
30.95536
 20
24.468056
 10
31.288693
 20
24.468056
  0
HATCH
  5
124
102
{ACAD_REACTORS
330
120
102
}
100
AcDbEntity
  8
BUILDING_ENVELOPE
 62
     7
100
AcDbHatch
 10
0.0
 20
0.0
 30
0.0
210
0.0
220
0.0
230
1.0
  2
SOLID
 70
     1
 71
     1
 91
        1
 92
        3
 72
     0
 73
     1
 93
        4
 10
31.2886929621415675
 20
24.5013888888888864
 10
30.9553596288082318
 20
24.5013888888888864
 10
30.9553596288082318
 20
24.468055555555555
 10
31.2886929621415675
 20
24.468055555555555
 97
        1
330
123
 75
     0
 76
     1
 98
        0
  0
LINE
  5
125
102
{ACAD_REACTORS
330
120
102
}
100
AcDbEntity
  8
BUILDING_ENVELOPE
  6
CONTINUOUS
 62
     7
100
AcDbLine
 10
31.288693
 20
63.668056
 30
0.0
 11
31.288693
 21
24.501389
 31
0.0
  0
LINE
  5
126
102
{ACAD_REACTORS
330
120
102
}
100
AcDbEntity
  8
BUILDING_ENVELOPE
  6
CONTINUOUS
 62
     7
100
AcDbLine
 10
30.95536
 20
64.001389
 30
0.0
 11
30.95536
 21
24.501389
 31
0.0
  0
LWPOLYLINE
  5
128
102
{ACAD_REACTORS
330
12E
102
}
100
AcDbEntity
  8
BUILDING_ENVELOPE
  6
CONTINUOUS
 62
     7
100
AcDbPolyline
 90
        4
 70
     1
 10
8.824959
 20
62.358694
 10
5.991626
 20
62.358694
 10
5.991626
 20
62.009361
 10
8.824959
 20
62.009361
  0
LINE
  5
129
102
{ACAD_REACTORS
330
12E
102
}
100
AcDbEntity
  8
BUILDING_ENVELOPE
  6
CONTINUOUS
 62
     7
100
AcDbLine
 10
5.991626
 20
62.350694
 30
0.0
 11
5.991626
 21
62.017361
 31
0.0
  0
LINE
  5
12A
102
{ACAD_REACTORS
330
12E
102
}
100
AcDbEntity
  8
BUILDING_ENVELOPE
  6
CONTINUOUS
 62
     7
100
AcDbLine
 10
5.991626
 20
62.017361
 30
0.0
 11
6.158292
 21
62.017361
 31
0.0
  0
LINE
  5
12B
102
{ACAD_REACTORS
330
12E
102
}
100
AcDbEntity
  8
BUILDING_ENVELOPE
  6
CONTINUOUS
 62
     7
100
AcDbLine
 10
6.158292
 20
62.017361
 30
0.0
 11
6.158292
 21
62.142361
 31
0.0
  0
LINE
  5
12C
102
{ACAD_REACTORS
330
12E
102
}
100
AcDbEntity
  8
BUILDING_ENVELOPE
  6
CONTINUOUS
 62
     7
100
AcDbLine
 10
6.158292
 20
62.267361
 30
0.0
 11
6.158292
 21
62.350694
 31
0.0
  0
LINE
  5
12D
102
{ACAD_REACTORS
330
12E
102
}
100
AcDbEntity
  8
BUILDING_ENVELOPE
  6
CONTINUOUS
 62
     7
100
AcDbLine
 10
6.158292
 20
62.350694
 30
0.0
 11
5.991626
 21
62.350694
 31
0.0
  0
HATCH
  5
12E
102
{ACAD_REACTORS
330
127
102
}
100
AcDbEntity
  8
BUILDING_ENVELOPE
 62
     7
100
AcDbHatch
 10
0.0
 20
0.0
 30
0.0
210
0.0
220
0.0
230
1.0
  2
SOLID
 70
     1
 71
     1
 91
        2
 92
        1
 93
        6
 72
     1
 10
5.9916257815948031
 20
62.3506944444445779
 11
5.9916257815948031
 21
62.0173611111112422
 72
     1
 10
5.9916257815948031
 20
62.0173611111112422
 11
6.15829244826147
 21
62.0173611111112422
 72
     1
 10
6.15829244826147
 20
62.0173611111112422
 11
6.15829244826147
 21
62.1423611111112422
 72
     1
 10
6.15829244826147
 20
62.1423611111112422
 11
6.15829244826147
 21
62.2673611111112422
 72
     1
 10
6.15829244826147
 20
62.2673611111112422
 11
6.15829244826147
 21
62.3506944444445779
 72
     1
 10
6.15829244826147
 20
62.3506944444445779
 11
5.9916257815948031
 21
62.3506944444445779
 97
        6
330
128
330
129
330
12A
330
12B
330
12C
330
12D
 92
        1
 93
        6
 72
     1
 10
8.8249591149281361
 20
62.3506944444445779
 11
8.8249591149281361
 21
62.0173611111112422
 72
     1
 10
8.8249591149281361
 20
62.0173611111112422
 11
8.65829244826147
 21
62.0173611111112422
 72
     1
 10
8.65829244826147
 20
62.0173611111112422
 11
8.65829244826147
 21
62.1423611111112422
 72
     1
 10
8.65829244826147
 20
62.1423611111112422
 11
8.65829244826147
 21
62.2673611111112422
 72
     1
 10
8.65829244826147
 20
62.2673611111112422
 11
8.65829244826147
 21
62.3506944444445779
 72
     1
 10
8.65829244826147
 20
62.3506944444445779
 11
8.8249591149281361
 21
62.3506944444445779
 97
        5
330
12F
330
130
330
131
330
132
330
133
 75
     0
 76
     1
 98
        0
  0
LINE
  5
12F
102
{ACAD_REACTORS
330
12E
102
}
100
AcDbEntity
  8
BUILDING_ENVELOPE
  6
CONTINUOUS
 62
     7
100
AcDbLine
 10
8.824959
 20
62.350694
 30
0.0
 11
8.824959
 21
62.017361
 31
0.0
  0
LINE
  5
130
102
{ACAD_REACTORS
330
12E
102
}
100
AcDbEntity
  8
BUILDING_ENVELOPE
  6
CONTINUOUS
 62
     7
100
AcDbLine
 10
8.824959
 20
62.017361
 30
0.0
 11
8.658292
 21
62.017361
 31
0.0
  0
LINE
  5
131
102
{ACAD_REACTORS
330
12E
102
}
100
AcDbEntity
  8
BUILDING_ENVELOPE
  6
CONTINUOUS
 62
     7
100
AcDbLine
 10
8.658292
 20
62.017361
 30
0.0
 11
8.658292
 21
62.142361
 31
0.0
  0
LINE
  5
132
102
{ACAD_REACTORS
330
12E
102
}
100
AcDbEntity
  8
BUILDING_ENVELOPE
  6
CONTINUOUS
 62
     7
100
AcDbLine
 10
8.658292
 20
62.267361
 30
0.0
 11
8.658292
 21
62.350694
 31
0.0
  0
LINE
  5
133
102
{ACAD_REACTORS
330
12E
102
}
100
AcDbEntity
  8
BUILDING_ENVELOPE
  6
CONTINUOUS
 62
     7
100
AcDbLine
 10
8.658292
 20
62.350694
 30
0.0
 11
8.824959
 21
62.350694
 31
0.0
  0
LINE
  5
134
102
{ACAD_REACTORS
330
137
102
}
100
AcDbEntity
  8
BUILDING_ENVELOPE
  6
CONTINUOUS
 62
     7
100
AcDbLine
 10
6.158292
 20
62.142361
 30
0.0
 11
6.199959
 21
62.142361
 31
0.0
  0
LINE
  5
135
102
{ACAD_REACTORS
330
137
102
}
100
AcDbEntity
  8
BUILDING_ENVELOPE
  6
CONTINUOUS
 62
     7
100
AcDbLine
 10
6.199959
 20
62.142361
 30
0.0
 11
6.199959
 21
62.267361
 31
0.0
  0
LINE
  5
136
102
{ACAD_REACTORS
330
137
102
}
100
AcDbEntity
  8
BUILDING_ENVELOPE
  6
CONTINUOUS
 62
     7
100
AcDbLine
 10
6.199959
 20
62.267361
 30
0.0
 11
6.158292
 21
62.267361
 31
0.0
  0
HATCH
  5
137
102
{ACAD_REACTORS
330
127
102
}
100
AcDbEntity
  8
BUILDING_ENVELOPE
 62
     7
100
AcDbHatch
 10
0.0
 20
0.0
 30
0.0
210
0.0
220
0.0
230
1.0
  2
SOLID
 70
     1
 71
     1
 91
        2
 92
        1
 93
        4
 72
     1
 10
6.15829244826147
 20
62.1423611111112422
 11
6.1999591149281361
 21
62.1423611111112422
 72
     1
 10
6.1999591149281361
 20
62.1423611111112422
 11
6.1999591149281361
 21
62.2673611111112422
 72
     1
 10
6.1999591149281361
 20
62.2673611111112422
 11
6.15829244826147
 21
62.2673611111112422
 72
     1
 10
6.15829244826147
 20
62.2673611111112422
 11
6.15829244826147
 21
62.1423611111112422
 97
        3
330
134
330
135
330
136
 92
        1
 93
        4
 72
     1
 10
8.65829244826147
 20
62.1423611111112422
 11
8.6166257815948022
 21
62.1423611111112422
 72
     1
 10
8.6166257815948022
 20
62.1423611111112422
 11
8.6166257815948022
 21
62.2673611111112422
 72
     1
 10
8.6166257815948022
 20
62.2673611111112422
 11
8.65829244826147
 21
62.2673611111112422
 72
     1
 10
8.65829244826147
 20
62.2673611111112422
 11
8.65829244826147
 21
62.1423611111112422
 97
        3
330
138
330
139
330
13A
 75
     0
 76
     1
 98
        0
  0
LINE
  5
138
102
{ACAD_REACTORS
330
137
102
}
100
AcDbEntity
  8
BUILDING_ENVELOPE
  6
CONTINUOUS
 62
     7
100
AcDbLine
 10
8.658292
 20
62.142361
 30
0.0
 11
8.616626
 21
62.142361
 31
0.0
  0
LINE
  5
139
102
{ACAD_REACTORS
330
137
102
}
100
AcDbEntity
  8
BUILDING_ENVELOPE
  6
CONTINUOUS
 62
     7
100
AcDbLine
 10
8.616626
 20
62.142361
 30
0.0
 11
8.616626
 21
62.267361
 31
0.0
  0
LINE
  5
13A
102
{ACAD_REACTORS
330
137
102
}
100
AcDbEntity
  8
BUILDING_ENVELOPE
  6
CONTINUOUS
 62
     7
100
AcDbLine
 10
8.616626
 20
62.267361
 30
0.0
 11
8.658292
 21
62.267361
 31
0.0
  0
LINE
  5
13B
102
{ACAD_REACTORS
330
127
102
}
100
AcDbEntity
  8
BUILDING_ENVELOPE
  6
CONTINUOUS
 62
     7
100
AcDbLine
 10
5.991626
 20
62.350694
 30
0.0
 11
5.991626
 21
62.017361
 31
0.0
  0
LINE
  5
13C
102
{ACAD_REACTORS
330
127
102
}
100
AcDbEntity
  8
BUILDING_ENVELOPE
  6
CONTINUOUS
 62
     7
100
AcDbLine
 10
8.824959
 20
62.350694
 30
0.0
 11
8.824959
 21
62.017361
 31
0.0
  0
ARC
  5
13D
102
{ACAD_REACTORS
330
127
102
}
100
AcDbEntity
  8
BUILDING_ENVELOPE
  6
CONTINUOUS
 62
     7
100
AcDbCircle
 10
6.158292
 20
62.017361
 30
0.0
 40
2.5
100
AcDbArc
 50
270.0
 51
0.0
  0
LWPOLYLINE
  5
13E
102
{ACAD_REACTORS
330
13F
102
}
100
AcDbEntity
  8
BUILDING_ENVELOPE
  6
CONTINUOUS
 62
     7
100
AcDbPolyline
 90
        4
 70
     1
 10
6.283292
 20
59.517361
 10
6.283292
 20
62.017361
 10
6.158292
 20
62.017361
 10
6.158292
 20
59.517361
  0
HATCH
  5
13F
102
{ACAD_REACTORS
330
127
102
}
100
AcDbEntity
  8
BUILDING_ENVELOPE
 62
     7
100
AcDbHatch
 10
0.0
 20
0.0
 30
0.0
210
0.0
220
0.0
230
1.0
  2
SOLID
 70
     1
 71
     1
 91
        1
 92
        3
 72
     0
 73
     1
 93
        4
 10
6.28329244826147
 20
59.5173611111112422
 10
6.28329244826147
 20
62.0173611111112422
 10
6.15829244826147
 20
62.0173611111112422
 10
6.15829244826147
 20
59.5173611111112422
 97
        1
330
13E
 75
     0
 76
     1
 98
        0
  0
LWPOLYLINE
  5
141
102
{ACAD_REACTORS
330
147
102
}
100
AcDbEntity
  8
BUILDING_ENVELOPE
  6
CONTINUOUS
 62
     7
100
AcDbPolyline
 90
        4
 70
     1
 10
24.424959
 20
24.160056
 10
29.758292
 20
24.160056
 10
29.758292
 20
24.509389
 10
24.424959
 20
24.509389
  0
LINE
  5
142
102
{ACAD_REACTORS
330
147
102
}
100
AcDbEntity
  8
BUILDING_ENVELOPE
  6
CONTINUOUS
 62
     7
100
AcDbLine
 10
29.758292
 20
24.168056
 30
0.0
 11
29.758292
 21
24.501389
 31
0.0
  0
LINE
  5
143
102
{ACAD_REACTORS
330
147
102
}
100
AcDbEntity
  8
BUILDING_ENVELOPE
  6
CONTINUOUS
 62
     7
100
AcDbLine
 10
29.758292
 20
24.501389
 30
0.0
 11
29.591626
 21
24.501389
 31
0.0
  0
LINE
  5
144
102
{ACAD_REACTORS
330
147
102
}
100
AcDbEntity
  8
BUILDING_ENVELOPE
  6
CONTINUOUS
 62
     7
100
AcDbLine
 10
29.591626
 20
24.501389
 30
0.0
 11
29.591626
 21
24.376389
 31
0.0
  0
LINE
  5
145
102
{ACAD_REACTORS
330
147
102
}
100
AcDbEntity
  8
BUILDING_ENVELOPE
  6
CONTINUOUS
 62
     7
100
AcDbLine
 10
29.591626
 20
24.251389
 30
0.0
 11
29.591626
 21
24.168056
 31
0.0
  0
LINE
  5
146
102
{ACAD_REACTORS
330
147
102
}
100
AcDbEntity
  8
BUILDING_ENVELOPE
  6
CONTINUOUS
 62
     7
100
AcDbLine
 10
29.591626
 20
24.168056
 30
0.0
 11
29.758292
 21
24.168056
 31
0.0
  0
HATCH
  5
147
102
{ACAD_REACTORS
330
140
102
}
100
AcDbEntity
  8
BUILDING_ENVELOPE
 62
     7
100
AcDbHatch
 10
0.0
 20
0.0
 30
0.0
210
0.0
220
0.0
230
1.0
  2
SOLID
 70
     1
 71
     1
 91
        2
 92
        1
 93
        6
 72
     1
 10
29.7582924482614999
 20
24.1680555555555578
 11
29.7582924482614999
 21
24.50138888888889
 72
     1
 10
29.7582924482614999
 20
24.50138888888889
 11
29.591625781594832
 21
24.50138888888889
 72
     1
 10
29.591625781594832
 20
24.50138888888889
 11
29.591625781594832
 21
24.37638888888889
 72
     1
 10
29.591625781594832
 20
24.37638888888889
 11
29.591625781594832
 21
24.25138888888889
 72
     1
 10
29.591625781594832
 20
24.25138888888889
 11
29.591625781594832
 21
24.1680555555555578
 72
     1
 10
29.591625781594832
 20
24.1680555555555578
 11
29.7582924482614999
 21
24.1680555555555578
 97
        6
330
141
330
142
330
143
330
144
330
145
330
146
 92
        1
 93
        6
 72
     1
 10
24.4249591149281642
 20
24.1680555555555578
 11
24.4249591149281642
 21
24.50138888888889
 72
     1
 10
24.4249591149281642
 20
24.50138888888889
 11
24.591625781594832
 21
24.50138888888889
 72
     1
 10
24.591625781594832
 20
24.50138888888889
 11
24.591625781594832
 21
24.37638888888889
 72
     1
 10
24.591625781594832
 20
24.37638888888889
 11
24.591625781594832
 21
24.25138888888889
 72
     1
 10
24.591625781594832
 20
24.25138888888889
 11
24.591625781594832
 21
24.1680555555555578
 72
     1
 10
24.591625781594832
 20
24.1680555555555578
 11
24.4249591149281642
 21
24.1680555555555578
 97
        5
330
148
330
149
330
14A
330
14B
330
14C
 75
     0
 76
     1
 98
        0
  0
LINE
  5
148
102
{ACAD_REACTORS
330
147
102
}
100
AcDbEntity
  8
BUILDING_ENVELOPE
  6
CONTINUOUS
 62
     7
100
AcDbLine
 10
24.424959
 20
24.168056
 30
0.0
 11
24.424959
 21
24.501389
 31
0.0
  0
LINE
  5
149
102
{ACAD_REACTORS
330
147
102
}
100
AcDbEntity
  8
BUILDING_ENVELOPE
  6
CONTINUOUS
 62
     7
100
AcDbLine
 10
24.424959
 20
24.501389
 30
0.0
 11
24.591626
 21
24.501389
 31
0.0
  0
LINE
  5
14A
102
{ACAD_REACTORS
330
147
102
}
100
AcDbEntity
  8
BUILDING_ENVELOPE
  6
CONTINUOUS
 62
     7
100
AcDbLine
 10
24.591626
 20
24.501389
 30
0.0
 11
24.591626
 21
24.376389
 31
0.0
  0
LINE
  5
14B
102
{ACAD_REACTORS
330
147
102
}
100
AcDbEntity
  8
BUILDING_ENVELOPE
  6
CONTINUOUS
 62
     7
100
AcDbLine
 10
24.591626
 20
24.251389
 30
0.0
 11
24.591626
 21
24.168056
 31
0.0
  0
LINE
  5
14C
102
{ACAD_REACTORS
330
147
102
}
100
AcDbEntity
  8
BUILDING_ENVELOPE
  6
CONTINUOUS
 62
     7
100
AcDbLine
 10
24.591626
 20
24.168056
 30
0.0
 11
24.424959
 21
24.168056
 31
0.0
  0
LINE
  5
14D
102
{ACAD_REACTORS
330
150
102
}
100
AcDbEntity
  8
BUILDING_ENVELOPE
  6
CONTINUOUS
 62
     7
100
AcDbLine
 10
29.591626
 20
24.376389
 30
0.0
 11
29.549959
 21
24.376389
 31
0.0
  0
LINE
  5
14E
102
{ACAD_REACTORS
330
150
102
}
100
AcDbEntity
  8
BUILDING_ENVELOPE
  6
CONTINUOUS
 62
     7
100
AcDbLine
 10
29.549959
 20
24.376389
 30
0.0
 11
29.549959
 21
24.251389
 31
0.0
  0
LINE
  5
14F
102
{ACAD_REACTORS
330
150
102
}
100
AcDbEntity
  8
BUILDING_ENVELOPE
  6
CONTINUOUS
 62
     7
100
AcDbLine
 10
29.549959
 20
24.251389
 30
0.0
 11
29.591626
 21
24.251389
 31
0.0
  0
HATCH
  5
150
102
{ACAD_REACTORS
330
140
102
}
100
AcDbEntity
  8
BUILDING_ENVELOPE
 62
     7
100
AcDbHatch
 10
0.0
 20
0.0
 30
0.0
210
0.0
220
0.0
230
1.0
  2
SOLID
 70
     1
 71
     1
 91
        2
 92
        1
 93
        4
 72
     1
 10
29.591625781594832
 20
24.37638888888889
 11
29.5499591149281642
 21
24.37638888888889
 72
     1
 10
29.5499591149281642
 20
24.37638888888889
 11
29.5499591149281642
 21
24.25138888888889
 72
     1
 10
29.5499591149281642
 20
24.25138888888889
 11
29.591625781594832
 21
24.25138888888889
 72
     1
 10
29.591625781594832
 20
24.25138888888889
 11
29.591625781594832
 21
24.37638888888889
 97
        3
330
14D
330
14E
330
14F
 92
        1
 93
        4
 72
     1
 10
24.591625781594832
 20
24.37638888888889
 11
24.6332924482614999
 21
24.37638888888889
 72
     1
 10
24.6332924482614999
 20
24.37638888888889
 11
24.6332924482614999
 21
24.25138888888889
 72
     1
 10
24.6332924482614999
 20
24.25138888888889
 11
24.591625781594832
 21
24.25138888888889
 72
     1
 10
24.591625781594832
 20
24.25138888888889
 11
24.591625781594832
 21
24.37638888888889
 97
        3
330
151
330
152
330
153
 75
     0
 76
     1
 98
        0
  0
LINE
  5
151
102
{ACAD_REACTORS
330
150
102
}
100
AcDbEntity
  8
BUILDING_ENVELOPE
  6
CONTINUOUS
 62
     7
100
AcDbLine
 10
24.591626
 20
24.376389
 30
0.0
 11
24.633292
 21
24.376389
 31
0.0
  0
LINE
  5
152
102
{ACAD_REACTORS
330
150
102
}
100
AcDbEntity
  8
BUILDING_ENVELOPE
  6
CONTINUOUS
 62
     7
100
AcDbLine
 10
24.633292
 20
24.376389
 30
0.0
 11
24.633292
 21
24.251389
 31
0.0
  0
LINE
  5
153
102
{ACAD_REACTORS
330
150
102
}
100
AcDbEntity
  8
BUILDING_ENVELOPE
  6
CONTINUOUS
 62
     7
100
AcDbLine
 10
24.633292
 20
24.251389
 30
0.0
 11
24.591626
 21
24.251389
 31
0.0
  0
LINE
  5
154
102
{ACAD_REACTORS
330
140
102
}
100
AcDbEntity
  8
BUILDING_ENVELOPE
  6
CONTINUOUS
 62
     7
100
AcDbLine
 10
29.758292
 20
24.168056
 30
0.0
 11
29.758292
 21
24.501389
 31
0.0
  0
LINE
  5
155
102
{ACAD_REACTORS
330
140
102
}
100
AcDbEntity
  8
BUILDING_ENVELOPE
  6
CONTINUOUS
 62
     7
100
AcDbLine
 10
24.424959
 20
24.168056
 30
0.0
 11
24.424959
 21
24.501389
 31
0.0
  0
ARC
  5
156
102
{ACAD_REACTORS
330
140
102
}
100
AcDbEntity
  8
BUILDING_ENVELOPE
  6
CONTINUOUS
 62
     7
100
AcDbCircle
 10
24.591626
 20
24.501389
 30
0.0
 40
2.5
100
AcDbArc
 50
0.0
 51
90.0
  0
ARC
  5
157
102
{ACAD_REACTORS
330
140
102
}
100
AcDbEntity
  8
BUILDING_ENVELOPE
  6
CONTINUOUS
 62
     7
100
AcDbCircle
 10
29.591626
 20
24.501389
 30
0.0
 40
2.5
100
AcDbArc
 50
90.0
 51
180.0
  0
LWPOLYLINE
  5
158
102
{ACAD_REACTORS
330
159
102
}
100
AcDbEntity
  8
BUILDING_ENVELOPE
  6
CONTINUOUS
 62
     7
100
AcDbPolyline
 90
        4
 70
     1
 10
24.591626
 20
27.001389
 10
24.591626
 20
24.501389
 10
24.716626
 20
24.501389
 10
24.716626
 20
27.001389
  0
HATCH
  5
159
102
{ACAD_REACTORS
330
140
102
}
100
AcDbEntity
  8
BUILDING_ENVELOPE
 62
     7
100
AcDbHatch
 10
0.0
 20
0.0
 30
0.0
210
0.0
220
0.0
230
1.0
  2
SOLID
 70
     1
 71
     1
 91
        1
 92
        3
 72
     0
 73
     1
 93
        4
 10
24.591625781594832
 20
27.00138888888889
 10
24.591625781594832
 20
24.50138888888889
 10
24.716625781594832
 20
24.50138888888889
 10
24.716625781594832
 20
27.00138888888889
 97
        1
330
158
 75
     0
 76
     1
 98
        0
  0
LWPOLYLINE
  5
15A
102
{ACAD_REACTORS
330
15B
102
}
100
AcDbEntity
  8
BUILDING_ENVELOPE
  6
CONTINUOUS
 62
     7
100
AcDbPolyline
 90
        4
 70
     1
 10
29.466626
 20
27.001389
 10
29.466626
 20
24.501389
 10
29.591626
 20
24.501389
 10
29.591626
 20
27.001389
  0
HATCH
  5
15B
102
{ACAD_REACTORS
330
140
102
}
100
AcDbEntity
  8
BUILDING_ENVELOPE
 62
     7
100
AcDbHatch
 10
0.0
 20
0.0
 30
0.0
210
0.0
220
0.0
230
1.0
  2
SOLID
 70
     1
 71
     1
 91
        1
 92
        3
 72
     0
 73
     1
 93
        4
 10
29.466625781594832
 20
27.00138888888889
 10
29.466625781594832
 20
24.50138888888889
 10
29.591625781594832
 20
24.50138888888889
 10
29.591625781594832
 20
27.00138888888889
 97
        1
330
15A
 75
     0
 76
     1
 98
        0
  0
LWPOLYLINE
  5
15D
102
{ACAD_REACTORS
330
163
102
}
100
AcDbEntity
  8
BUILDING_ENVELOPE
  6
CONTINUOUS
 62
     7
100
AcDbPolyline
 90
        4
 70
     1
 10
30.94736
 20
40.034722
 10
30.94736
 20
42.868056
 10
31.296693
 20
42.868056
 10
31.296693
 20
40.034722
  0
LINE
  5
15E
102
{ACAD_REACTORS
330
163
102
}
100
AcDbEntity
  8
BUILDING_ENVELOPE
  6
CONTINUOUS
 62
     7
100
AcDbLine
 10
30.95536
 20
42.868056
 30
0.0
 11
31.288693
 21
42.868056
 31
0.0
  0
LINE
  5
15F
102
{ACAD_REACTORS
330
163
102
}
100
AcDbEntity
  8
BUILDING_ENVELOPE
  6
CONTINUOUS
 62
     7
100
AcDbLine
 10
31.288693
 20
42.868056
 30
0.0
 11
31.288693
 21
42.701389
 31
0.0
  0
LINE
  5
160
102
{ACAD_REACTORS
330
163
102
}
100
AcDbEntity
  8
BUILDING_ENVELOPE
  6
CONTINUOUS
 62
     7
100
AcDbLine
 10
31.288693
 20
42.701389
 30
0.0
 11
31.163693
 21
42.701389
 31
0.0
  0
LINE
  5
161
102
{ACAD_REACTORS
330
163
102
}
100
AcDbEntity
  8
BUILDING_ENVELOPE
  6
CONTINUOUS
 62
     7
100
AcDbLine
 10
31.038693
 20
42.701389
 30
0.0
 11
30.95536
 21
42.701389
 31
0.0
  0
LINE
  5
162
102
{ACAD_REACTORS
330
163
102
}
100
AcDbEntity
  8
BUILDING_ENVELOPE
  6
CONTINUOUS
 62
     7
100
AcDbLine
 10
30.95536
 20
42.701389
 30
0.0
 11
30.95536
 21
42.868056
 31
0.0
  0
HATCH
  5
163
102
{ACAD_REACTORS
330
15C
102
}
100
AcDbEntity
  8
BUILDING_ENVELOPE
 62
     7
100
AcDbHatch
 10
0.0
 20
0.0
 30
0.0
210
0.0
220
0.0
230
1.0
  2
SOLID
 70
     1
 71
     1
 91
        2
 92
        1
 93
        6
 72
     1
 10
30.9553596288082318
 20
42.8680555555554079
 11
31.2886929621415675
 21
42.8680555555554079
 72
     1
 10
31.2886929621415675
 20
42.8680555555554079
 11
31.2886929621415675
 21
42.7013888888887436
 72
     1
 10
31.2886929621415675
 20
42.7013888888887436
 11
31.1636929621415675
 21
42.7013888888887436
 72
     1
 10
31.1636929621415675
 20
42.7013888888887436
 11
31.0386929621415675
 21
42.7013888888887436
 72
     1
 10
31.0386929621415675
 20
42.7013888888887436
 11
30.9553596288082318
 21
42.7013888888887436
 72
     1
 10
30.9553596288082318
 20
42.7013888888887436
 11
30.9553596288082318
 21
42.8680555555554079
 97
        6
330
15D
330
15E
330
15F
330
160
330
161
330
162
 92
        1
 93
        6
 72
     1
 10
30.9553596288082318
 20
40.0347222222220722
 11
31.2886929621415675
 21
40.0347222222220722
 72
     1
 10
31.2886929621415675
 20
40.0347222222220722
 11
31.2886929621415675
 21
40.2013888888887436
 72
     1
 10
31.2886929621415675
 20
40.2013888888887436
 11
31.1636929621415675
 21
40.2013888888887436
 72
     1
 10
31.1636929621415675
 20
40.2013888888887436
 11
31.0386929621415675
 21
40.2013888888887436
 72
     1
 10
31.0386929621415675
 20
40.2013888888887436
 11
30.9553596288082318
 21
40.2013888888887436
 72
     1
 10
30.9553596288082318
 20
40.2013888888887436
 11
30.9553596288082318
 21
40.0347222222220722
 97
        5
330
164
330
165
330
166
330
167
330
168
 75
     0
 76
     1
 98
        0
  0
LINE
  5
164
102
{ACAD_REACTORS
330
163
102
}
100
AcDbEntity
  8
BUILDING_ENVELOPE
  6
CONTINUOUS
 62
     7
100
AcDbLine
 10
30.95536
 20
40.034722
 30
0.0
 11
31.288693
 21
40.034722
 31
0.0
  0
LINE
  5
165
102
{ACAD_REACTORS
330
163
102
}
100
AcDbEntity
  8
BUILDING_ENVELOPE
  6
CONTINUOUS
 62
     7
100
AcDbLine
 10
31.288693
 20
40.034722
 30
0.0
 11
31.288693
 21
40.201389
 31
0.0
  0
LINE
  5
166
102
{ACAD_REACTORS
330
163
102
}
100
AcDbEntity
  8
BUILDING_ENVELOPE
  6
CONTINUOUS
 62
     7
100
AcDbLine
 10
31.288693
 20
40.201389
 30
0.0
 11
31.163693
 21
40.201389
 31
0.0
  0
LINE
  5
167
102
{ACAD_REACTORS
330
163
102
}
100
AcDbEntity
  8
BUILDING_ENVELOPE
  6
CONTINUOUS
 62
     7
100
AcDbLine
 10
31.038693
 20
40.201389
 30
0.0
 11
30.95536
 21
40.201389
 31
0.0
  0
LINE
  5
168
102
{ACAD_REACTORS
330
163
102
}
100
AcDbEntity
  8
BUILDING_ENVELOPE
  6
CONTINUOUS
 62
     7
100
AcDbLine
 10
30.95536
 20
40.201389
 30
0.0
 11
30.95536
 21
40.034722
 31
0.0
  0
LINE
  5
169
102
{ACAD_REACTORS
330
16C
102
}
100
AcDbEntity
  8
BUILDING_ENVELOPE
  6
CONTINUOUS
 62
     7
100
AcDbLine
 10
31.163693
 20
42.701389
 30
0.0
 11
31.163693
 21
42.659722
 31
0.0
  0
LINE
  5
16A
102
{ACAD_REACTORS
330
16C
102
}
100
AcDbEntity
  8
BUILDING_ENVELOPE
  6
CONTINUOUS
 62
     7
100
AcDbLine
 10
31.163693
 20
42.659722
 30
0.0
 11
31.038693
 21
42.659722
 31
0.0
  0
LINE
  5
16B
102
{ACAD_REACTORS
330
16C
102
}
100
AcDbEntity
  8
BUILDING_ENVELOPE
  6
CONTINUOUS
 62
     7
100
AcDbLine
 10
31.038693
 20
42.659722
 30
0.0
 11
31.038693
 21
42.701389
 31
0.0
  0
HATCH
  5
16C
102
{ACAD_REACTORS
330
15C
102
}
100
AcDbEntity
  8
BUILDING_ENVELOPE
 62
     7
100
AcDbHatch
 10
0.0
 20
0.0
 30
0.0
210
0.0
220
0.0
230
1.0
  2
SOLID
 70
     1
 71
     1
 91
        2
 92
        1
 93
        4
 72
     1
 10
31.1636929621415675
 20
42.7013888888887436
 11
31.1636929621415675
 21
42.6597222222220722
 72
     1
 10
31.1636929621415675
 20
42.6597222222220722
 11
31.0386929621415675
 21
42.6597222222220722
 72
     1
 10
31.0386929621415675
 20
42.6597222222220722
 11
31.0386929621415675
 21
42.7013888888887436
 72
     1
 10
31.0386929621415675
 20
42.7013888888887436
 11
31.1636929621415675
 21
42.7013888888887436
 97
        3
330
169
330
16A
330
16B
 92
        1
 93
        4
 72
     1
 10
31.1636929621415675
 20
40.2013888888887436
 11
31.1636929621415675
 21
40.2430555555554079
 72
     1
 10
31.1636929621415675
 20
40.2430555555554079
 11
31.0386929621415675
 21
40.2430555555554079
 72
     1
 10
31.0386929621415675
 20
40.2430555555554079
 11
31.0386929621415675
 21
40.2013888888887436
 72
     1
 10
31.0386929621415675
 20
40.2013888888887436
 11
31.1636929621415675
 21
40.2013888888887436
 97
        3
330
16D
330
16E
330
16F
 75
     0
 76
     1
 98
        0
  0
LINE
  5
16D
102
{ACAD_REACTORS
330
16C
102
}
100
AcDbEntity
  8
BUILDING_ENVELOPE
  6
CONTINUOUS
 62
     7
100
AcDbLine
 10
31.163693
 20
40.201389
 30
0.0
 11
31.163693
 21
40.243056
 31
0.0
  0
LINE
  5
16E
102
{ACAD_REACTORS
330
16C
102
}
100
AcDbEntity
  8
BUILDING_ENVELOPE
  6
CONTINUOUS
 62
     7
100
AcDbLine
 10
31.163693
 20
40.243056
 30
0.0
 11
31.038693
 21
40.243056
 31
0.0
  0
LINE
  5
16F
102
{ACAD_REACTORS
330
16C
102
}
100
AcDbEntity
  8
BUILDING_ENVELOPE
  6
CONTINUOUS
 62
     7
100
AcDbLine
 10
31.038693
 20
40.243056
 30
0.0
 11
31.038693
 21
40.201389
 31
0.0
  0
LINE
  5
170
102
{ACAD_REACTORS
330
15C
102
}
100
AcDbEntity
  8
BUILDING_ENVELOPE
  6
CONTINUOUS
 62
     7
100
AcDbLine
 10
30.95536
 20
42.868056
 30
0.0
 11
31.288693
 21
42.868056
 31
0.0
  0
LINE
  5
171
102
{ACAD_REACTORS
330
15C
102
}
100
AcDbEntity
  8
BUILDING_ENVELOPE
  6
CONTINUOUS
 62
     7
100
AcDbLine
 10
30.95536
 20
40.034722
 30
0.0
 11
31.288693
 21
40.034722
 31
0.0
  0
ARC
  5
172
102
{ACAD_REACTORS
330
15C
102
}
100
AcDbEntity
  8
BUILDING_ENVELOPE
  6
CONTINUOUS
 62
     7
100
AcDbCircle
 10
31.288693
 20
42.701389
 30
0.0
 40
2.5
100
AcDbArc
 50
270.0
 51
0.0
  0
LWPOLYLINE
  5
173
102
{ACAD_REACTORS
330
174
102
}
100
AcDbEntity
  8
BUILDING_ENVELOPE
  6
CONTINUOUS
 62
     7
100
AcDbPolyline
 90
        4
 70
     1
 10
33.788693
 20
42.576389
 10
31.288693
 20
42.576389
 10
31.288693
 20
42.701389
 10
33.788693
 20
42.701389
  0
HATCH
  5
174
102
{ACAD_REACTORS
330
15C
102
}
100
AcDbEntity
  8
BUILDING_ENVELOPE
 62
     7
100
AcDbHatch
 10
0.0
 20
0.0
 30
0.0
210
0.0
220
0.0
230
1.0
  2
SOLID
 70
     1
 71
     1
 91
        1
 92
        3
 72
     0
 73
     1
 93
        4
 10
33.7886929621415675
 20
42.5763888888887436
 10
31.2886929621415675
 20
42.5763888888887436
 10
31.2886929621415675
 20
42.7013888888887436
 10
33.7886929621415675
 20
42.7013888888887436
 97
        1
330
173
 75
     0
 76
     1
 98
        0
  0
LWPOLYLINE
  5
176
102
{ACAD_REACTORS
330
17C
102
}
100
AcDbEntity
  8
BUILDING_ENVELOPE
  6
CONTINUOUS
 62
     7
100
AcDbPolyline
 90
        4
 70
     1
 10
22.899716
 20
35.284722
 10
22.899716
 20
38.118056
 10
22.550383
 20
38.118056
 10
22.550383
 20
35.284722
  0
LINE
  5
177
102
{ACAD_REACTORS
330
17C
102
}
100
AcDbEntity
  8
BUILDING_ENVELOPE
  6
CONTINUOUS
 62
     7
100
AcDbLine
 10
22.891716
 20
38.118056
 30
0.0
 11
22.558383
 21
38.118056
 31
0.0
  0
LINE
  5
178
102
{ACAD_REACTORS
330
17C
102
}
100
AcDbEntity
  8
BUILDING_ENVELOPE
  6
CONTINUOUS
 62
     7
100
AcDbLine
 10
22.558383
 20
38.118056
 30
0.0
 11
22.558383
 21
37.951389
 31
0.0
  0
LINE
  5
179
102
{ACAD_REACTORS
330
17C
102
}
100
AcDbEntity
  8
BUILDING_ENVELOPE
  6
CONTINUOUS
 62
     7
100
AcDbLine
 10
22.558383
 20
37.951389
 30
0.0
 11
22.683383
 21
37.951389
 31
0.0
  0
LINE
  5
17A
102
{ACAD_REACTORS
330
17C
102
}
100
AcDbEntity
  8
BUILDING_ENVELOPE
  6
CONTINUOUS
 62
     7
100
AcDbLine
 10
22.808383
 20
37.951389
 30
0.0
 11
22.891716
 21
37.951389
 31
0.0
  0
LINE
  5
17B
102
{ACAD_REACTORS
330
17C
102
}
100
AcDbEntity
  8
BUILDING_ENVELOPE
  6
CONTINUOUS
 62
     7
100
AcDbLine
 10
22.891716
 20
37.951389
 30
0.0
 11
22.891716
 21
38.118056
 31
0.0
  0
HATCH
  5
17C
102
{ACAD_REACTORS
330
175
102
}
100
AcDbEntity
  8
BUILDING_ENVELOPE
 62
     7
100
AcDbHatch
 10
0.0
 20
0.0
 30
0.0
210
0.0
220
0.0
230
1.0
  2
SOLID
 70
     1
 71
     1
 91
        2
 92
        1
 93
        6
 72
     1
 10
22.8917160589814159
 20
38.1180555555553013
 11
22.5583827256480802
 21
38.1180555555553013
 72
     1
 10
22.5583827256480802
 20
38.1180555555553013
 11
22.5583827256480802
 21
37.9513888888886299
 72
     1
 10
22.5583827256480802
 20
37.9513888888886299
 11
22.6833827256480802
 21
37.9513888888886299
 72
     1
 10
22.6833827256480802
 20
37.9513888888886299
 11
22.8083827256480802
 21
37.9513888888886299
 72
     1
 10
22.8083827256480802
 20
37.9513888888886299
 11
22.8917160589814159
 21
37.9513888888886299
 72
     1
 10
22.8917160589814159
 20
37.9513888888886299
 11
22.8917160589814159
 21
38.1180555555553013
 97
        6
330
176
330
177
330
178
330
179
330
17A
330
17B
 92
        1
 93
        6
 72
     1
 10
22.8917160589814159
 20
35.2847222222219656
 11
22.5583827256480802
 21
35.2847222222219656
 72
     1
 10
22.5583827256480802
 20
35.2847222222219656
 11
22.5583827256480802
 21
35.4513888888886299
 72
     1
 10
22.5583827256480802
 20
35.4513888888886299
 11
22.6833827256480802
 21
35.4513888888886299
 72
     1
 10
22.6833827256480802
 20
35.4513888888886299
 11
22.8083827256480802
 21
35.4513888888886299
 72
     1
 10
22.8083827256480802
 20
35.4513888888886299
 11
22.8917160589814159
 21
35.4513888888886299
 72
     1
 10
22.8917160589814159
 20
35.4513888888886299
 11
22.8917160589814159
 21
35.2847222222219656
 97
        5
330
17D
330
17E
330
17F
330
180
330
181
 75
     0
 76
     1
 98
        0
  0
LINE
  5
17D
102
{ACAD_REACTORS
330
17C
102
}
100
AcDbEntity
  8
BUILDING_ENVELOPE
  6
CONTINUOUS
 62
     7
100
AcDbLine
 10
22.891716
 20
35.284722
 30
0.0
 11
22.558383
 21
35.284722
 31
0.0
  0
LINE
  5
17E
102
{ACAD_REACTORS
330
17C
102
}
100
AcDbEntity
  8
BUILDING_ENVELOPE
  6
CONTINUOUS
 62
     7
100
AcDbLine
 10
22.558383
 20
35.284722
 30
0.0
 11
22.558383
 21
35.451389
 31
0.0
  0
LINE
  5
17F
102
{ACAD_REACTORS
330
17C
102
}
100
AcDbEntity
  8
BUILDING_ENVELOPE
  6
CONTINUOUS
 62
     7
100
AcDbLine
 10
22.558383
 20
35.451389
 30
0.0
 11
22.683383
 21
35.451389
 31
0.0
  0
LINE
  5
180
102
{ACAD_REACTORS
330
17C
102
}
100
AcDbEntity
  8
BUILDING_ENVELOPE
  6
CONTINUOUS
 62
     7
100
AcDbLine
 10
22.808383
 20
35.451389
 30
0.0
 11
22.891716
 21
35.451389
 31
0.0
  0
LINE
  5
181
102
{ACAD_REACTORS
330
17C
102
}
100
AcDbEntity
  8
BUILDING_ENVELOPE
  6
CONTINUOUS
 62
     7
100
AcDbLine
 10
22.891716
 20
35.451389
 30
0.0
 11
22.891716
 21
35.284722
 31
0.0
  0
LINE
  5
182
102
{ACAD_REACTORS
330
185
102
}
100
AcDbEntity
  8
BUILDING_ENVELOPE
  6
CONTINUOUS
 62
     7
100
AcDbLine
 10
22.683383
 20
37.951389
 30
0.0
 11
22.683383
 21
37.909722
 31
0.0
  0
LINE
  5
183
102
{ACAD_REACTORS
330
185
102
}
100
AcDbEntity
  8
BUILDING_ENVELOPE
  6
CONTINUOUS
 62
     7
100
AcDbLine
 10
22.683383
 20
37.909722
 30
0.0
 11
22.808383
 21
37.909722
 31
0.0
  0
LINE
  5
184
102
{ACAD_REACTORS
330
185
102
}
100
AcDbEntity
  8
BUILDING_ENVELOPE
  6
CONTINUOUS
 62
     7
100
AcDbLine
 10
22.808383
 20
37.909722
 30
0.0
 11
22.808383
 21
37.951389
 31
0.0
  0
HATCH
  5
185
102
{ACAD_REACTORS
330
175
102
}
100
AcDbEntity
  8
BUILDING_ENVELOPE
 62
     7
100
AcDbHatch
 10
0.0
 20
0.0
 30
0.0
210
0.0
220
0.0
230
1.0
  2
SOLID
 70
     1
 71
     1
 91
        2
 92
        1
 93
        4
 72
     1
 10
22.6833827256480802
 20
37.9513888888886299
 11
22.6833827256480802
 21
37.9097222222219656
 72
     1
 10
22.6833827256480802
 20
37.9097222222219656
 11
22.8083827256480802
 21
37.9097222222219656
 72
     1
 10
22.8083827256480802
 20
37.9097222222219656
 11
22.8083827256480802
 21
37.9513888888886299
 72
     1
 10
22.8083827256480802
 20
37.9513888888886299
 11
22.6833827256480802
 21
37.9513888888886299
 97
        3
330
182
330
183
330
184
 92
        1
 93
        4
 72
     1
 10
22.6833827256480802
 20
35.4513888888886299
 11
22.6833827256480802
 21
35.4930555555553013
 72
     1
 10
22.6833827256480802
 20
35.4930555555553013
 11
22.8083827256480802
 21
35.4930555555553013
 72
     1
 10
22.8083827256480802
 20
35.4930555555553013
 11
22.8083827256480802
 21
35.4513888888886299
 72
     1
 10
22.8083827256480802
 20
35.4513888888886299
 11
22.6833827256480802
 21
35.4513888888886299
 97
        3
330
186
330
187
330
188
 75
     0
 76
     1
 98
        0
  0
LINE
  5
186
102
{ACAD_REACTORS
330
185
102
}
100
AcDbEntity
  8
BUILDING_ENVELOPE
  6
CONTINUOUS
 62
     7
100
AcDbLine
 10
22.683383
 20
35.451389
 30
0.0
 11
22.683383
 21
35.493056
 31
0.0
  0
LINE
  5
187
102
{ACAD_REACTORS
330
185
102
}
100
AcDbEntity
  8
BUILDING_ENVELOPE
  6
CONTINUOUS
 62
     7
100
AcDbLine
 10
22.683383
 20
35.493056
 30
0.0
 11
22.808383
 21
35.493056
 31
0.0
  0
LINE
  5
188
102
{ACAD_REACTORS
330
185
102
}
100
AcDbEntity
  8
BUILDING_ENVELOPE
  6
CONTINUOUS
 62
     7
100
AcDbLine
 10
22.808383
 20
35.493056
 30
0.0
 11
22.808383
 21
35.451389
 31
0.0
  0
LINE
  5
189
102
{ACAD_REACTORS
330
175
102
}
100
AcDbEntity
  8
BUILDING_ENVELOPE
  6
CONTINUOUS
 62
     7
100
AcDbLine
 10
22.891716
 20
38.118056
 30
0.0
 11
22.558383
 21
38.118056
 31
0.0
  0
LINE
  5
18A
102
{ACAD_REACTORS
330
175
102
}
100
AcDbEntity
  8
BUILDING_ENVELOPE
  6
CONTINUOUS
 62
     7
100
AcDbLine
 10
22.891716
 20
35.284722
 30
0.0
 11
22.558383
 21
35.284722
 31
0.0
  0
ARC
  5
18B
102
{ACAD_REACTORS
330
175
102
}
100
AcDbEntity
  8
BUILDING_ENVELOPE
  6
CONTINUOUS
 62
     7
100
AcDbCircle
 10
22.558383
 20
37.951389
 30
0.0
 40
2.5
100
AcDbArc
 50
180.0
 51
270.0
  0
LWPOLYLINE
  5
18C
102
{ACAD_REACTORS
330
18D
102
}
100
AcDbEntity
  8
BUILDING_ENVELOPE
  6
CONTINUOUS
 62
     7
100
AcDbPolyline
 90
        4
 70
     1
 10
20.058383
 20
37.826389
 10
22.558383
 20
37.826389
 10
22.558383
 20
37.951389
 10
20.058383
 20
37.951389
  0
HATCH
  5
18D
102
{ACAD_REACTORS
330
175
102
}
100
AcDbEntity
  8
BUILDING_ENVELOPE
 62
     7
100
AcDbHatch
 10
0.0
 20
0.0
 30
0.0
210
0.0
220
0.0
230
1.0
  2
SOLID
 70
     1
 71
     1
 91
        1
 92
        3
 72
     0
 73
     1
 93
        4
 10
20.0583827256480802
 20
37.8263888888886299
 10
22.5583827256480802
 20
37.8263888888886299
 10
22.5583827256480802
 20
37.9513888888886299
 10
20.0583827256480802
 20
37.9513888888886299
 97
        1
330
18C
 75
     0
 76
     1
 98
        0
  0
LWPOLYLINE
  5
18F
102
{ACAD_REACTORS
330
195
102
}
100
AcDbEntity
  8
BUILDING_ENVELOPE
  6
CONTINUOUS
 62
     7
100
AcDbPolyline
 90
        4
 70
     1
 10
30.94736
 20
47.834722
 10
30.94736
 20
45.001389
 10
31.296693
 20
45.001389
 10
31.296693
 20
47.834722
  0
LINE
  5
190
102
{ACAD_REACTORS
330
195
102
}
100
AcDbEntity
  8
BUILDING_ENVELOPE
  6
CONTINUOUS
 62
     7
100
AcDbLine
 10
30.95536
 20
45.001389
 30
0.0
 11
31.288693
 21
45.001389
 31
0.0
  0
LINE
  5
191
102
{ACAD_REACTORS
330
195
102
}
100
AcDbEntity
  8
BUILDING_ENVELOPE
  6
CONTINUOUS
 62
     7
100
AcDbLine
 10
31.288693
 20
45.001389
 30
0.0
 11
31.288693
 21
45.168056
 31
0.0
  0
LINE
  5
192
102
{ACAD_REACTORS
330
195
102
}
100
AcDbEntity
  8
BUILDING_ENVELOPE
  6
CONTINUOUS
 62
     7
100
AcDbLine
 10
31.288693
 20
45.168056
 30
0.0
 11
31.163693
 21
45.168056
 31
0.0
  0
LINE
  5
193
102
{ACAD_REACTORS
330
195
102
}
100
AcDbEntity
  8
BUILDING_ENVELOPE
  6
CONTINUOUS
 62
     7
100
AcDbLine
 10
31.038693
 20
45.168056
 30
0.0
 11
30.95536
 21
45.168056
 31
0.0
  0
LINE
  5
194
102
{ACAD_REACTORS
330
195
102
}
100
AcDbEntity
  8
BUILDING_ENVELOPE
  6
CONTINUOUS
 62
     7
100
AcDbLine
 10
30.95536
 20
45.168056
 30
0.0
 11
30.95536
 21
45.001389
 31
0.0
  0
HATCH
  5
195
102
{ACAD_REACTORS
330
18E
102
}
100
AcDbEntity
  8
BUILDING_ENVELOPE
 62
     7
100
AcDbHatch
 10
0.0
 20
0.0
 30
0.0
210
0.0
220
0.0
230
1.0
  2
SOLID
 70
     1
 71
     1
 91
        2
 92
        1
 93
        6
 72
     1
 10
30.9553596288082318
 20
45.001388888889025
 11
31.2886929621415675
 21
45.001388888889025
 72
     1
 10
31.2886929621415675
 20
45.001388888889025
 11
31.2886929621415675
 21
45.1680555555556964
 72
     1
 10
31.2886929621415675
 20
45.1680555555556964
 11
31.1636929621415675
 21
45.1680555555556964
 72
     1
 10
31.1636929621415675
 20
45.1680555555556964
 11
31.0386929621415675
 21
45.1680555555556964
 72
     1
 10
31.0386929621415675
 20
45.1680555555556964
 11
30.9553596288082318
 21
45.1680555555556964
 72
     1
 10
30.9553596288082318
 20
45.1680555555556964
 11
30.9553596288082318
 21
45.001388888889025
 97
        6
330
18F
330
190
330
191
330
192
330
193
330
194
 92
        1
 93
        6
 72
     1
 10
30.9553596288082318
 20
47.8347222222223607
 11
31.2886929621415675
 21
47.8347222222223607
 72
     1
 10
31.2886929621415675
 20
47.8347222222223607
 11
31.2886929621415675
 21
47.6680555555556964
 72
     1
 10
31.2886929621415675
 20
47.6680555555556964
 11
31.1636929621415675
 21
47.6680555555556964
 72
     1
 10
31.1636929621415675
 20
47.6680555555556964
 11
31.0386929621415675
 21
47.6680555555556964
 72
     1
 10
31.0386929621415675
 20
47.6680555555556964
 11
30.9553596288082318
 21
47.6680555555556964
 72
     1
 10
30.9553596288082318
 20
47.6680555555556964
 11
30.9553596288082318
 21
47.8347222222223607
 97
        5
330
196
330
197
330
198
330
199
330
19A
 75
     0
 76
     1
 98
        0
  0
LINE
  5
196
102
{ACAD_REACTORS
330
195
102
}
100
AcDbEntity
  8
BUILDING_ENVELOPE
  6
CONTINUOUS
 62
     7
100
AcDbLine
 10
30.95536
 20
47.834722
 30
0.0
 11
31.288693
 21
47.834722
 31
0.0
  0
LINE
  5
197
102
{ACAD_REACTORS
330
195
102
}
100
AcDbEntity
  8
BUILDING_ENVELOPE
  6
CONTINUOUS
 62
     7
100
AcDbLine
 10
31.288693
 20
47.834722
 30
0.0
 11
31.288693
 21
47.668056
 31
0.0
  0
LINE
  5
198
102
{ACAD_REACTORS
330
195
102
}
100
AcDbEntity
  8
BUILDING_ENVELOPE
  6
CONTINUOUS
 62
     7
100
AcDbLine
 10
31.288693
 20
47.668056
 30
0.0
 11
31.163693
 21
47.668056
 31
0.0
  0
LINE
  5
199
102
{ACAD_REACTORS
330
195
102
}
100
AcDbEntity
  8
BUILDING_ENVELOPE
  6
CONTINUOUS
 62
     7
100
AcDbLine
 10
31.038693
 20
47.668056
 30
0.0
 11
30.95536
 21
47.668056
 31
0.0
  0
LINE
  5
19A
102
{ACAD_REACTORS
330
195
102
}
100
AcDbEntity
  8
BUILDING_ENVELOPE
  6
CONTINUOUS
 62
     7
100
AcDbLine
 10
30.95536
 20
47.668056
 30
0.0
 11
30.95536
 21
47.834722
 31
0.0
  0
LINE
  5
19B
102
{ACAD_REACTORS
330
19E
102
}
100
AcDbEntity
  8
BUILDING_ENVELOPE
  6
CONTINUOUS
 62
     7
100
AcDbLine
 10
31.163693
 20
45.168056
 30
0.0
 11
31.163693
 21
45.209722
 31
0.0
  0
LINE
  5
19C
102
{ACAD_REACTORS
330
19E
102
}
100
AcDbEntity
  8
BUILDING_ENVELOPE
  6
CONTINUOUS
 62
     7
100
AcDbLine
 10
31.163693
 20
45.209722
 30
0.0
 11
31.038693
 21
45.209722
 31
0.0
  0
LINE
  5
19D
102
{ACAD_REACTORS
330
19E
102
}
100
AcDbEntity
  8
BUILDING_ENVELOPE
  6
CONTINUOUS
 62
     7
100
AcDbLine
 10
31.038693
 20
45.209722
 30
0.0
 11
31.038693
 21
45.168056
 31
0.0
  0
HATCH
  5
19E
102
{ACAD_REACTORS
330
18E
102
}
100
AcDbEntity
  8
BUILDING_ENVELOPE
 62
     7
100
AcDbHatch
 10
0.0
 20
0.0
 30
0.0
210
0.0
220
0.0
230
1.0
  2
SOLID
 70
     1
 71
     1
 91
        2
 92
        1
 93
        4
 72
     1
 10
31.1636929621415675
 20
45.1680555555556964
 11
31.1636929621415675
 21
45.2097222222223607
 72
     1
 10
31.1636929621415675
 20
45.2097222222223607
 11
31.0386929621415675
 21
45.2097222222223607
 72
     1
 10
31.0386929621415675
 20
45.2097222222223607
 11
31.0386929621415675
 21
45.1680555555556964
 72
     1
 10
31.0386929621415675
 20
45.1680555555556964
 11
31.1636929621415675
 21
45.1680555555556964
 97
        3
330
19B
330
19C
330
19D
 92
        1
 93
        4
 72
     1
 10
31.1636929621415675
 20
47.6680555555556964
 11
31.1636929621415675
 21
47.626388888889025
 72
     1
 10
31.1636929621415675
 20
47.626388888889025
 11
31.0386929621415675
 21
47.626388888889025
 72
     1
 10
31.0386929621415675
 20
47.626388888889025
 11
31.0386929621415675
 21
47.6680555555556964
 72
     1
 10
31.0386929621415675
 20
47.6680555555556964
 11
31.1636929621415675
 21
47.6680555555556964
 97
        3
330
19F
330
1A0
330
1A1
 75
     0
 76
     1
 98
        0
  0
LINE
  5
19F
102
{ACAD_REACTORS
330
19E
102
}
100
AcDbEntity
  8
BUILDING_ENVELOPE
  6
CONTINUOUS
 62
     7
100
AcDbLine
 10
31.163693
 20
47.668056
 30
0.0
 11
31.163693
 21
47.626389
 31
0.0
  0
LINE
  5
1A0
102
{ACAD_REACTORS
330
19E
102
}
100
AcDbEntity
  8
BUILDING_ENVELOPE
  6
CONTINUOUS
 62
     7
100
AcDbLine
 10
31.163693
 20
47.626389
 30
0.0
 11
31.038693
 21
47.626389
 31
0.0
  0
LINE
  5
1A1
102
{ACAD_REACTORS
330
19E
102
}
100
AcDbEntity
  8
BUILDING_ENVELOPE
  6
CONTINUOUS
 62
     7
100
AcDbLine
 10
31.038693
 20
47.626389
 30
0.0
 11
31.038693
 21
47.668056
 31
0.0
  0
LINE
  5
1A2
102
{ACAD_REACTORS
330
18E
102
}
100
AcDbEntity
  8
BUILDING_ENVELOPE
  6
CONTINUOUS
 62
     7
100
AcDbLine
 10
30.95536
 20
45.001389
 30
0.0
 11
31.288693
 21
45.001389
 31
0.0
  0
LINE
  5
1A3
102
{ACAD_REACTORS
330
18E
102
}
100
AcDbEntity
  8
BUILDING_ENVELOPE
  6
CONTINUOUS
 62
     7
100
AcDbLine
 10
30.95536
 20
47.834722
 30
0.0
 11
31.288693
 21
47.834722
 31
0.0
  0
ARC
  5
1A4
102
{ACAD_REACTORS
330
18E
102
}
100
AcDbEntity
  8
BUILDING_ENVELOPE
  6
CONTINUOUS
 62
     7
100
AcDbCircle
 10
31.288693
 20
45.168056
 30
0.0
 40
2.5
100
AcDbArc
 50
0.0
 51
90.0
  0
LWPOLYLINE
  5
1A5
102
{ACAD_REACTORS
330
1A6
102
}
100
AcDbEntity
  8
BUILDING_ENVELOPE
  6
CONTINUOUS
 62
     7
100
AcDbPolyline
 90
        4
 70
     1
 10
33.788693
 20
45.293056
 10
31.288693
 20
45.293056
 10
31.288693
 20
45.168056
 10
33.788693
 20
45.168056
  0
HATCH
  5
1A6
102
{ACAD_REACTORS
330
18E
102
}
100
AcDbEntity
  8
BUILDING_ENVELOPE
 62
     7
100
AcDbHatch
 10
0.0
 20
0.0
 30
0.0
210
0.0
220
0.0
230
1.0
  2
SOLID
 70
     1
 71
     1
 91
        1
 92
        3
 72
     0
 73
     1
 93
        4
 10
33.7886929621415675
 20
45.2930555555556964
 10
31.2886929621415675
 20
45.2930555555556964
 10
31.2886929621415675
 20
45.1680555555556964
 10
33.7886929621415675
 20
45.1680555555556964
 97
        1
330
1A5
 75
     0
 76
     1
 98
        0
  0
LWPOLYLINE
  5
1A8
102
{ACAD_REACTORS
330
1AE
102
}
100
AcDbEntity
  8
BUILDING_ENVELOPE
  6
CONTINUOUS
 62
     7
100
AcDbPolyline
 90
        4
 70
     1
 10
22.132959
 20
65.666239
 10
22.132959
 20
62.832906
 10
21.783626
 20
62.832906
 10
21.783626
 20
65.666239
  0
LINE
  5
1A9
102
{ACAD_REACTORS
330
1AE
102
}
100
AcDbEntity
  8
BUILDING_ENVELOPE
  6
CONTINUOUS
 62
     7
100
AcDbLine
 10
22.124959
 20
62.832906
 30
0.0
 11
21.791626
 21
62.832906
 31
0.0
  0
LINE
  5
1AA
102
{ACAD_REACTORS
330
1AE
102
}
100
AcDbEntity
  8
BUILDING_ENVELOPE
  6
CONTINUOUS
 62
     7
100
AcDbLine
 10
21.791626
 20
62.832906
 30
0.0
 11
21.791626
 21
62.999573
 31
0.0
  0
LINE
  5
1AB
102
{ACAD_REACTORS
330
1AE
102
}
100
AcDbEntity
  8
BUILDING_ENVELOPE
  6
CONTINUOUS
 62
     7
100
AcDbLine
 10
21.791626
 20
62.999573
 30
0.0
 11
21.916626
 21
62.999573
 31
0.0
  0
LINE
  5
1AC
102
{ACAD_REACTORS
330
1AE
102
}
100
AcDbEntity
  8
BUILDING_ENVELOPE
  6
CONTINUOUS
 62
     7
100
AcDbLine
 10
22.041626
 20
62.999573
 30
0.0
 11
22.124959
 21
62.999573
 31
0.0
  0
LINE
  5
1AD
102
{ACAD_REACTORS
330
1AE
102
}
100
AcDbEntity
  8
BUILDING_ENVELOPE
  6
CONTINUOUS
 62
     7
100
AcDbLine
 10
22.124959
 20
62.999573
 30
0.0
 11
22.124959
 21
62.832906
 31
0.0
  0
HATCH
  5
1AE
102
{ACAD_REACTORS
330
1A7
102
}
100
AcDbEntity
  8
BUILDING_ENVELOPE
 62
     7
100
AcDbHatch
 10
0.0
 20
0.0
 30
0.0
210
0.0
220
0.0
230
1.0
  2
SOLID
 70
     1
 71
     1
 91
        2
 92
        1
 93
        6
 72
     1
 10
22.1249591149284655
 20
62.8329061160333708
 11
21.7916257815951333
 21
62.8329061160333708
 72
     1
 10
21.7916257815951333
 20
62.8329061160333708
 11
21.7916257815951333
 21
62.9995727827000351
 72
     1
 10
21.7916257815951333
 20
62.9995727827000351
 11
21.9166257815951333
 21
62.9995727827000351
 72
     1
 10
21.9166257815951333
 20
62.9995727827000351
 11
22.0416257815951333
 21
62.9995727827000351
 72
     1
 10
22.0416257815951333
 20
62.9995727827000351
 11
22.1249591149284655
 21
62.9995727827000351
 72
     1
 10
22.1249591149284655
 20
62.9995727827000351
 11
22.1249591149284655
 21
62.8329061160333708
 97
        6
330
1A8
330
1A9
330
1AA
330
1AB
330
1AC
330
1AD
 92
        1
 93
        6
 72
     1
 10
22.1249591149284655
 20
65.6662394493666994
 11
21.7916257815951333
 21
65.6662394493666994
 72
     1
 10
21.7916257815951333
 20
65.6662394493666994
 11
21.7916257815951333
 21
65.499572782700028
 72
     1
 10
21.7916257815951333
 20
65.499572782700028
 11
21.9166257815951333
 21
65.499572782700028
 72
     1
 10
21.9166257815951333
 20
65.499572782700028
 11
22.0416257815951333
 21
65.499572782700028
 72
     1
 10
22.0416257815951333
 20
65.499572782700028
 11
22.1249591149284655
 21
65.499572782700028
 72
     1
 10
22.1249591149284655
 20
65.499572782700028
 11
22.1249591149284655
 21
65.6662394493666994
 97
        5
330
1AF
330
1B0
330
1B1
330
1B2
330
1B3
 75
     0
 76
     1
 98
        0
  0
LINE
  5
1AF
102
{ACAD_REACTORS
330
1AE
102
}
100
AcDbEntity
  8
BUILDING_ENVELOPE
  6
CONTINUOUS
 62
     7
100
AcDbLine
 10
22.124959
 20
65.666239
 30
0.0
 11
21.791626
 21
65.666239
 31
0.0
  0
LINE
  5
1B0
102
{ACAD_REACTORS
330
1AE
102
}
100
AcDbEntity
  8
BUILDING_ENVELOPE
  6
CONTINUOUS
 62
     7
100
AcDbLine
 10
21.791626
 20
65.666239
 30
0.0
 11
21.791626
 21
65.499573
 31
0.0
  0
LINE
  5
1B1
102
{ACAD_REACTORS
330
1AE
102
}
100
AcDbEntity
  8
BUILDING_ENVELOPE
  6
CONTINUOUS
 62
     7
100
AcDbLine
 10
21.791626
 20
65.499573
 30
0.0
 11
21.916626
 21
65.499573
 31
0.0
  0
LINE
  5
1B2
102
{ACAD_REACTORS
330
1AE
102
}
100
AcDbEntity
  8
BUILDING_ENVELOPE
  6
CONTINUOUS
 62
     7
100
AcDbLine
 10
22.041626
 20
65.499573
 30
0.0
 11
22.124959
 21
65.499573
 31
0.0
  0
LINE
  5
1B3
102
{ACAD_REACTORS
330
1AE
102
}
100
AcDbEntity
  8
BUILDING_ENVELOPE
  6
CONTINUOUS
 62
     7
100
AcDbLine
 10
22.124959
 20
65.499573
 30
0.0
 11
22.124959
 21
65.666239
 31
0.0
  0
LINE
  5
1B4
102
{ACAD_REACTORS
330
1B7
102
}
100
AcDbEntity
  8
BUILDING_ENVELOPE
  6
CONTINUOUS
 62
     7
100
AcDbLine
 10
21.916626
 20
62.999573
 30
0.0
 11
21.916626
 21
63.041239
 31
0.0
  0
LINE
  5
1B5
102
{ACAD_REACTORS
330
1B7
102
}
100
AcDbEntity
  8
BUILDING_ENVELOPE
  6
CONTINUOUS
 62
     7
100
AcDbLine
 10
21.916626
 20
63.041239
 30
0.0
 11
22.041626
 21
63.041239
 31
0.0
  0
LINE
  5
1B6
102
{ACAD_REACTORS
330
1B7
102
}
100
AcDbEntity
  8
BUILDING_ENVELOPE
  6
CONTINUOUS
 62
     7
100
AcDbLine
 10
22.041626
 20
63.041239
 30
0.0
 11
22.041626
 21
62.999573
 31
0.0
  0
HATCH
  5
1B7
102
{ACAD_REACTORS
330
1A7
102
}
100
AcDbEntity
  8
BUILDING_ENVELOPE
 62
     7
100
AcDbHatch
 10
0.0
 20
0.0
 30
0.0
210
0.0
220
0.0
230
1.0
  2
SOLID
 70
     1
 71
     1
 91
        2
 92
        1
 93
        4
 72
     1
 10
21.9166257815951333
 20
62.9995727827000351
 11
21.9166257815951333
 21
63.0412394493666994
 72
     1
 10
21.9166257815951333
 20
63.0412394493666994
 11
22.0416257815951333
 21
63.0412394493666994
 72
     1
 10
22.0416257815951333
 20
63.0412394493666994
 11
22.0416257815951333
 21
62.9995727827000351
 72
     1
 10
22.0416257815951333
 20
62.9995727827000351
 11
21.9166257815951333
 21
62.9995727827000351
 97
        3
330
1B4
330
1B5
330
1B6
 92
        1
 93
        4
 72
     1
 10
21.9166257815951333
 20
65.499572782700028
 11
21.9166257815951333
 21
65.4579061160333708
 72
     1
 10
21.9166257815951333
 20
65.4579061160333708
 11
22.0416257815951333
 21
65.4579061160333708
 72
     1
 10
22.0416257815951333
 20
65.4579061160333708
 11
22.0416257815951333
 21
65.499572782700028
 72
     1
 10
22.0416257815951333
 20
65.499572782700028
 11
21.9166257815951333
 21
65.499572782700028
 97
        3
330
1B8
330
1B9
330
1BA
 75
     0
 76
     1
 98
        0
  0
LINE
  5
1B8
102
{ACAD_REACTORS
330
1B7
102
}
100
AcDbEntity
  8
BUILDING_ENVELOPE
  6
CONTINUOUS
 62
     7
100
AcDbLine
 10
21.916626
 20
65.499573
 30
0.0
 11
21.916626
 21
65.457906
 31
0.0
  0
LINE
  5
1B9
102
{ACAD_REACTORS
330
1B7
102
}
100
AcDbEntity
  8
BUILDING_ENVELOPE
  6
CONTINUOUS
 62
     7
100
AcDbLine
 10
21.916626
 20
65.457906
 30
0.0
 11
22.041626
 21
65.457906
 31
0.0
  0
LINE
  5
1BA
102
{ACAD_REACTORS
330
1B7
102
}
100
AcDbEntity
  8
BUILDING_ENVELOPE
  6
CONTINUOUS
 62
     7
100
AcDbLine
 10
22.041626
 20
65.457906
 30
0.0
 11
22.041626
 21
65.499573
 31
0.0
  0
LINE
  5
1BB
102
{ACAD_REACTORS
330
1A7
102
}
100
AcDbEntity
  8
BUILDING_ENVELOPE
  6
CONTINUOUS
 62
     7
100
AcDbLine
 10
22.124959
 20
62.832906
 30
0.0
 11
21.791626
 21
62.832906
 31
0.0
  0
LINE
  5
1BC
102
{ACAD_REACTORS
330
1A7
102
}
100
AcDbEntity
  8
BUILDING_ENVELOPE
  6
CONTINUOUS
 62
     7
100
AcDbLine
 10
22.124959
 20
65.666239
 30
0.0
 11
21.791626
 21
65.666239
 31
0.0
  0
ARC
  5
1BD
102
{ACAD_REACTORS
330
1A7
102
}
100
AcDbEntity
  8
BUILDING_ENVELOPE
  6
CONTINUOUS
 62
     7
100
AcDbCircle
 10
21.791626
 20
62.999573
 30
0.0
 40
2.5
100
AcDbArc
 50
90.0
 51
180.0
  0
LWPOLYLINE
  5
1BE
102
{ACAD_REACTORS
330
1BF
102
}
100
AcDbEntity
  8
BUILDING_ENVELOPE
  6
CONTINUOUS
 62
     7
100
AcDbPolyline
 90
        4
 70
     1
 10
19.291626
 20
63.124573
 10
21.791626
 20
63.124573
 10
21.791626
 20
62.999573
 10
19.291626
 20
62.999573
  0
HATCH
  5
1BF
102
{ACAD_REACTORS
330
1A7
102
}
100
AcDbEntity
  8
BUILDING_ENVELOPE
 62
     7
100
AcDbHatch
 10
0.0
 20
0.0
 30
0.0
210
0.0
220
0.0
230
1.0
  2
SOLID
 70
     1
 71
     1
 91
        1
 92
        3
 72
     0
 73
     1
 93
        4
 10
19.2916257815951333
 20
63.1245727827000351
 10
21.7916257815951333
 20
63.1245727827000351
 10
21.7916257815951333
 20
62.9995727827000351
 10
19.2916257815951333
 20
62.9995727827000351
 97
        1
330
1BE
 75
     0
 76
     1
 98
        0
  0
LWPOLYLINE
  5
1C1
102
{ACAD_REACTORS
330
1C7
102
}
100
AcDbEntity
  8
BUILDING_ENVELOPE
  6
CONTINUOUS
 62
     7
100
AcDbPolyline
 90
        4
 70
     1
 10
11.283626
 20
58.618056
 10
11.283626
 20
61.451389
 10
11.632959
 20
61.451389
 10
11.632959
 20
58.618056
  0
LINE
  5
1C2
102
{ACAD_REACTORS
330
1C7
102
}
100
AcDbEntity
  8
BUILDING_ENVELOPE
  6
CONTINUOUS
 62
     7
100
AcDbLine
 10
11.291626
 20
61.451389
 30
0.0
 11
11.624959
 21
61.451389
 31
0.0
  0
LINE
  5
1C3
102
{ACAD_REACTORS
330
1C7
102
}
100
AcDbEntity
  8
BUILDING_ENVELOPE
  6
CONTINUOUS
 62
     7
100
AcDbLine
 10
11.624959
 20
61.451389
 30
0.0
 11
11.624959
 21
61.284722
 31
0.0
  0
LINE
  5
1C4
102
{ACAD_REACTORS
330
1C7
102
}
100
AcDbEntity
  8
BUILDING_ENVELOPE
  6
CONTINUOUS
 62
     7
100
AcDbLine
 10
11.624959
 20
61.284722
 30
0.0
 11
11.499959
 21
61.284722
 31
0.0
  0
LINE
  5
1C5
102
{ACAD_REACTORS
330
1C7
102
}
100
AcDbEntity
  8
BUILDING_ENVELOPE
  6
CONTINUOUS
 62
     7
100
AcDbLine
 10
11.374959
 20
61.284722
 30
0.0
 11
11.291626
 21
61.284722
 31
0.0
  0
LINE
  5
1C6
102
{ACAD_REACTORS
330
1C7
102
}
100
AcDbEntity
  8
BUILDING_ENVELOPE
  6
CONTINUOUS
 62
     7
100
AcDbLine
 10
11.291626
 20
61.284722
 30
0.0
 11
11.291626
 21
61.451389
 31
0.0
  0
HATCH
  5
1C7
102
{ACAD_REACTORS
330
1C0
102
}
100
AcDbEntity
  8
BUILDING_ENVELOPE
 62
     7
100
AcDbHatch
 10
0.0
 20
0.0
 30
0.0
210
0.0
220
0.0
230
1.0
  2
SOLID
 70
     1
 71
     1
 91
        2
 92
        1
 93
        6
 72
     1
 10
11.2916257815951511
 20
61.4513888888888928
 11
11.6249591149284832
 21
61.4513888888888928
 72
     1
 10
11.6249591149284832
 20
61.4513888888888928
 11
11.6249591149284832
 21
61.2847222222222285
 72
     1
 10
11.6249591149284832
 20
61.2847222222222285
 11
11.4999591149284832
 21
61.2847222222222285
 72
     1
 10
11.4999591149284832
 20
61.2847222222222285
 11
11.3749591149284832
 21
61.2847222222222285
 72
     1
 10
11.3749591149284832
 20
61.2847222222222285
 11
11.2916257815951511
 21
61.2847222222222285
 72
     1
 10
11.2916257815951511
 20
61.2847222222222285
 11
11.2916257815951511
 21
61.4513888888888928
 97
        6
330
1C1
330
1C2
330
1C3
330
1C4
330
1C5
330
1C6
 92
        1
 93
        6
 72
     1
 10
11.2916257815951511
 20
58.6180555555555571
 11
11.6249591149284832
 21
58.6180555555555571
 72
     1
 10
11.6249591149284832
 20
58.6180555555555571
 11
11.6249591149284832
 21
58.7847222222222285
 72
     1
 10
11.6249591149284832
 20
58.7847222222222285
 11
11.4999591149284832
 21
58.7847222222222285
 72
     1
 10
11.4999591149284832
 20
58.7847222222222285
 11
11.3749591149284832
 21
58.7847222222222285
 72
     1
 10
11.3749591149284832
 20
58.7847222222222285
 11
11.2916257815951511
 21
58.7847222222222285
 72
     1
 10
11.2916257815951511
 20
58.7847222222222285
 11
11.2916257815951511
 21
58.6180555555555571
 97
        5
330
1C8
330
1C9
330
1CA
330
1CB
330
1CC
 75
     0
 76
     1
 98
        0
  0
LINE
  5
1C8
102
{ACAD_REACTORS
330
1C7
102
}
100
AcDbEntity
  8
BUILDING_ENVELOPE
  6
CONTINUOUS
 62
     7
100
AcDbLine
 10
11.291626
 20
58.618056
 30
0.0
 11
11.624959
 21
58.618056
 31
0.0
  0
LINE
  5
1C9
102
{ACAD_REACTORS
330
1C7
102
}
100
AcDbEntity
  8
BUILDING_ENVELOPE
  6
CONTINUOUS
 62
     7
100
AcDbLine
 10
11.624959
 20
58.618056
 30
0.0
 11
11.624959
 21
58.784722
 31
0.0
  0
LINE
  5
1CA
102
{ACAD_REACTORS
330
1C7
102
}
100
AcDbEntity
  8
BUILDING_ENVELOPE
  6
CONTINUOUS
 62
     7
100
AcDbLine
 10
11.624959
 20
58.784722
 30
0.0
 11
11.499959
 21
58.784722
 31
0.0
  0
LINE
  5
1CB
102
{ACAD_REACTORS
330
1C7
102
}
100
AcDbEntity
  8
BUILDING_ENVELOPE
  6
CONTINUOUS
 62
     7
100
AcDbLine
 10
11.374959
 20
58.784722
 30
0.0
 11
11.291626
 21
58.784722
 31
0.0
  0
LINE
  5
1CC
102
{ACAD_REACTORS
330
1C7
102
}
100
AcDbEntity
  8
BUILDING_ENVELOPE
  6
CONTINUOUS
 62
     7
100
AcDbLine
 10
11.291626
 20
58.784722
 30
0.0
 11
11.291626
 21
58.618056
 31
0.0
  0
LINE
  5
1CD
102
{ACAD_REACTORS
330
1D0
102
}
100
AcDbEntity
  8
BUILDING_ENVELOPE
  6
CONTINUOUS
 62
     7
100
AcDbLine
 10
11.499959
 20
61.284722
 30
0.0
 11
11.499959
 21
61.243056
 31
0.0
  0
LINE
  5
1CE
102
{ACAD_REACTORS
330
1D0
102
}
100
AcDbEntity
  8
BUILDING_ENVELOPE
  6
CONTINUOUS
 62
     7
100
AcDbLine
 10
11.499959
 20
61.243056
 30
0.0
 11
11.374959
 21
61.243056
 31
0.0
  0
LINE
  5
1CF
102
{ACAD_REACTORS
330
1D0
102
}
100
AcDbEntity
  8
BUILDING_ENVELOPE
  6
CONTINUOUS
 62
     7
100
AcDbLine
 10
11.374959
 20
61.243056
 30
0.0
 11
11.374959
 21
61.284722
 31
0.0
  0
HATCH
  5
1D0
102
{ACAD_REACTORS
330
1C0
102
}
100
AcDbEntity
  8
BUILDING_ENVELOPE
 62
     7
100
AcDbHatch
 10
0.0
 20
0.0
 30
0.0
210
0.0
220
0.0
230
1.0
  2
SOLID
 70
     1
 71
     1
 91
        2
 92
        1
 93
        4
 72
     1
 10
11.4999591149284832
 20
61.2847222222222285
 11
11.4999591149284832
 21
61.2430555555555571
 72
     1
 10
11.4999591149284832
 20
61.2430555555555571
 11
11.3749591149284832
 21
61.2430555555555571
 72
     1
 10
11.3749591149284832
 20
61.2430555555555571
 11
11.3749591149284832
 21
61.2847222222222285
 72
     1
 10
11.3749591149284832
 20
61.2847222222222285
 11
11.4999591149284832
 21
61.2847222222222285
 97
        3
330
1CD
330
1CE
330
1CF
 92
        1
 93
        4
 72
     1
 10
11.4999591149284832
 20
58.7847222222222285
 11
11.4999591149284832
 21
58.8263888888888928
 72
     1
 10
11.4999591149284832
 20
58.8263888888888928
 11
11.3749591149284832
 21
58.8263888888888928
 72
     1
 10
11.3749591149284832
 20
58.8263888888888928
 11
11.3749591149284832
 21
58.7847222222222285
 72
     1
 10
11.3749591149284832
 20
58.7847222222222285
 11
11.4999591149284832
 21
58.7847222222222285
 97
        3
330
1D1
330
1D2
330
1D3
 75
     0
 76
     1
 98
        0
  0
LINE
  5
1D1
102
{ACAD_REACTORS
330
1D0
102
}
100
AcDbEntity
  8
BUILDING_ENVELOPE
  6
CONTINUOUS
 62
     7
100
AcDbLine
 10
11.499959
 20
58.784722
 30
0.0
 11
11.499959
 21
58.826389
 31
0.0
  0
LINE
  5
1D2
102
{ACAD_REACTORS
330
1D0
102
}
100
AcDbEntity
  8
BUILDING_ENVELOPE
  6
CONTINUOUS
 62
     7
100
AcDbLine
 10
11.499959
 20
58.826389
 30
0.0
 11
11.374959
 21
58.826389
 31
0.0
  0
LINE
  5
1D3
102
{ACAD_REACTORS
330
1D0
102
}
100
AcDbEntity
  8
BUILDING_ENVELOPE
  6
CONTINUOUS
 62
     7
100
AcDbLine
 10
11.374959
 20
58.826389
 30
0.0
 11
11.374959
 21
58.784722
 31
0.0
  0
LINE
  5
1D4
102
{ACAD_REACTORS
330
1C0
102
}
100
AcDbEntity
  8
BUILDING_ENVELOPE
  6
CONTINUOUS
 62
     7
100
AcDbLine
 10
11.291626
 20
61.451389
 30
0.0
 11
11.624959
 21
61.451389
 31
0.0
  0
LINE
  5
1D5
102
{ACAD_REACTORS
330
1C0
102
}
100
AcDbEntity
  8
BUILDING_ENVELOPE
  6
CONTINUOUS
 62
     7
100
AcDbLine
 10
11.291626
 20
58.618056
 30
0.0
 11
11.624959
 21
58.618056
 31
0.0
  0
ARC
  5
1D6
102
{ACAD_REACTORS
330
1C0
102
}
100
AcDbEntity
  8
BUILDING_ENVELOPE
  6
CONTINUOUS
 62
     7
100
AcDbCircle
 10
11.624959
 20
61.284722
 30
0.0
 40
2.5
100
AcDbArc
 50
270.0
 51
0.0
  0
LWPOLYLINE
  5
1D7
102
{ACAD_REACTORS
330
1D8
102
}
100
AcDbEntity
  8
BUILDING_ENVELOPE
  6
CONTINUOUS
 62
     7
100
AcDbPolyline
 90
        4
 70
     1
 10
14.124959
 20
61.159722
 10
11.624959
 20
61.159722
 10
11.624959
 20
61.284722
 10
14.124959
 20
61.284722
  0
HATCH
  5
1D8
102
{ACAD_REACTORS
330
1C0
102
}
100
AcDbEntity
  8
BUILDING_ENVELOPE
 62
     7
100
AcDbHatch
 10
0.0
 20
0.0
 30
0.0
210
0.0
220
0.0
230
1.0
  2
SOLID
 70
     1
 71
     1
 91
        1
 92
        3
 72
     0
 73
     1
 93
        4
 10
14.1249591149284832
 20
61.1597222222222285
 10
11.6249591149284832
 20
61.1597222222222285
 10
11.6249591149284832
 20
61.2847222222222285
 10
14.1249591149284832
 20
61.2847222222222285
 97
        1
330
1D7
 75
     0
 76
     1
 98
        0
  0
LWPOLYLINE
  5
1DB
102
{ACAD_REACTORS
330
1DC
102
}
100
AcDbEntity
  8
LANDING
  6
CONTINUOUS
 62
     7
100
AcDbPolyline
 90
        4
 70
     1
 10
5.451207
 20
43.305074
 10
5.451207
 20
39.15134
 10
9.520624
 20
39.15134
 10
9.520624
 20
43.305074
  0
HATCH
  5
1DC
102
{ACAD_REACTORS
330
1D9
102
}
100
AcDbEntity
  8
LANDING
 62
   134
100
AcDbHatch
 10
0.0
 20
0.0
 30
0.0
210
0.0
220
0.0
230
1.0
  2
SOLID
 70
     1
 71
     1
 91
        1
 92
        3
 72
     0
 73
     1
 93
        4
 10
5.4512074247938784
 20
43.3050744389583215
 10
5.4512074247938784
 20
39.1513400380434433
 10
9.5206238003478028
 20
39.1513400380434433
 10
9.5206238003478028
 20
43.3050744389583215
 97
        1
330
1DB
 75
     0
 76
     1
 98
        0
  0
LINE
  5
1DD
102
{ACAD_REACTORS
330
1D9
102
}
100
AcDbEntity
  8
LANDING
  6
CONTINUOUS
 62
     9
100
AcDbLine
 10
5.451207
 20
43.305074
 30
0.0
 11
9.520624
 21
41.23801
 31
0.0
  0
LINE
  5
1DE
102
{ACAD_REACTORS
330
1D9
102
}
100
AcDbEntity
  8
LANDING
  6
CONTINUOUS
 62
     9
100
AcDbLine
 10
5.451207
 20
43.305074
 30
0.0
 11
7.47794
 21
39.15134
 31
0.0
  0
LWPOLYLINE
  5
1DF
102
{ACAD_REACTORS
330
1E0
102
}
100
AcDbEntity
  8
BUILDING_ENVELOPE
  6
CONTINUOUS
 62
     9
100
AcDbPolyline
 90
        4
 70
     1
 10
9.477541
 20
43.363408
 10
10.361355
 20
43.363408
 10
10.361355
 20
39.131463
 10
9.477541
 20
39.131463
  0
HATCH
  5
1E0
102
{ACAD_REACTORS
330
1D9
102
}
100
AcDbEntity
  8
BUILDING_ENVELOPE
 62
   134
100
AcDbHatch
 10
0.0
 20
0.0
 30
0.0
210
0.0
220
0.0
230
1.0
  2
SOLID
 70
     1
 71
     1
 91
       33
 92
        3
 72
     0
 73
     1
 93
        4
 10
9.477540751602465
 20
43.3634077731711685
 10
10.3613548541665708
 20
43.3634077731711685
 10
10.3613548541665708
 20
39.1314628748622582
 10
9.477540751602465
 20
39.1314628748622582
 97
        1
330
1DF
 92
        3
 72
     0
 73
     1
 93
        4
 10
10.3613548541665708
 20
43.3634077731711685
 10
11.2451689567306765
 20
43.3634077731711685
 10
11.2451689567306765
 20
39.1314628748622582
 10
10.3613548541665708
 20
39.1314628748622582
 97
        1
330
1E1
 92
        3
 72
     0
 73
     1
 93
        4
 10
11.2451689567306765
 20
43.3634077731711685
 10
12.1289830592947823
 20
43.3634077731711685
 10
12.1289830592947823
 20
39.1314628748622582
 10
11.2451689567306765
 20
39.1314628748622582
 97
        1
330
1E2
 92
        3
 72
     0
 73
     1
 93
        4
 10
12.1289830592947823
 20
43.3634077731711685
 10
13.012797161858888
 20
43.3634077731711685
 10
13.012797161858888
 20
39.1314628748622582
 10
12.1289830592947823
 20
39.1314628748622582
 97
        1
330
1E3
 92
        3
 72
     0
 73
     1
 93
        4
 10
13.012797161858888
 20
43.3634077731711685
 10
13.8966112644229902
 20
43.3634077731711685
 10
13.8966112644229902
 20
39.1314628748622582
 10
13.012797161858888
 20
39.1314628748622582
 97
        1
330
1E4
 92
        3
 72
     0
 73
     1
 93
        4
 10
13.8966112644229902
 20
43.3634077731711685
 10
14.7804253669870977
 20
43.3634077731711685
 10
14.7804253669870977
 20
39.1314628748622582
 10
13.8966112644229902
 20
39.1314628748622582
 97
        1
330
1E5
 92
        3
 72
     0
 73
     1
 93
        4
 10
14.7804253669870977
 20
43.3634077731711685
 10
15.6642394695512017
 20
43.3634077731711685
 10
15.6642394695512017
 20
39.1314628748622582
 10
14.7804253669870977
 20
39.1314628748622582
 97
        1
330
1E6
 92
        3
 72
     0
 73
     1
 93
        4
 10
15.6642394695512017
 20
43.3634077731711685
 10
16.5480535721153075
 20
43.3634077731711685
 10
16.5480535721153075
 20
39.1314628748622582
 10
15.6642394695512017
 20
39.1314628748622582
 97
        1
330
1E7
 92
        3
 72
     0
 73
     1
 93
        4
 10
16.5480535721153075
 20
43.3634077731711685
 10
17.4318676746794132
 20
43.3634077731711685
 10
17.4318676746794132
 20
39.1314628748622582
 10
16.5480535721153075
 20
39.1314628748622582
 97
        1
330
1E8
 92
        3
 72
     0
 73
     1
 93
        4
 10
17.4318676746794132
 20
43.3634077731711685
 10
18.3156817772435154
 20
43.3634077731711685
 10
18.3156817772435154
 20
39.1314628748622582
 10
17.4318676746794132
 20
39.1314628748622582
 97
        1
330
1E9
 92
        3
 72
     0
 73
     1
 93
        4
 10
18.3156817772435154
 20
43.3634077731711685
 10
19.1994958798076212
 20
43.3634077731711685
 10
19.1994958798076212
 20
39.1314628748622582
 10
18.3156817772435154
 20
39.1314628748622582
 97
        1
330
1EA
 92
        3
 72
     0
 73
     1
 93
        4
 10
19.1994958798076212
 20
43.3634077731711685
 10
20.0833099823717305
 20
43.3634077731711685
 10
20.0833099823717305
 20
39.1314628748622582
 10
19.1994958798076212
 20
39.1314628748622582
 97
        1
330
1EB
 92
        3
 72
     0
 73
     1
 93
        4
 10
20.0833099823717305
 20
43.3634077731711685
 10
20.9671240849357972
 20
43.3634077731711685
 10
20.9671240849357972
 20
39.1314628748622582
 10
20.0833099823717305
 20
39.1314628748622582
 97
        1
330
1EC
 92
        0
 93
        0
 97
        0
 92
        0
 93
        0
 97
        0
 92
        0
 93
        0
 97
        0
 92
        0
 93
        0
 97
        0
 92
        0
 93
        0
 97
        0
 92
        0
 93
        0
 97
        0
 92
        0
 93
        0
 97
        0
 92
        0
 93
        0
 97
        0
 92
        0
 93
        0
 97
        0
 92
        0
 93
        0
 97
        0
 92
        0
 93
        0
 97
        0
 92
        0
 93
        0
 97
        0
 92
        0
 93
        0
 97
        0
 92
        0
 93
        0
 97
        0
 92
        0
 93
        0
 97
        0
 92
        0
 93
        0
 97
        0
 92
        0
 93
        0
 97
        0
 92
        0
 93
        0
 97
        0
 92
        0
 93
        0
 97
        0
 92
        0
 93
        0
 97
        0
 75
     0
 76
     1
 98
        0
  0
LWPOLYLINE
  5
1E1
102
{ACAD_REACTORS
330
1E0
102
}
100
AcDbEntity
  8
BUILDING_ENVELOPE
  6
CONTINUOUS
 62
     9
100
AcDbPolyline
 90
        4
 70
     1
 10
10.361355
 20
43.363408
 10
11.245169
 20
43.363408
 10
11.245169
 20
39.131463
 10
10.361355
 20
39.131463
  0
LWPOLYLINE
  5
1E2
102
{ACAD_REACTORS
330
1E0
102
}
100
AcDbEntity
  8
BUILDING_ENVELOPE
  6
CONTINUOUS
 62
     9
100
AcDbPolyline
 90
        4
 70
     1
 10
11.245169
 20
43.363408
 10
12.128983
 20
43.363408
 10
12.128983
 20
39.131463
 10
11.245169
 20
39.131463
  0
LWPOLYLINE
  5
1E3
102
{ACAD_REACTORS
330
1E0
102
}
100
AcDbEntity
  8
BUILDING_ENVELOPE
  6
CONTINUOUS
 62
     9
100
AcDbPolyline
 90
        4
 70
     1
 10
12.128983
 20
43.363408
 10
13.012797
 20
43.363408
 10
13.012797
 20
39.131463
 10
12.128983
 20
39.131463
  0
LWPOLYLINE
  5
1E4
102
{ACAD_REACTORS
330
1E0
102
}
100
AcDbEntity
  8
BUILDING_ENVELOPE
  6
CONTINUOUS
 62
     9
100
AcDbPolyline
 90
        4
 70
     1
 10
13.012797
 20
43.363408
 10
13.896611
 20
43.363408
 10
13.896611
 20
39.131463
 10
13.012797
 20
39.131463
  0
LWPOLYLINE
  5
1E5
102
{ACAD_REACTORS
330
1E0
102
}
100
AcDbEntity
  8
BUILDING_ENVELOPE
  6
CONTINUOUS
 62
     9
100
AcDbPolyline
 90
        4
 70
     1
 10
13.896611
 20
43.363408
 10
14.780425
 20
43.363408
 10
14.780425
 20
39.131463
 10
13.896611
 20
39.131463
  0
LWPOLYLINE
  5
1E6
102
{ACAD_REACTORS
330
1E0
102
}
100
AcDbEntity
  8
BUILDING_ENVELOPE
  6
CONTINUOUS
 62
     9
100
AcDbPolyline
 90
        4
 70
     1
 10
14.780425
 20
43.363408
 10
15.664239
 20
43.363408
 10
15.664239
 20
39.131463
 10
14.780425
 20
39.131463
  0
LWPOLYLINE
  5
1E7
102
{ACAD_REACTORS
330
1E0
102
}
100
AcDbEntity
  8
BUILDING_ENVELOPE
  6
CONTINUOUS
 62
     9
100
AcDbPolyline
 90
        4
 70
     1
 10
15.664239
 20
43.363408
 10
16.548054
 20
43.363408
 10
16.548054
 20
39.131463
 10
15.664239
 20
39.131463
  0
LWPOLYLINE
  5
1E8
102
{ACAD_REACTORS
330
1E0
102
}
100
AcDbEntity
  8
BUILDING_ENVELOPE
  6
CONTINUOUS
 62
     9
100
AcDbPolyline
 90
        4
 70
     1
 10
16.548054
 20
43.363408
 10
17.431868
 20
43.363408
 10
17.431868
 20
39.131463
 10
16.548054
 20
39.131463
  0
LWPOLYLINE
  5
1E9
102
{ACAD_REACTORS
330
1E0
102
}
100
AcDbEntity
  8
BUILDING_ENVELOPE
  6
CONTINUOUS
 62
     9
100
AcDbPolyline
 90
        4
 70
     1
 10
17.431868
 20
43.363408
 10
18.315682
 20
43.363408
 10
18.315682
 20
39.131463
 10
17.431868
 20
39.131463
  0
LWPOLYLINE
  5
1EA
102
{ACAD_REACTORS
330
1E0
102
}
100
AcDbEntity
  8
BUILDING_ENVELOPE
  6
CONTINUOUS
 62
     9
100
AcDbPolyline
 90
        4
 70
     1
 10
18.315682
 20
43.363408
 10
19.199496
 20
43.363408
 10
19.199496
 20
39.131463
 10
18.315682
 20
39.131463
  0
LWPOLYLINE
  5
1EB
102
{ACAD_REACTORS
330
1E0
102
}
100
AcDbEntity
  8
BUILDING_ENVELOPE
  6
CONTINUOUS
 62
     9
100
AcDbPolyline
 90
        4
 70
     1
 10
19.199496
 20
43.363408
 10
20.08331
 20
43.363408
 10
20.08331
 20
39.131463
 10
19.199496
 20
39.131463
  0
LWPOLYLINE
  5
1EC
102
{ACAD_REACTORS
330
1E0
102
}
100
AcDbEntity
  8
BUILDING_ENVELOPE
  6
CONTINUOUS
 62
     9
100
AcDbPolyline
 90
        4
 70
     1
 10
20.08331
 20
43.363408
 10
20.967124
 20
43.363408
 10
20.967124
 20
39.131463
 10
20.08331
 20
39.131463
  0
MTEXT
  5
1ED
100
AcDbEntity
  8
BUILDING_ENVELOPE
100
AcDbMText
 10
9.100907
 20
41.247435
 30
0.0
 40
0.333332
 41
0.753267
 71
     5
 72
     5
  1
\C7;\fCalibri|b0|i0|;\H0.33333206176758;UP
 11
-1.0
 21
0.0
 31
0.0
  0
CIRCLE
  5
1EF
102
{ACAD_REACTORS
330
1F0
102
}
100
AcDbEntity
  8
STAIR
  6
CONTINUOUS
 62
     7
100
AcDbCircle
 10
9.477541
 20
41.247435
 30
0.0
 40
0.086804
  0
HATCH
  5
1F0
102
{ACAD_REACTORS
330
1D9
102
}
100
AcDbEntity
  8
STAIR
 62
   134
100
AcDbHatch
 10
0.0
 20
0.0
 30
0.0
210
0.0
220
0.0
230
1.0
  2
SOLID
 70
     1
 71
     1
 91
        1
 92
        1
 93
        1
 72
     2
 10
9.477540751602465
 20
41.2474353240167133
 40
0.0868041666666667
 50
0.0
 51
360.0
 73
     1
 97
        1
330
1EF
 75
     0
 76
     1
 98
        0
  0
LINE
  5
1F1
102
{ACAD_REACTORS
330
1D9
102
}
100
AcDbEntity
  8
STAIR
  6
CONTINUOUS
 62
     7
100
AcDbLine
 10
9.477541
 20
41.247435
 30
0.0
 11
11.785741
 21
41.247435
 31
0.0
  0
LWPOLYLINE
  5
1F2
102
{ACAD_REACTORS
330
1F3
102
}
100
AcDbEntity
  8
STAIR
  6
CONTINUOUS
 62
     7
100
AcDbPolyline
 90
        3
 70
     1
 10
11.572828
 20
41.11996
 10
11.572828
 20
41.37491
 10
11.998653
 20
41.244701
  0
HATCH
  5
1F3
102
{ACAD_REACTORS
330
1D9
102
}
100
AcDbEntity
  8
STAIR
 62
   134
100
AcDbHatch
 10
0.0
 20
0.0
 30
0.0
210
0.0
220
0.0
230
1.0
  2
SOLID
 70
     1
 71
     1
 91
        1
 92
        3
 72
     0
 73
     1
 93
        3
 10
11.5728282516024663
 20
41.1199603240167164
 10
11.5728282516024663
 20
41.3749103240167102
 10
11.998653251602466
 20
41.2447009266724862
 97
        1
330
1F2
 75
     0
 76
     1
 98
        0
  0
LWPOLYLINE
  5
1F4
102
{ACAD_REACTORS
330
1F5
102
}
100
AcDbEntity
  8
BUILDING_ENVELOPE
  6
CONTINUOUS
 62
     9
100
AcDbPolyline
 90
        4
 70
     1
 10
5.469964
 20
43.34813
 10
5.469964
 20
44.318118
 10
9.377541
 20
44.318118
 10
9.377541
 20
43.34813
  0
HATCH
  5
1F5
102
{ACAD_REACTORS
330
1D9
102
}
100
AcDbEntity
  8
BUILDING_ENVELOPE
 62
   134
100
AcDbHatch
 10
0.0
 20
0.0
 30
0.0
210
0.0
220
0.0
230
1.0
  2
SOLID
 70
     1
 71
     1
 91
       33
 92
        3
 72
     0
 73
     1
 93
        4
 10
5.469964115117202
 20
43.348129989274824
 10
5.469964115117202
 20
44.3181175836549528
 10
9.3775407516024618
 20
44.3181175836549528
 10
9.3775407516024618
 20
43.348129989274824
 97
        1
330
1F4
 92
        3
 72
     0
 73
     1
 93
        4
 10
5.469964115117202
 20
44.3181175836549528
 10
5.469964115117202
 20
45.2881051780350745
 10
9.3775407516024618
 20
45.2881051780350745
 10
9.3775407516024618
 20
44.3181175836549528
 97
        1
330
1F6
 92
        3
 72
     0
 73
     1
 93
        4
 10
5.469964115117202
 20
45.2881051780350745
 10
5.469964115117202
 20
46.2580927724151962
 10
9.3775407516024618
 20
46.2580927724151962
 10
9.3775407516024618
 20
45.2881051780350745
 97
        1
330
1F7
 92
        3
 72
     0
 73
     1
 93
        4
 10
5.469964115117202
 20
46.2580927724151962
 10
5.469964115117202
 20
47.2280803667953251
 10
9.3775407516024618
 20
47.2280803667953251
 10
9.3775407516024618
 20
46.2580927724151962
 97
        1
330
1F8
 92
        3
 72
     0
 73
     1
 93
        4
 10
5.469964115117202
 20
47.2280803667953251
 10
5.469964115117202
 20
48.1980679611754468
 10
9.3775407516024618
 20
48.1980679611754468
 10
9.3775407516024618
 20
47.2280803667953251
 97
        1
330
1F9
 92
        3
 72
     0
 73
     1
 93
        4
 10
5.469964115117202
 20
48.1980679611754468
 10
5.469964115117202
 20
49.1680555555555685
 10
9.3775407516024618
 20
49.1680555555555685
 10
9.3775407516024618
 20
48.1980679611754468
 97
        1
330
1FA
 92
        0
 93
        0
 97
        0
 92
        0
 93
        0
 97
        0
 92
        0
 93
        0
 97
        0
 92
        0
 93
        0
 97
        0
 92
        0
 93
        0
 97
        0
 92
        0
 93
        0
 97
        0
 92
        0
 93
        0
 97
        0
 92
        0
 93
        0
 97
        0
 92
        0
 93
        0
 97
        0
 92
        0
 93
        0
 97
        0
 92
        0
 93
        0
 97
        0
 92
        0
 93
        0
 97
        0
 92
        0
 93
        0
 97
        0
 92
        0
 93
        0
 97
        0
 92
        0
 93
        0
 97
        0
 92
        0
 93
        0
 97
        0
 92
        0
 93
        0
 97
        0
 92
        0
 93
        0
 97
        0
 92
        0
 93
        0
 97
        0
 92
        0
 93
        0
 97
        0
 92
        0
 93
        0
 97
        0
 92
        0
 93
        0
 97
        0
 92
        0
 93
        0
 97
        0
 92
        0
 93
        0
 97
        0
 92
        0
 93
        0
 97
        0
 92
        0
 93
        0
 97
        0
 92
        0
 93
        0
 97
        0
 75
     0
 76
     1
 98
        0
  0
LWPOLYLINE
  5
1F6
102
{ACAD_REACTORS
330
1F5
102
}
100
AcDbEntity
  8
BUILDING_ENVELOPE
  6
CONTINUOUS
 62
     9
100
AcDbPolyline
 90
        4
 70
     1
 10
5.469964
 20
44.318118
 10
5.469964
 20
45.288105
 10
9.377541
 20
45.288105
 10
9.377541
 20
44.318118
  0
LWPOLYLINE
  5
1F7
102
{ACAD_REACTORS
330
1F5
102
}
100
AcDbEntity
  8
BUILDING_ENVELOPE
  6
CONTINUOUS
 62
     9
100
AcDbPolyline
 90
        4
 70
     1
 10
5.469964
 20
45.288105
 10
5.469964
 20
46.258093
 10
9.377541
 20
46.258093
 10
9.377541
 20
45.288105
  0
LWPOLYLINE
  5
1F8
102
{ACAD_REACTORS
330
1F5
102
}
100
AcDbEntity
  8
BUILDING_ENVELOPE
  6
CONTINUOUS
 62
     9
100
AcDbPolyline
 90
        4
 70
     1
 10
5.469964
 20
46.258093
 10
5.469964
 20
47.22808
 10
9.377541
 20
47.22808
 10
9.377541
 20
46.258093
  0
LWPOLYLINE
  5
1F9
102
{ACAD_REACTORS
330
1F5
102
}
100
AcDbEntity
  8
BUILDING_ENVELOPE
  6
CONTINUOUS
 62
     9
100
AcDbPolyline
 90
        4
 70
     1
 10
5.469964
 20
47.22808
 10
5.469964
 20
48.198068
 10
9.377541
 20
48.198068
 10
9.377541
 20
47.22808
  0
LWPOLYLINE
  5
1FA
102
{ACAD_REACTORS
330
1F5
102
}
100
AcDbEntity
  8
BUILDING_ENVELOPE
  6
CONTINUOUS
 62
     9
100
AcDbPolyline
 90
        4
 70
     1
 10
5.469964
 20
48.198068
 10
5.469964
 20
49.168056
 10
9.377541
 20
49.168056
 10
9.377541
 20
48.198068
  0
MTEXT
  5
1FB
100
AcDbEntity
  8
BUILDING_ENVELOPE
100
AcDbMText
 10
7.423752
 20
42.971497
 30
0.0
 40
0.333332
 41
0.753267
 71
     5
 72
     5
  1
\C7;\fCalibri|b0|i0|;\H0.33333206176758;UP
 11
0.0
 21
1.0
 31
0.0
  0
CIRCLE
  5
1FC
102
{ACAD_REACTORS
330
1FD
102
}
100
AcDbEntity
  8
STAIR
  6
CONTINUOUS
 62
     7
100
AcDbCircle
 10
7.423752
 20
43.34813
 30
0.0
 40
0.086804
  0
HATCH
  5
1FD
102
{ACAD_REACTORS
330
1D9
102
}
100
AcDbEntity
  8
STAIR
 62
   134
100
AcDbHatch
 10
0.0
 20
0.0
 30
0.0
210
0.0
220
0.0
230
1.0
  2
SOLID
 70
     1
 71
     1
 91
        1
 92
        1
 93
        1
 72
     2
 10
7.4237524333598337
 20
43.348129989274824
 40
0.0868041666666667
 50
0.0
 51
360.0
 73
     1
 97
        1
330
1FC
 75
     0
 76
     1
 98
        0
  0
LINE
  5
1FE
102
{ACAD_REACTORS
330
1D9
102
}
100
AcDbEntity
  8
STAIR
  6
CONTINUOUS
 62
     7
100
AcDbLine
 10
7.423752
 20
43.34813
 30
0.0
 11
7.423752
 21
45.65633
 31
0.0
  0
LWPOLYLINE
  5
1FF
102
{ACAD_REACTORS
330
200
102
}
100
AcDbEntity
  8
STAIR
  6
CONTINUOUS
 62
     7
100
AcDbPolyline
 90
        3
 70
     1
 10
7.551227
 20
45.443417
 10
7.296277
 20
45.443417
 10
7.426487
 20
45.869242
  0
HATCH
  5
200
102
{ACAD_REACTORS
330
1D9
102
}
100
AcDbEntity
  8
STAIR
 62
   134
100
AcDbHatch
 10
0.0
 20
0.0
 30
0.0
210
0.0
220
0.0
230
1.0
  2
SOLID
 70
     1
 71
     1
 91
        1
 92
        3
 72
     0
 73
     1
 93
        3
 10
7.5512274333598324
 20
45.4434174892748288
 10
7.2962774333598333
 20
45.4434174892748288
 10
7.4264868307040617
 20
45.8692424892748249
 97
        1
330
1FF
 75
     0
 76
     1
 98
        0
  0
LWPOLYLINE
  5
202
102
{ACAD_REACTORS
330
201
102
}
100
AcDbEntity
  8
BUILDING_ENVELOPE
  6
CONTINUOUS
 62
     7
100
AcDbPolyline
 90
        4
 70
     1
 10
29.758338
 20
0.158667
 10
43.156948
 20
0.158667
 10
43.156948
 20
0.508
 10
29.758338
 20
0.508
  0
LINE
  5
203
102
{ACAD_REACTORS
330
201
102
}
100
AcDbEntity
  8
BUILDING_ENVELOPE
  6
CONTINUOUS
 62
     7
100
AcDbLine
 10
29.758338
 20
0.166667
 30
0.0
 11
29.758338
 21
0.5
 31
0.0
  0
LINE
  5
204
102
{ACAD_REACTORS
330
201
102
}
100
AcDbEntity
  8
BUILDING_ENVELOPE
  6
CONTINUOUS
 62
     7
100
AcDbLine
 10
29.758338
 20
0.5
 30
0.0
 11
29.925005
 21
0.5
 31
0.0
  0
LINE
  5
205
102
{ACAD_REACTORS
330
201
102
}
100
AcDbEntity
  8
BUILDING_ENVELOPE
  6
CONTINUOUS
 62
     7
100
AcDbLine
 10
29.925005
 20
0.5
 30
0.0
 11
29.925005
 21
0.416667
 31
0.0
  0
LINE
  5
206
102
{ACAD_REACTORS
330
201
102
}
100
AcDbEntity
  8
BUILDING_ENVELOPE
  6
CONTINUOUS
 62
     7
100
AcDbLine
 10
29.925005
 20
0.25
 30
0.0
 11
29.925005
 21
0.166667
 31
0.0
  0
LINE
  5
207
102
{ACAD_REACTORS
330
201
102
}
100
AcDbEntity
  8
BUILDING_ENVELOPE
  6
CONTINUOUS
 62
     7
100
AcDbLine
 10
29.925005
 20
0.166667
 30
0.0
 11
29.758338
 21
0.166667
 31
0.0
  0
LINE
  5
208
102
{ACAD_REACTORS
330
201
102
}
100
AcDbEntity
  8
BUILDING_ENVELOPE
  6
CONTINUOUS
 62
     7
100
AcDbLine
 10
43.156948
 20
0.166667
 30
0.0
 11
43.156948
 21
0.5
 31
0.0
  0
LINE
  5
209
102
{ACAD_REACTORS
330
201
102
}
100
AcDbEntity
  8
BUILDING_ENVELOPE
  6
CONTINUOUS
 62
     7
100
AcDbLine
 10
43.156948
 20
0.5
 30
0.0
 11
42.990282
 21
0.5
 31
0.0
  0
LINE
  5
20A
102
{ACAD_REACTORS
330
201
102
}
100
AcDbEntity
  8
BUILDING_ENVELOPE
  6
CONTINUOUS
 62
     7
100
AcDbLine
 10
42.990282
 20
0.5
 30
0.0
 11
42.990282
 21
0.416667
 31
0.0
  0
LINE
  5
20B
102
{ACAD_REACTORS
330
201
102
}
100
AcDbEntity
  8
BUILDING_ENVELOPE
  6
CONTINUOUS
 62
     7
100
AcDbLine
 10
42.990282
 20
0.25
 30
0.0
 11
42.990282
 21
0.166667
 31
0.0
  0
LINE
  5
20C
102
{ACAD_REACTORS
330
201
102
}
100
AcDbEntity
  8
BUILDING_ENVELOPE
  6
CONTINUOUS
 62
     7
100
AcDbLine
 10
42.990282
 20
0.166667
 30
0.0
 11
43.156948
 21
0.166667
 31
0.0
  0
LWPOLYLINE
  5
20D
102
{ACAD_REACTORS
330
201
102
}
100
AcDbEntity
  8
BUILDING_ENVELOPE
  6
CONTINUOUS
 62
     7
100
AcDbPolyline
 90
        4
 70
     1
 10
29.925005
 20
0.416667
 10
30.091671
 20
0.416667
 10
30.091671
 20
0.25
 10
29.925005
 20
0.25
  0
LWPOLYLINE
  5
20E
102
{ACAD_REACTORS
330
201
102
}
100
AcDbEntity
  8
BUILDING_ENVELOPE
  6
CONTINUOUS
 62
     7
100
AcDbPolyline
 90
        4
 70
     1
 10
42.990282
 20
0.416667
 10
42.823615
 20
0.416667
 10
42.823615
 20
0.25
 10
42.990282
 20
0.25
  0
LINE
  5
20F
102
{ACAD_REACTORS
330
201
102
}
100
AcDbEntity
  8
BUILDING_ENVELOPE
  6
CONTINUOUS
 62
     7
100
AcDbLine
 10
30.091671
 20
0.333333
 30
0.0
 11
42.823615
 21
0.333333
 31
0.0
  0
LINE
  5
210
102
{ACAD_REACTORS
330
201
102
}
100
AcDbEntity
  8
BUILDING_ENVELOPE
  6
CONTINUOUS
 62
     7
100
AcDbLine
 10
29.758338
 20
0.166667
 30
0.0
 11
29.758338
 21
0.5
 31
0.0
  0
LINE
  5
211
102
{ACAD_REACTORS
330
201
102
}
100
AcDbEntity
  8
BUILDING_ENVELOPE
  6
CONTINUOUS
 62
     7
100
AcDbLine
 10
43.156948
 20
0.166667
 30
0.0
 11
43.156948
 21
0.5
 31
0.0
  0
ENDSEC
  0
SECTION
  2
OBJECTS
  0
DICTIONARY
  5
C
100
AcDbDictionary
  3
ACAD_GROUP
350
D
  3
ACAD_MLINESTYLE
350
1B
  3
ACAD_SCALELIST
350
2C
  3
ACAD_VISUALSTYLE
350
51
  3
ACAD_MATERIAL
350
6A
  3
ACAD_TABLESTYLE
350
6E
  3
ACAD_MLEADERSTYLE
350
70
  0
DICTIONARY
  5
D
102
{ACAD_REACTORS
330
C
102
}
100
AcDbDictionary
  3
VISIOGROUP_0
350
74
  3
VISIOGROUP_1
350
80
  3
VISIOGROUP_2
350
84
  3
VISIOGROUP_3
350
88
  3
VISIOGROUP_4
350
8C
  3
VISIOGROUP_5
350
90
  3
VISIOGROUP_6
350
94
  3
VISIOGROUP_7
350
98
  3
VISIOGROUP_8
350
9C
  3
VISIOGROUP_9
350
A0
  3
VISIOGROUP_10
350
A4
  3
VISIOGROUP_11
350
A8
  3
VISIOGROUP_12
350
AF
  3
VISIOGROUP_13
350
B5
  3
VISIOGROUP_14
350
BA
  3
VISIOGROUP_15
350
BF
  3
VISIOGROUP_16
350
C4
  3
VISIOGROUP_17
350
CB
  3
VISIOGROUP_18
350
D0
  3
VISIOGROUP_19
350
D5
  3
VISIOGROUP_20
350
DA
  3
VISIOGROUP_21
350
E1
  3
VISIOGROUP_22
350
E6
  3
VISIOGROUP_23
350
EB
  3
VISIOGROUP_24
350
F2
  3
VISIOGROUP_25
350
F9
  3
VISIOGROUP_26
350
100
  3
VISIOGROUP_27
350
107
  3
VISIOGROUP_28
350
110
  3
VISIOGROUP_29
350
117
  3
VISIOGROUP_30
350
120
  3
VISIOGROUP_31
350
127
  3
VISIOGROUP_32
350
140
  3
VISIOGROUP_33
350
15C
  3
VISIOGROUP_34
350
175
  3
VISIOGROUP_35
350
18E
  3
VISIOGROUP_36
350
1A7
  3
VISIOGROUP_37
350
1C0
  3
VISIOGROUP_38
350
1D9
  3
VISIOGROUP_39
350
201
  0
DICTIONARY
  5
1B
102
{ACAD_REACTORS
330
C
102
}
100
AcDbDictionary
  3
STANDARD
350
1C
  0
MLINESTYLE
  5
1C
102
{ACAD_REACTORS
330
1B
102
}
100
AcDbMlineStyle
  2
STANDARD
 70
     0
  3

 62
   256
 51
90.0
 52
90.0
 71
     2
 49
0.5
 62
   256
  6
BYLAYER
 49
-0.5
 62
   256
  6
BYLAYER
  0
DICTIONARY
  5
29
102
{ACAD_REACTORS
330
C
102
}
100
AcDbDictionary
  0
DICTIONARY
  5
2C
102
{ACAD_REACTORS
330
C
102
}
100
AcDbDictionary
  3
A0
350
2D
  3
A1
350
2E
  3
A2
350
2F
  3
A3
350
30
  3
A4
350
31
  3
A5
350
32
  3
A6
350
33
  3
A7
350
34
  3
A8
350
35
  3
A9
350
36
  3
B0
350
37
  3
B1
350
38
  3
B2
350
39
  3
B3
350
3A
  3
B4
350
3B
  3
B5
350
3C
  3
B6
350
3D
  3
B7
350
3E
  3
B8
350
3F
  3
B9
350
40
  3
C0
350
41
  3
C1
350
42
  3
C2
350
43
  3
C3
350
44
  3
C4
350
45
  3
C5
350
46
  3
C6
350
47
  3
C7
350
48
  3
C8
350
49
  3
C9
350
4A
  3
D0
350
4B
  3
D1
350
4C
  3
D2
350
4D
  0
DICTIONARY
  5
4E
102
{ACAD_REACTORS
330
C
102
}
100
AcDbDictionary
  3
MODEL
350
4F
  3
LAYOUT1
350
50
  0
DICTIONARY
  5
51
102
{ACAD_REACTORS
330
C
102
}
100
AcDbDictionary
  3
FLAT
350
52
  3
FLATWITHEDGES
350
53
  3
GOURAUD
350
54
  3
GOURAUDWITHEDGES
350
55
  3
2DWIREFRAME
350
56
  3
WIREFRAME
350
57
  3
HIDDEN
350
58
  3
BASIC
350
59
  3
REALISTIC
350
5A
  3
CONCEPTUAL
350
5B
  3
DIM
350
5C
  3
BRIGHTEN
350
5D
  3
THICKEN
350
5E
  3
LINEPATTERN
350
5F
  3
FACEPATTERN
350
60
  3
COLORCHANGE
350
61
  3
JITTEROFF
350
62
  3
OVERHANGOFF
350
63
  3
EDGECOLOROFF
350
64
  3
SHADES OF GRAY
350
65
  3
SKETCHY
350
66
  3
X-RAY
350
67
  3
SHADED WITH EDGES
350
68
  3
SHADED
350
69
  0
DICTIONARY
  5
6A
102
{ACAD_REACTORS
330
C
102
}
100
AcDbDictionary
  3
BYLAYER
350
6B
  3
BYBLOCK
350
6C
  3
GLOBAL
350
6D
  0
DICTIONARY
  5
6E
102
{ACAD_REACTORS
330
C
102
}
100
AcDbDictionary
  3
STANDARD
350
6F
  0
DICTIONARY
  5
70
102
{ACAD_REACTORS
330
C
102
}
100
AcDbDictionary
  3
STANDARD
350
71
  0
GROUP
  5
74
102
{ACAD_REACTORS
330
D
102
}
100
AcDbGroup
300
Group created by Visio.
 70
     0
 71
     1
340
76
340
77
340
78
340
79
340
7A
340
7B
340
7C
340
7D
340
7E
  0
GROUP
  5
80
102
{ACAD_REACTORS
330
D
102
}
100
AcDbGroup
300
Group created by Visio.
 70
     0
 71
     1
340
81
340
82
  0
GROUP
  5
84
102
{ACAD_REACTORS
330
D
102
}
100
AcDbGroup
300
Group created by Visio.
 70
     0
 71
     1
340
85
340
86
  0
GROUP
  5
88
102
{ACAD_REACTORS
330
D
102
}
100
AcDbGroup
300
Group created by Visio.
 70
     0
 71
     1
340
89
340
8A
  0
GROUP
  5
8C
102
{ACAD_REACTORS
330
D
102
}
100
AcDbGroup
300
Group created by Visio.
 70
     0
 71
     1
340
8D
340
8E
  0
GROUP
  5
90
102
{ACAD_REACTORS
330
D
102
}
100
AcDbGroup
300
Group created by Visio.
 70
     0
 71
     1
340
91
340
92
  0
GROUP
  5
94
102
{ACAD_REACTORS
330
D
102
}
100
AcDbGroup
300
Group created by Visio.
 70
     0
 71
     1
340
95
340
96
  0
GROUP
  5
98
102
{ACAD_REACTORS
330
D
102
}
100
AcDbGroup
300
Group created by Visio.
 70
     0
 71
     1
340
99
340
9A
  0
GROUP
  5
9C
102
{ACAD_REACTORS
330
D
102
}
100
AcDbGroup
300
Group created by Visio.
 70
     0
 71
     1
340
9D
340
9E
  0
GROUP
  5
A0
102
{ACAD_REACTORS
330
D
102
}
100
AcDbGroup
300
Group created by Visio.
 70
     0
 71
     1
340
A1
340
A2
  0
GROUP
  5
A4
102
{ACAD_REACTORS
330
D
102
}
100
AcDbGroup
300
Group created by Visio.
 70
     0
 71
     1
340
A5
340
A6
  0
GROUP
  5
A8
102
{ACAD_REACTORS
330
D
102
}
100
AcDbGroup
300
Group created by Visio.
 70
     0
 71
     1
340
A9
340
AA
340
AB
340
AC
340
AD
  0
GROUP
  5
AF
102
{ACAD_REACTORS
330
D
102
}
100
AcDbGroup
300
Group created by Visio.
 70
     0
 71
     1
340
B1
340
B2
340
B3
340
B4
  0
GROUP
  5
B5
102
{ACAD_REACTORS
330
D
102
}
100
AcDbGroup
300
Group created by Visio.
 70
     0
 71
     1
340
B6
340
B7
340
B8
340
B9
  0
GROUP
  5
BA
102
{ACAD_REACTORS
330
D
102
}
100
AcDbGroup
300
Group created by Visio.
 70
     0
 71
     1
340
BB
340
BC
340
BD
340
BE
  0
GROUP
  5
BF
102
{ACAD_REACTORS
330
D
102
}
100
AcDbGroup
300
Group created by Visio.
 70
     0
 71
     1
340
C0
340
C1
340
C2
340
C3
  0
GROUP
  5
C4
102
{ACAD_REACTORS
330
D
102
}
100
AcDbGroup
300
Group created by Visio.
 70
     0
 71
     1
340
C5
340
C6
340
C7
340
C8
340
C9
  0
GROUP
  5
CB
102
{ACAD_REACTORS
330
D
102
}
100
AcDbGroup
300
Group created by Visio.
 70
     0
 71
     1
340
CC
340
CD
340
CE
340
CF
  0
GROUP
  5
D0
102
{ACAD_REACTORS
330
D
102
}
100
AcDbGroup
300
Group created by Visio.
 70
     0
 71
     1
340
D1
340
D2
340
D3
340
D4
  0
GROUP
  5
D5
102
{ACAD_REACTORS
330
D
102
}
100
AcDbGroup
300
Group created by Visio.
 70
     0
 71
     1
340
D6
340
D7
340
D8
340
D9
  0
GROUP
  5
DA
102
{ACAD_REACTORS
330
D
102
}
100
AcDbGroup
300
Group created by Visio.
 70
     0
 71
     1
340
DB
340
DC
340
DD
340
DE
340
DF
340
E0
  0
GROUP
  5
E1
102
{ACAD_REACTORS
330
D
102
}
100
AcDbGroup
300
Group created by Visio.
 70
     0
 71
     1
340
E2
340
E3
340
E4
340
E5
  0
GROUP
  5
E6
102
{ACAD_REACTORS
330
D
102
}
100
AcDbGroup
300
Group created by Visio.
 70
     0
 71
     1
340
E7
340
E8
340
E9
340
EA
  0
GROUP
  5
EB
102
{ACAD_REACTORS
330
D
102
}
100
AcDbGroup
300
Group created by Visio.
 70
     0
 71
     1
340
EC
340
ED
340
EE
340
EF
340
F0
340
F1
  0
GROUP
  5
F2
102
{ACAD_REACTORS
330
D
102
}
100
AcDbGroup
300
Group created by Visio.
 70
     0
 71
     1
340
F3
340
F4
340
F5
340
F6
340
F7
340
F8
  0
GROUP
  5
F9
102
{ACAD_REACTORS
330
D
102
}
100
AcDbGroup
300
Group created by Visio.
 70
     0
 71
     1
340
FA
340
FB
340
FC
340
FD
340
FE
340
FF
  0
GROUP
  5
100
102
{ACAD_REACTORS
330
D
102
}
100
AcDbGroup
300
Group created by Visio.
 70
     0
 71
     1
340
101
340
102
340
103
340
104
340
105
340
106
  0
GROUP
  5
107
102
{ACAD_REACTORS
330
D
102
}
100
AcDbGroup
300
Group created by Visio.
 70
     0
 71
     1
340
108
340
109
340
10A
340
10B
340
10C
340
10D
340
10E
340
10F
  0
GROUP
  5
110
102
{ACAD_REACTORS
330
D
102
}
100
AcDbGroup
300
Group created by Visio.
 70
     0
 71
     1
340
111
340
112
340
113
340
114
340
115
340
116
  0
GROUP
  5
117
102
{ACAD_REACTORS
330
D
102
}
100
AcDbGroup
300
Group created by Visio.
 70
     0
 71
     1
340
118
340
119
340
11A
340
11B
340
11C
340
11D
340
11E
340
11F
  0
GROUP
  5
120
102
{ACAD_REACTORS
330
D
102
}
100
AcDbGroup
300
Group created by Visio.
 70
     0
 71
     1
340
121
340
122
340
123
340
124
340
125
340
126
  0
GROUP
  5
127
102
{ACAD_REACTORS
330
D
102
}
100
AcDbGroup
300
Group created by Visio.
 70
     0
 71
     1
340
128
340
129
340
12A
340
12B
340
12C
340
12D
340
12F
340
130
340
131
340
132
340
133
340
12E
340
134
340
135
340
136
340
138
340
139
340
13A
340
137
340
13B
340
13C
340
13D
340
13E
340
13F
  0
GROUP
  5
140
102
{ACAD_REACTORS
330
D
102
}
100
AcDbGroup
300
Group created by Visio.
 70
     0
 71
     1
340
141
340
142
340
143
340
144
340
145
340
146
340
148
340
149
340
14A
340
14B
340
14C
340
147
340
14D
340
14E
340
14F
340
151
340
152
340
153
340
150
340
154
340
155
340
156
340
157
340
158
340
159
340
15A
340
15B
  0
GROUP
  5
15C
102
{ACAD_REACTORS
330
D
102
}
100
AcDbGroup
300
Group created by Visio.
 70
     0
 71
     1
340
15D
340
15E
340
15F
340
160
340
161
340
162
340
164
340
165
340
166
340
167
340
168
340
163
340
169
340
16A
340
16B
340
16D
340
16E
340
16F
340
16C
340
170
340
171
340
172
340
173
340
174
  0
GROUP
  5
175
102
{ACAD_REACTORS
330
D
102
}
100
AcDbGroup
300
Group created by Visio.
 70
     0
 71
     1
340
176
340
177
340
178
340
179
340
17A
340
17B
340
17D
340
17E
340
17F
340
180
340
181
340
17C
340
182
340
183
340
184
340
186
340
187
340
188
340
185
340
189
340
18A
340
18B
340
18C
340
18D
  0
GROUP
  5
18E
102
{ACAD_REACTORS
330
D
102
}
100
AcDbGroup
300
Group created by Visio.
 70
     0
 71
     1
340
18F
340
190
340
191
340
192
340
193
340
194
340
196
340
197
340
198
340
199
340
19A
340
195
340
19B
340
19C
340
19D
340
19F
340
1A0
340
1A1
340
19E
340
1A2
340
1A3
340
1A4
340
1A5
340
1A6
  0
GROUP
  5
1A7
102
{ACAD_REACTORS
330
D
102
}
100
AcDbGroup
300
Group created by Visio.
 70
     0
 71
     1
340
1A8
340
1A9
340
1AA
340
1AB
340
1AC
340
1AD
340
1AF
340
1B0
340
1B1
340
1B2
340
1B3
340
1AE
340
1B4
340
1B5
340
1B6
340
1B8
340
1B9
340
1BA
340
1B7
340
1BB
340
1BC
340
1BD
340
1BE
340
1BF
  0
GROUP
  5
1C0
102
{ACAD_REACTORS
330
D
102
}
100
AcDbGroup
300
Group created by Visio.
 70
     0
 71
     1
340
1C1
340
1C2
340
1C3
340
1C4
340
1C5
340
1C6
340
1C8
340
1C9
340
1CA
340
1CB
340
1CC
340
1C7
340
1CD
340
1CE
340
1CF
340
1D1
340
1D2
340
1D3
340
1D0
340
1D4
340
1D5
340
1D6
340
1D7
340
1D8
  0
GROUP
  5
1D9
102
{ACAD_REACTORS
330
D
102
}
100
AcDbGroup
300
Group created by Visio.
 70
     0
 71
     1
340
1DB
340
1DC
340
1DD
340
1DE
340
1DF
340
1E1
340
1E2
340
1E3
340
1E4
340
1E5
340
1E6
340
1E7
340
1E8
340
1E9
340
1EA
340
1EB
340
1EC
340
1E0
340
1EF
340
1F0
340
1F1
340
1F2
340
1F3
340
1F4
340
1F6
340
1F7
340
1F8
340
1F9
340
1FA
340
1F5
340
1FC
340
1FD
340
1FE
340
1FF
340
200
  0
GROUP
  5
201
102
{ACAD_REACTORS
330
D
102
}
100
AcDbGroup
300
Group created by Visio.
 70
     0
 71
     1
340
202
340
203
340
204
340
205
340
206
340
207
340
208
340
209
340
20A
340
20B
340
20C
340
20D
340
20E
340
20F
340
210
340
211
  0
ENDSEC
  0
EOF
